<svg xmlns="http://www.w3.org/2000/svg" width="512" height="157"><path d="M-.107 33.336v-.924H6.73v.924zm7 0v-.924h6.837v.924zm7 0v-.924h6.837v.924zm7 0v-.924h6.837v.924zm7 0v-.924h6.837v.924zm-28 91v-.924H6.73v.924zm7 0v-.924h6.837v.924zm7 0v-.924h6.837v.924zm7 0v-.924h6.837v.924zm7 0v-.924h6.837v.924zm-17.584 7.527q1.283 0 1.941 1.047.658 1.048.658 3.1 0 2.051-.658 3.098-.658 1.048-1.941 1.048-1.284 0-1.94-1.048-.655-1.047-.655-3.099 0-2.051.656-3.099.655-1.047 1.939-1.047zm0 7.433q.762 0 1.136-.81.373-.812.373-2.477 0-.886-.108-1.6l-2.556 4.001q.403.886 1.155.886zm0-6.574q-.758 0-1.131.811t-.373 2.476q0 .758.102 1.418l2.503-3.99q-.409-.715-1.101-.715z" fill="#CACACA"/><path d="M475.73 150.336h-2.025q-.902 0-1.391-.72-.435-.644-.435-1.547v-5.768h.86v5.768q0 .666.244 1.005.244.338.722.338h2.025zm.163 0v-.924h6.837v.924zm7 0v-.924h6.837v.924zm7 0v-.924h6.837v.924zm7 0v-.924h6.837v.924zm7 0v-.924h2.02q.477 0 .722-.338.244-.339.244-1.005v-5.768h.86v5.768q0 .903-.436 1.547-.489.72-1.39.72z" fill="#F99"/><path d="M20.005 133.984l-2.154 2.88L20.214 140H19.07l-1.761-2.412L15.552 140h-1.144l2.363-3.137-2.153-2.879h1.095l1.596 2.176 1.584-2.176zm4.943-1.014l-2.53 4.237h2.53zm-.177-.989h1.256v5.226h1.07v.88h-1.07V140h-1.08v-1.912h-3.4v-1.026zm6.538-.118q1.283 0 1.941 1.047.658 1.048.658 3.1 0 2.051-.658 3.098-.658 1.048-1.941 1.048-1.284 0-1.94-1.048-.655-1.047-.655-3.099 0-2.051.656-3.099.655-1.047 1.939-1.047zm0 7.433q.762 0 1.136-.81.373-.812.373-2.477 0-.886-.108-1.6l-2.556 4.001q.403.886 1.155.886zm0-6.574q-.758 0-1.131.811t-.373 2.476q0 .758.102 1.418l2.503-3.99q-.409-.715-1.101-.715zm6.57 10.598V129.3h.86v14.02zm7.43-11.457q1.283 0 1.941 1.047.658 1.048.658 3.1 0 2.051-.658 3.098-.658 1.048-1.941 1.048-1.284 0-1.94-1.048-.655-1.047-.655-3.099 0-2.051.656-3.099.655-1.047 1.939-1.047zm0 7.433q.762 0 1.136-.81.373-.812.373-2.477 0-.886-.108-1.6l-2.556 4.001q.403.886 1.155.886zm0-6.574q-.758 0-1.131.811t-.373 2.476q0 .758.102 1.418l2.503-3.99q-.409-.715-1.101-.715zm9.696 1.262l-2.154 2.88L55.214 140H54.07l-1.761-2.412L50.552 140h-1.144l2.363-3.137-2.153-2.879h1.095l1.596 2.176 1.584-2.176zm4.304-2.121q1.283 0 1.941 1.047.658 1.048.658 3.1 0 2.051-.658 3.098-.658 1.048-1.941 1.048-1.284 0-1.94-1.048-.655-1.047-.655-3.099 0-2.051.656-3.099.655-1.047 1.939-1.047zm0 7.433q.762 0 1.136-.81.373-.812.373-2.477 0-.886-.108-1.6l-2.556 4.001q.403.886 1.155.886zm0-6.574q-.758 0-1.131.811t-.373 2.476q0 .758.102 1.418l2.503-3.99q-.409-.715-1.101-.715zm7-.859q1.283 0 1.941 1.047.658 1.048.658 3.1 0 2.051-.658 3.098-.658 1.048-1.941 1.048-1.284 0-1.94-1.048-.655-1.047-.655-3.099 0-2.051.656-3.099.655-1.047 1.939-1.047zm0 7.433q.762 0 1.136-.81.373-.812.373-2.477 0-.886-.108-1.6l-2.556 4.001q.403.886 1.155.886zm0-6.574q-.758 0-1.131.811t-.373 2.476q0 .758.102 1.418l2.503-3.99q-.409-.715-1.101-.715zm7-.859q1.283 0 1.941 1.047.658 1.048.658 3.1 0 2.051-.658 3.098-.658 1.048-1.941 1.048-1.284 0-1.94-1.048-.655-1.047-.655-3.099 0-2.051.656-3.099.655-1.047 1.939-1.047zm0 7.433q.762 0 1.136-.81.373-.812.373-2.477 0-.886-.108-1.6l-2.556 4.001q.403.886 1.155.886zm0-6.574q-.758 0-1.131.811t-.373 2.476q0 .758.102 1.418l2.503-3.99q-.409-.715-1.101-.715zm7-.859q1.283 0 1.941 1.047.658 1.048.658 3.1 0 2.051-.658 3.098-.658 1.048-1.941 1.048-1.284 0-1.94-1.048-.655-1.047-.655-3.099 0-2.051.656-3.099.655-1.047 1.939-1.047zm0 7.433q.762 0 1.136-.81.373-.812.373-2.477 0-.886-.108-1.6l-2.556 4.001q.403.886 1.155.886zm0-6.574q-.758 0-1.131.811t-.373 2.476q0 .758.102 1.418l2.503-3.99q-.409-.715-1.101-.715zm7-.859q1.283 0 1.941 1.047.658 1.048.658 3.1 0 2.051-.658 3.098-.658 1.048-1.941 1.048-1.284 0-1.94-1.048-.655-1.047-.655-3.099 0-2.051.656-3.099.655-1.047 1.939-1.047zm0 7.433q.762 0 1.136-.81.373-.812.373-2.477 0-.886-.108-1.6l-2.556 4.001q.403.886 1.155.886zm0-6.574q-.758 0-1.131.811t-.373 2.476q0 .758.102 1.418l2.503-3.99q-.409-.715-1.101-.715zm7-.859q1.283 0 1.941 1.047.658 1.048.658 3.1 0 2.051-.658 3.098-.658 1.048-1.941 1.048-1.284 0-1.94-1.048-.655-1.047-.655-3.099 0-2.051.656-3.099.655-1.047 1.939-1.047zm0 7.433q.762 0 1.136-.81.373-.812.373-2.477 0-.886-.108-1.6l-2.556 4.001q.403.886 1.155.886zm0-6.574q-.758 0-1.131.811t-.373 2.476q0 .758.102 1.418l2.503-3.99q-.409-.715-1.101-.715zm7-.859q1.283 0 1.941 1.047.658 1.048.658 3.1 0 2.051-.658 3.098-.658 1.048-1.941 1.048-1.284 0-1.94-1.048-.655-1.047-.655-3.099 0-2.051.656-3.099.655-1.047 1.939-1.047zm0 7.433q.762 0 1.136-.81.373-.812.373-2.477 0-.886-.108-1.6l-2.556 4.001q.403.886 1.155.886zm0-6.574q-.758 0-1.131.811t-.373 2.476q0 .758.102 1.418l2.503-3.99q-.409-.715-1.101-.715zm7-.859q1.283 0 1.941 1.047.658 1.048.658 3.1 0 2.051-.658 3.098-.658 1.048-1.941 1.048-1.284 0-1.94-1.048-.655-1.047-.655-3.099 0-2.051.656-3.099.655-1.047 1.939-1.047zm0 7.433q.762 0 1.136-.81.373-.812.373-2.477 0-.886-.108-1.6l-2.556 4.001q.403.886 1.155.886zm0-6.574q-.758 0-1.131.811t-.373 2.476q0 .758.102 1.418l2.503-3.99q-.409-.715-1.101-.715zm7-.859q1.283 0 1.941 1.047.658 1.048.658 3.1 0 2.051-.658 3.098-.658 1.048-1.941 1.048-1.284 0-1.94-1.048-.655-1.047-.655-3.099 0-2.051.656-3.099.655-1.047 1.939-1.047zm0 7.433q.762 0 1.136-.81.373-.812.373-2.477 0-.886-.108-1.6l-2.556 4.001q.403.886 1.155.886zm0-6.574q-.758 0-1.131.811t-.373 2.476q0 .758.102 1.418l2.503-3.99q-.409-.715-1.101-.715zm7-.859q1.283 0 1.941 1.047.658 1.048.658 3.1 0 2.051-.658 3.098-.658 1.048-1.941 1.048-1.284 0-1.94-1.048-.655-1.047-.655-3.099 0-2.051.656-3.099.655-1.047 1.939-1.047zm0 7.433q.762 0 1.136-.81.373-.812.373-2.477 0-.886-.108-1.6l-2.556 4.001q.403.886 1.155.886zm0-6.574q-.758 0-1.131.811t-.373 2.476q0 .758.102 1.418l2.503-3.99q-.409-.715-1.101-.715zm7-.859q1.283 0 1.941 1.047.658 1.048.658 3.1 0 2.051-.658 3.098-.658 1.048-1.941 1.048-1.284 0-1.94-1.048-.655-1.047-.655-3.099 0-2.051.656-3.099.655-1.047 1.939-1.047zm0 7.433q.762 0 1.136-.81.373-.812.373-2.477 0-.886-.108-1.6l-2.556 4.001q.403.886 1.155.886zm0-6.574q-.758 0-1.131.811t-.373 2.476q0 .758.102 1.418l2.503-3.99q-.409-.715-1.101-.715zm7-.859q1.283 0 1.941 1.047.658 1.048.658 3.1 0 2.051-.658 3.098-.658 1.048-1.941 1.048-1.284 0-1.94-1.048-.655-1.047-.655-3.099 0-2.051.656-3.099.655-1.047 1.939-1.047zm0 7.433q.762 0 1.136-.81.373-.812.373-2.477 0-.886-.108-1.6l-2.556 4.001q.403.886 1.155.886zm0-6.574q-.758 0-1.131.811t-.373 2.476q0 .758.102 1.418l2.503-3.99q-.409-.715-1.101-.715zm7-.859q1.283 0 1.941 1.047.658 1.048.658 3.1 0 2.051-.658 3.098-.658 1.048-1.941 1.048-1.284 0-1.94-1.048-.655-1.047-.655-3.099 0-2.051.656-3.099.655-1.047 1.939-1.047zm0 7.433q.762 0 1.136-.81.373-.812.373-2.477 0-.886-.108-1.6l-2.556 4.001q.403.886 1.155.886zm0-6.574q-.758 0-1.131.811t-.373 2.476q0 .758.102 1.418l2.503-3.99q-.409-.715-1.101-.715zm7-.859q1.283 0 1.941 1.047.658 1.048.658 3.1 0 2.051-.658 3.098-.658 1.048-1.941 1.048-1.284 0-1.94-1.048-.655-1.047-.655-3.099 0-2.051.656-3.099.655-1.047 1.939-1.047zm0 7.433q.762 0 1.136-.81.373-.812.373-2.477 0-.886-.108-1.6l-2.556 4.001q.403.886 1.155.886zm0-6.574q-.758 0-1.131.811t-.373 2.476q0 .758.102 1.418l2.503-3.99q-.409-.715-1.101-.715zm7-.859q1.283 0 1.941 1.047.658 1.048.658 3.1 0 2.051-.658 3.098-.658 1.048-1.941 1.048-1.284 0-1.94-1.048-.655-1.047-.655-3.099 0-2.051.656-3.099.655-1.047 1.939-1.047zm0 7.433q.762 0 1.136-.81.373-.812.373-2.477 0-.886-.108-1.6l-2.556 4.001q.403.886 1.155.886zm0-6.574q-.758 0-1.131.811t-.373 2.476q0 .758.102 1.418l2.503-3.99q-.409-.715-1.101-.715zm7-.859q1.283 0 1.941 1.047.658 1.048.658 3.1 0 2.051-.658 3.098-.658 1.048-1.941 1.048-1.284 0-1.94-1.048-.655-1.047-.655-3.099 0-2.051.656-3.099.655-1.047 1.939-1.047zm0 7.433q.762 0 1.136-.81.373-.812.373-2.477 0-.886-.108-1.6l-2.556 4.001q.403.886 1.155.886zm0-6.574q-.758 0-1.131.811t-.373 2.476q0 .758.102 1.418l2.503-3.99q-.409-.715-1.101-.715zm7-.859q1.283 0 1.941 1.047.658 1.048.658 3.1 0 2.051-.658 3.098-.658 1.048-1.941 1.048-1.284 0-1.94-1.048-.655-1.047-.655-3.099 0-2.051.656-3.099.655-1.047 1.939-1.047zm0 7.433q.762 0 1.136-.81.373-.812.373-2.477 0-.886-.108-1.6l-2.556 4.001q.403.886 1.155.886zm0-6.574q-.758 0-1.131.811t-.373 2.476q0 .758.102 1.418l2.503-3.99q-.409-.715-1.101-.715zm7-.859q1.283 0 1.941 1.047.658 1.048.658 3.1 0 2.051-.658 3.098-.658 1.048-1.941 1.048-1.284 0-1.94-1.048-.655-1.047-.655-3.099 0-2.051.656-3.099.655-1.047 1.939-1.047zm0 7.433q.762 0 1.136-.81.373-.812.373-2.477 0-.886-.108-1.6l-2.556 4.001q.403.886 1.155.886zm0-6.574q-.758 0-1.131.811t-.373 2.476q0 .758.102 1.418l2.503-3.99q-.409-.715-1.101-.715zm7-.859q1.283 0 1.941 1.047.658 1.048.658 3.1 0 2.051-.658 3.098-.658 1.048-1.941 1.048-1.284 0-1.94-1.048-.655-1.047-.655-3.099 0-2.051.656-3.099.655-1.047 1.939-1.047zm0 7.433q.762 0 1.136-.81.373-.812.373-2.477 0-.886-.108-1.6l-2.556 4.001q.403.886 1.155.886zm0-6.574q-.758 0-1.131.811t-.373 2.476q0 .758.102 1.418l2.503-3.99q-.409-.715-1.101-.715zm7-.859q1.283 0 1.941 1.047.658 1.048.658 3.1 0 2.051-.658 3.098-.658 1.048-1.941 1.048-1.284 0-1.94-1.048-.655-1.047-.655-3.099 0-2.051.656-3.099.655-1.047 1.939-1.047zm0 7.433q.762 0 1.136-.81.373-.812.373-2.477 0-.886-.108-1.6l-2.556 4.001q.403.886 1.155.886zm0-6.574q-.758 0-1.131.811t-.373 2.476q0 .758.102 1.418l2.503-3.99q-.409-.715-1.101-.715zm7-.859q1.283 0 1.941 1.047.658 1.048.658 3.1 0 2.051-.658 3.098-.658 1.048-1.941 1.048-1.284 0-1.94-1.048-.655-1.047-.655-3.099 0-2.051.656-3.099.655-1.047 1.939-1.047zm0 7.433q.762 0 1.136-.81.373-.812.373-2.477 0-.886-.108-1.6l-2.556 4.001q.403.886 1.155.886zm0-6.574q-.758 0-1.131.811t-.373 2.476q0 .758.102 1.418l2.503-3.99q-.409-.715-1.101-.715zm7-.859q1.283 0 1.941 1.047.658 1.048.658 3.1 0 2.051-.658 3.098-.658 1.048-1.941 1.048-1.284 0-1.94-1.048-.655-1.047-.655-3.099 0-2.051.656-3.099.655-1.047 1.939-1.047zm0 7.433q.762 0 1.136-.81.373-.812.373-2.477 0-.886-.108-1.6l-2.556 4.001q.403.886 1.155.886zm0-6.574q-.758 0-1.131.811t-.373 2.476q0 .758.102 1.418l2.503-3.99q-.409-.715-1.101-.715zm7-.859q1.283 0 1.941 1.047.658 1.048.658 3.1 0 2.051-.658 3.098-.658 1.048-1.941 1.048-1.284 0-1.94-1.048-.655-1.047-.655-3.099 0-2.051.656-3.099.655-1.047 1.939-1.047zm0 7.433q.762 0 1.136-.81.373-.812.373-2.477 0-.886-.108-1.6l-2.556 4.001q.403.886 1.155.886zm0-6.574q-.758 0-1.131.811t-.373 2.476q0 .758.102 1.418l2.503-3.99q-.409-.715-1.101-.715zm7-.859q1.283 0 1.941 1.047.658 1.048.658 3.1 0 2.051-.658 3.098-.658 1.048-1.941 1.048-1.284 0-1.94-1.048-.655-1.047-.655-3.099 0-2.051.656-3.099.655-1.047 1.939-1.047zm0 7.433q.762 0 1.136-.81.373-.812.373-2.477 0-.886-.108-1.6l-2.556 4.001q.403.886 1.155.886zm0-6.574q-.758 0-1.131.811t-.373 2.476q0 .758.102 1.418l2.503-3.99q-.409-.715-1.101-.715zm7-.859q1.283 0 1.941 1.047.658 1.048.658 3.1 0 2.051-.658 3.098-.658 1.048-1.941 1.048-1.284 0-1.94-1.048-.655-1.047-.655-3.099 0-2.051.656-3.099.655-1.047 1.939-1.047zm0 7.433q.762 0 1.136-.81.373-.812.373-2.477 0-.886-.108-1.6l-2.556 4.001q.403.886 1.155.886zm0-6.574q-.758 0-1.131.811t-.373 2.476q0 .758.102 1.418l2.503-3.99q-.409-.715-1.101-.715zm7-.859q1.283 0 1.941 1.047.658 1.048.658 3.1 0 2.051-.658 3.098-.658 1.048-1.941 1.048-1.284 0-1.94-1.048-.655-1.047-.655-3.099 0-2.051.656-3.099.655-1.047 1.939-1.047zm0 7.433q.762 0 1.136-.81.373-.812.373-2.477 0-.886-.108-1.6l-2.556 4.001q.403.886 1.155.886zm0-6.574q-.758 0-1.131.811t-.373 2.476q0 .758.102 1.418l2.503-3.99q-.409-.715-1.101-.715zm7-.859q1.283 0 1.941 1.047.658 1.048.658 3.1 0 2.051-.658 3.098-.658 1.048-1.941 1.048-1.284 0-1.94-1.048-.655-1.047-.655-3.099 0-2.051.656-3.099.655-1.047 1.939-1.047zm0 7.433q.762 0 1.136-.81.373-.812.373-2.477 0-.886-.108-1.6l-2.556 4.001q.403.886 1.155.886zm0-6.574q-.758 0-1.131.811t-.373 2.476q0 .758.102 1.418l2.503-3.99q-.409-.715-1.101-.715zm7-.859q1.283 0 1.941 1.047.658 1.048.658 3.1 0 2.051-.658 3.098-.658 1.048-1.941 1.048-1.284 0-1.94-1.048-.655-1.047-.655-3.099 0-2.051.656-3.099.655-1.047 1.939-1.047zm0 7.433q.762 0 1.136-.81.373-.812.373-2.477 0-.886-.108-1.6l-2.556 4.001q.403.886 1.155.886zm0-6.574q-.758 0-1.131.811t-.373 2.476q0 .758.102 1.418l2.503-3.99q-.409-.715-1.101-.715zm7-.859q1.283 0 1.941 1.047.658 1.048.658 3.1 0 2.051-.658 3.098-.658 1.048-1.941 1.048-1.284 0-1.94-1.048-.655-1.047-.655-3.099 0-2.051.656-3.099.655-1.047 1.939-1.047zm0 7.433q.762 0 1.136-.81.373-.812.373-2.477 0-.886-.108-1.6l-2.556 4.001q.403.886 1.155.886zm0-6.574q-.758 0-1.131.811t-.373 2.476q0 .758.102 1.418l2.503-3.99q-.409-.715-1.101-.715zm7-.859q1.283 0 1.941 1.047.658 1.048.658 3.1 0 2.051-.658 3.098-.658 1.048-1.941 1.048-1.284 0-1.94-1.048-.655-1.047-.655-3.099 0-2.051.656-3.099.655-1.047 1.939-1.047zm0 7.433q.762 0 1.136-.81.373-.812.373-2.477 0-.886-.108-1.6l-2.556 4.001q.403.886 1.155.886zm0-6.574q-.758 0-1.131.811t-.373 2.476q0 .758.102 1.418l2.503-3.99q-.409-.715-1.101-.715zm7-.859q1.283 0 1.941 1.047.658 1.048.658 3.1 0 2.051-.658 3.098-.658 1.048-1.941 1.048-1.284 0-1.94-1.048-.655-1.047-.655-3.099 0-2.051.656-3.099.655-1.047 1.939-1.047zm0 7.433q.762 0 1.136-.81.373-.812.373-2.477 0-.886-.108-1.6l-2.556 4.001q.403.886 1.155.886zm0-6.574q-.758 0-1.131.811t-.373 2.476q0 .758.102 1.418l2.503-3.99q-.409-.715-1.101-.715zm7-.859q1.283 0 1.941 1.047.658 1.048.658 3.1 0 2.051-.658 3.098-.658 1.048-1.941 1.048-1.284 0-1.94-1.048-.655-1.047-.655-3.099 0-2.051.656-3.099.655-1.047 1.939-1.047zm0 7.433q.762 0 1.136-.81.373-.812.373-2.477 0-.886-.108-1.6l-2.556 4.001q.403.886 1.155.886zm0-6.574q-.758 0-1.131.811t-.373 2.476q0 .758.102 1.418l2.503-3.99q-.409-.715-1.101-.715zm7-.859q1.283 0 1.941 1.047.658 1.048.658 3.1 0 2.051-.658 3.098-.658 1.048-1.941 1.048-1.284 0-1.94-1.048-.655-1.047-.655-3.099 0-2.051.656-3.099.655-1.047 1.939-1.047zm0 7.433q.762 0 1.136-.81.373-.812.373-2.477 0-.886-.108-1.6l-2.556 4.001q.403.886 1.155.886zm0-6.574q-.758 0-1.131.811t-.373 2.476q0 .758.102 1.418l2.503-3.99q-.409-.715-1.101-.715zm7-.859q1.283 0 1.941 1.047.658 1.048.658 3.1 0 2.051-.658 3.098-.658 1.048-1.941 1.048-1.284 0-1.94-1.048-.655-1.047-.655-3.099 0-2.051.656-3.099.655-1.047 1.939-1.047zm0 7.433q.762 0 1.136-.81.373-.812.373-2.477 0-.886-.108-1.6l-2.556 4.001q.403.886 1.155.886zm0-6.574q-.758 0-1.131.811t-.373 2.476q0 .758.102 1.418l2.503-3.99q-.409-.715-1.101-.715zm7-.859q1.283 0 1.941 1.047.658 1.048.658 3.1 0 2.051-.658 3.098-.658 1.048-1.941 1.048-1.284 0-1.94-1.048-.655-1.047-.655-3.099 0-2.051.656-3.099.655-1.047 1.939-1.047zm0 7.433q.762 0 1.136-.81.373-.812.373-2.477 0-.886-.108-1.6l-2.556 4.001q.403.886 1.155.886zm0-6.574q-.758 0-1.131.811t-.373 2.476q0 .758.102 1.418l2.503-3.99q-.409-.715-1.101-.715zm7-.859q1.283 0 1.941 1.047.658 1.048.658 3.1 0 2.051-.658 3.098-.658 1.048-1.941 1.048-1.284 0-1.94-1.048-.655-1.047-.655-3.099 0-2.051.656-3.099.655-1.047 1.939-1.047zm0 7.433q.762 0 1.136-.81.373-.812.373-2.477 0-.886-.108-1.6l-2.556 4.001q.403.886 1.155.886zm0-6.574q-.758 0-1.131.811t-.373 2.476q0 .758.102 1.418l2.503-3.99q-.409-.715-1.101-.715zm7-.859q1.283 0 1.941 1.047.658 1.048.658 3.1 0 2.051-.658 3.098-.658 1.048-1.941 1.048-1.284 0-1.94-1.048-.655-1.047-.655-3.099 0-2.051.656-3.099.655-1.047 1.939-1.047zm0 7.433q.762 0 1.136-.81.373-.812.373-2.477 0-.886-.108-1.6l-2.556 4.001q.403.886 1.155.886zm0-6.574q-.758 0-1.131.811t-.373 2.476q0 .758.102 1.418l2.503-3.99q-.409-.715-1.101-.715zm7-.859q1.283 0 1.941 1.047.658 1.048.658 3.1 0 2.051-.658 3.098-.658 1.048-1.941 1.048-1.284 0-1.94-1.048-.655-1.047-.655-3.099 0-2.051.656-3.099.655-1.047 1.939-1.047zm0 7.433q.762 0 1.136-.81.373-.812.373-2.477 0-.886-.108-1.6l-2.556 4.001q.403.886 1.155.886zm0-6.574q-.758 0-1.131.811t-.373 2.476q0 .758.102 1.418l2.503-3.99q-.409-.715-1.101-.715zm7-.859q1.283 0 1.941 1.047.658 1.048.658 3.1 0 2.051-.658 3.098-.658 1.048-1.941 1.048-1.284 0-1.94-1.048-.655-1.047-.655-3.099 0-2.051.656-3.099.655-1.047 1.939-1.047zm0 7.433q.762 0 1.136-.81.373-.812.373-2.477 0-.886-.108-1.6l-2.556 4.001q.403.886 1.155.886zm0-6.574q-.758 0-1.131.811t-.373 2.476q0 .758.102 1.418l2.503-3.99q-.409-.715-1.101-.715zm7-.859q1.283 0 1.941 1.047.658 1.048.658 3.1 0 2.051-.658 3.098-.658 1.048-1.941 1.048-1.284 0-1.94-1.048-.655-1.047-.655-3.099 0-2.051.656-3.099.655-1.047 1.939-1.047zm0 7.433q.762 0 1.136-.81.373-.812.373-2.477 0-.886-.108-1.6l-2.556 4.001q.403.886 1.155.886zm0-6.574q-.758 0-1.131.811t-.373 2.476q0 .758.102 1.418l2.503-3.99q-.409-.715-1.101-.715zm7-.859q1.283 0 1.941 1.047.658 1.048.658 3.1 0 2.051-.658 3.098-.658 1.048-1.941 1.048-1.284 0-1.94-1.048-.655-1.047-.655-3.099 0-2.051.656-3.099.655-1.047 1.939-1.047zm0 7.433q.762 0 1.136-.81.373-.812.373-2.477 0-.886-.108-1.6l-2.556 4.001q.403.886 1.155.886zm0-6.574q-.758 0-1.131.811t-.373 2.476q0 .758.102 1.418l2.503-3.99q-.409-.715-1.101-.715zm7-.859q1.283 0 1.941 1.047.658 1.048.658 3.1 0 2.051-.658 3.098-.658 1.048-1.941 1.048-1.284 0-1.94-1.048-.655-1.047-.655-3.099 0-2.051.656-3.099.655-1.047 1.939-1.047zm0 7.433q.762 0 1.136-.81.373-.812.373-2.477 0-.886-.108-1.6l-2.556 4.001q.403.886 1.155.886zm0-6.574q-.758 0-1.131.811t-.373 2.476q0 .758.102 1.418l2.503-3.99q-.409-.715-1.101-.715zm7-.859q1.283 0 1.941 1.047.658 1.048.658 3.1 0 2.051-.658 3.098-.658 1.048-1.941 1.048-1.284 0-1.94-1.048-.655-1.047-.655-3.099 0-2.051.656-3.099.655-1.047 1.939-1.047zm0 7.433q.762 0 1.136-.81.373-.812.373-2.477 0-.886-.108-1.6l-2.556 4.001q.403.886 1.155.886zm0-6.574q-.758 0-1.131.811t-.373 2.476q0 .758.102 1.418l2.503-3.99q-.409-.715-1.101-.715zm7-.859q1.283 0 1.941 1.047.658 1.048.658 3.1 0 2.051-.658 3.098-.658 1.048-1.941 1.048-1.284 0-1.94-1.048-.655-1.047-.655-3.099 0-2.051.656-3.099.655-1.047 1.939-1.047zm0 7.433q.762 0 1.136-.81.373-.812.373-2.477 0-.886-.108-1.6l-2.556 4.001q.403.886 1.155.886zm0-6.574q-.758 0-1.131.811t-.373 2.476q0 .758.102 1.418l2.503-3.99q-.409-.715-1.101-.715zm7-.859q1.283 0 1.941 1.047.658 1.048.658 3.1 0 2.051-.658 3.098-.658 1.048-1.941 1.048-1.284 0-1.94-1.048-.655-1.047-.655-3.099 0-2.051.656-3.099.655-1.047 1.939-1.047zm0 7.433q.762 0 1.136-.81.373-.812.373-2.477 0-.886-.108-1.6l-2.556 4.001q.403.886 1.155.886zm0-6.574q-.758 0-1.131.811t-.373 2.476q0 .758.102 1.418l2.503-3.99q-.409-.715-1.101-.715zm7-.859q1.283 0 1.941 1.047.658 1.048.658 3.1 0 2.051-.658 3.098-.658 1.048-1.941 1.048-1.284 0-1.94-1.048-.655-1.047-.655-3.099 0-2.051.656-3.099.655-1.047 1.939-1.047zm0 7.433q.762 0 1.136-.81.373-.812.373-2.477 0-.886-.108-1.6l-2.556 4.001q.403.886 1.155.886zm0-6.574q-.758 0-1.131.811t-.373 2.476q0 .758.102 1.418l2.503-3.99q-.409-.715-1.101-.715zm7-.859q1.283 0 1.941 1.047.658 1.048.658 3.1 0 2.051-.658 3.098-.658 1.048-1.941 1.048-1.284 0-1.94-1.048-.655-1.047-.655-3.099 0-2.051.656-3.099.655-1.047 1.939-1.047zm0 7.433q.762 0 1.136-.81.373-.812.373-2.477 0-.886-.108-1.6l-2.556 4.001q.403.886 1.155.886zm0-6.574q-.758 0-1.131.811t-.373 2.476q0 .758.102 1.418l2.503-3.99q-.409-.715-1.101-.715zm7-.859q1.283 0 1.941 1.047.658 1.048.658 3.1 0 2.051-.658 3.098-.658 1.048-1.941 1.048-1.284 0-1.94-1.048-.655-1.047-.655-3.099 0-2.051.656-3.099.655-1.047 1.939-1.047zm0 7.433q.762 0 1.136-.81.373-.812.373-2.477 0-.886-.108-1.6l-2.556 4.001q.403.886 1.155.886zm0-6.574q-.758 0-1.131.811t-.373 2.476q0 .758.102 1.418l2.503-3.99q-.409-.715-1.101-.715zm7-.859q1.283 0 1.941 1.047.658 1.048.658 3.1 0 2.051-.658 3.098-.658 1.048-1.941 1.048-1.284 0-1.94-1.048-.655-1.047-.655-3.099 0-2.051.656-3.099.655-1.047 1.939-1.047zm0 7.433q.762 0 1.136-.81.373-.812.373-2.477 0-.886-.108-1.6l-2.556 4.001q.403.886 1.155.886zm0-6.574q-.758 0-1.131.811t-.373 2.476q0 .758.102 1.418l2.503-3.99q-.409-.715-1.101-.715zm7-.859q1.283 0 1.941 1.047.658 1.048.658 3.1 0 2.051-.658 3.098-.658 1.048-1.941 1.048-1.284 0-1.94-1.048-.655-1.047-.655-3.099 0-2.051.656-3.099.655-1.047 1.939-1.047zm0 7.433q.762 0 1.136-.81.373-.812.373-2.477 0-.886-.108-1.6l-2.556 4.001q.403.886 1.155.886zm0-6.574q-.758 0-1.131.811t-.373 2.476q0 .758.102 1.418l2.503-3.99q-.409-.715-1.101-.715zm7-.859q1.283 0 1.941 1.047.658 1.048.658 3.1 0 2.051-.658 3.098-.658 1.048-1.941 1.048-1.284 0-1.94-1.048-.655-1.047-.655-3.099 0-2.051.656-3.099.655-1.047 1.939-1.047zm0 7.433q.762 0 1.136-.81.373-.812.373-2.477 0-.886-.108-1.6l-2.556 4.001q.403.886 1.155.886zm0-6.574q-.758 0-1.131.811t-.373 2.476q0 .758.102 1.418l2.503-3.99q-.409-.715-1.101-.715zm7-.859q1.283 0 1.941 1.047.658 1.048.658 3.1 0 2.051-.658 3.098-.658 1.048-1.941 1.048-1.284 0-1.94-1.048-.655-1.047-.655-3.099 0-2.051.656-3.099.655-1.047 1.939-1.047zm0 7.433q.762 0 1.136-.81.373-.812.373-2.477 0-.886-.108-1.6l-2.556 4.001q.403.886 1.155.886zm0-6.574q-.758 0-1.131.811t-.373 2.476q0 .758.102 1.418l2.503-3.99q-.409-.715-1.101-.715zm7-.859q1.283 0 1.941 1.047.658 1.048.658 3.1 0 2.051-.658 3.098-.658 1.048-1.941 1.048-1.284 0-1.94-1.048-.655-1.047-.655-3.099 0-2.051.656-3.099.655-1.047 1.939-1.047zm0 7.433q.762 0 1.136-.81.373-.812.373-2.477 0-.886-.108-1.6l-2.556 4.001q.403.886 1.155.886zm0-6.574q-.758 0-1.131.811t-.373 2.476q0 .758.102 1.418l2.503-3.99q-.409-.715-1.101-.715zm7-.859q1.283 0 1.941 1.047.658 1.048.658 3.1 0 2.051-.658 3.098-.658 1.048-1.941 1.048-1.284 0-1.94-1.048-.655-1.047-.655-3.099 0-2.051.656-3.099.655-1.047 1.939-1.047zm0 7.433q.762 0 1.136-.81.373-.812.373-2.477 0-.886-.108-1.6l-2.556 4.001q.403.886 1.155.886zm0-6.574q-.758 0-1.131.811t-.373 2.476q0 .758.102 1.418l2.503-3.99q-.409-.715-1.101-.715zm7-.859q1.283 0 1.941 1.047.658 1.048.658 3.1 0 2.051-.658 3.098-.658 1.048-1.941 1.048-1.284 0-1.94-1.048-.655-1.047-.655-3.099 0-2.051.656-3.099.655-1.047 1.939-1.047zm0 7.433q.762 0 1.136-.81.373-.812.373-2.477 0-.886-.108-1.6l-2.556 4.001q.403.886 1.155.886zm0-6.574q-.758 0-1.131.811t-.373 2.476q0 .758.102 1.418l2.503-3.99q-.409-.715-1.101-.715zm7-.859q1.283 0 1.941 1.047.658 1.048.658 3.1 0 2.051-.658 3.098-.658 1.048-1.941 1.048-1.284 0-1.94-1.048-.655-1.047-.655-3.099 0-2.051.656-3.099.655-1.047 1.939-1.047zm0 7.433q.762 0 1.136-.81.373-.812.373-2.477 0-.886-.108-1.6l-2.556 4.001q.403.886 1.155.886zm0-6.574q-.758 0-1.131.811t-.373 2.476q0 .758.102 1.418l2.503-3.99q-.409-.715-1.101-.715zm7-.859q1.283 0 1.941 1.047.658 1.048.658 3.1 0 2.051-.658 3.098-.658 1.048-1.941 1.048-1.284 0-1.94-1.048-.655-1.047-.655-3.099 0-2.051.656-3.099.655-1.047 1.939-1.047zm0 7.433q.762 0 1.136-.81.373-.812.373-2.477 0-.886-.108-1.6l-2.556 4.001q.403.886 1.155.886zm0-6.574q-.758 0-1.131.811t-.373 2.476q0 .758.102 1.418l2.503-3.99q-.409-.715-1.101-.715zm7-.859q1.283 0 1.941 1.047.658 1.048.658 3.1 0 2.051-.658 3.098-.658 1.048-1.941 1.048-1.284 0-1.94-1.048-.655-1.047-.655-3.099 0-2.051.656-3.099.655-1.047 1.939-1.047zm0 7.433q.762 0 1.136-.81.373-.812.373-2.477 0-.886-.108-1.6l-2.556 4.001q.403.886 1.155.886zm0-6.574q-.758 0-1.131.811t-.373 2.476q0 .758.102 1.418l2.503-3.99q-.409-.715-1.101-.715zm7-.859q1.283 0 1.941 1.047.658 1.048.658 3.1 0 2.051-.658 3.098-.658 1.048-1.941 1.048-1.284 0-1.94-1.048-.655-1.047-.655-3.099 0-2.051.656-3.099.655-1.047 1.939-1.047zm0 7.433q.762 0 1.136-.81.373-.812.373-2.477 0-.886-.108-1.6l-2.556 4.001q.403.886 1.155.886zm0-6.574q-.758 0-1.131.811t-.373 2.476q0 .758.102 1.418l2.503-3.99q-.409-.715-1.101-.715zm7-.859q1.283 0 1.941 1.047.658 1.048.658 3.1 0 2.051-.658 3.098-.658 1.048-1.941 1.048-1.284 0-1.94-1.048-.655-1.047-.655-3.099 0-2.051.656-3.099.655-1.047 1.939-1.047zm0 7.433q.762 0 1.136-.81.373-.812.373-2.477 0-.886-.108-1.6l-2.556 4.001q.403.886 1.155.886zm0-6.574q-.758 0-1.131.811t-.373 2.476q0 .758.102 1.418l2.503-3.99q-.409-.715-1.101-.715z" fill="#CACACA"/><path d="M481.71 131.643v.821h-1.123q-.532 0-.739.218-.206.217-.206.77v.532h2.067v.768h-2.067V140h-.989v-5.248h-1.606v-.768h1.606v-.419q0-.988.454-1.455.454-.467 1.415-.467zm7 0v.821h-1.123q-.532 0-.739.218-.206.217-.206.77v.532h2.067v.768h-2.067V140h-.989v-5.248h-1.606v-.768h1.606v-.419q0-.988.454-1.455.454-.467 1.415-.467zm7 0v.821h-1.123q-.532 0-.739.218-.206.217-.206.77v.532h2.067v.768h-2.067V140h-.989v-5.248h-1.606v-.768h1.606v-.419q0-.988.454-1.455.454-.467 1.415-.467zm7 0v.821h-1.123q-.532 0-.739.218-.206.217-.206.77v.532h2.067v.768h-2.067V140h-.989v-5.248h-1.606v-.768h1.606v-.419q0-.988.454-1.455.454-.467 1.415-.467z" fill="#FFABA9"/><path d="M38.738 124.336v5.983h-.86v-5.983h-2.985v-.924h2.986v-7.111h.86v7.111h2.991v.924zm3.155 0v-.924h6.837v.924zm7 0v-.924h6.837v.924zm7 0v-.924h6.837v.924zm7 0v-.924h6.837v.924zm7 0v-.924h6.837v.924zm7 0v-.924h6.837v.924zm7 0v-.924h6.837v.924zm7 0v-.924h6.837v.924zm7 0v-.924h6.837v.924zm7 0v-.924h6.837v.924zm7 0v-.924h6.837v.924zm7 0v-.924h6.837v.924zm7 0v-.924h6.837v.924zm7 0v-.924h6.837v.924zm7 0v-.924h6.837v.924zm7 0v-.924h6.837v.924zm7 0v-.924h6.837v.924zm7 0v-.924h6.837v.924zm7 0v-.924h6.837v.924zm7 0v-.924h6.837v.924zm7 0v-.924h6.837v.924zm7 0v-.924h6.837v.924zm7 0v-.924h6.837v.924zm7 0v-.924h6.837v.924zm7 0v-.924h6.837v.924zm7 0v-.924h6.837v.924zm7 0v-.924h6.837v.924zm7 0v-.924h6.837v.924zm7 0v-.924h6.837v.924zm7 0v-.924h6.837v.924zm7 0v-.924h6.837v.924zm7 0v-.924h6.837v.924zm7 0v-.924h6.837v.924zm7 0v-.924h6.837v.924zm7 0v-.924h6.837v.924zm7 0v-.924h6.837v.924zm7 0v-.924h6.837v.924zm7 0v-.924h6.837v.924zm7 0v-.924h6.837v.924zm7 0v-.924h6.837v.924zm7 0v-.924h6.837v.924zm7 0v-.924h6.837v.924zm7 0v-.924h6.837v.924zm7 0v-.924h6.837v.924zm7 0v-.924h6.837v.924zm7 0v-.924h6.837v.924zm7 0v-.924h6.837v.924zm7 0v-.924h6.837v.924zm7 0v-.924h6.837v.924zm7 0v-.924h6.837v.924zm7 0v-.924h6.837v.924zm7 0v-.924h6.837v.924zm7 0v-.924h6.837v.924zm7 0v-.924h6.837v.924zm7 0v-.924h6.837v.924zm7 0v-.924h6.837v.924zm7 0v-.924h6.837v.924zm7 0v-.924h6.837v.924zm7 0v-.924h6.837v.924zm7 0v-.924h6.837v.924zm7 0v-.924h6.837v.924zm7 0v-.924h6.837v.924zm7 0v-.924h6.837v.924zm7 0v-.924h6.837v.924zm7 0v-.924h6.837v.924zm7 0v-.924h6.837v.924zm7 0v-.924h6.837v.924zM10.309 105.863q1.283 0 1.941 1.047.658 1.048.658 3.1 0 2.051-.658 3.098-.658 1.048-1.941 1.048-1.284 0-1.94-1.048-.655-1.047-.655-3.099 0-2.051.656-3.099.655-1.047 1.939-1.047zm0 7.433q.762 0 1.136-.81.373-.812.373-2.477 0-.886-.108-1.6l-2.556 4.001q.403.886 1.155.886zm0-6.574q-.758 0-1.131.811t-.373 2.476q0 .758.102 1.418l2.503-3.99q-.409-.715-1.101-.715zm9.696 1.262l-2.154 2.88L20.214 114H19.07l-1.761-2.412L15.552 114h-1.144l2.363-3.137-2.153-2.879h1.095l1.596 2.176 1.584-2.176zm2.998 5.103h3.685V114h-4.872v-.913q1.005-1.058 1.757-1.87.752-.81 1.036-1.143.537-.656.725-1.061.188-.406.188-.83 0-.671-.394-1.053-.395-.381-1.083-.381-.488 0-1.025.177-.538.178-1.14.537v-1.095q.554-.264 1.089-.398.534-.134 1.055-.134 1.176 0 1.893.626.717.625.717 1.64 0 .516-.239 1.032-.239.515-.776 1.138-.3.35-.873.967-.572.618-1.743 1.848zm8.306-7.224q1.283 0 1.941 1.047.658 1.048.658 3.1 0 2.051-.658 3.098-.658 1.048-1.941 1.048-1.284 0-1.94-1.048-.655-1.047-.655-3.099 0-2.051.656-3.099.655-1.047 1.939-1.047zm0 7.433q.762 0 1.136-.81.373-.812.373-2.477 0-.886-.108-1.6l-2.556 4.001q.403.886 1.155.886zm0-6.574q-.758 0-1.131.811t-.373 2.476q0 .758.102 1.418l2.503-3.99q-.409-.715-1.101-.715z" fill="#CACACA"/><path d="M37.879 117.32V103.3h.86v14.02zm7.43-11.457q1.283 0 1.941 1.047.658 1.048.658 3.1 0 2.051-.658 3.098-.658 1.048-1.941 1.048-1.284 0-1.94-1.048-.655-1.047-.655-3.099 0-2.051.656-3.099.655-1.047 1.939-1.047zm0 7.433q.762 0 1.136-.81.373-.812.373-2.477 0-.886-.108-1.6l-2.556 4.001q.403.886 1.155.886zm0-6.574q-.758 0-1.131.811t-.373 2.476q0 .758.102 1.418l2.503-3.99q-.409-.715-1.101-.715zm9.696 1.262l-2.154 2.88L55.214 114H54.07l-1.761-2.412L50.552 114h-1.144l2.363-3.137-2.153-2.879h1.095l1.596 2.176 1.584-2.176zm6.694 5.71q-.398.23-.82.346-.421.116-.861.116-1.397 0-2.184-.838-.787-.838-.787-2.32 0-1.483.787-2.32.787-.839 2.184-.839.435 0 .848.113.414.113.833.35v1.036q-.392-.35-.787-.505-.395-.156-.894-.156-.93 0-1.43.602-.499.601-.499 1.719 0 1.111.503 1.716.502.604 1.426.604.515 0 .923-.159.409-.158.758-.491zm2.413-7.713h4.06v.913H65.1v1.971q.231-.086.465-.126.233-.04.47-.04 1.246 0 1.976.736.73.735.73 1.992 0 1.268-.765 1.998t-2.092.73q-.639 0-1.168-.085-.529-.086-.948-.258v-1.101q.494.268.994.4t1.02.132q.897 0 1.383-.473t.486-1.343q0-.86-.502-1.337-.502-.478-1.399-.478-.435 0-.849.1-.413.099-.79.297zm10.496 2.771v-3.11h.989V114h-.989v-.757q-.247.445-.658.68-.41.233-.948.233-1.09 0-1.716-.846-.625-.846-.625-2.334 0-1.466.628-2.301.628-.836 1.713-.836.543 0 .956.234.414.234.65.68zm-2.905 2.246q0 1.149.365 1.734.365.586 1.08.586.714 0 1.087-.59.373-.592.373-1.73 0-1.144-.373-1.733-.373-.588-1.088-.588-.714 0-1.08.586-.364.585-.364 1.735zm7.3 2.089h3.685V114h-4.872v-.913q1.005-1.058 1.757-1.87.752-.81 1.036-1.143.537-.656.725-1.061.188-.406.188-.83 0-.671-.394-1.053-.395-.381-1.083-.381-.488 0-1.025.177-.538.178-1.14.537v-1.095q.554-.264 1.089-.398.534-.134 1.055-.134 1.176 0 1.893.626.717.625.717 1.64 0 .516-.239 1.032-.239.515-.776 1.138-.3.35-.873.967-.572.618-1.743 1.848zm8.945-6.117l-2.53 4.237h2.53zm-.177-.989h1.256v5.226h1.07v.88h-1.07V114h-1.08v-1.912h-3.4v-1.026zm8.552.177v1q-.339-.2-.72-.304-.381-.105-.795-.105-1.031 0-1.563.776t-.532 2.286q.258-.538.715-.825.456-.287 1.047-.287 1.16 0 1.797.711.636.712.636 2.017 0 1.3-.655 2.014-.655.715-1.842.715-1.397 0-2.047-1.002-.65-1.002-.65-3.155 0-2.03.782-3.097.781-1.066 2.264-1.066.397 0 .795.083.397.083.768.24zm-1.934 3.39q-.693 0-1.09.499-.398.5-.398 1.38 0 .881.398 1.38.397.5 1.09.5.72 0 1.085-.475.365-.476.365-1.405 0-.934-.365-1.407t-1.085-.473zm6.92-3.685q1.283 0 1.941 1.047.658 1.048.658 3.1 0 2.051-.658 3.098-.658 1.048-1.941 1.048-1.284 0-1.94-1.048-.655-1.047-.655-3.099 0-2.051.656-3.099.655-1.047 1.939-1.047zm0 7.433q.762 0 1.136-.81.373-.812.373-2.477 0-.886-.108-1.6l-2.556 4.001q.403.886 1.155.886zm0-6.574q-.758 0-1.131.811t-.373 2.476q0 .758.102 1.418l2.503-3.99q-.409-.715-1.101-.715zm5.141 6.37h1.687v-6.058l-2.02.972v-1.042l2.009-.956h1.085v7.084h1.665V114h-4.426zm8.859-2.9q-.726 0-1.12.405-.395.406-.395 1.147t.4 1.152q.4.411 1.115.411.73 0 1.125-.405.395-.406.395-1.158 0-.736-.4-1.144-.4-.408-1.12-.408zm-.946-.451q-.693-.178-1.082-.66-.39-.484-.39-1.166 0-.957.65-1.518t1.768-.561q1.122 0 1.772.561.65.561.65 1.518 0 .682-.39 1.165-.389.483-1.082.66.806.178 1.233.715.427.537.427 1.391 0 1.085-.693 1.697-.693.613-1.917.613-1.225 0-1.915-.61t-.69-1.69q0-.858.427-1.398.427-.54 1.232-.717zm-.392-1.724q0 .644.344.983.344.338.994.338.655 0 .999-.338.343-.339.343-.983 0-.656-.34-1-.342-.343-1.002-.343-.65 0-.994.346-.344.347-.344.997zm10.352-1.859v1q-.339-.2-.72-.304-.381-.105-.795-.105-1.031 0-1.563.776t-.532 2.286q.258-.538.715-.825.456-.287 1.047-.287 1.16 0 1.797.711.636.712.636 2.017 0 1.3-.655 2.014-.655.715-1.842.715-1.397 0-2.047-1.002-.65-1.002-.65-3.155 0-2.03.782-3.097.781-1.066 2.264-1.066.397 0 .795.083.397.083.768.24zm-1.934 3.39q-.693 0-1.09.499-.398.5-.398 1.38 0 .881.398 1.38.397.5 1.09.5.72 0 1.085-.475.365-.476.365-1.405 0-.934-.365-1.407t-1.085-.473zm9.321-3.905v.821h-1.123q-.532 0-.739.218-.206.217-.206.77v.532h2.067v.768h-2.067V114h-.989v-5.248h-1.606v-.768h1.606v-.419q0-.988.454-1.455.454-.467 1.415-.467zm2.037.338h5.048v.462L135.927 114h-1.133l2.793-7.106h-3.84zm8.256 7.106h3.685V114h-4.872v-.913q1.005-1.058 1.757-1.87.752-.81 1.036-1.143.537-.656.725-1.061.188-.406.188-.83 0-.671-.394-1.053-.395-.381-1.083-.381-.488 0-1.025.177-.538.178-1.14.537v-1.095q.554-.264 1.089-.398.534-.134 1.055-.134 1.176 0 1.893.626.717.625.717 1.64 0 .516-.239 1.032-.239.515-.776 1.138-.3.35-.873.967-.572.618-1.743 1.848zm9.165-3.379q.79.21 1.208.744.42.535.42 1.335 0 1.107-.744 1.738-.744.63-2.06.63-.554 0-1.128-.101-.575-.102-1.128-.296v-1.08q.548.285 1.08.425.531.14 1.058.14.891 0 1.37-.403.477-.403.477-1.16 0-.699-.478-1.11-.478-.41-1.294-.41h-.827v-.892h.827q.746 0 1.165-.328.42-.327.42-.913 0-.617-.39-.948-.39-.33-1.11-.33-.477 0-.988.107-.51.108-1.068.323v-1q.65-.171 1.157-.257.508-.086.9-.086 1.17 0 1.871.588.701.588.701 1.56 0 .661-.367 1.101-.368.44-1.072.623zm7 0q.79.21 1.208.744.42.535.42 1.335 0 1.107-.744 1.738-.744.63-2.06.63-.554 0-1.128-.101-.575-.102-1.128-.296v-1.08q.548.285 1.08.425.531.14 1.058.14.891 0 1.37-.403.477-.403.477-1.16 0-.699-.478-1.11-.478-.41-1.294-.41h-.827v-.892h.827q.746 0 1.165-.328.42-.327.42-.913 0-.617-.39-.948-.39-.33-1.11-.33-.477 0-.988.107-.51.108-1.068.323v-1q.65-.171 1.157-.257.508-.086.9-.086 1.17 0 1.871.588.701.588.701 1.56 0 .661-.367 1.101-.368.44-1.072.623zm8.531 3.986q-.398.23-.82.346-.421.116-.861.116-1.397 0-2.184-.838-.787-.838-.787-2.32 0-1.483.787-2.32.787-.839 2.184-.839.435 0 .848.113.414.113.833.35v1.036q-.392-.35-.787-.505-.395-.156-.894-.156-.93 0-1.43.602-.499.601-.499 1.719 0 1.111.503 1.716.502.604 1.426.604.515 0 .923-.159.409-.158.758-.491zm4.502-3.25q.693 0 1.088-.5.395-.499.395-1.38 0-.88-.395-1.38-.395-.5-1.088-.5-.72 0-1.085.476-.365.475-.365 1.404 0 .935.363 1.408.362.472 1.087.472zm-1.933 3.39v-1q.338.2.72.304.38.105.794.105 1.031 0 1.56-.776.53-.777.53-2.286-.253.537-.71.825-.456.287-1.047.287-1.16 0-1.796-.714-.637-.715-.637-2.025 0-1.295.653-2.006.652-.712 1.845-.712 1.396 0 2.046 1.004.65 1.005.65 3.159 0 2.024-.782 3.09-.781 1.067-2.269 1.067-.392 0-.79-.083-.397-.084-.767-.24zm7.735-.747h3.685V114h-4.872v-.913q1.005-1.058 1.757-1.87.752-.81 1.036-1.143.537-.656.725-1.061.188-.406.188-.83 0-.671-.394-1.053-.395-.381-1.083-.381-.488 0-1.025.177-.538.178-1.14.537v-1.095q.554-.264 1.089-.398.534-.134 1.055-.134 1.176 0 1.893.626.717.625.717 1.64 0 .516-.239 1.032-.239.515-.776 1.138-.3.35-.873.967-.572.618-1.743 1.848zm5.744-7.106h5.048v.462L184.927 114h-1.133l2.793-7.106h-3.84zm12.269 4.517v.483h-4.281v.033q-.043 1.23.47 1.767.513.537 1.447.537.473 0 .989-.15.515-.15 1.1-.457v.983q-.563.23-1.087.346-.524.116-1.012.116-1.402 0-2.192-.84-.79-.841-.79-2.318 0-1.44.774-2.3.774-.859 2.063-.859 1.149 0 1.812.78.664.778.707 1.879zm-.989-.29q-.064-.623-.454-1.077-.389-.454-1.12-.454-.714 0-1.176.473-.462.473-.505 1.063zm2.72-4.227h5.048v.462L198.927 114h-1.133l2.793-7.106h-3.84zm10.861 2.771v-3.11h.989V114h-.989v-.757q-.247.445-.658.68-.41.233-.948.233-1.09 0-1.716-.846-.625-.846-.625-2.334 0-1.466.628-2.301.628-.836 1.713-.836.543 0 .956.234.414.234.65.68zm-2.905 2.246q0 1.149.365 1.734.365.586 1.08.586.714 0 1.087-.59.373-.592.373-1.73 0-1.144-.373-1.733-.373-.588-1.088-.588-.714 0-1.08.586-.364.585-.364 1.735zm10.227 0q0-1.15-.365-1.735-.365-.586-1.08-.586-.719 0-1.09.588-.37.589-.37 1.733 0 1.138.37 1.73.371.59 1.09.59.715 0 1.08-.586.366-.585.366-1.734zm-2.905-2.246q.236-.44.652-.676.417-.237.965-.237 1.085 0 1.708.836.623.835.623 2.301 0 1.488-.626 2.334-.626.846-1.716.846-.537 0-.948-.234-.411-.234-.658-.68V114h-.988v-8.357h.988zm6.978 4.335h3.685V114h-4.872v-.913q1.005-1.058 1.757-1.87.752-.81 1.036-1.143.537-.656.725-1.061.188-.406.188-.83 0-.671-.394-1.053-.395-.381-1.083-.381-.488 0-1.025.177-.538.178-1.14.537v-1.095q.554-.264 1.089-.398.534-.134 1.055-.134 1.176 0 1.893.626.717.625.717 1.64 0 .516-.239 1.032-.239.515-.776 1.138-.3.35-.873.967-.572.618-1.743 1.848zm9.605-4.335v-3.11h.989V114h-.989v-.757q-.247.445-.658.68-.41.233-.948.233-1.09 0-1.716-.846-.625-.846-.625-2.334 0-1.466.628-2.301.628-.836 1.713-.836.543 0 .956.234.414.234.65.68zm-2.905 2.246q0 1.149.365 1.734.365.586 1.08.586.714 0 1.087-.59.373-.592.373-1.73 0-1.144-.373-1.733-.373-.588-1.088-.588-.714 0-1.08.586-.364.585-.364 1.735zm10.996 2.696q-.398.23-.82.346-.421.116-.861.116-1.397 0-2.184-.838-.787-.838-.787-2.32 0-1.483.787-2.32.787-.839 2.184-.839.435 0 .848.113.414.113.833.35v1.036q-.392-.35-.787-.505-.395-.156-.894-.156-.93 0-1.43.602-.499.601-.499 1.719 0 1.111.503 1.716.502.604 1.426.604.515 0 .923-.159.409-.158.758-.491zm7 0q-.398.23-.82.346-.421.116-.861.116-1.397 0-2.184-.838-.787-.838-.787-2.32 0-1.483.787-2.32.787-.839 2.184-.839.435 0 .848.113.414.113.833.35v1.036q-.392-.35-.787-.505-.395-.156-.894-.156-.93 0-1.43.602-.499.601-.499 1.719 0 1.111.503 1.716.502.604 1.426.604.515 0 .923-.159.409-.158.758-.491zm2.048-7.713h5.048v.462L247.927 114h-1.133l2.793-7.106h-3.84zm9.562-.118q1.283 0 1.941 1.047.658 1.048.658 3.1 0 2.051-.658 3.098-.658 1.048-1.941 1.048-1.284 0-1.94-1.048-.655-1.047-.655-3.099 0-2.051.656-3.099.655-1.047 1.939-1.047zm0 7.433q.762 0 1.136-.81.373-.812.373-2.477 0-.886-.108-1.6l-2.556 4.001q.403.886 1.155.886zm0-6.574q-.758 0-1.131.811t-.373 2.476q0 .758.102 1.418l2.503-3.99q-.409-.715-1.101-.715zm7.859 2.986q.79.21 1.208.744.42.535.42 1.335 0 1.107-.744 1.738-.744.63-2.06.63-.554 0-1.128-.101-.575-.102-1.128-.296v-1.08q.548.285 1.08.425.531.14 1.058.14.891 0 1.37-.403.477-.403.477-1.16 0-.699-.478-1.11-.478-.41-1.294-.41h-.827v-.892h.827q.746 0 1.165-.328.42-.327.42-.913 0-.617-.39-.948-.39-.33-1.11-.33-.477 0-.988.107-.51.108-1.068.323v-1q.65-.171 1.157-.257.508-.086.9-.086 1.17 0 1.871.588.701.588.701 1.56 0 .661-.367 1.101-.368.44-1.072.623zm8.531 3.986q-.398.23-.82.346-.421.116-.861.116-1.397 0-2.184-.838-.787-.838-.787-2.32 0-1.483.787-2.32.787-.839 2.184-.839.435 0 .848.113.414.113.833.35v1.036q-.392-.35-.787-.505-.395-.156-.894-.156-.93 0-1.43.602-.499.601-.499 1.719 0 1.111.503 1.716.502.604 1.426.604.515 0 .923-.159.409-.158.758-.491zm4.61-7.831q1.283 0 1.941 1.047.658 1.048.658 3.1 0 2.051-.658 3.098-.658 1.048-1.941 1.048-1.284 0-1.94-1.048-.655-1.047-.655-3.099 0-2.051.656-3.099.655-1.047 1.939-1.047zm0 7.433q.762 0 1.136-.81.373-.812.373-2.477 0-.886-.108-1.6l-2.556 4.001q.403.886 1.155.886zm0-6.574q-.758 0-1.131.811t-.373 2.476q0 .758.102 1.418l2.503-3.99q-.409-.715-1.101-.715zm9.707 3.776v.483h-4.281v.033q-.043 1.23.47 1.767.513.537 1.447.537.473 0 .989-.15.515-.15 1.1-.457v.983q-.563.23-1.087.346-.524.116-1.012.116-1.402 0-2.192-.84-.79-.841-.79-2.318 0-1.44.774-2.3.774-.859 2.063-.859 1.149 0 1.812.78.664.778.707 1.879zm-.989-.29q-.064-.623-.454-1.077-.389-.454-1.12-.454-.714 0-1.176.473-.462.473-.505 1.063zm3.085-4.227h4.06v.913H289.1v1.971q.231-.086.465-.126.233-.04.47-.04 1.246 0 1.976.736.73.735.73 1.992 0 1.268-.765 1.998t-2.092.73q-.639 0-1.168-.085-.529-.086-.948-.258v-1.101q.494.268.994.4t1.02.132q.897 0 1.383-.473t.486-1.343q0-.86-.502-1.337-.502-.478-1.399-.478-.435 0-.849.1-.413.099-.79.297zm9.197-.118q1.283 0 1.941 1.047.658 1.048.658 3.1 0 2.051-.658 3.098-.658 1.048-1.941 1.048-1.284 0-1.94-1.048-.655-1.047-.655-3.099 0-2.051.656-3.099.655-1.047 1.939-1.047zm0 7.433q.762 0 1.136-.81.373-.812.373-2.477 0-.886-.108-1.6l-2.556 4.001q.403.886 1.155.886zm0-6.574q-.758 0-1.131.811t-.373 2.476q0 .758.102 1.418l2.503-3.99q-.409-.715-1.101-.715zm7-.859q1.283 0 1.941 1.047.658 1.048.658 3.1 0 2.051-.658 3.098-.658 1.048-1.941 1.048-1.284 0-1.94-1.048-.655-1.047-.655-3.099 0-2.051.656-3.099.655-1.047 1.939-1.047zm0 7.433q.762 0 1.136-.81.373-.812.373-2.477 0-.886-.108-1.6l-2.556 4.001q.403.886 1.155.886zm0-6.574q-.758 0-1.131.811t-.373 2.476q0 .758.102 1.418l2.503-3.99q-.409-.715-1.101-.715zm8.621 4.276q0-1.15-.365-1.735-.365-.586-1.08-.586-.719 0-1.09.588-.37.589-.37 1.733 0 1.138.37 1.73.371.59 1.09.59.715 0 1.08-.586.366-.585.366-1.734zm-2.905-2.246q.236-.44.652-.676.417-.237.965-.237 1.085 0 1.708.836.623.835.623 2.301 0 1.488-.626 2.334-.626.846-1.716.846-.537 0-.948-.234-.411-.234-.658-.68V114h-.988v-8.357h.988zm10.298-2.594v1q-.339-.2-.72-.304-.381-.105-.795-.105-1.031 0-1.563.776t-.532 2.286q.258-.538.715-.825.456-.287 1.047-.287 1.16 0 1.797.711.636.712.636 2.017 0 1.3-.655 2.014-.655.715-1.842.715-1.397 0-2.047-1.002-.65-1.002-.65-3.155 0-2.03.782-3.097.781-1.066 2.264-1.066.397 0 .795.083.397.083.768.24zm-1.934 3.39q-.693 0-1.09.499-.398.5-.398 1.38 0 .881.398 1.38.397.5 1.09.5.72 0 1.085-.475.365-.476.365-1.405 0-.934-.365-1.407t-1.085-.473zm4.723-3.567h4.06v.913H324.1v1.971q.231-.086.465-.126.233-.04.47-.04 1.246 0 1.976.736.73.735.73 1.992 0 1.268-.765 1.998t-2.092.73q-.639 0-1.168-.085-.529-.086-.948-.258v-1.101q.494.268.994.4t1.02.132q.897 0 1.383-.473t.486-1.343q0-.86-.502-1.337-.502-.478-1.399-.478-.435 0-.849.1-.413.099-.79.297zm10.056 3.727q.79.21 1.208.744.42.535.42 1.335 0 1.107-.744 1.738-.744.63-2.06.63-.554 0-1.128-.101-.575-.102-1.128-.296v-1.08q.548.285 1.08.425.531.14 1.058.14.891 0 1.37-.403.477-.403.477-1.16 0-.699-.478-1.11-.478-.41-1.294-.41h-.827v-.892h.827q.746 0 1.165-.328.42-.327.42-.913 0-.617-.39-.948-.39-.33-1.11-.33-.477 0-.988.107-.51.108-1.068.323v-1q.65-.171 1.157-.257.508-.086.9-.086 1.17 0 1.871.588.701.588.701 1.56 0 .661-.367 1.101-.368.44-1.072.623zm8.531 3.986q-.398.23-.82.346-.421.116-.861.116-1.397 0-2.184-.838-.787-.838-.787-2.32 0-1.483.787-2.32.787-.839 2.184-.839.435 0 .848.113.414.113.833.35v1.036q-.392-.35-.787-.505-.395-.156-.894-.156-.93 0-1.43.602-.499.601-.499 1.719 0 1.111.503 1.716.502.604 1.426.604.515 0 .923-.159.409-.158.758-.491zm5.071-2.718h-.327q-.865 0-1.303.304-.437.303-.437.905 0 .542.327.843.328.3.908.3.816 0 1.284-.566.467-.567.472-1.566v-.22zm1.918-.408V114h-.994v-.892q-.317.538-.797.793-.481.255-1.168.255-.919 0-1.467-.519-.548-.518-.548-1.388 0-1.004.674-1.525.675-.521 1.98-.521h1.326v-.156q-.005-.72-.365-1.045-.36-.325-1.15-.325-.504 0-1.02.145-.515.145-1.004.425v-.989q.548-.21 1.05-.314.502-.105.975-.105.746 0 1.275.22.53.22.857.661.204.269.29.664.086.394.086 1.184zm4.621-.376q-.726 0-1.12.405-.395.406-.395 1.147t.4 1.152q.4.411 1.115.411.73 0 1.125-.405.395-.406.395-1.158 0-.736-.4-1.144-.4-.408-1.12-.408zm-.946-.451q-.693-.178-1.082-.66-.39-.484-.39-1.166 0-.957.65-1.518t1.768-.561q1.122 0 1.772.561.65.561.65 1.518 0 .682-.39 1.165-.389.483-1.082.66.806.178 1.233.715.427.537.427 1.391 0 1.085-.693 1.697-.693.613-1.917.613-1.225 0-1.915-.61t-.69-1.69q0-.858.427-1.398.427-.54 1.232-.717zm-.392-1.724q0 .644.344.983.344.338.994.338.655 0 .999-.338.343-.339.343-.983 0-.656-.34-1-.342-.343-1.002-.343-.65 0-.994.346-.344.347-.344.997zm7.032 5.07h3.685V114h-4.872v-.913q1.005-1.058 1.757-1.87.752-.81 1.036-1.143.537-.656.725-1.061.188-.406.188-.83 0-.671-.394-1.053-.395-.381-1.083-.381-.488 0-1.025.177-.538.178-1.14.537v-1.095q.554-.264 1.089-.398.534-.134 1.055-.134 1.176 0 1.893.626.717.625.717 1.64 0 .516-.239 1.032-.239.515-.776 1.138-.3.35-.873.967-.572.618-1.743 1.848zm7 0h3.685V114h-4.872v-.913q1.005-1.058 1.757-1.87.752-.81 1.036-1.143.537-.656.725-1.061.188-.406.188-.83 0-.671-.394-1.053-.395-.381-1.083-.381-.488 0-1.025.177-.538.178-1.14.537v-1.095q.554-.264 1.089-.398.534-.134 1.055-.134 1.176 0 1.893.626.717.625.717 1.64 0 .516-.239 1.032-.239.515-.776 1.138-.3.35-.873.967-.572.618-1.743 1.848zm5.744-7.106h5.048v.462L373.927 114h-1.133l2.793-7.106h-3.84zm10.421 3.727q.79.21 1.208.744.42.535.42 1.335 0 1.107-.744 1.738-.744.63-2.06.63-.554 0-1.128-.101-.575-.102-1.128-.296v-1.08q.548.285 1.08.425.531.14 1.058.14.891 0 1.37-.403.477-.403.477-1.16 0-.699-.478-1.11-.478-.41-1.294-.41h-.827v-.892h.827q.746 0 1.165-.328.42-.327.42-.913 0-.617-.39-.948-.39-.33-1.11-.33-.477 0-.988.107-.51.108-1.068.323v-1q.65-.171 1.157-.257.508-.086.9-.086 1.17 0 1.871.588.701.588.701 1.56 0 .661-.367 1.101-.368.44-1.072.623zm7.762 1.29q0-1.15-.365-1.735-.365-.586-1.08-.586-.719 0-1.09.588-.37.589-.37 1.733 0 1.138.37 1.73.371.59 1.09.59.715 0 1.08-.586.366-.585.366-1.734zm-2.905-2.246q.236-.44.652-.676.417-.237.965-.237 1.085 0 1.708.836.623.835.623 2.301 0 1.488-.626 2.334-.626.846-1.716.846-.537 0-.948-.234-.411-.234-.658-.68V114h-.988v-8.357h.988zm5.722-2.771h5.048v.462L394.927 114h-1.133l2.793-7.106h-3.84zm11.183 5.017q0-1.15-.365-1.735-.365-.586-1.08-.586-.719 0-1.09.588-.37.589-.37 1.733 0 1.138.37 1.73.371.59 1.09.59.715 0 1.08-.586.366-.585.366-1.734zm-2.905-2.246q.236-.44.652-.676.417-.237.965-.237 1.085 0 1.708.836.623.835.623 2.301 0 1.488-.626 2.334-.626.846-1.716.846-.537 0-.948-.234-.411-.234-.658-.68V114h-.988v-8.357h.988zm10.685-3.109v.821h-1.123q-.532 0-.739.218-.206.217-.206.77v.532h2.067v.768h-2.067V114h-.989v-5.248h-1.606v-.768h1.606v-.419q0-.988.454-1.455.454-.467 1.415-.467zm5.06 5.333h-.327q-.865 0-1.303.304-.437.303-.437.905 0 .542.327.843.328.3.908.3.816 0 1.284-.566.467-.567.472-1.566v-.22zm1.918-.408V114h-.994v-.892q-.317.538-.797.793-.481.255-1.168.255-.919 0-1.467-.519-.548-.518-.548-1.388 0-1.004.674-1.525.675-.521 1.98-.521h1.326v-.156q-.005-.72-.365-1.045-.36-.325-1.15-.325-.504 0-1.02.145-.515.145-1.004.425v-.989q.548-.21 1.05-.314.502-.105.975-.105.746 0 1.275.22.53.22.857.661.204.269.29.664.086.394.086 1.184zm5.92-1.816v-3.11h.989V114h-.989v-.757q-.247.445-.658.68-.41.233-.948.233-1.09 0-1.716-.846-.625-.846-.625-2.334 0-1.466.628-2.301.628-.836 1.713-.836.543 0 .956.234.414.234.65.68zm-2.905 2.246q0 1.149.365 1.734.365.586 1.08.586.714 0 1.087-.59.373-.592.373-1.73 0-1.144-.373-1.733-.373-.588-1.088-.588-.714 0-1.08.586-.364.585-.364 1.735zm8.606-.806q-.726 0-1.12.405-.395.406-.395 1.147t.4 1.152q.4.411 1.115.411.73 0 1.125-.405.395-.406.395-1.158 0-.736-.4-1.144-.4-.408-1.12-.408zm-.946-.451q-.693-.178-1.082-.66-.39-.484-.39-1.166 0-.957.65-1.518t1.768-.561q1.122 0 1.772.561.65.561.65 1.518 0 .682-.39 1.165-.389.483-1.082.66.806.178 1.233.715.427.537.427 1.391 0 1.085-.693 1.697-.693.613-1.917.613-1.225 0-1.915-.61t-.69-1.69q0-.858.427-1.398.427-.54 1.232-.717zm-.392-1.724q0 .644.344.983.344.338.994.338.655 0 .999-.338.343-.339.343-.983 0-.656-.34-1-.342-.343-1.002-.343-.65 0-.994.346-.344.347-.344.997zm8.338-2.154q1.283 0 1.941 1.047.658 1.048.658 3.1 0 2.051-.658 3.098-.658 1.048-1.941 1.048-1.284 0-1.94-1.048-.655-1.047-.655-3.099 0-2.051.656-3.099.655-1.047 1.939-1.047zm0 7.433q.762 0 1.136-.81.373-.812.373-2.477 0-.886-.108-1.6l-2.556 4.001q.403.886 1.155.886zm0-6.574q-.758 0-1.131.811t-.373 2.476q0 .758.102 1.418l2.503-3.99q-.409-.715-1.101-.715zm7.639.248l-2.53 4.237h2.53zm-.177-.989h1.256v5.226h1.07v.88h-1.07V114h-1.08v-1.912h-3.4v-1.026zm4.341 0h4.06v.913H450.1v1.971q.231-.086.465-.126.233-.04.47-.04 1.246 0 1.976.736.73.735.73 1.992 0 1.268-.765 1.998t-2.092.73q-.639 0-1.168-.085-.529-.086-.948-.258v-1.101q.494.268.994.4t1.02.132q.897 0 1.383-.473t.486-1.343q0-.86-.502-1.337-.502-.478-1.399-.478-.435 0-.849.1-.413.099-.79.297zm10.496 2.771v-3.11h.989V114h-.989v-.757q-.247.445-.658.68-.41.233-.948.233-1.09 0-1.716-.846-.625-.846-.625-2.334 0-1.466.628-2.301.628-.836 1.713-.836.543 0 .956.234.414.234.65.68zm-2.905 2.246q0 1.149.365 1.734.365.586 1.08.586.714 0 1.087-.59.373-.592.373-1.73 0-1.144-.373-1.733-.373-.588-1.088-.588-.714 0-1.08.586-.364.585-.364 1.735zm8.606-.806q-.726 0-1.12.405-.395.406-.395 1.147t.4 1.152q.4.411 1.115.411.73 0 1.125-.405.395-.406.395-1.158 0-.736-.4-1.144-.4-.408-1.12-.408zm-.946-.451q-.693-.178-1.082-.66-.39-.484-.39-1.166 0-.957.65-1.518t1.768-.561q1.122 0 1.772.561.65.561.65 1.518 0 .682-.39 1.165-.389.483-1.082.66.806.178 1.233.715.427.537.427 1.391 0 1.085-.693 1.697-.693.613-1.917.613-1.225 0-1.915-.61t-.69-1.69q0-.858.427-1.398.427-.54 1.232-.717zm-.392-1.724q0 .644.344.983.344.338.994.338.655 0 .999-.338.343-.339.343-.983 0-.656-.34-1-.342-.343-1.002-.343-.65 0-.994.346-.344.347-.344.997zm6.141-2.036h4.06v.913H471.1v1.971q.231-.086.465-.126.233-.04.47-.04 1.246 0 1.976.736.73.735.73 1.992 0 1.268-.765 1.998t-2.092.73q-.639 0-1.168-.085-.529-.086-.948-.258v-1.101q.494.268.994.4t1.02.132q.897 0 1.383-.473t.486-1.343q0-.86-.502-1.337-.502-.478-1.399-.478-.435 0-.849.1-.413.099-.79.297zm9.658 4.995h-.327q-.865 0-1.303.304-.437.303-.437.905 0 .542.327.843.328.3.908.3.816 0 1.284-.566.467-.567.472-1.566v-.22zm1.918-.408V114h-.994v-.892q-.317.538-.797.793-.481.255-1.168.255-.919 0-1.467-.519-.548-.518-.548-1.388 0-1.004.674-1.525.675-.521 1.98-.521h1.326v-.156q-.005-.72-.365-1.045-.36-.325-1.15-.325-.504 0-1.02.145-.515.145-1.004.425v-.989q.548-.21 1.05-.314.502-.105.975-.105.746 0 1.275.22.53.22.857.661.204.269.29.664.086.394.086 1.184zm5.26-3.598l-2.53 4.237h2.53zm-.177-.989h1.256v5.226h1.07v.88h-1.07V114h-1.08v-1.912h-3.4v-1.026zm3.976 0h5.048v.462L492.927 114h-1.133l2.793-7.106h-3.84zm9.562-.118q1.283 0 1.941 1.047.658 1.048.658 3.1 0 2.051-.658 3.098-.658 1.048-1.941 1.048-1.284 0-1.94-1.048-.655-1.047-.655-3.099 0-2.051.656-3.099.655-1.047 1.939-1.047zm0 7.433q.762 0 1.136-.81.373-.812.373-2.477 0-.886-.108-1.6l-2.556 4.001q.403.886 1.155.886zm0-6.574q-.758 0-1.131.811t-.373 2.476q0 .758.102 1.418l2.503-3.99q-.409-.715-1.101-.715z" fill="#CACACA"/><path d="M254.879 78.32V64.3h.86v14.02zm.43 10.099l-3.277-6.553h6.558z"/><path d="M254.879 65.32V51.3h.86v14.02zM10.309 40.863q1.283 0 1.941 1.047.658 1.048.658 3.1 0 2.051-.658 3.098-.658 1.048-1.941 1.048-1.284 0-1.94-1.048-.655-1.047-.655-3.099 0-2.051.656-3.099.655-1.047 1.939-1.047zm0 7.433q.762 0 1.136-.81.373-.812.373-2.477 0-.886-.108-1.6L9.154 47.41q.403.886 1.155.886zm0-6.574q-.758 0-1.131.811t-.373 2.476q0 .758.102 1.418l2.503-3.99q-.409-.715-1.101-.715zm9.696 1.262l-2.154 2.88L20.214 49H19.07l-1.761-2.412L15.552 49h-1.144l2.363-3.137-2.153-2.879h1.095l1.596 2.176 1.584-2.176zm4.943-1.014l-2.53 4.237h2.53zm-.177-.989h1.256v5.226h1.07v.88h-1.07V49h-1.08v-1.912h-3.4v-1.026zm6.538-.118q1.283 0 1.941 1.047.658 1.048.658 3.1 0 2.051-.658 3.098-.658 1.048-1.941 1.048-1.284 0-1.94-1.048-.655-1.047-.655-3.099 0-2.051.656-3.099.655-1.047 1.939-1.047zm0 7.433q.762 0 1.136-.81.373-.812.373-2.477 0-.886-.108-1.6l-2.556 4.001q.403.886 1.155.886zm0-6.574q-.758 0-1.131.811t-.373 2.476q0 .758.102 1.418l2.503-3.99q-.409-.715-1.101-.715z"/><path d="M37.879 52.32V38.3h.86v14.02z" fill="#CACACA"/><path d="M45.309 40.863q1.283 0 1.941 1.047.658 1.048.658 3.1 0 2.051-.658 3.098-.658 1.048-1.941 1.048-1.284 0-1.94-1.048-.655-1.047-.655-3.099 0-2.051.656-3.099.655-1.047 1.939-1.047zm0 7.433q.762 0 1.136-.81.373-.812.373-2.477 0-.886-.108-1.6l-2.556 4.001q.403.886 1.155.886zm0-6.574q-.758 0-1.131.811t-.373 2.476q0 .758.102 1.418l2.503-3.99q-.409-.715-1.101-.715zm9.696 1.262l-2.154 2.88L55.214 49H54.07l-1.761-2.412L50.552 49h-1.144l2.363-3.137-2.153-2.879h1.095l1.596 2.176 1.584-2.176zm4.304-2.121q1.283 0 1.941 1.047.658 1.048.658 3.1 0 2.051-.658 3.098-.658 1.048-1.941 1.048-1.284 0-1.94-1.048-.655-1.047-.655-3.099 0-2.051.656-3.099.655-1.047 1.939-1.047zm0 7.433q.762 0 1.136-.81.373-.812.373-2.477 0-.886-.108-1.6l-2.556 4.001q.403.886 1.155.886zm0-6.574q-.758 0-1.131.811t-.373 2.476q0 .758.102 1.418l2.503-3.99q-.409-.715-1.101-.715zm7-.859q1.283 0 1.941 1.047.658 1.048.658 3.1 0 2.051-.658 3.098-.658 1.048-1.941 1.048-1.284 0-1.94-1.048-.655-1.047-.655-3.099 0-2.051.656-3.099.655-1.047 1.939-1.047zm0 7.433q.762 0 1.136-.81.373-.812.373-2.477 0-.886-.108-1.6l-2.556 4.001q.403.886 1.155.886zm0-6.574q-.758 0-1.131.811t-.373 2.476q0 .758.102 1.418l2.503-3.99q-.409-.715-1.101-.715zm7-.859q1.283 0 1.941 1.047.658 1.048.658 3.1 0 2.051-.658 3.098-.658 1.048-1.941 1.048-1.284 0-1.94-1.048-.655-1.047-.655-3.099 0-2.051.656-3.099.655-1.047 1.939-1.047zm0 7.433q.762 0 1.136-.81.373-.812.373-2.477 0-.886-.108-1.6l-2.556 4.001q.403.886 1.155.886zm0-6.574q-.758 0-1.131.811t-.373 2.476q0 .758.102 1.418l2.503-3.99q-.409-.715-1.101-.715zm7-.859q1.283 0 1.941 1.047.658 1.048.658 3.1 0 2.051-.658 3.098-.658 1.048-1.941 1.048-1.284 0-1.94-1.048-.655-1.047-.655-3.099 0-2.051.656-3.099.655-1.047 1.939-1.047zm0 7.433q.762 0 1.136-.81.373-.812.373-2.477 0-.886-.108-1.6l-2.556 4.001q.403.886 1.155.886zm0-6.574q-.758 0-1.131.811t-.373 2.476q0 .758.102 1.418l2.503-3.99q-.409-.715-1.101-.715zm7-.859q1.283 0 1.941 1.047.658 1.048.658 3.1 0 2.051-.658 3.098-.658 1.048-1.941 1.048-1.284 0-1.94-1.048-.655-1.047-.655-3.099 0-2.051.656-3.099.655-1.047 1.939-1.047zm0 7.433q.762 0 1.136-.81.373-.812.373-2.477 0-.886-.108-1.6l-2.556 4.001q.403.886 1.155.886zm0-6.574q-.758 0-1.131.811t-.373 2.476q0 .758.102 1.418l2.503-3.99q-.409-.715-1.101-.715zm7-.859q1.283 0 1.941 1.047.658 1.048.658 3.1 0 2.051-.658 3.098-.658 1.048-1.941 1.048-1.284 0-1.94-1.048-.655-1.047-.655-3.099 0-2.051.656-3.099.655-1.047 1.939-1.047zm0 7.433q.762 0 1.136-.81.373-.812.373-2.477 0-.886-.108-1.6l-2.556 4.001q.403.886 1.155.886zm0-6.574q-.758 0-1.131.811t-.373 2.476q0 .758.102 1.418l2.503-3.99q-.409-.715-1.101-.715zm7-.859q1.283 0 1.941 1.047.658 1.048.658 3.1 0 2.051-.658 3.098-.658 1.048-1.941 1.048-1.284 0-1.94-1.048-.655-1.047-.655-3.099 0-2.051.656-3.099.655-1.047 1.939-1.047zm0 7.433q.762 0 1.136-.81.373-.812.373-2.477 0-.886-.108-1.6l-2.556 4.001q.403.886 1.155.886zm0-6.574q-.758 0-1.131.811t-.373 2.476q0 .758.102 1.418l2.503-3.99q-.409-.715-1.101-.715zm7-.859q1.283 0 1.941 1.047.658 1.048.658 3.1 0 2.051-.658 3.098-.658 1.048-1.941 1.048-1.284 0-1.94-1.048-.655-1.047-.655-3.099 0-2.051.656-3.099.655-1.047 1.939-1.047zm0 7.433q.762 0 1.136-.81.373-.812.373-2.477 0-.886-.108-1.6l-2.556 4.001q.403.886 1.155.886zm0-6.574q-.758 0-1.131.811t-.373 2.476q0 .758.102 1.418l2.503-3.99q-.409-.715-1.101-.715zm7-.859q1.283 0 1.941 1.047.658 1.048.658 3.1 0 2.051-.658 3.098-.658 1.048-1.941 1.048-1.284 0-1.94-1.048-.655-1.047-.655-3.099 0-2.051.656-3.099.655-1.047 1.939-1.047zm0 7.433q.762 0 1.136-.81.373-.812.373-2.477 0-.886-.108-1.6l-2.556 4.001q.403.886 1.155.886zm0-6.574q-.758 0-1.131.811t-.373 2.476q0 .758.102 1.418l2.503-3.99q-.409-.715-1.101-.715zm7-.859q1.283 0 1.941 1.047.658 1.048.658 3.1 0 2.051-.658 3.098-.658 1.048-1.941 1.048-1.284 0-1.94-1.048-.655-1.047-.655-3.099 0-2.051.656-3.099.655-1.047 1.939-1.047zm0 7.433q.762 0 1.136-.81.373-.812.373-2.477 0-.886-.108-1.6l-2.556 4.001q.403.886 1.155.886zm0-6.574q-.758 0-1.131.811t-.373 2.476q0 .758.102 1.418l2.503-3.99q-.409-.715-1.101-.715zm7-.859q1.283 0 1.941 1.047.658 1.048.658 3.1 0 2.051-.658 3.098-.658 1.048-1.941 1.048-1.284 0-1.94-1.048-.655-1.047-.655-3.099 0-2.051.656-3.099.655-1.047 1.939-1.047zm0 7.433q.762 0 1.136-.81.373-.812.373-2.477 0-.886-.108-1.6l-2.556 4.001q.403.886 1.155.886zm0-6.574q-.758 0-1.131.811t-.373 2.476q0 .758.102 1.418l2.503-3.99q-.409-.715-1.101-.715zm7-.859q1.283 0 1.941 1.047.658 1.048.658 3.1 0 2.051-.658 3.098-.658 1.048-1.941 1.048-1.284 0-1.94-1.048-.655-1.047-.655-3.099 0-2.051.656-3.099.655-1.047 1.939-1.047zm0 7.433q.762 0 1.136-.81.373-.812.373-2.477 0-.886-.108-1.6l-2.556 4.001q.403.886 1.155.886zm0-6.574q-.758 0-1.131.811t-.373 2.476q0 .758.102 1.418l2.503-3.99q-.409-.715-1.101-.715zm7-.859q1.283 0 1.941 1.047.658 1.048.658 3.1 0 2.051-.658 3.098-.658 1.048-1.941 1.048-1.284 0-1.94-1.048-.655-1.047-.655-3.099 0-2.051.656-3.099.655-1.047 1.939-1.047zm0 7.433q.762 0 1.136-.81.373-.812.373-2.477 0-.886-.108-1.6l-2.556 4.001q.403.886 1.155.886zm0-6.574q-.758 0-1.131.811t-.373 2.476q0 .758.102 1.418l2.503-3.99q-.409-.715-1.101-.715zm7-.859q1.283 0 1.941 1.047.658 1.048.658 3.1 0 2.051-.658 3.098-.658 1.048-1.941 1.048-1.284 0-1.94-1.048-.655-1.047-.655-3.099 0-2.051.656-3.099.655-1.047 1.939-1.047zm0 7.433q.762 0 1.136-.81.373-.812.373-2.477 0-.886-.108-1.6l-2.556 4.001q.403.886 1.155.886zm0-6.574q-.758 0-1.131.811t-.373 2.476q0 .758.102 1.418l2.503-3.99q-.409-.715-1.101-.715zm7-.859q1.283 0 1.941 1.047.658 1.048.658 3.1 0 2.051-.658 3.098-.658 1.048-1.941 1.048-1.284 0-1.94-1.048-.655-1.047-.655-3.099 0-2.051.656-3.099.655-1.047 1.939-1.047zm0 7.433q.762 0 1.136-.81.373-.812.373-2.477 0-.886-.108-1.6l-2.556 4.001q.403.886 1.155.886zm0-6.574q-.758 0-1.131.811t-.373 2.476q0 .758.102 1.418l2.503-3.99q-.409-.715-1.101-.715zm7-.859q1.283 0 1.941 1.047.658 1.048.658 3.1 0 2.051-.658 3.098-.658 1.048-1.941 1.048-1.284 0-1.94-1.048-.655-1.047-.655-3.099 0-2.051.656-3.099.655-1.047 1.939-1.047zm0 7.433q.762 0 1.136-.81.373-.812.373-2.477 0-.886-.108-1.6l-2.556 4.001q.403.886 1.155.886zm0-6.574q-.758 0-1.131.811t-.373 2.476q0 .758.102 1.418l2.503-3.99q-.409-.715-1.101-.715zm7-.859q1.283 0 1.941 1.047.658 1.048.658 3.1 0 2.051-.658 3.098-.658 1.048-1.941 1.048-1.284 0-1.94-1.048-.655-1.047-.655-3.099 0-2.051.656-3.099.655-1.047 1.939-1.047zm0 7.433q.762 0 1.136-.81.373-.812.373-2.477 0-.886-.108-1.6l-2.556 4.001q.403.886 1.155.886zm0-6.574q-.758 0-1.131.811t-.373 2.476q0 .758.102 1.418l2.503-3.99q-.409-.715-1.101-.715zm7-.859q1.283 0 1.941 1.047.658 1.048.658 3.1 0 2.051-.658 3.098-.658 1.048-1.941 1.048-1.284 0-1.94-1.048-.655-1.047-.655-3.099 0-2.051.656-3.099.655-1.047 1.939-1.047zm0 7.433q.762 0 1.136-.81.373-.812.373-2.477 0-.886-.108-1.6l-2.556 4.001q.403.886 1.155.886zm0-6.574q-.758 0-1.131.811t-.373 2.476q0 .758.102 1.418l2.503-3.99q-.409-.715-1.101-.715zm7-.859q1.283 0 1.941 1.047.658 1.048.658 3.1 0 2.051-.658 3.098-.658 1.048-1.941 1.048-1.284 0-1.94-1.048-.655-1.047-.655-3.099 0-2.051.656-3.099.655-1.047 1.939-1.047zm0 7.433q.762 0 1.136-.81.373-.812.373-2.477 0-.886-.108-1.6l-2.556 4.001q.403.886 1.155.886zm0-6.574q-.758 0-1.131.811t-.373 2.476q0 .758.102 1.418l2.503-3.99q-.409-.715-1.101-.715zm7-.859q1.283 0 1.941 1.047.658 1.048.658 3.1 0 2.051-.658 3.098-.658 1.048-1.941 1.048-1.284 0-1.94-1.048-.655-1.047-.655-3.099 0-2.051.656-3.099.655-1.047 1.939-1.047zm0 7.433q.762 0 1.136-.81.373-.812.373-2.477 0-.886-.108-1.6l-2.556 4.001q.403.886 1.155.886zm0-6.574q-.758 0-1.131.811t-.373 2.476q0 .758.102 1.418l2.503-3.99q-.409-.715-1.101-.715zm7-.859q1.283 0 1.941 1.047.658 1.048.658 3.1 0 2.051-.658 3.098-.658 1.048-1.941 1.048-1.284 0-1.94-1.048-.655-1.047-.655-3.099 0-2.051.656-3.099.655-1.047 1.939-1.047zm0 7.433q.762 0 1.136-.81.373-.812.373-2.477 0-.886-.108-1.6l-2.556 4.001q.403.886 1.155.886zm0-6.574q-.758 0-1.131.811t-.373 2.476q0 .758.102 1.418l2.503-3.99q-.409-.715-1.101-.715zm7-.859q1.283 0 1.941 1.047.658 1.048.658 3.1 0 2.051-.658 3.098-.658 1.048-1.941 1.048-1.284 0-1.94-1.048-.655-1.047-.655-3.099 0-2.051.656-3.099.655-1.047 1.939-1.047zm0 7.433q.762 0 1.136-.81.373-.812.373-2.477 0-.886-.108-1.6l-2.556 4.001q.403.886 1.155.886zm0-6.574q-.758 0-1.131.811t-.373 2.476q0 .758.102 1.418l2.503-3.99q-.409-.715-1.101-.715zm7-.859q1.283 0 1.941 1.047.658 1.048.658 3.1 0 2.051-.658 3.098-.658 1.048-1.941 1.048-1.284 0-1.94-1.048-.655-1.047-.655-3.099 0-2.051.656-3.099.655-1.047 1.939-1.047zm0 7.433q.762 0 1.136-.81.373-.812.373-2.477 0-.886-.108-1.6l-2.556 4.001q.403.886 1.155.886zm0-6.574q-.758 0-1.131.811t-.373 2.476q0 .758.102 1.418l2.503-3.99q-.409-.715-1.101-.715zm7-.859q1.283 0 1.941 1.047.658 1.048.658 3.1 0 2.051-.658 3.098-.658 1.048-1.941 1.048-1.284 0-1.94-1.048-.655-1.047-.655-3.099 0-2.051.656-3.099.655-1.047 1.939-1.047zm0 7.433q.762 0 1.136-.81.373-.812.373-2.477 0-.886-.108-1.6l-2.556 4.001q.403.886 1.155.886zm0-6.574q-.758 0-1.131.811t-.373 2.476q0 .758.102 1.418l2.503-3.99q-.409-.715-1.101-.715zm7-.859q1.283 0 1.941 1.047.658 1.048.658 3.1 0 2.051-.658 3.098-.658 1.048-1.941 1.048-1.284 0-1.94-1.048-.655-1.047-.655-3.099 0-2.051.656-3.099.655-1.047 1.939-1.047zm0 7.433q.762 0 1.136-.81.373-.812.373-2.477 0-.886-.108-1.6l-2.556 4.001q.403.886 1.155.886zm0-6.574q-.758 0-1.131.811t-.373 2.476q0 .758.102 1.418l2.503-3.99q-.409-.715-1.101-.715zm7-.859q1.283 0 1.941 1.047.658 1.048.658 3.1 0 2.051-.658 3.098-.658 1.048-1.941 1.048-1.284 0-1.94-1.048-.655-1.047-.655-3.099 0-2.051.656-3.099.655-1.047 1.939-1.047zm0 7.433q.762 0 1.136-.81.373-.812.373-2.477 0-.886-.108-1.6l-2.556 4.001q.403.886 1.155.886zm0-6.574q-.758 0-1.131.811t-.373 2.476q0 .758.102 1.418l2.503-3.99q-.409-.715-1.101-.715zm7-.859q1.283 0 1.941 1.047.658 1.048.658 3.1 0 2.051-.658 3.098-.658 1.048-1.941 1.048-1.284 0-1.94-1.048-.655-1.047-.655-3.099 0-2.051.656-3.099.655-1.047 1.939-1.047zm0 7.433q.762 0 1.136-.81.373-.812.373-2.477 0-.886-.108-1.6l-2.556 4.001q.403.886 1.155.886zm0-6.574q-.758 0-1.131.811t-.373 2.476q0 .758.102 1.418l2.503-3.99q-.409-.715-1.101-.715zm7-.859q1.283 0 1.941 1.047.658 1.048.658 3.1 0 2.051-.658 3.098-.658 1.048-1.941 1.048-1.284 0-1.94-1.048-.655-1.047-.655-3.099 0-2.051.656-3.099.655-1.047 1.939-1.047zm0 7.433q.762 0 1.136-.81.373-.812.373-2.477 0-.886-.108-1.6l-2.556 4.001q.403.886 1.155.886zm0-6.574q-.758 0-1.131.811t-.373 2.476q0 .758.102 1.418l2.503-3.99q-.409-.715-1.101-.715zm7-.859q1.283 0 1.941 1.047.658 1.048.658 3.1 0 2.051-.658 3.098-.658 1.048-1.941 1.048-1.284 0-1.94-1.048-.655-1.047-.655-3.099 0-2.051.656-3.099.655-1.047 1.939-1.047zm0 7.433q.762 0 1.136-.81.373-.812.373-2.477 0-.886-.108-1.6l-2.556 4.001q.403.886 1.155.886zm0-6.574q-.758 0-1.131.811t-.373 2.476q0 .758.102 1.418l2.503-3.99q-.409-.715-1.101-.715zm7-.859q1.283 0 1.941 1.047.658 1.048.658 3.1 0 2.051-.658 3.098-.658 1.048-1.941 1.048-1.284 0-1.94-1.048-.655-1.047-.655-3.099 0-2.051.656-3.099.655-1.047 1.939-1.047zm0 7.433q.762 0 1.136-.81.373-.812.373-2.477 0-.886-.108-1.6l-2.556 4.001q.403.886 1.155.886zm0-6.574q-.758 0-1.131.811t-.373 2.476q0 .758.102 1.418l2.503-3.99q-.409-.715-1.101-.715zm7-.859q1.283 0 1.941 1.047.658 1.048.658 3.1 0 2.051-.658 3.098-.658 1.048-1.941 1.048-1.284 0-1.94-1.048-.655-1.047-.655-3.099 0-2.051.656-3.099.655-1.047 1.939-1.047zm0 7.433q.762 0 1.136-.81.373-.812.373-2.477 0-.886-.108-1.6l-2.556 4.001q.403.886 1.155.886zm0-6.574q-.758 0-1.131.811t-.373 2.476q0 .758.102 1.418l2.503-3.99q-.409-.715-1.101-.715zm7-.859q1.283 0 1.941 1.047.658 1.048.658 3.1 0 2.051-.658 3.098-.658 1.048-1.941 1.048-1.284 0-1.94-1.048-.655-1.047-.655-3.099 0-2.051.656-3.099.655-1.047 1.939-1.047zm0 7.433q.762 0 1.136-.81.373-.812.373-2.477 0-.886-.108-1.6l-2.556 4.001q.403.886 1.155.886zm0-6.574q-.758 0-1.131.811t-.373 2.476q0 .758.102 1.418l2.503-3.99q-.409-.715-1.101-.715zm7-.859q1.283 0 1.941 1.047.658 1.048.658 3.1 0 2.051-.658 3.098-.658 1.048-1.941 1.048-1.284 0-1.94-1.048-.655-1.047-.655-3.099 0-2.051.656-3.099.655-1.047 1.939-1.047zm0 7.433q.762 0 1.136-.81.373-.812.373-2.477 0-.886-.108-1.6l-2.556 4.001q.403.886 1.155.886zm0-6.574q-.758 0-1.131.811t-.373 2.476q0 .758.102 1.418l2.503-3.99q-.409-.715-1.101-.715zm7-.859q1.283 0 1.941 1.047.658 1.048.658 3.1 0 2.051-.658 3.098-.658 1.048-1.941 1.048-1.284 0-1.94-1.048-.655-1.047-.655-3.099 0-2.051.656-3.099.655-1.047 1.939-1.047zm0 7.433q.762 0 1.136-.81.373-.812.373-2.477 0-.886-.108-1.6l-2.556 4.001q.403.886 1.155.886zm0-6.574q-.758 0-1.131.811t-.373 2.476q0 .758.102 1.418l2.503-3.99q-.409-.715-1.101-.715zm7-.859q1.283 0 1.941 1.047.658 1.048.658 3.1 0 2.051-.658 3.098-.658 1.048-1.941 1.048-1.284 0-1.94-1.048-.655-1.047-.655-3.099 0-2.051.656-3.099.655-1.047 1.939-1.047zm0 7.433q.762 0 1.136-.81.373-.812.373-2.477 0-.886-.108-1.6l-2.556 4.001q.403.886 1.155.886zm0-6.574q-.758 0-1.131.811t-.373 2.476q0 .758.102 1.418l2.503-3.99q-.409-.715-1.101-.715zm7-.859q1.283 0 1.941 1.047.658 1.048.658 3.1 0 2.051-.658 3.098-.658 1.048-1.941 1.048-1.284 0-1.94-1.048-.655-1.047-.655-3.099 0-2.051.656-3.099.655-1.047 1.939-1.047zm0 7.433q.762 0 1.136-.81.373-.812.373-2.477 0-.886-.108-1.6l-2.556 4.001q.403.886 1.155.886zm0-6.574q-.758 0-1.131.811t-.373 2.476q0 .758.102 1.418l2.503-3.99q-.409-.715-1.101-.715zm7-.859q1.283 0 1.941 1.047.658 1.048.658 3.1 0 2.051-.658 3.098-.658 1.048-1.941 1.048-1.284 0-1.94-1.048-.655-1.047-.655-3.099 0-2.051.656-3.099.655-1.047 1.939-1.047zm0 7.433q.762 0 1.136-.81.373-.812.373-2.477 0-.886-.108-1.6l-2.556 4.001q.403.886 1.155.886zm0-6.574q-.758 0-1.131.811t-.373 2.476q0 .758.102 1.418l2.503-3.99q-.409-.715-1.101-.715zm7-.859q1.283 0 1.941 1.047.658 1.048.658 3.1 0 2.051-.658 3.098-.658 1.048-1.941 1.048-1.284 0-1.94-1.048-.655-1.047-.655-3.099 0-2.051.656-3.099.655-1.047 1.939-1.047zm0 7.433q.762 0 1.136-.81.373-.812.373-2.477 0-.886-.108-1.6l-2.556 4.001q.403.886 1.155.886zm0-6.574q-.758 0-1.131.811t-.373 2.476q0 .758.102 1.418l2.503-3.99q-.409-.715-1.101-.715zm7-.859q1.283 0 1.941 1.047.658 1.048.658 3.1 0 2.051-.658 3.098-.658 1.048-1.941 1.048-1.284 0-1.94-1.048-.655-1.047-.655-3.099 0-2.051.656-3.099.655-1.047 1.939-1.047zm0 7.433q.762 0 1.136-.81.373-.812.373-2.477 0-.886-.108-1.6l-2.556 4.001q.403.886 1.155.886zm0-6.574q-.758 0-1.131.811t-.373 2.476q0 .758.102 1.418l2.503-3.99q-.409-.715-1.101-.715zm7-.859q1.283 0 1.941 1.047.658 1.048.658 3.1 0 2.051-.658 3.098-.658 1.048-1.941 1.048-1.284 0-1.94-1.048-.655-1.047-.655-3.099 0-2.051.656-3.099.655-1.047 1.939-1.047zm0 7.433q.762 0 1.136-.81.373-.812.373-2.477 0-.886-.108-1.6l-2.556 4.001q.403.886 1.155.886zm0-6.574q-.758 0-1.131.811t-.373 2.476q0 .758.102 1.418l2.503-3.99q-.409-.715-1.101-.715zm7-.859q1.283 0 1.941 1.047.658 1.048.658 3.1 0 2.051-.658 3.098-.658 1.048-1.941 1.048-1.284 0-1.94-1.048-.655-1.047-.655-3.099 0-2.051.656-3.099.655-1.047 1.939-1.047zm0 7.433q.762 0 1.136-.81.373-.812.373-2.477 0-.886-.108-1.6l-2.556 4.001q.403.886 1.155.886zm0-6.574q-.758 0-1.131.811t-.373 2.476q0 .758.102 1.418l2.503-3.99q-.409-.715-1.101-.715zm7-.859q1.283 0 1.941 1.047.658 1.048.658 3.1 0 2.051-.658 3.098-.658 1.048-1.941 1.048-1.284 0-1.94-1.048-.655-1.047-.655-3.099 0-2.051.656-3.099.655-1.047 1.939-1.047zm0 7.433q.762 0 1.136-.81.373-.812.373-2.477 0-.886-.108-1.6l-2.556 4.001q.403.886 1.155.886zm0-6.574q-.758 0-1.131.811t-.373 2.476q0 .758.102 1.418l2.503-3.99q-.409-.715-1.101-.715zm7-.859q1.283 0 1.941 1.047.658 1.048.658 3.1 0 2.051-.658 3.098-.658 1.048-1.941 1.048-1.284 0-1.94-1.048-.655-1.047-.655-3.099 0-2.051.656-3.099.655-1.047 1.939-1.047zm0 7.433q.762 0 1.136-.81.373-.812.373-2.477 0-.886-.108-1.6l-2.556 4.001q.403.886 1.155.886zm0-6.574q-.758 0-1.131.811t-.373 2.476q0 .758.102 1.418l2.503-3.99q-.409-.715-1.101-.715zm7-.859q1.283 0 1.941 1.047.658 1.048.658 3.1 0 2.051-.658 3.098-.658 1.048-1.941 1.048-1.284 0-1.94-1.048-.655-1.047-.655-3.099 0-2.051.656-3.099.655-1.047 1.939-1.047zm0 7.433q.762 0 1.136-.81.373-.812.373-2.477 0-.886-.108-1.6l-2.556 4.001q.403.886 1.155.886zm0-6.574q-.758 0-1.131.811t-.373 2.476q0 .758.102 1.418l2.503-3.99q-.409-.715-1.101-.715zm7-.859q1.283 0 1.941 1.047.658 1.048.658 3.1 0 2.051-.658 3.098-.658 1.048-1.941 1.048-1.284 0-1.94-1.048-.655-1.047-.655-3.099 0-2.051.656-3.099.655-1.047 1.939-1.047zm0 7.433q.762 0 1.136-.81.373-.812.373-2.477 0-.886-.108-1.6l-2.556 4.001q.403.886 1.155.886zm0-6.574q-.758 0-1.131.811t-.373 2.476q0 .758.102 1.418l2.503-3.99q-.409-.715-1.101-.715zm7-.859q1.283 0 1.941 1.047.658 1.048.658 3.1 0 2.051-.658 3.098-.658 1.048-1.941 1.048-1.284 0-1.94-1.048-.655-1.047-.655-3.099 0-2.051.656-3.099.655-1.047 1.939-1.047zm0 7.433q.762 0 1.136-.81.373-.812.373-2.477 0-.886-.108-1.6l-2.556 4.001q.403.886 1.155.886zm0-6.574q-.758 0-1.131.811t-.373 2.476q0 .758.102 1.418l2.503-3.99q-.409-.715-1.101-.715zm7-.859q1.283 0 1.941 1.047.658 1.048.658 3.1 0 2.051-.658 3.098-.658 1.048-1.941 1.048-1.284 0-1.94-1.048-.655-1.047-.655-3.099 0-2.051.656-3.099.655-1.047 1.939-1.047zm0 7.433q.762 0 1.136-.81.373-.812.373-2.477 0-.886-.108-1.6l-2.556 4.001q.403.886 1.155.886zm0-6.574q-.758 0-1.131.811t-.373 2.476q0 .758.102 1.418l2.503-3.99q-.409-.715-1.101-.715zm7-.859q1.283 0 1.941 1.047.658 1.048.658 3.1 0 2.051-.658 3.098-.658 1.048-1.941 1.048-1.284 0-1.94-1.048-.655-1.047-.655-3.099 0-2.051.656-3.099.655-1.047 1.939-1.047zm0 7.433q.762 0 1.136-.81.373-.812.373-2.477 0-.886-.108-1.6l-2.556 4.001q.403.886 1.155.886zm0-6.574q-.758 0-1.131.811t-.373 2.476q0 .758.102 1.418l2.503-3.99q-.409-.715-1.101-.715zm7-.859q1.283 0 1.941 1.047.658 1.048.658 3.1 0 2.051-.658 3.098-.658 1.048-1.941 1.048-1.284 0-1.94-1.048-.655-1.047-.655-3.099 0-2.051.656-3.099.655-1.047 1.939-1.047zm0 7.433q.762 0 1.136-.81.373-.812.373-2.477 0-.886-.108-1.6l-2.556 4.001q.403.886 1.155.886zm0-6.574q-.758 0-1.131.811t-.373 2.476q0 .758.102 1.418l2.503-3.99q-.409-.715-1.101-.715zm7-.859q1.283 0 1.941 1.047.658 1.048.658 3.1 0 2.051-.658 3.098-.658 1.048-1.941 1.048-1.284 0-1.94-1.048-.655-1.047-.655-3.099 0-2.051.656-3.099.655-1.047 1.939-1.047zm0 7.433q.762 0 1.136-.81.373-.812.373-2.477 0-.886-.108-1.6l-2.556 4.001q.403.886 1.155.886zm0-6.574q-.758 0-1.131.811t-.373 2.476q0 .758.102 1.418l2.503-3.99q-.409-.715-1.101-.715zm7-.859q1.283 0 1.941 1.047.658 1.048.658 3.1 0 2.051-.658 3.098-.658 1.048-1.941 1.048-1.284 0-1.94-1.048-.655-1.047-.655-3.099 0-2.051.656-3.099.655-1.047 1.939-1.047zm0 7.433q.762 0 1.136-.81.373-.812.373-2.477 0-.886-.108-1.6l-2.556 4.001q.403.886 1.155.886zm0-6.574q-.758 0-1.131.811t-.373 2.476q0 .758.102 1.418l2.503-3.99q-.409-.715-1.101-.715zm7-.859q1.283 0 1.941 1.047.658 1.048.658 3.1 0 2.051-.658 3.098-.658 1.048-1.941 1.048-1.284 0-1.94-1.048-.655-1.047-.655-3.099 0-2.051.656-3.099.655-1.047 1.939-1.047zm0 7.433q.762 0 1.136-.81.373-.812.373-2.477 0-.886-.108-1.6l-2.556 4.001q.403.886 1.155.886zm0-6.574q-.758 0-1.131.811t-.373 2.476q0 .758.102 1.418l2.503-3.99q-.409-.715-1.101-.715zm7-.859q1.283 0 1.941 1.047.658 1.048.658 3.1 0 2.051-.658 3.098-.658 1.048-1.941 1.048-1.284 0-1.94-1.048-.655-1.047-.655-3.099 0-2.051.656-3.099.655-1.047 1.939-1.047zm0 7.433q.762 0 1.136-.81.373-.812.373-2.477 0-.886-.108-1.6l-2.556 4.001q.403.886 1.155.886zm0-6.574q-.758 0-1.131.811t-.373 2.476q0 .758.102 1.418l2.503-3.99q-.409-.715-1.101-.715zm7-.859q1.283 0 1.941 1.047.658 1.048.658 3.1 0 2.051-.658 3.098-.658 1.048-1.941 1.048-1.284 0-1.94-1.048-.655-1.047-.655-3.099 0-2.051.656-3.099.655-1.047 1.939-1.047zm0 7.433q.762 0 1.136-.81.373-.812.373-2.477 0-.886-.108-1.6l-2.556 4.001q.403.886 1.155.886zm0-6.574q-.758 0-1.131.811t-.373 2.476q0 .758.102 1.418l2.503-3.99q-.409-.715-1.101-.715zm7-.859q1.283 0 1.941 1.047.658 1.048.658 3.1 0 2.051-.658 3.098-.658 1.048-1.941 1.048-1.284 0-1.94-1.048-.655-1.047-.655-3.099 0-2.051.656-3.099.655-1.047 1.939-1.047zm0 7.433q.762 0 1.136-.81.373-.812.373-2.477 0-.886-.108-1.6l-2.556 4.001q.403.886 1.155.886zm0-6.574q-.758 0-1.131.811t-.373 2.476q0 .758.102 1.418l2.503-3.99q-.409-.715-1.101-.715zm7-.859q1.283 0 1.941 1.047.658 1.048.658 3.1 0 2.051-.658 3.098-.658 1.048-1.941 1.048-1.284 0-1.94-1.048-.655-1.047-.655-3.099 0-2.051.656-3.099.655-1.047 1.939-1.047zm0 7.433q.762 0 1.136-.81.373-.812.373-2.477 0-.886-.108-1.6l-2.556 4.001q.403.886 1.155.886zm0-6.574q-.758 0-1.131.811t-.373 2.476q0 .758.102 1.418l2.503-3.99q-.409-.715-1.101-.715zm7-.859q1.283 0 1.941 1.047.658 1.048.658 3.1 0 2.051-.658 3.098-.658 1.048-1.941 1.048-1.284 0-1.94-1.048-.655-1.047-.655-3.099 0-2.051.656-3.099.655-1.047 1.939-1.047zm0 7.433q.762 0 1.136-.81.373-.812.373-2.477 0-.886-.108-1.6l-2.556 4.001q.403.886 1.155.886zm0-6.574q-.758 0-1.131.811t-.373 2.476q0 .758.102 1.418l2.503-3.99q-.409-.715-1.101-.715zm7-.859q1.283 0 1.941 1.047.658 1.048.658 3.1 0 2.051-.658 3.098-.658 1.048-1.941 1.048-1.284 0-1.94-1.048-.655-1.047-.655-3.099 0-2.051.656-3.099.655-1.047 1.939-1.047zm0 7.433q.762 0 1.136-.81.373-.812.373-2.477 0-.886-.108-1.6l-2.556 4.001q.403.886 1.155.886zm0-6.574q-.758 0-1.131.811t-.373 2.476q0 .758.102 1.418l2.503-3.99q-.409-.715-1.101-.715zm7-.859q1.283 0 1.941 1.047.658 1.048.658 3.1 0 2.051-.658 3.098-.658 1.048-1.941 1.048-1.284 0-1.94-1.048-.655-1.047-.655-3.099 0-2.051.656-3.099.655-1.047 1.939-1.047zm0 7.433q.762 0 1.136-.81.373-.812.373-2.477 0-.886-.108-1.6l-2.556 4.001q.403.886 1.155.886zm0-6.574q-.758 0-1.131.811t-.373 2.476q0 .758.102 1.418l2.503-3.99q-.409-.715-1.101-.715zm7-.859q1.283 0 1.941 1.047.658 1.048.658 3.1 0 2.051-.658 3.098-.658 1.048-1.941 1.048-1.284 0-1.94-1.048-.655-1.047-.655-3.099 0-2.051.656-3.099.655-1.047 1.939-1.047zm0 7.433q.762 0 1.136-.81.373-.812.373-2.477 0-.886-.108-1.6l-2.556 4.001q.403.886 1.155.886zm0-6.574q-.758 0-1.131.811t-.373 2.476q0 .758.102 1.418l2.503-3.99q-.409-.715-1.101-.715zm7-.859q1.283 0 1.941 1.047.658 1.048.658 3.1 0 2.051-.658 3.098-.658 1.048-1.941 1.048-1.284 0-1.94-1.048-.655-1.047-.655-3.099 0-2.051.656-3.099.655-1.047 1.939-1.047zm0 7.433q.762 0 1.136-.81.373-.812.373-2.477 0-.886-.108-1.6l-2.556 4.001q.403.886 1.155.886zm0-6.574q-.758 0-1.131.811t-.373 2.476q0 .758.102 1.418l2.503-3.99q-.409-.715-1.101-.715zm7-.859q1.283 0 1.941 1.047.658 1.048.658 3.1 0 2.051-.658 3.098-.658 1.048-1.941 1.048-1.284 0-1.94-1.048-.655-1.047-.655-3.099 0-2.051.656-3.099.655-1.047 1.939-1.047zm0 7.433q.762 0 1.136-.81.373-.812.373-2.477 0-.886-.108-1.6l-2.556 4.001q.403.886 1.155.886zm0-6.574q-.758 0-1.131.811t-.373 2.476q0 .758.102 1.418l2.503-3.99q-.409-.715-1.101-.715zm7-.859q1.283 0 1.941 1.047.658 1.048.658 3.1 0 2.051-.658 3.098-.658 1.048-1.941 1.048-1.284 0-1.94-1.048-.655-1.047-.655-3.099 0-2.051.656-3.099.655-1.047 1.939-1.047zm0 7.433q.762 0 1.136-.81.373-.812.373-2.477 0-.886-.108-1.6l-2.556 4.001q.403.886 1.155.886zm0-6.574q-.758 0-1.131.811t-.373 2.476q0 .758.102 1.418l2.503-3.99q-.409-.715-1.101-.715zm7-.859q1.283 0 1.941 1.047.658 1.048.658 3.1 0 2.051-.658 3.098-.658 1.048-1.941 1.048-1.284 0-1.94-1.048-.655-1.047-.655-3.099 0-2.051.656-3.099.655-1.047 1.939-1.047zm0 7.433q.762 0 1.136-.81.373-.812.373-2.477 0-.886-.108-1.6l-2.556 4.001q.403.886 1.155.886zm0-6.574q-.758 0-1.131.811t-.373 2.476q0 .758.102 1.418l2.503-3.99q-.409-.715-1.101-.715z"/><path d="M38.738 33.336v5.983h-.86v-5.983h-2.985v-.924h2.986v-7.111h.86v7.111h2.991v.924zm3.155 0v-.924h6.837v.924zm7 0v-.924h6.837v.924zm7 0v-.924h6.837v.924zm7 0v-.924h6.837v.924zm7 0v-.924h6.837v.924zm7 0v-.924h6.837v.924zm7 0v-.924h6.837v.924zm7 0v-.924h6.837v.924zm7 0v-.924h6.837v.924zm7 0v-.924h6.837v.924zm7 0v-.924h6.837v.924zm7 0v-.924h6.837v.924zm7 0v-.924h6.837v.924zm7 0v-.924h6.837v.924zm7 0v-.924h6.837v.924zm7 0v-.924h6.837v.924zm7 0v-.924h6.837v.924zm7 0v-.924h6.837v.924zm7 0v-.924h6.837v.924zm7 0v-.924h6.837v.924zm7 0v-.924h6.837v.924zm7 0v-.924h6.837v.924zm7 0v-.924h6.837v.924zm7 0v-.924h6.837v.924zm7 0v-.924h6.837v.924zm7 0v-.924h6.837v.924zm7 0v-.924h6.837v.924zm7 0v-.924h6.837v.924zm7 0v-.924h6.837v.924zm7 0v-.924h6.837v.924zm7 0v-.924h6.837v.924zm7 0v-.924h6.837v.924zm7 0v-.924h6.837v.924zm7 0v-.924h6.837v.924zm7 0v-.924h6.837v.924zm7 0v-.924h6.837v.924zm7 0v-.924h6.837v.924zm7 0v-.924h6.837v.924zm7 0v-.924h6.837v.924zm7 0v-.924h6.837v.924zm7 0v-.924h6.837v.924zm7 0v-.924h6.837v.924zm7 0v-.924h6.837v.924zm7 0v-.924h6.837v.924zm7 0v-.924h6.837v.924zm7 0v-.924h6.837v.924zm7 0v-.924h6.837v.924zm7 0v-.924h6.837v.924zm7 0v-.924h6.837v.924zm7 0v-.924h6.837v.924zm7 0v-.924h6.837v.924zm7 0v-.924h6.837v.924zm7 0v-.924h6.837v.924zm7 0v-.924h6.837v.924zm7 0v-.924h6.837v.924zm7 0v-.924h6.837v.924zm7 0v-.924h6.837v.924zm7 0v-.924h6.837v.924zm7 0v-.924h6.837v.924zm7 0v-.924h6.837v.924zm7 0v-.924h6.837v.924zm7 0v-.924h6.837v.924zm7 0v-.924h6.837v.924zm7 0v-.924h6.837v.924zm7 0v-.924h6.837v.924zm7 0v-.924h6.837v.924zm7 0v-.924h6.837v.924z" fill="#CACACA"/><path d="M10.309 14.863q1.283 0 1.941 1.047.658 1.048.658 3.1 0 2.051-.658 3.098-.658 1.048-1.941 1.048-1.284 0-1.94-1.048-.655-1.047-.655-3.099 0-2.051.656-3.099.655-1.047 1.939-1.047zm0 7.433q.762 0 1.136-.81.373-.812.373-2.477 0-.886-.108-1.6L9.154 21.41q.403.886 1.155.886zm0-6.574q-.758 0-1.131.811t-.373 2.476q0 .758.102 1.418l2.503-3.99q-.409-.715-1.101-.715zm9.696 1.262l-2.154 2.88L20.214 23H19.07l-1.761-2.412L15.552 23h-1.144l2.363-3.137-2.153-2.879h1.095l1.596 2.176 1.584-2.176zm2.998 5.103h3.685V23h-4.872v-.913q1.005-1.058 1.757-1.87.752-.81 1.036-1.143.537-.656.725-1.061.188-.406.188-.83 0-.671-.394-1.053-.395-.381-1.083-.381-.488 0-1.025.177-.538.178-1.14.537v-1.095q.554-.264 1.089-.398.534-.134 1.055-.134 1.176 0 1.893.626.717.625.717 1.64 0 .516-.239 1.032-.239.515-.776 1.138-.3.35-.873.967-.572.618-1.743 1.848zm8.306-7.224q1.283 0 1.941 1.047.658 1.048.658 3.1 0 2.051-.658 3.098-.658 1.048-1.941 1.048-1.284 0-1.94-1.048-.655-1.047-.655-3.099 0-2.051.656-3.099.655-1.047 1.939-1.047zm0 7.433q.762 0 1.136-.81.373-.812.373-2.477 0-.886-.108-1.6l-2.556 4.001q.403.886 1.155.886zm0-6.574q-.758 0-1.131.811t-.373 2.476q0 .758.102 1.418l2.503-3.99q-.409-.715-1.101-.715z"/><path d="M37.879 26.32V12.3h.86v14.02z" fill="#CACACA"/><path d="M45.309 14.863q1.283 0 1.941 1.047.658 1.048.658 3.1 0 2.051-.658 3.098-.658 1.048-1.941 1.048-1.284 0-1.94-1.048-.655-1.047-.655-3.099 0-2.051.656-3.099.655-1.047 1.939-1.047zm0 7.433q.762 0 1.136-.81.373-.812.373-2.477 0-.886-.108-1.6l-2.556 4.001q.403.886 1.155.886zm0-6.574q-.758 0-1.131.811t-.373 2.476q0 .758.102 1.418l2.503-3.99q-.409-.715-1.101-.715zm9.696 1.262l-2.154 2.88L55.214 23H54.07l-1.761-2.412L50.552 23h-1.144l2.363-3.137-2.153-2.879h1.095l1.596 2.176 1.584-2.176zm6.694 5.71q-.398.23-.82.346-.421.116-.861.116-1.397 0-2.184-.838-.787-.838-.787-2.32 0-1.483.787-2.32.787-.839 2.184-.839.435 0 .848.113.414.113.833.35v1.036q-.392-.35-.787-.505-.395-.156-.894-.156-.93 0-1.43.602-.499.601-.499 1.719 0 1.111.503 1.716.502.604 1.426.604.515 0 .923-.159.409-.158.758-.491zm2.413-7.713h4.06v.913H65.1v1.971q.231-.086.465-.126.233-.04.47-.04 1.246 0 1.976.736.73.735.73 1.992 0 1.268-.765 1.998t-2.092.73q-.639 0-1.168-.085-.529-.086-.948-.258v-1.101q.494.268.994.4t1.02.132q.897 0 1.383-.473t.486-1.343q0-.86-.502-1.337-.502-.478-1.399-.478-.435 0-.849.1-.413.099-.79.297zm10.496 2.771v-3.11h.989V23h-.989v-.757q-.247.445-.658.68-.41.233-.948.233-1.09 0-1.716-.846-.625-.846-.625-2.334 0-1.466.628-2.301.628-.836 1.713-.836.543 0 .956.234.414.234.65.68zm-2.905 2.246q0 1.149.365 1.734.365.586 1.08.586.714 0 1.087-.59.373-.592.373-1.73 0-1.144-.373-1.733-.373-.588-1.088-.588-.714 0-1.08.586-.364.585-.364 1.735zm7.3 2.089h3.685V23h-4.872v-.913q1.005-1.058 1.757-1.87.752-.81 1.036-1.143.537-.656.725-1.061.188-.406.188-.83 0-.671-.394-1.053-.395-.381-1.083-.381-.488 0-1.025.177-.538.178-1.14.537v-1.095q.554-.264 1.089-.398.534-.134 1.055-.134 1.176 0 1.893.626.717.625.717 1.64 0 .516-.239 1.032-.239.515-.776 1.138-.3.35-.873.967-.572.618-1.743 1.848zm8.945-6.117l-2.53 4.237h2.53zm-.177-.989h1.256v5.226h1.07v.88h-1.07V23h-1.08v-1.912h-3.4v-1.026zm8.552.177v1q-.339-.2-.72-.304-.381-.105-.795-.105-1.031 0-1.563.776t-.532 2.286q.258-.538.715-.825.456-.287 1.047-.287 1.16 0 1.797.711.636.712.636 2.017 0 1.3-.655 2.014-.655.715-1.842.715-1.397 0-2.047-1.002-.65-1.002-.65-3.155 0-2.03.782-3.097.781-1.066 2.264-1.066.397 0 .795.083.397.083.768.24zm-1.934 3.39q-.693 0-1.09.499-.398.5-.398 1.38 0 .881.398 1.38.397.5 1.09.5.72 0 1.085-.475.365-.476.365-1.405 0-.934-.365-1.407t-1.085-.473zm6.92-3.685q1.283 0 1.941 1.047.658 1.048.658 3.1 0 2.051-.658 3.098-.658 1.048-1.941 1.048-1.284 0-1.94-1.048-.655-1.047-.655-3.099 0-2.051.656-3.099.655-1.047 1.939-1.047zm0 7.433q.762 0 1.136-.81.373-.812.373-2.477 0-.886-.108-1.6l-2.556 4.001q.403.886 1.155.886zm0-6.574q-.758 0-1.131.811t-.373 2.476q0 .758.102 1.418l2.503-3.99q-.409-.715-1.101-.715zm5.141 6.37h1.687v-6.058l-2.02.972v-1.042l2.009-.956h1.085v7.084h1.665V23h-4.426zm8.859-2.9q-.726 0-1.12.405-.395.406-.395 1.147t.4 1.152q.4.411 1.115.411.73 0 1.125-.405.395-.406.395-1.158 0-.736-.4-1.144-.4-.408-1.12-.408zm-.946-.451q-.693-.178-1.082-.66-.39-.484-.39-1.166 0-.957.65-1.518t1.768-.561q1.122 0 1.772.561.65.561.65 1.518 0 .682-.39 1.165-.389.483-1.082.66.806.178 1.233.715.427.537.427 1.391 0 1.085-.693 1.697-.693.613-1.917.613-1.225 0-1.915-.61t-.69-1.69q0-.858.427-1.398.427-.54 1.232-.717zm-.392-1.724q0 .644.344.983.344.338.994.338.655 0 .999-.338.343-.339.343-.983 0-.656-.34-1-.342-.343-1.002-.343-.65 0-.994.346-.344.347-.344.997zm10.352-1.859v1q-.339-.2-.72-.304-.381-.105-.795-.105-1.031 0-1.563.776t-.532 2.286q.258-.538.715-.825.456-.287 1.047-.287 1.16 0 1.797.711.636.712.636 2.017 0 1.3-.655 2.014-.655.715-1.842.715-1.397 0-2.047-1.002-.65-1.002-.65-3.155 0-2.03.782-3.097.781-1.066 2.264-1.066.397 0 .795.083.397.083.768.24zm-1.934 3.39q-.693 0-1.09.499-.398.5-.398 1.38 0 .881.398 1.38.397.5 1.09.5.72 0 1.085-.475.365-.476.365-1.405 0-.934-.365-1.407t-1.085-.473zm9.321-3.905v.821h-1.123q-.532 0-.739.218-.206.217-.206.77v.532h2.067v.768h-2.067V23h-.989v-5.248h-1.606v-.768h1.606v-.419q0-.988.454-1.455.454-.467 1.415-.467zm2.037.338h5.048v.462L135.927 23h-1.133l2.793-7.106h-3.84zm8.256 7.106h3.685V23h-4.872v-.913q1.005-1.058 1.757-1.87.752-.81 1.036-1.143.537-.656.725-1.061.188-.406.188-.83 0-.671-.394-1.053-.395-.381-1.083-.381-.488 0-1.025.177-.538.178-1.14.537v-1.095q.554-.264 1.089-.398.534-.134 1.055-.134 1.176 0 1.893.626.717.625.717 1.64 0 .516-.239 1.032-.239.515-.776 1.138-.3.35-.873.967-.572.618-1.743 1.848zm9.165-3.379q.79.21 1.208.744.42.535.42 1.335 0 1.107-.744 1.738-.744.63-2.06.63-.554 0-1.128-.101-.575-.102-1.128-.296v-1.08q.548.285 1.08.425.531.14 1.058.14.891 0 1.37-.403.477-.403.477-1.16 0-.699-.478-1.11-.478-.41-1.294-.41h-.827v-.892h.827q.746 0 1.165-.328.42-.327.42-.913 0-.617-.39-.948-.39-.33-1.11-.33-.477 0-.988.107-.51.108-1.068.323v-1q.65-.171 1.157-.257.508-.086.9-.086 1.17 0 1.871.588.701.588.701 1.56 0 .661-.367 1.101-.368.44-1.072.623zm7 0q.79.21 1.208.744.42.535.42 1.335 0 1.107-.744 1.738-.744.63-2.06.63-.554 0-1.128-.101-.575-.102-1.128-.296v-1.08q.548.285 1.08.425.531.14 1.058.14.891 0 1.37-.403.477-.403.477-1.16 0-.699-.478-1.11-.478-.41-1.294-.41h-.827v-.892h.827q.746 0 1.165-.328.42-.327.42-.913 0-.617-.39-.948-.39-.33-1.11-.33-.477 0-.988.107-.51.108-1.068.323v-1q.65-.171 1.157-.257.508-.086.9-.086 1.17 0 1.871.588.701.588.701 1.56 0 .661-.367 1.101-.368.44-1.072.623zm8.531 3.986q-.398.23-.82.346-.421.116-.861.116-1.397 0-2.184-.838-.787-.838-.787-2.32 0-1.483.787-2.32.787-.839 2.184-.839.435 0 .848.113.414.113.833.35v1.036q-.392-.35-.787-.505-.395-.156-.894-.156-.93 0-1.43.602-.499.601-.499 1.719 0 1.111.503 1.716.502.604 1.426.604.515 0 .923-.159.409-.158.758-.491zm4.502-3.25q.693 0 1.088-.5.395-.499.395-1.38 0-.88-.395-1.38-.395-.5-1.088-.5-.72 0-1.085.476-.365.475-.365 1.404 0 .935.363 1.408.362.472 1.087.472zm-1.933 3.39v-1q.338.2.72.304.38.105.794.105 1.031 0 1.56-.776.53-.777.53-2.286-.253.537-.71.825-.456.287-1.047.287-1.16 0-1.796-.714-.637-.715-.637-2.025 0-1.295.653-2.006.652-.712 1.845-.712 1.396 0 2.046 1.004.65 1.005.65 3.159 0 2.024-.782 3.09-.781 1.067-2.269 1.067-.392 0-.79-.083-.397-.084-.767-.24zm7.735-.747h3.685V23h-4.872v-.913q1.005-1.058 1.757-1.87.752-.81 1.036-1.143.537-.656.725-1.061.188-.406.188-.83 0-.671-.394-1.053-.395-.381-1.083-.381-.488 0-1.025.177-.538.178-1.14.537v-1.095q.554-.264 1.089-.398.534-.134 1.055-.134 1.176 0 1.893.626.717.625.717 1.64 0 .516-.239 1.032-.239.515-.776 1.138-.3.35-.873.967-.572.618-1.743 1.848zm5.744-7.106h5.048v.462L184.927 23h-1.133l2.793-7.106h-3.84zm12.269 4.517v.483h-4.281v.033q-.043 1.23.47 1.767.513.537 1.447.537.473 0 .989-.15.515-.15 1.1-.457v.983q-.563.23-1.087.346-.524.116-1.012.116-1.402 0-2.192-.84-.79-.841-.79-2.318 0-1.44.774-2.3.774-.859 2.063-.859 1.149 0 1.812.78.664.778.707 1.879zm-.989-.29q-.064-.623-.454-1.077-.389-.454-1.12-.454-.714 0-1.176.473-.462.473-.505 1.063zm2.72-4.227h5.048v.462L198.927 23h-1.133l2.793-7.106h-3.84zm10.861 2.771v-3.11h.989V23h-.989v-.757q-.247.445-.658.68-.41.233-.948.233-1.09 0-1.716-.846-.625-.846-.625-2.334 0-1.466.628-2.301.628-.836 1.713-.836.543 0 .956.234.414.234.65.68zm-2.905 2.246q0 1.149.365 1.734.365.586 1.08.586.714 0 1.087-.59.373-.592.373-1.73 0-1.144-.373-1.733-.373-.588-1.088-.588-.714 0-1.08.586-.364.585-.364 1.735zm10.227 0q0-1.15-.365-1.735-.365-.586-1.08-.586-.719 0-1.09.588-.37.589-.37 1.733 0 1.138.37 1.73.371.59 1.09.59.715 0 1.08-.586.366-.585.366-1.734zm-2.905-2.246q.236-.44.652-.676.417-.237.965-.237 1.085 0 1.708.836.623.835.623 2.301 0 1.488-.626 2.334-.626.846-1.716.846-.537 0-.948-.234-.411-.234-.658-.68V23h-.988v-8.357h.988zm6.978 4.335h3.685V23h-4.872v-.913q1.005-1.058 1.757-1.87.752-.81 1.036-1.143.537-.656.725-1.061.188-.406.188-.83 0-.671-.394-1.053-.395-.381-1.083-.381-.488 0-1.025.177-.538.178-1.14.537v-1.095q.554-.264 1.089-.398.534-.134 1.055-.134 1.176 0 1.893.626.717.625.717 1.64 0 .516-.239 1.032-.239.515-.776 1.138-.3.35-.873.967-.572.618-1.743 1.848zm9.605-4.335v-3.11h.989V23h-.989v-.757q-.247.445-.658.68-.41.233-.948.233-1.09 0-1.716-.846-.625-.846-.625-2.334 0-1.466.628-2.301.628-.836 1.713-.836.543 0 .956.234.414.234.65.68zm-2.905 2.246q0 1.149.365 1.734.365.586 1.08.586.714 0 1.087-.59.373-.592.373-1.73 0-1.144-.373-1.733-.373-.588-1.088-.588-.714 0-1.08.586-.364.585-.364 1.735zm10.996 2.696q-.398.23-.82.346-.421.116-.861.116-1.397 0-2.184-.838-.787-.838-.787-2.32 0-1.483.787-2.32.787-.839 2.184-.839.435 0 .848.113.414.113.833.35v1.036q-.392-.35-.787-.505-.395-.156-.894-.156-.93 0-1.43.602-.499.601-.499 1.719 0 1.111.503 1.716.502.604 1.426.604.515 0 .923-.159.409-.158.758-.491zm7 0q-.398.23-.82.346-.421.116-.861.116-1.397 0-2.184-.838-.787-.838-.787-2.32 0-1.483.787-2.32.787-.839 2.184-.839.435 0 .848.113.414.113.833.35v1.036q-.392-.35-.787-.505-.395-.156-.894-.156-.93 0-1.43.602-.499.601-.499 1.719 0 1.111.503 1.716.502.604 1.426.604.515 0 .923-.159.409-.158.758-.491zm2.048-7.713h5.048v.462L247.927 23h-1.133l2.793-7.106h-3.84zm9.562-.118q1.283 0 1.941 1.047.658 1.048.658 3.1 0 2.051-.658 3.098-.658 1.048-1.941 1.048-1.284 0-1.94-1.048-.655-1.047-.655-3.099 0-2.051.656-3.099.655-1.047 1.939-1.047zm0 7.433q.762 0 1.136-.81.373-.812.373-2.477 0-.886-.108-1.6l-2.556 4.001q.403.886 1.155.886zm0-6.574q-.758 0-1.131.811t-.373 2.476q0 .758.102 1.418l2.503-3.99q-.409-.715-1.101-.715zm7.859 2.986q.79.21 1.208.744.42.535.42 1.335 0 1.107-.744 1.738-.744.63-2.06.63-.554 0-1.128-.101-.575-.102-1.128-.296v-1.08q.548.285 1.08.425.531.14 1.058.14.891 0 1.37-.403.477-.403.477-1.16 0-.699-.478-1.11-.478-.41-1.294-.41h-.827v-.892h.827q.746 0 1.165-.328.42-.327.42-.913 0-.617-.39-.948-.39-.33-1.11-.33-.477 0-.988.107-.51.108-1.068.323v-1q.65-.171 1.157-.257.508-.086.9-.086 1.17 0 1.871.588.701.588.701 1.56 0 .661-.367 1.101-.368.44-1.072.623zm8.531 3.986q-.398.23-.82.346-.421.116-.861.116-1.397 0-2.184-.838-.787-.838-.787-2.32 0-1.483.787-2.32.787-.839 2.184-.839.435 0 .848.113.414.113.833.35v1.036q-.392-.35-.787-.505-.395-.156-.894-.156-.93 0-1.43.602-.499.601-.499 1.719 0 1.111.503 1.716.502.604 1.426.604.515 0 .923-.159.409-.158.758-.491zm4.61-7.831q1.283 0 1.941 1.047.658 1.048.658 3.1 0 2.051-.658 3.098-.658 1.048-1.941 1.048-1.284 0-1.94-1.048-.655-1.047-.655-3.099 0-2.051.656-3.099.655-1.047 1.939-1.047zm0 7.433q.762 0 1.136-.81.373-.812.373-2.477 0-.886-.108-1.6l-2.556 4.001q.403.886 1.155.886zm0-6.574q-.758 0-1.131.811t-.373 2.476q0 .758.102 1.418l2.503-3.99q-.409-.715-1.101-.715zm9.707 3.776v.483h-4.281v.033q-.043 1.23.47 1.767.513.537 1.447.537.473 0 .989-.15.515-.15 1.1-.457v.983q-.563.23-1.087.346-.524.116-1.012.116-1.402 0-2.192-.84-.79-.841-.79-2.318 0-1.44.774-2.3.774-.859 2.063-.859 1.149 0 1.812.78.664.778.707 1.879zm-.989-.29q-.064-.623-.454-1.077-.389-.454-1.12-.454-.714 0-1.176.473-.462.473-.505 1.063zm3.085-4.227h4.06v.913H289.1v1.971q.231-.086.465-.126.233-.04.47-.04 1.246 0 1.976.736.73.735.73 1.992 0 1.268-.765 1.998t-2.092.73q-.639 0-1.168-.085-.529-.086-.948-.258v-1.101q.494.268.994.4t1.02.132q.897 0 1.383-.473t.486-1.343q0-.86-.502-1.337-.502-.478-1.399-.478-.435 0-.849.1-.413.099-.79.297zm9.197-.118q1.283 0 1.941 1.047.658 1.048.658 3.1 0 2.051-.658 3.098-.658 1.048-1.941 1.048-1.284 0-1.94-1.048-.655-1.047-.655-3.099 0-2.051.656-3.099.655-1.047 1.939-1.047zm0 7.433q.762 0 1.136-.81.373-.812.373-2.477 0-.886-.108-1.6l-2.556 4.001q.403.886 1.155.886zm0-6.574q-.758 0-1.131.811t-.373 2.476q0 .758.102 1.418l2.503-3.99q-.409-.715-1.101-.715zm7-.859q1.283 0 1.941 1.047.658 1.048.658 3.1 0 2.051-.658 3.098-.658 1.048-1.941 1.048-1.284 0-1.94-1.048-.655-1.047-.655-3.099 0-2.051.656-3.099.655-1.047 1.939-1.047zm0 7.433q.762 0 1.136-.81.373-.812.373-2.477 0-.886-.108-1.6l-2.556 4.001q.403.886 1.155.886zm0-6.574q-.758 0-1.131.811t-.373 2.476q0 .758.102 1.418l2.503-3.99q-.409-.715-1.101-.715zm8.621 4.276q0-1.15-.365-1.735-.365-.586-1.08-.586-.719 0-1.09.588-.37.589-.37 1.733 0 1.138.37 1.73.371.59 1.09.59.715 0 1.08-.586.366-.585.366-1.734zm-2.905-2.246q.236-.44.652-.676.417-.237.965-.237 1.085 0 1.708.836.623.835.623 2.301 0 1.488-.626 2.334-.626.846-1.716.846-.537 0-.948-.234-.411-.234-.658-.68V23h-.988v-8.357h.988zm10.298-2.594v1q-.339-.2-.72-.304-.381-.105-.795-.105-1.031 0-1.563.776t-.532 2.286q.258-.538.715-.825.456-.287 1.047-.287 1.16 0 1.797.711.636.712.636 2.017 0 1.3-.655 2.014-.655.715-1.842.715-1.397 0-2.047-1.002-.65-1.002-.65-3.155 0-2.03.782-3.097.781-1.066 2.264-1.066.397 0 .795.083.397.083.768.24zm-1.934 3.39q-.693 0-1.09.499-.398.5-.398 1.38 0 .881.398 1.38.397.5 1.09.5.72 0 1.085-.475.365-.476.365-1.405 0-.934-.365-1.407t-1.085-.473zm4.723-3.567h4.06v.913H324.1v1.971q.231-.086.465-.126.233-.04.47-.04 1.246 0 1.976.736.73.735.73 1.992 0 1.268-.765 1.998t-2.092.73q-.639 0-1.168-.085-.529-.086-.948-.258v-1.101q.494.268.994.4t1.02.132q.897 0 1.383-.473t.486-1.343q0-.86-.502-1.337-.502-.478-1.399-.478-.435 0-.849.1-.413.099-.79.297zm10.056 3.727q.79.21 1.208.744.42.535.42 1.335 0 1.107-.744 1.738-.744.63-2.06.63-.554 0-1.128-.101-.575-.102-1.128-.296v-1.08q.548.285 1.08.425.531.14 1.058.14.891 0 1.37-.403.477-.403.477-1.16 0-.699-.478-1.11-.478-.41-1.294-.41h-.827v-.892h.827q.746 0 1.165-.328.42-.327.42-.913 0-.617-.39-.948-.39-.33-1.11-.33-.477 0-.988.107-.51.108-1.068.323v-1q.65-.171 1.157-.257.508-.086.9-.086 1.17 0 1.871.588.701.588.701 1.56 0 .661-.367 1.101-.368.44-1.072.623zm8.531 3.986q-.398.23-.82.346-.421.116-.861.116-1.397 0-2.184-.838-.787-.838-.787-2.32 0-1.483.787-2.32.787-.839 2.184-.839.435 0 .848.113.414.113.833.35v1.036q-.392-.35-.787-.505-.395-.156-.894-.156-.93 0-1.43.602-.499.601-.499 1.719 0 1.111.503 1.716.502.604 1.426.604.515 0 .923-.159.409-.158.758-.491zm5.071-2.718h-.327q-.865 0-1.303.304-.437.303-.437.905 0 .542.327.843.328.3.908.3.816 0 1.284-.566.467-.567.472-1.566v-.22zm1.918-.408V23h-.994v-.892q-.317.538-.797.793-.481.255-1.168.255-.919 0-1.467-.519-.548-.518-.548-1.388 0-1.004.674-1.525.675-.521 1.98-.521h1.326v-.156q-.005-.72-.365-1.045-.36-.325-1.15-.325-.504 0-1.02.145-.515.145-1.004.425v-.989q.548-.21 1.05-.314.502-.105.975-.105.746 0 1.275.22.53.22.857.661.204.269.29.664.086.394.086 1.184zm4.621-.376q-.726 0-1.12.405-.395.406-.395 1.147t.4 1.152q.4.411 1.115.411.73 0 1.125-.405.395-.406.395-1.158 0-.736-.4-1.144-.4-.408-1.12-.408zm-.946-.451q-.693-.178-1.082-.66-.39-.484-.39-1.166 0-.957.65-1.518t1.768-.561q1.122 0 1.772.561.65.561.65 1.518 0 .682-.39 1.165-.389.483-1.082.66.806.178 1.233.715.427.537.427 1.391 0 1.085-.693 1.697-.693.613-1.917.613-1.225 0-1.915-.61t-.69-1.69q0-.858.427-1.398.427-.54 1.232-.717zm-.392-1.724q0 .644.344.983.344.338.994.338.655 0 .999-.338.343-.339.343-.983 0-.656-.34-1-.342-.343-1.002-.343-.65 0-.994.346-.344.347-.344.997zm7.032 5.07h3.685V23h-4.872v-.913q1.005-1.058 1.757-1.87.752-.81 1.036-1.143.537-.656.725-1.061.188-.406.188-.83 0-.671-.394-1.053-.395-.381-1.083-.381-.488 0-1.025.177-.538.178-1.14.537v-1.095q.554-.264 1.089-.398.534-.134 1.055-.134 1.176 0 1.893.626.717.625.717 1.64 0 .516-.239 1.032-.239.515-.776 1.138-.3.35-.873.967-.572.618-1.743 1.848zm7 0h3.685V23h-4.872v-.913q1.005-1.058 1.757-1.87.752-.81 1.036-1.143.537-.656.725-1.061.188-.406.188-.83 0-.671-.394-1.053-.395-.381-1.083-.381-.488 0-1.025.177-.538.178-1.14.537v-1.095q.554-.264 1.089-.398.534-.134 1.055-.134 1.176 0 1.893.626.717.625.717 1.64 0 .516-.239 1.032-.239.515-.776 1.138-.3.35-.873.967-.572.618-1.743 1.848zm5.744-7.106h5.048v.462L373.927 23h-1.133l2.793-7.106h-3.84zm10.421 3.727q.79.21 1.208.744.42.535.42 1.335 0 1.107-.744 1.738-.744.63-2.06.63-.554 0-1.128-.101-.575-.102-1.128-.296v-1.08q.548.285 1.08.425.531.14 1.058.14.891 0 1.37-.403.477-.403.477-1.16 0-.699-.478-1.11-.478-.41-1.294-.41h-.827v-.892h.827q.746 0 1.165-.328.42-.327.42-.913 0-.617-.39-.948-.39-.33-1.11-.33-.477 0-.988.107-.51.108-1.068.323v-1q.65-.171 1.157-.257.508-.086.9-.086 1.17 0 1.871.588.701.588.701 1.56 0 .661-.367 1.101-.368.44-1.072.623zm7.762 1.29q0-1.15-.365-1.735-.365-.586-1.08-.586-.719 0-1.09.588-.37.589-.37 1.733 0 1.138.37 1.73.371.59 1.09.59.715 0 1.08-.586.366-.585.366-1.734zm-2.905-2.246q.236-.44.652-.676.417-.237.965-.237 1.085 0 1.708.836.623.835.623 2.301 0 1.488-.626 2.334-.626.846-1.716.846-.537 0-.948-.234-.411-.234-.658-.68V23h-.988v-8.357h.988zm5.722-2.771h5.048v.462L394.927 23h-1.133l2.793-7.106h-3.84zm11.183 5.017q0-1.15-.365-1.735-.365-.586-1.08-.586-.719 0-1.09.588-.37.589-.37 1.733 0 1.138.37 1.73.371.59 1.09.59.715 0 1.08-.586.366-.585.366-1.734zm-2.905-2.246q.236-.44.652-.676.417-.237.965-.237 1.085 0 1.708.836.623.835.623 2.301 0 1.488-.626 2.334-.626.846-1.716.846-.537 0-.948-.234-.411-.234-.658-.68V23h-.988v-8.357h.988zm10.685-3.109v.821h-1.123q-.532 0-.739.218-.206.217-.206.77v.532h2.067v.768h-2.067V23h-.989v-5.248h-1.606v-.768h1.606v-.419q0-.988.454-1.455.454-.467 1.415-.467zm5.06 5.333h-.327q-.865 0-1.303.304-.437.303-.437.905 0 .542.327.843.328.3.908.3.816 0 1.284-.566.467-.567.472-1.566v-.22zm1.918-.408V23h-.994v-.892q-.317.538-.797.793-.481.255-1.168.255-.919 0-1.467-.519-.548-.518-.548-1.388 0-1.004.674-1.525.675-.521 1.98-.521h1.326v-.156q-.005-.72-.365-1.045-.36-.325-1.15-.325-.504 0-1.02.145-.515.145-1.004.425v-.989q.548-.21 1.05-.314.502-.105.975-.105.746 0 1.275.22.53.22.857.661.204.269.29.664.086.394.086 1.184zm5.92-1.816v-3.11h.989V23h-.989v-.757q-.247.445-.658.68-.41.233-.948.233-1.09 0-1.716-.846-.625-.846-.625-2.334 0-1.466.628-2.301.628-.836 1.713-.836.543 0 .956.234.414.234.65.68zm-2.905 2.246q0 1.149.365 1.734.365.586 1.08.586.714 0 1.087-.59.373-.592.373-1.73 0-1.144-.373-1.733-.373-.588-1.088-.588-.714 0-1.08.586-.364.585-.364 1.735zm8.606-.806q-.726 0-1.12.405-.395.406-.395 1.147t.4 1.152q.4.411 1.115.411.73 0 1.125-.405.395-.406.395-1.158 0-.736-.4-1.144-.4-.408-1.12-.408zm-.946-.451q-.693-.178-1.082-.66-.39-.484-.39-1.166 0-.957.65-1.518t1.768-.561q1.122 0 1.772.561.65.561.65 1.518 0 .682-.39 1.165-.389.483-1.082.66.806.178 1.233.715.427.537.427 1.391 0 1.085-.693 1.697-.693.613-1.917.613-1.225 0-1.915-.61t-.69-1.69q0-.858.427-1.398.427-.54 1.232-.717zm-.392-1.724q0 .644.344.983.344.338.994.338.655 0 .999-.338.343-.339.343-.983 0-.656-.34-1-.342-.343-1.002-.343-.65 0-.994.346-.344.347-.344.997zm8.338-2.154q1.283 0 1.941 1.047.658 1.048.658 3.1 0 2.051-.658 3.098-.658 1.048-1.941 1.048-1.284 0-1.94-1.048-.655-1.047-.655-3.099 0-2.051.656-3.099.655-1.047 1.939-1.047zm0 7.433q.762 0 1.136-.81.373-.812.373-2.477 0-.886-.108-1.6l-2.556 4.001q.403.886 1.155.886zm0-6.574q-.758 0-1.131.811t-.373 2.476q0 .758.102 1.418l2.503-3.99q-.409-.715-1.101-.715zm7.639.248l-2.53 4.237h2.53zm-.177-.989h1.256v5.226h1.07v.88h-1.07V23h-1.08v-1.912h-3.4v-1.026zm4.341 0h4.06v.913H450.1v1.971q.231-.086.465-.126.233-.04.47-.04 1.246 0 1.976.736.73.735.73 1.992 0 1.268-.765 1.998t-2.092.73q-.639 0-1.168-.085-.529-.086-.948-.258v-1.101q.494.268.994.4t1.02.132q.897 0 1.383-.473t.486-1.343q0-.86-.502-1.337-.502-.478-1.399-.478-.435 0-.849.1-.413.099-.79.297zm10.496 2.771v-3.11h.989V23h-.989v-.757q-.247.445-.658.68-.41.233-.948.233-1.09 0-1.716-.846-.625-.846-.625-2.334 0-1.466.628-2.301.628-.836 1.713-.836.543 0 .956.234.414.234.65.68zm-2.905 2.246q0 1.149.365 1.734.365.586 1.08.586.714 0 1.087-.59.373-.592.373-1.73 0-1.144-.373-1.733-.373-.588-1.088-.588-.714 0-1.08.586-.364.585-.364 1.735zm8.606-.806q-.726 0-1.12.405-.395.406-.395 1.147t.4 1.152q.4.411 1.115.411.73 0 1.125-.405.395-.406.395-1.158 0-.736-.4-1.144-.4-.408-1.12-.408zm-.946-.451q-.693-.178-1.082-.66-.39-.484-.39-1.166 0-.957.65-1.518t1.768-.561q1.122 0 1.772.561.65.561.65 1.518 0 .682-.39 1.165-.389.483-1.082.66.806.178 1.233.715.427.537.427 1.391 0 1.085-.693 1.697-.693.613-1.917.613-1.225 0-1.915-.61t-.69-1.69q0-.858.427-1.398.427-.54 1.232-.717zm-.392-1.724q0 .644.344.983.344.338.994.338.655 0 .999-.338.343-.339.343-.983 0-.656-.34-1-.342-.343-1.002-.343-.65 0-.994.346-.344.347-.344.997zm6.141-2.036h4.06v.913H471.1v1.971q.231-.086.465-.126.233-.04.47-.04 1.246 0 1.976.736.73.735.73 1.992 0 1.268-.765 1.998t-2.092.73q-.639 0-1.168-.085-.529-.086-.948-.258v-1.101q.494.268.994.4t1.02.132q.897 0 1.383-.473t.486-1.343q0-.86-.502-1.337-.502-.478-1.399-.478-.435 0-.849.1-.413.099-.79.297zm9.658 4.995h-.327q-.865 0-1.303.304-.437.303-.437.905 0 .542.327.843.328.3.908.3.816 0 1.284-.566.467-.567.472-1.566v-.22zm1.918-.408V23h-.994v-.892q-.317.538-.797.793-.481.255-1.168.255-.919 0-1.467-.519-.548-.518-.548-1.388 0-1.004.674-1.525.675-.521 1.98-.521h1.326v-.156q-.005-.72-.365-1.045-.36-.325-1.15-.325-.504 0-1.02.145-.515.145-1.004.425v-.989q.548-.21 1.05-.314.502-.105.975-.105.746 0 1.275.22.53.22.857.661.204.269.29.664.086.394.086 1.184zm5.26-3.598l-2.53 4.237h2.53zm-.177-.989h1.256v5.226h1.07v.88h-1.07V23h-1.08v-1.912h-3.4v-1.026zm3.976 0h5.048v.462L492.927 23h-1.133l2.793-7.106h-3.84zm9.562-.118q1.283 0 1.941 1.047.658 1.048.658 3.1 0 2.051-.658 3.098-.658 1.048-1.941 1.048-1.284 0-1.94-1.048-.655-1.047-.655-3.099 0-2.051.656-3.099.655-1.047 1.939-1.047zm0 7.433q.762 0 1.136-.81.373-.812.373-2.477 0-.886-.108-1.6l-2.556 4.001q.403.886 1.155.886zm0-6.574q-.758 0-1.131.811t-.373 2.476q0 .758.102 1.418l2.503-3.99q-.409-.715-1.101-.715z"/></svg>