<svg xmlns="http://www.w3.org/2000/svg" version="1.1" width="113" height="157">
<path d="M 1.573730 1.980957 L 5.795410 11.020508 L 4.774902 11.020508 L 0.547852 1.980957 Z " fill="rgb(152, 204, 204)" fill-opacity="1.000000" />
<path d="M 8.573730 1.980957 L 12.795410 11.020508 L 11.774902 11.020508 L 7.547852 1.980957 Z " fill="rgb(152, 204, 204)" fill-opacity="1.000000" />
<path d="M 15.573730 1.980957 L 19.795410 11.020508 L 18.774902 11.020508 L 14.547852 1.980957 Z " fill="rgb(152, 204, 204)" fill-opacity="1.000000" />
<path d="M 22.573730 1.980957 L 26.795410 11.020508 L 25.774902 11.020508 L 21.547852 1.980957 Z " fill="rgb(152, 204, 204)" fill-opacity="1.000000" />
<path d="M 29.573730 1.980957 L 33.795410 11.020508 L 32.774902 11.020508 L 28.547852 1.980957 Z " fill="rgb(152, 204, 204)" fill-opacity="1.000000" />
<path d="M 36.573730 1.980957 L 40.795410 11.020508 L 39.774902 11.020508 L 35.547852 1.980957 Z " fill="rgb(152, 204, 204)" fill-opacity="1.000000" />
<path d="M 43.573730 1.980957 L 47.795410 11.020508 L 46.774902 11.020508 L 42.547852 1.980957 Z " fill="rgb(152, 204, 204)" fill-opacity="1.000000" />
<path d="M 50.573730 1.980957 L 54.795410 11.020508 L 53.774902 11.020508 L 49.547852 1.980957 Z " fill="rgb(152, 204, 204)" fill-opacity="1.000000" />
<path d="M 57.573730 1.980957 L 61.795410 11.020508 L 60.774902 11.020508 L 56.547852 1.980957 Z " fill="rgb(152, 204, 204)" fill-opacity="1.000000" />
<path d="M 64.573730 1.980957 L 68.795410 11.020508 L 67.774902 11.020508 L 63.547852 1.980957 Z " fill="rgb(152, 204, 204)" fill-opacity="1.000000" />
<path d="M 71.573730 1.980957 L 75.795410 11.020508 L 74.774902 11.020508 L 70.547852 1.980957 Z " fill="rgb(152, 204, 204)" fill-opacity="1.000000" />
<path d="M 78.573730 1.980957 L 82.795410 11.020508 L 81.774902 11.020508 L 77.547852 1.980957 Z " fill="rgb(152, 204, 204)" fill-opacity="1.000000" />
<path d="M 85.573730 1.980957 L 89.795410 11.020508 L 88.774902 11.020508 L 84.547852 1.980957 Z " fill="rgb(152, 204, 204)" fill-opacity="1.000000" />
<path d="M 92.573730 1.980957 L 96.795410 11.020508 L 95.774902 11.020508 L 91.547852 1.980957 Z " fill="rgb(152, 204, 204)" fill-opacity="1.000000" />
<path d="M 99.573730 1.980957 L 103.795410 11.020508 L 102.774902 11.020508 L 98.547852 1.980957 Z " fill="rgb(152, 204, 204)" fill-opacity="1.000000" />
<path d="M 1.573730 14.980957 L 5.795410 24.020508 L 4.774902 24.020508 L 0.547852 14.980957 Z " fill="rgb(152, 204, 204)" fill-opacity="1.000000" />
<path d="M 1.573730 27.980957 L 5.795410 37.020508 L 4.774902 37.020508 L 0.547852 27.980957 Z " fill="rgb(152, 204, 204)" fill-opacity="1.000000" />
<path d="M 1.573730 40.980957 L 5.795410 50.020508 L 4.774902 50.020508 L 0.547852 40.980957 Z " fill="rgb(152, 204, 204)" fill-opacity="1.000000" />
<path d="M 1.573730 53.980957 L 5.795410 63.020508 L 4.774902 63.020508 L 0.547852 53.980957 Z " fill="rgb(152, 204, 204)" fill-opacity="1.000000" />
<path d="M 1.573730 66.980957 L 5.795410 76.020508 L 4.774902 76.020508 L 0.547852 66.980957 Z " fill="rgb(152, 204, 204)" fill-opacity="1.000000" />
<path d="M 1.573730 79.980957 L 5.795410 89.020508 L 4.774902 89.020508 L 0.547852 79.980957 Z " fill="rgb(152, 204, 204)" fill-opacity="1.000000" />
<path d="M 1.573730 92.980957 L 5.795410 102.020508 L 4.774902 102.020508 L 0.547852 92.980957 Z " fill="rgb(152, 204, 204)" fill-opacity="1.000000" />
<path d="M 1.573730 105.980957 L 5.795410 115.020508 L 4.774902 115.020508 L 0.547852 105.980957 Z " fill="rgb(152, 204, 204)" fill-opacity="1.000000" />
<path d="M 1.573730 118.980957 L 5.795410 128.020508 L 4.774902 128.020508 L 0.547852 118.980957 Z " fill="rgb(152, 204, 204)" fill-opacity="1.000000" />
<path d="M 1.573730 131.980957 L 5.795410 141.020508 L 4.774902 141.020508 L 0.547852 131.980957 Z " fill="rgb(152, 204, 204)" fill-opacity="1.000000" />
<path d="M 9.878906 150.335938 L 9.878906 142.300781 L 10.738281 142.300781 L 10.738281 149.412109 L 13.729980 149.412109 L 13.729980 150.335938 Z " fill="rgb(0, 0, 0)" fill-opacity="1.000000" />
<path d="M 13.892578 150.335938 L 13.892578 149.412109 L 20.729980 149.412109 L 20.729980 150.335938 Z " fill="rgb(0, 0, 0)" fill-opacity="1.000000" />
<path d="M 20.892578 150.335938 L 20.892578 149.412109 L 27.729980 149.412109 L 27.729980 150.335938 Z " fill="rgb(0, 0, 0)" fill-opacity="1.000000" />
<path d="M 27.892578 150.335938 L 27.892578 149.412109 L 34.729980 149.412109 L 34.729980 150.335938 Z " fill="rgb(0, 0, 0)" fill-opacity="1.000000" />
<path d="M 34.892578 150.335938 L 34.892578 149.412109 L 41.729980 149.412109 L 41.729980 150.335938 Z " fill="rgb(0, 0, 0)" fill-opacity="1.000000" />
<path d="M 41.892578 150.335938 L 41.892578 149.412109 L 48.729980 149.412109 L 48.729980 150.335938 Z " fill="rgb(0, 0, 0)" fill-opacity="1.000000" />
<path d="M 48.892578 150.335938 L 48.892578 149.412109 L 55.729980 149.412109 L 55.729980 150.335938 Z " fill="rgb(0, 0, 0)" fill-opacity="1.000000" />
<path d="M 55.892578 150.335938 L 55.892578 149.412109 L 62.729980 149.412109 L 62.729980 150.335938 Z " fill="rgb(0, 0, 0)" fill-opacity="1.000000" />
<path d="M 62.892578 150.335938 L 62.892578 149.412109 L 69.729980 149.412109 L 69.729980 150.335938 Z " fill="rgb(0, 0, 0)" fill-opacity="1.000000" />
<path d="M 69.892578 150.335938 L 69.892578 149.412109 L 76.729980 149.412109 L 76.729980 150.335938 Z " fill="rgb(0, 0, 0)" fill-opacity="1.000000" />
<path d="M 76.892578 150.335938 L 76.892578 149.412109 L 83.729980 149.412109 L 83.729980 150.335938 Z " fill="rgb(0, 0, 0)" fill-opacity="1.000000" />
<path d="M 83.892578 150.335938 L 83.892578 149.412109 L 90.729980 149.412109 L 90.729980 150.335938 Z " fill="rgb(0, 0, 0)" fill-opacity="1.000000" />
<path d="M 90.892578 150.335938 L 90.892578 149.412109 L 97.729980 149.412109 L 97.729980 150.335938 Z " fill="rgb(0, 0, 0)" fill-opacity="1.000000" />
<path d="M 97.892578 150.335938 L 97.892578 149.412109 L 104.729980 149.412109 L 104.729980 150.335938 Z " fill="rgb(0, 0, 0)" fill-opacity="1.000000" />
<path d="M 104.892578 150.335938 L 104.892578 149.412109 L 107.878906 149.412109 L 107.878906 142.300781 L 108.738281 142.300781 L 108.738281 150.335938 Z " fill="rgb(0, 0, 0)" fill-opacity="1.000000" />
<path d="M 10.308594 14.862793 Q 11.592285 14.862793 12.250244 15.910156 Q 12.908203 16.957520 12.908203 19.009277 Q 12.908203 21.061035 12.250244 22.108398 Q 11.592285 23.155762 10.308594 23.155762 Q 9.024902 23.155762 8.369629 22.108398 Q 7.714355 21.061035 7.714355 19.009277 Q 7.714355 16.957520 8.369629 15.910156 Q 9.024902 14.862793 10.308594 14.862793 Z M 10.308594 22.296387 Q 11.071289 22.296387 11.444580 21.485352 Q 11.817871 20.674316 11.817871 19.009277 Q 11.817871 18.123047 11.710449 17.408691 L 9.153809 21.410156 Q 9.556641 22.296387 10.308594 22.296387 Z M 10.308594 15.722168 Q 9.551270 15.722168 9.177979 16.533203 Q 8.804688 17.344238 8.804688 19.009277 Q 8.804688 19.766602 8.906738 20.427246 L 11.409668 16.436523 Q 11.001465 15.722168 10.308594 15.722168 Z " fill="rgb(0, 0, 0)" fill-opacity="1.000000" />
<path d="M 9.878906 39.319336 L 9.878906 25.300781 L 10.738281 25.300781 L 10.738281 39.319336 Z " fill="rgb(0, 0, 0)" fill-opacity="1.000000" />
<path d="M 9.878906 52.319336 L 9.878906 38.300781 L 10.738281 38.300781 L 10.738281 52.319336 Z " fill="rgb(0, 0, 0)" fill-opacity="1.000000" />
<path d="M 9.878906 65.319336 L 9.878906 51.300781 L 10.738281 51.300781 L 10.738281 65.319336 Z " fill="rgb(0, 0, 0)" fill-opacity="1.000000" />
<path d="M 9.878906 78.319336 L 9.878906 64.300781 L 10.738281 64.300781 L 10.738281 78.319336 Z " fill="rgb(0, 0, 0)" fill-opacity="1.000000" />
<path d="M 9.878906 91.319336 L 9.878906 77.300781 L 10.738281 77.300781 L 10.738281 91.319336 Z " fill="rgb(0, 0, 0)" fill-opacity="1.000000" />
<path d="M 9.878906 104.319336 L 9.878906 90.300781 L 10.738281 90.300781 L 10.738281 104.319336 Z " fill="rgb(0, 0, 0)" fill-opacity="1.000000" />
<path d="M 9.878906 117.319336 L 9.878906 103.300781 L 10.738281 103.300781 L 10.738281 117.319336 Z " fill="rgb(0, 0, 0)" fill-opacity="1.000000" />
<path d="M 9.878906 130.319336 L 9.878906 116.300781 L 10.738281 116.300781 L 10.738281 130.319336 Z " fill="rgb(0, 0, 0)" fill-opacity="1.000000" />
<path d="M 9.878906 143.319336 L 9.878906 129.300781 L 10.738281 129.300781 L 10.738281 143.319336 Z " fill="rgb(0, 0, 0)" fill-opacity="1.000000" />
<path d="M 16.304199 29.989746 L 17.979980 29.989746 L 17.979980 31.928711 L 16.304199 31.928711 Z M 16.304199 34.044922 L 17.979980 34.044922 L 17.979980 36.000000 L 16.304199 36.000000 Z " fill="rgb(167, 211, 169)" fill-opacity="0.435294" />
<path d="M 16.304199 42.989746 L 17.979980 42.989746 L 17.979980 44.928711 L 16.304199 44.928711 Z M 16.304199 47.044922 L 17.979980 47.044922 L 17.979980 49.000000 L 16.304199 49.000000 Z " fill="rgb(167, 211, 169)" fill-opacity="0.435294" />
<path d="M 23.304199 29.989746 L 24.979980 29.989746 L 24.979980 31.928711 L 23.304199 31.928711 Z M 23.304199 34.044922 L 24.979980 34.044922 L 24.979980 36.000000 L 23.304199 36.000000 Z " fill="rgb(167, 211, 169)" fill-opacity="0.435294" />
<path d="M 23.304199 42.989746 L 24.979980 42.989746 L 24.979980 44.928711 L 23.304199 44.928711 Z M 23.304199 47.044922 L 24.979980 47.044922 L 24.979980 49.000000 L 23.304199 49.000000 Z " fill="rgb(167, 211, 169)" fill-opacity="0.435294" />
<path d="M 30.304199 29.989746 L 31.979980 29.989746 L 31.979980 31.928711 L 30.304199 31.928711 Z M 30.304199 34.044922 L 31.979980 34.044922 L 31.979980 36.000000 L 30.304199 36.000000 Z " fill="rgb(167, 211, 169)" fill-opacity="0.435294" />
<path d="M 30.304199 42.989746 L 31.979980 42.989746 L 31.979980 44.928711 L 30.304199 44.928711 Z M 30.304199 47.044922 L 31.979980 47.044922 L 31.979980 49.000000 L 30.304199 49.000000 Z " fill="rgb(167, 211, 169)" fill-opacity="0.435294" />
<path d="M 37.304199 29.989746 L 38.979980 29.989746 L 38.979980 31.928711 L 37.304199 31.928711 Z M 37.304199 34.044922 L 38.979980 34.044922 L 38.979980 36.000000 L 37.304199 36.000000 Z " fill="rgb(167, 211, 169)" fill-opacity="0.435294" />
<path d="M 37.304199 42.989746 L 38.979980 42.989746 L 38.979980 44.928711 L 37.304199 44.928711 Z M 37.304199 47.044922 L 38.979980 47.044922 L 38.979980 49.000000 L 37.304199 49.000000 Z " fill="rgb(167, 211, 169)" fill-opacity="0.435294" />
<path d="M 44.304199 29.989746 L 45.979980 29.989746 L 45.979980 31.928711 L 44.304199 31.928711 Z M 44.304199 34.044922 L 45.979980 34.044922 L 45.979980 36.000000 L 44.304199 36.000000 Z " fill="rgb(167, 211, 169)" fill-opacity="0.435294" />
<path d="M 44.304199 42.989746 L 45.979980 42.989746 L 45.979980 44.928711 L 44.304199 44.928711 Z M 44.304199 47.044922 L 45.979980 47.044922 L 45.979980 49.000000 L 44.304199 49.000000 Z " fill="rgb(167, 211, 169)" fill-opacity="0.435294" />
<path d="M 51.304199 29.989746 L 52.979980 29.989746 L 52.979980 31.928711 L 51.304199 31.928711 Z M 51.304199 34.044922 L 52.979980 34.044922 L 52.979980 36.000000 L 51.304199 36.000000 Z " fill="rgb(167, 211, 169)" fill-opacity="0.435294" />
<path d="M 51.304199 42.989746 L 52.979980 42.989746 L 52.979980 44.928711 L 51.304199 44.928711 Z M 51.304199 47.044922 L 52.979980 47.044922 L 52.979980 49.000000 L 51.304199 49.000000 Z " fill="rgb(167, 211, 169)" fill-opacity="0.435294" />
<path d="M 58.304199 29.989746 L 59.979980 29.989746 L 59.979980 31.928711 L 58.304199 31.928711 Z M 58.304199 34.044922 L 59.979980 34.044922 L 59.979980 36.000000 L 58.304199 36.000000 Z " fill="rgb(167, 211, 169)" fill-opacity="0.435294" />
<path d="M 58.304199 42.989746 L 59.979980 42.989746 L 59.979980 44.928711 L 58.304199 44.928711 Z M 58.304199 47.044922 L 59.979980 47.044922 L 59.979980 49.000000 L 58.304199 49.000000 Z " fill="rgb(167, 211, 169)" fill-opacity="0.435294" />
<path d="M 65.304199 29.989746 L 66.979980 29.989746 L 66.979980 31.928711 L 65.304199 31.928711 Z M 65.304199 34.044922 L 66.979980 34.044922 L 66.979980 36.000000 L 65.304199 36.000000 Z " fill="rgb(167, 211, 169)" fill-opacity="0.435294" />
<path d="M 65.304199 42.989746 L 66.979980 42.989746 L 66.979980 44.928711 L 65.304199 44.928711 Z M 65.304199 47.044922 L 66.979980 47.044922 L 66.979980 49.000000 L 65.304199 49.000000 Z " fill="rgb(167, 211, 169)" fill-opacity="0.435294" />
<path d="M 72.304199 29.989746 L 73.979980 29.989746 L 73.979980 31.928711 L 72.304199 31.928711 Z M 72.304199 34.044922 L 73.979980 34.044922 L 73.979980 36.000000 L 72.304199 36.000000 Z " fill="rgb(167, 211, 169)" fill-opacity="0.435294" />
<path d="M 72.304199 42.989746 L 73.979980 42.989746 L 73.979980 44.928711 L 72.304199 44.928711 Z M 72.304199 47.044922 L 73.979980 47.044922 L 73.979980 49.000000 L 72.304199 49.000000 Z " fill="rgb(167, 211, 169)" fill-opacity="0.435294" />
<path d="M 79.304199 29.989746 L 80.979980 29.989746 L 80.979980 31.928711 L 79.304199 31.928711 Z M 79.304199 34.044922 L 80.979980 34.044922 L 80.979980 36.000000 L 79.304199 36.000000 Z " fill="rgb(167, 211, 169)" fill-opacity="0.435294" />
<path d="M 79.304199 42.989746 L 80.979980 42.989746 L 80.979980 44.928711 L 79.304199 44.928711 Z M 79.304199 47.044922 L 80.979980 47.044922 L 80.979980 49.000000 L 79.304199 49.000000 Z " fill="rgb(167, 211, 169)" fill-opacity="0.435294" />
<path d="M 86.304199 29.989746 L 87.979980 29.989746 L 87.979980 31.928711 L 86.304199 31.928711 Z M 86.304199 34.044922 L 87.979980 34.044922 L 87.979980 36.000000 L 86.304199 36.000000 Z " fill="rgb(167, 211, 169)" fill-opacity="0.435294" />
<path d="M 86.304199 42.989746 L 87.979980 42.989746 L 87.979980 44.928711 L 86.304199 44.928711 Z M 86.304199 47.044922 L 87.979980 47.044922 L 87.979980 49.000000 L 86.304199 49.000000 Z " fill="rgb(167, 211, 169)" fill-opacity="0.435294" />
<path d="M 93.304199 29.989746 L 94.979980 29.989746 L 94.979980 31.928711 L 93.304199 31.928711 Z M 93.304199 34.044922 L 94.979980 34.044922 L 94.979980 36.000000 L 93.304199 36.000000 Z " fill="rgb(167, 211, 169)" fill-opacity="0.435294" />
<path d="M 93.304199 42.989746 L 94.979980 42.989746 L 94.979980 44.928711 L 93.304199 44.928711 Z M 93.304199 47.044922 L 94.979980 47.044922 L 94.979980 49.000000 L 93.304199 49.000000 Z " fill="rgb(167, 211, 169)" fill-opacity="0.435294" />
<path d="M 100.304199 29.989746 L 101.979980 29.989746 L 101.979980 31.928711 L 100.304199 31.928711 Z M 100.304199 34.044922 L 101.979980 34.044922 L 101.979980 36.000000 L 100.304199 36.000000 Z " fill="rgb(167, 211, 169)" fill-opacity="0.435294" />
<path d="M 100.304199 42.989746 L 101.979980 42.989746 L 101.979980 44.928711 L 100.304199 44.928711 Z M 100.304199 47.044922 L 101.979980 47.044922 L 101.979980 49.000000 L 100.304199 49.000000 Z " fill="rgb(167, 211, 169)" fill-opacity="0.435294" />
<path d="M 16.304199 55.989746 L 17.979980 55.989746 L 17.979980 57.928711 L 16.304199 57.928711 Z M 16.304199 60.044922 L 17.979980 60.044922 L 17.979980 62.000000 L 16.304199 62.000000 Z " fill="rgb(167, 211, 169)" fill-opacity="0.435294" />
<path d="M 16.304199 68.989746 L 17.979980 68.989746 L 17.979980 70.928711 L 16.304199 70.928711 Z M 16.304199 73.044922 L 17.979980 73.044922 L 17.979980 75.000000 L 16.304199 75.000000 Z " fill="rgb(167, 211, 169)" fill-opacity="0.435294" />
<path d="M 16.304199 81.989746 L 17.979980 81.989746 L 17.979980 83.928711 L 16.304199 83.928711 Z M 16.304199 86.044922 L 17.979980 86.044922 L 17.979980 88.000000 L 16.304199 88.000000 Z " fill="rgb(167, 211, 169)" fill-opacity="0.435294" />
<path d="M 16.304199 94.989746 L 17.979980 94.989746 L 17.979980 96.928711 L 16.304199 96.928711 Z M 16.304199 99.044922 L 17.979980 99.044922 L 17.979980 101.000000 L 16.304199 101.000000 Z " fill="rgb(167, 211, 169)" fill-opacity="0.435294" />
<path d="M 16.304199 107.989746 L 17.979980 107.989746 L 17.979980 109.928711 L 16.304199 109.928711 Z M 16.304199 112.044922 L 17.979980 112.044922 L 17.979980 114.000000 L 16.304199 114.000000 Z " fill="rgb(167, 211, 169)" fill-opacity="0.435294" />
<path d="M 16.304199 120.989746 L 17.979980 120.989746 L 17.979980 122.928711 L 16.304199 122.928711 Z M 16.304199 125.044922 L 17.979980 125.044922 L 17.979980 127.000000 L 16.304199 127.000000 Z " fill="rgb(167, 211, 169)" fill-opacity="0.435294" />
<path d="M 16.304199 133.989746 L 17.979980 133.989746 L 17.979980 135.928711 L 16.304199 135.928711 Z M 16.304199 138.044922 L 17.979980 138.044922 L 17.979980 140.000000 L 16.304199 140.000000 Z " fill="rgb(167, 211, 169)" fill-opacity="0.435294" />
<path d="M 23.304199 55.989746 L 24.979980 55.989746 L 24.979980 57.928711 L 23.304199 57.928711 Z M 23.304199 60.044922 L 24.979980 60.044922 L 24.979980 62.000000 L 23.304199 62.000000 Z " fill="rgb(167, 211, 169)" fill-opacity="0.435294" />
<path d="M 23.304199 68.989746 L 24.979980 68.989746 L 24.979980 70.928711 L 23.304199 70.928711 Z M 23.304199 73.044922 L 24.979980 73.044922 L 24.979980 75.000000 L 23.304199 75.000000 Z " fill="rgb(167, 211, 169)" fill-opacity="0.435294" />
<path d="M 23.304199 81.989746 L 24.979980 81.989746 L 24.979980 83.928711 L 23.304199 83.928711 Z M 23.304199 86.044922 L 24.979980 86.044922 L 24.979980 88.000000 L 23.304199 88.000000 Z " fill="rgb(167, 211, 169)" fill-opacity="0.435294" />
<path d="M 23.304199 94.989746 L 24.979980 94.989746 L 24.979980 96.928711 L 23.304199 96.928711 Z M 23.304199 99.044922 L 24.979980 99.044922 L 24.979980 101.000000 L 23.304199 101.000000 Z " fill="rgb(167, 211, 169)" fill-opacity="0.435294" />
<path d="M 23.304199 107.989746 L 24.979980 107.989746 L 24.979980 109.928711 L 23.304199 109.928711 Z M 23.304199 112.044922 L 24.979980 112.044922 L 24.979980 114.000000 L 23.304199 114.000000 Z " fill="rgb(167, 211, 169)" fill-opacity="0.435294" />
<path d="M 23.304199 120.989746 L 24.979980 120.989746 L 24.979980 122.928711 L 23.304199 122.928711 Z M 23.304199 125.044922 L 24.979980 125.044922 L 24.979980 127.000000 L 23.304199 127.000000 Z " fill="rgb(167, 211, 169)" fill-opacity="0.435294" />
<path d="M 23.304199 133.989746 L 24.979980 133.989746 L 24.979980 135.928711 L 23.304199 135.928711 Z M 23.304199 138.044922 L 24.979980 138.044922 L 24.979980 140.000000 L 23.304199 140.000000 Z " fill="rgb(167, 211, 169)" fill-opacity="0.435294" />
<path d="M 30.352539 61.806641 L 32.264648 61.806641 L 32.264648 56.478516 L 30.352539 56.478516 Z M 29.740234 62.418945 L 29.740234 55.866211 L 32.876953 55.866211 L 32.876953 62.418945 Z " fill="rgb(255, 153, 153)" fill-opacity="1.000000" />
<path d="M 30.304199 68.989746 L 31.979980 68.989746 L 31.979980 70.928711 L 30.304199 70.928711 Z M 30.304199 73.044922 L 31.979980 73.044922 L 31.979980 75.000000 L 30.304199 75.000000 Z " fill="rgb(167, 211, 169)" fill-opacity="0.435294" />
<path d="M 37.304199 68.989746 L 38.979980 68.989746 L 38.979980 70.928711 L 37.304199 70.928711 Z M 37.304199 73.044922 L 38.979980 73.044922 L 38.979980 75.000000 L 37.304199 75.000000 Z " fill="rgb(167, 211, 169)" fill-opacity="0.435294" />
<path d="M 44.304199 68.989746 L 45.979980 68.989746 L 45.979980 70.928711 L 44.304199 70.928711 Z M 44.304199 73.044922 L 45.979980 73.044922 L 45.979980 75.000000 L 44.304199 75.000000 Z " fill="rgb(167, 211, 169)" fill-opacity="0.435294" />
<path d="M 51.304199 68.989746 L 52.979980 68.989746 L 52.979980 70.928711 L 51.304199 70.928711 Z M 51.304199 73.044922 L 52.979980 73.044922 L 52.979980 75.000000 L 51.304199 75.000000 Z " fill="rgb(167, 211, 169)" fill-opacity="0.435294" />
<path d="M 58.304199 68.989746 L 59.979980 68.989746 L 59.979980 70.928711 L 58.304199 70.928711 Z M 58.304199 73.044922 L 59.979980 73.044922 L 59.979980 75.000000 L 58.304199 75.000000 Z " fill="rgb(167, 211, 169)" fill-opacity="0.435294" />
<path d="M 65.304199 68.989746 L 66.979980 68.989746 L 66.979980 70.928711 L 65.304199 70.928711 Z M 65.304199 73.044922 L 66.979980 73.044922 L 66.979980 75.000000 L 65.304199 75.000000 Z " fill="rgb(167, 211, 169)" fill-opacity="0.435294" />
<path d="M 72.304199 68.989746 L 73.979980 68.989746 L 73.979980 70.928711 L 72.304199 70.928711 Z M 72.304199 73.044922 L 73.979980 73.044922 L 73.979980 75.000000 L 72.304199 75.000000 Z " fill="rgb(167, 211, 169)" fill-opacity="0.435294" />
<path d="M 79.304199 68.989746 L 80.979980 68.989746 L 80.979980 70.928711 L 79.304199 70.928711 Z M 79.304199 73.044922 L 80.979980 73.044922 L 80.979980 75.000000 L 79.304199 75.000000 Z " fill="rgb(167, 211, 169)" fill-opacity="0.435294" />
<path d="M 86.304199 68.989746 L 87.979980 68.989746 L 87.979980 70.928711 L 86.304199 70.928711 Z M 86.304199 73.044922 L 87.979980 73.044922 L 87.979980 75.000000 L 86.304199 75.000000 Z " fill="rgb(167, 211, 169)" fill-opacity="0.435294" />
<path d="M 93.304199 68.989746 L 94.979980 68.989746 L 94.979980 70.928711 L 93.304199 70.928711 Z M 93.304199 73.044922 L 94.979980 73.044922 L 94.979980 75.000000 L 93.304199 75.000000 Z " fill="rgb(167, 211, 169)" fill-opacity="0.435294" />
<path d="M 100.304199 68.989746 L 101.979980 68.989746 L 101.979980 70.928711 L 100.304199 70.928711 Z M 100.304199 73.044922 L 101.979980 73.044922 L 101.979980 75.000000 L 100.304199 75.000000 Z " fill="rgb(167, 211, 169)" fill-opacity="0.435294" />
<path d="M 30.304199 81.989746 L 31.979980 81.989746 L 31.979980 83.928711 L 30.304199 83.928711 Z M 30.304199 86.044922 L 31.979980 86.044922 L 31.979980 88.000000 L 30.304199 88.000000 Z " fill="rgb(167, 211, 169)" fill-opacity="0.435294" />
<path d="M 37.304199 81.989746 L 38.979980 81.989746 L 38.979980 83.928711 L 37.304199 83.928711 Z M 37.304199 86.044922 L 38.979980 86.044922 L 38.979980 88.000000 L 37.304199 88.000000 Z " fill="rgb(167, 211, 169)" fill-opacity="0.435294" />
<path d="M 44.304199 81.989746 L 45.979980 81.989746 L 45.979980 83.928711 L 44.304199 83.928711 Z M 44.304199 86.044922 L 45.979980 86.044922 L 45.979980 88.000000 L 44.304199 88.000000 Z " fill="rgb(167, 211, 169)" fill-opacity="0.435294" />
<path d="M 51.304199 81.989746 L 52.979980 81.989746 L 52.979980 83.928711 L 51.304199 83.928711 Z M 51.304199 86.044922 L 52.979980 86.044922 L 52.979980 88.000000 L 51.304199 88.000000 Z " fill="rgb(167, 211, 169)" fill-opacity="0.435294" />
<path d="M 30.304199 94.989746 L 31.979980 94.989746 L 31.979980 96.928711 L 30.304199 96.928711 Z M 30.304199 99.044922 L 31.979980 99.044922 L 31.979980 101.000000 L 30.304199 101.000000 Z " fill="rgb(167, 211, 169)" fill-opacity="0.435294" />
<path d="M 30.304199 107.989746 L 31.979980 107.989746 L 31.979980 109.928711 L 30.304199 109.928711 Z M 30.304199 112.044922 L 31.979980 112.044922 L 31.979980 114.000000 L 30.304199 114.000000 Z " fill="rgb(167, 211, 169)" fill-opacity="0.435294" />
<path d="M 30.304199 120.989746 L 31.979980 120.989746 L 31.979980 122.928711 L 30.304199 122.928711 Z M 30.304199 125.044922 L 31.979980 125.044922 L 31.979980 127.000000 L 30.304199 127.000000 Z " fill="rgb(167, 211, 169)" fill-opacity="0.435294" />
<path d="M 30.304199 133.989746 L 31.979980 133.989746 L 31.979980 135.928711 L 30.304199 135.928711 Z M 30.304199 138.044922 L 31.979980 138.044922 L 31.979980 140.000000 L 30.304199 140.000000 Z " fill="rgb(167, 211, 169)" fill-opacity="0.435294" />
<path d="M 37.352539 100.806641 L 39.264648 100.806641 L 39.264648 95.478516 L 37.352539 95.478516 Z M 36.740234 101.418945 L 36.740234 94.866211 L 39.876953 94.866211 L 39.876953 101.418945 Z " fill="rgb(255, 153, 153)" fill-opacity="1.000000" />
<path d="M 37.304199 107.989746 L 38.979980 107.989746 L 38.979980 109.928711 L 37.304199 109.928711 Z M 37.304199 112.044922 L 38.979980 112.044922 L 38.979980 114.000000 L 37.304199 114.000000 Z " fill="rgb(167, 211, 169)" fill-opacity="0.435294" />
<path d="M 44.304199 107.989746 L 45.979980 107.989746 L 45.979980 109.928711 L 44.304199 109.928711 Z M 44.304199 112.044922 L 45.979980 112.044922 L 45.979980 114.000000 L 44.304199 114.000000 Z " fill="rgb(167, 211, 169)" fill-opacity="0.435294" />
<path d="M 51.304199 107.989746 L 52.979980 107.989746 L 52.979980 109.928711 L 51.304199 109.928711 Z M 51.304199 112.044922 L 52.979980 112.044922 L 52.979980 114.000000 L 51.304199 114.000000 Z " fill="rgb(167, 211, 169)" fill-opacity="0.435294" />
<path d="M 58.304199 107.989746 L 59.979980 107.989746 L 59.979980 109.928711 L 58.304199 109.928711 Z M 58.304199 112.044922 L 59.979980 112.044922 L 59.979980 114.000000 L 58.304199 114.000000 Z " fill="rgb(167, 211, 169)" fill-opacity="0.435294" />
<path d="M 65.304199 107.989746 L 66.979980 107.989746 L 66.979980 109.928711 L 65.304199 109.928711 Z M 65.304199 112.044922 L 66.979980 112.044922 L 66.979980 114.000000 L 65.304199 114.000000 Z " fill="rgb(167, 211, 169)" fill-opacity="0.435294" />
<path d="M 72.304199 107.989746 L 73.979980 107.989746 L 73.979980 109.928711 L 72.304199 109.928711 Z M 72.304199 112.044922 L 73.979980 112.044922 L 73.979980 114.000000 L 72.304199 114.000000 Z " fill="rgb(167, 211, 169)" fill-opacity="0.435294" />
<path d="M 79.304199 107.989746 L 80.979980 107.989746 L 80.979980 109.928711 L 79.304199 109.928711 Z M 79.304199 112.044922 L 80.979980 112.044922 L 80.979980 114.000000 L 79.304199 114.000000 Z " fill="rgb(167, 211, 169)" fill-opacity="0.435294" />
<path d="M 86.304199 107.989746 L 87.979980 107.989746 L 87.979980 109.928711 L 86.304199 109.928711 Z M 86.304199 112.044922 L 87.979980 112.044922 L 87.979980 114.000000 L 86.304199 114.000000 Z " fill="rgb(167, 211, 169)" fill-opacity="0.435294" />
<path d="M 93.304199 107.989746 L 94.979980 107.989746 L 94.979980 109.928711 L 93.304199 109.928711 Z M 93.304199 112.044922 L 94.979980 112.044922 L 94.979980 114.000000 L 93.304199 114.000000 Z " fill="rgb(167, 211, 169)" fill-opacity="0.435294" />
<path d="M 100.304199 107.989746 L 101.979980 107.989746 L 101.979980 109.928711 L 100.304199 109.928711 Z M 100.304199 112.044922 L 101.979980 112.044922 L 101.979980 114.000000 L 100.304199 114.000000 Z " fill="rgb(167, 211, 169)" fill-opacity="0.435294" />
<path d="M 37.304199 120.989746 L 38.979980 120.989746 L 38.979980 122.928711 L 37.304199 122.928711 Z M 37.304199 125.044922 L 38.979980 125.044922 L 38.979980 127.000000 L 37.304199 127.000000 Z " fill="rgb(167, 211, 169)" fill-opacity="0.435294" />
<path d="M 37.304199 133.989746 L 38.979980 133.989746 L 38.979980 135.928711 L 37.304199 135.928711 Z M 37.304199 138.044922 L 38.979980 138.044922 L 38.979980 140.000000 L 37.304199 140.000000 Z " fill="rgb(167, 211, 169)" fill-opacity="0.435294" />
<path d="M 44.304199 120.989746 L 45.979980 120.989746 L 45.979980 122.928711 L 44.304199 122.928711 Z M 44.304199 125.044922 L 45.979980 125.044922 L 45.979980 127.000000 L 44.304199 127.000000 Z " fill="rgb(167, 211, 169)" fill-opacity="0.435294" />
<path d="M 44.304199 133.989746 L 45.979980 133.989746 L 45.979980 135.928711 L 44.304199 135.928711 Z M 44.304199 138.044922 L 45.979980 138.044922 L 45.979980 140.000000 L 44.304199 140.000000 Z " fill="rgb(167, 211, 169)" fill-opacity="0.435294" />
<path d="M 51.304199 120.989746 L 52.979980 120.989746 L 52.979980 122.928711 L 51.304199 122.928711 Z M 51.304199 125.044922 L 52.979980 125.044922 L 52.979980 127.000000 L 51.304199 127.000000 Z " fill="rgb(167, 211, 169)" fill-opacity="0.435294" />
<path d="M 51.304199 133.989746 L 52.979980 133.989746 L 52.979980 135.928711 L 51.304199 135.928711 Z M 51.304199 138.044922 L 52.979980 138.044922 L 52.979980 140.000000 L 51.304199 140.000000 Z " fill="rgb(167, 211, 169)" fill-opacity="0.435294" />
<path d="M 58.304199 120.989746 L 59.979980 120.989746 L 59.979980 122.928711 L 58.304199 122.928711 Z M 58.304199 125.044922 L 59.979980 125.044922 L 59.979980 127.000000 L 58.304199 127.000000 Z " fill="rgb(167, 211, 169)" fill-opacity="0.435294" />
<path d="M 58.304199 133.989746 L 59.979980 133.989746 L 59.979980 135.928711 L 58.304199 135.928711 Z M 58.304199 138.044922 L 59.979980 138.044922 L 59.979980 140.000000 L 58.304199 140.000000 Z " fill="rgb(167, 211, 169)" fill-opacity="0.435294" />
<path d="M 65.304199 120.989746 L 66.979980 120.989746 L 66.979980 122.928711 L 65.304199 122.928711 Z M 65.304199 125.044922 L 66.979980 125.044922 L 66.979980 127.000000 L 65.304199 127.000000 Z " fill="rgb(167, 211, 169)" fill-opacity="0.435294" />
<path d="M 65.304199 133.989746 L 66.979980 133.989746 L 66.979980 135.928711 L 65.304199 135.928711 Z M 65.304199 138.044922 L 66.979980 138.044922 L 66.979980 140.000000 L 65.304199 140.000000 Z " fill="rgb(167, 211, 169)" fill-opacity="0.435294" />
<path d="M 72.304199 120.989746 L 73.979980 120.989746 L 73.979980 122.928711 L 72.304199 122.928711 Z M 72.304199 125.044922 L 73.979980 125.044922 L 73.979980 127.000000 L 72.304199 127.000000 Z " fill="rgb(167, 211, 169)" fill-opacity="0.435294" />
<path d="M 72.304199 133.989746 L 73.979980 133.989746 L 73.979980 135.928711 L 72.304199 135.928711 Z M 72.304199 138.044922 L 73.979980 138.044922 L 73.979980 140.000000 L 72.304199 140.000000 Z " fill="rgb(167, 211, 169)" fill-opacity="0.435294" />
<path d="M 79.304199 120.989746 L 80.979980 120.989746 L 80.979980 122.928711 L 79.304199 122.928711 Z M 79.304199 125.044922 L 80.979980 125.044922 L 80.979980 127.000000 L 79.304199 127.000000 Z " fill="rgb(167, 211, 169)" fill-opacity="0.435294" />
<path d="M 79.304199 133.989746 L 80.979980 133.989746 L 80.979980 135.928711 L 79.304199 135.928711 Z M 79.304199 138.044922 L 80.979980 138.044922 L 80.979980 140.000000 L 79.304199 140.000000 Z " fill="rgb(167, 211, 169)" fill-opacity="0.435294" />
<path d="M 86.352539 126.806641 L 88.264648 126.806641 L 88.264648 121.478516 L 86.352539 121.478516 Z M 85.740234 127.418945 L 85.740234 120.866211 L 88.876953 120.866211 L 88.876953 127.418945 Z " fill="rgb(255, 153, 153)" fill-opacity="1.000000" />
<path d="M 86.304199 133.989746 L 87.979980 133.989746 L 87.979980 135.928711 L 86.304199 135.928711 Z M 86.304199 138.044922 L 87.979980 138.044922 L 87.979980 140.000000 L 86.304199 140.000000 Z " fill="rgb(167, 211, 169)" fill-opacity="0.435294" />
<path d="M 93.304199 133.989746 L 94.979980 133.989746 L 94.979980 135.928711 L 93.304199 135.928711 Z M 93.304199 138.044922 L 94.979980 138.044922 L 94.979980 140.000000 L 93.304199 140.000000 Z " fill="rgb(167, 211, 169)" fill-opacity="0.435294" />
<path d="M 100.304199 133.989746 L 101.979980 133.989746 L 101.979980 135.928711 L 100.304199 135.928711 Z M 100.304199 138.044922 L 101.979980 138.044922 L 101.979980 140.000000 L 100.304199 140.000000 Z " fill="rgb(167, 211, 169)" fill-opacity="0.435294" />
<path d="M 107.878906 143.319336 L 107.878906 129.300781 L 108.738281 129.300781 L 108.738281 143.319336 Z " fill="rgb(0, 0, 0)" fill-opacity="1.000000" />
<path d="M 93.304199 120.989746 L 94.979980 120.989746 L 94.979980 122.928711 L 93.304199 122.928711 Z M 93.304199 125.044922 L 94.979980 125.044922 L 94.979980 127.000000 L 93.304199 127.000000 Z " fill="rgb(167, 211, 169)" fill-opacity="0.435294" />
<path d="M 100.304199 120.989746 L 101.979980 120.989746 L 101.979980 122.928711 L 100.304199 122.928711 Z M 100.304199 125.044922 L 101.979980 125.044922 L 101.979980 127.000000 L 100.304199 127.000000 Z " fill="rgb(167, 211, 169)" fill-opacity="0.435294" />
<path d="M 107.878906 130.319336 L 107.878906 116.300781 L 108.738281 116.300781 L 108.738281 130.319336 Z " fill="rgb(0, 0, 0)" fill-opacity="1.000000" />
<path d="M 107.878906 117.319336 L 107.878906 103.300781 L 108.738281 103.300781 L 108.738281 117.319336 Z " fill="rgb(0, 0, 0)" fill-opacity="1.000000" />
<path d="M 44.304199 94.989746 L 45.979980 94.989746 L 45.979980 96.928711 L 44.304199 96.928711 Z M 44.304199 99.044922 L 45.979980 99.044922 L 45.979980 101.000000 L 44.304199 101.000000 Z " fill="rgb(167, 211, 169)" fill-opacity="0.435294" />
<path d="M 51.304199 94.989746 L 52.979980 94.989746 L 52.979980 96.928711 L 51.304199 96.928711 Z M 51.304199 99.044922 L 52.979980 99.044922 L 52.979980 101.000000 L 51.304199 101.000000 Z " fill="rgb(167, 211, 169)" fill-opacity="0.435294" />
<path d="M 58.304199 94.989746 L 59.979980 94.989746 L 59.979980 96.928711 L 58.304199 96.928711 Z M 58.304199 99.044922 L 59.979980 99.044922 L 59.979980 101.000000 L 58.304199 101.000000 Z " fill="rgb(167, 211, 169)" fill-opacity="0.435294" />
<path d="M 65.304199 94.989746 L 66.979980 94.989746 L 66.979980 96.928711 L 65.304199 96.928711 Z M 65.304199 99.044922 L 66.979980 99.044922 L 66.979980 101.000000 L 65.304199 101.000000 Z " fill="rgb(167, 211, 169)" fill-opacity="0.435294" />
<path d="M 72.304199 94.989746 L 73.979980 94.989746 L 73.979980 96.928711 L 72.304199 96.928711 Z M 72.304199 99.044922 L 73.979980 99.044922 L 73.979980 101.000000 L 72.304199 101.000000 Z " fill="rgb(167, 211, 169)" fill-opacity="0.435294" />
<path d="M 79.304199 94.989746 L 80.979980 94.989746 L 80.979980 96.928711 L 79.304199 96.928711 Z M 79.304199 99.044922 L 80.979980 99.044922 L 80.979980 101.000000 L 79.304199 101.000000 Z " fill="rgb(167, 211, 169)" fill-opacity="0.435294" />
<path d="M 86.304199 94.989746 L 87.979980 94.989746 L 87.979980 96.928711 L 86.304199 96.928711 Z M 86.304199 99.044922 L 87.979980 99.044922 L 87.979980 101.000000 L 86.304199 101.000000 Z " fill="rgb(167, 211, 169)" fill-opacity="0.435294" />
<path d="M 93.304199 94.989746 L 94.979980 94.989746 L 94.979980 96.928711 L 93.304199 96.928711 Z M 93.304199 99.044922 L 94.979980 99.044922 L 94.979980 101.000000 L 93.304199 101.000000 Z " fill="rgb(167, 211, 169)" fill-opacity="0.435294" />
<path d="M 100.304199 94.989746 L 101.979980 94.989746 L 101.979980 96.928711 L 100.304199 96.928711 Z M 100.304199 99.044922 L 101.979980 99.044922 L 101.979980 101.000000 L 100.304199 101.000000 Z " fill="rgb(167, 211, 169)" fill-opacity="0.435294" />
<path d="M 107.878906 104.319336 L 107.878906 90.300781 L 108.738281 90.300781 L 108.738281 104.319336 Z " fill="rgb(0, 0, 0)" fill-opacity="1.000000" />
<path d="M 58.352539 87.806641 L 60.264648 87.806641 L 60.264648 82.478516 L 58.352539 82.478516 Z M 57.740234 88.418945 L 57.740234 81.866211 L 60.876953 81.866211 L 60.876953 88.418945 Z " fill="rgb(255, 153, 153)" fill-opacity="1.000000" />
<path d="M 65.304199 81.989746 L 66.979980 81.989746 L 66.979980 83.928711 L 65.304199 83.928711 Z M 65.304199 86.044922 L 66.979980 86.044922 L 66.979980 88.000000 L 65.304199 88.000000 Z " fill="rgb(167, 211, 169)" fill-opacity="0.435294" />
<path d="M 72.304199 81.989746 L 73.979980 81.989746 L 73.979980 83.928711 L 72.304199 83.928711 Z M 72.304199 86.044922 L 73.979980 86.044922 L 73.979980 88.000000 L 72.304199 88.000000 Z " fill="rgb(167, 211, 169)" fill-opacity="0.435294" />
<path d="M 79.304199 81.989746 L 80.979980 81.989746 L 80.979980 83.928711 L 79.304199 83.928711 Z M 79.304199 86.044922 L 80.979980 86.044922 L 80.979980 88.000000 L 79.304199 88.000000 Z " fill="rgb(167, 211, 169)" fill-opacity="0.435294" />
<path d="M 86.304199 81.989746 L 87.979980 81.989746 L 87.979980 83.928711 L 86.304199 83.928711 Z M 86.304199 86.044922 L 87.979980 86.044922 L 87.979980 88.000000 L 86.304199 88.000000 Z " fill="rgb(167, 211, 169)" fill-opacity="0.435294" />
<path d="M 93.304199 81.989746 L 94.979980 81.989746 L 94.979980 83.928711 L 93.304199 83.928711 Z M 93.304199 86.044922 L 94.979980 86.044922 L 94.979980 88.000000 L 93.304199 88.000000 Z " fill="rgb(167, 211, 169)" fill-opacity="0.435294" />
<path d="M 100.304199 81.989746 L 101.979980 81.989746 L 101.979980 83.928711 L 100.304199 83.928711 Z M 100.304199 86.044922 L 101.979980 86.044922 L 101.979980 88.000000 L 100.304199 88.000000 Z " fill="rgb(167, 211, 169)" fill-opacity="0.435294" />
<path d="M 107.878906 91.319336 L 107.878906 77.300781 L 108.738281 77.300781 L 108.738281 91.319336 Z " fill="rgb(0, 0, 0)" fill-opacity="1.000000" />
<path d="M 107.878906 78.319336 L 107.878906 64.300781 L 108.738281 64.300781 L 108.738281 78.319336 Z " fill="rgb(0, 0, 0)" fill-opacity="1.000000" />
<path d="M 37.304199 55.989746 L 38.979980 55.989746 L 38.979980 57.928711 L 37.304199 57.928711 Z M 37.304199 60.044922 L 38.979980 60.044922 L 38.979980 62.000000 L 37.304199 62.000000 Z " fill="rgb(167, 211, 169)" fill-opacity="0.435294" />
<path d="M 44.304199 55.989746 L 45.979980 55.989746 L 45.979980 57.928711 L 44.304199 57.928711 Z M 44.304199 60.044922 L 45.979980 60.044922 L 45.979980 62.000000 L 44.304199 62.000000 Z " fill="rgb(167, 211, 169)" fill-opacity="0.435294" />
<path d="M 51.304199 55.989746 L 52.979980 55.989746 L 52.979980 57.928711 L 51.304199 57.928711 Z M 51.304199 60.044922 L 52.979980 60.044922 L 52.979980 62.000000 L 51.304199 62.000000 Z " fill="rgb(167, 211, 169)" fill-opacity="0.435294" />
<path d="M 58.304199 55.989746 L 59.979980 55.989746 L 59.979980 57.928711 L 58.304199 57.928711 Z M 58.304199 60.044922 L 59.979980 60.044922 L 59.979980 62.000000 L 58.304199 62.000000 Z " fill="rgb(167, 211, 169)" fill-opacity="0.435294" />
<path d="M 65.304199 55.989746 L 66.979980 55.989746 L 66.979980 57.928711 L 65.304199 57.928711 Z M 65.304199 60.044922 L 66.979980 60.044922 L 66.979980 62.000000 L 65.304199 62.000000 Z " fill="rgb(167, 211, 169)" fill-opacity="0.435294" />
<path d="M 72.304199 55.989746 L 73.979980 55.989746 L 73.979980 57.928711 L 72.304199 57.928711 Z M 72.304199 60.044922 L 73.979980 60.044922 L 73.979980 62.000000 L 72.304199 62.000000 Z " fill="rgb(167, 211, 169)" fill-opacity="0.435294" />
<path d="M 79.304199 55.989746 L 80.979980 55.989746 L 80.979980 57.928711 L 79.304199 57.928711 Z M 79.304199 60.044922 L 80.979980 60.044922 L 80.979980 62.000000 L 79.304199 62.000000 Z " fill="rgb(167, 211, 169)" fill-opacity="0.435294" />
<path d="M 86.304199 55.989746 L 87.979980 55.989746 L 87.979980 57.928711 L 86.304199 57.928711 Z M 86.304199 60.044922 L 87.979980 60.044922 L 87.979980 62.000000 L 86.304199 62.000000 Z " fill="rgb(167, 211, 169)" fill-opacity="0.435294" />
<path d="M 93.304199 55.989746 L 94.979980 55.989746 L 94.979980 57.928711 L 93.304199 57.928711 Z M 93.304199 60.044922 L 94.979980 60.044922 L 94.979980 62.000000 L 93.304199 62.000000 Z " fill="rgb(167, 211, 169)" fill-opacity="0.435294" />
<path d="M 100.304199 55.989746 L 101.979980 55.989746 L 101.979980 57.928711 L 100.304199 57.928711 Z M 100.304199 60.044922 L 101.979980 60.044922 L 101.979980 62.000000 L 100.304199 62.000000 Z " fill="rgb(167, 211, 169)" fill-opacity="0.435294" />
<path d="M 107.878906 65.319336 L 107.878906 51.300781 L 108.738281 51.300781 L 108.738281 65.319336 Z " fill="rgb(0, 0, 0)" fill-opacity="1.000000" />
<path d="M 107.878906 39.319336 L 107.878906 25.300781 L 108.738281 25.300781 L 108.738281 39.319336 Z " fill="rgb(0, 0, 0)" fill-opacity="1.000000" />
<path d="M 107.878906 52.319336 L 107.878906 38.300781 L 108.738281 38.300781 L 108.738281 52.319336 Z " fill="rgb(0, 0, 0)" fill-opacity="1.000000" />
<path d="M 20.004883 16.984375 L 17.851074 19.863281 L 20.214355 23.000000 L 19.070312 23.000000 L 17.308594 20.588379 L 15.552246 23.000000 L 14.408203 23.000000 L 16.771484 19.863281 L 14.617676 16.984375 L 15.713379 16.984375 L 17.308594 19.159668 L 18.893066 16.984375 Z " fill="rgb(0, 0, 0)" fill-opacity="1.000000" />
<path d="M 23.003418 22.086914 L 26.687988 22.086914 L 26.687988 23.000000 L 21.816406 23.000000 L 21.816406 22.086914 Q 22.820801 21.028809 23.572754 20.217773 Q 24.324707 19.406738 24.609375 19.073730 Q 25.146484 18.418457 25.334473 18.012939 Q 25.522461 17.607422 25.522461 17.183105 Q 25.522461 16.511719 25.127686 16.130371 Q 24.732910 15.749023 24.045410 15.749023 Q 23.556641 15.749023 23.019531 15.926270 Q 22.482422 16.103516 21.880859 16.463379 L 21.880859 15.367676 Q 22.434082 15.104492 22.968506 14.970215 Q 23.502930 14.835938 24.023926 14.835938 Q 25.200195 14.835938 25.917236 15.461670 Q 26.634277 16.087402 26.634277 17.102539 Q 26.634277 17.618164 26.395264 18.133789 Q 26.156250 18.649414 25.619141 19.272461 Q 25.318359 19.621582 24.746338 20.239258 Q 24.174316 20.856934 23.003418 22.086914 Z " fill="rgb(0, 0, 0)" fill-opacity="1.000000" />
<path d="M 32.167969 18.708496 Q 32.957520 18.917969 33.376465 19.452393 Q 33.795410 19.986816 33.795410 20.787109 Q 33.795410 21.893555 33.051514 22.524658 Q 32.307617 23.155762 30.991699 23.155762 Q 30.438477 23.155762 29.863770 23.053711 Q 29.289062 22.951660 28.735840 22.758301 L 28.735840 21.678711 Q 29.283691 21.963379 29.815430 22.103027 Q 30.347168 22.242676 30.873535 22.242676 Q 31.765137 22.242676 32.243164 21.839844 Q 32.721191 21.437012 32.721191 20.679688 Q 32.721191 19.981445 32.243164 19.570557 Q 31.765137 19.159668 30.948730 19.159668 L 30.121582 19.159668 L 30.121582 18.268066 L 30.948730 18.268066 Q 31.695312 18.268066 32.114258 17.940430 Q 32.533203 17.612793 32.533203 17.027344 Q 32.533203 16.409668 32.143799 16.079346 Q 31.754395 15.749023 31.034668 15.749023 Q 30.556641 15.749023 30.046387 15.856445 Q 29.536133 15.963867 28.977539 16.178711 L 28.977539 15.179688 Q 29.627441 15.007812 30.135010 14.921875 Q 30.642578 14.835938 31.034668 14.835938 Q 32.205566 14.835938 32.906494 15.424072 Q 33.607422 16.012207 33.607422 16.984375 Q 33.607422 17.645020 33.239502 18.085449 Q 32.871582 18.525879 32.167969 18.708496 Z " fill="rgb(0, 0, 0)" fill-opacity="1.000000" />
<path d="M 34.892578 20.335938 L 34.892578 19.412109 L 41.729980 19.412109 L 41.729980 20.335938 Z " fill="rgb(0, 0, 0)" fill-opacity="1.000000" />
<path d="M 41.892578 20.335938 L 41.892578 19.412109 L 48.729980 19.412109 L 48.729980 20.335938 Z " fill="rgb(0, 0, 0)" fill-opacity="1.000000" />
<path d="M 48.892578 20.335938 L 48.892578 19.412109 L 55.729980 19.412109 L 55.729980 20.335938 Z " fill="rgb(0, 0, 0)" fill-opacity="1.000000" />
<path d="M 55.892578 20.335938 L 55.892578 19.412109 L 62.729980 19.412109 L 62.729980 20.335938 Z " fill="rgb(0, 0, 0)" fill-opacity="1.000000" />
<path d="M 62.892578 20.335938 L 62.892578 19.412109 L 69.729980 19.412109 L 69.729980 20.335938 Z " fill="rgb(0, 0, 0)" fill-opacity="1.000000" />
<path d="M 69.892578 20.335938 L 69.892578 19.412109 L 76.729980 19.412109 L 76.729980 20.335938 Z " fill="rgb(0, 0, 0)" fill-opacity="1.000000" />
<path d="M 76.892578 20.335938 L 76.892578 19.412109 L 83.729980 19.412109 L 83.729980 20.335938 Z " fill="rgb(0, 0, 0)" fill-opacity="1.000000" />
<path d="M 83.892578 20.335938 L 83.892578 19.412109 L 90.729980 19.412109 L 90.729980 20.335938 Z " fill="rgb(0, 0, 0)" fill-opacity="1.000000" />
<path d="M 90.892578 20.335938 L 90.892578 19.412109 L 97.729980 19.412109 L 97.729980 20.335938 Z " fill="rgb(0, 0, 0)" fill-opacity="1.000000" />
<path d="M 97.892578 20.335938 L 97.892578 19.412109 L 104.729980 19.412109 L 104.729980 20.335938 Z " fill="rgb(0, 0, 0)" fill-opacity="1.000000" />
<path d="M 107.878906 26.319336 L 107.878906 20.335938 L 104.892578 20.335938 L 104.892578 19.412109 L 108.738281 19.412109 L 108.738281 26.319336 Z " fill="rgb(0, 0, 0)" fill-opacity="1.000000" />
</svg>