<svg xmlns="http://www.w3.org/2000/svg" width="113" height="157"><path d="M1.574 1.981l4.221 9.04h-1.02L.548 1.98zm7 0l4.221 9.04h-1.02L7.548 1.98zm7 0l4.221 9.04h-1.02l-4.227-9.04zm7 0l4.221 9.04h-1.02l-4.227-9.04zm7 0l4.221 9.04h-1.02l-4.227-9.04zm7 0l4.221 9.04h-1.02l-4.227-9.04zm7 0l4.221 9.04h-1.02l-4.227-9.04zm7 0l4.221 9.04h-1.02l-4.227-9.04zm7 0l4.221 9.04h-1.02l-4.227-9.04zm7 0l4.221 9.04h-1.02l-4.227-9.04zm7 0l4.221 9.04h-1.02l-4.227-9.04zm7 0l4.221 9.04h-1.02l-4.227-9.04zm7 0l4.221 9.04h-1.02l-4.227-9.04zm7 0l4.221 9.04h-1.02l-4.227-9.04zm7 0l4.221 9.04h-1.02l-4.227-9.04zm-98 13l4.221 9.04h-1.02L.548 14.98zm0 13l4.221 9.04h-1.02L.548 27.98zm0 13l4.221 9.04h-1.02L.548 40.98zm0 13l4.221 9.04h-1.02L.548 53.98zm0 13l4.221 9.04h-1.02L.548 66.98zm0 13l4.221 9.04h-1.02L.548 79.98zm0 13l4.221 9.04h-1.02L.548 92.98zm0 13l4.221 9.04h-1.02l-4.227-9.04zm0 13l4.221 9.04h-1.02l-4.227-9.04zm0 13l4.221 9.04h-1.02l-4.227-9.04z" fill="#98CCCC"/><path d="M9.879 150.336V142.3h.86v7.111h2.991v.924zm4.014 0v-.924h6.837v.924zm7 0v-.924h6.837v.924zm7 0v-.924h6.837v.924zm7 0v-.924h6.837v.924zm7 0v-.924h6.837v.924zm7 0v-.924h6.837v.924zm7 0v-.924h6.837v.924zm7 0v-.924h6.837v.924zm7 0v-.924h6.837v.924zm7 0v-.924h6.837v.924zm7 0v-.924h6.837v.924zm7 0v-.924h6.837v.924zm7 0v-.924h6.837v.924zm7 0v-.924h2.986v-7.111h.86v8.035zM10.309 14.863q1.283 0 1.941 1.047.658 1.048.658 3.1 0 2.051-.658 3.098-.658 1.048-1.941 1.048-1.284 0-1.94-1.048-.655-1.047-.655-3.099 0-2.051.656-3.099.655-1.047 1.939-1.047zm0 7.433q.762 0 1.136-.81.373-.812.373-2.477 0-.886-.108-1.6L9.154 21.41q.403.886 1.155.886zm0-6.574q-.758 0-1.131.811t-.373 2.476q0 .758.102 1.418l2.503-3.99q-.409-.715-1.101-.715zm-.43 23.598V25.3h.86v14.02z"/><path d="M9.879 52.32V38.3h.86v14.02z"/><path d="M9.879 65.32V51.3h.86v14.02z"/><path d="M9.879 78.32V64.3h.86v14.02z"/><path d="M9.879 91.32V77.3h.86v14.02z"/><path d="M9.879 104.32V90.3h.86v14.02z"/><path d="M9.879 117.32V103.3h.86v14.02z"/><path d="M9.879 130.32V116.3h.86v14.02z"/><path d="M9.879 143.32V129.3h.86v14.02z"/><path d="M16.304 29.99h1.676v1.939h-1.676zm0 4.055h1.676V36h-1.676zm0 8.945h1.676v1.939h-1.676zm0 4.055h1.676V49h-1.676zm7-17.055h1.676v1.939h-1.676zm0 4.055h1.676V36h-1.676zm0 8.945h1.676v1.939h-1.676zm0 4.055h1.676V49h-1.676zm7-17.055h1.676v1.939h-1.676zm0 4.055h1.676V36h-1.676zm0 8.945h1.676v1.939h-1.676zm0 4.055h1.676V49h-1.676zm7-17.055h1.676v1.939h-1.676zm0 4.055h1.676V36h-1.676zm0 8.945h1.676v1.939h-1.676zm0 4.055h1.676V49h-1.676zm7-17.055h1.676v1.939h-1.676zm0 4.055h1.676V36h-1.676zm0 8.945h1.676v1.939h-1.676zm0 4.055h1.676V49h-1.676zm7-17.055h1.676v1.939h-1.676zm0 4.055h1.676V36h-1.676zm0 8.945h1.676v1.939h-1.676zm0 4.055h1.676V49h-1.676zm7-17.055h1.676v1.939h-1.676zm0 4.055h1.676V36h-1.676zm0 8.945h1.676v1.939h-1.676zm0 4.055h1.676V49h-1.676zm7-17.055h1.676v1.939h-1.676zm0 4.055h1.676V36h-1.676zm0 8.945h1.676v1.939h-1.676zm0 4.055h1.676V49h-1.676zm7-17.055h1.676v1.939h-1.676zm0 4.055h1.676V36h-1.676zm0 8.945h1.676v1.939h-1.676zm0 4.055h1.676V49h-1.676zm7-17.055h1.676v1.939h-1.676zm0 4.055h1.676V36h-1.676zm0 8.945h1.676v1.939h-1.676zm0 4.055h1.676V49h-1.676zm7-17.055h1.676v1.939h-1.676zm0 4.055h1.676V36h-1.676zm0 8.945h1.676v1.939h-1.676zm0 4.055h1.676V49h-1.676zm7-17.055h1.676v1.939h-1.676zm0 4.055h1.676V36h-1.676zm0 8.945h1.676v1.939h-1.676zm0 4.055h1.676V49h-1.676zm7-17.055h1.676v1.939h-1.676zm0 4.055h1.676V36h-1.676zm0 8.945h1.676v1.939h-1.676zm0 4.055h1.676V49h-1.676zm-84 8.945h1.676v1.939h-1.676zm0 4.055h1.676V62h-1.676zm0 8.945h1.676v1.939h-1.676zm0 4.055h1.676V75h-1.676zm0 8.945h1.676v1.939h-1.676zm0 4.055h1.676V88h-1.676zm0 8.945h1.676v1.939h-1.676zm0 4.055h1.676V101h-1.676zm0 8.945h1.676v1.939h-1.676zm0 4.055h1.676V114h-1.676zm0 8.945h1.676v1.939h-1.676zm0 4.055h1.676V127h-1.676zm0 8.945h1.676v1.939h-1.676zm0 4.055h1.676V140h-1.676zm7-82.055h1.676v1.939h-1.676zm0 4.055h1.676V62h-1.676zm0 8.945h1.676v1.939h-1.676zm0 4.055h1.676V75h-1.676zm0 8.945h1.676v1.939h-1.676zm0 4.055h1.676V88h-1.676zm0 8.945h1.676v1.939h-1.676zm0 4.055h1.676V101h-1.676zm0 8.945h1.676v1.939h-1.676zm0 4.055h1.676V114h-1.676zm0 8.945h1.676v1.939h-1.676zm0 4.055h1.676V127h-1.676zm0 8.945h1.676v1.939h-1.676zm0 4.055h1.676V140h-1.676z" fill="#A7D3A9" fill-opacity=".435"/><path d="M30.353 61.807h1.912v-5.328h-1.912zm-.613.612v-6.553h3.137v6.553z" fill="#F99"/><path d="M30.304 68.99h1.676v1.939h-1.676zm0 4.055h1.676V75h-1.676zm7-4.055h1.676v1.939h-1.676zm0 4.055h1.676V75h-1.676zm7-4.055h1.676v1.939h-1.676zm0 4.055h1.676V75h-1.676zm7-4.055h1.676v1.939h-1.676zm0 4.055h1.676V75h-1.676zm7-4.055h1.676v1.939h-1.676zm0 4.055h1.676V75h-1.676zm7-4.055h1.676v1.939h-1.676zm0 4.055h1.676V75h-1.676zm7-4.055h1.676v1.939h-1.676zm0 4.055h1.676V75h-1.676zm7-4.055h1.676v1.939h-1.676zm0 4.055h1.676V75h-1.676zm7-4.055h1.676v1.939h-1.676zm0 4.055h1.676V75h-1.676zm7-4.055h1.676v1.939h-1.676zm0 4.055h1.676V75h-1.676zm7-4.055h1.676v1.939h-1.676zm0 4.055h1.676V75h-1.676zm-70 8.945h1.676v1.939h-1.676zm0 4.055h1.676V88h-1.676zm7-4.055h1.676v1.939h-1.676zm0 4.055h1.676V88h-1.676zm7-4.055h1.676v1.939h-1.676zm0 4.055h1.676V88h-1.676zm7-4.055h1.676v1.939h-1.676zm0 4.055h1.676V88h-1.676zm-21 8.945h1.676v1.939h-1.676zm0 4.055h1.676V101h-1.676zm0 8.945h1.676v1.939h-1.676zm0 4.055h1.676V114h-1.676zm0 8.945h1.676v1.939h-1.676zm0 4.055h1.676V127h-1.676zm0 8.945h1.676v1.939h-1.676zm0 4.055h1.676V140h-1.676z" fill="#A7D3A9" fill-opacity=".435"/><path d="M37.353 100.807h1.912v-5.328h-1.912zm-.613.612v-6.553h3.137v6.553z" fill="#F99"/><path d="M37.304 107.99h1.676v1.939h-1.676zm0 4.055h1.676V114h-1.676zm7-4.055h1.676v1.939h-1.676zm0 4.055h1.676V114h-1.676zm7-4.055h1.676v1.939h-1.676zm0 4.055h1.676V114h-1.676zm7-4.055h1.676v1.939h-1.676zm0 4.055h1.676V114h-1.676zm7-4.055h1.676v1.939h-1.676zm0 4.055h1.676V114h-1.676zm7-4.055h1.676v1.939h-1.676zm0 4.055h1.676V114h-1.676zm7-4.055h1.676v1.939h-1.676zm0 4.055h1.676V114h-1.676zm7-4.055h1.676v1.939h-1.676zm0 4.055h1.676V114h-1.676zm7-4.055h1.676v1.939h-1.676zm0 4.055h1.676V114h-1.676zm7-4.055h1.676v1.939h-1.676zm0 4.055h1.676V114h-1.676zm-63 8.945h1.676v1.939h-1.676zm0 4.055h1.676V127h-1.676zm0 8.945h1.676v1.939h-1.676zm0 4.055h1.676V140h-1.676zm7-17.055h1.676v1.939h-1.676zm0 4.055h1.676V127h-1.676zm0 8.945h1.676v1.939h-1.676zm0 4.055h1.676V140h-1.676zm7-17.055h1.676v1.939h-1.676zm0 4.055h1.676V127h-1.676zm0 8.945h1.676v1.939h-1.676zm0 4.055h1.676V140h-1.676zm7-17.055h1.676v1.939h-1.676zm0 4.055h1.676V127h-1.676zm0 8.945h1.676v1.939h-1.676zm0 4.055h1.676V140h-1.676zm7-17.055h1.676v1.939h-1.676zm0 4.055h1.676V127h-1.676zm0 8.945h1.676v1.939h-1.676zm0 4.055h1.676V140h-1.676zm7-17.055h1.676v1.939h-1.676zm0 4.055h1.676V127h-1.676zm0 8.945h1.676v1.939h-1.676zm0 4.055h1.676V140h-1.676zm7-17.055h1.676v1.939h-1.676zm0 4.055h1.676V127h-1.676zm0 8.945h1.676v1.939h-1.676zm0 4.055h1.676V140h-1.676z" fill="#A7D3A9" fill-opacity=".435"/><path d="M86.353 126.807h1.912v-5.328h-1.912zm-.613.612v-6.553h3.137v6.553z" fill="#F99"/><path d="M86.304 133.99h1.676v1.939h-1.676zm0 4.055h1.676V140h-1.676zm7-4.055h1.676v1.939h-1.676zm0 4.055h1.676V140h-1.676zm7-4.055h1.676v1.939h-1.676zm0 4.055h1.676V140h-1.676z" fill="#A7D3A9" fill-opacity=".435"/><path d="M107.879 143.32V129.3h.86v14.02z"/><path d="M93.304 120.99h1.676v1.939h-1.676zm0 4.055h1.676V127h-1.676zm7-4.055h1.676v1.939h-1.676zm0 4.055h1.676V127h-1.676z" fill="#A7D3A9" fill-opacity=".435"/><path d="M107.879 130.32V116.3h.86v14.02z"/><path d="M107.879 117.32V103.3h.86v14.02z"/><path d="M44.304 94.99h1.676v1.939h-1.676zm0 4.055h1.676V101h-1.676zm7-4.055h1.676v1.939h-1.676zm0 4.055h1.676V101h-1.676zm7-4.055h1.676v1.939h-1.676zm0 4.055h1.676V101h-1.676zm7-4.055h1.676v1.939h-1.676zm0 4.055h1.676V101h-1.676zm7-4.055h1.676v1.939h-1.676zm0 4.055h1.676V101h-1.676zm7-4.055h1.676v1.939h-1.676zm0 4.055h1.676V101h-1.676zm7-4.055h1.676v1.939h-1.676zm0 4.055h1.676V101h-1.676zm7-4.055h1.676v1.939h-1.676zm0 4.055h1.676V101h-1.676zm7-4.055h1.676v1.939h-1.676zm0 4.055h1.676V101h-1.676z" fill="#A7D3A9" fill-opacity=".435"/><path d="M107.879 104.32V90.3h.86v14.02z"/><path d="M58.353 87.807h1.912v-5.328h-1.912zm-.613.612v-6.553h3.137v6.553z" fill="#F99"/><path d="M65.304 81.99h1.676v1.939h-1.676zm0 4.055h1.676V88h-1.676zm7-4.055h1.676v1.939h-1.676zm0 4.055h1.676V88h-1.676zm7-4.055h1.676v1.939h-1.676zm0 4.055h1.676V88h-1.676zm7-4.055h1.676v1.939h-1.676zm0 4.055h1.676V88h-1.676zm7-4.055h1.676v1.939h-1.676zm0 4.055h1.676V88h-1.676zm7-4.055h1.676v1.939h-1.676zm0 4.055h1.676V88h-1.676z" fill="#A7D3A9" fill-opacity=".435"/><path d="M107.879 91.32V77.3h.86v14.02z"/><path d="M107.879 78.32V64.3h.86v14.02z"/><path d="M37.304 55.99h1.676v1.939h-1.676zm0 4.055h1.676V62h-1.676zm7-4.055h1.676v1.939h-1.676zm0 4.055h1.676V62h-1.676zm7-4.055h1.676v1.939h-1.676zm0 4.055h1.676V62h-1.676zm7-4.055h1.676v1.939h-1.676zm0 4.055h1.676V62h-1.676zm7-4.055h1.676v1.939h-1.676zm0 4.055h1.676V62h-1.676zm7-4.055h1.676v1.939h-1.676zm0 4.055h1.676V62h-1.676zm7-4.055h1.676v1.939h-1.676zm0 4.055h1.676V62h-1.676zm7-4.055h1.676v1.939h-1.676zm0 4.055h1.676V62h-1.676zm7-4.055h1.676v1.939h-1.676zm0 4.055h1.676V62h-1.676zm7-4.055h1.676v1.939h-1.676zm0 4.055h1.676V62h-1.676z" fill="#A7D3A9" fill-opacity=".435"/><path d="M107.879 65.32V51.3h.86v14.02zm0-26V25.3h.86v14.02z"/><path d="M107.879 52.32V38.3h.86v14.02zM20.005 16.984l-2.154 2.88L20.214 23H19.07l-1.761-2.412L15.552 23h-1.144l2.363-3.137-2.153-2.879h1.095l1.596 2.176 1.584-2.176zm2.998 5.103h3.685V23h-4.872v-.913q1.005-1.058 1.757-1.87.752-.81 1.036-1.143.537-.656.725-1.061.188-.406.188-.83 0-.671-.394-1.053-.395-.381-1.083-.381-.488 0-1.025.177-.538.178-1.14.537v-1.095q.554-.264 1.089-.398.534-.134 1.055-.134 1.176 0 1.893.626.717.625.717 1.64 0 .516-.239 1.032-.239.515-.776 1.138-.3.35-.873.967-.572.618-1.743 1.848zm9.165-3.379q.79.21 1.208.744.42.535.42 1.335 0 1.107-.744 1.738-.744.63-2.06.63-.554 0-1.128-.101-.575-.102-1.128-.296v-1.08q.548.285 1.08.425.531.14 1.058.14.891 0 1.37-.403.477-.403.477-1.16 0-.699-.478-1.11-.478-.41-1.294-.41h-.827v-.892h.827q.746 0 1.165-.328.42-.327.42-.913 0-.617-.39-.948-.39-.33-1.11-.33-.477 0-.988.107-.51.108-1.068.323v-1q.65-.171 1.157-.257.508-.086.9-.086 1.17 0 1.871.588.701.588.701 1.56 0 .661-.367 1.101-.368.44-1.072.623zm2.725 1.628v-.924h6.837v.924zm7 0v-.924h6.837v.924zm7 0v-.924h6.837v.924zm7 0v-.924h6.837v.924zm7 0v-.924h6.837v.924zm7 0v-.924h6.837v.924zm7 0v-.924h6.837v.924zm7 0v-.924h6.837v.924zm7 0v-.924h6.837v.924zm7 0v-.924h6.837v.924zm9.986 5.984v-5.984h-2.986v-.924h3.845v6.907z"/></svg>