<svg xmlns="http://www.w3.org/2000/svg" width="358" height="118"><path d="M5.763 9.715q-.413.22-.848.33-.436.11-.924.11-1.542 0-2.393-1.09Q.747 7.975.747 6q0-1.966.856-3.065.857-1.098 2.388-1.098.488 0 .924.11.435.11.848.33v1.112q-.397-.327-.854-.5-.456-.171-.918-.171-1.058 0-1.585.816Q1.88 4.35 1.88 6q0 1.643.526 2.46.527.816 1.585.816.472 0 .926-.172.454-.172.846-.5zM14.193 54.008h1.45l1.386 4.071 1.397-4.071h1.455V62h-1.004v-7.063l-1.429 4.21h-.822l-1.434-4.21V62h-.999zM28.102 106.008h1.482l3.137 6.58v-6.58h1.155V114h-1.482l-3.137-6.58V114h-1.155zM39.86 109.999q0-1.768-.362-2.525-.362-.757-1.19-.757-.821 0-1.184.757-.362.757-.362 2.525 0 1.761.362 2.519.363.757 1.185.757.827 0 1.19-.755.362-.754.362-2.521zm1.134 0q0 2.094-.663 3.126-.664 1.03-2.022 1.03-1.36 0-2.02-1.025-.66-1.026-.66-3.131 0-2.1.663-3.132.663-1.031 2.017-1.031 1.358 0 2.022 1.031.663 1.031.663 3.132zM42.252 105.981h6.118v.913h-2.508V114h-1.09v-7.106h-2.52zM50.058 105.981h4.759v.913h-3.674v2.16h3.513v.912h-3.513v3.12h3.776V114h-4.86zM79.003 113.087h3.685V114h-4.872v-.913q1.005-1.058 1.757-1.87.752-.81 1.036-1.143.537-.656.725-1.061.188-.406.188-.83 0-.671-.394-1.053-.395-.381-1.083-.381-.488 0-1.025.177-.538.178-1.14.537v-1.095q.554-.264 1.089-.398.534-.134 1.055-.134 1.176 0 1.893.626.717.625.717 1.64 0 .516-.239 1.032-.239.515-.776 1.138-.3.35-.873.967-.572.618-1.743 1.848zM86.003 113.087h3.685V114h-4.872v-.913q1.005-1.058 1.757-1.87.752-.81 1.036-1.143.537-.656.725-1.061.188-.406.188-.83 0-.671-.394-1.053-.395-.381-1.083-.381-.488 0-1.025.177-.538.178-1.14.537v-1.095q.554-.264 1.089-.398.534-.134 1.055-.134 1.176 0 1.893.626.717.625.717 1.64 0 .516-.239 1.032-.239.515-.776 1.138-.3.35-.873.967-.572.618-1.743 1.848z"/><path d="M103.017 116.75v-1.402h.859v1.402zm-3.416 0v-1.402h.854v1.402zm1.708-1.96v-1.402h.854v1.402zm-3.416 0v-1.402h.848v1.402zm5.124-1.966v-1.402h.859v1.402zm-3.416 0v-1.402h.854v1.402zm1.708-1.96v-1.403h.854v1.402zm-3.416 0v-1.403h.848v1.402zm5.124-1.967v-1.401h.859v1.401zm-3.416 0v-1.401h.854v1.401zm1.708-1.96v-1.402h.854v1.402zm-3.416 0v-1.402h.848v1.402zM110.017 116.75v-1.402h.859v1.402zm-3.416 0v-1.402h.854v1.402zm1.708-1.96v-1.402h.854v1.402zm-3.416 0v-1.402h.848v1.402zm5.124-1.966v-1.402h.859v1.402zm-3.416 0v-1.402h.854v1.402zm1.708-1.96v-1.403h.854v1.402zm-3.416 0v-1.403h.848v1.402zm5.124-1.967v-1.401h.859v1.401zm-3.416 0v-1.401h.854v1.401zm1.708-1.96v-1.402h.854v1.402zm-3.416 0v-1.402h.848v1.402zM117.017 116.75v-1.402h.859v1.402zm-3.416 0v-1.402h.854v1.402zm1.708-1.96v-1.402h.854v1.402zm-3.416 0v-1.402h.848v1.402zm5.124-1.966v-1.402h.859v1.402zm-3.416 0v-1.402h.854v1.402zm1.708-1.96v-1.403h.854v1.402zm-3.416 0v-1.403h.848v1.402zm5.124-1.967v-1.401h.859v1.401zm-3.416 0v-1.401h.854v1.401zm1.708-1.96v-1.402h.854v1.402zm-3.416 0v-1.402h.848v1.402zM124.017 116.75v-1.402h.859v1.402zm-3.416 0v-1.402h.854v1.402zm1.708-1.96v-1.402h.854v1.402zm-3.416 0v-1.402h.848v1.402zm5.124-1.966v-1.402h.859v1.402zm-3.416 0v-1.402h.854v1.402zm1.708-1.96v-1.403h.854v1.402zm-3.416 0v-1.403h.848v1.402zm5.124-1.967v-1.401h.859v1.401zm-3.416 0v-1.401h.854v1.401zm1.708-1.96v-1.402h.854v1.402zm-3.416 0v-1.402h.848v1.402zM131.017 116.75v-1.402h.859v1.402zm-3.416 0v-1.402h.854v1.402zm1.708-1.96v-1.402h.854v1.402zm-3.416 0v-1.402h.848v1.402zm5.124-1.966v-1.402h.859v1.402zm-3.416 0v-1.402h.854v1.402zm1.708-1.96v-1.403h.854v1.402zm-3.416 0v-1.403h.848v1.402zm5.124-1.967v-1.401h.859v1.401zm-3.416 0v-1.401h.854v1.401zm1.708-1.96v-1.402h.854v1.402zm-3.416 0v-1.402h.848v1.402zM138.017 116.75v-1.402h.859v1.402zm-3.416 0v-1.402h.854v1.402zm1.708-1.96v-1.402h.854v1.402zm-3.416 0v-1.402h.848v1.402zm5.124-1.966v-1.402h.859v1.402zm-3.416 0v-1.402h.854v1.402zm1.708-1.96v-1.403h.854v1.402zm-3.416 0v-1.403h.848v1.402zm5.124-1.967v-1.401h.859v1.401zm-3.416 0v-1.401h.854v1.401zm1.708-1.96v-1.402h.854v1.402zm-3.416 0v-1.402h.848v1.402zM145.017 116.75v-1.402h.859v1.402zm-3.416 0v-1.402h.854v1.402zm1.708-1.96v-1.402h.854v1.402zm-3.416 0v-1.402h.848v1.402zm5.124-1.966v-1.402h.859v1.402zm-3.416 0v-1.402h.854v1.402zm1.708-1.96v-1.403h.854v1.402zm-3.416 0v-1.403h.848v1.402zm5.124-1.967v-1.401h.859v1.401zm-3.416 0v-1.401h.854v1.401zm1.708-1.96v-1.402h.854v1.402zm-3.416 0v-1.402h.848v1.402zM152.017 116.75v-1.402h.859v1.402zm-3.416 0v-1.402h.854v1.402zm1.708-1.96v-1.402h.854v1.402zm-3.416 0v-1.402h.848v1.402zm5.124-1.966v-1.402h.859v1.402zm-3.416 0v-1.402h.854v1.402zm1.708-1.96v-1.403h.854v1.402zm-3.416 0v-1.403h.848v1.402zm5.124-1.967v-1.401h.859v1.401zm-3.416 0v-1.401h.854v1.401zm1.708-1.96v-1.402h.854v1.402zm-3.416 0v-1.402h.848v1.402zM159.017 116.75v-1.402h.859v1.402zm-3.416 0v-1.402h.854v1.402zm1.708-1.96v-1.402h.854v1.402zm-3.416 0v-1.402h.848v1.402zm5.124-1.966v-1.402h.859v1.402zm-3.416 0v-1.402h.854v1.402zm1.708-1.96v-1.403h.854v1.402zm-3.416 0v-1.403h.848v1.402zm5.124-1.967v-1.401h.859v1.401zm-3.416 0v-1.401h.854v1.401zm1.708-1.96v-1.402h.854v1.402zm-3.416 0v-1.402h.848v1.402zM166.017 116.75v-1.402h.859v1.402zm-3.416 0v-1.402h.854v1.402zm1.708-1.96v-1.402h.854v1.402zm-3.416 0v-1.402h.848v1.402zm5.124-1.966v-1.402h.859v1.402zm-3.416 0v-1.402h.854v1.402zm1.708-1.96v-1.403h.854v1.402zm-3.416 0v-1.403h.848v1.402zm5.124-1.967v-1.401h.859v1.401zm-3.416 0v-1.401h.854v1.401zm1.708-1.96v-1.402h.854v1.402zm-3.416 0v-1.402h.848v1.402zM173.017 116.75v-1.402h.859v1.402zm-3.416 0v-1.402h.854v1.402zm1.708-1.96v-1.402h.854v1.402zm-3.416 0v-1.402h.848v1.402zm5.124-1.966v-1.402h.859v1.402zm-3.416 0v-1.402h.854v1.402zm1.708-1.96v-1.403h.854v1.402zm-3.416 0v-1.403h.848v1.402zm5.124-1.967v-1.401h.859v1.401zm-3.416 0v-1.401h.854v1.401zm1.708-1.96v-1.402h.854v1.402zm-3.416 0v-1.402h.848v1.402zM180.017 116.75v-1.402h.859v1.402zm-3.416 0v-1.402h.854v1.402zm1.708-1.96v-1.402h.854v1.402zm-3.416 0v-1.402h.848v1.402zm5.124-1.966v-1.402h.859v1.402zm-3.416 0v-1.402h.854v1.402zm1.708-1.96v-1.403h.854v1.402zm-3.416 0v-1.403h.848v1.402zm5.124-1.967v-1.401h.859v1.401zm-3.416 0v-1.401h.854v1.401zm1.708-1.96v-1.402h.854v1.402zm-3.416 0v-1.402h.848v1.402zM187.017 116.75v-1.402h.859v1.402zm-3.416 0v-1.402h.854v1.402zm1.708-1.96v-1.402h.854v1.402zm-3.416 0v-1.402h.848v1.402zm5.124-1.966v-1.402h.859v1.402zm-3.416 0v-1.402h.854v1.402zm1.708-1.96v-1.403h.854v1.402zm-3.416 0v-1.403h.848v1.402zm5.124-1.967v-1.401h.859v1.401zm-3.416 0v-1.401h.854v1.401zm1.708-1.96v-1.402h.854v1.402zm-3.416 0v-1.402h.848v1.402zM194.017 116.75v-1.402h.859v1.402zm-3.416 0v-1.402h.854v1.402zm1.708-1.96v-1.402h.854v1.402zm-3.416 0v-1.402h.848v1.402zm5.124-1.966v-1.402h.859v1.402zm-3.416 0v-1.402h.854v1.402zm1.708-1.96v-1.403h.854v1.402zm-3.416 0v-1.403h.848v1.402zm5.124-1.967v-1.401h.859v1.401zm-3.416 0v-1.401h.854v1.401zm1.708-1.96v-1.402h.854v1.402zm-3.416 0v-1.402h.848v1.402zM201.017 116.75v-1.402h.859v1.402zm-3.416 0v-1.402h.854v1.402zm1.708-1.96v-1.402h.854v1.402zm-3.416 0v-1.402h.848v1.402zm5.124-1.966v-1.402h.859v1.402zm-3.416 0v-1.402h.854v1.402zm1.708-1.96v-1.403h.854v1.402zm-3.416 0v-1.403h.848v1.402zm5.124-1.967v-1.401h.859v1.401zm-3.416 0v-1.401h.854v1.401zm1.708-1.96v-1.402h.854v1.402zm-3.416 0v-1.402h.848v1.402zM208.017 116.75v-1.402h.859v1.402zm-3.416 0v-1.402h.854v1.402zm1.708-1.96v-1.402h.854v1.402zm-3.416 0v-1.402h.848v1.402zm5.124-1.966v-1.402h.859v1.402zm-3.416 0v-1.402h.854v1.402zm1.708-1.96v-1.403h.854v1.402zm-3.416 0v-1.403h.848v1.402zm5.124-1.967v-1.401h.859v1.401zm-3.416 0v-1.401h.854v1.401zm1.708-1.96v-1.402h.854v1.402zm-3.416 0v-1.402h.848v1.402zM215.017 116.75v-1.402h.859v1.402zm-3.416 0v-1.402h.854v1.402zm1.708-1.96v-1.402h.854v1.402zm-3.416 0v-1.402h.848v1.402zm5.124-1.966v-1.402h.859v1.402zm-3.416 0v-1.402h.854v1.402zm1.708-1.96v-1.403h.854v1.402zm-3.416 0v-1.403h.848v1.402zm5.124-1.967v-1.401h.859v1.401zm-3.416 0v-1.401h.854v1.401zm1.708-1.96v-1.402h.854v1.402zm-3.416 0v-1.402h.848v1.402zM222.017 116.75v-1.402h.859v1.402zm-3.416 0v-1.402h.854v1.402zm1.708-1.96v-1.402h.854v1.402zm-3.416 0v-1.402h.848v1.402zm5.124-1.966v-1.402h.859v1.402zm-3.416 0v-1.402h.854v1.402zm1.708-1.96v-1.403h.854v1.402zm-3.416 0v-1.403h.848v1.402zm5.124-1.967v-1.401h.859v1.401zm-3.416 0v-1.401h.854v1.401zm1.708-1.96v-1.402h.854v1.402zm-3.416 0v-1.402h.848v1.402zM229.017 116.75v-1.402h.859v1.402zm-3.416 0v-1.402h.854v1.402zm1.708-1.96v-1.402h.854v1.402zm-3.416 0v-1.402h.848v1.402zm5.124-1.966v-1.402h.859v1.402zm-3.416 0v-1.402h.854v1.402zm1.708-1.96v-1.403h.854v1.402zm-3.416 0v-1.403h.848v1.402zm5.124-1.967v-1.401h.859v1.401zm-3.416 0v-1.401h.854v1.401zm1.708-1.96v-1.402h.854v1.402zm-3.416 0v-1.402h.848v1.402zM236.017 116.75v-1.402h.859v1.402zm-3.416 0v-1.402h.854v1.402zm1.708-1.96v-1.402h.854v1.402zm-3.416 0v-1.402h.848v1.402zm5.124-1.966v-1.402h.859v1.402zm-3.416 0v-1.402h.854v1.402zm1.708-1.96v-1.403h.854v1.402zm-3.416 0v-1.403h.848v1.402zm5.124-1.967v-1.401h.859v1.401zm-3.416 0v-1.401h.854v1.401zm1.708-1.96v-1.402h.854v1.402zm-3.416 0v-1.402h.848v1.402zM243.017 116.75v-1.402h.859v1.402zm-3.416 0v-1.402h.854v1.402zm1.708-1.96v-1.402h.854v1.402zm-3.416 0v-1.402h.848v1.402zm5.124-1.966v-1.402h.859v1.402zm-3.416 0v-1.402h.854v1.402zm1.708-1.96v-1.403h.854v1.402zm-3.416 0v-1.403h.848v1.402zm5.124-1.967v-1.401h.859v1.401zm-3.416 0v-1.401h.854v1.401zm1.708-1.96v-1.402h.854v1.402zm-3.416 0v-1.402h.848v1.402zM250.017 116.75v-1.402h.859v1.402zm-3.416 0v-1.402h.854v1.402zm1.708-1.96v-1.402h.854v1.402zm-3.416 0v-1.402h.848v1.402zm5.124-1.966v-1.402h.859v1.402zm-3.416 0v-1.402h.854v1.402zm1.708-1.96v-1.403h.854v1.402zm-3.416 0v-1.403h.848v1.402zm5.124-1.967v-1.401h.859v1.401zm-3.416 0v-1.401h.854v1.401zm1.708-1.96v-1.402h.854v1.402zm-3.416 0v-1.402h.848v1.402zM257.017 116.75v-1.402h.859v1.402zm-3.416 0v-1.402h.854v1.402zm1.708-1.96v-1.402h.854v1.402zm-3.416 0v-1.402h.848v1.402zm5.124-1.966v-1.402h.859v1.402zm-3.416 0v-1.402h.854v1.402zm1.708-1.96v-1.403h.854v1.402zm-3.416 0v-1.403h.848v1.402zm5.124-1.967v-1.401h.859v1.401zm-3.416 0v-1.401h.854v1.401zm1.708-1.96v-1.402h.854v1.402zm-3.416 0v-1.402h.848v1.402zM264.017 116.75v-1.402h.859v1.402zm-3.416 0v-1.402h.854v1.402zm1.708-1.96v-1.402h.854v1.402zm-3.416 0v-1.402h.848v1.402zm5.124-1.966v-1.402h.859v1.402zm-3.416 0v-1.402h.854v1.402zm1.708-1.96v-1.403h.854v1.402zm-3.416 0v-1.403h.848v1.402zm5.124-1.967v-1.401h.859v1.401zm-3.416 0v-1.401h.854v1.401zm1.708-1.96v-1.402h.854v1.402zm-3.416 0v-1.402h.848v1.402zM271.017 116.75v-1.402h.859v1.402zm-3.416 0v-1.402h.854v1.402zm1.708-1.96v-1.402h.854v1.402zm-3.416 0v-1.402h.848v1.402zm5.124-1.966v-1.402h.859v1.402zm-3.416 0v-1.402h.854v1.402zm1.708-1.96v-1.403h.854v1.402zm-3.416 0v-1.403h.848v1.402zm5.124-1.967v-1.401h.859v1.401zm-3.416 0v-1.401h.854v1.401zm1.708-1.96v-1.402h.854v1.402zm-3.416 0v-1.402h.848v1.402zM278.017 116.75v-1.402h.859v1.402zm-3.416 0v-1.402h.854v1.402zm1.708-1.96v-1.402h.854v1.402zm-3.416 0v-1.402h.848v1.402zm5.124-1.966v-1.402h.859v1.402zm-3.416 0v-1.402h.854v1.402zm1.708-1.96v-1.403h.854v1.402zm-3.416 0v-1.403h.848v1.402zm5.124-1.967v-1.401h.859v1.401zm-3.416 0v-1.401h.854v1.401zm1.708-1.96v-1.402h.854v1.402zm-3.416 0v-1.402h.848v1.402zM285.017 116.75v-1.402h.859v1.402zm-3.416 0v-1.402h.854v1.402zm1.708-1.96v-1.402h.854v1.402zm-3.416 0v-1.402h.848v1.402zm5.124-1.966v-1.402h.859v1.402zm-3.416 0v-1.402h.854v1.402zm1.708-1.96v-1.403h.854v1.402zm-3.416 0v-1.403h.848v1.402zm5.124-1.967v-1.401h.859v1.401zm-3.416 0v-1.401h.854v1.401zm1.708-1.96v-1.402h.854v1.402zm-3.416 0v-1.402h.848v1.402zM292.017 116.75v-1.402h.859v1.402zm-3.416 0v-1.402h.854v1.402zm1.708-1.96v-1.402h.854v1.402zm-3.416 0v-1.402h.848v1.402zm5.124-1.966v-1.402h.859v1.402zm-3.416 0v-1.402h.854v1.402zm1.708-1.96v-1.403h.854v1.402zm-3.416 0v-1.403h.848v1.402zm5.124-1.967v-1.401h.859v1.401zm-3.416 0v-1.401h.854v1.401zm1.708-1.96v-1.402h.854v1.402zm-3.416 0v-1.402h.848v1.402zM299.017 116.75v-1.402h.859v1.402zm-3.416 0v-1.402h.854v1.402zm1.708-1.96v-1.402h.854v1.402zm-3.416 0v-1.402h.848v1.402zm5.124-1.966v-1.402h.859v1.402zm-3.416 0v-1.402h.854v1.402zm1.708-1.96v-1.403h.854v1.402zm-3.416 0v-1.403h.848v1.402zm5.124-1.967v-1.401h.859v1.401zm-3.416 0v-1.401h.854v1.401zm1.708-1.96v-1.402h.854v1.402zm-3.416 0v-1.402h.848v1.402zM306.017 116.75v-1.402h.859v1.402zm-3.416 0v-1.402h.854v1.402zm1.708-1.96v-1.402h.854v1.402zm-3.416 0v-1.402h.848v1.402zm5.124-1.966v-1.402h.859v1.402zm-3.416 0v-1.402h.854v1.402zm1.708-1.96v-1.403h.854v1.402zm-3.416 0v-1.403h.848v1.402zm5.124-1.967v-1.401h.859v1.401zm-3.416 0v-1.401h.854v1.401zm1.708-1.96v-1.402h.854v1.402zm-3.416 0v-1.402h.848v1.402zM313.017 116.75v-1.402h.859v1.402zm-3.416 0v-1.402h.854v1.402zm1.708-1.96v-1.402h.854v1.402zm-3.416 0v-1.402h.848v1.402zm5.124-1.966v-1.402h.859v1.402zm-3.416 0v-1.402h.854v1.402zm1.708-1.96v-1.403h.854v1.402zm-3.416 0v-1.403h.848v1.402zm5.124-1.967v-1.401h.859v1.401zm-3.416 0v-1.401h.854v1.401zm1.708-1.96v-1.402h.854v1.402zm-3.416 0v-1.402h.848v1.402zM320.017 116.75v-1.402h.859v1.402zm-3.416 0v-1.402h.854v1.402zm1.708-1.96v-1.402h.854v1.402zm-3.416 0v-1.402h.848v1.402zm5.124-1.966v-1.402h.859v1.402zm-3.416 0v-1.402h.854v1.402zm1.708-1.96v-1.403h.854v1.402zm-3.416 0v-1.403h.848v1.402zm5.124-1.967v-1.401h.859v1.401zm-3.416 0v-1.401h.854v1.401zm1.708-1.96v-1.402h.854v1.402zm-3.416 0v-1.402h.848v1.402zM327.017 116.75v-1.402h.859v1.402zm-3.416 0v-1.402h.854v1.402zm1.708-1.96v-1.402h.854v1.402zm-3.416 0v-1.402h.848v1.402zm5.124-1.966v-1.402h.859v1.402zm-3.416 0v-1.402h.854v1.402zm1.708-1.96v-1.403h.854v1.402zm-3.416 0v-1.403h.848v1.402zm5.124-1.967v-1.401h.859v1.401zm-3.416 0v-1.401h.854v1.401zm1.708-1.96v-1.402h.854v1.402zm-3.416 0v-1.402h.848v1.402zM334.017 116.75v-1.402h.859v1.402zm-3.416 0v-1.402h.854v1.402zm1.708-1.96v-1.402h.854v1.402zm-3.416 0v-1.402h.848v1.402zm5.124-1.966v-1.402h.859v1.402zm-3.416 0v-1.402h.854v1.402zm1.708-1.96v-1.403h.854v1.402zm-3.416 0v-1.403h.848v1.402zm5.124-1.967v-1.401h.859v1.401zm-3.416 0v-1.401h.854v1.401zm1.708-1.96v-1.402h.854v1.402zm-3.416 0v-1.402h.848v1.402zM341.017 116.75v-1.402h.859v1.402zm-3.416 0v-1.402h.854v1.402zm1.708-1.96v-1.402h.854v1.402zm-3.416 0v-1.402h.848v1.402zm5.124-1.966v-1.402h.859v1.402zm-3.416 0v-1.402h.854v1.402zm1.708-1.96v-1.403h.854v1.402zm-3.416 0v-1.403h.848v1.402zm5.124-1.967v-1.401h.859v1.401zm-3.416 0v-1.401h.854v1.401zm1.708-1.96v-1.402h.854v1.402zm-3.416 0v-1.402h.848v1.402zM348.017 116.75v-1.402h.859v1.402zm-3.416 0v-1.402h.854v1.402zm1.708-1.96v-1.402h.854v1.402zm-3.416 0v-1.402h.848v1.402zm5.124-1.966v-1.402h.859v1.402zm-3.416 0v-1.402h.854v1.402zm1.708-1.96v-1.403h.854v1.402zm-3.416 0v-1.403h.848v1.402zm5.124-1.967v-1.401h.859v1.401zm-3.416 0v-1.401h.854v1.401zm1.708-1.96v-1.402h.854v1.402zm-3.416 0v-1.402h.848v1.402zM355.017 116.75v-1.402h.859v1.402zm-3.416 0v-1.402h.854v1.402zm1.708-1.96v-1.402h.854v1.402zm-3.416 0v-1.402h.848v1.402zm5.124-1.966v-1.402h.859v1.402zm-3.416 0v-1.402h.854v1.402zm1.708-1.96v-1.403h.854v1.402zm-3.416 0v-1.403h.848v1.402zm5.124-1.967v-1.401h.859v1.401zm-3.416 0v-1.401h.854v1.401zm1.708-1.96v-1.402h.854v1.402zm-3.416 0v-1.402h.848v1.402z" fill="#919191"/><path d="M36.155 79.981h1.09v7.106h3.873V88h-4.963zM46.86 83.999q0-1.768-.362-2.525-.362-.757-1.19-.757-.821 0-1.184.757-.362.757-.362 2.525 0 1.761.362 2.519.363.757 1.185.757.827 0 1.19-.755.362-.754.362-2.521zm1.134 0q0 2.094-.663 3.126-.664 1.03-2.022 1.03-1.36 0-2.02-1.025-.66-1.026-.66-3.131 0-2.1.663-3.132.663-1.031 2.017-1.031 1.358 0 2.022 1.031.663 1.031.663 3.132zM49 79.981h1.058l.768 6.51.913-4.308h1.134l.923 4.318.768-6.52h1.059L54.425 88h-1.026l-1.09-4.764L51.224 88h-1.026zM78.45 87.092h1.687v-6.058l-2.02.972v-1.042l2.009-.956h1.085v7.084h1.665V88H78.45zM89.323 80.158v1q-.339-.2-.72-.304-.381-.105-.795-.105-1.031 0-1.563.776t-.532 2.286q.258-.538.715-.825.456-.287 1.047-.287 1.16 0 1.797.711.636.712.636 2.017 0 1.3-.655 2.014-.655.715-1.842.715-1.397 0-2.047-1.002-.65-1.002-.65-3.155 0-2.03.782-3.097.781-1.066 2.264-1.066.397 0 .795.083.397.083.768.24zm-1.934 3.39q-.693 0-1.09.499-.398.5-.398 1.38 0 .881.398 1.38.397.5 1.09.5.72 0 1.085-.475.365-.476.365-1.405 0-.934-.365-1.407t-1.085-.473z"/><path d="M103.017 90.75v-1.402h.859v1.402zm-3.416 0v-1.402h.854v1.402zm1.708-1.96v-1.402h.854v1.402zm-3.416 0v-1.402h.848v1.402zm5.124-1.966v-1.402h.859v1.402zm-3.416 0v-1.402h.854v1.402zm1.708-1.96V83.46h.854v1.402zm-3.416 0V83.46h.848v1.402zm5.124-1.967v-1.401h.859v1.401zm-3.416 0v-1.401h.854v1.401zm1.708-1.96v-1.402h.854v1.402zm-3.416 0v-1.402h.848v1.402zM110.017 90.75v-1.402h.859v1.402zm-3.416 0v-1.402h.854v1.402zm1.708-1.96v-1.402h.854v1.402zm-3.416 0v-1.402h.848v1.402zm5.124-1.966v-1.402h.859v1.402zm-3.416 0v-1.402h.854v1.402zm1.708-1.96V83.46h.854v1.402zm-3.416 0V83.46h.848v1.402zm5.124-1.967v-1.401h.859v1.401zm-3.416 0v-1.401h.854v1.401zm1.708-1.96v-1.402h.854v1.402zm-3.416 0v-1.402h.848v1.402zM117.017 90.75v-1.402h.859v1.402zm-3.416 0v-1.402h.854v1.402zm1.708-1.96v-1.402h.854v1.402zm-3.416 0v-1.402h.848v1.402zm5.124-1.966v-1.402h.859v1.402zm-3.416 0v-1.402h.854v1.402zm1.708-1.96V83.46h.854v1.402zm-3.416 0V83.46h.848v1.402zm5.124-1.967v-1.401h.859v1.401zm-3.416 0v-1.401h.854v1.401zm1.708-1.96v-1.402h.854v1.402zm-3.416 0v-1.402h.848v1.402zM124.017 90.75v-1.402h.859v1.402zm-3.416 0v-1.402h.854v1.402zm1.708-1.96v-1.402h.854v1.402zm-3.416 0v-1.402h.848v1.402zm5.124-1.966v-1.402h.859v1.402zm-3.416 0v-1.402h.854v1.402zm1.708-1.96V83.46h.854v1.402zm-3.416 0V83.46h.848v1.402zm5.124-1.967v-1.401h.859v1.401zm-3.416 0v-1.401h.854v1.401zm1.708-1.96v-1.402h.854v1.402zm-3.416 0v-1.402h.848v1.402zM131.017 90.75v-1.402h.859v1.402zm-3.416 0v-1.402h.854v1.402zm1.708-1.96v-1.402h.854v1.402zm-3.416 0v-1.402h.848v1.402zm5.124-1.966v-1.402h.859v1.402zm-3.416 0v-1.402h.854v1.402zm1.708-1.96V83.46h.854v1.402zm-3.416 0V83.46h.848v1.402zm5.124-1.967v-1.401h.859v1.401zm-3.416 0v-1.401h.854v1.401zm1.708-1.96v-1.402h.854v1.402zm-3.416 0v-1.402h.848v1.402zM138.017 90.75v-1.402h.859v1.402zm-3.416 0v-1.402h.854v1.402zm1.708-1.96v-1.402h.854v1.402zm-3.416 0v-1.402h.848v1.402zm5.124-1.966v-1.402h.859v1.402zm-3.416 0v-1.402h.854v1.402zm1.708-1.96V83.46h.854v1.402zm-3.416 0V83.46h.848v1.402zm5.124-1.967v-1.401h.859v1.401zm-3.416 0v-1.401h.854v1.401zm1.708-1.96v-1.402h.854v1.402zm-3.416 0v-1.402h.848v1.402zM145.017 90.75v-1.402h.859v1.402zm-3.416 0v-1.402h.854v1.402zm1.708-1.96v-1.402h.854v1.402zm-3.416 0v-1.402h.848v1.402zm5.124-1.966v-1.402h.859v1.402zm-3.416 0v-1.402h.854v1.402zm1.708-1.96V83.46h.854v1.402zm-3.416 0V83.46h.848v1.402zm5.124-1.967v-1.401h.859v1.401zm-3.416 0v-1.401h.854v1.401zm1.708-1.96v-1.402h.854v1.402zm-3.416 0v-1.402h.848v1.402zM152.017 90.75v-1.402h.859v1.402zm-3.416 0v-1.402h.854v1.402zm1.708-1.96v-1.402h.854v1.402zm-3.416 0v-1.402h.848v1.402zm5.124-1.966v-1.402h.859v1.402zm-3.416 0v-1.402h.854v1.402zm1.708-1.96V83.46h.854v1.402zm-3.416 0V83.46h.848v1.402zm5.124-1.967v-1.401h.859v1.401zm-3.416 0v-1.401h.854v1.401zm1.708-1.96v-1.402h.854v1.402zm-3.416 0v-1.402h.848v1.402zM159.017 90.75v-1.402h.859v1.402zm-3.416 0v-1.402h.854v1.402zm1.708-1.96v-1.402h.854v1.402zm-3.416 0v-1.402h.848v1.402zm5.124-1.966v-1.402h.859v1.402zm-3.416 0v-1.402h.854v1.402zm1.708-1.96V83.46h.854v1.402zm-3.416 0V83.46h.848v1.402zm5.124-1.967v-1.401h.859v1.401zm-3.416 0v-1.401h.854v1.401zm1.708-1.96v-1.402h.854v1.402zm-3.416 0v-1.402h.848v1.402zM166.017 90.75v-1.402h.859v1.402zm-3.416 0v-1.402h.854v1.402zm1.708-1.96v-1.402h.854v1.402zm-3.416 0v-1.402h.848v1.402zm5.124-1.966v-1.402h.859v1.402zm-3.416 0v-1.402h.854v1.402zm1.708-1.96V83.46h.854v1.402zm-3.416 0V83.46h.848v1.402zm5.124-1.967v-1.401h.859v1.401zm-3.416 0v-1.401h.854v1.401zm1.708-1.96v-1.402h.854v1.402zm-3.416 0v-1.402h.848v1.402zM173.017 90.75v-1.402h.859v1.402zm-3.416 0v-1.402h.854v1.402zm1.708-1.96v-1.402h.854v1.402zm-3.416 0v-1.402h.848v1.402zm5.124-1.966v-1.402h.859v1.402zm-3.416 0v-1.402h.854v1.402zm1.708-1.96V83.46h.854v1.402zm-3.416 0V83.46h.848v1.402zm5.124-1.967v-1.401h.859v1.401zm-3.416 0v-1.401h.854v1.401zm1.708-1.96v-1.402h.854v1.402zm-3.416 0v-1.402h.848v1.402zM180.017 90.75v-1.402h.859v1.402zm-3.416 0v-1.402h.854v1.402zm1.708-1.96v-1.402h.854v1.402zm-3.416 0v-1.402h.848v1.402zm5.124-1.966v-1.402h.859v1.402zm-3.416 0v-1.402h.854v1.402zm1.708-1.96V83.46h.854v1.402zm-3.416 0V83.46h.848v1.402zm5.124-1.967v-1.401h.859v1.401zm-3.416 0v-1.401h.854v1.401zm1.708-1.96v-1.402h.854v1.402zm-3.416 0v-1.402h.848v1.402zM187.017 90.75v-1.402h.859v1.402zm-3.416 0v-1.402h.854v1.402zm1.708-1.96v-1.402h.854v1.402zm-3.416 0v-1.402h.848v1.402zm5.124-1.966v-1.402h.859v1.402zm-3.416 0v-1.402h.854v1.402zm1.708-1.96V83.46h.854v1.402zm-3.416 0V83.46h.848v1.402zm5.124-1.967v-1.401h.859v1.401zm-3.416 0v-1.401h.854v1.401zm1.708-1.96v-1.402h.854v1.402zm-3.416 0v-1.402h.848v1.402zM194.017 90.75v-1.402h.859v1.402zm-3.416 0v-1.402h.854v1.402zm1.708-1.96v-1.402h.854v1.402zm-3.416 0v-1.402h.848v1.402zm5.124-1.966v-1.402h.859v1.402zm-3.416 0v-1.402h.854v1.402zm1.708-1.96V83.46h.854v1.402zm-3.416 0V83.46h.848v1.402zm5.124-1.967v-1.401h.859v1.401zm-3.416 0v-1.401h.854v1.401zm1.708-1.96v-1.402h.854v1.402zm-3.416 0v-1.402h.848v1.402zM201.017 90.75v-1.402h.859v1.402zm-3.416 0v-1.402h.854v1.402zm1.708-1.96v-1.402h.854v1.402zm-3.416 0v-1.402h.848v1.402zm5.124-1.966v-1.402h.859v1.402zm-3.416 0v-1.402h.854v1.402zm1.708-1.96V83.46h.854v1.402zm-3.416 0V83.46h.848v1.402zm5.124-1.967v-1.401h.859v1.401zm-3.416 0v-1.401h.854v1.401zm1.708-1.96v-1.402h.854v1.402zm-3.416 0v-1.402h.848v1.402zM208.017 90.75v-1.402h.859v1.402zm-3.416 0v-1.402h.854v1.402zm1.708-1.96v-1.402h.854v1.402zm-3.416 0v-1.402h.848v1.402zm5.124-1.966v-1.402h.859v1.402zm-3.416 0v-1.402h.854v1.402zm1.708-1.96V83.46h.854v1.402zm-3.416 0V83.46h.848v1.402zm5.124-1.967v-1.401h.859v1.401zm-3.416 0v-1.401h.854v1.401zm1.708-1.96v-1.402h.854v1.402zm-3.416 0v-1.402h.848v1.402zM215.017 90.75v-1.402h.859v1.402zm-3.416 0v-1.402h.854v1.402zm1.708-1.96v-1.402h.854v1.402zm-3.416 0v-1.402h.848v1.402zm5.124-1.966v-1.402h.859v1.402zm-3.416 0v-1.402h.854v1.402zm1.708-1.96V83.46h.854v1.402zm-3.416 0V83.46h.848v1.402zm5.124-1.967v-1.401h.859v1.401zm-3.416 0v-1.401h.854v1.401zm1.708-1.96v-1.402h.854v1.402zm-3.416 0v-1.402h.848v1.402zM222.017 90.75v-1.402h.859v1.402zm-3.416 0v-1.402h.854v1.402zm1.708-1.96v-1.402h.854v1.402zm-3.416 0v-1.402h.848v1.402zm5.124-1.966v-1.402h.859v1.402zm-3.416 0v-1.402h.854v1.402zm1.708-1.96V83.46h.854v1.402zm-3.416 0V83.46h.848v1.402zm5.124-1.967v-1.401h.859v1.401zm-3.416 0v-1.401h.854v1.401zm1.708-1.96v-1.402h.854v1.402zm-3.416 0v-1.402h.848v1.402zM229.017 90.75v-1.402h.859v1.402zm-3.416 0v-1.402h.854v1.402zm1.708-1.96v-1.402h.854v1.402zm-3.416 0v-1.402h.848v1.402zm5.124-1.966v-1.402h.859v1.402zm-3.416 0v-1.402h.854v1.402zm1.708-1.96V83.46h.854v1.402zm-3.416 0V83.46h.848v1.402zm5.124-1.967v-1.401h.859v1.401zm-3.416 0v-1.401h.854v1.401zm1.708-1.96v-1.402h.854v1.402zm-3.416 0v-1.402h.848v1.402zM236.017 90.75v-1.402h.859v1.402zm-3.416 0v-1.402h.854v1.402zm1.708-1.96v-1.402h.854v1.402zm-3.416 0v-1.402h.848v1.402zm5.124-1.966v-1.402h.859v1.402zm-3.416 0v-1.402h.854v1.402zm1.708-1.96V83.46h.854v1.402zm-3.416 0V83.46h.848v1.402zm5.124-1.967v-1.401h.859v1.401zm-3.416 0v-1.401h.854v1.401zm1.708-1.96v-1.402h.854v1.402zm-3.416 0v-1.402h.848v1.402zM243.017 90.75v-1.402h.859v1.402zm-3.416 0v-1.402h.854v1.402zm1.708-1.96v-1.402h.854v1.402zm-3.416 0v-1.402h.848v1.402zm5.124-1.966v-1.402h.859v1.402zm-3.416 0v-1.402h.854v1.402zm1.708-1.96V83.46h.854v1.402zm-3.416 0V83.46h.848v1.402zm5.124-1.967v-1.401h.859v1.401zm-3.416 0v-1.401h.854v1.401zm1.708-1.96v-1.402h.854v1.402zm-3.416 0v-1.402h.848v1.402zM250.017 90.75v-1.402h.859v1.402zm-3.416 0v-1.402h.854v1.402zm1.708-1.96v-1.402h.854v1.402zm-3.416 0v-1.402h.848v1.402zm5.124-1.966v-1.402h.859v1.402zm-3.416 0v-1.402h.854v1.402zm1.708-1.96V83.46h.854v1.402zm-3.416 0V83.46h.848v1.402zm5.124-1.967v-1.401h.859v1.401zm-3.416 0v-1.401h.854v1.401zm1.708-1.96v-1.402h.854v1.402zm-3.416 0v-1.402h.848v1.402zM257.017 90.75v-1.402h.859v1.402zm-3.416 0v-1.402h.854v1.402zm1.708-1.96v-1.402h.854v1.402zm-3.416 0v-1.402h.848v1.402zm5.124-1.966v-1.402h.859v1.402zm-3.416 0v-1.402h.854v1.402zm1.708-1.96V83.46h.854v1.402zm-3.416 0V83.46h.848v1.402zm5.124-1.967v-1.401h.859v1.401zm-3.416 0v-1.401h.854v1.401zm1.708-1.96v-1.402h.854v1.402zm-3.416 0v-1.402h.848v1.402zM264.017 90.75v-1.402h.859v1.402zm-3.416 0v-1.402h.854v1.402zm1.708-1.96v-1.402h.854v1.402zm-3.416 0v-1.402h.848v1.402zm5.124-1.966v-1.402h.859v1.402zm-3.416 0v-1.402h.854v1.402zm1.708-1.96V83.46h.854v1.402zm-3.416 0V83.46h.848v1.402zm5.124-1.967v-1.401h.859v1.401zm-3.416 0v-1.401h.854v1.401zm1.708-1.96v-1.402h.854v1.402zm-3.416 0v-1.402h.848v1.402zM271.017 90.75v-1.402h.859v1.402zm-3.416 0v-1.402h.854v1.402zm1.708-1.96v-1.402h.854v1.402zm-3.416 0v-1.402h.848v1.402zm5.124-1.966v-1.402h.859v1.402zm-3.416 0v-1.402h.854v1.402zm1.708-1.96V83.46h.854v1.402zm-3.416 0V83.46h.848v1.402zm5.124-1.967v-1.401h.859v1.401zm-3.416 0v-1.401h.854v1.401zm1.708-1.96v-1.402h.854v1.402zm-3.416 0v-1.402h.848v1.402zM278.017 90.75v-1.402h.859v1.402zm-3.416 0v-1.402h.854v1.402zm1.708-1.96v-1.402h.854v1.402zm-3.416 0v-1.402h.848v1.402zm5.124-1.966v-1.402h.859v1.402zm-3.416 0v-1.402h.854v1.402zm1.708-1.96V83.46h.854v1.402zm-3.416 0V83.46h.848v1.402zm5.124-1.967v-1.401h.859v1.401zm-3.416 0v-1.401h.854v1.401zm1.708-1.96v-1.402h.854v1.402zm-3.416 0v-1.402h.848v1.402zM285.017 90.75v-1.402h.859v1.402zm-3.416 0v-1.402h.854v1.402zm1.708-1.96v-1.402h.854v1.402zm-3.416 0v-1.402h.848v1.402zm5.124-1.966v-1.402h.859v1.402zm-3.416 0v-1.402h.854v1.402zm1.708-1.96V83.46h.854v1.402zm-3.416 0V83.46h.848v1.402zm5.124-1.967v-1.401h.859v1.401zm-3.416 0v-1.401h.854v1.401zm1.708-1.96v-1.402h.854v1.402zm-3.416 0v-1.402h.848v1.402zM292.017 90.75v-1.402h.859v1.402zm-3.416 0v-1.402h.854v1.402zm1.708-1.96v-1.402h.854v1.402zm-3.416 0v-1.402h.848v1.402zm5.124-1.966v-1.402h.859v1.402zm-3.416 0v-1.402h.854v1.402zm1.708-1.96V83.46h.854v1.402zm-3.416 0V83.46h.848v1.402zm5.124-1.967v-1.401h.859v1.401zm-3.416 0v-1.401h.854v1.401zm1.708-1.96v-1.402h.854v1.402zm-3.416 0v-1.402h.848v1.402zM299.017 90.75v-1.402h.859v1.402zm-3.416 0v-1.402h.854v1.402zm1.708-1.96v-1.402h.854v1.402zm-3.416 0v-1.402h.848v1.402zm5.124-1.966v-1.402h.859v1.402zm-3.416 0v-1.402h.854v1.402zm1.708-1.96V83.46h.854v1.402zm-3.416 0V83.46h.848v1.402zm5.124-1.967v-1.401h.859v1.401zm-3.416 0v-1.401h.854v1.401zm1.708-1.96v-1.402h.854v1.402zm-3.416 0v-1.402h.848v1.402zM306.017 90.75v-1.402h.859v1.402zm-3.416 0v-1.402h.854v1.402zm1.708-1.96v-1.402h.854v1.402zm-3.416 0v-1.402h.848v1.402zm5.124-1.966v-1.402h.859v1.402zm-3.416 0v-1.402h.854v1.402zm1.708-1.96V83.46h.854v1.402zm-3.416 0V83.46h.848v1.402zm5.124-1.967v-1.401h.859v1.401zm-3.416 0v-1.401h.854v1.401zm1.708-1.96v-1.402h.854v1.402zm-3.416 0v-1.402h.848v1.402zM313.017 90.75v-1.402h.859v1.402zm-3.416 0v-1.402h.854v1.402zm1.708-1.96v-1.402h.854v1.402zm-3.416 0v-1.402h.848v1.402zm5.124-1.966v-1.402h.859v1.402zm-3.416 0v-1.402h.854v1.402zm1.708-1.96V83.46h.854v1.402zm-3.416 0V83.46h.848v1.402zm5.124-1.967v-1.401h.859v1.401zm-3.416 0v-1.401h.854v1.401zm1.708-1.96v-1.402h.854v1.402zm-3.416 0v-1.402h.848v1.402z" fill="#FFD378"/><path d="M22.058 53.981h4.759v.913h-3.674v2.16h3.513v.912h-3.513v3.12h3.776V62h-4.86zM30.342 61.108q1.37 0 1.912-.674.542-.674.542-2.435 0-1.778-.54-2.452-.54-.674-1.914-.674h-.516v6.235zm.021-7.127q1.837 0 2.707.977.87.978.87 3.04 0 2.052-.87 3.027-.87.975-2.707.975h-1.627v-8.019zM36.08 53.981h4.452v.913h-1.68v6.193h1.68V62H36.08v-.913h1.68v-6.193h-1.68zM42.79 58.922v-4.941h1.09v5.436q0 .585.032.835t.113.384q.172.317.497.478.325.16.787.16.467 0 .79-.16.321-.161.499-.478.08-.135.112-.382.033-.247.033-.827v-5.446h1.085v4.941q0 1.23-.153 1.749-.154.518-.53.856-.354.317-.81.473-.457.156-1.026.156-.564 0-1.02-.156-.457-.156-.817-.473-.37-.333-.527-.862-.155-.529-.155-1.743zM49.193 54.008h1.45l1.386 4.071 1.397-4.071h1.455V62h-1.004v-7.063l-1.429 4.21h-.822l-1.434-4.21V62h-.999zM87.309 58.192q-.726 0-1.12.405-.395.406-.395 1.147t.4 1.152q.4.411 1.115.411.73 0 1.125-.405.395-.406.395-1.158 0-.736-.4-1.144-.4-.408-1.12-.408zm-.946-.451q-.693-.178-1.082-.66-.39-.484-.39-1.166 0-.957.65-1.518t1.768-.561q1.122 0 1.772.561.65.561.65 1.518 0 .682-.39 1.165-.389.483-1.082.66.806.178 1.233.715.427.537.427 1.391 0 1.085-.693 1.697-.693.613-1.917.613-1.225 0-1.915-.61t-.69-1.69q0-.858.427-1.398.427-.54 1.232-.717zm-.392-1.724q0 .644.344.983.344.338.994.338.655 0 .999-.338.343-.339.343-.983 0-.656-.34-1-.342-.343-1.002-.343-.65 0-.994.346-.344.347-.344.997z"/><path d="M103.017 64.75v-1.402h.859v1.402zm-3.416 0v-1.402h.854v1.402zm1.708-1.96v-1.402h.854v1.402zm-3.416 0v-1.402h.848v1.402zm5.124-1.966v-1.402h.859v1.402zm-3.416 0v-1.402h.854v1.402zm1.708-1.96V57.46h.854v1.402zm-3.416 0V57.46h.848v1.402zm5.124-1.967v-1.401h.859v1.401zm-3.416 0v-1.401h.854v1.401zm1.708-1.96v-1.402h.854v1.402zm-3.416 0v-1.402h.848v1.402zM110.017 64.75v-1.402h.859v1.402zm-3.416 0v-1.402h.854v1.402zm1.708-1.96v-1.402h.854v1.402zm-3.416 0v-1.402h.848v1.402zm5.124-1.966v-1.402h.859v1.402zm-3.416 0v-1.402h.854v1.402zm1.708-1.96V57.46h.854v1.402zm-3.416 0V57.46h.848v1.402zm5.124-1.967v-1.401h.859v1.401zm-3.416 0v-1.401h.854v1.401zm1.708-1.96v-1.402h.854v1.402zm-3.416 0v-1.402h.848v1.402zM117.017 64.75v-1.402h.859v1.402zm-3.416 0v-1.402h.854v1.402zm1.708-1.96v-1.402h.854v1.402zm-3.416 0v-1.402h.848v1.402zm5.124-1.966v-1.402h.859v1.402zm-3.416 0v-1.402h.854v1.402zm1.708-1.96V57.46h.854v1.402zm-3.416 0V57.46h.848v1.402zm5.124-1.967v-1.401h.859v1.401zm-3.416 0v-1.401h.854v1.401zm1.708-1.96v-1.402h.854v1.402zm-3.416 0v-1.402h.848v1.402zM124.017 64.75v-1.402h.859v1.402zm-3.416 0v-1.402h.854v1.402zm1.708-1.96v-1.402h.854v1.402zm-3.416 0v-1.402h.848v1.402zm5.124-1.966v-1.402h.859v1.402zm-3.416 0v-1.402h.854v1.402zm1.708-1.96V57.46h.854v1.402zm-3.416 0V57.46h.848v1.402zm5.124-1.967v-1.401h.859v1.401zm-3.416 0v-1.401h.854v1.401zm1.708-1.96v-1.402h.854v1.402zm-3.416 0v-1.402h.848v1.402zM131.017 64.75v-1.402h.859v1.402zm-3.416 0v-1.402h.854v1.402zm1.708-1.96v-1.402h.854v1.402zm-3.416 0v-1.402h.848v1.402zm5.124-1.966v-1.402h.859v1.402zm-3.416 0v-1.402h.854v1.402zm1.708-1.96V57.46h.854v1.402zm-3.416 0V57.46h.848v1.402zm5.124-1.967v-1.401h.859v1.401zm-3.416 0v-1.401h.854v1.401zm1.708-1.96v-1.402h.854v1.402zm-3.416 0v-1.402h.848v1.402zM138.017 64.75v-1.402h.859v1.402zm-3.416 0v-1.402h.854v1.402zm1.708-1.96v-1.402h.854v1.402zm-3.416 0v-1.402h.848v1.402zm5.124-1.966v-1.402h.859v1.402zm-3.416 0v-1.402h.854v1.402zm1.708-1.96V57.46h.854v1.402zm-3.416 0V57.46h.848v1.402zm5.124-1.967v-1.401h.859v1.401zm-3.416 0v-1.401h.854v1.401zm1.708-1.96v-1.402h.854v1.402zm-3.416 0v-1.402h.848v1.402zM145.017 64.75v-1.402h.859v1.402zm-3.416 0v-1.402h.854v1.402zm1.708-1.96v-1.402h.854v1.402zm-3.416 0v-1.402h.848v1.402zm5.124-1.966v-1.402h.859v1.402zm-3.416 0v-1.402h.854v1.402zm1.708-1.96V57.46h.854v1.402zm-3.416 0V57.46h.848v1.402zm5.124-1.967v-1.401h.859v1.401zm-3.416 0v-1.401h.854v1.401zm1.708-1.96v-1.402h.854v1.402zm-3.416 0v-1.402h.848v1.402zM152.017 64.75v-1.402h.859v1.402zm-3.416 0v-1.402h.854v1.402zm1.708-1.96v-1.402h.854v1.402zm-3.416 0v-1.402h.848v1.402zm5.124-1.966v-1.402h.859v1.402zm-3.416 0v-1.402h.854v1.402zm1.708-1.96V57.46h.854v1.402zm-3.416 0V57.46h.848v1.402zm5.124-1.967v-1.401h.859v1.401zm-3.416 0v-1.401h.854v1.401zm1.708-1.96v-1.402h.854v1.402zm-3.416 0v-1.402h.848v1.402zM159.017 64.75v-1.402h.859v1.402zm-3.416 0v-1.402h.854v1.402zm1.708-1.96v-1.402h.854v1.402zm-3.416 0v-1.402h.848v1.402zm5.124-1.966v-1.402h.859v1.402zm-3.416 0v-1.402h.854v1.402zm1.708-1.96V57.46h.854v1.402zm-3.416 0V57.46h.848v1.402zm5.124-1.967v-1.401h.859v1.401zm-3.416 0v-1.401h.854v1.401zm1.708-1.96v-1.402h.854v1.402zm-3.416 0v-1.402h.848v1.402zM166.017 64.75v-1.402h.859v1.402zm-3.416 0v-1.402h.854v1.402zm1.708-1.96v-1.402h.854v1.402zm-3.416 0v-1.402h.848v1.402zm5.124-1.966v-1.402h.859v1.402zm-3.416 0v-1.402h.854v1.402zm1.708-1.96V57.46h.854v1.402zm-3.416 0V57.46h.848v1.402zm5.124-1.967v-1.401h.859v1.401zm-3.416 0v-1.401h.854v1.401zm1.708-1.96v-1.402h.854v1.402zm-3.416 0v-1.402h.848v1.402zM173.017 64.75v-1.402h.859v1.402zm-3.416 0v-1.402h.854v1.402zm1.708-1.96v-1.402h.854v1.402zm-3.416 0v-1.402h.848v1.402zm5.124-1.966v-1.402h.859v1.402zm-3.416 0v-1.402h.854v1.402zm1.708-1.96V57.46h.854v1.402zm-3.416 0V57.46h.848v1.402zm5.124-1.967v-1.401h.859v1.401zm-3.416 0v-1.401h.854v1.401zm1.708-1.96v-1.402h.854v1.402zm-3.416 0v-1.402h.848v1.402zM180.017 64.75v-1.402h.859v1.402zm-3.416 0v-1.402h.854v1.402zm1.708-1.96v-1.402h.854v1.402zm-3.416 0v-1.402h.848v1.402zm5.124-1.966v-1.402h.859v1.402zm-3.416 0v-1.402h.854v1.402zm1.708-1.96V57.46h.854v1.402zm-3.416 0V57.46h.848v1.402zm5.124-1.967v-1.401h.859v1.401zm-3.416 0v-1.401h.854v1.401zm1.708-1.96v-1.402h.854v1.402zm-3.416 0v-1.402h.848v1.402zM187.017 64.75v-1.402h.859v1.402zm-3.416 0v-1.402h.854v1.402zm1.708-1.96v-1.402h.854v1.402zm-3.416 0v-1.402h.848v1.402zm5.124-1.966v-1.402h.859v1.402zm-3.416 0v-1.402h.854v1.402zm1.708-1.96V57.46h.854v1.402zm-3.416 0V57.46h.848v1.402zm5.124-1.967v-1.401h.859v1.401zm-3.416 0v-1.401h.854v1.401zm1.708-1.96v-1.402h.854v1.402zm-3.416 0v-1.402h.848v1.402zM194.017 64.75v-1.402h.859v1.402zm-3.416 0v-1.402h.854v1.402zm1.708-1.96v-1.402h.854v1.402zm-3.416 0v-1.402h.848v1.402zm5.124-1.966v-1.402h.859v1.402zm-3.416 0v-1.402h.854v1.402zm1.708-1.96V57.46h.854v1.402zm-3.416 0V57.46h.848v1.402zm5.124-1.967v-1.401h.859v1.401zm-3.416 0v-1.401h.854v1.401zm1.708-1.96v-1.402h.854v1.402zm-3.416 0v-1.402h.848v1.402zM201.017 64.75v-1.402h.859v1.402zm-3.416 0v-1.402h.854v1.402zm1.708-1.96v-1.402h.854v1.402zm-3.416 0v-1.402h.848v1.402zm5.124-1.966v-1.402h.859v1.402zm-3.416 0v-1.402h.854v1.402zm1.708-1.96V57.46h.854v1.402zm-3.416 0V57.46h.848v1.402zm5.124-1.967v-1.401h.859v1.401zm-3.416 0v-1.401h.854v1.401zm1.708-1.96v-1.402h.854v1.402zm-3.416 0v-1.402h.848v1.402z" fill="#FFA741"/><path d="M28.736 27.981h1.09v3.072h2.97v-3.072h1.09V36h-1.09v-4.034h-2.97V36h-1.09zM36.08 27.981h4.452v.913h-1.68v6.193h1.68V36H36.08v-.913h1.68v-6.193h-1.68zM47.93 35.34q-.435.402-.98.609-.546.207-1.18.207-1.525 0-2.374-1.093-.848-1.093-.848-3.064 0-1.966.86-3.065.859-1.098 2.39-1.098.504 0 .966.142.462.143.892.433v1.111q-.435-.413-.892-.61-.456-.195-.967-.195-1.058 0-1.587.819-.529.819-.529 2.463 0 1.67.513 2.473.513.803 1.577.803.36 0 .63-.083.272-.084.492-.26v-2.155h-1.165v-.891h2.202zM49.736 27.981h1.09v3.072h2.97v-3.072h1.09V36h-1.09v-4.034h-2.97V36h-1.09zM87.948 28.97l-2.53 4.237h2.53zm-.177-.989h1.256v5.226h1.07v.88h-1.07V36h-1.08v-1.912h-3.4v-1.026z"/><path d="M103.017 38.75v-1.402h.859v1.402zm-3.416 0v-1.402h.854v1.402zm1.708-1.96v-1.402h.854v1.402zm-3.416 0v-1.402h.848v1.402zm5.124-1.966v-1.402h.859v1.402zm-3.416 0v-1.402h.854v1.402zm1.708-1.96V31.46h.854v1.402zm-3.416 0V31.46h.848v1.402zm5.124-1.967v-1.401h.859v1.401zm-3.416 0v-1.401h.854v1.401zm1.708-1.96v-1.402h.854v1.402zm-3.416 0v-1.402h.848v1.402zM110.017 38.75v-1.402h.859v1.402zm-3.416 0v-1.402h.854v1.402zm1.708-1.96v-1.402h.854v1.402zm-3.416 0v-1.402h.848v1.402zm5.124-1.966v-1.402h.859v1.402zm-3.416 0v-1.402h.854v1.402zm1.708-1.96V31.46h.854v1.402zm-3.416 0V31.46h.848v1.402zm5.124-1.967v-1.401h.859v1.401zm-3.416 0v-1.401h.854v1.401zm1.708-1.96v-1.402h.854v1.402zm-3.416 0v-1.402h.848v1.402zM117.017 38.75v-1.402h.859v1.402zm-3.416 0v-1.402h.854v1.402zm1.708-1.96v-1.402h.854v1.402zm-3.416 0v-1.402h.848v1.402zm5.124-1.966v-1.402h.859v1.402zm-3.416 0v-1.402h.854v1.402zm1.708-1.96V31.46h.854v1.402zm-3.416 0V31.46h.848v1.402zm5.124-1.967v-1.401h.859v1.401zm-3.416 0v-1.401h.854v1.401zm1.708-1.96v-1.402h.854v1.402zm-3.416 0v-1.402h.848v1.402zM124.017 38.75v-1.402h.859v1.402zm-3.416 0v-1.402h.854v1.402zm1.708-1.96v-1.402h.854v1.402zm-3.416 0v-1.402h.848v1.402zm5.124-1.966v-1.402h.859v1.402zm-3.416 0v-1.402h.854v1.402zm1.708-1.96V31.46h.854v1.402zm-3.416 0V31.46h.848v1.402zm5.124-1.967v-1.401h.859v1.401zm-3.416 0v-1.401h.854v1.401zm1.708-1.96v-1.402h.854v1.402zm-3.416 0v-1.402h.848v1.402z" fill="#F99"/><path d="M11.082 6.213q.419.108.714.406.296.298.736 1.19L13.622 10h-1.165l-.956-2.025q-.414-.865-.744-1.114-.33-.25-.862-.25H8.858V10h-1.09V1.981h2.234q1.322 0 2.025.596.704.596.704 1.724 0 .795-.432 1.297-.433.503-1.217.615zm-2.224-3.34v2.846h1.187q.78 0 1.16-.349.382-.349.382-1.069 0-.693-.406-1.06-.405-.368-1.179-.368zM15.08 1.981h4.452v.913h-1.68v6.193h1.68V10H15.08v-.913h1.68V2.894h-1.68zM21.252 1.981h6.118v.913h-2.508V10h-1.09V2.894h-2.52zM29.08 1.981h4.452v.913h-1.68v6.193h1.68V10H29.08v-.913h1.68V2.894h-1.68zM40.763 9.715q-.413.22-.848.33-.436.11-.924.11-1.542 0-2.393-1.09-.851-1.09-.851-3.066 0-1.966.856-3.065.857-1.098 2.388-1.098.488 0 .924.11.435.11.848.33v1.112q-.397-.327-.854-.5-.456-.171-.918-.171-1.058 0-1.585.816Q36.88 4.35 36.88 6q0 1.643.526 2.46.527.816 1.585.816.472 0 .926-.172.454-.172.846-.5zM45.309 2.937l-1.144 4.104h2.288zm-.656-.956h1.316L48.424 10H47.3l-.59-2.09H43.9l-.58 2.09H42.2zM50.155 1.981h1.09v7.106h3.873V10h-4.963zM87.309 1.863q1.283 0 1.941 1.047.658 1.048.658 3.1 0 2.051-.658 3.098-.658 1.048-1.941 1.048-1.284 0-1.94-1.048-.655-1.047-.655-3.099 0-2.051.656-3.099.655-1.047 1.939-1.047zm0 7.433q.762 0 1.136-.81.373-.812.373-2.477 0-.886-.108-1.6L86.154 8.41q.403.886 1.155.886zm0-6.574q-.758 0-1.131.811t-.373 2.476q0 .758.102 1.418l2.503-3.99q-.409-.715-1.101-.715z"/></svg>