<svg xmlns="http://www.w3.org/2000/svg" width="673" height="287"><path d="M2.879 117.32v-6.908H6.73v.924H3.738v5.983z"/><path d="M2.879 130.32V116.3h.86v14.02z"/><path d="M2.879 143.32V129.3h.86v14.02z"/><path d="M2.879 156.32V142.3h.86v14.02z"/><path d="M2.879 163.336V155.3h.86v7.111H6.73v.924z"/><path d="M12.017 181.75v-1.402h.859v1.402zm-3.416 0v-1.402h.854v1.402zm1.708-1.96v-1.402h.854v1.402zm-3.416 0v-1.402h.848v1.402zm5.124-1.966v-1.402h.859v1.402zm-3.416 0v-1.402h.854v1.402zm1.708-1.96v-1.403h.854v1.402zm-3.416 0v-1.403h.848v1.402zm5.124-1.967v-1.401h.859v1.401zm-3.416 0v-1.401h.854v1.401zm1.708-1.96v-1.402h.854v1.402zm-3.416 0v-1.402h.848v1.402zM19.017 181.75v-1.402h.859v1.402zm-3.416 0v-1.402h.854v1.402zm1.708-1.96v-1.402h.854v1.402zm-3.416 0v-1.402h.848v1.402zm5.124-1.966v-1.402h.859v1.402zm-3.416 0v-1.402h.854v1.402zm1.708-1.96v-1.403h.854v1.402zm-3.416 0v-1.403h.848v1.402zm5.124-1.967v-1.401h.859v1.401zm-3.416 0v-1.401h.854v1.401zm1.708-1.96v-1.402h.854v1.402zm-3.416 0v-1.402h.848v1.402zM26.017 181.75v-1.402h.859v1.402zm-3.416 0v-1.402h.854v1.402zm1.708-1.96v-1.402h.854v1.402zm-3.416 0v-1.402h.848v1.402zm5.124-1.966v-1.402h.859v1.402zm-3.416 0v-1.402h.854v1.402zm1.708-1.96v-1.403h.854v1.402zm-3.416 0v-1.403h.848v1.402zm5.124-1.967v-1.401h.859v1.401zm-3.416 0v-1.401h.854v1.401zm1.708-1.96v-1.402h.854v1.402zm-3.416 0v-1.402h.848v1.402zM33.017 181.75v-1.402h.859v1.402zm-3.416 0v-1.402h.854v1.402zm1.708-1.96v-1.402h.854v1.402zm-3.416 0v-1.402h.848v1.402zm5.124-1.966v-1.402h.859v1.402zm-3.416 0v-1.402h.854v1.402zm1.708-1.96v-1.403h.854v1.402zm-3.416 0v-1.403h.848v1.402zm5.124-1.967v-1.401h.859v1.401zm-3.416 0v-1.401h.854v1.401zm1.708-1.96v-1.402h.854v1.402zm-3.416 0v-1.402h.848v1.402zM40.017 181.75v-1.402h.859v1.402zm-3.416 0v-1.402h.854v1.402zm1.708-1.96v-1.402h.854v1.402zm-3.416 0v-1.402h.848v1.402zm5.124-1.966v-1.402h.859v1.402zm-3.416 0v-1.402h.854v1.402zm1.708-1.96v-1.403h.854v1.402zm-3.416 0v-1.403h.848v1.402zm5.124-1.967v-1.401h.859v1.401zm-3.416 0v-1.401h.854v1.401zm1.708-1.96v-1.402h.854v1.402zm-3.416 0v-1.402h.848v1.402zM47.017 181.75v-1.402h.859v1.402zm-3.416 0v-1.402h.854v1.402zm1.708-1.96v-1.402h.854v1.402zm-3.416 0v-1.402h.848v1.402zm5.124-1.966v-1.402h.859v1.402zm-3.416 0v-1.402h.854v1.402zm1.708-1.96v-1.403h.854v1.402zm-3.416 0v-1.403h.848v1.402zm5.124-1.967v-1.401h.859v1.401zm-3.416 0v-1.401h.854v1.401zm1.708-1.96v-1.402h.854v1.402zm-3.416 0v-1.402h.848v1.402zM54.017 181.75v-1.402h.859v1.402zm-3.416 0v-1.402h.854v1.402zm1.708-1.96v-1.402h.854v1.402zm-3.416 0v-1.402h.848v1.402zm5.124-1.966v-1.402h.859v1.402zm-3.416 0v-1.402h.854v1.402zm1.708-1.96v-1.403h.854v1.402zm-3.416 0v-1.403h.848v1.402zm5.124-1.967v-1.401h.859v1.401zm-3.416 0v-1.401h.854v1.401zm1.708-1.96v-1.402h.854v1.402zm-3.416 0v-1.402h.848v1.402zM61.017 181.75v-1.402h.859v1.402zm-3.416 0v-1.402h.854v1.402zm1.708-1.96v-1.402h.854v1.402zm-3.416 0v-1.402h.848v1.402zm5.124-1.966v-1.402h.859v1.402zm-3.416 0v-1.402h.854v1.402zm1.708-1.96v-1.403h.854v1.402zm-3.416 0v-1.403h.848v1.402zm5.124-1.967v-1.401h.859v1.401zm-3.416 0v-1.401h.854v1.401zm1.708-1.96v-1.402h.854v1.402zm-3.416 0v-1.402h.848v1.402zM68.017 181.75v-1.402h.859v1.402zm-3.416 0v-1.402h.854v1.402zm1.708-1.96v-1.402h.854v1.402zm-3.416 0v-1.402h.848v1.402zm5.124-1.966v-1.402h.859v1.402zm-3.416 0v-1.402h.854v1.402zm1.708-1.96v-1.403h.854v1.402zm-3.416 0v-1.403h.848v1.402zm5.124-1.967v-1.401h.859v1.401zm-3.416 0v-1.401h.854v1.401zm1.708-1.96v-1.402h.854v1.402zm-3.416 0v-1.402h.848v1.402zM75.017 181.75v-1.402h.859v1.402zm-3.416 0v-1.402h.854v1.402zm1.708-1.96v-1.402h.854v1.402zm-3.416 0v-1.402h.848v1.402zm5.124-1.966v-1.402h.859v1.402zm-3.416 0v-1.402h.854v1.402zm1.708-1.96v-1.403h.854v1.402zm-3.416 0v-1.403h.848v1.402zm5.124-1.967v-1.401h.859v1.401zm-3.416 0v-1.401h.854v1.401zm1.708-1.96v-1.402h.854v1.402zm-3.416 0v-1.402h.848v1.402z" fill="#98CBFE"/><path d="M79.879 189.336V181.3h.86v7.111h2.991v.924zM205.879 221.32v-6.908h3.851v.924h-2.992v5.983z"/><path d="M205.879 234.32V220.3h.86v14.02z"/><path d="M205.879 247.32V233.3h.86v14.02z"/><path d="M205.879 260.32V246.3h.86v14.02z"/><path d="M205.879 267.336V259.3h.86v7.111h2.991v.924z"/><path d="M215.017 285.75v-1.402h.859v1.402zm-3.416 0v-1.402h.854v1.402zm1.708-1.96v-1.402h.854v1.402zm-3.416 0v-1.402h.848v1.402zm5.124-1.966v-1.402h.859v1.402zm-3.416 0v-1.402h.854v1.402zm1.708-1.96v-1.403h.854v1.402zm-3.416 0v-1.403h.848v1.402zm5.124-1.967v-1.401h.859v1.401zm-3.416 0v-1.401h.854v1.401zm1.708-1.96v-1.402h.854v1.402zm-3.416 0v-1.402h.848v1.402zM222.017 285.75v-1.402h.859v1.402zm-3.416 0v-1.402h.854v1.402zm1.708-1.96v-1.402h.854v1.402zm-3.416 0v-1.402h.848v1.402zm5.124-1.966v-1.402h.859v1.402zm-3.416 0v-1.402h.854v1.402zm1.708-1.96v-1.403h.854v1.402zm-3.416 0v-1.403h.848v1.402zm5.124-1.967v-1.401h.859v1.401zm-3.416 0v-1.401h.854v1.401zm1.708-1.96v-1.402h.854v1.402zm-3.416 0v-1.402h.848v1.402zM229.017 285.75v-1.402h.859v1.402zm-3.416 0v-1.402h.854v1.402zm1.708-1.96v-1.402h.854v1.402zm-3.416 0v-1.402h.848v1.402zm5.124-1.966v-1.402h.859v1.402zm-3.416 0v-1.402h.854v1.402zm1.708-1.96v-1.403h.854v1.402zm-3.416 0v-1.403h.848v1.402zm5.124-1.967v-1.401h.859v1.401zm-3.416 0v-1.401h.854v1.401zm1.708-1.96v-1.402h.854v1.402zm-3.416 0v-1.402h.848v1.402zM236.017 285.75v-1.402h.859v1.402zm-3.416 0v-1.402h.854v1.402zm1.708-1.96v-1.402h.854v1.402zm-3.416 0v-1.402h.848v1.402zm5.124-1.966v-1.402h.859v1.402zm-3.416 0v-1.402h.854v1.402zm1.708-1.96v-1.403h.854v1.402zm-3.416 0v-1.403h.848v1.402zm5.124-1.967v-1.401h.859v1.401zm-3.416 0v-1.401h.854v1.401zm1.708-1.96v-1.402h.854v1.402zm-3.416 0v-1.402h.848v1.402zM243.017 285.75v-1.402h.859v1.402zm-3.416 0v-1.402h.854v1.402zm1.708-1.96v-1.402h.854v1.402zm-3.416 0v-1.402h.848v1.402zm5.124-1.966v-1.402h.859v1.402zm-3.416 0v-1.402h.854v1.402zm1.708-1.96v-1.403h.854v1.402zm-3.416 0v-1.403h.848v1.402zm5.124-1.967v-1.401h.859v1.401zm-3.416 0v-1.401h.854v1.401zm1.708-1.96v-1.402h.854v1.402zm-3.416 0v-1.402h.848v1.402zM250.017 285.75v-1.402h.859v1.402zm-3.416 0v-1.402h.854v1.402zm1.708-1.96v-1.402h.854v1.402zm-3.416 0v-1.402h.848v1.402zm5.124-1.966v-1.402h.859v1.402zm-3.416 0v-1.402h.854v1.402zm1.708-1.96v-1.403h.854v1.402zm-3.416 0v-1.403h.848v1.402zm5.124-1.967v-1.401h.859v1.401zm-3.416 0v-1.401h.854v1.401zm1.708-1.96v-1.402h.854v1.402zm-3.416 0v-1.402h.848v1.402zM257.017 285.75v-1.402h.859v1.402zm-3.416 0v-1.402h.854v1.402zm1.708-1.96v-1.402h.854v1.402zm-3.416 0v-1.402h.848v1.402zm5.124-1.966v-1.402h.859v1.402zm-3.416 0v-1.402h.854v1.402zm1.708-1.96v-1.403h.854v1.402zm-3.416 0v-1.403h.848v1.402zm5.124-1.967v-1.401h.859v1.401zm-3.416 0v-1.401h.854v1.401zm1.708-1.96v-1.402h.854v1.402zm-3.416 0v-1.402h.848v1.402zM264.017 285.75v-1.402h.859v1.402zm-3.416 0v-1.402h.854v1.402zm1.708-1.96v-1.402h.854v1.402zm-3.416 0v-1.402h.848v1.402zm5.124-1.966v-1.402h.859v1.402zm-3.416 0v-1.402h.854v1.402zm1.708-1.96v-1.403h.854v1.402zm-3.416 0v-1.403h.848v1.402zm5.124-1.967v-1.401h.859v1.401zm-3.416 0v-1.401h.854v1.401zm1.708-1.96v-1.402h.854v1.402zm-3.416 0v-1.402h.848v1.402zM271.017 285.75v-1.402h.859v1.402zm-3.416 0v-1.402h.854v1.402zm1.708-1.96v-1.402h.854v1.402zm-3.416 0v-1.402h.848v1.402zm5.124-1.966v-1.402h.859v1.402zm-3.416 0v-1.402h.854v1.402zm1.708-1.96v-1.403h.854v1.402zm-3.416 0v-1.403h.848v1.402zm5.124-1.967v-1.401h.859v1.401zm-3.416 0v-1.401h.854v1.401zm1.708-1.96v-1.402h.854v1.402zm-3.416 0v-1.402h.848v1.402zM278.017 285.75v-1.402h.859v1.402zm-3.416 0v-1.402h.854v1.402zm1.708-1.96v-1.402h.854v1.402zm-3.416 0v-1.402h.848v1.402zm5.124-1.966v-1.402h.859v1.402zm-3.416 0v-1.402h.854v1.402zm1.708-1.96v-1.403h.854v1.402zm-3.416 0v-1.403h.848v1.402zm5.124-1.967v-1.401h.859v1.401zm-3.416 0v-1.401h.854v1.401zm1.708-1.96v-1.402h.854v1.402zm-3.416 0v-1.402h.848v1.402zM285.017 285.75v-1.402h.859v1.402zm-3.416 0v-1.402h.854v1.402zm1.708-1.96v-1.402h.854v1.402zm-3.416 0v-1.402h.848v1.402zm5.124-1.966v-1.402h.859v1.402zm-3.416 0v-1.402h.854v1.402zm1.708-1.96v-1.403h.854v1.402zm-3.416 0v-1.403h.848v1.402zm5.124-1.967v-1.401h.859v1.401zm-3.416 0v-1.401h.854v1.401zm1.708-1.96v-1.402h.854v1.402zm-3.416 0v-1.402h.848v1.402zM292.017 285.75v-1.402h.859v1.402zm-3.416 0v-1.402h.854v1.402zm1.708-1.96v-1.402h.854v1.402zm-3.416 0v-1.402h.848v1.402zm5.124-1.966v-1.402h.859v1.402zm-3.416 0v-1.402h.854v1.402zm1.708-1.96v-1.403h.854v1.402zm-3.416 0v-1.403h.848v1.402zm5.124-1.967v-1.401h.859v1.401zm-3.416 0v-1.401h.854v1.401zm1.708-1.96v-1.402h.854v1.402zm-3.416 0v-1.402h.848v1.402zM299.017 285.75v-1.402h.859v1.402zm-3.416 0v-1.402h.854v1.402zm1.708-1.96v-1.402h.854v1.402zm-3.416 0v-1.402h.848v1.402zm5.124-1.966v-1.402h.859v1.402zm-3.416 0v-1.402h.854v1.402zm1.708-1.96v-1.403h.854v1.402zm-3.416 0v-1.403h.848v1.402zm5.124-1.967v-1.401h.859v1.401zm-3.416 0v-1.401h.854v1.401zm1.708-1.96v-1.402h.854v1.402zm-3.416 0v-1.402h.848v1.402zM306.017 285.75v-1.402h.859v1.402zm-3.416 0v-1.402h.854v1.402zm1.708-1.96v-1.402h.854v1.402zm-3.416 0v-1.402h.848v1.402zm5.124-1.966v-1.402h.859v1.402zm-3.416 0v-1.402h.854v1.402zm1.708-1.96v-1.403h.854v1.402zm-3.416 0v-1.403h.848v1.402zm5.124-1.967v-1.401h.859v1.401zm-3.416 0v-1.401h.854v1.401zm1.708-1.96v-1.402h.854v1.402zm-3.416 0v-1.402h.848v1.402zM313.017 285.75v-1.402h.859v1.402zm-3.416 0v-1.402h.854v1.402zm1.708-1.96v-1.402h.854v1.402zm-3.416 0v-1.402h.848v1.402zm5.124-1.966v-1.402h.859v1.402zm-3.416 0v-1.402h.854v1.402zm1.708-1.96v-1.403h.854v1.402zm-3.416 0v-1.403h.848v1.402zm5.124-1.967v-1.401h.859v1.401zm-3.416 0v-1.401h.854v1.401zm1.708-1.96v-1.402h.854v1.402zm-3.416 0v-1.402h.848v1.402zM320.017 285.75v-1.402h.859v1.402zm-3.416 0v-1.402h.854v1.402zm1.708-1.96v-1.402h.854v1.402zm-3.416 0v-1.402h.848v1.402zm5.124-1.966v-1.402h.859v1.402zm-3.416 0v-1.402h.854v1.402zm1.708-1.96v-1.403h.854v1.402zm-3.416 0v-1.403h.848v1.402zm5.124-1.967v-1.401h.859v1.401zm-3.416 0v-1.401h.854v1.401zm1.708-1.96v-1.402h.854v1.402zm-3.416 0v-1.402h.848v1.402zM327.017 285.75v-1.402h.859v1.402zm-3.416 0v-1.402h.854v1.402zm1.708-1.96v-1.402h.854v1.402zm-3.416 0v-1.402h.848v1.402zm5.124-1.966v-1.402h.859v1.402zm-3.416 0v-1.402h.854v1.402zm1.708-1.96v-1.403h.854v1.402zm-3.416 0v-1.403h.848v1.402zm5.124-1.967v-1.401h.859v1.401zm-3.416 0v-1.401h.854v1.401zm1.708-1.96v-1.402h.854v1.402zm-3.416 0v-1.402h.848v1.402zM334.017 285.75v-1.402h.859v1.402zm-3.416 0v-1.402h.854v1.402zm1.708-1.96v-1.402h.854v1.402zm-3.416 0v-1.402h.848v1.402zm5.124-1.966v-1.402h.859v1.402zm-3.416 0v-1.402h.854v1.402zm1.708-1.96v-1.403h.854v1.402zm-3.416 0v-1.403h.848v1.402zm5.124-1.967v-1.401h.859v1.401zm-3.416 0v-1.401h.854v1.401zm1.708-1.96v-1.402h.854v1.402zm-3.416 0v-1.402h.848v1.402zM341.017 285.75v-1.402h.859v1.402zm-3.416 0v-1.402h.854v1.402zm1.708-1.96v-1.402h.854v1.402zm-3.416 0v-1.402h.848v1.402zm5.124-1.966v-1.402h.859v1.402zm-3.416 0v-1.402h.854v1.402zm1.708-1.96v-1.403h.854v1.402zm-3.416 0v-1.403h.848v1.402zm5.124-1.967v-1.401h.859v1.401zm-3.416 0v-1.401h.854v1.401zm1.708-1.96v-1.402h.854v1.402zm-3.416 0v-1.402h.848v1.402zM348.017 285.75v-1.402h.859v1.402zm-3.416 0v-1.402h.854v1.402zm1.708-1.96v-1.402h.854v1.402zm-3.416 0v-1.402h.848v1.402zm5.124-1.966v-1.402h.859v1.402zm-3.416 0v-1.402h.854v1.402zm1.708-1.96v-1.403h.854v1.402zm-3.416 0v-1.403h.848v1.402zm5.124-1.967v-1.401h.859v1.401zm-3.416 0v-1.401h.854v1.401zm1.708-1.96v-1.402h.854v1.402zm-3.416 0v-1.402h.848v1.402zM355.017 285.75v-1.402h.859v1.402zm-3.416 0v-1.402h.854v1.402zm1.708-1.96v-1.402h.854v1.402zm-3.416 0v-1.402h.848v1.402zm5.124-1.966v-1.402h.859v1.402zm-3.416 0v-1.402h.854v1.402zm1.708-1.96v-1.403h.854v1.402zm-3.416 0v-1.403h.848v1.402zm5.124-1.967v-1.401h.859v1.401zm-3.416 0v-1.401h.854v1.401zm1.708-1.96v-1.402h.854v1.402zm-3.416 0v-1.402h.848v1.402zM362.017 285.75v-1.402h.859v1.402zm-3.416 0v-1.402h.854v1.402zm1.708-1.96v-1.402h.854v1.402zm-3.416 0v-1.402h.848v1.402zm5.124-1.966v-1.402h.859v1.402zm-3.416 0v-1.402h.854v1.402zm1.708-1.96v-1.403h.854v1.402zm-3.416 0v-1.403h.848v1.402zm5.124-1.967v-1.401h.859v1.401zm-3.416 0v-1.401h.854v1.401zm1.708-1.96v-1.402h.854v1.402zm-3.416 0v-1.402h.848v1.402zM369.017 285.75v-1.402h.859v1.402zm-3.416 0v-1.402h.854v1.402zm1.708-1.96v-1.402h.854v1.402zm-3.416 0v-1.402h.848v1.402zm5.124-1.966v-1.402h.859v1.402zm-3.416 0v-1.402h.854v1.402zm1.708-1.96v-1.403h.854v1.402zm-3.416 0v-1.403h.848v1.402zm5.124-1.967v-1.401h.859v1.401zm-3.416 0v-1.401h.854v1.401zm1.708-1.96v-1.402h.854v1.402zm-3.416 0v-1.402h.848v1.402z" fill="#A7D3A9"/><path d="M209.893 267.336v-.924h6.837v.924zM216.893 267.336v-.924h6.837v.924zM223.893 267.336v-.924h6.837v.924zM230.893 267.336v-.924h6.837v.924zM237.893 267.336v-.924h6.837v.924zM244.893 267.336v-.924h6.837v.924zM251.893 267.336v-.924h6.837v.924zM258.893 267.336v-.924h6.837v.924zM265.893 267.336v-.924h6.837v.924zM272.893 267.336v-.924h6.837v.924zM279.893 267.336v-.924h6.837v.924zM286.893 267.336v-.924h6.837v.924zM293.893 267.336v-.924h6.837v.924zM300.893 267.336v-.924h6.837v.924zM307.893 267.336v-.924h6.837v.924zM314.893 267.336v-.924h6.837v.924zM321.893 267.336v-.924h6.837v.924zM328.893 267.336v-.924h6.837v.924zM335.893 267.336v-.924h6.837v.924zM342.893 267.336v-.924h6.837v.924zM349.893 267.336v-.924h6.837v.924zM356.893 267.336v-.924h2.986v-7.111h.86v8.035z"/><path d="M369.017 272.75v-1.402h.859v1.402zm-3.416 0v-1.402h.854v1.402zm1.708-1.96v-1.402h.854v1.402zm-3.416 0v-1.402h.848v1.402zm5.124-1.966v-1.402h.859v1.402zm-3.416 0v-1.402h.854v1.402zm1.708-1.96v-1.403h.854v1.402zm-3.416 0v-1.403h.848v1.402zm5.124-1.967v-1.401h.859v1.401zm-3.416 0v-1.401h.854v1.401zm1.708-1.96v-1.402h.854v1.402zm-3.416 0v-1.402h.848v1.402z" fill="#A7D3A9"/><path d="M220.309 236.937l-1.144 4.104h2.288zm-.656-.956h1.316l2.455 8.019H222.3l-.59-2.09h-2.81l-.58 2.09H217.2zM359.879 260.32V246.3h.86v14.02z"/><path d="M369.017 259.75v-1.402h.859v1.402zm-3.416 0v-1.402h.854v1.402zm1.708-1.96v-1.402h.854v1.402zm-3.416 0v-1.402h.848v1.402zm5.124-1.966v-1.402h.859v1.402zm-3.416 0v-1.402h.854v1.402zm1.708-1.96v-1.403h.854v1.402zm-3.416 0v-1.403h.848v1.402zm5.124-1.967v-1.401h.859v1.401zm-3.416 0v-1.401h.854v1.401zm1.708-1.96v-1.402h.854v1.402zm-3.416 0v-1.402h.848v1.402z" fill="#A7D3A9"/><path d="M224.537 237.984h1.026l1.746 5.05 1.75-5.05h1.026L227.948 244h-1.273zM234.77 240.976h-.327q-.865 0-1.303.304-.437.303-.437.905 0 .542.327.843.328.3.908.3.816 0 1.284-.566.467-.567.472-1.566v-.22zm1.918-.408V244h-.994v-.892q-.317.538-.797.793-.481.255-1.168.255-.919 0-1.467-.519-.548-.518-.548-1.388 0-1.004.674-1.525.674-.521 1.98-.521h1.326v-.156q-.005-.72-.365-1.045-.36-.325-1.15-.325-.504 0-1.02.145-.515.145-1.004.425v-.989q.548-.21 1.05-.314.502-.105.975-.105.746 0 1.275.22.53.22.857.661.204.269.29.664.086.394.086 1.184zM243.226 238.194v.967q-.424-.247-.854-.371-.43-.123-.875-.123-.672 0-1.002.217-.33.218-.33.663 0 .403.247.602.247.199 1.23.387l.397.075q.736.14 1.115.558.378.42.378 1.09 0 .892-.634 1.395-.633.502-1.761.502-.446 0-.935-.094-.489-.094-1.058-.282v-1.02q.553.284 1.058.426.505.143.956.143.655 0 1.015-.266.36-.266.36-.744 0-.688-1.316-.95l-.043-.012-.37-.075q-.854-.166-1.246-.561t-.392-1.077q0-.865.585-1.335t1.67-.47q.484 0 .93.089.445.089.875.266zM248.298 236.276v1.708h2.245v.768h-2.245v3.266q0 .666.252.93.253.262.881.262h1.112v.79h-1.209q-1.111 0-1.568-.446-.456-.446-.456-1.536v-3.266h-1.606v-.768h1.606v-1.708zM255.77 240.976h-.327q-.865 0-1.303.304-.437.303-.437.905 0 .542.327.843.328.3.908.3.816 0 1.284-.566.467-.567.472-1.566v-.22zm1.918-.408V244h-.994v-.892q-.317.538-.797.793-.481.255-1.168.255-.919 0-1.467-.519-.548-.518-.548-1.388 0-1.004.674-1.525.674-.521 1.98-.521h1.326v-.156q-.005-.72-.365-1.045-.36-.325-1.15-.325-.504 0-1.02.145-.515.145-1.004.425v-.989q.548-.21 1.05-.314.502-.105.975-.105.746 0 1.275.22.53.22.857.661.204.269.29.664.086.394.086 1.184zM265.204 239.225q-.317-.247-.645-.36-.328-.113-.72-.113-.923 0-1.412.58-.489.58-.489 1.676V244h-.994v-6.016h.994v1.177q.247-.64.76-.98.513-.342 1.217-.342.365 0 .682.092.317.091.607.284zM268.143 236.873v3.013h1.257q.752 0 1.173-.398.422-.397.422-1.112 0-.714-.419-1.109-.419-.394-1.176-.394zm-1.085-.892h2.342q1.343 0 2.036.61.692.61.692 1.785 0 1.187-.69 1.794t-2.038.607h-1.257V244h-1.085zM279.204 239.225q-.317-.247-.645-.36-.328-.113-.72-.113-.923 0-1.412.58-.489.58-.489 1.676V244h-.994v-6.016h.994v1.177q.247-.64.76-.98.513-.342 1.217-.342.365 0 .682.092.317.091.607.284zM281.697 238.006h2.53v5.226h1.96V244h-4.909v-.768h1.96v-4.458h-1.54zm1.542-2.337h.988v1.247h-.988zM290.63 238.597q.183-.387.465-.572.282-.186.68-.186.725 0 1.023.562.298.56.298 2.113V244h-.902v-3.443q0-1.273-.142-1.582-.143-.308-.519-.308-.43 0-.588.33-.158.33-.158 1.56V244h-.903v-3.443q0-1.289-.153-1.59-.153-.3-.55-.3-.392 0-.546.33-.153.33-.153 1.56V244h-.897v-6.016h.897v.516q.178-.322.444-.491.265-.17.604-.17.408 0 .68.188.27.188.42.57zM300.016 240.498v.483h-4.281v.033q-.043 1.23.47 1.767.513.537 1.447.537.473 0 .989-.15.515-.15 1.1-.457v.983q-.563.23-1.087.346-.524.116-1.012.116-1.402 0-2.192-.84-.79-.841-.79-2.318 0-1.44.774-2.3.774-.859 2.063-.859 1.149 0 1.812.78.664.778.707 1.879zm-.989-.29q-.064-.623-.454-1.077-.389-.454-1.12-.454-.714 0-1.176.473-.462.473-.505 1.063zM301.193 236.008h1.45l1.386 4.071 1.397-4.071h1.455V244h-1.004v-7.063l-1.429 4.21h-.822l-1.434-4.21V244h-.999zM309.697 238.006h2.53v5.226h1.96V244h-4.909v-.768h1.96v-4.458h-1.54zm1.542-2.337h.988v1.247h-.988zM320.645 240.272V244h-.994v-3.728q0-.81-.284-1.192-.285-.381-.892-.381-.693 0-1.066.491-.373.492-.373 1.41v3.4h-.989v-6.016h.989v.903q.263-.516.714-.782.451-.266 1.069-.266.918 0 1.372.605.454.604.454 1.828zM325.298 236.276v1.708h2.245v.768h-2.245v3.266q0 .666.252.93.253.262.881.262h1.112v.79h-1.209q-1.111 0-1.568-.446-.456-.446-.456-1.536v-3.266h-1.606v-.768h1.606v-1.708zM335.016 240.498v.483h-4.281v.033q-.043 1.23.47 1.767.513.537 1.447.537.473 0 .989-.15.515-.15 1.1-.457v.983q-.563.23-1.087.346-.524.116-1.012.116-1.402 0-2.192-.84-.79-.841-.79-2.318 0-1.44.774-2.3.774-.859 2.063-.859 1.149 0 1.812.78.664.778.707 1.879zm-.989-.29q-.064-.623-.454-1.077-.389-.454-1.12-.454-.714 0-1.176.473-.462.473-.505 1.063zM342.204 239.225q-.317-.247-.645-.36-.328-.113-.72-.113-.923 0-1.412.58-.489.58-.489 1.676V244h-.994v-6.016h.994v1.177q.247-.64.76-.98.513-.342 1.217-.342.365 0 .682.092.317.091.607.284zM359.879 247.32V233.3h.86v14.02z"/><path d="M369.017 246.75v-1.402h.859v1.402zm-3.416 0v-1.402h.854v1.402zm1.708-1.96v-1.402h.854v1.402zm-3.416 0v-1.402h.848v1.402zm5.124-1.966v-1.402h.859v1.402zm-3.416 0v-1.402h.854v1.402zm1.708-1.96v-1.403h.854v1.402zm-3.416 0v-1.403h.848v1.402zm5.124-1.967v-1.401h.859v1.401zm-3.416 0v-1.401h.854v1.401zm1.708-1.96v-1.402h.854v1.402zm-3.416 0v-1.402h.848v1.402z" fill="#A7D3A9"/><path d="M359.879 234.32V220.3h.86v14.02z"/><path d="M369.017 233.75v-1.402h.859v1.402zm-3.416 0v-1.402h.854v1.402zm1.708-1.96v-1.402h.854v1.402zm-3.416 0v-1.402h.848v1.402zm5.124-1.966v-1.402h.859v1.402zm-3.416 0v-1.402h.854v1.402zm1.708-1.96v-1.403h.854v1.402zm-3.416 0v-1.403h.848v1.402zm5.124-1.967v-1.401h.859v1.401zm-3.416 0v-1.401h.854v1.401zm1.708-1.96v-1.402h.854v1.402zm-3.416 0v-1.402h.848v1.402z" fill="#A7D3A9"/><path d="M209.893 215.336v-.924h6.837v.924zM216.893 215.336v-.924h6.837v.924zM223.893 215.336v-.924h6.837v.924zM230.893 215.336v-.924h6.837v.924zM237.893 215.336v-.924h6.837v.924zM244.893 215.336v-.924h6.837v.924zM251.893 215.336v-.924h6.837v.924zM258.893 215.336v-.924h6.837v.924zM265.893 215.336v-.924h6.837v.924zM272.893 215.336v-.924h6.837v.924zM279.893 215.336v-.924h2.986v-7.111h.86v7.111h2.991v.924zM286.893 215.336v-.924h6.837v.924zM293.893 215.336v-.924h6.837v.924zM300.893 215.336v-.924h6.837v.924zM307.893 215.336v-.924h6.837v.924zM314.893 215.336v-.924h6.837v.924zM321.893 215.336v-.924h6.837v.924zM328.893 215.336v-.924h6.837v.924zM339.024 209.105h2.277v.769h-1.289v8.271h1.29v.768h-2.278zM348.763 217.715q-.413.22-.848.33-.436.11-.924.11-1.542 0-2.393-1.09-.851-1.09-.851-3.066 0-1.966.856-3.065.857-1.098 2.388-1.098.488 0 .924.11.435.11.848.33v1.112q-.397-.327-.854-.5-.456-.171-.918-.171-1.058 0-1.585.816-.526.817-.526 2.466 0 1.643.526 2.46.527.816 1.585.816.472 0 .926-.172.454-.172.846-.5zM353.867 209.105v9.808h-2.277v-.768h1.289v-8.271h-1.29v-.769zM359.879 221.32v-5.984h-2.986v-.924h3.845v6.907z"/><path d="M282.879 208.32V194.3h.86v14.02zM83.893 189.336v-.924h6.837v.924zM90.893 189.336v-.924h6.837v.924zM97.893 189.336v-.924h6.837v.924zM104.893 189.336v-.924h6.837v.924zM111.893 189.336v-.924h6.837v.924zM118.893 189.336v-.924h6.837v.924zM125.893 189.336v-.924h6.837v.924zM132.893 189.336v-.924h6.837v.924zM139.893 189.336v-.924h6.837v.924zM146.893 189.336v-.924h6.837v.924zM153.893 189.336v-.924h6.837v.924zM160.893 189.336v-.924h6.837v.924zM167.893 189.336v-.924h6.837v.924zM174.893 189.336v-.924h6.837v.924zM181.893 189.336v-.924h2.986v-7.111h.86v7.111h2.991v.924zM188.893 189.336v-.924h6.837v.924zM195.893 189.336v-.924h6.837v.924zM202.893 189.336v-.924h6.837v.924zM209.893 189.336v-.924h6.837v.924zM216.893 189.336v-.924h6.837v.924zM223.893 189.336v-.924h6.837v.924zM230.893 189.336v-.924h6.837v.924zM237.893 189.336v-.924h6.837v.924zM244.893 189.336v-.924h6.837v.924zM251.893 189.336v-.924h6.837v.924zM258.893 189.336v-.924h6.837v.924zM265.893 189.336v-.924h6.837v.924zM272.893 189.336v-.924h6.837v.924z"/><path d="M282.879 195.32v-5.984h-2.986v-.924h6.837v.924h-2.992v5.983zM286.893 189.336v-.924h6.837v.924zM293.893 189.336v-.924h6.837v.924zM300.893 189.336v-.924h6.837v.924zM307.893 189.336v-.924h6.837v.924zM314.893 189.336v-.924h6.837v.924zM321.893 189.336v-.924h6.837v.924zM328.893 189.336v-.924h6.837v.924zM335.893 189.336v-.924h6.837v.924zM342.893 189.336v-.924h6.837v.924zM349.893 189.336v-.924h6.837v.924zM356.893 189.336v-.924h6.837v.924zM363.893 189.336v-.924h6.837v.924zM370.893 189.336v-.924h6.837v.924zM377.893 189.336v-.924h6.837v.924zM384.893 189.336v-.924h6.837v.924zM391.893 189.336v-.924h6.837v.924zM398.893 189.336v-.924h6.837v.924zM405.893 189.336v-.924h6.837v.924zM412.893 189.336v-.924h6.837v.924zM419.893 189.336v-.924h6.837v.924zM426.893 189.336v-.924h6.837v.924zM433.893 189.336v-.924h6.837v.924zM440.893 189.336v-.924h6.837v.924zM447.893 189.336v-.924h6.837v.924zM454.893 189.336v-.924h6.837v.924zM461.893 189.336v-.924h6.837v.924zM468.893 189.336v-.924h6.837v.924zM475.893 189.336v-.924h6.837v.924zM482.893 189.336v-.924h2.986v-7.111h.86v8.035zM79.879 182.32V168.3h.86v14.02z"/><path d="M89.017 181.75v-1.402h.859v1.402zm-3.416 0v-1.402h.854v1.402zm1.708-1.96v-1.402h.854v1.402zm-3.416 0v-1.402h.848v1.402zm5.124-1.966v-1.402h.859v1.402zm-3.416 0v-1.402h.854v1.402zm1.708-1.96v-1.403h.854v1.402zm-3.416 0v-1.403h.848v1.402zm5.124-1.967v-1.401h.859v1.401zm-3.416 0v-1.401h.854v1.401zm1.708-1.96v-1.402h.854v1.402zm-3.416 0v-1.402h.848v1.402zM96.017 181.75v-1.402h.859v1.402zm-3.416 0v-1.402h.854v1.402zm1.708-1.96v-1.402h.854v1.402zm-3.416 0v-1.402h.848v1.402zm5.124-1.966v-1.402h.859v1.402zm-3.416 0v-1.402h.854v1.402zm1.708-1.96v-1.403h.854v1.402zm-3.416 0v-1.403h.848v1.402zm5.124-1.967v-1.401h.859v1.401zm-3.416 0v-1.401h.854v1.401zm1.708-1.96v-1.402h.854v1.402zm-3.416 0v-1.402h.848v1.402zM103.017 181.75v-1.402h.859v1.402zm-3.416 0v-1.402h.854v1.402zm1.708-1.96v-1.402h.854v1.402zm-3.416 0v-1.402h.848v1.402zm5.124-1.966v-1.402h.859v1.402zm-3.416 0v-1.402h.854v1.402zm1.708-1.96v-1.403h.854v1.402zm-3.416 0v-1.403h.848v1.402zm5.124-1.967v-1.401h.859v1.401zm-3.416 0v-1.401h.854v1.401zm1.708-1.96v-1.402h.854v1.402zm-3.416 0v-1.402h.848v1.402zM110.017 181.75v-1.402h.859v1.402zm-3.416 0v-1.402h.854v1.402zm1.708-1.96v-1.402h.854v1.402zm-3.416 0v-1.402h.848v1.402zm5.124-1.966v-1.402h.859v1.402zm-3.416 0v-1.402h.854v1.402zm1.708-1.96v-1.403h.854v1.402zm-3.416 0v-1.403h.848v1.402zm5.124-1.967v-1.401h.859v1.401zm-3.416 0v-1.401h.854v1.401zm1.708-1.96v-1.402h.854v1.402zm-3.416 0v-1.402h.848v1.402zM117.017 181.75v-1.402h.859v1.402zm-3.416 0v-1.402h.854v1.402zm1.708-1.96v-1.402h.854v1.402zm-3.416 0v-1.402h.848v1.402zm5.124-1.966v-1.402h.859v1.402zm-3.416 0v-1.402h.854v1.402zm1.708-1.96v-1.403h.854v1.402zm-3.416 0v-1.403h.848v1.402zm5.124-1.967v-1.401h.859v1.401zm-3.416 0v-1.401h.854v1.401zm1.708-1.96v-1.402h.854v1.402zm-3.416 0v-1.402h.848v1.402zM124.017 181.75v-1.402h.859v1.402zm-3.416 0v-1.402h.854v1.402zm1.708-1.96v-1.402h.854v1.402zm-3.416 0v-1.402h.848v1.402zm5.124-1.966v-1.402h.859v1.402zm-3.416 0v-1.402h.854v1.402zm1.708-1.96v-1.403h.854v1.402zm-3.416 0v-1.403h.848v1.402zm5.124-1.967v-1.401h.859v1.401zm-3.416 0v-1.401h.854v1.401zm1.708-1.96v-1.402h.854v1.402zm-3.416 0v-1.402h.848v1.402zM131.017 181.75v-1.402h.859v1.402zm-3.416 0v-1.402h.854v1.402zm1.708-1.96v-1.402h.854v1.402zm-3.416 0v-1.402h.848v1.402zm5.124-1.966v-1.402h.859v1.402zm-3.416 0v-1.402h.854v1.402zm1.708-1.96v-1.403h.854v1.402zm-3.416 0v-1.403h.848v1.402zm5.124-1.967v-1.401h.859v1.401zm-3.416 0v-1.401h.854v1.401zm1.708-1.96v-1.402h.854v1.402zm-3.416 0v-1.402h.848v1.402zM138.017 181.75v-1.402h.859v1.402zm-3.416 0v-1.402h.854v1.402zm1.708-1.96v-1.402h.854v1.402zm-3.416 0v-1.402h.848v1.402zm5.124-1.966v-1.402h.859v1.402zm-3.416 0v-1.402h.854v1.402zm1.708-1.96v-1.403h.854v1.402zm-3.416 0v-1.403h.848v1.402zm5.124-1.967v-1.401h.859v1.401zm-3.416 0v-1.401h.854v1.401zm1.708-1.96v-1.402h.854v1.402zm-3.416 0v-1.402h.848v1.402zM145.017 181.75v-1.402h.859v1.402zm-3.416 0v-1.402h.854v1.402zm1.708-1.96v-1.402h.854v1.402zm-3.416 0v-1.402h.848v1.402zm5.124-1.966v-1.402h.859v1.402zm-3.416 0v-1.402h.854v1.402zm1.708-1.96v-1.403h.854v1.402zm-3.416 0v-1.403h.848v1.402zm5.124-1.967v-1.401h.859v1.401zm-3.416 0v-1.401h.854v1.401zm1.708-1.96v-1.402h.854v1.402zm-3.416 0v-1.402h.848v1.402zM152.017 181.75v-1.402h.859v1.402zm-3.416 0v-1.402h.854v1.402zm1.708-1.96v-1.402h.854v1.402zm-3.416 0v-1.402h.848v1.402zm5.124-1.966v-1.402h.859v1.402zm-3.416 0v-1.402h.854v1.402zm1.708-1.96v-1.403h.854v1.402zm-3.416 0v-1.403h.848v1.402zm5.124-1.967v-1.401h.859v1.401zm-3.416 0v-1.401h.854v1.401zm1.708-1.96v-1.402h.854v1.402zm-3.416 0v-1.402h.848v1.402zM159.017 181.75v-1.402h.859v1.402zm-3.416 0v-1.402h.854v1.402zm1.708-1.96v-1.402h.854v1.402zm-3.416 0v-1.402h.848v1.402zm5.124-1.966v-1.402h.859v1.402zm-3.416 0v-1.402h.854v1.402zm1.708-1.96v-1.403h.854v1.402zm-3.416 0v-1.403h.848v1.402zm5.124-1.967v-1.401h.859v1.401zm-3.416 0v-1.401h.854v1.401zm1.708-1.96v-1.402h.854v1.402zm-3.416 0v-1.402h.848v1.402zM166.017 181.75v-1.402h.859v1.402zm-3.416 0v-1.402h.854v1.402zm1.708-1.96v-1.402h.854v1.402zm-3.416 0v-1.402h.848v1.402zm5.124-1.966v-1.402h.859v1.402zm-3.416 0v-1.402h.854v1.402zm1.708-1.96v-1.403h.854v1.402zm-3.416 0v-1.403h.848v1.402zm5.124-1.967v-1.401h.859v1.401zm-3.416 0v-1.401h.854v1.401zm1.708-1.96v-1.402h.854v1.402zm-3.416 0v-1.402h.848v1.402z" fill="#98CBFE"/><path d="M184.879 182.32V168.3h.86v14.02z"/><path d="M418.017 181.75v-1.402h.859v1.402zm-3.416 0v-1.402h.854v1.402zm1.708-1.96v-1.402h.854v1.402zm-3.416 0v-1.402h.848v1.402zm5.124-1.966v-1.402h.859v1.402zm-3.416 0v-1.402h.854v1.402zm1.708-1.96v-1.403h.854v1.402zm-3.416 0v-1.403h.848v1.402zm5.124-1.967v-1.401h.859v1.401zm-3.416 0v-1.401h.854v1.401zm1.708-1.96v-1.402h.854v1.402zm-3.416 0v-1.402h.848v1.402zM425.017 181.75v-1.402h.859v1.402zm-3.416 0v-1.402h.854v1.402zm1.708-1.96v-1.402h.854v1.402zm-3.416 0v-1.402h.848v1.402zm5.124-1.966v-1.402h.859v1.402zm-3.416 0v-1.402h.854v1.402zm1.708-1.96v-1.403h.854v1.402zm-3.416 0v-1.403h.848v1.402zm5.124-1.967v-1.401h.859v1.401zm-3.416 0v-1.401h.854v1.401zm1.708-1.96v-1.402h.854v1.402zm-3.416 0v-1.402h.848v1.402zM432.017 181.75v-1.402h.859v1.402zm-3.416 0v-1.402h.854v1.402zm1.708-1.96v-1.402h.854v1.402zm-3.416 0v-1.402h.848v1.402zm5.124-1.966v-1.402h.859v1.402zm-3.416 0v-1.402h.854v1.402zm1.708-1.96v-1.403h.854v1.402zm-3.416 0v-1.403h.848v1.402zm5.124-1.967v-1.401h.859v1.401zm-3.416 0v-1.401h.854v1.401zm1.708-1.96v-1.402h.854v1.402zm-3.416 0v-1.402h.848v1.402zM439.017 181.75v-1.402h.859v1.402zm-3.416 0v-1.402h.854v1.402zm1.708-1.96v-1.402h.854v1.402zm-3.416 0v-1.402h.848v1.402zm5.124-1.966v-1.402h.859v1.402zm-3.416 0v-1.402h.854v1.402zm1.708-1.96v-1.403h.854v1.402zm-3.416 0v-1.403h.848v1.402zm5.124-1.967v-1.401h.859v1.401zm-3.416 0v-1.401h.854v1.401zm1.708-1.96v-1.402h.854v1.402zm-3.416 0v-1.402h.848v1.402zM446.017 181.75v-1.402h.859v1.402zm-3.416 0v-1.402h.854v1.402zm1.708-1.96v-1.402h.854v1.402zm-3.416 0v-1.402h.848v1.402zm5.124-1.966v-1.402h.859v1.402zm-3.416 0v-1.402h.854v1.402zm1.708-1.96v-1.403h.854v1.402zm-3.416 0v-1.403h.848v1.402zm5.124-1.967v-1.401h.859v1.401zm-3.416 0v-1.401h.854v1.401zm1.708-1.96v-1.402h.854v1.402zm-3.416 0v-1.402h.848v1.402zM453.017 181.75v-1.402h.859v1.402zm-3.416 0v-1.402h.854v1.402zm1.708-1.96v-1.402h.854v1.402zm-3.416 0v-1.402h.848v1.402zm5.124-1.966v-1.402h.859v1.402zm-3.416 0v-1.402h.854v1.402zm1.708-1.96v-1.403h.854v1.402zm-3.416 0v-1.403h.848v1.402zm5.124-1.967v-1.401h.859v1.401zm-3.416 0v-1.401h.854v1.401zm1.708-1.96v-1.402h.854v1.402zm-3.416 0v-1.402h.848v1.402zM460.017 181.75v-1.402h.859v1.402zm-3.416 0v-1.402h.854v1.402zm1.708-1.96v-1.402h.854v1.402zm-3.416 0v-1.402h.848v1.402zm5.124-1.966v-1.402h.859v1.402zm-3.416 0v-1.402h.854v1.402zm1.708-1.96v-1.403h.854v1.402zm-3.416 0v-1.403h.848v1.402zm5.124-1.967v-1.401h.859v1.401zm-3.416 0v-1.401h.854v1.401zm1.708-1.96v-1.402h.854v1.402zm-3.416 0v-1.402h.848v1.402zM467.017 181.75v-1.402h.859v1.402zm-3.416 0v-1.402h.854v1.402zm1.708-1.96v-1.402h.854v1.402zm-3.416 0v-1.402h.848v1.402zm5.124-1.966v-1.402h.859v1.402zm-3.416 0v-1.402h.854v1.402zm1.708-1.96v-1.403h.854v1.402zm-3.416 0v-1.403h.848v1.402zm5.124-1.967v-1.401h.859v1.401zm-3.416 0v-1.401h.854v1.401zm1.708-1.96v-1.402h.854v1.402zm-3.416 0v-1.402h.848v1.402zM474.017 181.75v-1.402h.859v1.402zm-3.416 0v-1.402h.854v1.402zm1.708-1.96v-1.402h.854v1.402zm-3.416 0v-1.402h.848v1.402zm5.124-1.966v-1.402h.859v1.402zm-3.416 0v-1.402h.854v1.402zm1.708-1.96v-1.403h.854v1.402zm-3.416 0v-1.403h.848v1.402zm5.124-1.967v-1.401h.859v1.401zm-3.416 0v-1.401h.854v1.401zm1.708-1.96v-1.402h.854v1.402zm-3.416 0v-1.402h.848v1.402zM481.017 181.75v-1.402h.859v1.402zm-3.416 0v-1.402h.854v1.402zm1.708-1.96v-1.402h.854v1.402zm-3.416 0v-1.402h.848v1.402zm5.124-1.966v-1.402h.859v1.402zm-3.416 0v-1.402h.854v1.402zm1.708-1.96v-1.403h.854v1.402zm-3.416 0v-1.403h.848v1.402zm5.124-1.967v-1.401h.859v1.401zm-3.416 0v-1.401h.854v1.401zm1.708-1.96v-1.402h.854v1.402zm-3.416 0v-1.402h.848v1.402z" fill="#98CBFE"/><path d="M485.879 182.32V168.3h.86v14.02z"/><path d="M495.017 181.75v-1.402h.859v1.402zm-3.416 0v-1.402h.854v1.402zm1.708-1.96v-1.402h.854v1.402zm-3.416 0v-1.402h.848v1.402zm5.124-1.966v-1.402h.859v1.402zm-3.416 0v-1.402h.854v1.402zm1.708-1.96v-1.403h.854v1.402zm-3.416 0v-1.403h.848v1.402zm5.124-1.967v-1.401h.859v1.401zm-3.416 0v-1.401h.854v1.401zm1.708-1.96v-1.402h.854v1.402zm-3.416 0v-1.402h.848v1.402zM502.017 181.75v-1.402h.859v1.402zm-3.416 0v-1.402h.854v1.402zm1.708-1.96v-1.402h.854v1.402zm-3.416 0v-1.402h.848v1.402zm5.124-1.966v-1.402h.859v1.402zm-3.416 0v-1.402h.854v1.402zm1.708-1.96v-1.403h.854v1.402zm-3.416 0v-1.403h.848v1.402zm5.124-1.967v-1.401h.859v1.401zm-3.416 0v-1.401h.854v1.401zm1.708-1.96v-1.402h.854v1.402zm-3.416 0v-1.402h.848v1.402zM509.017 181.75v-1.402h.859v1.402zm-3.416 0v-1.402h.854v1.402zm1.708-1.96v-1.402h.854v1.402zm-3.416 0v-1.402h.848v1.402zm5.124-1.966v-1.402h.859v1.402zm-3.416 0v-1.402h.854v1.402zm1.708-1.96v-1.403h.854v1.402zm-3.416 0v-1.403h.848v1.402zm5.124-1.967v-1.401h.859v1.401zm-3.416 0v-1.401h.854v1.401zm1.708-1.96v-1.402h.854v1.402zm-3.416 0v-1.402h.848v1.402zM516.017 181.75v-1.402h.859v1.402zm-3.416 0v-1.402h.854v1.402zm1.708-1.96v-1.402h.854v1.402zm-3.416 0v-1.402h.848v1.402zm5.124-1.966v-1.402h.859v1.402zm-3.416 0v-1.402h.854v1.402zm1.708-1.96v-1.403h.854v1.402zm-3.416 0v-1.403h.848v1.402zm5.124-1.967v-1.401h.859v1.401zm-3.416 0v-1.401h.854v1.401zm1.708-1.96v-1.402h.854v1.402zm-3.416 0v-1.402h.848v1.402zM523.017 181.75v-1.402h.859v1.402zm-3.416 0v-1.402h.854v1.402zm1.708-1.96v-1.402h.854v1.402zm-3.416 0v-1.402h.848v1.402zm5.124-1.966v-1.402h.859v1.402zm-3.416 0v-1.402h.854v1.402zm1.708-1.96v-1.403h.854v1.402zm-3.416 0v-1.403h.848v1.402zm5.124-1.967v-1.401h.859v1.401zm-3.416 0v-1.401h.854v1.401zm1.708-1.96v-1.402h.854v1.402zm-3.416 0v-1.402h.848v1.402zM530.017 181.75v-1.402h.859v1.402zm-3.416 0v-1.402h.854v1.402zm1.708-1.96v-1.402h.854v1.402zm-3.416 0v-1.402h.848v1.402zm5.124-1.966v-1.402h.859v1.402zm-3.416 0v-1.402h.854v1.402zm1.708-1.96v-1.403h.854v1.402zm-3.416 0v-1.403h.848v1.402zm5.124-1.967v-1.401h.859v1.401zm-3.416 0v-1.401h.854v1.401zm1.708-1.96v-1.402h.854v1.402zm-3.416 0v-1.402h.848v1.402zM537.017 181.75v-1.402h.859v1.402zm-3.416 0v-1.402h.854v1.402zm1.708-1.96v-1.402h.854v1.402zm-3.416 0v-1.402h.848v1.402zm5.124-1.966v-1.402h.859v1.402zm-3.416 0v-1.402h.854v1.402zm1.708-1.96v-1.403h.854v1.402zm-3.416 0v-1.403h.848v1.402zm5.124-1.967v-1.401h.859v1.401zm-3.416 0v-1.401h.854v1.401zm1.708-1.96v-1.402h.854v1.402zm-3.416 0v-1.402h.848v1.402zM544.017 181.75v-1.402h.859v1.402zm-3.416 0v-1.402h.854v1.402zm1.708-1.96v-1.402h.854v1.402zm-3.416 0v-1.402h.848v1.402zm5.124-1.966v-1.402h.859v1.402zm-3.416 0v-1.402h.854v1.402zm1.708-1.96v-1.403h.854v1.402zm-3.416 0v-1.403h.848v1.402zm5.124-1.967v-1.401h.859v1.401zm-3.416 0v-1.401h.854v1.401zm1.708-1.96v-1.402h.854v1.402zm-3.416 0v-1.402h.848v1.402zM551.017 181.75v-1.402h.859v1.402zm-3.416 0v-1.402h.854v1.402zm1.708-1.96v-1.402h.854v1.402zm-3.416 0v-1.402h.848v1.402zm5.124-1.966v-1.402h.859v1.402zm-3.416 0v-1.402h.854v1.402zm1.708-1.96v-1.403h.854v1.402zm-3.416 0v-1.403h.848v1.402zm5.124-1.967v-1.401h.859v1.401zm-3.416 0v-1.401h.854v1.401zm1.708-1.96v-1.402h.854v1.402zm-3.416 0v-1.402h.848v1.402zM558.017 181.75v-1.402h.859v1.402zm-3.416 0v-1.402h.854v1.402zm1.708-1.96v-1.402h.854v1.402zm-3.416 0v-1.402h.848v1.402zm5.124-1.966v-1.402h.859v1.402zm-3.416 0v-1.402h.854v1.402zm1.708-1.96v-1.403h.854v1.402zm-3.416 0v-1.403h.848v1.402zm5.124-1.967v-1.401h.859v1.401zm-3.416 0v-1.401h.854v1.401zm1.708-1.96v-1.402h.854v1.402zm-3.416 0v-1.402h.848v1.402zM565.017 181.75v-1.402h.859v1.402zm-3.416 0v-1.402h.854v1.402zm1.708-1.96v-1.402h.854v1.402zm-3.416 0v-1.402h.848v1.402zm5.124-1.966v-1.402h.859v1.402zm-3.416 0v-1.402h.854v1.402zm1.708-1.96v-1.403h.854v1.402zm-3.416 0v-1.403h.848v1.402zm5.124-1.967v-1.401h.859v1.401zm-3.416 0v-1.401h.854v1.401zm1.708-1.96v-1.402h.854v1.402zm-3.416 0v-1.402h.848v1.402zM572.017 181.75v-1.402h.859v1.402zm-3.416 0v-1.402h.854v1.402zm1.708-1.96v-1.402h.854v1.402zm-3.416 0v-1.402h.848v1.402zm5.124-1.966v-1.402h.859v1.402zm-3.416 0v-1.402h.854v1.402zm1.708-1.96v-1.403h.854v1.402zm-3.416 0v-1.403h.848v1.402zm5.124-1.967v-1.401h.859v1.401zm-3.416 0v-1.401h.854v1.401zm1.708-1.96v-1.402h.854v1.402zm-3.416 0v-1.402h.848v1.402z" fill="#98CBFE"/><path d="M6.893 163.336v-.924h6.837v.924zM13.893 163.336v-.924h6.837v.924zM20.893 163.336v-.924h6.837v.924zM27.893 163.336v-.924h6.837v.924zM34.893 163.336v-.924h6.837v.924zM41.893 163.336v-.924h6.837v.924zM48.893 163.336v-.924h6.837v.924zM55.893 163.336v-.924h6.837v.924zM62.893 163.336v-.924h6.837v.924zM69.893 163.336v-.924h6.837v.924zM79.879 169.32v-5.984h-2.986v-.924h6.837v.924h-2.992v5.983zM83.893 163.336v-.924h6.837v.924zM90.893 163.336v-.924h6.837v.924zM97.893 163.336v-.924h6.837v.924zM104.893 163.336v-.924h6.837v.924zM111.893 163.336v-.924h6.837v.924zM118.893 163.336v-.924h6.837v.924zM125.893 163.336v-.924h6.837v.924zM132.893 163.336v-.924h6.837v.924zM139.893 163.336v-.924h6.837v.924zM146.893 163.336v-.924h6.837v.924zM153.893 163.336v-.924h2.986v-7.111h.86v8.035z"/><path d="M166.017 168.75v-1.402h.859v1.402zm-3.416 0v-1.402h.854v1.402zm1.708-1.96v-1.402h.854v1.402zm-3.416 0v-1.402h.848v1.402zm5.124-1.966v-1.402h.859v1.402zm-3.416 0v-1.402h.854v1.402zm1.708-1.96v-1.403h.854v1.402zm-3.416 0v-1.403h.848v1.402zm5.124-1.967v-1.401h.859v1.401zm-3.416 0v-1.401h.854v1.401zm1.708-1.96v-1.402h.854v1.402zm-3.416 0v-1.402h.848v1.402z" fill="#98CBFE"/><path d="M184.879 169.32V155.3h.86v14.02zM408.879 163.336V155.3h.86v7.111h2.991v.924zM412.893 163.336v-.924h6.837v.924zM419.893 163.336v-.924h6.837v.924zM426.893 163.336v-.924h6.837v.924zM433.893 163.336v-.924h6.837v.924zM440.893 163.336v-.924h6.837v.924zM447.893 163.336v-.924h6.837v.924zM454.893 163.336v-.924h6.837v.924zM461.893 163.336v-.924h6.837v.924zM468.893 163.336v-.924h6.837v.924zM475.893 163.336v-.924h6.837v.924zM485.879 169.32v-5.984h-2.986v-.924h6.837v.924h-2.992v5.983zM489.893 163.336v-.924h6.837v.924zM496.893 163.336v-.924h6.837v.924zM503.893 163.336v-.924h6.837v.924zM510.893 163.336v-.924h6.837v.924zM517.893 163.336v-.924h6.837v.924zM524.893 163.336v-.924h6.837v.924zM531.893 163.336v-.924h6.837v.924zM538.893 163.336v-.924h6.837v.924zM545.893 163.336v-.924h6.837v.924zM552.893 163.336v-.924h6.837v.924zM559.893 163.336v-.924h2.986v-7.111h.86v8.035z"/><path d="M572.017 168.75v-1.402h.859v1.402zm-3.416 0v-1.402h.854v1.402zm1.708-1.96v-1.402h.854v1.402zm-3.416 0v-1.402h.848v1.402zm5.124-1.966v-1.402h.859v1.402zm-3.416 0v-1.402h.854v1.402zm1.708-1.96v-1.403h.854v1.402zm-3.416 0v-1.403h.848v1.402zm5.124-1.967v-1.401h.859v1.401zm-3.416 0v-1.401h.854v1.401zm1.708-1.96v-1.402h.854v1.402zm-3.416 0v-1.402h.848v1.402z" fill="#98CBFE"/><path d="M15.08 131.981h4.452v.913h-1.68v6.193h1.68V140H15.08v-.913h1.68v-6.193h-1.68zM156.879 156.32V142.3h.86v14.02z"/><path d="M166.017 155.75v-1.402h.859v1.402zm-3.416 0v-1.402h.854v1.402zm1.708-1.96v-1.402h.854v1.402zm-3.416 0v-1.402h.848v1.402zm5.124-1.966v-1.402h.859v1.402zm-3.416 0v-1.402h.854v1.402zm1.708-1.96v-1.403h.854v1.402zm-3.416 0v-1.403h.848v1.402zm5.124-1.967v-1.401h.859v1.401zm-3.416 0v-1.401h.854v1.401zm1.708-1.96v-1.402h.854v1.402zm-3.416 0v-1.402h.848v1.402z" fill="#98CBFE"/><path d="M184.879 156.32V142.3h.86v14.02zM408.879 156.32V142.3h.86v14.02zM562.879 156.32V142.3h.86v14.02z"/><path d="M572.017 155.75v-1.402h.859v1.402zm-3.416 0v-1.402h.854v1.402zm1.708-1.96v-1.402h.854v1.402zm-3.416 0v-1.402h.848v1.402zm5.124-1.966v-1.402h.859v1.402zm-3.416 0v-1.402h.854v1.402zm1.708-1.96v-1.403h.854v1.402zm-3.416 0v-1.403h.848v1.402zm5.124-1.967v-1.401h.859v1.401zm-3.416 0v-1.401h.854v1.401zm1.708-1.96v-1.402h.854v1.402zm-3.416 0v-1.402h.848v1.402z" fill="#98CBFE"/><path d="M24.309 132.937l-1.144 4.104h2.288zm-.656-.956h1.316L27.424 140H26.3l-.59-2.09H22.9l-.58 2.09H21.2zM28.537 133.984h1.026l1.746 5.05 1.75-5.05h1.026L31.948 140h-1.273zM38.77 136.976h-.327q-.865 0-1.303.304-.437.303-.437.905 0 .542.327.843.328.3.908.3.816 0 1.284-.566.467-.567.472-1.566v-.22zm1.918-.408V140h-.994v-.892q-.317.538-.797.793-.481.255-1.168.255-.919 0-1.467-.519-.548-.518-.548-1.388 0-1.004.674-1.525.675-.521 1.98-.521h1.326v-.156q-.005-.72-.365-1.045-.36-.325-1.15-.325-.504 0-1.02.145-.515.145-1.004.425v-.989q.548-.21 1.05-.314.502-.105.975-.105.746 0 1.275.22.53.22.857.661.204.269.29.664.086.394.086 1.184zM47.226 134.194v.967q-.424-.247-.854-.371-.43-.123-.875-.123-.672 0-1.002.217-.33.218-.33.663 0 .403.247.602.247.199 1.23.387l.397.075q.736.14 1.115.558.378.42.378 1.09 0 .892-.634 1.395-.633.502-1.761.502-.446 0-.935-.094-.489-.094-1.058-.282v-1.02q.553.284 1.058.426.505.143.956.143.655 0 1.015-.266.36-.266.36-.744 0-.688-1.316-.95l-.043-.012-.37-.075q-.854-.166-1.246-.561t-.392-1.077q0-.865.585-1.335t1.67-.47q.484 0 .93.089.445.089.875.266zM52.298 132.276v1.708h2.245v.768h-2.245v3.266q0 .666.252.93.253.262.881.262h1.112v.79h-1.209q-1.111 0-1.568-.446-.456-.446-.456-1.536v-3.266h-1.606v-.768h1.606v-1.708zM59.77 136.976h-.327q-.865 0-1.303.304-.437.303-.437.905 0 .542.327.843.328.3.908.3.816 0 1.284-.566.467-.567.472-1.566v-.22zm1.918-.408V140h-.994v-.892q-.317.538-.797.793-.481.255-1.168.255-.919 0-1.467-.519-.548-.518-.548-1.388 0-1.004.674-1.525.675-.521 1.98-.521h1.326v-.156q-.005-.72-.365-1.045-.36-.325-1.15-.325-.504 0-1.02.145-.515.145-1.004.425v-.989q.548-.21 1.05-.314.502-.105.975-.105.746 0 1.275.22.53.22.857.661.204.269.29.664.086.394.086 1.184zM69.204 135.225q-.317-.247-.645-.36-.328-.113-.72-.113-.923 0-1.412.58-.489.58-.489 1.676V140h-.994v-6.016h.994v1.177q.247-.64.76-.98.513-.342 1.217-.342.365 0 .682.092.317.091.607.284zM70.252 131.981h6.118v.913h-2.508V140h-1.09v-7.106h-2.52zM83.016 136.498v.483h-4.281v.033q-.043 1.23.47 1.767.513.537 1.447.537.473 0 .989-.15.515-.15 1.1-.457v.983q-.563.23-1.087.346-.524.116-1.012.116-1.402 0-2.192-.84-.79-.841-.79-2.318 0-1.44.774-2.3.774-.859 2.063-.859 1.149 0 1.812.78.664.778.707 1.879zm-.989-.29q-.064-.623-.454-1.077-.389-.454-1.12-.454-.714 0-1.176.473-.462.473-.505 1.063zM87.862 137.825q0 .666.244 1.004.245.338.723.338h1.154V140h-1.251q-.886 0-1.372-.567-.486-.566-.486-1.608v-5.441h-1.585v-.774h2.573zM97.016 136.498v.483h-4.281v.033q-.043 1.23.47 1.767.513.537 1.447.537.473 0 .989-.15.515-.15 1.1-.457v.983q-.563.23-1.087.346-.524.116-1.012.116-1.402 0-2.192-.84-.79-.841-.79-2.318 0-1.44.774-2.3.774-.859 2.063-.859 1.149 0 1.812.78.664.778.707 1.879zm-.989-.29q-.064-.623-.454-1.077-.389-.454-1.12-.454-.714 0-1.176.473-.462.473-.505 1.063zM100.014 139.243v3.045h-.993v-8.304h.993v.768q.247-.445.658-.679.411-.234.948-.234 1.09 0 1.71.844.621.843.621 2.336 0 1.466-.623 2.302-.623.835-1.708.835-.548 0-.959-.234-.41-.234-.647-.68zm2.9-2.245q0-1.15-.362-1.735-.363-.586-1.077-.586-.72 0-1.09.588-.37.589-.37 1.733 0 1.138.37 1.73.37.59 1.09.59.714 0 1.077-.586.363-.585.363-1.734zM108.309 134.677q-.752 0-1.14.586-.386.585-.386 1.735 0 1.144.387 1.732.387.588 1.139.588.757 0 1.144-.588.386-.588.386-1.732 0-1.15-.386-1.735-.387-.586-1.144-.586zm0-.838q1.251 0 1.914.811.664.811.664 2.348 0 1.541-.66 2.35-.662.808-1.918.808-1.252 0-1.913-.809-.66-.808-.66-2.35 0-1.536.66-2.347.661-.81 1.913-.81zM118.204 135.225q-.317-.247-.645-.36-.328-.113-.72-.113-.923 0-1.412.58-.489.58-.489 1.676V140h-.994v-6.016h.994v1.177q.247-.64.76-.98.513-.342 1.217-.342.365 0 .682.092.317.091.607.284zM122.298 132.276v1.708h2.245v.768h-2.245v3.266q0 .666.252.93.253.262.881.262h1.112v.79h-1.209q-1.111 0-1.568-.446-.456-.446-.456-1.536v-3.266h-1.606v-.768h1.606v-1.708zM132.016 136.498v.483h-4.281v.033q-.043 1.23.47 1.767.513.537 1.447.537.473 0 .989-.15.515-.15 1.1-.457v.983q-.563.23-1.087.346-.524.116-1.012.116-1.402 0-2.192-.84-.79-.841-.79-2.318 0-1.44.774-2.3.774-.859 2.063-.859 1.149 0 1.812.78.664.778.707 1.879zm-.989-.29q-.064-.623-.454-1.077-.389-.454-1.12-.454-.714 0-1.176.473-.462.473-.505 1.063zM139.204 135.225q-.317-.247-.645-.36-.328-.113-.72-.113-.923 0-1.412.58-.489.58-.489 1.676V140h-.994v-6.016h.994v1.177q.247-.64.76-.98.513-.342 1.217-.342.365 0 .682.092.317.091.607.284zM156.879 143.32V129.3h.86v14.02z"/><path d="M166.017 142.75v-1.402h.859v1.402zm-3.416 0v-1.402h.854v1.402zm1.708-1.96v-1.402h.854v1.402zm-3.416 0v-1.402h.848v1.402zm5.124-1.966v-1.402h.859v1.402zm-3.416 0v-1.402h.854v1.402zm1.708-1.96v-1.403h.854v1.402zm-3.416 0v-1.403h.848v1.402zm5.124-1.967v-1.401h.859v1.401zm-3.416 0v-1.401h.854v1.401zm1.708-1.96v-1.402h.854v1.402zm-3.416 0v-1.402h.848v1.402z" fill="#98CBFE"/><path d="M184.879 143.32V129.3h.86v14.02zM408.879 143.32V129.3h.86v14.02zM444.309 132.937l-1.144 4.104h2.288zm-.656-.956h1.316l2.455 8.019H446.3l-.59-2.09h-2.81l-.58 2.09H441.2zM453.699 139.694q-.398.23-.82.346-.421.116-.861.116-1.397 0-2.184-.838-.787-.838-.787-2.32 0-1.483.787-2.32.787-.839 2.184-.839.435 0 .848.113.414.113.833.35v1.036q-.392-.35-.787-.505-.395-.156-.894-.156-.93 0-1.43.602-.499.601-.499 1.719 0 1.111.503 1.716.502.604 1.426.604.515 0 .923-.159.409-.158.758-.491zM460.699 139.694q-.398.23-.82.346-.421.116-.861.116-1.397 0-2.184-.838-.787-.838-.787-2.32 0-1.483.787-2.32.787-.839 2.184-.839.435 0 .848.113.414.113.833.35v1.036q-.392-.35-.787-.505-.395-.156-.894-.156-.93 0-1.43.602-.499.601-.499 1.719 0 1.111.503 1.716.502.604 1.426.604.515 0 .923-.159.409-.158.758-.491zM468.016 136.498v.483h-4.281v.033q-.043 1.23.47 1.767.513.537 1.447.537.473 0 .989-.15.515-.15 1.1-.457v.983q-.563.23-1.087.346-.524.116-1.012.116-1.402 0-2.192-.84-.79-.841-.79-2.318 0-1.44.774-2.3.774-.859 2.063-.859 1.149 0 1.812.78.664.778.707 1.879zm-.989-.29q-.064-.623-.454-1.077-.389-.454-1.12-.454-.714 0-1.176.473-.462.473-.505 1.063zM474.226 134.194v.967q-.424-.247-.854-.371-.43-.123-.875-.123-.672 0-1.002.217-.33.218-.33.663 0 .403.247.602.247.199 1.23.387l.397.075q.736.14 1.115.558.378.42.378 1.09 0 .892-.634 1.395-.633.502-1.761.502-.446 0-.935-.094-.489-.094-1.058-.282v-1.02q.553.284 1.058.426.505.143.956.143.655 0 1.015-.266.36-.266.36-.744 0-.688-1.316-.95l-.043-.012-.37-.075q-.854-.166-1.246-.561t-.392-1.077q0-.865.585-1.335t1.67-.47q.484 0 .93.089.445.089.875.266zM481.226 134.194v.967q-.424-.247-.854-.371-.43-.123-.875-.123-.672 0-1.002.217-.33.218-.33.663 0 .403.247.602.247.199 1.23.387l.397.075q.736.14 1.115.558.378.42.378 1.09 0 .892-.634 1.395-.633.502-1.761.502-.446 0-.935-.094-.489-.094-1.058-.282v-1.02q.553.284 1.058.426.505.143.956.143.655 0 1.015-.266.36-.266.36-.744 0-.688-1.316-.95l-.043-.012-.37-.075q-.854-.166-1.246-.561t-.392-1.077q0-.865.585-1.335t1.67-.47q.484 0 .93.089.445.089.875.266zM488.763 139.715q-.413.22-.848.33-.436.11-.924.11-1.542 0-2.393-1.09-.851-1.09-.851-3.066 0-1.966.856-3.065.857-1.098 2.388-1.098.488 0 .924.11.435.11.848.33v1.112q-.397-.327-.854-.5-.456-.171-.918-.171-1.058 0-1.585.816-.526.817-.526 2.466 0 1.643.526 2.46.527.816 1.585.816.472 0 .926-.172.454-.172.846-.5zM493.309 134.677q-.752 0-1.14.586-.386.585-.386 1.735 0 1.144.387 1.732.387.588 1.139.588.757 0 1.144-.588.386-.588.386-1.732 0-1.15-.386-1.735-.387-.586-1.144-.586zm0-.838q1.251 0 1.914.811.664.811.664 2.348 0 1.541-.66 2.35-.662.808-1.918.808-1.252 0-1.913-.809-.66-.808-.66-2.35 0-1.536.66-2.347.661-.81 1.913-.81zM502.645 136.272V140h-.994v-3.728q0-.81-.284-1.192-.285-.381-.892-.381-.693 0-1.066.491-.373.492-.373 1.41v3.4h-.989v-6.016h.989v.903q.263-.516.714-.782.451-.266 1.069-.266.918 0 1.372.605.454.604.454 1.828zM507.298 132.276v1.708h2.245v.768h-2.245v3.266q0 .666.252.93.253.262.881.262h1.112v.79h-1.209q-1.111 0-1.568-.446-.456-.446-.456-1.536v-3.266h-1.606v-.768h1.606v-1.708zM517.204 135.225q-.317-.247-.645-.36-.328-.113-.72-.113-.923 0-1.412.58-.489.58-.489 1.676V140h-.994v-6.016h.994v1.177q.247-.64.76-.98.513-.342 1.217-.342.365 0 .682.092.317.091.607.284zM521.309 134.677q-.752 0-1.14.586-.386.585-.386 1.735 0 1.144.387 1.732.387.588 1.139.588.757 0 1.144-.588.386-.588.386-1.732 0-1.15-.386-1.735-.387-.586-1.144-.586zm0-.838q1.251 0 1.914.811.664.811.664 2.348 0 1.541-.66 2.35-.662.808-1.918.808-1.252 0-1.913-.809-.66-.808-.66-2.35 0-1.536.66-2.347.661-.81 1.913-.81zM528.862 137.825q0 .666.244 1.004.245.338.723.338h1.154V140h-1.251q-.886 0-1.372-.567-.486-.566-.486-1.608v-5.441h-1.585v-.774h2.573zM562.879 143.32V129.3h.86v14.02z"/><path d="M572.017 142.75v-1.402h.859v1.402zm-3.416 0v-1.402h.854v1.402zm1.708-1.96v-1.402h.854v1.402zm-3.416 0v-1.402h.848v1.402zm5.124-1.966v-1.402h.859v1.402zm-3.416 0v-1.402h.854v1.402zm1.708-1.96v-1.403h.854v1.402zm-3.416 0v-1.403h.848v1.402zm5.124-1.967v-1.401h.859v1.401zm-3.416 0v-1.401h.854v1.401zm1.708-1.96v-1.402h.854v1.402zm-3.416 0v-1.402h.848v1.402z" fill="#98CBFE"/><path d="M156.879 130.32V116.3h.86v14.02z"/><path d="M166.017 129.75v-1.402h.859v1.402zm-3.416 0v-1.402h.854v1.402zm1.708-1.96v-1.402h.854v1.402zm-3.416 0v-1.402h.848v1.402zm5.124-1.966v-1.402h.859v1.402zm-3.416 0v-1.402h.854v1.402zm1.708-1.96v-1.403h.854v1.402zm-3.416 0v-1.403h.848v1.402zm5.124-1.967v-1.401h.859v1.401zm-3.416 0v-1.401h.854v1.401zm1.708-1.96v-1.402h.854v1.402zm-3.416 0v-1.402h.848v1.402z" fill="#98CBFE"/><path d="M184.879 130.32V116.3h.86v14.02zM408.879 130.32V116.3h.86v14.02zM562.879 130.32V116.3h.86v14.02z"/><path d="M572.017 129.75v-1.402h.859v1.402zm-3.416 0v-1.402h.854v1.402zm1.708-1.96v-1.402h.854v1.402zm-3.416 0v-1.402h.848v1.402zm5.124-1.966v-1.402h.859v1.402zm-3.416 0v-1.402h.854v1.402zm1.708-1.96v-1.403h.854v1.402zm-3.416 0v-1.403h.848v1.402zm5.124-1.967v-1.401h.859v1.401zm-3.416 0v-1.401h.854v1.401zm1.708-1.96v-1.402h.854v1.402zm-3.416 0v-1.402h.848v1.402z" fill="#98CBFE"/><path d="M6.893 111.336v-.924h6.837v.924zM13.893 111.336v-.924h6.837v.924zM20.893 111.336v-.924h6.837v.924zM27.893 111.336v-.924h6.837v.924zM34.893 111.336v-.924h6.837v.924zM41.893 111.336v-.924h6.837v.924zM48.893 111.336v-.924h6.837v.924zM55.893 111.336v-.924h6.837v.924zM62.893 111.336v-.924h6.837v.924zM69.893 111.336v-.924h6.837v.924zM76.893 111.336v-.924h2.986v-7.111h.86v7.111h2.991v.924zM83.893 111.336v-.924h6.837v.924zM90.893 111.336v-.924h6.837v.924zM97.893 111.336v-.924h6.837v.924zM104.893 111.336v-.924h6.837v.924zM111.893 111.336v-.924h6.837v.924zM118.893 111.336v-.924h6.837v.924zM125.893 111.336v-.924h6.837v.924zM136.024 105.105h2.277v.769h-1.289v8.271h1.29v.768h-2.278zM145.763 113.715q-.413.22-.848.33-.436.11-.924.11-1.542 0-2.393-1.09-.851-1.09-.851-3.066 0-1.966.856-3.065.857-1.098 2.388-1.098.488 0 .924.11.435.11.848.33v1.112q-.397-.327-.854-.5-.456-.171-.918-.171-1.058 0-1.585.816-.526.817-.526 2.466 0 1.643.526 2.46.527.816 1.585.816.472 0 .926-.172.454-.172.846-.5zM150.867 105.105v9.808h-2.277v-.768h1.289v-8.271h-1.29v-.769zM156.879 117.32v-5.984h-2.986v-.924h3.845v6.907zM184.879 117.32V103.3h.86v14.02zM408.879 117.32v-6.908h3.851v.924h-2.992v5.983zM412.893 111.336v-.924h6.837v.924zM419.893 111.336v-.924h6.837v.924zM426.893 111.336v-.924h6.837v.924zM433.893 111.336v-.924h6.837v.924zM440.893 111.336v-.924h6.837v.924zM447.893 111.336v-.924h6.837v.924zM454.893 111.336v-.924h6.837v.924zM461.893 111.336v-.924h6.837v.924zM468.893 111.336v-.924h6.837v.924zM475.893 111.336v-.924h6.837v.924zM482.893 111.336v-.924h2.986v-7.111h.86v7.111h2.991v.924zM489.893 111.336v-.924h6.837v.924zM496.893 111.336v-.924h6.837v.924zM503.893 111.336v-.924h6.837v.924zM510.893 111.336v-.924h6.837v.924zM517.893 111.336v-.924h6.837v.924zM524.893 111.336v-.924h6.837v.924zM531.893 111.336v-.924h6.837v.924zM542.024 105.105h2.277v.769h-1.289v8.271h1.29v.768h-2.278zM551.763 113.715q-.413.22-.848.33-.436.11-.924.11-1.542 0-2.393-1.09-.851-1.09-.851-3.066 0-1.966.856-3.065.857-1.098 2.388-1.098.488 0 .924.11.435.11.848.33v1.112q-.397-.327-.854-.5-.456-.171-.918-.171-1.058 0-1.585.816-.526.817-.526 2.466 0 1.643.526 2.46.527.816 1.585.816.472 0 .926-.172.454-.172.846-.5zM556.867 105.105v9.808h-2.277v-.768h1.289v-8.271h-1.29v-.769zM562.879 117.32v-5.984h-2.986v-.924h3.845v6.907zM79.879 91.32v-6.908h3.851v.924h-2.992v5.983z"/><path d="M184.879 104.32V90.3h.86v14.02zM485.879 104.32V90.3h.86v14.02zM90.893 85.336v-.924h6.837v.924zM104.893 85.336v-.924h6.837v.924zM118.893 85.336v-.924h6.837v.924zM132.893 85.336v-.924h6.837v.924zM146.893 85.336v-.924h6.837v.924zM160.893 85.336v-.924h6.837v.924zM174.893 85.336v-.924h6.837v.924z"/><path d="M184.879 91.32V77.3h.86v14.02zM394.879 85.336V77.3h.86v7.111h2.991v.924zM398.893 85.336v-.924h6.837v.924zM405.893 85.336v-.924h6.837v.924zM412.893 85.336v-.924h6.837v.924zM419.893 85.336v-.924h6.837v.924zM426.893 85.336v-.924h6.837v.924zM433.893 85.336v-.924h6.837v.924zM440.893 85.336v-.924h6.837v.924zM447.893 85.336v-.924h6.837v.924zM454.893 85.336v-.924h6.837v.924zM461.893 85.336v-.924h6.837v.924zM468.893 85.336v-.924h6.837v.924zM475.893 85.336v-.924h6.837v.924zM485.879 91.32v-5.984h-2.986v-.924h6.837v.924h-2.992v5.983zM489.893 85.336v-.924h6.837v.924zM496.893 85.336v-.924h6.837v.924zM503.893 85.336v-.924h6.837v.924zM510.893 85.336v-.924h6.837v.924zM517.893 85.336v-.924h6.837v.924zM524.893 85.336v-.924h6.837v.924zM531.893 85.336v-.924h6.837v.924zM538.893 85.336v-.924h6.837v.924zM545.893 85.336v-.924h6.837v.924zM552.893 85.336v-.924h6.837v.924zM559.893 85.336v-.924h6.837v.924zM566.893 85.336v-.924h6.837v.924zM573.893 85.336v-.924h6.837v.924zM580.893 85.336v-.924h2.986v-7.111h.86v8.035zM107.879 13.32V6.411h3.851v.924h-2.992v5.983z"/><path d="M107.879 26.32V12.3h.86v14.02z"/><path d="M107.879 39.32V25.3h.86v14.02z"/><path d="M107.879 52.32V38.3h.86v14.02z"/><path d="M107.879 59.336V51.3h.86v7.111h2.991v.924z"/><path d="M117.017 77.75v-1.402h.859v1.402zm-3.416 0v-1.402h.854v1.402zm1.708-1.96v-1.402h.854v1.402zm-3.416 0v-1.402h.848v1.402zm5.124-1.966v-1.402h.859v1.402zm-3.416 0v-1.402h.854v1.402zm1.708-1.96V70.46h.854v1.402zm-3.416 0V70.46h.848v1.402zm5.124-1.967v-1.401h.859v1.401zm-3.416 0v-1.401h.854v1.401zm1.708-1.96v-1.402h.854v1.402zm-3.416 0v-1.402h.848v1.402zM124.017 77.75v-1.402h.859v1.402zm-3.416 0v-1.402h.854v1.402zm1.708-1.96v-1.402h.854v1.402zm-3.416 0v-1.402h.848v1.402zm5.124-1.966v-1.402h.859v1.402zm-3.416 0v-1.402h.854v1.402zm1.708-1.96V70.46h.854v1.402zm-3.416 0V70.46h.848v1.402zm5.124-1.967v-1.401h.859v1.401zm-3.416 0v-1.401h.854v1.401zm1.708-1.96v-1.402h.854v1.402zm-3.416 0v-1.402h.848v1.402zM131.017 77.75v-1.402h.859v1.402zm-3.416 0v-1.402h.854v1.402zm1.708-1.96v-1.402h.854v1.402zm-3.416 0v-1.402h.848v1.402zm5.124-1.966v-1.402h.859v1.402zm-3.416 0v-1.402h.854v1.402zm1.708-1.96V70.46h.854v1.402zm-3.416 0V70.46h.848v1.402zm5.124-1.967v-1.401h.859v1.401zm-3.416 0v-1.401h.854v1.401zm1.708-1.96v-1.402h.854v1.402zm-3.416 0v-1.402h.848v1.402zM138.017 77.75v-1.402h.859v1.402zm-3.416 0v-1.402h.854v1.402zm1.708-1.96v-1.402h.854v1.402zm-3.416 0v-1.402h.848v1.402zm5.124-1.966v-1.402h.859v1.402zm-3.416 0v-1.402h.854v1.402zm1.708-1.96V70.46h.854v1.402zm-3.416 0V70.46h.848v1.402zm5.124-1.967v-1.401h.859v1.401zm-3.416 0v-1.401h.854v1.401zm1.708-1.96v-1.402h.854v1.402zm-3.416 0v-1.402h.848v1.402zM145.017 77.75v-1.402h.859v1.402zm-3.416 0v-1.402h.854v1.402zm1.708-1.96v-1.402h.854v1.402zm-3.416 0v-1.402h.848v1.402zm5.124-1.966v-1.402h.859v1.402zm-3.416 0v-1.402h.854v1.402zm1.708-1.96V70.46h.854v1.402zm-3.416 0V70.46h.848v1.402zm5.124-1.967v-1.401h.859v1.401zm-3.416 0v-1.401h.854v1.401zm1.708-1.96v-1.402h.854v1.402zm-3.416 0v-1.402h.848v1.402zM152.017 77.75v-1.402h.859v1.402zm-3.416 0v-1.402h.854v1.402zm1.708-1.96v-1.402h.854v1.402zm-3.416 0v-1.402h.848v1.402zm5.124-1.966v-1.402h.859v1.402zm-3.416 0v-1.402h.854v1.402zm1.708-1.96V70.46h.854v1.402zm-3.416 0V70.46h.848v1.402zm5.124-1.967v-1.401h.859v1.401zm-3.416 0v-1.401h.854v1.401zm1.708-1.96v-1.402h.854v1.402zm-3.416 0v-1.402h.848v1.402zM159.017 77.75v-1.402h.859v1.402zm-3.416 0v-1.402h.854v1.402zm1.708-1.96v-1.402h.854v1.402zm-3.416 0v-1.402h.848v1.402zm5.124-1.966v-1.402h.859v1.402zm-3.416 0v-1.402h.854v1.402zm1.708-1.96V70.46h.854v1.402zm-3.416 0V70.46h.848v1.402zm5.124-1.967v-1.401h.859v1.401zm-3.416 0v-1.401h.854v1.401zm1.708-1.96v-1.402h.854v1.402zm-3.416 0v-1.402h.848v1.402zM166.017 77.75v-1.402h.859v1.402zm-3.416 0v-1.402h.854v1.402zm1.708-1.96v-1.402h.854v1.402zm-3.416 0v-1.402h.848v1.402zm5.124-1.966v-1.402h.859v1.402zm-3.416 0v-1.402h.854v1.402zm1.708-1.96V70.46h.854v1.402zm-3.416 0V70.46h.848v1.402zm5.124-1.967v-1.401h.859v1.401zm-3.416 0v-1.401h.854v1.401zm1.708-1.96v-1.402h.854v1.402zm-3.416 0v-1.402h.848v1.402zM173.017 77.75v-1.402h.859v1.402zm-3.416 0v-1.402h.854v1.402zm1.708-1.96v-1.402h.854v1.402zm-3.416 0v-1.402h.848v1.402zm5.124-1.966v-1.402h.859v1.402zm-3.416 0v-1.402h.854v1.402zm1.708-1.96V70.46h.854v1.402zm-3.416 0V70.46h.848v1.402zm5.124-1.967v-1.401h.859v1.401zm-3.416 0v-1.401h.854v1.401zm1.708-1.96v-1.402h.854v1.402zm-3.416 0v-1.402h.848v1.402zM180.017 77.75v-1.402h.859v1.402zm-3.416 0v-1.402h.854v1.402zm1.708-1.96v-1.402h.854v1.402zm-3.416 0v-1.402h.848v1.402zm5.124-1.966v-1.402h.859v1.402zm-3.416 0v-1.402h.854v1.402zm1.708-1.96V70.46h.854v1.402zm-3.416 0V70.46h.848v1.402zm5.124-1.967v-1.401h.859v1.401zm-3.416 0v-1.401h.854v1.401zm1.708-1.96v-1.402h.854v1.402zm-3.416 0v-1.402h.848v1.402z" fill="#98CBFE"/><path d="M184.879 78.32V64.3h.86v14.02z"/><path d="M194.017 77.75v-1.402h.859v1.402zm-3.416 0v-1.402h.854v1.402zm1.708-1.96v-1.402h.854v1.402zm-3.416 0v-1.402h.848v1.402zm5.124-1.966v-1.402h.859v1.402zm-3.416 0v-1.402h.854v1.402zm1.708-1.96V70.46h.854v1.402zm-3.416 0V70.46h.848v1.402zm5.124-1.967v-1.401h.859v1.401zm-3.416 0v-1.401h.854v1.401zm1.708-1.96v-1.402h.854v1.402zm-3.416 0v-1.402h.848v1.402zM201.017 77.75v-1.402h.859v1.402zm-3.416 0v-1.402h.854v1.402zm1.708-1.96v-1.402h.854v1.402zm-3.416 0v-1.402h.848v1.402zm5.124-1.966v-1.402h.859v1.402zm-3.416 0v-1.402h.854v1.402zm1.708-1.96V70.46h.854v1.402zm-3.416 0V70.46h.848v1.402zm5.124-1.967v-1.401h.859v1.401zm-3.416 0v-1.401h.854v1.401zm1.708-1.96v-1.402h.854v1.402zm-3.416 0v-1.402h.848v1.402zM208.017 77.75v-1.402h.859v1.402zm-3.416 0v-1.402h.854v1.402zm1.708-1.96v-1.402h.854v1.402zm-3.416 0v-1.402h.848v1.402zm5.124-1.966v-1.402h.859v1.402zm-3.416 0v-1.402h.854v1.402zm1.708-1.96V70.46h.854v1.402zm-3.416 0V70.46h.848v1.402zm5.124-1.967v-1.401h.859v1.401zm-3.416 0v-1.401h.854v1.401zm1.708-1.96v-1.402h.854v1.402zm-3.416 0v-1.402h.848v1.402zM215.017 77.75v-1.402h.859v1.402zm-3.416 0v-1.402h.854v1.402zm1.708-1.96v-1.402h.854v1.402zm-3.416 0v-1.402h.848v1.402zm5.124-1.966v-1.402h.859v1.402zm-3.416 0v-1.402h.854v1.402zm1.708-1.96V70.46h.854v1.402zm-3.416 0V70.46h.848v1.402zm5.124-1.967v-1.401h.859v1.401zm-3.416 0v-1.401h.854v1.401zm1.708-1.96v-1.402h.854v1.402zm-3.416 0v-1.402h.848v1.402zM222.017 77.75v-1.402h.859v1.402zm-3.416 0v-1.402h.854v1.402zm1.708-1.96v-1.402h.854v1.402zm-3.416 0v-1.402h.848v1.402zm5.124-1.966v-1.402h.859v1.402zm-3.416 0v-1.402h.854v1.402zm1.708-1.96V70.46h.854v1.402zm-3.416 0V70.46h.848v1.402zm5.124-1.967v-1.401h.859v1.401zm-3.416 0v-1.401h.854v1.401zm1.708-1.96v-1.402h.854v1.402zm-3.416 0v-1.402h.848v1.402zM229.017 77.75v-1.402h.859v1.402zm-3.416 0v-1.402h.854v1.402zm1.708-1.96v-1.402h.854v1.402zm-3.416 0v-1.402h.848v1.402zm5.124-1.966v-1.402h.859v1.402zm-3.416 0v-1.402h.854v1.402zm1.708-1.96V70.46h.854v1.402zm-3.416 0V70.46h.848v1.402zm5.124-1.967v-1.401h.859v1.401zm-3.416 0v-1.401h.854v1.401zm1.708-1.96v-1.402h.854v1.402zm-3.416 0v-1.402h.848v1.402zM236.017 77.75v-1.402h.859v1.402zm-3.416 0v-1.402h.854v1.402zm1.708-1.96v-1.402h.854v1.402zm-3.416 0v-1.402h.848v1.402zm5.124-1.966v-1.402h.859v1.402zm-3.416 0v-1.402h.854v1.402zm1.708-1.96V70.46h.854v1.402zm-3.416 0V70.46h.848v1.402zm5.124-1.967v-1.401h.859v1.401zm-3.416 0v-1.401h.854v1.401zm1.708-1.96v-1.402h.854v1.402zm-3.416 0v-1.402h.848v1.402zM243.017 77.75v-1.402h.859v1.402zm-3.416 0v-1.402h.854v1.402zm1.708-1.96v-1.402h.854v1.402zm-3.416 0v-1.402h.848v1.402zm5.124-1.966v-1.402h.859v1.402zm-3.416 0v-1.402h.854v1.402zm1.708-1.96V70.46h.854v1.402zm-3.416 0V70.46h.848v1.402zm5.124-1.967v-1.401h.859v1.401zm-3.416 0v-1.401h.854v1.401zm1.708-1.96v-1.402h.854v1.402zm-3.416 0v-1.402h.848v1.402zM250.017 77.75v-1.402h.859v1.402zm-3.416 0v-1.402h.854v1.402zm1.708-1.96v-1.402h.854v1.402zm-3.416 0v-1.402h.848v1.402zm5.124-1.966v-1.402h.859v1.402zm-3.416 0v-1.402h.854v1.402zm1.708-1.96V70.46h.854v1.402zm-3.416 0V70.46h.848v1.402zm5.124-1.967v-1.401h.859v1.401zm-3.416 0v-1.401h.854v1.401zm1.708-1.96v-1.402h.854v1.402zm-3.416 0v-1.402h.848v1.402zM257.017 77.75v-1.402h.859v1.402zm-3.416 0v-1.402h.854v1.402zm1.708-1.96v-1.402h.854v1.402zm-3.416 0v-1.402h.848v1.402zm5.124-1.966v-1.402h.859v1.402zm-3.416 0v-1.402h.854v1.402zm1.708-1.96V70.46h.854v1.402zm-3.416 0V70.46h.848v1.402zm5.124-1.967v-1.401h.859v1.401zm-3.416 0v-1.401h.854v1.401zm1.708-1.96v-1.402h.854v1.402zm-3.416 0v-1.402h.848v1.402zM264.017 77.75v-1.402h.859v1.402zm-3.416 0v-1.402h.854v1.402zm1.708-1.96v-1.402h.854v1.402zm-3.416 0v-1.402h.848v1.402zm5.124-1.966v-1.402h.859v1.402zm-3.416 0v-1.402h.854v1.402zm1.708-1.96V70.46h.854v1.402zm-3.416 0V70.46h.848v1.402zm5.124-1.967v-1.401h.859v1.401zm-3.416 0v-1.401h.854v1.401zm1.708-1.96v-1.402h.854v1.402zm-3.416 0v-1.402h.848v1.402zM271.017 77.75v-1.402h.859v1.402zm-3.416 0v-1.402h.854v1.402zm1.708-1.96v-1.402h.854v1.402zm-3.416 0v-1.402h.848v1.402zm5.124-1.966v-1.402h.859v1.402zm-3.416 0v-1.402h.854v1.402zm1.708-1.96V70.46h.854v1.402zm-3.416 0V70.46h.848v1.402zm5.124-1.967v-1.401h.859v1.401zm-3.416 0v-1.401h.854v1.401zm1.708-1.96v-1.402h.854v1.402zm-3.416 0v-1.402h.848v1.402z" fill="#98CBFE"/><path d="M327.017 77.75v-1.402h.859v1.402zm-3.416 0v-1.402h.854v1.402zm1.708-1.96v-1.402h.854v1.402zm-3.416 0v-1.402h.848v1.402zm5.124-1.966v-1.402h.859v1.402zm-3.416 0v-1.402h.854v1.402zm1.708-1.96V70.46h.854v1.402zm-3.416 0V70.46h.848v1.402zm5.124-1.967v-1.401h.859v1.401zm-3.416 0v-1.401h.854v1.401zm1.708-1.96v-1.402h.854v1.402zm-3.416 0v-1.402h.848v1.402zM334.017 77.75v-1.402h.859v1.402zm-3.416 0v-1.402h.854v1.402zm1.708-1.96v-1.402h.854v1.402zm-3.416 0v-1.402h.848v1.402zm5.124-1.966v-1.402h.859v1.402zm-3.416 0v-1.402h.854v1.402zm1.708-1.96V70.46h.854v1.402zm-3.416 0V70.46h.848v1.402zm5.124-1.967v-1.401h.859v1.401zm-3.416 0v-1.401h.854v1.401zm1.708-1.96v-1.402h.854v1.402zm-3.416 0v-1.402h.848v1.402zM341.017 77.75v-1.402h.859v1.402zm-3.416 0v-1.402h.854v1.402zm1.708-1.96v-1.402h.854v1.402zm-3.416 0v-1.402h.848v1.402zm5.124-1.966v-1.402h.859v1.402zm-3.416 0v-1.402h.854v1.402zm1.708-1.96V70.46h.854v1.402zm-3.416 0V70.46h.848v1.402zm5.124-1.967v-1.401h.859v1.401zm-3.416 0v-1.401h.854v1.401zm1.708-1.96v-1.402h.854v1.402zm-3.416 0v-1.402h.848v1.402zM348.017 77.75v-1.402h.859v1.402zm-3.416 0v-1.402h.854v1.402zm1.708-1.96v-1.402h.854v1.402zm-3.416 0v-1.402h.848v1.402zm5.124-1.966v-1.402h.859v1.402zm-3.416 0v-1.402h.854v1.402zm1.708-1.96V70.46h.854v1.402zm-3.416 0V70.46h.848v1.402zm5.124-1.967v-1.401h.859v1.401zm-3.416 0v-1.401h.854v1.401zm1.708-1.96v-1.402h.854v1.402zm-3.416 0v-1.402h.848v1.402zM355.017 77.75v-1.402h.859v1.402zm-3.416 0v-1.402h.854v1.402zm1.708-1.96v-1.402h.854v1.402zm-3.416 0v-1.402h.848v1.402zm5.124-1.966v-1.402h.859v1.402zm-3.416 0v-1.402h.854v1.402zm1.708-1.96V70.46h.854v1.402zm-3.416 0V70.46h.848v1.402zm5.124-1.967v-1.401h.859v1.401zm-3.416 0v-1.401h.854v1.401zm1.708-1.96v-1.402h.854v1.402zm-3.416 0v-1.402h.848v1.402zM362.017 77.75v-1.402h.859v1.402zm-3.416 0v-1.402h.854v1.402zm1.708-1.96v-1.402h.854v1.402zm-3.416 0v-1.402h.848v1.402zm5.124-1.966v-1.402h.859v1.402zm-3.416 0v-1.402h.854v1.402zm1.708-1.96V70.46h.854v1.402zm-3.416 0V70.46h.848v1.402zm5.124-1.967v-1.401h.859v1.401zm-3.416 0v-1.401h.854v1.401zm1.708-1.96v-1.402h.854v1.402zm-3.416 0v-1.402h.848v1.402zM369.017 77.75v-1.402h.859v1.402zm-3.416 0v-1.402h.854v1.402zm1.708-1.96v-1.402h.854v1.402zm-3.416 0v-1.402h.848v1.402zm5.124-1.966v-1.402h.859v1.402zm-3.416 0v-1.402h.854v1.402zm1.708-1.96V70.46h.854v1.402zm-3.416 0V70.46h.848v1.402zm5.124-1.967v-1.401h.859v1.401zm-3.416 0v-1.401h.854v1.401zm1.708-1.96v-1.402h.854v1.402zm-3.416 0v-1.402h.848v1.402zM376.017 77.75v-1.402h.859v1.402zm-3.416 0v-1.402h.854v1.402zm1.708-1.96v-1.402h.854v1.402zm-3.416 0v-1.402h.848v1.402zm5.124-1.966v-1.402h.859v1.402zm-3.416 0v-1.402h.854v1.402zm1.708-1.96V70.46h.854v1.402zm-3.416 0V70.46h.848v1.402zm5.124-1.967v-1.401h.859v1.401zm-3.416 0v-1.401h.854v1.401zm1.708-1.96v-1.402h.854v1.402zm-3.416 0v-1.402h.848v1.402zM383.017 77.75v-1.402h.859v1.402zm-3.416 0v-1.402h.854v1.402zm1.708-1.96v-1.402h.854v1.402zm-3.416 0v-1.402h.848v1.402zm5.124-1.966v-1.402h.859v1.402zm-3.416 0v-1.402h.854v1.402zm1.708-1.96V70.46h.854v1.402zm-3.416 0V70.46h.848v1.402zm5.124-1.967v-1.401h.859v1.401zm-3.416 0v-1.401h.854v1.401zm1.708-1.96v-1.402h.854v1.402zm-3.416 0v-1.402h.848v1.402zM390.017 77.75v-1.402h.859v1.402zm-3.416 0v-1.402h.854v1.402zm1.708-1.96v-1.402h.854v1.402zm-3.416 0v-1.402h.848v1.402zm5.124-1.966v-1.402h.859v1.402zm-3.416 0v-1.402h.854v1.402zm1.708-1.96V70.46h.854v1.402zm-3.416 0V70.46h.848v1.402zm5.124-1.967v-1.401h.859v1.401zm-3.416 0v-1.401h.854v1.401zm1.708-1.96v-1.402h.854v1.402zm-3.416 0v-1.402h.848v1.402z" fill="#CC98CC"/><path d="M394.879 78.32V64.3h.86v14.02z"/><path d="M404.017 77.75v-1.402h.859v1.402zm-3.416 0v-1.402h.854v1.402zm1.708-1.96v-1.402h.854v1.402zm-3.416 0v-1.402h.848v1.402zm5.124-1.966v-1.402h.859v1.402zm-3.416 0v-1.402h.854v1.402zm1.708-1.96V70.46h.854v1.402zm-3.416 0V70.46h.848v1.402zm5.124-1.967v-1.401h.859v1.401zm-3.416 0v-1.401h.854v1.401zm1.708-1.96v-1.402h.854v1.402zm-3.416 0v-1.402h.848v1.402zM411.017 77.75v-1.402h.859v1.402zm-3.416 0v-1.402h.854v1.402zm1.708-1.96v-1.402h.854v1.402zm-3.416 0v-1.402h.848v1.402zm5.124-1.966v-1.402h.859v1.402zm-3.416 0v-1.402h.854v1.402zm1.708-1.96V70.46h.854v1.402zm-3.416 0V70.46h.848v1.402zm5.124-1.967v-1.401h.859v1.401zm-3.416 0v-1.401h.854v1.401zm1.708-1.96v-1.402h.854v1.402zm-3.416 0v-1.402h.848v1.402zM418.017 77.75v-1.402h.859v1.402zm-3.416 0v-1.402h.854v1.402zm1.708-1.96v-1.402h.854v1.402zm-3.416 0v-1.402h.848v1.402zm5.124-1.966v-1.402h.859v1.402zm-3.416 0v-1.402h.854v1.402zm1.708-1.96V70.46h.854v1.402zm-3.416 0V70.46h.848v1.402zm5.124-1.967v-1.401h.859v1.401zm-3.416 0v-1.401h.854v1.401zm1.708-1.96v-1.402h.854v1.402zm-3.416 0v-1.402h.848v1.402zM425.017 77.75v-1.402h.859v1.402zm-3.416 0v-1.402h.854v1.402zm1.708-1.96v-1.402h.854v1.402zm-3.416 0v-1.402h.848v1.402zm5.124-1.966v-1.402h.859v1.402zm-3.416 0v-1.402h.854v1.402zm1.708-1.96V70.46h.854v1.402zm-3.416 0V70.46h.848v1.402zm5.124-1.967v-1.401h.859v1.401zm-3.416 0v-1.401h.854v1.401zm1.708-1.96v-1.402h.854v1.402zm-3.416 0v-1.402h.848v1.402zM432.017 77.75v-1.402h.859v1.402zm-3.416 0v-1.402h.854v1.402zm1.708-1.96v-1.402h.854v1.402zm-3.416 0v-1.402h.848v1.402zm5.124-1.966v-1.402h.859v1.402zm-3.416 0v-1.402h.854v1.402zm1.708-1.96V70.46h.854v1.402zm-3.416 0V70.46h.848v1.402zm5.124-1.967v-1.401h.859v1.401zm-3.416 0v-1.401h.854v1.401zm1.708-1.96v-1.402h.854v1.402zm-3.416 0v-1.402h.848v1.402zM439.017 77.75v-1.402h.859v1.402zm-3.416 0v-1.402h.854v1.402zm1.708-1.96v-1.402h.854v1.402zm-3.416 0v-1.402h.848v1.402zm5.124-1.966v-1.402h.859v1.402zm-3.416 0v-1.402h.854v1.402zm1.708-1.96V70.46h.854v1.402zm-3.416 0V70.46h.848v1.402zm5.124-1.967v-1.401h.859v1.401zm-3.416 0v-1.401h.854v1.401zm1.708-1.96v-1.402h.854v1.402zm-3.416 0v-1.402h.848v1.402zM446.017 77.75v-1.402h.859v1.402zm-3.416 0v-1.402h.854v1.402zm1.708-1.96v-1.402h.854v1.402zm-3.416 0v-1.402h.848v1.402zm5.124-1.966v-1.402h.859v1.402zm-3.416 0v-1.402h.854v1.402zm1.708-1.96V70.46h.854v1.402zm-3.416 0V70.46h.848v1.402zm5.124-1.967v-1.401h.859v1.401zm-3.416 0v-1.401h.854v1.401zm1.708-1.96v-1.402h.854v1.402zm-3.416 0v-1.402h.848v1.402zM453.017 77.75v-1.402h.859v1.402zm-3.416 0v-1.402h.854v1.402zm1.708-1.96v-1.402h.854v1.402zm-3.416 0v-1.402h.848v1.402zm5.124-1.966v-1.402h.859v1.402zm-3.416 0v-1.402h.854v1.402zm1.708-1.96V70.46h.854v1.402zm-3.416 0V70.46h.848v1.402zm5.124-1.967v-1.401h.859v1.401zm-3.416 0v-1.401h.854v1.401zm1.708-1.96v-1.402h.854v1.402zm-3.416 0v-1.402h.848v1.402zM460.017 77.75v-1.402h.859v1.402zm-3.416 0v-1.402h.854v1.402zm1.708-1.96v-1.402h.854v1.402zm-3.416 0v-1.402h.848v1.402zm5.124-1.966v-1.402h.859v1.402zm-3.416 0v-1.402h.854v1.402zm1.708-1.96V70.46h.854v1.402zm-3.416 0V70.46h.848v1.402zm5.124-1.967v-1.401h.859v1.401zm-3.416 0v-1.401h.854v1.401zm1.708-1.96v-1.402h.854v1.402zm-3.416 0v-1.402h.848v1.402zM467.017 77.75v-1.402h.859v1.402zm-3.416 0v-1.402h.854v1.402zm1.708-1.96v-1.402h.854v1.402zm-3.416 0v-1.402h.848v1.402zm5.124-1.966v-1.402h.859v1.402zm-3.416 0v-1.402h.854v1.402zm1.708-1.96V70.46h.854v1.402zm-3.416 0V70.46h.848v1.402zm5.124-1.967v-1.401h.859v1.401zm-3.416 0v-1.401h.854v1.401zm1.708-1.96v-1.402h.854v1.402zm-3.416 0v-1.402h.848v1.402zM474.017 77.75v-1.402h.859v1.402zm-3.416 0v-1.402h.854v1.402zm1.708-1.96v-1.402h.854v1.402zm-3.416 0v-1.402h.848v1.402zm5.124-1.966v-1.402h.859v1.402zm-3.416 0v-1.402h.854v1.402zm1.708-1.96V70.46h.854v1.402zm-3.416 0V70.46h.848v1.402zm5.124-1.967v-1.401h.859v1.401zm-3.416 0v-1.401h.854v1.401zm1.708-1.96v-1.402h.854v1.402zm-3.416 0v-1.402h.848v1.402zM481.017 77.75v-1.402h.859v1.402zm-3.416 0v-1.402h.854v1.402zm1.708-1.96v-1.402h.854v1.402zm-3.416 0v-1.402h.848v1.402zm5.124-1.966v-1.402h.859v1.402zm-3.416 0v-1.402h.854v1.402zm1.708-1.96V70.46h.854v1.402zm-3.416 0V70.46h.848v1.402zm5.124-1.967v-1.401h.859v1.401zm-3.416 0v-1.401h.854v1.401zm1.708-1.96v-1.402h.854v1.402zm-3.416 0v-1.402h.848v1.402zM516.017 77.75v-1.402h.859v1.402zm-3.416 0v-1.402h.854v1.402zm1.708-1.96v-1.402h.854v1.402zm-3.416 0v-1.402h.848v1.402zm5.124-1.966v-1.402h.859v1.402zm-3.416 0v-1.402h.854v1.402zm1.708-1.96V70.46h.854v1.402zm-3.416 0V70.46h.848v1.402zm5.124-1.967v-1.401h.859v1.401zm-3.416 0v-1.401h.854v1.401zm1.708-1.96v-1.402h.854v1.402zm-3.416 0v-1.402h.848v1.402zM523.017 77.75v-1.402h.859v1.402zm-3.416 0v-1.402h.854v1.402zm1.708-1.96v-1.402h.854v1.402zm-3.416 0v-1.402h.848v1.402zm5.124-1.966v-1.402h.859v1.402zm-3.416 0v-1.402h.854v1.402zm1.708-1.96V70.46h.854v1.402zm-3.416 0V70.46h.848v1.402zm5.124-1.967v-1.401h.859v1.401zm-3.416 0v-1.401h.854v1.401zm1.708-1.96v-1.402h.854v1.402zm-3.416 0v-1.402h.848v1.402zM530.017 77.75v-1.402h.859v1.402zm-3.416 0v-1.402h.854v1.402zm1.708-1.96v-1.402h.854v1.402zm-3.416 0v-1.402h.848v1.402zm5.124-1.966v-1.402h.859v1.402zm-3.416 0v-1.402h.854v1.402zm1.708-1.96V70.46h.854v1.402zm-3.416 0V70.46h.848v1.402zm5.124-1.967v-1.401h.859v1.401zm-3.416 0v-1.401h.854v1.401zm1.708-1.96v-1.402h.854v1.402zm-3.416 0v-1.402h.848v1.402zM537.017 77.75v-1.402h.859v1.402zm-3.416 0v-1.402h.854v1.402zm1.708-1.96v-1.402h.854v1.402zm-3.416 0v-1.402h.848v1.402zm5.124-1.966v-1.402h.859v1.402zm-3.416 0v-1.402h.854v1.402zm1.708-1.96V70.46h.854v1.402zm-3.416 0V70.46h.848v1.402zm5.124-1.967v-1.401h.859v1.401zm-3.416 0v-1.401h.854v1.401zm1.708-1.96v-1.402h.854v1.402zm-3.416 0v-1.402h.848v1.402zM544.017 77.75v-1.402h.859v1.402zm-3.416 0v-1.402h.854v1.402zm1.708-1.96v-1.402h.854v1.402zm-3.416 0v-1.402h.848v1.402zm5.124-1.966v-1.402h.859v1.402zm-3.416 0v-1.402h.854v1.402zm1.708-1.96V70.46h.854v1.402zm-3.416 0V70.46h.848v1.402zm5.124-1.967v-1.401h.859v1.401zm-3.416 0v-1.401h.854v1.401zm1.708-1.96v-1.402h.854v1.402zm-3.416 0v-1.402h.848v1.402zM551.017 77.75v-1.402h.859v1.402zm-3.416 0v-1.402h.854v1.402zm1.708-1.96v-1.402h.854v1.402zm-3.416 0v-1.402h.848v1.402zm5.124-1.966v-1.402h.859v1.402zm-3.416 0v-1.402h.854v1.402zm1.708-1.96V70.46h.854v1.402zm-3.416 0V70.46h.848v1.402zm5.124-1.967v-1.401h.859v1.401zm-3.416 0v-1.401h.854v1.401zm1.708-1.96v-1.402h.854v1.402zm-3.416 0v-1.402h.848v1.402zM558.017 77.75v-1.402h.859v1.402zm-3.416 0v-1.402h.854v1.402zm1.708-1.96v-1.402h.854v1.402zm-3.416 0v-1.402h.848v1.402zm5.124-1.966v-1.402h.859v1.402zm-3.416 0v-1.402h.854v1.402zm1.708-1.96V70.46h.854v1.402zm-3.416 0V70.46h.848v1.402zm5.124-1.967v-1.401h.859v1.401zm-3.416 0v-1.401h.854v1.401zm1.708-1.96v-1.402h.854v1.402zm-3.416 0v-1.402h.848v1.402zM565.017 77.75v-1.402h.859v1.402zm-3.416 0v-1.402h.854v1.402zm1.708-1.96v-1.402h.854v1.402zm-3.416 0v-1.402h.848v1.402zm5.124-1.966v-1.402h.859v1.402zm-3.416 0v-1.402h.854v1.402zm1.708-1.96V70.46h.854v1.402zm-3.416 0V70.46h.848v1.402zm5.124-1.967v-1.401h.859v1.401zm-3.416 0v-1.401h.854v1.401zm1.708-1.96v-1.402h.854v1.402zm-3.416 0v-1.402h.848v1.402zM572.017 77.75v-1.402h.859v1.402zm-3.416 0v-1.402h.854v1.402zm1.708-1.96v-1.402h.854v1.402zm-3.416 0v-1.402h.848v1.402zm5.124-1.966v-1.402h.859v1.402zm-3.416 0v-1.402h.854v1.402zm1.708-1.96V70.46h.854v1.402zm-3.416 0V70.46h.848v1.402zm5.124-1.967v-1.401h.859v1.401zm-3.416 0v-1.401h.854v1.401zm1.708-1.96v-1.402h.854v1.402zm-3.416 0v-1.402h.848v1.402zM579.017 77.75v-1.402h.859v1.402zm-3.416 0v-1.402h.854v1.402zm1.708-1.96v-1.402h.854v1.402zm-3.416 0v-1.402h.848v1.402zm5.124-1.966v-1.402h.859v1.402zm-3.416 0v-1.402h.854v1.402zm1.708-1.96V70.46h.854v1.402zm-3.416 0V70.46h.848v1.402zm5.124-1.967v-1.401h.859v1.401zm-3.416 0v-1.401h.854v1.401zm1.708-1.96v-1.402h.854v1.402zm-3.416 0v-1.402h.848v1.402z" fill="#CC98CC"/><path d="M583.879 78.32V64.3h.86v14.02z"/><path d="M593.017 77.75v-1.402h.859v1.402zm-3.416 0v-1.402h.854v1.402zm1.708-1.96v-1.402h.854v1.402zm-3.416 0v-1.402h.848v1.402zm5.124-1.966v-1.402h.859v1.402zm-3.416 0v-1.402h.854v1.402zm1.708-1.96V70.46h.854v1.402zm-3.416 0V70.46h.848v1.402zm5.124-1.967v-1.401h.859v1.401zm-3.416 0v-1.401h.854v1.401zm1.708-1.96v-1.402h.854v1.402zm-3.416 0v-1.402h.848v1.402zM600.017 77.75v-1.402h.859v1.402zm-3.416 0v-1.402h.854v1.402zm1.708-1.96v-1.402h.854v1.402zm-3.416 0v-1.402h.848v1.402zm5.124-1.966v-1.402h.859v1.402zm-3.416 0v-1.402h.854v1.402zm1.708-1.96V70.46h.854v1.402zm-3.416 0V70.46h.848v1.402zm5.124-1.967v-1.401h.859v1.401zm-3.416 0v-1.401h.854v1.401zm1.708-1.96v-1.402h.854v1.402zm-3.416 0v-1.402h.848v1.402zM607.017 77.75v-1.402h.859v1.402zm-3.416 0v-1.402h.854v1.402zm1.708-1.96v-1.402h.854v1.402zm-3.416 0v-1.402h.848v1.402zm5.124-1.966v-1.402h.859v1.402zm-3.416 0v-1.402h.854v1.402zm1.708-1.96V70.46h.854v1.402zm-3.416 0V70.46h.848v1.402zm5.124-1.967v-1.401h.859v1.401zm-3.416 0v-1.401h.854v1.401zm1.708-1.96v-1.402h.854v1.402zm-3.416 0v-1.402h.848v1.402zM614.017 77.75v-1.402h.859v1.402zm-3.416 0v-1.402h.854v1.402zm1.708-1.96v-1.402h.854v1.402zm-3.416 0v-1.402h.848v1.402zm5.124-1.966v-1.402h.859v1.402zm-3.416 0v-1.402h.854v1.402zm1.708-1.96V70.46h.854v1.402zm-3.416 0V70.46h.848v1.402zm5.124-1.967v-1.401h.859v1.401zm-3.416 0v-1.401h.854v1.401zm1.708-1.96v-1.402h.854v1.402zm-3.416 0v-1.402h.848v1.402zM621.017 77.75v-1.402h.859v1.402zm-3.416 0v-1.402h.854v1.402zm1.708-1.96v-1.402h.854v1.402zm-3.416 0v-1.402h.848v1.402zm5.124-1.966v-1.402h.859v1.402zm-3.416 0v-1.402h.854v1.402zm1.708-1.96V70.46h.854v1.402zm-3.416 0V70.46h.848v1.402zm5.124-1.967v-1.401h.859v1.401zm-3.416 0v-1.401h.854v1.401zm1.708-1.96v-1.402h.854v1.402zm-3.416 0v-1.402h.848v1.402zM628.017 77.75v-1.402h.859v1.402zm-3.416 0v-1.402h.854v1.402zm1.708-1.96v-1.402h.854v1.402zm-3.416 0v-1.402h.848v1.402zm5.124-1.966v-1.402h.859v1.402zm-3.416 0v-1.402h.854v1.402zm1.708-1.96V70.46h.854v1.402zm-3.416 0V70.46h.848v1.402zm5.124-1.967v-1.401h.859v1.401zm-3.416 0v-1.401h.854v1.401zm1.708-1.96v-1.402h.854v1.402zm-3.416 0v-1.402h.848v1.402zM635.017 77.75v-1.402h.859v1.402zm-3.416 0v-1.402h.854v1.402zm1.708-1.96v-1.402h.854v1.402zm-3.416 0v-1.402h.848v1.402zm5.124-1.966v-1.402h.859v1.402zm-3.416 0v-1.402h.854v1.402zm1.708-1.96V70.46h.854v1.402zm-3.416 0V70.46h.848v1.402zm5.124-1.967v-1.401h.859v1.401zm-3.416 0v-1.401h.854v1.401zm1.708-1.96v-1.402h.854v1.402zm-3.416 0v-1.402h.848v1.402zM642.017 77.75v-1.402h.859v1.402zm-3.416 0v-1.402h.854v1.402zm1.708-1.96v-1.402h.854v1.402zm-3.416 0v-1.402h.848v1.402zm5.124-1.966v-1.402h.859v1.402zm-3.416 0v-1.402h.854v1.402zm1.708-1.96V70.46h.854v1.402zm-3.416 0V70.46h.848v1.402zm5.124-1.967v-1.401h.859v1.401zm-3.416 0v-1.401h.854v1.401zm1.708-1.96v-1.402h.854v1.402zm-3.416 0v-1.402h.848v1.402zM649.017 77.75v-1.402h.859v1.402zm-3.416 0v-1.402h.854v1.402zm1.708-1.96v-1.402h.854v1.402zm-3.416 0v-1.402h.848v1.402zm5.124-1.966v-1.402h.859v1.402zm-3.416 0v-1.402h.854v1.402zm1.708-1.96V70.46h.854v1.402zm-3.416 0V70.46h.848v1.402zm5.124-1.967v-1.401h.859v1.401zm-3.416 0v-1.401h.854v1.401zm1.708-1.96v-1.402h.854v1.402zm-3.416 0v-1.402h.848v1.402zM656.017 77.75v-1.402h.859v1.402zm-3.416 0v-1.402h.854v1.402zm1.708-1.96v-1.402h.854v1.402zm-3.416 0v-1.402h.848v1.402zm5.124-1.966v-1.402h.859v1.402zm-3.416 0v-1.402h.854v1.402zm1.708-1.96V70.46h.854v1.402zm-3.416 0V70.46h.848v1.402zm5.124-1.967v-1.401h.859v1.401zm-3.416 0v-1.401h.854v1.401zm1.708-1.96v-1.402h.854v1.402zm-3.416 0v-1.402h.848v1.402zM663.017 77.75v-1.402h.859v1.402zm-3.416 0v-1.402h.854v1.402zm1.708-1.96v-1.402h.854v1.402zm-3.416 0v-1.402h.848v1.402zm5.124-1.966v-1.402h.859v1.402zm-3.416 0v-1.402h.854v1.402zm1.708-1.96V70.46h.854v1.402zm-3.416 0V70.46h.848v1.402zm5.124-1.967v-1.401h.859v1.401zm-3.416 0v-1.401h.854v1.401zm1.708-1.96v-1.402h.854v1.402zm-3.416 0v-1.402h.848v1.402zM670.017 77.75v-1.402h.859v1.402zm-3.416 0v-1.402h.854v1.402zm1.708-1.96v-1.402h.854v1.402zm-3.416 0v-1.402h.848v1.402zm5.124-1.966v-1.402h.859v1.402zm-3.416 0v-1.402h.854v1.402zm1.708-1.96V70.46h.854v1.402zm-3.416 0V70.46h.848v1.402zm5.124-1.967v-1.401h.859v1.401zm-3.416 0v-1.401h.854v1.401zm1.708-1.96v-1.402h.854v1.402zm-3.416 0v-1.402h.848v1.402z" fill="#CC98CC"/><path d="M111.893 59.336v-.924h6.837v.924zM118.893 59.336v-.924h6.837v.924zM125.893 59.336v-.924h6.837v.924zM132.893 59.336v-.924h6.837v.924zM139.893 59.336v-.924h6.837v.924zM146.893 59.336v-.924h6.837v.924zM153.893 59.336v-.924h6.837v.924zM160.893 59.336v-.924h6.837v.924zM167.893 59.336v-.924h6.837v.924zM174.893 59.336v-.924h6.837v.924zM184.879 65.32v-5.984h-2.986v-.924h6.837v.924h-2.992v5.983zM188.893 59.336v-.924h6.837v.924zM195.893 59.336v-.924h6.837v.924zM202.893 59.336v-.924h6.837v.924zM209.893 59.336v-.924h6.837v.924zM216.893 59.336v-.924h6.837v.924zM223.893 59.336v-.924h6.837v.924zM230.893 59.336v-.924h6.837v.924zM237.893 59.336v-.924h6.837v.924zM244.893 59.336v-.924h6.837v.924zM251.893 59.336v-.924h6.837v.924zM258.893 59.336v-.924h2.986v-7.111h.86v8.035z"/><path d="M271.017 64.75v-1.402h.859v1.402zm-3.416 0v-1.402h.854v1.402zm1.708-1.96v-1.402h.854v1.402zm-3.416 0v-1.402h.848v1.402zm5.124-1.966v-1.402h.859v1.402zm-3.416 0v-1.402h.854v1.402zm1.708-1.96V57.46h.854v1.402zm-3.416 0V57.46h.848v1.402zm5.124-1.967v-1.401h.859v1.401zm-3.416 0v-1.401h.854v1.401zm1.708-1.96v-1.402h.854v1.402zm-3.416 0v-1.402h.848v1.402z" fill="#98CBFE"/><path d="M317.879 59.336V51.3h.86v7.111h2.991v.924zM321.893 59.336v-.924h6.837v.924zM328.893 59.336v-.924h6.837v.924zM335.893 59.336v-.924h6.837v.924zM342.893 59.336v-.924h6.837v.924zM349.893 59.336v-.924h6.837v.924zM356.893 59.336v-.924h6.837v.924zM363.893 59.336v-.924h6.837v.924zM370.893 59.336v-.924h6.837v.924zM377.893 59.336v-.924h6.837v.924zM384.893 59.336v-.924h6.837v.924zM394.879 65.32v-5.984h-2.986v-.924h6.837v.924h-2.992v5.983zM398.893 59.336v-.924h6.837v.924zM405.893 59.336v-.924h6.837v.924zM412.893 59.336v-.924h6.837v.924zM419.893 59.336v-.924h6.837v.924zM426.893 59.336v-.924h6.837v.924zM433.893 59.336v-.924h6.837v.924zM440.893 59.336v-.924h6.837v.924zM447.893 59.336v-.924h6.837v.924zM454.893 59.336v-.924h6.837v.924zM461.893 59.336v-.924h6.837v.924zM468.893 59.336v-.924h2.986v-7.111h.86v8.035z"/><path d="M481.017 64.75v-1.402h.859v1.402zm-3.416 0v-1.402h.854v1.402zm1.708-1.96v-1.402h.854v1.402zm-3.416 0v-1.402h.848v1.402zm5.124-1.966v-1.402h.859v1.402zm-3.416 0v-1.402h.854v1.402zm1.708-1.96V57.46h.854v1.402zm-3.416 0V57.46h.848v1.402zm5.124-1.967v-1.401h.859v1.401zm-3.416 0v-1.401h.854v1.401zm1.708-1.96v-1.402h.854v1.402zm-3.416 0v-1.402h.848v1.402z" fill="#CC98CC"/><path d="M506.879 59.336V51.3h.86v7.111h2.991v.924zM510.893 59.336v-.924h6.837v.924zM517.893 59.336v-.924h6.837v.924zM524.893 59.336v-.924h6.837v.924zM531.893 59.336v-.924h6.837v.924zM538.893 59.336v-.924h6.837v.924zM545.893 59.336v-.924h6.837v.924zM552.893 59.336v-.924h6.837v.924zM559.893 59.336v-.924h6.837v.924zM566.893 59.336v-.924h6.837v.924zM573.893 59.336v-.924h6.837v.924zM583.879 65.32v-5.984h-2.986v-.924h6.837v.924h-2.992v5.983zM587.893 59.336v-.924h6.837v.924zM594.893 59.336v-.924h6.837v.924zM601.893 59.336v-.924h6.837v.924zM608.893 59.336v-.924h6.837v.924zM615.893 59.336v-.924h6.837v.924zM622.893 59.336v-.924h6.837v.924zM629.893 59.336v-.924h6.837v.924zM636.893 59.336v-.924h6.837v.924zM643.893 59.336v-.924h6.837v.924zM650.893 59.336v-.924h6.837v.924zM657.893 59.336v-.924h2.986v-7.111h.86v8.035z"/><path d="M670.017 64.75v-1.402h.859v1.402zm-3.416 0v-1.402h.854v1.402zm1.708-1.96v-1.402h.854v1.402zm-3.416 0v-1.402h.848v1.402zm5.124-1.966v-1.402h.859v1.402zm-3.416 0v-1.402h.854v1.402zm1.708-1.96V57.46h.854v1.402zm-3.416 0V57.46h.848v1.402zm5.124-1.967v-1.401h.859v1.401zm-3.416 0v-1.401h.854v1.401zm1.708-1.96v-1.402h.854v1.402zm-3.416 0v-1.402h.848v1.402z" fill="#CC98CC"/><path d="M143.309 28.937l-1.144 4.104h2.288zm-.656-.956h1.316L146.424 36H145.3l-.59-2.09h-2.81l-.58 2.09H140.2zM261.879 52.32V38.3h.86v14.02z"/><path d="M271.017 51.75v-1.402h.859v1.402zm-3.416 0v-1.402h.854v1.402zm1.708-1.96v-1.402h.854v1.402zm-3.416 0v-1.402h.848v1.402zm5.124-1.966v-1.402h.859v1.402zm-3.416 0v-1.402h.854v1.402zm1.708-1.96V44.46h.854v1.402zm-3.416 0V44.46h.848v1.402zm5.124-1.967v-1.401h.859v1.401zm-3.416 0v-1.401h.854v1.401zm1.708-1.96v-1.402h.854v1.402zm-3.416 0v-1.402h.848v1.402z" fill="#98CBFE"/><path d="M317.879 52.32V38.3h.86v14.02zM471.879 52.32V38.3h.86v14.02z"/><path d="M481.017 51.75v-1.402h.859v1.402zm-3.416 0v-1.402h.854v1.402zm1.708-1.96v-1.402h.854v1.402zm-3.416 0v-1.402h.848v1.402zm5.124-1.966v-1.402h.859v1.402zm-3.416 0v-1.402h.854v1.402zm1.708-1.96V44.46h.854v1.402zm-3.416 0V44.46h.848v1.402zm5.124-1.967v-1.401h.859v1.401zm-3.416 0v-1.401h.854v1.401zm1.708-1.96v-1.402h.854v1.402zm-3.416 0v-1.402h.848v1.402z" fill="#CC98CC"/><path d="M506.879 52.32V38.3h.86v14.02zM660.879 52.32V38.3h.86v14.02z"/><path d="M670.017 51.75v-1.402h.859v1.402zm-3.416 0v-1.402h.854v1.402zm1.708-1.96v-1.402h.854v1.402zm-3.416 0v-1.402h.848v1.402zm5.124-1.966v-1.402h.859v1.402zm-3.416 0v-1.402h.854v1.402zm1.708-1.96V44.46h.854v1.402zm-3.416 0V44.46h.848v1.402zm5.124-1.967v-1.401h.859v1.401zm-3.416 0v-1.401h.854v1.401zm1.708-1.96v-1.402h.854v1.402zm-3.416 0v-1.402h.848v1.402z" fill="#CC98CC"/><path d="M147.537 29.984h1.026l1.746 5.05 1.75-5.05h1.026L150.948 36h-1.273zM157.77 32.976h-.327q-.865 0-1.303.304-.437.303-.437.905 0 .542.327.843.328.3.908.3.816 0 1.284-.566.467-.567.472-1.566v-.22zm1.918-.408V36h-.994v-.892q-.317.538-.797.793-.481.255-1.168.255-.919 0-1.467-.519-.548-.518-.548-1.388 0-1.004.674-1.525.674-.521 1.98-.521h1.326v-.156q-.005-.72-.365-1.045-.36-.325-1.15-.325-.504 0-1.02.145-.515.145-1.004.425v-.989q.548-.21 1.05-.314.502-.105.975-.105.746 0 1.275.22.53.22.857.661.204.269.29.664.086.394.086 1.184zM166.226 30.194v.967q-.424-.247-.854-.371-.43-.123-.875-.123-.672 0-1.002.217-.33.218-.33.663 0 .403.247.602.247.199 1.23.387l.397.075q.736.14 1.115.558.378.42.378 1.09 0 .892-.634 1.395-.633.502-1.761.502-.446 0-.935-.094-.489-.094-1.058-.282v-1.02q.553.284 1.058.426.505.143.956.143.655 0 1.015-.266.36-.266.36-.744 0-.688-1.316-.95l-.043-.012-.37-.075q-.854-.166-1.246-.561t-.392-1.077q0-.865.585-1.335t1.67-.47q.484 0 .93.089.445.089.875.266zM171.298 28.276v1.708h2.245v.768h-2.245v3.266q0 .666.252.93.253.262.881.262h1.112V36h-1.209q-1.111 0-1.568-.446-.456-.446-.456-1.536v-3.266h-1.606v-.768h1.606v-1.708zM178.77 32.976h-.327q-.865 0-1.303.304-.437.303-.437.905 0 .542.327.843.328.3.908.3.816 0 1.284-.566.467-.567.472-1.566v-.22zm1.918-.408V36h-.994v-.892q-.317.538-.797.793-.481.255-1.168.255-.919 0-1.467-.519-.548-.518-.548-1.388 0-1.004.674-1.525.674-.521 1.98-.521h1.326v-.156q-.005-.72-.365-1.045-.36-.325-1.15-.325-.504 0-1.02.145-.515.145-1.004.425v-.989q.548-.21 1.05-.314.502-.105.975-.105.746 0 1.275.22.53.22.857.661.204.269.29.664.086.394.086 1.184zM188.204 31.225q-.317-.247-.645-.36-.328-.113-.72-.113-.923 0-1.412.58-.489.58-.489 1.676V36h-.994v-6.016h.994v1.177q.247-.64.76-.98.513-.342 1.217-.342.365 0 .682.092.317.091.607.284zM189.252 27.981h6.118v.913h-2.508V36h-1.09v-7.106h-2.52zM200.608 34.066q-.247.629-.628 1.655-.532 1.418-.714 1.73-.247.418-.618.628-.37.21-.865.21h-.795v-.828h.586q.435 0 .682-.253.247-.252.628-1.305l-2.325-5.919h1.047l1.783 4.705 1.757-4.705h1.047zM205.014 35.243v3.045h-.993v-8.304h.993v.768q.247-.445.658-.679.411-.234.948-.234 1.09 0 1.71.844.621.843.621 2.336 0 1.466-.623 2.302-.623.835-1.708.835-.548 0-.959-.234-.41-.234-.647-.68zm2.9-2.245q0-1.15-.362-1.735-.363-.586-1.077-.586-.72 0-1.09.588-.37.589-.37 1.733 0 1.138.37 1.73.37.59 1.09.59.714 0 1.077-.586.363-.585.363-1.734zM216.016 32.498v.483h-4.281v.033q-.043 1.23.47 1.767.513.537 1.447.537.473 0 .989-.15.515-.15 1.1-.457v.983q-.563.23-1.087.346-.524.116-1.012.116-1.402 0-2.192-.84-.79-.841-.79-2.318 0-1.44.774-2.3.774-.859 2.063-.859 1.149 0 1.812.78.664.778.707 1.879zm-.989-.29q-.064-.623-.454-1.077-.389-.454-1.12-.454-.714 0-1.176.473-.462.473-.505 1.063zM222.226 30.194v.967q-.424-.247-.854-.371-.43-.123-.875-.123-.672 0-1.002.217-.33.218-.33.663 0 .403.247.602.247.199 1.23.387l.397.075q.736.14 1.115.558.378.42.378 1.09 0 .892-.634 1.395-.633.502-1.761.502-.446 0-.935-.094-.489-.094-1.058-.282v-1.02q.553.284 1.058.426.505.143.956.143.655 0 1.015-.266.36-.266.36-.744 0-.688-1.316-.95l-.043-.012-.37-.075q-.854-.166-1.246-.561t-.392-1.077q0-.865.585-1.335t1.67-.47q.484 0 .93.089.445.089.875.266zM261.879 39.32V25.3h.86v14.02z"/><path d="M271.017 38.75v-1.402h.859v1.402zm-3.416 0v-1.402h.854v1.402zm1.708-1.96v-1.402h.854v1.402zm-3.416 0v-1.402h.848v1.402zm5.124-1.966v-1.402h.859v1.402zm-3.416 0v-1.402h.854v1.402zm1.708-1.96V31.46h.854v1.402zm-3.416 0V31.46h.848v1.402zm5.124-1.967v-1.401h.859v1.401zm-3.416 0v-1.401h.854v1.401zm1.708-1.96v-1.402h.854v1.402zm-3.416 0v-1.402h.848v1.402z" fill="#98CBFE"/><path d="M317.879 39.32V25.3h.86v14.02zM369.436 28.255v1.101q-.495-.317-.991-.478-.497-.161-1.002-.161-.768 0-1.214.357-.446.357-.446.964 0 .532.293.811.293.28 1.093.467l.57.13q1.127.262 1.643.826.515.564.515 1.537 0 1.144-.709 1.745-.709.602-2.062.602-.564 0-1.133-.121-.57-.12-1.144-.363v-1.154q.617.392 1.168.574.55.183 1.109.183.822 0 1.278-.368.457-.368.457-1.029 0-.601-.314-.918-.315-.317-1.093-.489l-.58-.134q-1.118-.253-1.623-.763-.504-.51-.504-1.37 0-1.074.722-1.72.722-.648 1.92-.648.462 0 .972.105.51.104 1.075.314zM374.77 32.976h-.327q-.865 0-1.303.304-.437.303-.437.905 0 .542.327.843.328.3.908.3.816 0 1.284-.566.467-.567.472-1.566v-.22zm1.918-.408V36h-.994v-.892q-.317.538-.797.793-.481.255-1.168.255-.919 0-1.467-.519-.548-.518-.548-1.388 0-1.004.674-1.525.675-.521 1.98-.521h1.326v-.156q-.005-.72-.365-1.045-.36-.325-1.15-.325-.504 0-1.02.145-.515.145-1.004.425v-.989q.548-.21 1.05-.314.502-.105.975-.105.746 0 1.275.22.53.22.857.661.204.269.29.664.086.394.086 1.184zM383.71 27.643v.821h-1.123q-.532 0-.739.218-.206.217-.206.77v.532h2.067v.768h-2.067V36h-.989v-5.248h-1.606v-.768h1.606v-.419q0-.988.454-1.455.454-.467 1.415-.467zM391.016 32.498v.483h-4.281v.033q-.043 1.23.47 1.767.513.537 1.447.537.473 0 .989-.15.515-.15 1.1-.457v.983q-.563.23-1.087.346-.524.116-1.012.116-1.402 0-2.192-.84-.79-.841-.79-2.318 0-1.44.774-2.3.774-.859 2.063-.859 1.149 0 1.812.78.664.778.707 1.879zm-.989-.29q-.064-.623-.454-1.077-.389-.454-1.12-.454-.714 0-1.176.473-.462.473-.505 1.063zM392.193 28.008h1.45l1.386 4.071 1.397-4.071h1.455V36h-1.004v-7.063l-1.429 4.21h-.822l-1.434-4.21V36h-.999zM402.77 32.976h-.327q-.865 0-1.303.304-.437.303-.437.905 0 .542.327.843.328.3.908.3.816 0 1.284-.566.467-.567.472-1.566v-.22zm1.918-.408V36h-.994v-.892q-.317.538-.797.793-.481.255-1.168.255-.919 0-1.467-.519-.548-.518-.548-1.388 0-1.004.674-1.525.675-.521 1.98-.521h1.326v-.156q-.005-.72-.365-1.045-.36-.325-1.15-.325-.504 0-1.02.145-.515.145-1.004.425v-.989q.548-.21 1.05-.314.502-.105.975-.105.746 0 1.275.22.53.22.857.661.204.269.29.664.086.394.086 1.184zM409.298 28.276v1.708h2.245v.768h-2.245v3.266q0 .666.252.93.253.262.881.262h1.112V36h-1.209q-1.111 0-1.568-.446-.456-.446-.456-1.536v-3.266h-1.606v-.768h1.606v-1.708zM418.645 32.272V36h-.994v-3.728q0-.81-.284-1.192-.285-.381-.892-.381-.693 0-1.066.491-.373.492-.373 1.41V36h-.989v-8.357h.989v3.244q.263-.516.714-.782.451-.266 1.069-.266.918 0 1.372.605.454.604.454 1.828zM471.879 39.32V25.3h.86v14.02z"/><path d="M481.017 38.75v-1.402h.859v1.402zm-3.416 0v-1.402h.854v1.402zm1.708-1.96v-1.402h.854v1.402zm-3.416 0v-1.402h.848v1.402zm5.124-1.966v-1.402h.859v1.402zm-3.416 0v-1.402h.854v1.402zm1.708-1.96V31.46h.854v1.402zm-3.416 0V31.46h.848v1.402zm5.124-1.967v-1.401h.859v1.401zm-3.416 0v-1.401h.854v1.401zm1.708-1.96v-1.402h.854v1.402zm-3.416 0v-1.402h.848v1.402z" fill="#CC98CC"/><path d="M506.879 39.32V25.3h.86v14.02zM571.082 32.213q.419.108.714.406.296.298.736 1.19l1.09 2.191h-1.165l-.956-2.025q-.414-.865-.744-1.114-.33-.25-.862-.25h-1.037V36h-1.09v-8.019h2.234q1.322 0 2.025.596.704.596.704 1.724 0 .795-.432 1.297-.433.503-1.217.615zm-2.224-3.34v2.846h1.187q.78 0 1.16-.349.382-.349.382-1.069 0-.693-.406-1.06-.405-.368-1.179-.368zM577.309 30.677q-.752 0-1.14.586-.386.585-.386 1.735 0 1.144.387 1.732.387.588 1.139.588.757 0 1.144-.588.386-.588.386-1.732 0-1.15-.386-1.735-.387-.586-1.144-.586zm0-.838q1.251 0 1.914.811.664.811.664 2.348 0 1.541-.66 2.35-.662.808-1.918.808-1.252 0-1.913-.809-.66-.808-.66-2.35 0-1.536.66-2.347.661-.81 1.913-.81zM584.862 33.825q0 .666.244 1.004.245.338.723.338h1.154V36h-1.251q-.886 0-1.372-.567-.486-.566-.486-1.608v-5.441h-1.585v-.774h2.573zM594.016 32.498v.483h-4.281v.033q-.043 1.23.47 1.767.513.537 1.447.537.473 0 .989-.15.515-.15 1.1-.457v.983q-.563.23-1.087.346-.524.116-1.012.116-1.402 0-2.192-.84-.79-.841-.79-2.318 0-1.44.774-2.3.774-.859 2.063-.859 1.149 0 1.812.78.664.778.707 1.879zm-.989-.29q-.064-.623-.454-1.077-.389-.454-1.12-.454-.714 0-1.176.473-.462.473-.505 1.063zM600.226 30.194v.967q-.424-.247-.854-.371-.43-.123-.875-.123-.672 0-1.002.217-.33.218-.33.663 0 .403.247.602.247.199 1.23.387l.397.075q.736.14 1.115.558.378.42.378 1.09 0 .892-.634 1.395-.633.502-1.761.502-.446 0-.935-.094-.489-.094-1.058-.282v-1.02q.553.284 1.058.426.505.143.956.143.655 0 1.015-.266.36-.266.36-.744 0-.688-1.316-.95l-.043-.012-.37-.075q-.854-.166-1.246-.561t-.392-1.077q0-.865.585-1.335t1.67-.47q.484 0 .93.089.445.089.875.266zM660.879 39.32V25.3h.86v14.02z"/><path d="M670.017 38.75v-1.402h.859v1.402zm-3.416 0v-1.402h.854v1.402zm1.708-1.96v-1.402h.854v1.402zm-3.416 0v-1.402h.848v1.402zm5.124-1.966v-1.402h.859v1.402zm-3.416 0v-1.402h.854v1.402zm1.708-1.96V31.46h.854v1.402zm-3.416 0V31.46h.848v1.402zm5.124-1.967v-1.401h.859v1.401zm-3.416 0v-1.401h.854v1.401zm1.708-1.96v-1.402h.854v1.402zm-3.416 0v-1.402h.848v1.402z" fill="#CC98CC"/><path d="M261.879 26.32V12.3h.86v14.02z"/><path d="M271.017 25.75v-1.402h.859v1.402zm-3.416 0v-1.402h.854v1.402zm1.708-1.96v-1.402h.854v1.402zm-3.416 0v-1.402h.848v1.402zm5.124-1.966v-1.402h.859v1.402zm-3.416 0v-1.402h.854v1.402zm1.708-1.96V18.46h.854v1.402zm-3.416 0V18.46h.848v1.402zm5.124-1.967v-1.401h.859v1.401zm-3.416 0v-1.401h.854v1.401zm1.708-1.96v-1.402h.854v1.402zm-3.416 0v-1.402h.848v1.402z" fill="#98CBFE"/><path d="M317.879 26.32V12.3h.86v14.02zM471.879 26.32V12.3h.86v14.02z"/><path d="M481.017 25.75v-1.402h.859v1.402zm-3.416 0v-1.402h.854v1.402zm1.708-1.96v-1.402h.854v1.402zm-3.416 0v-1.402h.848v1.402zm5.124-1.966v-1.402h.859v1.402zm-3.416 0v-1.402h.854v1.402zm1.708-1.96V18.46h.854v1.402zm-3.416 0V18.46h.848v1.402zm5.124-1.967v-1.401h.859v1.401zm-3.416 0v-1.401h.854v1.401zm1.708-1.96v-1.402h.854v1.402zm-3.416 0v-1.402h.848v1.402z" fill="#CC98CC"/><path d="M506.879 26.32V12.3h.86v14.02zM660.879 26.32V12.3h.86v14.02z"/><path d="M670.017 25.75v-1.402h.859v1.402zm-3.416 0v-1.402h.854v1.402zm1.708-1.96v-1.402h.854v1.402zm-3.416 0v-1.402h.848v1.402zm5.124-1.966v-1.402h.859v1.402zm-3.416 0v-1.402h.854v1.402zm1.708-1.96V18.46h.854v1.402zm-3.416 0V18.46h.848v1.402zm5.124-1.967v-1.401h.859v1.401zm-3.416 0v-1.401h.854v1.401zm1.708-1.96v-1.402h.854v1.402zm-3.416 0v-1.402h.848v1.402z" fill="#CC98CC"/><path d="M111.893 7.336v-.924h6.837v.924zM118.893 7.336v-.924h6.837v.924zM125.893 7.336v-.924h6.837v.924zM132.893 7.336v-.924h6.837v.924zM139.893 7.336v-.924h6.837v.924zM146.893 7.336v-.924h6.837v.924zM153.893 7.336v-.924h6.837v.924zM160.893 7.336v-.924h6.837v.924zM167.893 7.336v-.924h6.837v.924zM174.893 7.336v-.924h6.837v.924zM181.893 7.336v-.924h6.837v.924zM188.893 7.336v-.924h6.837v.924zM195.893 7.336v-.924h6.837v.924zM202.893 7.336v-.924h6.837v.924zM209.893 7.336v-.924h6.837v.924zM216.893 7.336v-.924h6.837v.924zM223.893 7.336v-.924h6.837v.924zM230.893 7.336v-.924h6.837v.924zM237.893 7.336v-.924h6.837v.924zM244.893 7.336v-.924h6.837v.924zM255.024 1.105h2.277v.769h-1.289v8.271h1.29v.768h-2.278zM264.763 9.715q-.413.22-.848.33-.436.11-.924.11-1.542 0-2.393-1.09-.851-1.09-.851-3.066 0-1.966.856-3.065.857-1.098 2.388-1.098.488 0 .924.11.435.11.848.33v1.112q-.397-.327-.854-.5-.456-.171-.918-.171-1.058 0-1.585.816-.526.817-.526 2.466 0 1.643.526 2.46.527.816 1.585.816.472 0 .926-.172.454-.172.846-.5zM269.867 1.105v9.808h-2.277v-.768h1.289V1.874h-1.29v-.769zM317.879 13.32V6.411h3.851v.924h-2.992v5.983zM321.893 7.336v-.924h6.837v.924zM328.893 7.336v-.924h6.837v.924zM335.893 7.336v-.924h6.837v.924zM342.893 7.336v-.924h6.837v.924zM349.893 7.336v-.924h6.837v.924zM356.893 7.336v-.924h6.837v.924zM363.893 7.336v-.924h6.837v.924zM370.893 7.336v-.924h6.837v.924zM377.893 7.336v-.924h6.837v.924zM384.893 7.336v-.924h6.837v.924zM391.893 7.336v-.924h6.837v.924zM398.893 7.336v-.924h6.837v.924zM405.893 7.336v-.924h6.837v.924zM412.893 7.336v-.924h6.837v.924zM419.893 7.336v-.924h6.837v.924zM430.024 1.105h2.277v.769h-1.289v8.271h1.29v.768h-2.278zM437.309 4.677q-.752 0-1.14.586-.386.585-.386 1.735 0 1.144.387 1.732.387.588 1.139.588.757 0 1.144-.588.386-.588.386-1.732 0-1.15-.386-1.735-.387-.586-1.144-.586zm0-.838q1.251 0 1.914.811.664.811.664 2.348 0 1.541-.66 2.35-.662.808-1.918.808-1.252 0-1.913-.809-.66-.808-.66-2.35 0-1.536.66-2.347.661-.81 1.913-.81zM442.22 3.974h4.366v.902l-3.454 4.318h3.454V10h-4.496v-.913l3.454-4.324h-3.325zM451.985 1.594v11h-.923v-11zM456.155 1.981h1.09v7.106h3.873V10h-4.963zM465.867 1.105v9.808h-2.277v-.768h1.289V1.874h-1.29v-.769zM471.879 13.32V7.335h-2.986v-.924h3.845v6.907zM506.879 13.32V6.411h3.851v.924h-2.992v5.983zM510.893 7.336v-.924h6.837v.924zM517.893 7.336v-.924h6.837v.924zM524.893 7.336v-.924h6.837v.924zM531.893 7.336v-.924h6.837v.924zM538.893 7.336v-.924h6.837v.924zM545.893 7.336v-.924h6.837v.924zM552.893 7.336v-.924h6.837v.924zM559.893 7.336v-.924h6.837v.924zM566.893 7.336v-.924h6.837v.924zM573.893 7.336v-.924h6.837v.924zM580.893 7.336v-.924h6.837v.924zM587.893 7.336v-.924h6.837v.924zM594.893 7.336v-.924h6.837v.924zM601.893 7.336v-.924h6.837v.924zM608.893 7.336v-.924h6.837v.924zM619.024 1.105h2.277v.769h-1.289v8.271h1.29v.768h-2.278zM626.309 4.677q-.752 0-1.14.586-.386.585-.386 1.735 0 1.144.387 1.732.387.588 1.139.588.757 0 1.144-.588.386-.588.386-1.732 0-1.15-.386-1.735-.387-.586-1.144-.586zm0-.838q1.251 0 1.914.811.664.811.664 2.348 0 1.541-.66 2.35-.662.808-1.918.808-1.252 0-1.913-.809-.66-.808-.66-2.35 0-1.536.66-2.347.661-.81 1.913-.81zM631.22 3.974h4.366v.902l-3.454 4.318h3.454V10h-4.496v-.913l3.454-4.324h-3.325zM640.985 1.594v11h-.923v-11zM645.155 1.981h1.09v7.106h3.873V10h-4.963zM654.867 1.105v9.808h-2.277v-.768h1.289V1.874h-1.29v-.769zM660.879 13.32V7.335h-2.986v-.924h3.845v6.907z"/></svg>