<svg xmlns="http://www.w3.org/2000/svg" width="673" height="287"><path d="M2.879 117.32v-6.908H6.73v.924H3.738v5.983z"/><path d="M2.879 130.32V116.3h.86v14.02z"/><path d="M2.879 143.32V129.3h.86v14.02z"/><path d="M2.879 156.32V142.3h.86v14.02z"/><path d="M2.879 163.336V155.3h.86v7.111H6.73v.924z"/><path d="M12.017 181.75v-1.402h.859v1.402zm-3.416 0v-1.402h.854v1.402zm1.708-1.96v-1.402h.854v1.402zm-3.416 0v-1.402h.848v1.402zm5.124-1.966v-1.402h.859v1.402zm-3.416 0v-1.402h.854v1.402zm1.708-1.96v-1.403h.854v1.402zm-3.416 0v-1.403h.848v1.402zm5.124-1.967v-1.401h.859v1.401zm-3.416 0v-1.401h.854v1.401zm1.708-1.96v-1.402h.854v1.402zm-3.416 0v-1.402h.848v1.402zm12.124 9.813v-1.402h.859v1.402zm-3.416 0v-1.402h.854v1.402zm1.708-1.96v-1.402h.854v1.402zm-3.416 0v-1.402h.848v1.402zm5.124-1.966v-1.402h.859v1.402zm-3.416 0v-1.402h.854v1.402zm1.708-1.96v-1.403h.854v1.402zm-3.416 0v-1.403h.848v1.402zm5.124-1.967v-1.401h.859v1.401zm-3.416 0v-1.401h.854v1.401zm1.708-1.96v-1.402h.854v1.402zm-3.416 0v-1.402h.848v1.402zm12.124 9.813v-1.402h.859v1.402zm-3.416 0v-1.402h.854v1.402zm1.708-1.96v-1.402h.854v1.402zm-3.416 0v-1.402h.848v1.402zm5.124-1.966v-1.402h.859v1.402zm-3.416 0v-1.402h.854v1.402zm1.708-1.96v-1.403h.854v1.402zm-3.416 0v-1.403h.848v1.402zm5.124-1.967v-1.401h.859v1.401zm-3.416 0v-1.401h.854v1.401zm1.708-1.96v-1.402h.854v1.402zm-3.416 0v-1.402h.848v1.402zm12.124 9.813v-1.402h.859v1.402zm-3.416 0v-1.402h.854v1.402zm1.708-1.96v-1.402h.854v1.402zm-3.416 0v-1.402h.848v1.402zm5.124-1.966v-1.402h.859v1.402zm-3.416 0v-1.402h.854v1.402zm1.708-1.96v-1.403h.854v1.402zm-3.416 0v-1.403h.848v1.402zm5.124-1.967v-1.401h.859v1.401zm-3.416 0v-1.401h.854v1.401zm1.708-1.96v-1.402h.854v1.402zm-3.416 0v-1.402h.848v1.402zm12.124 9.813v-1.402h.859v1.402zm-3.416 0v-1.402h.854v1.402zm1.708-1.96v-1.402h.854v1.402zm-3.416 0v-1.402h.848v1.402zm5.124-1.966v-1.402h.859v1.402zm-3.416 0v-1.402h.854v1.402zm1.708-1.96v-1.403h.854v1.402zm-3.416 0v-1.403h.848v1.402zm5.124-1.967v-1.401h.859v1.401zm-3.416 0v-1.401h.854v1.401zm1.708-1.96v-1.402h.854v1.402zm-3.416 0v-1.402h.848v1.402zm12.124 9.813v-1.402h.859v1.402zm-3.416 0v-1.402h.854v1.402zm1.708-1.96v-1.402h.854v1.402zm-3.416 0v-1.402h.848v1.402zm5.124-1.966v-1.402h.859v1.402zm-3.416 0v-1.402h.854v1.402zm1.708-1.96v-1.403h.854v1.402zm-3.416 0v-1.403h.848v1.402zm5.124-1.967v-1.401h.859v1.401zm-3.416 0v-1.401h.854v1.401zm1.708-1.96v-1.402h.854v1.402zm-3.416 0v-1.402h.848v1.402zm12.124 9.813v-1.402h.859v1.402zm-3.416 0v-1.402h.854v1.402zm1.708-1.96v-1.402h.854v1.402zm-3.416 0v-1.402h.848v1.402zm5.124-1.966v-1.402h.859v1.402zm-3.416 0v-1.402h.854v1.402zm1.708-1.96v-1.403h.854v1.402zm-3.416 0v-1.403h.848v1.402zm5.124-1.967v-1.401h.859v1.401zm-3.416 0v-1.401h.854v1.401zm1.708-1.96v-1.402h.854v1.402zm-3.416 0v-1.402h.848v1.402zm12.124 9.813v-1.402h.859v1.402zm-3.416 0v-1.402h.854v1.402zm1.708-1.96v-1.402h.854v1.402zm-3.416 0v-1.402h.848v1.402zm5.124-1.966v-1.402h.859v1.402zm-3.416 0v-1.402h.854v1.402zm1.708-1.96v-1.403h.854v1.402zm-3.416 0v-1.403h.848v1.402zm5.124-1.967v-1.401h.859v1.401zm-3.416 0v-1.401h.854v1.401zm1.708-1.96v-1.402h.854v1.402zm-3.416 0v-1.402h.848v1.402zm12.124 9.813v-1.402h.859v1.402zm-3.416 0v-1.402h.854v1.402zm1.708-1.96v-1.402h.854v1.402zm-3.416 0v-1.402h.848v1.402zm5.124-1.966v-1.402h.859v1.402zm-3.416 0v-1.402h.854v1.402zm1.708-1.96v-1.403h.854v1.402zm-3.416 0v-1.403h.848v1.402zm5.124-1.967v-1.401h.859v1.401zm-3.416 0v-1.401h.854v1.401zm1.708-1.96v-1.402h.854v1.402zm-3.416 0v-1.402h.848v1.402zm12.124 9.813v-1.402h.859v1.402zm-3.416 0v-1.402h.854v1.402zm1.708-1.96v-1.402h.854v1.402zm-3.416 0v-1.402h.848v1.402zm5.124-1.966v-1.402h.859v1.402zm-3.416 0v-1.402h.854v1.402zm1.708-1.96v-1.403h.854v1.402zm-3.416 0v-1.403h.848v1.402zm5.124-1.967v-1.401h.859v1.401zm-3.416 0v-1.401h.854v1.401zm1.708-1.96v-1.402h.854v1.402zm-3.416 0v-1.402h.848v1.402z" fill="#98CBFE"/><path d="M79.879 189.336V181.3h.86v7.111h2.991v.924zm126 31.984v-6.908h3.851v.924h-2.992v5.983z"/><path d="M205.879 234.32V220.3h.86v14.02z"/><path d="M205.879 247.32V233.3h.86v14.02z"/><path d="M205.879 260.32V246.3h.86v14.02z"/><path d="M205.879 267.336V259.3h.86v7.111h2.991v.924z"/><path d="M215.017 285.75v-1.402h.859v1.402zm-3.416 0v-1.402h.854v1.402zm1.708-1.96v-1.402h.854v1.402zm-3.416 0v-1.402h.848v1.402zm5.124-1.966v-1.402h.859v1.402zm-3.416 0v-1.402h.854v1.402zm1.708-1.96v-1.403h.854v1.402zm-3.416 0v-1.403h.848v1.402zm5.124-1.967v-1.401h.859v1.401zm-3.416 0v-1.401h.854v1.401zm1.708-1.96v-1.402h.854v1.402zm-3.416 0v-1.402h.848v1.402zm12.124 9.813v-1.402h.859v1.402zm-3.416 0v-1.402h.854v1.402zm1.708-1.96v-1.402h.854v1.402zm-3.416 0v-1.402h.848v1.402zm5.124-1.966v-1.402h.859v1.402zm-3.416 0v-1.402h.854v1.402zm1.708-1.96v-1.403h.854v1.402zm-3.416 0v-1.403h.848v1.402zm5.124-1.967v-1.401h.859v1.401zm-3.416 0v-1.401h.854v1.401zm1.708-1.96v-1.402h.854v1.402zm-3.416 0v-1.402h.848v1.402zm12.124 9.813v-1.402h.859v1.402zm-3.416 0v-1.402h.854v1.402zm1.708-1.96v-1.402h.854v1.402zm-3.416 0v-1.402h.848v1.402zm5.124-1.966v-1.402h.859v1.402zm-3.416 0v-1.402h.854v1.402zm1.708-1.96v-1.403h.854v1.402zm-3.416 0v-1.403h.848v1.402zm5.124-1.967v-1.401h.859v1.401zm-3.416 0v-1.401h.854v1.401zm1.708-1.96v-1.402h.854v1.402zm-3.416 0v-1.402h.848v1.402zm12.124 9.813v-1.402h.859v1.402zm-3.416 0v-1.402h.854v1.402zm1.708-1.96v-1.402h.854v1.402zm-3.416 0v-1.402h.848v1.402zm5.124-1.966v-1.402h.859v1.402zm-3.416 0v-1.402h.854v1.402zm1.708-1.96v-1.403h.854v1.402zm-3.416 0v-1.403h.848v1.402zm5.124-1.967v-1.401h.859v1.401zm-3.416 0v-1.401h.854v1.401zm1.708-1.96v-1.402h.854v1.402zm-3.416 0v-1.402h.848v1.402zm12.124 9.813v-1.402h.859v1.402zm-3.416 0v-1.402h.854v1.402zm1.708-1.96v-1.402h.854v1.402zm-3.416 0v-1.402h.848v1.402zm5.124-1.966v-1.402h.859v1.402zm-3.416 0v-1.402h.854v1.402zm1.708-1.96v-1.403h.854v1.402zm-3.416 0v-1.403h.848v1.402zm5.124-1.967v-1.401h.859v1.401zm-3.416 0v-1.401h.854v1.401zm1.708-1.96v-1.402h.854v1.402zm-3.416 0v-1.402h.848v1.402zm12.124 9.813v-1.402h.859v1.402zm-3.416 0v-1.402h.854v1.402zm1.708-1.96v-1.402h.854v1.402zm-3.416 0v-1.402h.848v1.402zm5.124-1.966v-1.402h.859v1.402zm-3.416 0v-1.402h.854v1.402zm1.708-1.96v-1.403h.854v1.402zm-3.416 0v-1.403h.848v1.402zm5.124-1.967v-1.401h.859v1.401zm-3.416 0v-1.401h.854v1.401zm1.708-1.96v-1.402h.854v1.402zm-3.416 0v-1.402h.848v1.402zm12.124 9.813v-1.402h.859v1.402zm-3.416 0v-1.402h.854v1.402zm1.708-1.96v-1.402h.854v1.402zm-3.416 0v-1.402h.848v1.402zm5.124-1.966v-1.402h.859v1.402zm-3.416 0v-1.402h.854v1.402zm1.708-1.96v-1.403h.854v1.402zm-3.416 0v-1.403h.848v1.402zm5.124-1.967v-1.401h.859v1.401zm-3.416 0v-1.401h.854v1.401zm1.708-1.96v-1.402h.854v1.402zm-3.416 0v-1.402h.848v1.402zm12.124 9.813v-1.402h.859v1.402zm-3.416 0v-1.402h.854v1.402zm1.708-1.96v-1.402h.854v1.402zm-3.416 0v-1.402h.848v1.402zm5.124-1.966v-1.402h.859v1.402zm-3.416 0v-1.402h.854v1.402zm1.708-1.96v-1.403h.854v1.402zm-3.416 0v-1.403h.848v1.402zm5.124-1.967v-1.401h.859v1.401zm-3.416 0v-1.401h.854v1.401zm1.708-1.96v-1.402h.854v1.402zm-3.416 0v-1.402h.848v1.402zm12.124 9.813v-1.402h.859v1.402zm-3.416 0v-1.402h.854v1.402zm1.708-1.96v-1.402h.854v1.402zm-3.416 0v-1.402h.848v1.402zm5.124-1.966v-1.402h.859v1.402zm-3.416 0v-1.402h.854v1.402zm1.708-1.96v-1.403h.854v1.402zm-3.416 0v-1.403h.848v1.402zm5.124-1.967v-1.401h.859v1.401zm-3.416 0v-1.401h.854v1.401zm1.708-1.96v-1.402h.854v1.402zm-3.416 0v-1.402h.848v1.402zm12.124 9.813v-1.402h.859v1.402zm-3.416 0v-1.402h.854v1.402zm1.708-1.96v-1.402h.854v1.402zm-3.416 0v-1.402h.848v1.402zm5.124-1.966v-1.402h.859v1.402zm-3.416 0v-1.402h.854v1.402zm1.708-1.96v-1.403h.854v1.402zm-3.416 0v-1.403h.848v1.402zm5.124-1.967v-1.401h.859v1.401zm-3.416 0v-1.401h.854v1.401zm1.708-1.96v-1.402h.854v1.402zm-3.416 0v-1.402h.848v1.402zm12.124 9.813v-1.402h.859v1.402zm-3.416 0v-1.402h.854v1.402zm1.708-1.96v-1.402h.854v1.402zm-3.416 0v-1.402h.848v1.402zm5.124-1.966v-1.402h.859v1.402zm-3.416 0v-1.402h.854v1.402zm1.708-1.96v-1.403h.854v1.402zm-3.416 0v-1.403h.848v1.402zm5.124-1.967v-1.401h.859v1.401zm-3.416 0v-1.401h.854v1.401zm1.708-1.96v-1.402h.854v1.402zm-3.416 0v-1.402h.848v1.402zm12.124 9.813v-1.402h.859v1.402zm-3.416 0v-1.402h.854v1.402zm1.708-1.96v-1.402h.854v1.402zm-3.416 0v-1.402h.848v1.402zm5.124-1.966v-1.402h.859v1.402zm-3.416 0v-1.402h.854v1.402zm1.708-1.96v-1.403h.854v1.402zm-3.416 0v-1.403h.848v1.402zm5.124-1.967v-1.401h.859v1.401zm-3.416 0v-1.401h.854v1.401zm1.708-1.96v-1.402h.854v1.402zm-3.416 0v-1.402h.848v1.402zm12.124 9.813v-1.402h.859v1.402zm-3.416 0v-1.402h.854v1.402zm1.708-1.96v-1.402h.854v1.402zm-3.416 0v-1.402h.848v1.402zm5.124-1.966v-1.402h.859v1.402zm-3.416 0v-1.402h.854v1.402zm1.708-1.96v-1.403h.854v1.402zm-3.416 0v-1.403h.848v1.402zm5.124-1.967v-1.401h.859v1.401zm-3.416 0v-1.401h.854v1.401zm1.708-1.96v-1.402h.854v1.402zm-3.416 0v-1.402h.848v1.402zm12.124 9.813v-1.402h.859v1.402zm-3.416 0v-1.402h.854v1.402zm1.708-1.96v-1.402h.854v1.402zm-3.416 0v-1.402h.848v1.402zm5.124-1.966v-1.402h.859v1.402zm-3.416 0v-1.402h.854v1.402zm1.708-1.96v-1.403h.854v1.402zm-3.416 0v-1.403h.848v1.402zm5.124-1.967v-1.401h.859v1.401zm-3.416 0v-1.401h.854v1.401zm1.708-1.96v-1.402h.854v1.402zm-3.416 0v-1.402h.848v1.402zm12.124 9.813v-1.402h.859v1.402zm-3.416 0v-1.402h.854v1.402zm1.708-1.96v-1.402h.854v1.402zm-3.416 0v-1.402h.848v1.402zm5.124-1.966v-1.402h.859v1.402zm-3.416 0v-1.402h.854v1.402zm1.708-1.96v-1.403h.854v1.402zm-3.416 0v-1.403h.848v1.402zm5.124-1.967v-1.401h.859v1.401zm-3.416 0v-1.401h.854v1.401zm1.708-1.96v-1.402h.854v1.402zm-3.416 0v-1.402h.848v1.402zm12.124 9.813v-1.402h.859v1.402zm-3.416 0v-1.402h.854v1.402zm1.708-1.96v-1.402h.854v1.402zm-3.416 0v-1.402h.848v1.402zm5.124-1.966v-1.402h.859v1.402zm-3.416 0v-1.402h.854v1.402zm1.708-1.96v-1.403h.854v1.402zm-3.416 0v-1.403h.848v1.402zm5.124-1.967v-1.401h.859v1.401zm-3.416 0v-1.401h.854v1.401zm1.708-1.96v-1.402h.854v1.402zm-3.416 0v-1.402h.848v1.402zm12.124 9.813v-1.402h.859v1.402zm-3.416 0v-1.402h.854v1.402zm1.708-1.96v-1.402h.854v1.402zm-3.416 0v-1.402h.848v1.402zm5.124-1.966v-1.402h.859v1.402zm-3.416 0v-1.402h.854v1.402zm1.708-1.96v-1.403h.854v1.402zm-3.416 0v-1.403h.848v1.402zm5.124-1.967v-1.401h.859v1.401zm-3.416 0v-1.401h.854v1.401zm1.708-1.96v-1.402h.854v1.402zm-3.416 0v-1.402h.848v1.402zm12.124 9.813v-1.402h.859v1.402zm-3.416 0v-1.402h.854v1.402zm1.708-1.96v-1.402h.854v1.402zm-3.416 0v-1.402h.848v1.402zm5.124-1.966v-1.402h.859v1.402zm-3.416 0v-1.402h.854v1.402zm1.708-1.96v-1.403h.854v1.402zm-3.416 0v-1.403h.848v1.402zm5.124-1.967v-1.401h.859v1.401zm-3.416 0v-1.401h.854v1.401zm1.708-1.96v-1.402h.854v1.402zm-3.416 0v-1.402h.848v1.402zm12.124 9.813v-1.402h.859v1.402zm-3.416 0v-1.402h.854v1.402zm1.708-1.96v-1.402h.854v1.402zm-3.416 0v-1.402h.848v1.402zm5.124-1.966v-1.402h.859v1.402zm-3.416 0v-1.402h.854v1.402zm1.708-1.96v-1.403h.854v1.402zm-3.416 0v-1.403h.848v1.402zm5.124-1.967v-1.401h.859v1.401zm-3.416 0v-1.401h.854v1.401zm1.708-1.96v-1.402h.854v1.402zm-3.416 0v-1.402h.848v1.402zm12.124 9.813v-1.402h.859v1.402zm-3.416 0v-1.402h.854v1.402zm1.708-1.96v-1.402h.854v1.402zm-3.416 0v-1.402h.848v1.402zm5.124-1.966v-1.402h.859v1.402zm-3.416 0v-1.402h.854v1.402zm1.708-1.96v-1.403h.854v1.402zm-3.416 0v-1.403h.848v1.402zm5.124-1.967v-1.401h.859v1.401zm-3.416 0v-1.401h.854v1.401zm1.708-1.96v-1.402h.854v1.402zm-3.416 0v-1.402h.848v1.402zm12.124 9.813v-1.402h.859v1.402zm-3.416 0v-1.402h.854v1.402zm1.708-1.96v-1.402h.854v1.402zm-3.416 0v-1.402h.848v1.402zm5.124-1.966v-1.402h.859v1.402zm-3.416 0v-1.402h.854v1.402zm1.708-1.96v-1.403h.854v1.402zm-3.416 0v-1.403h.848v1.402zm5.124-1.967v-1.401h.859v1.401zm-3.416 0v-1.401h.854v1.401zm1.708-1.96v-1.402h.854v1.402zm-3.416 0v-1.402h.848v1.402zm12.124 9.813v-1.402h.859v1.402zm-3.416 0v-1.402h.854v1.402zm1.708-1.96v-1.402h.854v1.402zm-3.416 0v-1.402h.848v1.402zm5.124-1.966v-1.402h.859v1.402zm-3.416 0v-1.402h.854v1.402zm1.708-1.96v-1.403h.854v1.402zm-3.416 0v-1.403h.848v1.402zm5.124-1.967v-1.401h.859v1.401zm-3.416 0v-1.401h.854v1.401zm1.708-1.96v-1.402h.854v1.402zm-3.416 0v-1.402h.848v1.402zm12.124 9.813v-1.402h.859v1.402zm-3.416 0v-1.402h.854v1.402zm1.708-1.96v-1.402h.854v1.402zm-3.416 0v-1.402h.848v1.402zm5.124-1.966v-1.402h.859v1.402zm-3.416 0v-1.402h.854v1.402zm1.708-1.96v-1.403h.854v1.402zm-3.416 0v-1.403h.848v1.402zm5.124-1.967v-1.401h.859v1.401zm-3.416 0v-1.401h.854v1.401zm1.708-1.96v-1.402h.854v1.402zm-3.416 0v-1.402h.848v1.402z" fill="#A7D3A9"/><path d="M209.893 267.336v-.924h6.837v.924zm7 0v-.924h6.837v.924zm7 0v-.924h6.837v.924zm7 0v-.924h6.837v.924zm7 0v-.924h6.837v.924zm7 0v-.924h6.837v.924zm7 0v-.924h6.837v.924zm7 0v-.924h6.837v.924zm7 0v-.924h6.837v.924zm7 0v-.924h6.837v.924zm7 0v-.924h6.837v.924zm7 0v-.924h6.837v.924zm7 0v-.924h6.837v.924zm7 0v-.924h6.837v.924zm7 0v-.924h6.837v.924zm7 0v-.924h6.837v.924zm7 0v-.924h6.837v.924zm7 0v-.924h6.837v.924zm7 0v-.924h6.837v.924zm7 0v-.924h6.837v.924zm7 0v-.924h6.837v.924zm7 0v-.924h2.986v-7.111h.86v8.035z"/><path d="M369.017 272.75v-1.402h.859v1.402zm-3.416 0v-1.402h.854v1.402zm1.708-1.96v-1.402h.854v1.402zm-3.416 0v-1.402h.848v1.402zm5.124-1.966v-1.402h.859v1.402zm-3.416 0v-1.402h.854v1.402zm1.708-1.96v-1.403h.854v1.402zm-3.416 0v-1.403h.848v1.402zm5.124-1.967v-1.401h.859v1.401zm-3.416 0v-1.401h.854v1.401zm1.708-1.96v-1.402h.854v1.402zm-3.416 0v-1.402h.848v1.402z" fill="#A7D3A9"/><path d="M220.309 236.937l-1.144 4.104h2.288zm-.656-.956h1.316l2.455 8.019H222.3l-.59-2.09h-2.81l-.58 2.09h-1.12zm140.226 24.339V246.3h.86v14.02z"/><path d="M369.017 259.75v-1.402h.859v1.402zm-3.416 0v-1.402h.854v1.402zm1.708-1.96v-1.402h.854v1.402zm-3.416 0v-1.402h.848v1.402zm5.124-1.966v-1.402h.859v1.402zm-3.416 0v-1.402h.854v1.402zm1.708-1.96v-1.403h.854v1.402zm-3.416 0v-1.403h.848v1.402zm5.124-1.967v-1.401h.859v1.401zm-3.416 0v-1.401h.854v1.401zm1.708-1.96v-1.402h.854v1.402zm-3.416 0v-1.402h.848v1.402z" fill="#A7D3A9"/><path d="M224.537 237.984h1.026l1.746 5.05 1.75-5.05h1.026L227.948 244h-1.273zm10.233 2.992h-.327q-.865 0-1.303.304-.437.303-.437.905 0 .542.327.843.328.3.908.3.816 0 1.284-.566.467-.567.472-1.566v-.22zm1.918-.408V244h-.994v-.892q-.317.538-.797.793-.481.255-1.168.255-.919 0-1.467-.519-.548-.518-.548-1.388 0-1.004.674-1.525.674-.521 1.98-.521h1.326v-.156q-.005-.72-.365-1.045-.36-.325-1.15-.325-.504 0-1.02.145-.515.145-1.004.425v-.989q.548-.21 1.05-.314.502-.105.975-.105.746 0 1.275.22.53.22.857.661.204.269.29.664.086.394.086 1.184zm6.538-2.374v.967q-.424-.247-.854-.371-.43-.123-.875-.123-.672 0-1.002.217-.33.218-.33.663 0 .403.247.602.247.199 1.23.387l.397.075q.736.14 1.115.558.378.42.378 1.09 0 .892-.634 1.395-.633.502-1.761.502-.446 0-.935-.094-.489-.094-1.058-.282v-1.02q.553.284 1.058.426.505.143.956.143.655 0 1.015-.266.36-.266.36-.744 0-.688-1.316-.95l-.043-.012-.37-.075q-.854-.166-1.246-.561t-.392-1.077q0-.865.585-1.335t1.67-.47q.484 0 .93.089.445.089.875.266zm5.072-1.918v1.708h2.245v.768h-2.245v3.266q0 .666.252.93.253.262.881.262h1.112v.79h-1.209q-1.111 0-1.568-.446-.456-.446-.456-1.536v-3.266h-1.606v-.768h1.606v-1.708zm7.472 4.7h-.327q-.865 0-1.303.304-.437.303-.437.905 0 .542.327.843.328.3.908.3.816 0 1.284-.566.467-.567.472-1.566v-.22zm1.918-.408V244h-.994v-.892q-.317.538-.797.793-.481.255-1.168.255-.919 0-1.467-.519-.548-.518-.548-1.388 0-1.004.674-1.525.674-.521 1.98-.521h1.326v-.156q-.005-.72-.365-1.045-.36-.325-1.15-.325-.504 0-1.02.145-.515.145-1.004.425v-.989q.548-.21 1.05-.314.502-.105.975-.105.746 0 1.275.22.53.22.857.661.204.269.29.664.086.394.086 1.184zm7.516-1.343q-.317-.247-.645-.36-.328-.113-.72-.113-.923 0-1.412.58-.489.58-.489 1.676V244h-.994v-6.016h.994v1.177q.247-.64.76-.98.513-.342 1.217-.342.365 0 .682.092.317.091.607.284zm2.939-2.352v3.013h1.257q.752 0 1.173-.398.422-.397.422-1.112 0-.714-.419-1.109-.419-.394-1.176-.394zm-1.085-.892h2.342q1.343 0 2.036.61.692.61.692 1.785 0 1.187-.69 1.794t-2.038.607h-1.257V244h-1.085zm12.146 3.244q-.317-.247-.645-.36-.328-.113-.72-.113-.923 0-1.412.58-.489.58-.489 1.676V244h-.994v-6.016h.994v1.177q.247-.64.76-.98.513-.342 1.217-.342.365 0 .682.092.317.091.607.284zm2.493-1.219h2.53v5.226h1.96V244h-4.909v-.768h1.96v-4.458h-1.54zm1.542-2.337h.988v1.247h-.988zm7.391 2.928q.183-.387.465-.572.282-.186.68-.186.725 0 1.023.562.298.56.298 2.113V244h-.902v-3.443q0-1.273-.142-1.582-.143-.308-.519-.308-.43 0-.588.33-.158.33-.158 1.56V244h-.903v-3.443q0-1.289-.153-1.59-.153-.3-.55-.3-.392 0-.546.33-.153.33-.153 1.56V244h-.897v-6.016h.897v.516q.178-.322.444-.491.265-.17.604-.17.408 0 .68.188.27.188.42.57zm9.386 1.901v.483h-4.281v.033q-.043 1.23.47 1.767.513.537 1.447.537.473 0 .989-.15.515-.15 1.1-.457v.983q-.563.23-1.087.346-.524.116-1.012.116-1.402 0-2.192-.84-.79-.841-.79-2.318 0-1.44.774-2.3.774-.859 2.063-.859 1.149 0 1.812.78.664.778.707 1.879zm-.989-.29q-.064-.623-.454-1.077-.389-.454-1.12-.454-.714 0-1.176.473-.462.473-.505 1.063zm2.166-4.2h1.45l1.386 4.071 1.397-4.071h1.455V244h-1.004v-7.063l-1.429 4.21h-.822l-1.434-4.21V244h-.999zm8.504 1.998h2.53v5.226h1.96V244h-4.909v-.768h1.96v-4.458h-1.54zm1.542-2.337h.988v1.247h-.988zm9.406 4.603V244h-.994v-3.728q0-.81-.284-1.192-.285-.381-.892-.381-.693 0-1.066.491-.373.492-.373 1.41v3.4h-.989v-6.016h.989v.903q.263-.516.714-.782.451-.266 1.069-.266.918 0 1.372.605.454.604.454 1.828zm4.653-3.996v1.708h2.245v.768h-2.245v3.266q0 .666.252.93.253.262.881.262h1.112v.79h-1.209q-1.111 0-1.568-.446-.456-.446-.456-1.536v-3.266h-1.606v-.768h1.606v-1.708zm9.718 4.222v.483h-4.281v.033q-.043 1.23.47 1.767.513.537 1.447.537.473 0 .989-.15.515-.15 1.1-.457v.983q-.563.23-1.087.346-.524.116-1.012.116-1.402 0-2.192-.84-.79-.841-.79-2.318 0-1.44.774-2.3.774-.859 2.063-.859 1.149 0 1.812.78.664.778.707 1.879zm-.989-.29q-.064-.623-.454-1.077-.389-.454-1.12-.454-.714 0-1.176.473-.462.473-.505 1.063zm8.177-.983q-.317-.247-.645-.36-.328-.113-.72-.113-.923 0-1.412.58-.489.58-.489 1.676V244h-.994v-6.016h.994v1.177q.247-.64.76-.98.513-.342 1.217-.342.365 0 .682.092.317.091.607.284zm17.675 8.095V233.3h.86v14.02z"/><path d="M369.017 246.75v-1.402h.859v1.402zm-3.416 0v-1.402h.854v1.402zm1.708-1.96v-1.402h.854v1.402zm-3.416 0v-1.402h.848v1.402zm5.124-1.966v-1.402h.859v1.402zm-3.416 0v-1.402h.854v1.402zm1.708-1.96v-1.403h.854v1.402zm-3.416 0v-1.403h.848v1.402zm5.124-1.967v-1.401h.859v1.401zm-3.416 0v-1.401h.854v1.401zm1.708-1.96v-1.402h.854v1.402zm-3.416 0v-1.402h.848v1.402z" fill="#A7D3A9"/><path d="M359.879 234.32V220.3h.86v14.02z"/><path d="M369.017 233.75v-1.402h.859v1.402zm-3.416 0v-1.402h.854v1.402zm1.708-1.96v-1.402h.854v1.402zm-3.416 0v-1.402h.848v1.402zm5.124-1.966v-1.402h.859v1.402zm-3.416 0v-1.402h.854v1.402zm1.708-1.96v-1.403h.854v1.402zm-3.416 0v-1.403h.848v1.402zm5.124-1.967v-1.401h.859v1.401zm-3.416 0v-1.401h.854v1.401zm1.708-1.96v-1.402h.854v1.402zm-3.416 0v-1.402h.848v1.402z" fill="#A7D3A9"/><path d="M209.893 215.336v-.924h6.837v.924zm7 0v-.924h6.837v.924zm7 0v-.924h6.837v.924zm7 0v-.924h6.837v.924zm7 0v-.924h6.837v.924zm7 0v-.924h6.837v.924zm7 0v-.924h6.837v.924zm7 0v-.924h6.837v.924zm7 0v-.924h6.837v.924zm7 0v-.924h6.837v.924zm7 0v-.924h2.986v-7.111h.86v7.111h2.991v.924zm7 0v-.924h6.837v.924zm7 0v-.924h6.837v.924zm7 0v-.924h6.837v.924zm7 0v-.924h6.837v.924zm7 0v-.924h6.837v.924zm7 0v-.924h6.837v.924zm7 0v-.924h6.837v.924zm10.131-6.231h2.277v.769h-1.289v8.271h1.29v.768h-2.278zm9.739 8.61q-.413.22-.848.33-.436.11-.924.11-1.542 0-2.393-1.09-.851-1.09-.851-3.066 0-1.966.856-3.065.857-1.098 2.388-1.098.488 0 .924.11.435.11.848.33v1.112q-.397-.327-.854-.5-.456-.171-.918-.171-1.058 0-1.585.816-.526.817-.526 2.466 0 1.643.526 2.46.527.816 1.585.816.472 0 .926-.172.454-.172.846-.5zm5.104-8.61v9.808h-2.277v-.768h1.289v-8.271h-1.29v-.769zm6.012 12.215v-5.984h-2.986v-.924h3.845v6.907z"/><path d="M282.879 208.32V194.3h.86v14.02zM83.893 189.336v-.924h6.837v.924zm7 0v-.924h6.837v.924zm7 0v-.924h6.837v.924zm7 0v-.924h6.837v.924zm7 0v-.924h6.837v.924zm7 0v-.924h6.837v.924zm7 0v-.924h6.837v.924zm7 0v-.924h6.837v.924zm7 0v-.924h6.837v.924zm7 0v-.924h6.837v.924zm7 0v-.924h6.837v.924zm7 0v-.924h6.837v.924zm7 0v-.924h6.837v.924zm7 0v-.924h6.837v.924zm7 0v-.924h2.986v-7.111h.86v7.111h2.991v.924zm7 0v-.924h6.837v.924zm7 0v-.924h6.837v.924zm7 0v-.924h6.837v.924zm7 0v-.924h6.837v.924zm7 0v-.924h6.837v.924zm7 0v-.924h6.837v.924zm7 0v-.924h6.837v.924zm7 0v-.924h6.837v.924zm7 0v-.924h6.837v.924zm7 0v-.924h6.837v.924zm7 0v-.924h6.837v.924zm7 0v-.924h6.837v.924zm7 0v-.924h6.837v.924z"/><path d="M282.879 195.32v-5.984h-2.986v-.924h6.837v.924h-2.992v5.983zm4.014-5.984v-.924h6.837v.924zm7 0v-.924h6.837v.924zm7 0v-.924h6.837v.924zm7 0v-.924h6.837v.924zm7 0v-.924h6.837v.924zm7 0v-.924h6.837v.924zm7 0v-.924h6.837v.924zm7 0v-.924h6.837v.924zm7 0v-.924h6.837v.924zm7 0v-.924h6.837v.924zm7 0v-.924h6.837v.924zm7 0v-.924h6.837v.924zm7 0v-.924h6.837v.924zm7 0v-.924h6.837v.924zm7 0v-.924h6.837v.924zm7 0v-.924h6.837v.924zm7 0v-.924h6.837v.924zm7 0v-.924h6.837v.924zm7 0v-.924h6.837v.924zm7 0v-.924h6.837v.924zm7 0v-.924h6.837v.924zm7 0v-.924h6.837v.924zm7 0v-.924h6.837v.924zm7 0v-.924h6.837v.924zm7 0v-.924h6.837v.924zm7 0v-.924h6.837v.924zm7 0v-.924h6.837v.924zm7 0v-.924h6.837v.924zm7 0v-.924h2.986v-7.111h.86v8.035zM79.879 182.32V168.3h.86v14.02z"/><path d="M89.017 181.75v-1.402h.859v1.402zm-3.416 0v-1.402h.854v1.402zm1.708-1.96v-1.402h.854v1.402zm-3.416 0v-1.402h.848v1.402zm5.124-1.966v-1.402h.859v1.402zm-3.416 0v-1.402h.854v1.402zm1.708-1.96v-1.403h.854v1.402zm-3.416 0v-1.403h.848v1.402zm5.124-1.967v-1.401h.859v1.401zm-3.416 0v-1.401h.854v1.401zm1.708-1.96v-1.402h.854v1.402zm-3.416 0v-1.402h.848v1.402zm12.124 9.813v-1.402h.859v1.402zm-3.416 0v-1.402h.854v1.402zm1.708-1.96v-1.402h.854v1.402zm-3.416 0v-1.402h.848v1.402zm5.124-1.966v-1.402h.859v1.402zm-3.416 0v-1.402h.854v1.402zm1.708-1.96v-1.403h.854v1.402zm-3.416 0v-1.403h.848v1.402zm5.124-1.967v-1.401h.859v1.401zm-3.416 0v-1.401h.854v1.401zm1.708-1.96v-1.402h.854v1.402zm-3.416 0v-1.402h.848v1.402zm12.124 9.813v-1.402h.859v1.402zm-3.416 0v-1.402h.854v1.402zm1.708-1.96v-1.402h.854v1.402zm-3.416 0v-1.402h.848v1.402zm5.124-1.966v-1.402h.859v1.402zm-3.416 0v-1.402h.854v1.402zm1.708-1.96v-1.403h.854v1.402zm-3.416 0v-1.403h.848v1.402zm5.124-1.967v-1.401h.859v1.401zm-3.416 0v-1.401h.854v1.401zm1.708-1.96v-1.402h.854v1.402zm-3.416 0v-1.402h.848v1.402zm12.124 9.813v-1.402h.859v1.402zm-3.416 0v-1.402h.854v1.402zm1.708-1.96v-1.402h.854v1.402zm-3.416 0v-1.402h.848v1.402zm5.124-1.966v-1.402h.859v1.402zm-3.416 0v-1.402h.854v1.402zm1.708-1.96v-1.403h.854v1.402zm-3.416 0v-1.403h.848v1.402zm5.124-1.967v-1.401h.859v1.401zm-3.416 0v-1.401h.854v1.401zm1.708-1.96v-1.402h.854v1.402zm-3.416 0v-1.402h.848v1.402zm12.124 9.813v-1.402h.859v1.402zm-3.416 0v-1.402h.854v1.402zm1.708-1.96v-1.402h.854v1.402zm-3.416 0v-1.402h.848v1.402zm5.124-1.966v-1.402h.859v1.402zm-3.416 0v-1.402h.854v1.402zm1.708-1.96v-1.403h.854v1.402zm-3.416 0v-1.403h.848v1.402zm5.124-1.967v-1.401h.859v1.401zm-3.416 0v-1.401h.854v1.401zm1.708-1.96v-1.402h.854v1.402zm-3.416 0v-1.402h.848v1.402zm12.124 9.813v-1.402h.859v1.402zm-3.416 0v-1.402h.854v1.402zm1.708-1.96v-1.402h.854v1.402zm-3.416 0v-1.402h.848v1.402zm5.124-1.966v-1.402h.859v1.402zm-3.416 0v-1.402h.854v1.402zm1.708-1.96v-1.403h.854v1.402zm-3.416 0v-1.403h.848v1.402zm5.124-1.967v-1.401h.859v1.401zm-3.416 0v-1.401h.854v1.401zm1.708-1.96v-1.402h.854v1.402zm-3.416 0v-1.402h.848v1.402zm12.124 9.813v-1.402h.859v1.402zm-3.416 0v-1.402h.854v1.402zm1.708-1.96v-1.402h.854v1.402zm-3.416 0v-1.402h.848v1.402zm5.124-1.966v-1.402h.859v1.402zm-3.416 0v-1.402h.854v1.402zm1.708-1.96v-1.403h.854v1.402zm-3.416 0v-1.403h.848v1.402zm5.124-1.967v-1.401h.859v1.401zm-3.416 0v-1.401h.854v1.401zm1.708-1.96v-1.402h.854v1.402zm-3.416 0v-1.402h.848v1.402zm12.124 9.813v-1.402h.859v1.402zm-3.416 0v-1.402h.854v1.402zm1.708-1.96v-1.402h.854v1.402zm-3.416 0v-1.402h.848v1.402zm5.124-1.966v-1.402h.859v1.402zm-3.416 0v-1.402h.854v1.402zm1.708-1.96v-1.403h.854v1.402zm-3.416 0v-1.403h.848v1.402zm5.124-1.967v-1.401h.859v1.401zm-3.416 0v-1.401h.854v1.401zm1.708-1.96v-1.402h.854v1.402zm-3.416 0v-1.402h.848v1.402zm12.124 9.813v-1.402h.859v1.402zm-3.416 0v-1.402h.854v1.402zm1.708-1.96v-1.402h.854v1.402zm-3.416 0v-1.402h.848v1.402zm5.124-1.966v-1.402h.859v1.402zm-3.416 0v-1.402h.854v1.402zm1.708-1.96v-1.403h.854v1.402zm-3.416 0v-1.403h.848v1.402zm5.124-1.967v-1.401h.859v1.401zm-3.416 0v-1.401h.854v1.401zm1.708-1.96v-1.402h.854v1.402zm-3.416 0v-1.402h.848v1.402zm12.124 9.813v-1.402h.859v1.402zm-3.416 0v-1.402h.854v1.402zm1.708-1.96v-1.402h.854v1.402zm-3.416 0v-1.402h.848v1.402zm5.124-1.966v-1.402h.859v1.402zm-3.416 0v-1.402h.854v1.402zm1.708-1.96v-1.403h.854v1.402zm-3.416 0v-1.403h.848v1.402zm5.124-1.967v-1.401h.859v1.401zm-3.416 0v-1.401h.854v1.401zm1.708-1.96v-1.402h.854v1.402zm-3.416 0v-1.402h.848v1.402zm12.124 9.813v-1.402h.859v1.402zm-3.416 0v-1.402h.854v1.402zm1.708-1.96v-1.402h.854v1.402zm-3.416 0v-1.402h.848v1.402zm5.124-1.966v-1.402h.859v1.402zm-3.416 0v-1.402h.854v1.402zm1.708-1.96v-1.403h.854v1.402zm-3.416 0v-1.403h.848v1.402zm5.124-1.967v-1.401h.859v1.401zm-3.416 0v-1.401h.854v1.401zm1.708-1.96v-1.402h.854v1.402zm-3.416 0v-1.402h.848v1.402zm12.124 9.813v-1.402h.859v1.402zm-3.416 0v-1.402h.854v1.402zm1.708-1.96v-1.402h.854v1.402zm-3.416 0v-1.402h.848v1.402zm5.124-1.966v-1.402h.859v1.402zm-3.416 0v-1.402h.854v1.402zm1.708-1.96v-1.403h.854v1.402zm-3.416 0v-1.403h.848v1.402zm5.124-1.967v-1.401h.859v1.401zm-3.416 0v-1.401h.854v1.401zm1.708-1.96v-1.402h.854v1.402zm-3.416 0v-1.402h.848v1.402z" fill="#98CBFE"/><path d="M184.879 182.32V168.3h.86v14.02z"/><path d="M418.017 181.75v-1.402h.859v1.402zm-3.416 0v-1.402h.854v1.402zm1.708-1.96v-1.402h.854v1.402zm-3.416 0v-1.402h.848v1.402zm5.124-1.966v-1.402h.859v1.402zm-3.416 0v-1.402h.854v1.402zm1.708-1.96v-1.403h.854v1.402zm-3.416 0v-1.403h.848v1.402zm5.124-1.967v-1.401h.859v1.401zm-3.416 0v-1.401h.854v1.401zm1.708-1.96v-1.402h.854v1.402zm-3.416 0v-1.402h.848v1.402zm12.124 9.813v-1.402h.859v1.402zm-3.416 0v-1.402h.854v1.402zm1.708-1.96v-1.402h.854v1.402zm-3.416 0v-1.402h.848v1.402zm5.124-1.966v-1.402h.859v1.402zm-3.416 0v-1.402h.854v1.402zm1.708-1.96v-1.403h.854v1.402zm-3.416 0v-1.403h.848v1.402zm5.124-1.967v-1.401h.859v1.401zm-3.416 0v-1.401h.854v1.401zm1.708-1.96v-1.402h.854v1.402zm-3.416 0v-1.402h.848v1.402zm12.124 9.813v-1.402h.859v1.402zm-3.416 0v-1.402h.854v1.402zm1.708-1.96v-1.402h.854v1.402zm-3.416 0v-1.402h.848v1.402zm5.124-1.966v-1.402h.859v1.402zm-3.416 0v-1.402h.854v1.402zm1.708-1.96v-1.403h.854v1.402zm-3.416 0v-1.403h.848v1.402zm5.124-1.967v-1.401h.859v1.401zm-3.416 0v-1.401h.854v1.401zm1.708-1.96v-1.402h.854v1.402zm-3.416 0v-1.402h.848v1.402zm12.124 9.813v-1.402h.859v1.402zm-3.416 0v-1.402h.854v1.402zm1.708-1.96v-1.402h.854v1.402zm-3.416 0v-1.402h.848v1.402zm5.124-1.966v-1.402h.859v1.402zm-3.416 0v-1.402h.854v1.402zm1.708-1.96v-1.403h.854v1.402zm-3.416 0v-1.403h.848v1.402zm5.124-1.967v-1.401h.859v1.401zm-3.416 0v-1.401h.854v1.401zm1.708-1.96v-1.402h.854v1.402zm-3.416 0v-1.402h.848v1.402zm12.124 9.813v-1.402h.859v1.402zm-3.416 0v-1.402h.854v1.402zm1.708-1.96v-1.402h.854v1.402zm-3.416 0v-1.402h.848v1.402zm5.124-1.966v-1.402h.859v1.402zm-3.416 0v-1.402h.854v1.402zm1.708-1.96v-1.403h.854v1.402zm-3.416 0v-1.403h.848v1.402zm5.124-1.967v-1.401h.859v1.401zm-3.416 0v-1.401h.854v1.401zm1.708-1.96v-1.402h.854v1.402zm-3.416 0v-1.402h.848v1.402zm12.124 9.813v-1.402h.859v1.402zm-3.416 0v-1.402h.854v1.402zm1.708-1.96v-1.402h.854v1.402zm-3.416 0v-1.402h.848v1.402zm5.124-1.966v-1.402h.859v1.402zm-3.416 0v-1.402h.854v1.402zm1.708-1.96v-1.403h.854v1.402zm-3.416 0v-1.403h.848v1.402zm5.124-1.967v-1.401h.859v1.401zm-3.416 0v-1.401h.854v1.401zm1.708-1.96v-1.402h.854v1.402zm-3.416 0v-1.402h.848v1.402zm12.124 9.813v-1.402h.859v1.402zm-3.416 0v-1.402h.854v1.402zm1.708-1.96v-1.402h.854v1.402zm-3.416 0v-1.402h.848v1.402zm5.124-1.966v-1.402h.859v1.402zm-3.416 0v-1.402h.854v1.402zm1.708-1.96v-1.403h.854v1.402zm-3.416 0v-1.403h.848v1.402zm5.124-1.967v-1.401h.859v1.401zm-3.416 0v-1.401h.854v1.401zm1.708-1.96v-1.402h.854v1.402zm-3.416 0v-1.402h.848v1.402zm12.124 9.813v-1.402h.859v1.402zm-3.416 0v-1.402h.854v1.402zm1.708-1.96v-1.402h.854v1.402zm-3.416 0v-1.402h.848v1.402zm5.124-1.966v-1.402h.859v1.402zm-3.416 0v-1.402h.854v1.402zm1.708-1.96v-1.403h.854v1.402zm-3.416 0v-1.403h.848v1.402zm5.124-1.967v-1.401h.859v1.401zm-3.416 0v-1.401h.854v1.401zm1.708-1.96v-1.402h.854v1.402zm-3.416 0v-1.402h.848v1.402zm12.124 9.813v-1.402h.859v1.402zm-3.416 0v-1.402h.854v1.402zm1.708-1.96v-1.402h.854v1.402zm-3.416 0v-1.402h.848v1.402zm5.124-1.966v-1.402h.859v1.402zm-3.416 0v-1.402h.854v1.402zm1.708-1.96v-1.403h.854v1.402zm-3.416 0v-1.403h.848v1.402zm5.124-1.967v-1.401h.859v1.401zm-3.416 0v-1.401h.854v1.401zm1.708-1.96v-1.402h.854v1.402zm-3.416 0v-1.402h.848v1.402zm12.124 9.813v-1.402h.859v1.402zm-3.416 0v-1.402h.854v1.402zm1.708-1.96v-1.402h.854v1.402zm-3.416 0v-1.402h.848v1.402zm5.124-1.966v-1.402h.859v1.402zm-3.416 0v-1.402h.854v1.402zm1.708-1.96v-1.403h.854v1.402zm-3.416 0v-1.403h.848v1.402zm5.124-1.967v-1.401h.859v1.401zm-3.416 0v-1.401h.854v1.401zm1.708-1.96v-1.402h.854v1.402zm-3.416 0v-1.402h.848v1.402z" fill="#98CBFE"/><path d="M485.879 182.32V168.3h.86v14.02z"/><path d="M495.017 181.75v-1.402h.859v1.402zm-3.416 0v-1.402h.854v1.402zm1.708-1.96v-1.402h.854v1.402zm-3.416 0v-1.402h.848v1.402zm5.124-1.966v-1.402h.859v1.402zm-3.416 0v-1.402h.854v1.402zm1.708-1.96v-1.403h.854v1.402zm-3.416 0v-1.403h.848v1.402zm5.124-1.967v-1.401h.859v1.401zm-3.416 0v-1.401h.854v1.401zm1.708-1.96v-1.402h.854v1.402zm-3.416 0v-1.402h.848v1.402zm12.124 9.813v-1.402h.859v1.402zm-3.416 0v-1.402h.854v1.402zm1.708-1.96v-1.402h.854v1.402zm-3.416 0v-1.402h.848v1.402zm5.124-1.966v-1.402h.859v1.402zm-3.416 0v-1.402h.854v1.402zm1.708-1.96v-1.403h.854v1.402zm-3.416 0v-1.403h.848v1.402zm5.124-1.967v-1.401h.859v1.401zm-3.416 0v-1.401h.854v1.401zm1.708-1.96v-1.402h.854v1.402zm-3.416 0v-1.402h.848v1.402zm12.124 9.813v-1.402h.859v1.402zm-3.416 0v-1.402h.854v1.402zm1.708-1.96v-1.402h.854v1.402zm-3.416 0v-1.402h.848v1.402zm5.124-1.966v-1.402h.859v1.402zm-3.416 0v-1.402h.854v1.402zm1.708-1.96v-1.403h.854v1.402zm-3.416 0v-1.403h.848v1.402zm5.124-1.967v-1.401h.859v1.401zm-3.416 0v-1.401h.854v1.401zm1.708-1.96v-1.402h.854v1.402zm-3.416 0v-1.402h.848v1.402zm12.124 9.813v-1.402h.859v1.402zm-3.416 0v-1.402h.854v1.402zm1.708-1.96v-1.402h.854v1.402zm-3.416 0v-1.402h.848v1.402zm5.124-1.966v-1.402h.859v1.402zm-3.416 0v-1.402h.854v1.402zm1.708-1.96v-1.403h.854v1.402zm-3.416 0v-1.403h.848v1.402zm5.124-1.967v-1.401h.859v1.401zm-3.416 0v-1.401h.854v1.401zm1.708-1.96v-1.402h.854v1.402zm-3.416 0v-1.402h.848v1.402zm12.124 9.813v-1.402h.859v1.402zm-3.416 0v-1.402h.854v1.402zm1.708-1.96v-1.402h.854v1.402zm-3.416 0v-1.402h.848v1.402zm5.124-1.966v-1.402h.859v1.402zm-3.416 0v-1.402h.854v1.402zm1.708-1.96v-1.403h.854v1.402zm-3.416 0v-1.403h.848v1.402zm5.124-1.967v-1.401h.859v1.401zm-3.416 0v-1.401h.854v1.401zm1.708-1.96v-1.402h.854v1.402zm-3.416 0v-1.402h.848v1.402zm12.124 9.813v-1.402h.859v1.402zm-3.416 0v-1.402h.854v1.402zm1.708-1.96v-1.402h.854v1.402zm-3.416 0v-1.402h.848v1.402zm5.124-1.966v-1.402h.859v1.402zm-3.416 0v-1.402h.854v1.402zm1.708-1.96v-1.403h.854v1.402zm-3.416 0v-1.403h.848v1.402zm5.124-1.967v-1.401h.859v1.401zm-3.416 0v-1.401h.854v1.401zm1.708-1.96v-1.402h.854v1.402zm-3.416 0v-1.402h.848v1.402zm12.124 9.813v-1.402h.859v1.402zm-3.416 0v-1.402h.854v1.402zm1.708-1.96v-1.402h.854v1.402zm-3.416 0v-1.402h.848v1.402zm5.124-1.966v-1.402h.859v1.402zm-3.416 0v-1.402h.854v1.402zm1.708-1.96v-1.403h.854v1.402zm-3.416 0v-1.403h.848v1.402zm5.124-1.967v-1.401h.859v1.401zm-3.416 0v-1.401h.854v1.401zm1.708-1.96v-1.402h.854v1.402zm-3.416 0v-1.402h.848v1.402zm12.124 9.813v-1.402h.859v1.402zm-3.416 0v-1.402h.854v1.402zm1.708-1.96v-1.402h.854v1.402zm-3.416 0v-1.402h.848v1.402zm5.124-1.966v-1.402h.859v1.402zm-3.416 0v-1.402h.854v1.402zm1.708-1.96v-1.403h.854v1.402zm-3.416 0v-1.403h.848v1.402zm5.124-1.967v-1.401h.859v1.401zm-3.416 0v-1.401h.854v1.401zm1.708-1.96v-1.402h.854v1.402zm-3.416 0v-1.402h.848v1.402zm12.124 9.813v-1.402h.859v1.402zm-3.416 0v-1.402h.854v1.402zm1.708-1.96v-1.402h.854v1.402zm-3.416 0v-1.402h.848v1.402zm5.124-1.966v-1.402h.859v1.402zm-3.416 0v-1.402h.854v1.402zm1.708-1.96v-1.403h.854v1.402zm-3.416 0v-1.403h.848v1.402zm5.124-1.967v-1.401h.859v1.401zm-3.416 0v-1.401h.854v1.401zm1.708-1.96v-1.402h.854v1.402zm-3.416 0v-1.402h.848v1.402zm12.124 9.813v-1.402h.859v1.402zm-3.416 0v-1.402h.854v1.402zm1.708-1.96v-1.402h.854v1.402zm-3.416 0v-1.402h.848v1.402zm5.124-1.966v-1.402h.859v1.402zm-3.416 0v-1.402h.854v1.402zm1.708-1.96v-1.403h.854v1.402zm-3.416 0v-1.403h.848v1.402zm5.124-1.967v-1.401h.859v1.401zm-3.416 0v-1.401h.854v1.401zm1.708-1.96v-1.402h.854v1.402zm-3.416 0v-1.402h.848v1.402zm12.124 9.813v-1.402h.859v1.402zm-3.416 0v-1.402h.854v1.402zm1.708-1.96v-1.402h.854v1.402zm-3.416 0v-1.402h.848v1.402zm5.124-1.966v-1.402h.859v1.402zm-3.416 0v-1.402h.854v1.402zm1.708-1.96v-1.403h.854v1.402zm-3.416 0v-1.403h.848v1.402zm5.124-1.967v-1.401h.859v1.401zm-3.416 0v-1.401h.854v1.401zm1.708-1.96v-1.402h.854v1.402zm-3.416 0v-1.402h.848v1.402zm12.124 9.813v-1.402h.859v1.402zm-3.416 0v-1.402h.854v1.402zm1.708-1.96v-1.402h.854v1.402zm-3.416 0v-1.402h.848v1.402zm5.124-1.966v-1.402h.859v1.402zm-3.416 0v-1.402h.854v1.402zm1.708-1.96v-1.403h.854v1.402zm-3.416 0v-1.403h.848v1.402zm5.124-1.967v-1.401h.859v1.401zm-3.416 0v-1.401h.854v1.401zm1.708-1.96v-1.402h.854v1.402zm-3.416 0v-1.402h.848v1.402z" fill="#98CBFE"/><path d="M6.893 163.336v-.924h6.837v.924zm7 0v-.924h6.837v.924zm7 0v-.924h6.837v.924zm7 0v-.924h6.837v.924zm7 0v-.924h6.837v.924zm7 0v-.924h6.837v.924zm7 0v-.924h6.837v.924zm7 0v-.924h6.837v.924zm7 0v-.924h6.837v.924zm7 0v-.924h6.837v.924zm9.986 5.984v-5.984h-2.986v-.924h6.837v.924h-2.992v5.983zm4.014-5.984v-.924h6.837v.924zm7 0v-.924h6.837v.924zm7 0v-.924h6.837v.924zm7 0v-.924h6.837v.924zm7 0v-.924h6.837v.924zm7 0v-.924h6.837v.924zm7 0v-.924h6.837v.924zm7 0v-.924h6.837v.924zm7 0v-.924h6.837v.924zm7 0v-.924h6.837v.924zm7 0v-.924h2.986v-7.111h.86v8.035z"/><path d="M166.017 168.75v-1.402h.859v1.402zm-3.416 0v-1.402h.854v1.402zm1.708-1.96v-1.402h.854v1.402zm-3.416 0v-1.402h.848v1.402zm5.124-1.966v-1.402h.859v1.402zm-3.416 0v-1.402h.854v1.402zm1.708-1.96v-1.403h.854v1.402zm-3.416 0v-1.403h.848v1.402zm5.124-1.967v-1.401h.859v1.401zm-3.416 0v-1.401h.854v1.401zm1.708-1.96v-1.402h.854v1.402zm-3.416 0v-1.402h.848v1.402z" fill="#98CBFE"/><path d="M184.879 169.32V155.3h.86v14.02zm224-5.984V155.3h.86v7.111h2.991v.924zm4.014 0v-.924h6.837v.924zm7 0v-.924h6.837v.924zm7 0v-.924h6.837v.924zm7 0v-.924h6.837v.924zm7 0v-.924h6.837v.924zm7 0v-.924h6.837v.924zm7 0v-.924h6.837v.924zm7 0v-.924h6.837v.924zm7 0v-.924h6.837v.924zm7 0v-.924h6.837v.924zm9.986 5.984v-5.984h-2.986v-.924h6.837v.924h-2.992v5.983zm4.014-5.984v-.924h6.837v.924zm7 0v-.924h6.837v.924zm7 0v-.924h6.837v.924zm7 0v-.924h6.837v.924zm7 0v-.924h6.837v.924zm7 0v-.924h6.837v.924zm7 0v-.924h6.837v.924zm7 0v-.924h6.837v.924zm7 0v-.924h6.837v.924zm7 0v-.924h6.837v.924zm7 0v-.924h2.986v-7.111h.86v8.035z"/><path d="M572.017 168.75v-1.402h.859v1.402zm-3.416 0v-1.402h.854v1.402zm1.708-1.96v-1.402h.854v1.402zm-3.416 0v-1.402h.848v1.402zm5.124-1.966v-1.402h.859v1.402zm-3.416 0v-1.402h.854v1.402zm1.708-1.96v-1.403h.854v1.402zm-3.416 0v-1.403h.848v1.402zm5.124-1.967v-1.401h.859v1.401zm-3.416 0v-1.401h.854v1.401zm1.708-1.96v-1.402h.854v1.402zm-3.416 0v-1.402h.848v1.402z" fill="#98CBFE"/><path d="M15.08 131.981h4.452v.913h-1.68v6.193h1.68V140H15.08v-.913h1.68v-6.193h-1.68zm141.799 24.339V142.3h.86v14.02z"/><path d="M166.017 155.75v-1.402h.859v1.402zm-3.416 0v-1.402h.854v1.402zm1.708-1.96v-1.402h.854v1.402zm-3.416 0v-1.402h.848v1.402zm5.124-1.966v-1.402h.859v1.402zm-3.416 0v-1.402h.854v1.402zm1.708-1.96v-1.403h.854v1.402zm-3.416 0v-1.403h.848v1.402zm5.124-1.967v-1.401h.859v1.401zm-3.416 0v-1.401h.854v1.401zm1.708-1.96v-1.402h.854v1.402zm-3.416 0v-1.402h.848v1.402z" fill="#98CBFE"/><path d="M184.879 156.32V142.3h.86v14.02zm224 0V142.3h.86v14.02zm154 0V142.3h.86v14.02z"/><path d="M572.017 155.75v-1.402h.859v1.402zm-3.416 0v-1.402h.854v1.402zm1.708-1.96v-1.402h.854v1.402zm-3.416 0v-1.402h.848v1.402zm5.124-1.966v-1.402h.859v1.402zm-3.416 0v-1.402h.854v1.402zm1.708-1.96v-1.403h.854v1.402zm-3.416 0v-1.403h.848v1.402zm5.124-1.967v-1.401h.859v1.401zm-3.416 0v-1.401h.854v1.401zm1.708-1.96v-1.402h.854v1.402zm-3.416 0v-1.402h.848v1.402z" fill="#98CBFE"/><path d="M24.309 132.937l-1.144 4.104h2.288zm-.656-.956h1.316L27.424 140H26.3l-.59-2.09H22.9l-.58 2.09H21.2zm4.884 2.003h1.026l1.746 5.05 1.75-5.05h1.026L31.948 140h-1.273zm10.233 2.992h-.327q-.865 0-1.303.304-.437.303-.437.905 0 .542.327.843.328.3.908.3.816 0 1.284-.566.467-.567.472-1.566v-.22zm1.918-.408V140h-.994v-.892q-.317.538-.797.793-.481.255-1.168.255-.919 0-1.467-.519-.548-.518-.548-1.388 0-1.004.674-1.525.675-.521 1.98-.521h1.326v-.156q-.005-.72-.365-1.045-.36-.325-1.15-.325-.504 0-1.02.145-.515.145-1.004.425v-.989q.548-.21 1.05-.314.502-.105.975-.105.746 0 1.275.22.53.22.857.661.204.269.29.664.086.394.086 1.184zm6.538-2.374v.967q-.424-.247-.854-.371-.43-.123-.875-.123-.672 0-1.002.217-.33.218-.33.663 0 .403.247.602.247.199 1.23.387l.397.075q.736.14 1.115.558.378.42.378 1.09 0 .892-.634 1.395-.633.502-1.761.502-.446 0-.935-.094-.489-.094-1.058-.282v-1.02q.553.284 1.058.426.505.143.956.143.655 0 1.015-.266.36-.266.36-.744 0-.688-1.316-.95l-.043-.012-.37-.075q-.854-.166-1.246-.561t-.392-1.077q0-.865.585-1.335t1.67-.47q.484 0 .93.089.445.089.875.266zm5.072-1.918v1.708h2.245v.768h-2.245v3.266q0 .666.252.93.253.262.881.262h1.112v.79h-1.209q-1.111 0-1.568-.446-.456-.446-.456-1.536v-3.266h-1.606v-.768h1.606v-1.708zm7.472 4.7h-.327q-.865 0-1.303.304-.437.303-.437.905 0 .542.327.843.328.3.908.3.816 0 1.284-.566.467-.567.472-1.566v-.22zm1.918-.408V140h-.994v-.892q-.317.538-.797.793-.481.255-1.168.255-.919 0-1.467-.519-.548-.518-.548-1.388 0-1.004.674-1.525.675-.521 1.98-.521h1.326v-.156q-.005-.72-.365-1.045-.36-.325-1.15-.325-.504 0-1.02.145-.515.145-1.004.425v-.989q.548-.21 1.05-.314.502-.105.975-.105.746 0 1.275.22.53.22.857.661.204.269.29.664.086.394.086 1.184zm7.516-1.343q-.317-.247-.645-.36-.328-.113-.72-.113-.923 0-1.412.58-.489.58-.489 1.676V140h-.994v-6.016h.994v1.177q.247-.64.76-.98.513-.342 1.217-.342.365 0 .682.092.317.091.607.284zm1.048-3.244h6.118v.913h-2.508V140h-1.09v-7.106h-2.52zm12.764 4.517v.483h-4.281v.033q-.043 1.23.47 1.767.513.537 1.447.537.473 0 .989-.15.515-.15 1.1-.457v.983q-.563.23-1.087.346-.524.116-1.012.116-1.402 0-2.192-.84-.79-.841-.79-2.318 0-1.44.774-2.3.774-.859 2.063-.859 1.149 0 1.812.78.664.778.707 1.879zm-.989-.29q-.064-.623-.454-1.077-.389-.454-1.12-.454-.714 0-1.176.473-.462.473-.505 1.063zm5.835 1.617q0 .666.244 1.004.245.338.723.338h1.154V140h-1.251q-.886 0-1.372-.567-.486-.566-.486-1.608v-5.441h-1.585v-.774h2.573zm9.154-1.327v.483h-4.281v.033q-.043 1.23.47 1.767.513.537 1.447.537.473 0 .989-.15.515-.15 1.1-.457v.983q-.563.23-1.087.346-.524.116-1.012.116-1.402 0-2.192-.84-.79-.841-.79-2.318 0-1.44.774-2.3.774-.859 2.063-.859 1.149 0 1.812.78.664.778.707 1.879zm-.989-.29q-.064-.623-.454-1.077-.389-.454-1.12-.454-.714 0-1.176.473-.462.473-.505 1.063zm3.987 3.035v3.045h-.993v-8.304h.993v.768q.247-.445.658-.679.411-.234.948-.234 1.09 0 1.71.844.621.843.621 2.336 0 1.466-.623 2.302-.623.835-1.708.835-.548 0-.959-.234-.41-.234-.647-.68zm2.9-2.245q0-1.15-.362-1.735-.363-.586-1.077-.586-.72 0-1.09.588-.37.589-.37 1.733 0 1.138.37 1.73.37.59 1.09.59.714 0 1.077-.586.363-.585.363-1.734zm5.395-2.321q-.752 0-1.14.586-.386.585-.386 1.735 0 1.144.387 1.732.387.588 1.139.588.757 0 1.144-.588.386-.588.386-1.732 0-1.15-.386-1.735-.387-.586-1.144-.586zm0-.838q1.251 0 1.914.811.664.811.664 2.348 0 1.541-.66 2.35-.662.808-1.918.808-1.252 0-1.913-.809-.66-.808-.66-2.35 0-1.536.66-2.347.661-.81 1.913-.81zm9.895 1.386q-.317-.247-.645-.36-.328-.113-.72-.113-.923 0-1.412.58-.489.58-.489 1.676V140h-.994v-6.016h.994v1.177q.247-.64.76-.98.513-.342 1.217-.342.365 0 .682.092.317.091.607.284zm4.094-2.949v1.708h2.245v.768h-2.245v3.266q0 .666.252.93.253.262.881.262h1.112v.79h-1.209q-1.111 0-1.568-.446-.456-.446-.456-1.536v-3.266h-1.606v-.768h1.606v-1.708zm9.718 4.222v.483h-4.281v.033q-.043 1.23.47 1.767.513.537 1.447.537.473 0 .989-.15.515-.15 1.1-.457v.983q-.563.23-1.087.346-.524.116-1.012.116-1.402 0-2.192-.84-.79-.841-.79-2.318 0-1.44.774-2.3.774-.859 2.063-.859 1.149 0 1.812.78.664.778.707 1.879zm-.989-.29q-.064-.623-.454-1.077-.389-.454-1.12-.454-.714 0-1.176.473-.462.473-.505 1.063zm8.177-.983q-.317-.247-.645-.36-.328-.113-.72-.113-.923 0-1.412.58-.489.58-.489 1.676V140h-.994v-6.016h.994v1.177q.247-.64.76-.98.513-.342 1.217-.342.365 0 .682.092.317.091.607.284zm17.675 8.095V129.3h.86v14.02z"/><path d="M166.017 142.75v-1.402h.859v1.402zm-3.416 0v-1.402h.854v1.402zm1.708-1.96v-1.402h.854v1.402zm-3.416 0v-1.402h.848v1.402zm5.124-1.966v-1.402h.859v1.402zm-3.416 0v-1.402h.854v1.402zm1.708-1.96v-1.403h.854v1.402zm-3.416 0v-1.403h.848v1.402zm5.124-1.967v-1.401h.859v1.401zm-3.416 0v-1.401h.854v1.401zm1.708-1.96v-1.402h.854v1.402zm-3.416 0v-1.402h.848v1.402z" fill="#98CBFE"/><path d="M184.879 143.32V129.3h.86v14.02zm224 0V129.3h.86v14.02zm35.43-10.383l-1.144 4.104h2.288zm-.656-.956h1.316l2.455 8.019H446.3l-.59-2.09h-2.81l-.58 2.09h-1.12zm10.046 7.713q-.398.23-.82.346-.421.116-.861.116-1.397 0-2.184-.838-.787-.838-.787-2.32 0-1.483.787-2.32.787-.839 2.184-.839.435 0 .848.113.414.113.833.35v1.036q-.392-.35-.787-.505-.395-.156-.894-.156-.93 0-1.43.602-.499.601-.499 1.719 0 1.111.503 1.716.502.604 1.426.604.515 0 .923-.159.409-.158.758-.491zm7 0q-.398.23-.82.346-.421.116-.861.116-1.397 0-2.184-.838-.787-.838-.787-2.32 0-1.483.787-2.32.787-.839 2.184-.839.435 0 .848.113.414.113.833.35v1.036q-.392-.35-.787-.505-.395-.156-.894-.156-.93 0-1.43.602-.499.601-.499 1.719 0 1.111.503 1.716.502.604 1.426.604.515 0 .923-.159.409-.158.758-.491zm7.317-3.196v.483h-4.281v.033q-.043 1.23.47 1.767.513.537 1.447.537.473 0 .989-.15.515-.15 1.1-.457v.983q-.563.23-1.087.346-.524.116-1.012.116-1.402 0-2.192-.84-.79-.841-.79-2.318 0-1.44.774-2.3.774-.859 2.063-.859 1.149 0 1.812.78.664.778.707 1.879zm-.989-.29q-.064-.623-.454-1.077-.389-.454-1.12-.454-.714 0-1.176.473-.462.473-.505 1.063zm7.199-2.014v.967q-.424-.247-.854-.371-.43-.123-.875-.123-.672 0-1.002.217-.33.218-.33.663 0 .403.247.602.247.199 1.23.387l.397.075q.736.14 1.115.558.378.42.378 1.09 0 .892-.634 1.395-.633.502-1.761.502-.446 0-.935-.094-.489-.094-1.058-.282v-1.02q.553.284 1.058.426.505.143.956.143.655 0 1.015-.266.36-.266.36-.744 0-.688-1.316-.95l-.043-.012-.37-.075q-.854-.166-1.246-.561t-.392-1.077q0-.865.585-1.335t1.67-.47q.484 0 .93.089.445.089.875.266zm7 0v.967q-.424-.247-.854-.371-.43-.123-.875-.123-.672 0-1.002.217-.33.218-.33.663 0 .403.247.602.247.199 1.23.387l.397.075q.736.14 1.115.558.378.42.378 1.09 0 .892-.634 1.395-.633.502-1.761.502-.446 0-.935-.094-.489-.094-1.058-.282v-1.02q.553.284 1.058.426.505.143.956.143.655 0 1.015-.266.36-.266.36-.744 0-.688-1.316-.95l-.043-.012-.37-.075q-.854-.166-1.246-.561t-.392-1.077q0-.865.585-1.335t1.67-.47q.484 0 .93.089.445.089.875.266zm7.537 5.521q-.413.22-.848.33-.436.11-.924.11-1.542 0-2.393-1.09-.851-1.09-.851-3.066 0-1.966.856-3.065.857-1.098 2.388-1.098.488 0 .924.11.435.11.848.33v1.112q-.397-.327-.854-.5-.456-.171-.918-.171-1.058 0-1.585.816-.526.817-.526 2.466 0 1.643.526 2.46.527.816 1.585.816.472 0 .926-.172.454-.172.846-.5zm4.546-5.038q-.752 0-1.14.586-.386.585-.386 1.735 0 1.144.387 1.732.387.588 1.139.588.757 0 1.144-.588.386-.588.386-1.732 0-1.15-.386-1.735-.387-.586-1.144-.586zm0-.838q1.251 0 1.914.811.664.811.664 2.348 0 1.541-.66 2.35-.662.808-1.918.808-1.252 0-1.913-.809-.66-.808-.66-2.35 0-1.536.66-2.347.661-.81 1.913-.81zm9.336 2.433V140h-.994v-3.728q0-.81-.284-1.192-.285-.381-.892-.381-.693 0-1.066.491-.373.492-.373 1.41v3.4h-.989v-6.016h.989v.903q.263-.516.714-.782.451-.266 1.069-.266.918 0 1.372.605.454.604.454 1.828zm4.653-3.996v1.708h2.245v.768h-2.245v3.266q0 .666.252.93.253.262.881.262h1.112v.79h-1.209q-1.111 0-1.568-.446-.456-.446-.456-1.536v-3.266h-1.606v-.768h1.606v-1.708zm9.906 2.949q-.317-.247-.645-.36-.328-.113-.72-.113-.923 0-1.412.58-.489.58-.489 1.676V140h-.994v-6.016h.994v1.177q.247-.64.76-.98.513-.342 1.217-.342.365 0 .682.092.317.091.607.284zm4.105-.548q-.752 0-1.14.586-.386.585-.386 1.735 0 1.144.387 1.732.387.588 1.139.588.757 0 1.144-.588.386-.588.386-1.732 0-1.15-.386-1.735-.387-.586-1.144-.586zm0-.838q1.251 0 1.914.811.664.811.664 2.348 0 1.541-.66 2.35-.662.808-1.918.808-1.252 0-1.913-.809-.66-.808-.66-2.35 0-1.536.66-2.347.661-.81 1.913-.81zm7.553 3.986q0 .666.244 1.004.245.338.723.338h1.154V140h-1.251q-.886 0-1.372-.567-.486-.566-.486-1.608v-5.441h-1.585v-.774h2.573zm34.017 5.495V129.3h.86v14.02z"/><path d="M572.017 142.75v-1.402h.859v1.402zm-3.416 0v-1.402h.854v1.402zm1.708-1.96v-1.402h.854v1.402zm-3.416 0v-1.402h.848v1.402zm5.124-1.966v-1.402h.859v1.402zm-3.416 0v-1.402h.854v1.402zm1.708-1.96v-1.403h.854v1.402zm-3.416 0v-1.403h.848v1.402zm5.124-1.967v-1.401h.859v1.401zm-3.416 0v-1.401h.854v1.401zm1.708-1.96v-1.402h.854v1.402zm-3.416 0v-1.402h.848v1.402z" fill="#98CBFE"/><path d="M156.879 130.32V116.3h.86v14.02z"/><path d="M166.017 129.75v-1.402h.859v1.402zm-3.416 0v-1.402h.854v1.402zm1.708-1.96v-1.402h.854v1.402zm-3.416 0v-1.402h.848v1.402zm5.124-1.966v-1.402h.859v1.402zm-3.416 0v-1.402h.854v1.402zm1.708-1.96v-1.403h.854v1.402zm-3.416 0v-1.403h.848v1.402zm5.124-1.967v-1.401h.859v1.401zm-3.416 0v-1.401h.854v1.401zm1.708-1.96v-1.402h.854v1.402zm-3.416 0v-1.402h.848v1.402z" fill="#98CBFE"/><path d="M184.879 130.32V116.3h.86v14.02zm224 0V116.3h.86v14.02zm154 0V116.3h.86v14.02z"/><path d="M572.017 129.75v-1.402h.859v1.402zm-3.416 0v-1.402h.854v1.402zm1.708-1.96v-1.402h.854v1.402zm-3.416 0v-1.402h.848v1.402zm5.124-1.966v-1.402h.859v1.402zm-3.416 0v-1.402h.854v1.402zm1.708-1.96v-1.403h.854v1.402zm-3.416 0v-1.403h.848v1.402zm5.124-1.967v-1.401h.859v1.401zm-3.416 0v-1.401h.854v1.401zm1.708-1.96v-1.402h.854v1.402zm-3.416 0v-1.402h.848v1.402z" fill="#98CBFE"/><path d="M6.893 111.336v-.924h6.837v.924zm7 0v-.924h6.837v.924zm7 0v-.924h6.837v.924zm7 0v-.924h6.837v.924zm7 0v-.924h6.837v.924zm7 0v-.924h6.837v.924zm7 0v-.924h6.837v.924zm7 0v-.924h6.837v.924zm7 0v-.924h6.837v.924zm7 0v-.924h6.837v.924zm7 0v-.924h2.986v-7.111h.86v7.111h2.991v.924zm7 0v-.924h6.837v.924zm7 0v-.924h6.837v.924zm7 0v-.924h6.837v.924zm7 0v-.924h6.837v.924zm7 0v-.924h6.837v.924zm7 0v-.924h6.837v.924zm7 0v-.924h6.837v.924zm10.131-6.231h2.277v.769h-1.289v8.271h1.29v.768h-2.278zm9.739 8.61q-.413.22-.848.33-.436.11-.924.11-1.542 0-2.393-1.09-.851-1.09-.851-3.066 0-1.966.856-3.065.857-1.098 2.388-1.098.488 0 .924.11.435.11.848.33v1.112q-.397-.327-.854-.5-.456-.171-.918-.171-1.058 0-1.585.816-.526.817-.526 2.466 0 1.643.526 2.46.527.816 1.585.816.472 0 .926-.172.454-.172.846-.5zm5.104-8.61v9.808h-2.277v-.768h1.289v-8.271h-1.29v-.769zm6.012 12.215v-5.984h-2.986v-.924h3.845v6.907zm28 0V103.3h.86v14.02zm224 0v-6.908h3.851v.924h-2.992v5.983zm4.014-5.984v-.924h6.837v.924zm7 0v-.924h6.837v.924zm7 0v-.924h6.837v.924zm7 0v-.924h6.837v.924zm7 0v-.924h6.837v.924zm7 0v-.924h6.837v.924zm7 0v-.924h6.837v.924zm7 0v-.924h6.837v.924zm7 0v-.924h6.837v.924zm7 0v-.924h6.837v.924zm7 0v-.924h2.986v-7.111h.86v7.111h2.991v.924zm7 0v-.924h6.837v.924zm7 0v-.924h6.837v.924zm7 0v-.924h6.837v.924zm7 0v-.924h6.837v.924zm7 0v-.924h6.837v.924zm7 0v-.924h6.837v.924zm7 0v-.924h6.837v.924zm10.131-6.231h2.277v.769h-1.289v8.271h1.29v.768h-2.278zm9.739 8.61q-.413.22-.848.33-.436.11-.924.11-1.542 0-2.393-1.09-.851-1.09-.851-3.066 0-1.966.856-3.065.857-1.098 2.388-1.098.488 0 .924.11.435.11.848.33v1.112q-.397-.327-.854-.5-.456-.171-.918-.171-1.058 0-1.585.816-.526.817-.526 2.466 0 1.643.526 2.46.527.816 1.585.816.472 0 .926-.172.454-.172.846-.5zm5.104-8.61v9.808h-2.277v-.768h1.289v-8.271h-1.29v-.769zm6.012 12.215v-5.984h-2.986v-.924h3.845v6.907zm-483-26v-6.908h3.851v.924h-2.992v5.983z"/><path d="M184.879 104.32V90.3h.86v14.02zm301 0V90.3h.86v14.02zM90.893 85.336v-.924h6.837v.924zm14 0v-.924h6.837v.924zm14 0v-.924h6.837v.924zm14 0v-.924h6.837v.924zm14 0v-.924h6.837v.924zm14 0v-.924h6.837v.924zm14 0v-.924h6.837v.924z"/><path d="M184.879 91.32V77.3h.86v14.02zm210-5.984V77.3h.86v7.111h2.991v.924zm4.014 0v-.924h6.837v.924zm7 0v-.924h6.837v.924zm7 0v-.924h6.837v.924zm7 0v-.924h6.837v.924zm7 0v-.924h6.837v.924zm7 0v-.924h6.837v.924zm7 0v-.924h6.837v.924zm7 0v-.924h6.837v.924zm7 0v-.924h6.837v.924zm7 0v-.924h6.837v.924zm7 0v-.924h6.837v.924zm7 0v-.924h6.837v.924zm9.986 5.984v-5.984h-2.986v-.924h6.837v.924h-2.992v5.983zm4.014-5.984v-.924h6.837v.924zm7 0v-.924h6.837v.924zm7 0v-.924h6.837v.924zm7 0v-.924h6.837v.924zm7 0v-.924h6.837v.924zm7 0v-.924h6.837v.924zm7 0v-.924h6.837v.924zm7 0v-.924h6.837v.924zm7 0v-.924h6.837v.924zm7 0v-.924h6.837v.924zm7 0v-.924h6.837v.924zm7 0v-.924h6.837v.924zm7 0v-.924h6.837v.924zm7 0v-.924h2.986v-7.111h.86v8.035zM107.879 13.32V6.411h3.851v.924h-2.992v5.983z"/><path d="M107.879 26.32V12.3h.86v14.02z"/><path d="M107.879 39.32V25.3h.86v14.02z"/><path d="M107.879 52.32V38.3h.86v14.02z"/><path d="M107.879 59.336V51.3h.86v7.111h2.991v.924z"/><path d="M117.017 77.75v-1.402h.859v1.402zm-3.416 0v-1.402h.854v1.402zm1.708-1.96v-1.402h.854v1.402zm-3.416 0v-1.402h.848v1.402zm5.124-1.966v-1.402h.859v1.402zm-3.416 0v-1.402h.854v1.402zm1.708-1.96V70.46h.854v1.402zm-3.416 0V70.46h.848v1.402zm5.124-1.967v-1.401h.859v1.401zm-3.416 0v-1.401h.854v1.401zm1.708-1.96v-1.402h.854v1.402zm-3.416 0v-1.402h.848v1.402zm12.124 9.813v-1.402h.859v1.402zm-3.416 0v-1.402h.854v1.402zm1.708-1.96v-1.402h.854v1.402zm-3.416 0v-1.402h.848v1.402zm5.124-1.966v-1.402h.859v1.402zm-3.416 0v-1.402h.854v1.402zm1.708-1.96V70.46h.854v1.402zm-3.416 0V70.46h.848v1.402zm5.124-1.967v-1.401h.859v1.401zm-3.416 0v-1.401h.854v1.401zm1.708-1.96v-1.402h.854v1.402zm-3.416 0v-1.402h.848v1.402zm12.124 9.813v-1.402h.859v1.402zm-3.416 0v-1.402h.854v1.402zm1.708-1.96v-1.402h.854v1.402zm-3.416 0v-1.402h.848v1.402zm5.124-1.966v-1.402h.859v1.402zm-3.416 0v-1.402h.854v1.402zm1.708-1.96V70.46h.854v1.402zm-3.416 0V70.46h.848v1.402zm5.124-1.967v-1.401h.859v1.401zm-3.416 0v-1.401h.854v1.401zm1.708-1.96v-1.402h.854v1.402zm-3.416 0v-1.402h.848v1.402zm12.124 9.813v-1.402h.859v1.402zm-3.416 0v-1.402h.854v1.402zm1.708-1.96v-1.402h.854v1.402zm-3.416 0v-1.402h.848v1.402zm5.124-1.966v-1.402h.859v1.402zm-3.416 0v-1.402h.854v1.402zm1.708-1.96V70.46h.854v1.402zm-3.416 0V70.46h.848v1.402zm5.124-1.967v-1.401h.859v1.401zm-3.416 0v-1.401h.854v1.401zm1.708-1.96v-1.402h.854v1.402zm-3.416 0v-1.402h.848v1.402zm12.124 9.813v-1.402h.859v1.402zm-3.416 0v-1.402h.854v1.402zm1.708-1.96v-1.402h.854v1.402zm-3.416 0v-1.402h.848v1.402zm5.124-1.966v-1.402h.859v1.402zm-3.416 0v-1.402h.854v1.402zm1.708-1.96V70.46h.854v1.402zm-3.416 0V70.46h.848v1.402zm5.124-1.967v-1.401h.859v1.401zm-3.416 0v-1.401h.854v1.401zm1.708-1.96v-1.402h.854v1.402zm-3.416 0v-1.402h.848v1.402zm12.124 9.813v-1.402h.859v1.402zm-3.416 0v-1.402h.854v1.402zm1.708-1.96v-1.402h.854v1.402zm-3.416 0v-1.402h.848v1.402zm5.124-1.966v-1.402h.859v1.402zm-3.416 0v-1.402h.854v1.402zm1.708-1.96V70.46h.854v1.402zm-3.416 0V70.46h.848v1.402zm5.124-1.967v-1.401h.859v1.401zm-3.416 0v-1.401h.854v1.401zm1.708-1.96v-1.402h.854v1.402zm-3.416 0v-1.402h.848v1.402zm12.124 9.813v-1.402h.859v1.402zm-3.416 0v-1.402h.854v1.402zm1.708-1.96v-1.402h.854v1.402zm-3.416 0v-1.402h.848v1.402zm5.124-1.966v-1.402h.859v1.402zm-3.416 0v-1.402h.854v1.402zm1.708-1.96V70.46h.854v1.402zm-3.416 0V70.46h.848v1.402zm5.124-1.967v-1.401h.859v1.401zm-3.416 0v-1.401h.854v1.401zm1.708-1.96v-1.402h.854v1.402zm-3.416 0v-1.402h.848v1.402zm12.124 9.813v-1.402h.859v1.402zm-3.416 0v-1.402h.854v1.402zm1.708-1.96v-1.402h.854v1.402zm-3.416 0v-1.402h.848v1.402zm5.124-1.966v-1.402h.859v1.402zm-3.416 0v-1.402h.854v1.402zm1.708-1.96V70.46h.854v1.402zm-3.416 0V70.46h.848v1.402zm5.124-1.967v-1.401h.859v1.401zm-3.416 0v-1.401h.854v1.401zm1.708-1.96v-1.402h.854v1.402zm-3.416 0v-1.402h.848v1.402zm12.124 9.813v-1.402h.859v1.402zm-3.416 0v-1.402h.854v1.402zm1.708-1.96v-1.402h.854v1.402zm-3.416 0v-1.402h.848v1.402zm5.124-1.966v-1.402h.859v1.402zm-3.416 0v-1.402h.854v1.402zm1.708-1.96V70.46h.854v1.402zm-3.416 0V70.46h.848v1.402zm5.124-1.967v-1.401h.859v1.401zm-3.416 0v-1.401h.854v1.401zm1.708-1.96v-1.402h.854v1.402zm-3.416 0v-1.402h.848v1.402zm12.124 9.813v-1.402h.859v1.402zm-3.416 0v-1.402h.854v1.402zm1.708-1.96v-1.402h.854v1.402zm-3.416 0v-1.402h.848v1.402zm5.124-1.966v-1.402h.859v1.402zm-3.416 0v-1.402h.854v1.402zm1.708-1.96V70.46h.854v1.402zm-3.416 0V70.46h.848v1.402zm5.124-1.967v-1.401h.859v1.401zm-3.416 0v-1.401h.854v1.401zm1.708-1.96v-1.402h.854v1.402zm-3.416 0v-1.402h.848v1.402z" fill="#98CBFE"/><path d="M184.879 78.32V64.3h.86v14.02z"/><path d="M194.017 77.75v-1.402h.859v1.402zm-3.416 0v-1.402h.854v1.402zm1.708-1.96v-1.402h.854v1.402zm-3.416 0v-1.402h.848v1.402zm5.124-1.966v-1.402h.859v1.402zm-3.416 0v-1.402h.854v1.402zm1.708-1.96V70.46h.854v1.402zm-3.416 0V70.46h.848v1.402zm5.124-1.967v-1.401h.859v1.401zm-3.416 0v-1.401h.854v1.401zm1.708-1.96v-1.402h.854v1.402zm-3.416 0v-1.402h.848v1.402zm12.124 9.813v-1.402h.859v1.402zm-3.416 0v-1.402h.854v1.402zm1.708-1.96v-1.402h.854v1.402zm-3.416 0v-1.402h.848v1.402zm5.124-1.966v-1.402h.859v1.402zm-3.416 0v-1.402h.854v1.402zm1.708-1.96V70.46h.854v1.402zm-3.416 0V70.46h.848v1.402zm5.124-1.967v-1.401h.859v1.401zm-3.416 0v-1.401h.854v1.401zm1.708-1.96v-1.402h.854v1.402zm-3.416 0v-1.402h.848v1.402zm12.124 9.813v-1.402h.859v1.402zm-3.416 0v-1.402h.854v1.402zm1.708-1.96v-1.402h.854v1.402zm-3.416 0v-1.402h.848v1.402zm5.124-1.966v-1.402h.859v1.402zm-3.416 0v-1.402h.854v1.402zm1.708-1.96V70.46h.854v1.402zm-3.416 0V70.46h.848v1.402zm5.124-1.967v-1.401h.859v1.401zm-3.416 0v-1.401h.854v1.401zm1.708-1.96v-1.402h.854v1.402zm-3.416 0v-1.402h.848v1.402zm12.124 9.813v-1.402h.859v1.402zm-3.416 0v-1.402h.854v1.402zm1.708-1.96v-1.402h.854v1.402zm-3.416 0v-1.402h.848v1.402zm5.124-1.966v-1.402h.859v1.402zm-3.416 0v-1.402h.854v1.402zm1.708-1.96V70.46h.854v1.402zm-3.416 0V70.46h.848v1.402zm5.124-1.967v-1.401h.859v1.401zm-3.416 0v-1.401h.854v1.401zm1.708-1.96v-1.402h.854v1.402zm-3.416 0v-1.402h.848v1.402zm12.124 9.813v-1.402h.859v1.402zm-3.416 0v-1.402h.854v1.402zm1.708-1.96v-1.402h.854v1.402zm-3.416 0v-1.402h.848v1.402zm5.124-1.966v-1.402h.859v1.402zm-3.416 0v-1.402h.854v1.402zm1.708-1.96V70.46h.854v1.402zm-3.416 0V70.46h.848v1.402zm5.124-1.967v-1.401h.859v1.401zm-3.416 0v-1.401h.854v1.401zm1.708-1.96v-1.402h.854v1.402zm-3.416 0v-1.402h.848v1.402zm12.124 9.813v-1.402h.859v1.402zm-3.416 0v-1.402h.854v1.402zm1.708-1.96v-1.402h.854v1.402zm-3.416 0v-1.402h.848v1.402zm5.124-1.966v-1.402h.859v1.402zm-3.416 0v-1.402h.854v1.402zm1.708-1.96V70.46h.854v1.402zm-3.416 0V70.46h.848v1.402zm5.124-1.967v-1.401h.859v1.401zm-3.416 0v-1.401h.854v1.401zm1.708-1.96v-1.402h.854v1.402zm-3.416 0v-1.402h.848v1.402zm12.124 9.813v-1.402h.859v1.402zm-3.416 0v-1.402h.854v1.402zm1.708-1.96v-1.402h.854v1.402zm-3.416 0v-1.402h.848v1.402zm5.124-1.966v-1.402h.859v1.402zm-3.416 0v-1.402h.854v1.402zm1.708-1.96V70.46h.854v1.402zm-3.416 0V70.46h.848v1.402zm5.124-1.967v-1.401h.859v1.401zm-3.416 0v-1.401h.854v1.401zm1.708-1.96v-1.402h.854v1.402zm-3.416 0v-1.402h.848v1.402zm12.124 9.813v-1.402h.859v1.402zm-3.416 0v-1.402h.854v1.402zm1.708-1.96v-1.402h.854v1.402zm-3.416 0v-1.402h.848v1.402zm5.124-1.966v-1.402h.859v1.402zm-3.416 0v-1.402h.854v1.402zm1.708-1.96V70.46h.854v1.402zm-3.416 0V70.46h.848v1.402zm5.124-1.967v-1.401h.859v1.401zm-3.416 0v-1.401h.854v1.401zm1.708-1.96v-1.402h.854v1.402zm-3.416 0v-1.402h.848v1.402zm12.124 9.813v-1.402h.859v1.402zm-3.416 0v-1.402h.854v1.402zm1.708-1.96v-1.402h.854v1.402zm-3.416 0v-1.402h.848v1.402zm5.124-1.966v-1.402h.859v1.402zm-3.416 0v-1.402h.854v1.402zm1.708-1.96V70.46h.854v1.402zm-3.416 0V70.46h.848v1.402zm5.124-1.967v-1.401h.859v1.401zm-3.416 0v-1.401h.854v1.401zm1.708-1.96v-1.402h.854v1.402zm-3.416 0v-1.402h.848v1.402zm12.124 9.813v-1.402h.859v1.402zm-3.416 0v-1.402h.854v1.402zm1.708-1.96v-1.402h.854v1.402zm-3.416 0v-1.402h.848v1.402zm5.124-1.966v-1.402h.859v1.402zm-3.416 0v-1.402h.854v1.402zm1.708-1.96V70.46h.854v1.402zm-3.416 0V70.46h.848v1.402zm5.124-1.967v-1.401h.859v1.401zm-3.416 0v-1.401h.854v1.401zm1.708-1.96v-1.402h.854v1.402zm-3.416 0v-1.402h.848v1.402zm12.124 9.813v-1.402h.859v1.402zm-3.416 0v-1.402h.854v1.402zm1.708-1.96v-1.402h.854v1.402zm-3.416 0v-1.402h.848v1.402zm5.124-1.966v-1.402h.859v1.402zm-3.416 0v-1.402h.854v1.402zm1.708-1.96V70.46h.854v1.402zm-3.416 0V70.46h.848v1.402zm5.124-1.967v-1.401h.859v1.401zm-3.416 0v-1.401h.854v1.401zm1.708-1.96v-1.402h.854v1.402zm-3.416 0v-1.402h.848v1.402zm12.124 9.813v-1.402h.859v1.402zm-3.416 0v-1.402h.854v1.402zm1.708-1.96v-1.402h.854v1.402zm-3.416 0v-1.402h.848v1.402zm5.124-1.966v-1.402h.859v1.402zm-3.416 0v-1.402h.854v1.402zm1.708-1.96V70.46h.854v1.402zm-3.416 0V70.46h.848v1.402zm5.124-1.967v-1.401h.859v1.401zm-3.416 0v-1.401h.854v1.401zm1.708-1.96v-1.402h.854v1.402zm-3.416 0v-1.402h.848v1.402z" fill="#98CBFE"/><path d="M327.017 77.75v-1.402h.859v1.402zm-3.416 0v-1.402h.854v1.402zm1.708-1.96v-1.402h.854v1.402zm-3.416 0v-1.402h.848v1.402zm5.124-1.966v-1.402h.859v1.402zm-3.416 0v-1.402h.854v1.402zm1.708-1.96V70.46h.854v1.402zm-3.416 0V70.46h.848v1.402zm5.124-1.967v-1.401h.859v1.401zm-3.416 0v-1.401h.854v1.401zm1.708-1.96v-1.402h.854v1.402zm-3.416 0v-1.402h.848v1.402zm12.124 9.813v-1.402h.859v1.402zm-3.416 0v-1.402h.854v1.402zm1.708-1.96v-1.402h.854v1.402zm-3.416 0v-1.402h.848v1.402zm5.124-1.966v-1.402h.859v1.402zm-3.416 0v-1.402h.854v1.402zm1.708-1.96V70.46h.854v1.402zm-3.416 0V70.46h.848v1.402zm5.124-1.967v-1.401h.859v1.401zm-3.416 0v-1.401h.854v1.401zm1.708-1.96v-1.402h.854v1.402zm-3.416 0v-1.402h.848v1.402zm12.124 9.813v-1.402h.859v1.402zm-3.416 0v-1.402h.854v1.402zm1.708-1.96v-1.402h.854v1.402zm-3.416 0v-1.402h.848v1.402zm5.124-1.966v-1.402h.859v1.402zm-3.416 0v-1.402h.854v1.402zm1.708-1.96V70.46h.854v1.402zm-3.416 0V70.46h.848v1.402zm5.124-1.967v-1.401h.859v1.401zm-3.416 0v-1.401h.854v1.401zm1.708-1.96v-1.402h.854v1.402zm-3.416 0v-1.402h.848v1.402zm12.124 9.813v-1.402h.859v1.402zm-3.416 0v-1.402h.854v1.402zm1.708-1.96v-1.402h.854v1.402zm-3.416 0v-1.402h.848v1.402zm5.124-1.966v-1.402h.859v1.402zm-3.416 0v-1.402h.854v1.402zm1.708-1.96V70.46h.854v1.402zm-3.416 0V70.46h.848v1.402zm5.124-1.967v-1.401h.859v1.401zm-3.416 0v-1.401h.854v1.401zm1.708-1.96v-1.402h.854v1.402zm-3.416 0v-1.402h.848v1.402zm12.124 9.813v-1.402h.859v1.402zm-3.416 0v-1.402h.854v1.402zm1.708-1.96v-1.402h.854v1.402zm-3.416 0v-1.402h.848v1.402zm5.124-1.966v-1.402h.859v1.402zm-3.416 0v-1.402h.854v1.402zm1.708-1.96V70.46h.854v1.402zm-3.416 0V70.46h.848v1.402zm5.124-1.967v-1.401h.859v1.401zm-3.416 0v-1.401h.854v1.401zm1.708-1.96v-1.402h.854v1.402zm-3.416 0v-1.402h.848v1.402zm12.124 9.813v-1.402h.859v1.402zm-3.416 0v-1.402h.854v1.402zm1.708-1.96v-1.402h.854v1.402zm-3.416 0v-1.402h.848v1.402zm5.124-1.966v-1.402h.859v1.402zm-3.416 0v-1.402h.854v1.402zm1.708-1.96V70.46h.854v1.402zm-3.416 0V70.46h.848v1.402zm5.124-1.967v-1.401h.859v1.401zm-3.416 0v-1.401h.854v1.401zm1.708-1.96v-1.402h.854v1.402zm-3.416 0v-1.402h.848v1.402zm12.124 9.813v-1.402h.859v1.402zm-3.416 0v-1.402h.854v1.402zm1.708-1.96v-1.402h.854v1.402zm-3.416 0v-1.402h.848v1.402zm5.124-1.966v-1.402h.859v1.402zm-3.416 0v-1.402h.854v1.402zm1.708-1.96V70.46h.854v1.402zm-3.416 0V70.46h.848v1.402zm5.124-1.967v-1.401h.859v1.401zm-3.416 0v-1.401h.854v1.401zm1.708-1.96v-1.402h.854v1.402zm-3.416 0v-1.402h.848v1.402zm12.124 9.813v-1.402h.859v1.402zm-3.416 0v-1.402h.854v1.402zm1.708-1.96v-1.402h.854v1.402zm-3.416 0v-1.402h.848v1.402zm5.124-1.966v-1.402h.859v1.402zm-3.416 0v-1.402h.854v1.402zm1.708-1.96V70.46h.854v1.402zm-3.416 0V70.46h.848v1.402zm5.124-1.967v-1.401h.859v1.401zm-3.416 0v-1.401h.854v1.401zm1.708-1.96v-1.402h.854v1.402zm-3.416 0v-1.402h.848v1.402zm12.124 9.813v-1.402h.859v1.402zm-3.416 0v-1.402h.854v1.402zm1.708-1.96v-1.402h.854v1.402zm-3.416 0v-1.402h.848v1.402zm5.124-1.966v-1.402h.859v1.402zm-3.416 0v-1.402h.854v1.402zm1.708-1.96V70.46h.854v1.402zm-3.416 0V70.46h.848v1.402zm5.124-1.967v-1.401h.859v1.401zm-3.416 0v-1.401h.854v1.401zm1.708-1.96v-1.402h.854v1.402zm-3.416 0v-1.402h.848v1.402zm12.124 9.813v-1.402h.859v1.402zm-3.416 0v-1.402h.854v1.402zm1.708-1.96v-1.402h.854v1.402zm-3.416 0v-1.402h.848v1.402zm5.124-1.966v-1.402h.859v1.402zm-3.416 0v-1.402h.854v1.402zm1.708-1.96V70.46h.854v1.402zm-3.416 0V70.46h.848v1.402zm5.124-1.967v-1.401h.859v1.401zm-3.416 0v-1.401h.854v1.401zm1.708-1.96v-1.402h.854v1.402zm-3.416 0v-1.402h.848v1.402z" fill="#CC98CC"/><path d="M394.879 78.32V64.3h.86v14.02z"/><path d="M404.017 77.75v-1.402h.859v1.402zm-3.416 0v-1.402h.854v1.402zm1.708-1.96v-1.402h.854v1.402zm-3.416 0v-1.402h.848v1.402zm5.124-1.966v-1.402h.859v1.402zm-3.416 0v-1.402h.854v1.402zm1.708-1.96V70.46h.854v1.402zm-3.416 0V70.46h.848v1.402zm5.124-1.967v-1.401h.859v1.401zm-3.416 0v-1.401h.854v1.401zm1.708-1.96v-1.402h.854v1.402zm-3.416 0v-1.402h.848v1.402zm12.124 9.813v-1.402h.859v1.402zm-3.416 0v-1.402h.854v1.402zm1.708-1.96v-1.402h.854v1.402zm-3.416 0v-1.402h.848v1.402zm5.124-1.966v-1.402h.859v1.402zm-3.416 0v-1.402h.854v1.402zm1.708-1.96V70.46h.854v1.402zm-3.416 0V70.46h.848v1.402zm5.124-1.967v-1.401h.859v1.401zm-3.416 0v-1.401h.854v1.401zm1.708-1.96v-1.402h.854v1.402zm-3.416 0v-1.402h.848v1.402zm12.124 9.813v-1.402h.859v1.402zm-3.416 0v-1.402h.854v1.402zm1.708-1.96v-1.402h.854v1.402zm-3.416 0v-1.402h.848v1.402zm5.124-1.966v-1.402h.859v1.402zm-3.416 0v-1.402h.854v1.402zm1.708-1.96V70.46h.854v1.402zm-3.416 0V70.46h.848v1.402zm5.124-1.967v-1.401h.859v1.401zm-3.416 0v-1.401h.854v1.401zm1.708-1.96v-1.402h.854v1.402zm-3.416 0v-1.402h.848v1.402zm12.124 9.813v-1.402h.859v1.402zm-3.416 0v-1.402h.854v1.402zm1.708-1.96v-1.402h.854v1.402zm-3.416 0v-1.402h.848v1.402zm5.124-1.966v-1.402h.859v1.402zm-3.416 0v-1.402h.854v1.402zm1.708-1.96V70.46h.854v1.402zm-3.416 0V70.46h.848v1.402zm5.124-1.967v-1.401h.859v1.401zm-3.416 0v-1.401h.854v1.401zm1.708-1.96v-1.402h.854v1.402zm-3.416 0v-1.402h.848v1.402zm12.124 9.813v-1.402h.859v1.402zm-3.416 0v-1.402h.854v1.402zm1.708-1.96v-1.402h.854v1.402zm-3.416 0v-1.402h.848v1.402zm5.124-1.966v-1.402h.859v1.402zm-3.416 0v-1.402h.854v1.402zm1.708-1.96V70.46h.854v1.402zm-3.416 0V70.46h.848v1.402zm5.124-1.967v-1.401h.859v1.401zm-3.416 0v-1.401h.854v1.401zm1.708-1.96v-1.402h.854v1.402zm-3.416 0v-1.402h.848v1.402zm12.124 9.813v-1.402h.859v1.402zm-3.416 0v-1.402h.854v1.402zm1.708-1.96v-1.402h.854v1.402zm-3.416 0v-1.402h.848v1.402zm5.124-1.966v-1.402h.859v1.402zm-3.416 0v-1.402h.854v1.402zm1.708-1.96V70.46h.854v1.402zm-3.416 0V70.46h.848v1.402zm5.124-1.967v-1.401h.859v1.401zm-3.416 0v-1.401h.854v1.401zm1.708-1.96v-1.402h.854v1.402zm-3.416 0v-1.402h.848v1.402zm12.124 9.813v-1.402h.859v1.402zm-3.416 0v-1.402h.854v1.402zm1.708-1.96v-1.402h.854v1.402zm-3.416 0v-1.402h.848v1.402zm5.124-1.966v-1.402h.859v1.402zm-3.416 0v-1.402h.854v1.402zm1.708-1.96V70.46h.854v1.402zm-3.416 0V70.46h.848v1.402zm5.124-1.967v-1.401h.859v1.401zm-3.416 0v-1.401h.854v1.401zm1.708-1.96v-1.402h.854v1.402zm-3.416 0v-1.402h.848v1.402zm12.124 9.813v-1.402h.859v1.402zm-3.416 0v-1.402h.854v1.402zm1.708-1.96v-1.402h.854v1.402zm-3.416 0v-1.402h.848v1.402zm5.124-1.966v-1.402h.859v1.402zm-3.416 0v-1.402h.854v1.402zm1.708-1.96V70.46h.854v1.402zm-3.416 0V70.46h.848v1.402zm5.124-1.967v-1.401h.859v1.401zm-3.416 0v-1.401h.854v1.401zm1.708-1.96v-1.402h.854v1.402zm-3.416 0v-1.402h.848v1.402zm12.124 9.813v-1.402h.859v1.402zm-3.416 0v-1.402h.854v1.402zm1.708-1.96v-1.402h.854v1.402zm-3.416 0v-1.402h.848v1.402zm5.124-1.966v-1.402h.859v1.402zm-3.416 0v-1.402h.854v1.402zm1.708-1.96V70.46h.854v1.402zm-3.416 0V70.46h.848v1.402zm5.124-1.967v-1.401h.859v1.401zm-3.416 0v-1.401h.854v1.401zm1.708-1.96v-1.402h.854v1.402zm-3.416 0v-1.402h.848v1.402zm12.124 9.813v-1.402h.859v1.402zm-3.416 0v-1.402h.854v1.402zm1.708-1.96v-1.402h.854v1.402zm-3.416 0v-1.402h.848v1.402zm5.124-1.966v-1.402h.859v1.402zm-3.416 0v-1.402h.854v1.402zm1.708-1.96V70.46h.854v1.402zm-3.416 0V70.46h.848v1.402zm5.124-1.967v-1.401h.859v1.401zm-3.416 0v-1.401h.854v1.401zm1.708-1.96v-1.402h.854v1.402zm-3.416 0v-1.402h.848v1.402zm12.124 9.813v-1.402h.859v1.402zm-3.416 0v-1.402h.854v1.402zm1.708-1.96v-1.402h.854v1.402zm-3.416 0v-1.402h.848v1.402zm5.124-1.966v-1.402h.859v1.402zm-3.416 0v-1.402h.854v1.402zm1.708-1.96V70.46h.854v1.402zm-3.416 0V70.46h.848v1.402zm5.124-1.967v-1.401h.859v1.401zm-3.416 0v-1.401h.854v1.401zm1.708-1.96v-1.402h.854v1.402zm-3.416 0v-1.402h.848v1.402zm12.124 9.813v-1.402h.859v1.402zm-3.416 0v-1.402h.854v1.402zm1.708-1.96v-1.402h.854v1.402zm-3.416 0v-1.402h.848v1.402zm5.124-1.966v-1.402h.859v1.402zm-3.416 0v-1.402h.854v1.402zm1.708-1.96V70.46h.854v1.402zm-3.416 0V70.46h.848v1.402zm5.124-1.967v-1.401h.859v1.401zm-3.416 0v-1.401h.854v1.401zm1.708-1.96v-1.402h.854v1.402zm-3.416 0v-1.402h.848v1.402zm40.124 9.813v-1.402h.859v1.402zm-3.416 0v-1.402h.854v1.402zm1.708-1.96v-1.402h.854v1.402zm-3.416 0v-1.402h.848v1.402zm5.124-1.966v-1.402h.859v1.402zm-3.416 0v-1.402h.854v1.402zm1.708-1.96V70.46h.854v1.402zm-3.416 0V70.46h.848v1.402zm5.124-1.967v-1.401h.859v1.401zm-3.416 0v-1.401h.854v1.401zm1.708-1.96v-1.402h.854v1.402zm-3.416 0v-1.402h.848v1.402zm12.124 9.813v-1.402h.859v1.402zm-3.416 0v-1.402h.854v1.402zm1.708-1.96v-1.402h.854v1.402zm-3.416 0v-1.402h.848v1.402zm5.124-1.966v-1.402h.859v1.402zm-3.416 0v-1.402h.854v1.402zm1.708-1.96V70.46h.854v1.402zm-3.416 0V70.46h.848v1.402zm5.124-1.967v-1.401h.859v1.401zm-3.416 0v-1.401h.854v1.401zm1.708-1.96v-1.402h.854v1.402zm-3.416 0v-1.402h.848v1.402zm12.124 9.813v-1.402h.859v1.402zm-3.416 0v-1.402h.854v1.402zm1.708-1.96v-1.402h.854v1.402zm-3.416 0v-1.402h.848v1.402zm5.124-1.966v-1.402h.859v1.402zm-3.416 0v-1.402h.854v1.402zm1.708-1.96V70.46h.854v1.402zm-3.416 0V70.46h.848v1.402zm5.124-1.967v-1.401h.859v1.401zm-3.416 0v-1.401h.854v1.401zm1.708-1.96v-1.402h.854v1.402zm-3.416 0v-1.402h.848v1.402zm12.124 9.813v-1.402h.859v1.402zm-3.416 0v-1.402h.854v1.402zm1.708-1.96v-1.402h.854v1.402zm-3.416 0v-1.402h.848v1.402zm5.124-1.966v-1.402h.859v1.402zm-3.416 0v-1.402h.854v1.402zm1.708-1.96V70.46h.854v1.402zm-3.416 0V70.46h.848v1.402zm5.124-1.967v-1.401h.859v1.401zm-3.416 0v-1.401h.854v1.401zm1.708-1.96v-1.402h.854v1.402zm-3.416 0v-1.402h.848v1.402zm12.124 9.813v-1.402h.859v1.402zm-3.416 0v-1.402h.854v1.402zm1.708-1.96v-1.402h.854v1.402zm-3.416 0v-1.402h.848v1.402zm5.124-1.966v-1.402h.859v1.402zm-3.416 0v-1.402h.854v1.402zm1.708-1.96V70.46h.854v1.402zm-3.416 0V70.46h.848v1.402zm5.124-1.967v-1.401h.859v1.401zm-3.416 0v-1.401h.854v1.401zm1.708-1.96v-1.402h.854v1.402zm-3.416 0v-1.402h.848v1.402zm12.124 9.813v-1.402h.859v1.402zm-3.416 0v-1.402h.854v1.402zm1.708-1.96v-1.402h.854v1.402zm-3.416 0v-1.402h.848v1.402zm5.124-1.966v-1.402h.859v1.402zm-3.416 0v-1.402h.854v1.402zm1.708-1.96V70.46h.854v1.402zm-3.416 0V70.46h.848v1.402zm5.124-1.967v-1.401h.859v1.401zm-3.416 0v-1.401h.854v1.401zm1.708-1.96v-1.402h.854v1.402zm-3.416 0v-1.402h.848v1.402zm12.124 9.813v-1.402h.859v1.402zm-3.416 0v-1.402h.854v1.402zm1.708-1.96v-1.402h.854v1.402zm-3.416 0v-1.402h.848v1.402zm5.124-1.966v-1.402h.859v1.402zm-3.416 0v-1.402h.854v1.402zm1.708-1.96V70.46h.854v1.402zm-3.416 0V70.46h.848v1.402zm5.124-1.967v-1.401h.859v1.401zm-3.416 0v-1.401h.854v1.401zm1.708-1.96v-1.402h.854v1.402zm-3.416 0v-1.402h.848v1.402zm12.124 9.813v-1.402h.859v1.402zm-3.416 0v-1.402h.854v1.402zm1.708-1.96v-1.402h.854v1.402zm-3.416 0v-1.402h.848v1.402zm5.124-1.966v-1.402h.859v1.402zm-3.416 0v-1.402h.854v1.402zm1.708-1.96V70.46h.854v1.402zm-3.416 0V70.46h.848v1.402zm5.124-1.967v-1.401h.859v1.401zm-3.416 0v-1.401h.854v1.401zm1.708-1.96v-1.402h.854v1.402zm-3.416 0v-1.402h.848v1.402zm12.124 9.813v-1.402h.859v1.402zm-3.416 0v-1.402h.854v1.402zm1.708-1.96v-1.402h.854v1.402zm-3.416 0v-1.402h.848v1.402zm5.124-1.966v-1.402h.859v1.402zm-3.416 0v-1.402h.854v1.402zm1.708-1.96V70.46h.854v1.402zm-3.416 0V70.46h.848v1.402zm5.124-1.967v-1.401h.859v1.401zm-3.416 0v-1.401h.854v1.401zm1.708-1.96v-1.402h.854v1.402zm-3.416 0v-1.402h.848v1.402zm12.124 9.813v-1.402h.859v1.402zm-3.416 0v-1.402h.854v1.402zm1.708-1.96v-1.402h.854v1.402zm-3.416 0v-1.402h.848v1.402zm5.124-1.966v-1.402h.859v1.402zm-3.416 0v-1.402h.854v1.402zm1.708-1.96V70.46h.854v1.402zm-3.416 0V70.46h.848v1.402zm5.124-1.967v-1.401h.859v1.401zm-3.416 0v-1.401h.854v1.401zm1.708-1.96v-1.402h.854v1.402zm-3.416 0v-1.402h.848v1.402z" fill="#CC98CC"/><path d="M583.879 78.32V64.3h.86v14.02z"/><path d="M593.017 77.75v-1.402h.859v1.402zm-3.416 0v-1.402h.854v1.402zm1.708-1.96v-1.402h.854v1.402zm-3.416 0v-1.402h.848v1.402zm5.124-1.966v-1.402h.859v1.402zm-3.416 0v-1.402h.854v1.402zm1.708-1.96V70.46h.854v1.402zm-3.416 0V70.46h.848v1.402zm5.124-1.967v-1.401h.859v1.401zm-3.416 0v-1.401h.854v1.401zm1.708-1.96v-1.402h.854v1.402zm-3.416 0v-1.402h.848v1.402zm12.124 9.813v-1.402h.859v1.402zm-3.416 0v-1.402h.854v1.402zm1.708-1.96v-1.402h.854v1.402zm-3.416 0v-1.402h.848v1.402zm5.124-1.966v-1.402h.859v1.402zm-3.416 0v-1.402h.854v1.402zm1.708-1.96V70.46h.854v1.402zm-3.416 0V70.46h.848v1.402zm5.124-1.967v-1.401h.859v1.401zm-3.416 0v-1.401h.854v1.401zm1.708-1.96v-1.402h.854v1.402zm-3.416 0v-1.402h.848v1.402zm12.124 9.813v-1.402h.859v1.402zm-3.416 0v-1.402h.854v1.402zm1.708-1.96v-1.402h.854v1.402zm-3.416 0v-1.402h.848v1.402zm5.124-1.966v-1.402h.859v1.402zm-3.416 0v-1.402h.854v1.402zm1.708-1.96V70.46h.854v1.402zm-3.416 0V70.46h.848v1.402zm5.124-1.967v-1.401h.859v1.401zm-3.416 0v-1.401h.854v1.401zm1.708-1.96v-1.402h.854v1.402zm-3.416 0v-1.402h.848v1.402zm12.124 9.813v-1.402h.859v1.402zm-3.416 0v-1.402h.854v1.402zm1.708-1.96v-1.402h.854v1.402zm-3.416 0v-1.402h.848v1.402zm5.124-1.966v-1.402h.859v1.402zm-3.416 0v-1.402h.854v1.402zm1.708-1.96V70.46h.854v1.402zm-3.416 0V70.46h.848v1.402zm5.124-1.967v-1.401h.859v1.401zm-3.416 0v-1.401h.854v1.401zm1.708-1.96v-1.402h.854v1.402zm-3.416 0v-1.402h.848v1.402zm12.124 9.813v-1.402h.859v1.402zm-3.416 0v-1.402h.854v1.402zm1.708-1.96v-1.402h.854v1.402zm-3.416 0v-1.402h.848v1.402zm5.124-1.966v-1.402h.859v1.402zm-3.416 0v-1.402h.854v1.402zm1.708-1.96V70.46h.854v1.402zm-3.416 0V70.46h.848v1.402zm5.124-1.967v-1.401h.859v1.401zm-3.416 0v-1.401h.854v1.401zm1.708-1.96v-1.402h.854v1.402zm-3.416 0v-1.402h.848v1.402zm12.124 9.813v-1.402h.859v1.402zm-3.416 0v-1.402h.854v1.402zm1.708-1.96v-1.402h.854v1.402zm-3.416 0v-1.402h.848v1.402zm5.124-1.966v-1.402h.859v1.402zm-3.416 0v-1.402h.854v1.402zm1.708-1.96V70.46h.854v1.402zm-3.416 0V70.46h.848v1.402zm5.124-1.967v-1.401h.859v1.401zm-3.416 0v-1.401h.854v1.401zm1.708-1.96v-1.402h.854v1.402zm-3.416 0v-1.402h.848v1.402zm12.124 9.813v-1.402h.859v1.402zm-3.416 0v-1.402h.854v1.402zm1.708-1.96v-1.402h.854v1.402zm-3.416 0v-1.402h.848v1.402zm5.124-1.966v-1.402h.859v1.402zm-3.416 0v-1.402h.854v1.402zm1.708-1.96V70.46h.854v1.402zm-3.416 0V70.46h.848v1.402zm5.124-1.967v-1.401h.859v1.401zm-3.416 0v-1.401h.854v1.401zm1.708-1.96v-1.402h.854v1.402zm-3.416 0v-1.402h.848v1.402zm12.124 9.813v-1.402h.859v1.402zm-3.416 0v-1.402h.854v1.402zm1.708-1.96v-1.402h.854v1.402zm-3.416 0v-1.402h.848v1.402zm5.124-1.966v-1.402h.859v1.402zm-3.416 0v-1.402h.854v1.402zm1.708-1.96V70.46h.854v1.402zm-3.416 0V70.46h.848v1.402zm5.124-1.967v-1.401h.859v1.401zm-3.416 0v-1.401h.854v1.401zm1.708-1.96v-1.402h.854v1.402zm-3.416 0v-1.402h.848v1.402zm12.124 9.813v-1.402h.859v1.402zm-3.416 0v-1.402h.854v1.402zm1.708-1.96v-1.402h.854v1.402zm-3.416 0v-1.402h.848v1.402zm5.124-1.966v-1.402h.859v1.402zm-3.416 0v-1.402h.854v1.402zm1.708-1.96V70.46h.854v1.402zm-3.416 0V70.46h.848v1.402zm5.124-1.967v-1.401h.859v1.401zm-3.416 0v-1.401h.854v1.401zm1.708-1.96v-1.402h.854v1.402zm-3.416 0v-1.402h.848v1.402zm12.124 9.813v-1.402h.859v1.402zm-3.416 0v-1.402h.854v1.402zm1.708-1.96v-1.402h.854v1.402zm-3.416 0v-1.402h.848v1.402zm5.124-1.966v-1.402h.859v1.402zm-3.416 0v-1.402h.854v1.402zm1.708-1.96V70.46h.854v1.402zm-3.416 0V70.46h.848v1.402zm5.124-1.967v-1.401h.859v1.401zm-3.416 0v-1.401h.854v1.401zm1.708-1.96v-1.402h.854v1.402zm-3.416 0v-1.402h.848v1.402zm12.124 9.813v-1.402h.859v1.402zm-3.416 0v-1.402h.854v1.402zm1.708-1.96v-1.402h.854v1.402zm-3.416 0v-1.402h.848v1.402zm5.124-1.966v-1.402h.859v1.402zm-3.416 0v-1.402h.854v1.402zm1.708-1.96V70.46h.854v1.402zm-3.416 0V70.46h.848v1.402zm5.124-1.967v-1.401h.859v1.401zm-3.416 0v-1.401h.854v1.401zm1.708-1.96v-1.402h.854v1.402zm-3.416 0v-1.402h.848v1.402zm12.124 9.813v-1.402h.859v1.402zm-3.416 0v-1.402h.854v1.402zm1.708-1.96v-1.402h.854v1.402zm-3.416 0v-1.402h.848v1.402zm5.124-1.966v-1.402h.859v1.402zm-3.416 0v-1.402h.854v1.402zm1.708-1.96V70.46h.854v1.402zm-3.416 0V70.46h.848v1.402zm5.124-1.967v-1.401h.859v1.401zm-3.416 0v-1.401h.854v1.401zm1.708-1.96v-1.402h.854v1.402zm-3.416 0v-1.402h.848v1.402z" fill="#CC98CC"/><path d="M111.893 59.336v-.924h6.837v.924zm7 0v-.924h6.837v.924zm7 0v-.924h6.837v.924zm7 0v-.924h6.837v.924zm7 0v-.924h6.837v.924zm7 0v-.924h6.837v.924zm7 0v-.924h6.837v.924zm7 0v-.924h6.837v.924zm7 0v-.924h6.837v.924zm7 0v-.924h6.837v.924zm9.986 5.984v-5.984h-2.986v-.924h6.837v.924h-2.992v5.983zm4.014-5.984v-.924h6.837v.924zm7 0v-.924h6.837v.924zm7 0v-.924h6.837v.924zm7 0v-.924h6.837v.924zm7 0v-.924h6.837v.924zm7 0v-.924h6.837v.924zm7 0v-.924h6.837v.924zm7 0v-.924h6.837v.924zm7 0v-.924h6.837v.924zm7 0v-.924h6.837v.924zm7 0v-.924h2.986v-7.111h.86v8.035z"/><path d="M271.017 64.75v-1.402h.859v1.402zm-3.416 0v-1.402h.854v1.402zm1.708-1.96v-1.402h.854v1.402zm-3.416 0v-1.402h.848v1.402zm5.124-1.966v-1.402h.859v1.402zm-3.416 0v-1.402h.854v1.402zm1.708-1.96V57.46h.854v1.402zm-3.416 0V57.46h.848v1.402zm5.124-1.967v-1.401h.859v1.401zm-3.416 0v-1.401h.854v1.401zm1.708-1.96v-1.402h.854v1.402zm-3.416 0v-1.402h.848v1.402z" fill="#98CBFE"/><path d="M317.879 59.336V51.3h.86v7.111h2.991v.924zm4.014 0v-.924h6.837v.924zm7 0v-.924h6.837v.924zm7 0v-.924h6.837v.924zm7 0v-.924h6.837v.924zm7 0v-.924h6.837v.924zm7 0v-.924h6.837v.924zm7 0v-.924h6.837v.924zm7 0v-.924h6.837v.924zm7 0v-.924h6.837v.924zm7 0v-.924h6.837v.924zm9.986 5.984v-5.984h-2.986v-.924h6.837v.924h-2.992v5.983zm4.014-5.984v-.924h6.837v.924zm7 0v-.924h6.837v.924zm7 0v-.924h6.837v.924zm7 0v-.924h6.837v.924zm7 0v-.924h6.837v.924zm7 0v-.924h6.837v.924zm7 0v-.924h6.837v.924zm7 0v-.924h6.837v.924zm7 0v-.924h6.837v.924zm7 0v-.924h6.837v.924zm7 0v-.924h2.986v-7.111h.86v8.035z"/><path d="M481.017 64.75v-1.402h.859v1.402zm-3.416 0v-1.402h.854v1.402zm1.708-1.96v-1.402h.854v1.402zm-3.416 0v-1.402h.848v1.402zm5.124-1.966v-1.402h.859v1.402zm-3.416 0v-1.402h.854v1.402zm1.708-1.96V57.46h.854v1.402zm-3.416 0V57.46h.848v1.402zm5.124-1.967v-1.401h.859v1.401zm-3.416 0v-1.401h.854v1.401zm1.708-1.96v-1.402h.854v1.402zm-3.416 0v-1.402h.848v1.402z" fill="#CC98CC"/><path d="M506.879 59.336V51.3h.86v7.111h2.991v.924zm4.014 0v-.924h6.837v.924zm7 0v-.924h6.837v.924zm7 0v-.924h6.837v.924zm7 0v-.924h6.837v.924zm7 0v-.924h6.837v.924zm7 0v-.924h6.837v.924zm7 0v-.924h6.837v.924zm7 0v-.924h6.837v.924zm7 0v-.924h6.837v.924zm7 0v-.924h6.837v.924zm9.986 5.984v-5.984h-2.986v-.924h6.837v.924h-2.992v5.983zm4.014-5.984v-.924h6.837v.924zm7 0v-.924h6.837v.924zm7 0v-.924h6.837v.924zm7 0v-.924h6.837v.924zm7 0v-.924h6.837v.924zm7 0v-.924h6.837v.924zm7 0v-.924h6.837v.924zm7 0v-.924h6.837v.924zm7 0v-.924h6.837v.924zm7 0v-.924h6.837v.924zm7 0v-.924h2.986v-7.111h.86v8.035z"/><path d="M670.017 64.75v-1.402h.859v1.402zm-3.416 0v-1.402h.854v1.402zm1.708-1.96v-1.402h.854v1.402zm-3.416 0v-1.402h.848v1.402zm5.124-1.966v-1.402h.859v1.402zm-3.416 0v-1.402h.854v1.402zm1.708-1.96V57.46h.854v1.402zm-3.416 0V57.46h.848v1.402zm5.124-1.967v-1.401h.859v1.401zm-3.416 0v-1.401h.854v1.401zm1.708-1.96v-1.402h.854v1.402zm-3.416 0v-1.402h.848v1.402z" fill="#CC98CC"/><path d="M143.309 28.937l-1.144 4.104h2.288zm-.656-.956h1.316L146.424 36H145.3l-.59-2.09h-2.81l-.58 2.09h-1.12zM261.879 52.32V38.3h.86v14.02z"/><path d="M271.017 51.75v-1.402h.859v1.402zm-3.416 0v-1.402h.854v1.402zm1.708-1.96v-1.402h.854v1.402zm-3.416 0v-1.402h.848v1.402zm5.124-1.966v-1.402h.859v1.402zm-3.416 0v-1.402h.854v1.402zm1.708-1.96V44.46h.854v1.402zm-3.416 0V44.46h.848v1.402zm5.124-1.967v-1.401h.859v1.401zm-3.416 0v-1.401h.854v1.401zm1.708-1.96v-1.402h.854v1.402zm-3.416 0v-1.402h.848v1.402z" fill="#98CBFE"/><path d="M317.879 52.32V38.3h.86v14.02zm154 0V38.3h.86v14.02z"/><path d="M481.017 51.75v-1.402h.859v1.402zm-3.416 0v-1.402h.854v1.402zm1.708-1.96v-1.402h.854v1.402zm-3.416 0v-1.402h.848v1.402zm5.124-1.966v-1.402h.859v1.402zm-3.416 0v-1.402h.854v1.402zm1.708-1.96V44.46h.854v1.402zm-3.416 0V44.46h.848v1.402zm5.124-1.967v-1.401h.859v1.401zm-3.416 0v-1.401h.854v1.401zm1.708-1.96v-1.402h.854v1.402zm-3.416 0v-1.402h.848v1.402z" fill="#CC98CC"/><path d="M506.879 52.32V38.3h.86v14.02zm154 0V38.3h.86v14.02z"/><path d="M670.017 51.75v-1.402h.859v1.402zm-3.416 0v-1.402h.854v1.402zm1.708-1.96v-1.402h.854v1.402zm-3.416 0v-1.402h.848v1.402zm5.124-1.966v-1.402h.859v1.402zm-3.416 0v-1.402h.854v1.402zm1.708-1.96V44.46h.854v1.402zm-3.416 0V44.46h.848v1.402zm5.124-1.967v-1.401h.859v1.401zm-3.416 0v-1.401h.854v1.401zm1.708-1.96v-1.402h.854v1.402zm-3.416 0v-1.402h.848v1.402z" fill="#CC98CC"/><path d="M147.537 29.984h1.026l1.746 5.05 1.75-5.05h1.026L150.948 36h-1.273zm10.233 2.992h-.327q-.865 0-1.303.304-.437.303-.437.905 0 .542.327.843.328.3.908.3.816 0 1.284-.566.467-.567.472-1.566v-.22zm1.918-.408V36h-.994v-.892q-.317.538-.797.793-.481.255-1.168.255-.919 0-1.467-.519-.548-.518-.548-1.388 0-1.004.674-1.525.674-.521 1.98-.521h1.326v-.156q-.005-.72-.365-1.045-.36-.325-1.15-.325-.504 0-1.02.145-.515.145-1.004.425v-.989q.548-.21 1.05-.314.502-.105.975-.105.746 0 1.275.22.53.22.857.661.204.269.29.664.086.394.086 1.184zm6.538-2.374v.967q-.424-.247-.854-.371-.43-.123-.875-.123-.672 0-1.002.217-.33.218-.33.663 0 .403.247.602.247.199 1.23.387l.397.075q.736.14 1.115.558.378.42.378 1.09 0 .892-.634 1.395-.633.502-1.761.502-.446 0-.935-.094-.489-.094-1.058-.282v-1.02q.553.284 1.058.426.505.143.956.143.655 0 1.015-.266.36-.266.36-.744 0-.688-1.316-.95l-.043-.012-.37-.075q-.854-.166-1.246-.561t-.392-1.077q0-.865.585-1.335t1.67-.47q.484 0 .93.089.445.089.875.266zm5.072-1.918v1.708h2.245v.768h-2.245v3.266q0 .666.252.93.253.262.881.262h1.112V36h-1.209q-1.111 0-1.568-.446-.456-.446-.456-1.536v-3.266h-1.606v-.768h1.606v-1.708zm7.472 4.7h-.327q-.865 0-1.303.304-.437.303-.437.905 0 .542.327.843.328.3.908.3.816 0 1.284-.566.467-.567.472-1.566v-.22zm1.918-.408V36h-.994v-.892q-.317.538-.797.793-.481.255-1.168.255-.919 0-1.467-.519-.548-.518-.548-1.388 0-1.004.674-1.525.674-.521 1.98-.521h1.326v-.156q-.005-.72-.365-1.045-.36-.325-1.15-.325-.504 0-1.02.145-.515.145-1.004.425v-.989q.548-.21 1.05-.314.502-.105.975-.105.746 0 1.275.22.53.22.857.661.204.269.29.664.086.394.086 1.184zm7.516-1.343q-.317-.247-.645-.36-.328-.113-.72-.113-.923 0-1.412.58-.489.58-.489 1.676V36h-.994v-6.016h.994v1.177q.247-.64.76-.98.513-.342 1.217-.342.365 0 .682.092.317.091.607.284zm1.048-3.244h6.118v.913h-2.508V36h-1.09v-7.106h-2.52zm11.356 6.085q-.247.629-.628 1.655-.532 1.418-.714 1.73-.247.418-.618.628-.37.21-.865.21h-.795v-.828h.586q.435 0 .682-.253.247-.252.628-1.305l-2.325-5.919h1.047l1.783 4.705 1.757-4.705h1.047zm4.406 1.177v3.045h-.993v-8.304h.993v.768q.247-.445.658-.679.411-.234.948-.234 1.09 0 1.71.844.621.843.621 2.336 0 1.466-.623 2.302-.623.835-1.708.835-.548 0-.959-.234-.41-.234-.647-.68zm2.9-2.245q0-1.15-.362-1.735-.363-.586-1.077-.586-.72 0-1.09.588-.37.589-.37 1.733 0 1.138.37 1.73.37.59 1.09.59.714 0 1.077-.586.363-.585.363-1.734zm8.102-.5v.483h-4.281v.033q-.043 1.23.47 1.767.513.537 1.447.537.473 0 .989-.15.515-.15 1.1-.457v.983q-.563.23-1.087.346-.524.116-1.012.116-1.402 0-2.192-.84-.79-.841-.79-2.318 0-1.44.774-2.3.774-.859 2.063-.859 1.149 0 1.812.78.664.778.707 1.879zm-.989-.29q-.064-.623-.454-1.077-.389-.454-1.12-.454-.714 0-1.176.473-.462.473-.505 1.063zm7.199-2.014v.967q-.424-.247-.854-.371-.43-.123-.875-.123-.672 0-1.002.217-.33.218-.33.663 0 .403.247.602.247.199 1.23.387l.397.075q.736.14 1.115.558.378.42.378 1.09 0 .892-.634 1.395-.633.502-1.761.502-.446 0-.935-.094-.489-.094-1.058-.282v-1.02q.553.284 1.058.426.505.143.956.143.655 0 1.015-.266.36-.266.36-.744 0-.688-1.316-.95l-.043-.012-.37-.075q-.854-.166-1.246-.561t-.392-1.077q0-.865.585-1.335t1.67-.47q.484 0 .93.089.445.089.875.266zm39.653 9.126V25.3h.86v14.02z"/><path d="M271.017 38.75v-1.402h.859v1.402zm-3.416 0v-1.402h.854v1.402zm1.708-1.96v-1.402h.854v1.402zm-3.416 0v-1.402h.848v1.402zm5.124-1.966v-1.402h.859v1.402zm-3.416 0v-1.402h.854v1.402zm1.708-1.96V31.46h.854v1.402zm-3.416 0V31.46h.848v1.402zm5.124-1.967v-1.401h.859v1.401zm-3.416 0v-1.401h.854v1.401zm1.708-1.96v-1.402h.854v1.402zm-3.416 0v-1.402h.848v1.402z" fill="#98CBFE"/><path d="M317.879 39.32V25.3h.86v14.02zm51.557-11.065v1.101q-.495-.317-.991-.478-.497-.161-1.002-.161-.768 0-1.214.357-.446.357-.446.964 0 .532.293.811.293.28 1.093.467l.57.13q1.127.262 1.643.826.515.564.515 1.537 0 1.144-.709 1.745-.709.602-2.062.602-.564 0-1.133-.121-.57-.12-1.144-.363v-1.154q.617.392 1.168.574.55.183 1.109.183.822 0 1.278-.368.457-.368.457-1.029 0-.601-.314-.918-.315-.317-1.093-.489l-.58-.134q-1.118-.253-1.623-.763-.504-.51-.504-1.37 0-1.074.722-1.72.722-.648 1.92-.648.462 0 .972.105.51.104 1.075.314zm5.334 4.721h-.327q-.865 0-1.303.304-.437.303-.437.905 0 .542.327.843.328.3.908.3.816 0 1.284-.566.467-.567.472-1.566v-.22zm1.918-.408V36h-.994v-.892q-.317.538-.797.793-.481.255-1.168.255-.919 0-1.467-.519-.548-.518-.548-1.388 0-1.004.674-1.525.675-.521 1.98-.521h1.326v-.156q-.005-.72-.365-1.045-.36-.325-1.15-.325-.504 0-1.02.145-.515.145-1.004.425v-.989q.548-.21 1.05-.314.502-.105.975-.105.746 0 1.275.22.53.22.857.661.204.269.29.664.086.394.086 1.184zm7.022-4.925v.821h-1.123q-.532 0-.739.218-.206.217-.206.77v.532h2.067v.768h-2.067V36h-.989v-5.248h-1.606v-.768h1.606v-.419q0-.988.454-1.455.454-.467 1.415-.467zm7.306 4.855v.483h-4.281v.033q-.043 1.23.47 1.767.513.537 1.447.537.473 0 .989-.15.515-.15 1.1-.457v.983q-.563.23-1.087.346-.524.116-1.012.116-1.402 0-2.192-.84-.79-.841-.79-2.318 0-1.44.774-2.3.774-.859 2.063-.859 1.149 0 1.812.78.664.778.707 1.879zm-.989-.29q-.064-.623-.454-1.077-.389-.454-1.12-.454-.714 0-1.176.473-.462.473-.505 1.063zm2.166-4.2h1.45l1.386 4.071 1.397-4.071h1.455V36h-1.004v-7.063l-1.429 4.21h-.822l-1.434-4.21V36h-.999zm10.577 4.968h-.327q-.865 0-1.303.304-.437.303-.437.905 0 .542.327.843.328.3.908.3.816 0 1.284-.566.467-.567.472-1.566v-.22zm1.918-.408V36h-.994v-.892q-.317.538-.797.793-.481.255-1.168.255-.919 0-1.467-.519-.548-.518-.548-1.388 0-1.004.674-1.525.675-.521 1.98-.521h1.326v-.156q-.005-.72-.365-1.045-.36-.325-1.15-.325-.504 0-1.02.145-.515.145-1.004.425v-.989q.548-.21 1.05-.314.502-.105.975-.105.746 0 1.275.22.53.22.857.661.204.269.29.664.086.394.086 1.184zm4.61-4.292v1.708h2.245v.768h-2.245v3.266q0 .666.252.93.253.262.881.262h1.112V36h-1.209q-1.111 0-1.568-.446-.456-.446-.456-1.536v-3.266h-1.606v-.768h1.606v-1.708zm9.347 3.996V36h-.994v-3.728q0-.81-.284-1.192-.285-.381-.892-.381-.693 0-1.066.491-.373.492-.373 1.41V36h-.989v-8.357h.989v3.244q.263-.516.714-.782.451-.266 1.069-.266.918 0 1.372.605.454.604.454 1.828zm53.234 7.048V25.3h.86v14.02z"/><path d="M481.017 38.75v-1.402h.859v1.402zm-3.416 0v-1.402h.854v1.402zm1.708-1.96v-1.402h.854v1.402zm-3.416 0v-1.402h.848v1.402zm5.124-1.966v-1.402h.859v1.402zm-3.416 0v-1.402h.854v1.402zm1.708-1.96V31.46h.854v1.402zm-3.416 0V31.46h.848v1.402zm5.124-1.967v-1.401h.859v1.401zm-3.416 0v-1.401h.854v1.401zm1.708-1.96v-1.402h.854v1.402zm-3.416 0v-1.402h.848v1.402z" fill="#CC98CC"/><path d="M506.879 39.32V25.3h.86v14.02zm64.203-7.107q.419.108.714.406.296.298.736 1.19l1.09 2.191h-1.165l-.956-2.025q-.414-.865-.744-1.114-.33-.25-.862-.25h-1.037V36h-1.09v-8.019h2.234q1.322 0 2.025.596.704.596.704 1.724 0 .795-.432 1.297-.433.503-1.217.615zm-2.224-3.34v2.846h1.187q.78 0 1.16-.349.382-.349.382-1.069 0-.693-.406-1.06-.405-.368-1.179-.368zm8.451 1.804q-.752 0-1.14.586-.386.585-.386 1.735 0 1.144.387 1.732.387.588 1.139.588.757 0 1.144-.588.386-.588.386-1.732 0-1.15-.386-1.735-.387-.586-1.144-.586zm0-.838q1.251 0 1.914.811.664.811.664 2.348 0 1.541-.66 2.35-.662.808-1.918.808-1.252 0-1.913-.809-.66-.808-.66-2.35 0-1.536.66-2.347.661-.81 1.913-.81zm7.553 3.986q0 .666.244 1.004.245.338.723.338h1.154V36h-1.251q-.886 0-1.372-.567-.486-.566-.486-1.608v-5.441h-1.585v-.774h2.573zm9.154-1.327v.483h-4.281v.033q-.043 1.23.47 1.767.513.537 1.447.537.473 0 .989-.15.515-.15 1.1-.457v.983q-.563.23-1.087.346-.524.116-1.012.116-1.402 0-2.192-.84-.79-.841-.79-2.318 0-1.44.774-2.3.774-.859 2.063-.859 1.149 0 1.812.78.664.778.707 1.879zm-.989-.29q-.064-.623-.454-1.077-.389-.454-1.12-.454-.714 0-1.176.473-.462.473-.505 1.063zm7.199-2.014v.967q-.424-.247-.854-.371-.43-.123-.875-.123-.672 0-1.002.217-.33.218-.33.663 0 .403.247.602.247.199 1.23.387l.397.075q.736.14 1.115.558.378.42.378 1.09 0 .892-.634 1.395-.633.502-1.761.502-.446 0-.935-.094-.489-.094-1.058-.282v-1.02q.553.284 1.058.426.505.143.956.143.655 0 1.015-.266.36-.266.36-.744 0-.688-1.316-.95l-.043-.012-.37-.075q-.854-.166-1.246-.561t-.392-1.077q0-.865.585-1.335t1.67-.47q.484 0 .93.089.445.089.875.266zm60.653 9.126V25.3h.86v14.02z"/><path d="M670.017 38.75v-1.402h.859v1.402zm-3.416 0v-1.402h.854v1.402zm1.708-1.96v-1.402h.854v1.402zm-3.416 0v-1.402h.848v1.402zm5.124-1.966v-1.402h.859v1.402zm-3.416 0v-1.402h.854v1.402zm1.708-1.96V31.46h.854v1.402zm-3.416 0V31.46h.848v1.402zm5.124-1.967v-1.401h.859v1.401zm-3.416 0v-1.401h.854v1.401zm1.708-1.96v-1.402h.854v1.402zm-3.416 0v-1.402h.848v1.402z" fill="#CC98CC"/><path d="M261.879 26.32V12.3h.86v14.02z"/><path d="M271.017 25.75v-1.402h.859v1.402zm-3.416 0v-1.402h.854v1.402zm1.708-1.96v-1.402h.854v1.402zm-3.416 0v-1.402h.848v1.402zm5.124-1.966v-1.402h.859v1.402zm-3.416 0v-1.402h.854v1.402zm1.708-1.96V18.46h.854v1.402zm-3.416 0V18.46h.848v1.402zm5.124-1.967v-1.401h.859v1.401zm-3.416 0v-1.401h.854v1.401zm1.708-1.96v-1.402h.854v1.402zm-3.416 0v-1.402h.848v1.402z" fill="#98CBFE"/><path d="M317.879 26.32V12.3h.86v14.02zm154 0V12.3h.86v14.02z"/><path d="M481.017 25.75v-1.402h.859v1.402zm-3.416 0v-1.402h.854v1.402zm1.708-1.96v-1.402h.854v1.402zm-3.416 0v-1.402h.848v1.402zm5.124-1.966v-1.402h.859v1.402zm-3.416 0v-1.402h.854v1.402zm1.708-1.96V18.46h.854v1.402zm-3.416 0V18.46h.848v1.402zm5.124-1.967v-1.401h.859v1.401zm-3.416 0v-1.401h.854v1.401zm1.708-1.96v-1.402h.854v1.402zm-3.416 0v-1.402h.848v1.402z" fill="#CC98CC"/><path d="M506.879 26.32V12.3h.86v14.02zm154 0V12.3h.86v14.02z"/><path d="M670.017 25.75v-1.402h.859v1.402zm-3.416 0v-1.402h.854v1.402zm1.708-1.96v-1.402h.854v1.402zm-3.416 0v-1.402h.848v1.402zm5.124-1.966v-1.402h.859v1.402zm-3.416 0v-1.402h.854v1.402zm1.708-1.96V18.46h.854v1.402zm-3.416 0V18.46h.848v1.402zm5.124-1.967v-1.401h.859v1.401zm-3.416 0v-1.401h.854v1.401zm1.708-1.96v-1.402h.854v1.402zm-3.416 0v-1.402h.848v1.402z" fill="#CC98CC"/><path d="M111.893 7.336v-.924h6.837v.924zm7 0v-.924h6.837v.924zm7 0v-.924h6.837v.924zm7 0v-.924h6.837v.924zm7 0v-.924h6.837v.924zm7 0v-.924h6.837v.924zm7 0v-.924h6.837v.924zm7 0v-.924h6.837v.924zm7 0v-.924h6.837v.924zm7 0v-.924h6.837v.924zm7 0v-.924h6.837v.924zm7 0v-.924h6.837v.924zm7 0v-.924h6.837v.924zm7 0v-.924h6.837v.924zm7 0v-.924h6.837v.924zm7 0v-.924h6.837v.924zm7 0v-.924h6.837v.924zm7 0v-.924h6.837v.924zm7 0v-.924h6.837v.924zm7 0v-.924h6.837v.924zm10.131-6.231h2.277v.769h-1.289v8.271h1.29v.768h-2.278zm9.739 8.61q-.413.22-.848.33-.436.11-.924.11-1.542 0-2.393-1.09-.851-1.09-.851-3.066 0-1.966.856-3.065.857-1.098 2.388-1.098.488 0 .924.11.435.11.848.33v1.112q-.397-.327-.854-.5-.456-.171-.918-.171-1.058 0-1.585.816-.526.817-.526 2.466 0 1.643.526 2.46.527.816 1.585.816.472 0 .926-.172.454-.172.846-.5zm5.104-8.61v9.808h-2.277v-.768h1.289V1.874h-1.29v-.769zm48.012 12.215V6.411h3.851v.924h-2.992v5.983zm4.014-5.984v-.924h6.837v.924zm7 0v-.924h6.837v.924zm7 0v-.924h6.837v.924zm7 0v-.924h6.837v.924zm7 0v-.924h6.837v.924zm7 0v-.924h6.837v.924zm7 0v-.924h6.837v.924zm7 0v-.924h6.837v.924zm7 0v-.924h6.837v.924zm7 0v-.924h6.837v.924zm7 0v-.924h6.837v.924zm7 0v-.924h6.837v.924zm7 0v-.924h6.837v.924zm7 0v-.924h6.837v.924zm7 0v-.924h6.837v.924zm10.131-6.231h2.277v.769h-1.289v8.271h1.29v.768h-2.278zm7.285 3.572q-.752 0-1.14.586-.386.585-.386 1.735 0 1.144.387 1.732.387.588 1.139.588.757 0 1.144-.588.386-.588.386-1.732 0-1.15-.386-1.735-.387-.586-1.144-.586zm0-.838q1.251 0 1.914.811.664.811.664 2.348 0 1.541-.66 2.35-.662.808-1.918.808-1.252 0-1.913-.809-.66-.808-.66-2.35 0-1.536.66-2.347.661-.81 1.913-.81zm4.911.135h4.366v.902l-3.454 4.318h3.454V10h-4.496v-.913l3.454-4.324h-3.325zm9.765-2.38v11h-.923v-11zm4.17.387h1.09v7.106h3.873V10h-4.963zm9.712-.876v9.808h-2.277v-.768h1.289V1.874h-1.29v-.769zm6.012 12.215V7.335h-2.986v-.924h3.845v6.907zm35 0V6.411h3.851v.924h-2.992v5.983zm4.014-5.984v-.924h6.837v.924zm7 0v-.924h6.837v.924zm7 0v-.924h6.837v.924zm7 0v-.924h6.837v.924zm7 0v-.924h6.837v.924zm7 0v-.924h6.837v.924zm7 0v-.924h6.837v.924zm7 0v-.924h6.837v.924zm7 0v-.924h6.837v.924zm7 0v-.924h6.837v.924zm7 0v-.924h6.837v.924zm7 0v-.924h6.837v.924zm7 0v-.924h6.837v.924zm7 0v-.924h6.837v.924zm7 0v-.924h6.837v.924zm10.131-6.231h2.277v.769h-1.289v8.271h1.29v.768h-2.278zm7.285 3.572q-.752 0-1.14.586-.386.585-.386 1.735 0 1.144.387 1.732.387.588 1.139.588.757 0 1.144-.588.386-.588.386-1.732 0-1.15-.386-1.735-.387-.586-1.144-.586zm0-.838q1.251 0 1.914.811.664.811.664 2.348 0 1.541-.66 2.35-.662.808-1.918.808-1.252 0-1.913-.809-.66-.808-.66-2.35 0-1.536.66-2.347.661-.81 1.913-.81zm4.911.135h4.366v.902l-3.454 4.318h3.454V10h-4.496v-.913l3.454-4.324h-3.325zm9.765-2.38v11h-.923v-11zm4.17.387h1.09v7.106h3.873V10h-4.963zm9.712-.876v9.808h-2.277v-.768h1.289V1.874h-1.29v-.769zm6.012 12.215V7.335h-2.986v-.924h3.845v6.907z"/></svg>