<svg xmlns="http://www.w3.org/2000/svg" width="183" height="560"><path d="M2.879 208.32v-6.908H6.73v.924H3.738v5.983z"/><path d="M2.879 221.32V207.3h.86v14.02z"/><path d="M2.879 234.32V220.3h.86v14.02z"/><path d="M2.879 247.32V233.3h.86v14.02z"/><path d="M2.879 260.32V246.3h.86v14.02z"/><path d="M2.879 273.32V259.3h.86v14.02z"/><path d="M2.879 286.32V272.3h.86v14.02z"/><path d="M2.879 299.32V285.3h.86v14.02z"/><path d="M2.879 312.32V298.3h.86v14.02z"/><path d="M2.879 325.32V311.3h.86v14.02z"/><path d="M2.879 338.32V324.3h.86v14.02z"/><path d="M2.879 351.32V337.3h.86v14.02z"/><path d="M2.879 364.32V350.3h.86v14.02z"/><path d="M2.879 377.32V363.3h.86v14.02z"/><path d="M2.879 390.32V376.3h.86v14.02z"/><path d="M2.879 403.32V389.3h.86v14.02z"/><path d="M2.879 416.32V402.3h.86v14.02z"/><path d="M2.879 429.32V415.3h.86v14.02z"/><path d="M2.879 442.32V428.3h.86v14.02z"/><path d="M2.879 455.32V441.3h.86v14.02z"/><path d="M2.879 468.32V454.3h.86v14.02z"/><path d="M2.879 481.32V467.3h.86v14.02z"/><path d="M2.879 494.32V480.3h.86v14.02z"/><path d="M2.879 507.32V493.3h.86v14.02z"/><path d="M2.879 520.32V506.3h.86v14.02z"/><path d="M2.879 527.336V519.3h.86v7.111H6.73v.924zM44.879 546.32V532.3h.86v14.02z"/><path d="M44.879 553.336V545.3h.86v7.111h2.991v.924zM48.893 553.336v-.924h6.837v.924zM55.893 553.336v-.924h6.837v.924zM62.893 553.336v-.924h6.837v.924zM69.893 553.336v-.924h2.986v-7.111h.86v8.035z"/><path d="M55.333 538.322l-2.385 1.289 2.385 1.294-.376.656-2.246-1.349v2.503h-.768v-2.503l-2.245 1.349-.376-.656 2.39-1.294-2.39-1.29.376-.66 2.245 1.348v-2.503h.768v2.503l2.246-1.348zM62.333 538.322l-2.385 1.289 2.385 1.294-.376.656-2.246-1.349v2.503h-.768v-2.503l-2.245 1.349-.376-.656 2.39-1.294-2.39-1.29.376-.66 2.245 1.348v-2.503h.768v2.503l2.246-1.348zM69.333 538.322l-2.385 1.289 2.385 1.294-.376.656-2.246-1.349v2.503h-.768v-2.503l-2.245 1.349-.376-.656 2.39-1.294-2.39-1.29.376-.66 2.245 1.348v-2.503h.768v2.503l2.246-1.348z" fill="#F99"/><path d="M72.879 546.32V532.3h.86v14.02zM6.893 527.336v-.924h6.837v.924zM13.893 527.336v-.924h6.837v.924zM20.893 527.336v-.924h6.837v.924zM27.893 527.336v-.924h6.837v.924zM35.032 530.419v-6.553l6.558 3.277zM44.879 533.32V519.3h.86v14.02z"/><path d="M55.333 525.322l-2.385 1.289 2.385 1.294-.376.656-2.246-1.349v2.503h-.768v-2.503l-2.245 1.349-.376-.656 2.39-1.294-2.39-1.29.376-.66 2.245 1.348v-2.503h.768v2.503l2.246-1.348zM62.333 525.322l-2.385 1.289 2.385 1.294-.376.656-2.246-1.349v2.503h-.768v-2.503l-2.245 1.349-.376-.656 2.39-1.294-2.39-1.29.376-.66 2.245 1.348v-2.503h.768v2.503l2.246-1.348zM69.333 525.322l-2.385 1.289 2.385 1.294-.376.656-2.246-1.349v2.503h-.768v-2.503l-2.245 1.349-.376-.656 2.39-1.294-2.39-1.29.376-.66 2.245 1.348v-2.503h.768v2.503l2.246-1.348z" fill="#F99"/><path d="M72.879 533.32V519.3h.86v14.02zM77.032 527.143l6.558-3.277v6.553zM83.893 527.336v-.924h6.837v.924zM90.893 527.336v-.924h6.837v.924zM97.893 527.336v-.924h6.837v.924zM104.893 527.336v-.924h6.837v.924zM111.893 527.336v-.924h6.837v.924zM118.893 527.336v-.924h2.986v-7.111h.86v8.035zM44.879 221.32V207.3h.86v14.02z"/><path d="M44.879 228.336V220.3h.86v7.111h2.991v.924zM44.879 507.32v-6.908h3.851v.924h-2.992v5.983z"/><path d="M44.879 520.32V506.3h.86v14.02z"/><path d="M55.333 512.322l-2.385 1.289 2.385 1.294-.376.656-2.246-1.349v2.503h-.768v-2.503l-2.245 1.349-.376-.656 2.39-1.294-2.39-1.29.376-.66 2.245 1.348v-2.503h.768v2.503l2.246-1.348zM62.333 512.322l-2.385 1.289 2.385 1.294-.376.656-2.246-1.349v2.503h-.768v-2.503l-2.245 1.349-.376-.656 2.39-1.294-2.39-1.29.376-.66 2.245 1.348v-2.503h.768v2.503l2.246-1.348zM69.333 512.322l-2.385 1.289 2.385 1.294-.376.656-2.246-1.349v2.503h-.768v-2.503l-2.245 1.349-.376-.656 2.39-1.294-2.39-1.29.376-.66 2.245 1.348v-2.503h.768v2.503l2.246-1.348z" fill="#F99"/><path d="M72.879 520.32V506.3h.86v14.02zM121.879 520.32V506.3h.86v14.02zM48.893 501.336v-.924h6.837v.924zM55.893 501.336v-.924h6.837v.924zM62.893 501.336v-.924h6.837v.924z"/><path d="M72.879 507.32v-5.984h-2.986v-.924h3.845v6.907zM121.879 507.32V493.3h.86v14.02zM54.017 246.75v-1.402h.859v1.402zm-3.416 0v-1.402h.854v1.402zm1.708-1.96v-1.402h.854v1.402zm-3.416 0v-1.402h.848v1.402zm5.124-1.966v-1.402h.859v1.402zm-3.416 0v-1.402h.854v1.402zm1.708-1.96v-1.403h.854v1.402zm-3.416 0v-1.403h.848v1.402zm5.124-1.967v-1.401h.859v1.401zm-3.416 0v-1.401h.854v1.401zm1.708-1.96v-1.402h.854v1.402zm-3.416 0v-1.402h.848v1.402zM61.017 246.75v-1.402h.859v1.402zm-3.416 0v-1.402h.854v1.402zm1.708-1.96v-1.402h.854v1.402zm-3.416 0v-1.402h.848v1.402zm5.124-1.966v-1.402h.859v1.402zm-3.416 0v-1.402h.854v1.402zm1.708-1.96v-1.403h.854v1.402zm-3.416 0v-1.403h.848v1.402zm5.124-1.967v-1.401h.859v1.401zm-3.416 0v-1.401h.854v1.401zm1.708-1.96v-1.402h.854v1.402zm-3.416 0v-1.402h.848v1.402zM68.017 246.75v-1.402h.859v1.402zm-3.416 0v-1.402h.854v1.402zm1.708-1.96v-1.402h.854v1.402zm-3.416 0v-1.402h.848v1.402zm5.124-1.966v-1.402h.859v1.402zm-3.416 0v-1.402h.854v1.402zm1.708-1.96v-1.403h.854v1.402zm-3.416 0v-1.403h.848v1.402zm5.124-1.967v-1.401h.859v1.401zm-3.416 0v-1.401h.854v1.401zm1.708-1.96v-1.402h.854v1.402zm-3.416 0v-1.402h.848v1.402zM75.017 246.75v-1.402h.859v1.402zm-3.416 0v-1.402h.854v1.402zm1.708-1.96v-1.402h.854v1.402zm-3.416 0v-1.402h.848v1.402zm5.124-1.966v-1.402h.859v1.402zm-3.416 0v-1.402h.854v1.402zm1.708-1.96v-1.403h.854v1.402zm-3.416 0v-1.403h.848v1.402zm5.124-1.967v-1.401h.859v1.401zm-3.416 0v-1.401h.854v1.401zm1.708-1.96v-1.402h.854v1.402zm-3.416 0v-1.402h.848v1.402zM82.017 246.75v-1.402h.859v1.402zm-3.416 0v-1.402h.854v1.402zm1.708-1.96v-1.402h.854v1.402zm-3.416 0v-1.402h.848v1.402zm5.124-1.966v-1.402h.859v1.402zm-3.416 0v-1.402h.854v1.402zm1.708-1.96v-1.403h.854v1.402zm-3.416 0v-1.403h.848v1.402zm5.124-1.967v-1.401h.859v1.401zm-3.416 0v-1.401h.854v1.401zm1.708-1.96v-1.402h.854v1.402zm-3.416 0v-1.402h.848v1.402zM72.879 299.32v-6.908h3.851v.924h-2.992v5.983z"/><path d="M72.879 312.32V298.3h.86v14.02z"/><path d="M72.879 325.32V311.3h.86v14.02z"/><path d="M72.879 338.32V324.3h.86v14.02z"/><path d="M72.879 345.336V337.3h.86v7.111h2.991v.924zM72.879 403.32v-6.908h3.851v.924h-2.992v5.983z"/><path d="M72.879 416.32V402.3h.86v14.02z"/><path d="M72.879 429.32V415.3h.86v14.02z"/><path d="M72.879 442.32V428.3h.86v14.02z"/><path d="M72.879 449.336V441.3h.86v7.111h2.991v.924zM82.017 467.75v-1.402h.859v1.402zm-3.416 0v-1.402h.854v1.402zm1.708-1.96v-1.402h.854v1.402zm-3.416 0v-1.402h.848v1.402zm5.124-1.966v-1.402h.859v1.402zm-3.416 0v-1.402h.854v1.402zm1.708-1.96v-1.403h.854v1.402zm-3.416 0v-1.403h.848v1.402zm5.124-1.967v-1.401h.859v1.401zm-3.416 0v-1.401h.854v1.401zm1.708-1.96v-1.402h.854v1.402zm-3.416 0v-1.402h.848v1.402zM89.017 467.75v-1.402h.859v1.402zm-3.416 0v-1.402h.854v1.402zm1.708-1.96v-1.402h.854v1.402zm-3.416 0v-1.402h.848v1.402zm5.124-1.966v-1.402h.859v1.402zm-3.416 0v-1.402h.854v1.402zm1.708-1.96v-1.403h.854v1.402zm-3.416 0v-1.403h.848v1.402zm5.124-1.967v-1.401h.859v1.401zm-3.416 0v-1.401h.854v1.401zm1.708-1.96v-1.402h.854v1.402zm-3.416 0v-1.402h.848v1.402zM96.017 467.75v-1.402h.859v1.402zm-3.416 0v-1.402h.854v1.402zm1.708-1.96v-1.402h.854v1.402zm-3.416 0v-1.402h.848v1.402zm5.124-1.966v-1.402h.859v1.402zm-3.416 0v-1.402h.854v1.402zm1.708-1.96v-1.403h.854v1.402zm-3.416 0v-1.403h.848v1.402zm5.124-1.967v-1.401h.859v1.401zm-3.416 0v-1.401h.854v1.401zm1.708-1.96v-1.402h.854v1.402zm-3.416 0v-1.402h.848v1.402zM103.017 467.75v-1.402h.859v1.402zm-3.416 0v-1.402h.854v1.402zm1.708-1.96v-1.402h.854v1.402zm-3.416 0v-1.402h.848v1.402zm5.124-1.966v-1.402h.859v1.402zm-3.416 0v-1.402h.854v1.402zm1.708-1.96v-1.403h.854v1.402zm-3.416 0v-1.403h.848v1.402zm5.124-1.967v-1.401h.859v1.401zm-3.416 0v-1.401h.854v1.401zm1.708-1.96v-1.402h.854v1.402zm-3.416 0v-1.402h.848v1.402zM110.017 467.75v-1.402h.859v1.402zm-3.416 0v-1.402h.854v1.402zm1.708-1.96v-1.402h.854v1.402zm-3.416 0v-1.402h.848v1.402zm5.124-1.966v-1.402h.859v1.402zm-3.416 0v-1.402h.854v1.402zm1.708-1.96v-1.403h.854v1.402zm-3.416 0v-1.403h.848v1.402zm5.124-1.967v-1.401h.859v1.401zm-3.416 0v-1.401h.854v1.401zm1.708-1.96v-1.402h.854v1.402zm-3.416 0v-1.402h.848v1.402zM117.017 467.75v-1.402h.859v1.402zm-3.416 0v-1.402h.854v1.402zm1.708-1.96v-1.402h.854v1.402zm-3.416 0v-1.402h.848v1.402zm5.124-1.966v-1.402h.859v1.402zm-3.416 0v-1.402h.854v1.402zm1.708-1.96v-1.403h.854v1.402zm-3.416 0v-1.403h.848v1.402zm5.124-1.967v-1.401h.859v1.401zm-3.416 0v-1.401h.854v1.401zm1.708-1.96v-1.402h.854v1.402zm-3.416 0v-1.402h.848v1.402zM121.879 481.32V467.3h.86v14.02z"/><path d="M121.879 494.32V480.3h.86v14.02zM121.879 468.32V454.3h.86v14.02zM131.017 467.75v-1.402h.859v1.402zm-3.416 0v-1.402h.854v1.402zm1.708-1.96v-1.402h.854v1.402zm-3.416 0v-1.402h.848v1.402zm5.124-1.966v-1.402h.859v1.402zm-3.416 0v-1.402h.854v1.402zm1.708-1.96v-1.403h.854v1.402zm-3.416 0v-1.403h.848v1.402zm5.124-1.967v-1.401h.859v1.401zm-3.416 0v-1.401h.854v1.401zm1.708-1.96v-1.402h.854v1.402zm-3.416 0v-1.402h.848v1.402zM138.017 467.75v-1.402h.859v1.402zm-3.416 0v-1.402h.854v1.402zm1.708-1.96v-1.402h.854v1.402zm-3.416 0v-1.402h.848v1.402zm5.124-1.966v-1.402h.859v1.402zm-3.416 0v-1.402h.854v1.402zm1.708-1.96v-1.403h.854v1.402zm-3.416 0v-1.403h.848v1.402zm5.124-1.967v-1.401h.859v1.401zm-3.416 0v-1.401h.854v1.401zm1.708-1.96v-1.402h.854v1.402zm-3.416 0v-1.402h.848v1.402zM145.017 467.75v-1.402h.859v1.402zm-3.416 0v-1.402h.854v1.402zm1.708-1.96v-1.402h.854v1.402zm-3.416 0v-1.402h.848v1.402zm5.124-1.966v-1.402h.859v1.402zm-3.416 0v-1.402h.854v1.402zm1.708-1.96v-1.403h.854v1.402zm-3.416 0v-1.403h.848v1.402zm5.124-1.967v-1.401h.859v1.401zm-3.416 0v-1.401h.854v1.401zm1.708-1.96v-1.402h.854v1.402zm-3.416 0v-1.402h.848v1.402zM152.017 467.75v-1.402h.859v1.402zm-3.416 0v-1.402h.854v1.402zm1.708-1.96v-1.402h.854v1.402zm-3.416 0v-1.402h.848v1.402zm5.124-1.966v-1.402h.859v1.402zm-3.416 0v-1.402h.854v1.402zm1.708-1.96v-1.403h.854v1.402zm-3.416 0v-1.403h.848v1.402zm5.124-1.967v-1.401h.859v1.401zm-3.416 0v-1.401h.854v1.401zm1.708-1.96v-1.402h.854v1.402zm-3.416 0v-1.402h.848v1.402zM159.017 467.75v-1.402h.859v1.402zm-3.416 0v-1.402h.854v1.402zm1.708-1.96v-1.402h.854v1.402zm-3.416 0v-1.402h.848v1.402zm5.124-1.966v-1.402h.859v1.402zm-3.416 0v-1.402h.854v1.402zm1.708-1.96v-1.403h.854v1.402zm-3.416 0v-1.403h.848v1.402zm5.124-1.967v-1.401h.859v1.401zm-3.416 0v-1.401h.854v1.401zm1.708-1.96v-1.402h.854v1.402zm-3.416 0v-1.402h.848v1.402zM166.017 467.75v-1.402h.859v1.402zm-3.416 0v-1.402h.854v1.402zm1.708-1.96v-1.402h.854v1.402zm-3.416 0v-1.402h.848v1.402zm5.124-1.966v-1.402h.859v1.402zm-3.416 0v-1.402h.854v1.402zm1.708-1.96v-1.403h.854v1.402zm-3.416 0v-1.403h.848v1.402zm5.124-1.967v-1.401h.859v1.401zm-3.416 0v-1.401h.854v1.401zm1.708-1.96v-1.402h.854v1.402zm-3.416 0v-1.402h.848v1.402zM173.017 467.75v-1.402h.859v1.402zm-3.416 0v-1.402h.854v1.402zm1.708-1.96v-1.402h.854v1.402zm-3.416 0v-1.402h.848v1.402zm5.124-1.966v-1.402h.859v1.402zm-3.416 0v-1.402h.854v1.402zm1.708-1.96v-1.403h.854v1.402zm-3.416 0v-1.403h.848v1.402zm5.124-1.967v-1.401h.859v1.401zm-3.416 0v-1.401h.854v1.401zm1.708-1.96v-1.402h.854v1.402zm-3.416 0v-1.402h.848v1.402zM76.893 449.336v-.924h6.837v.924zM83.893 449.336v-.924h6.837v.924zM90.893 449.336v-.924h6.837v.924zM97.893 449.336v-.924h6.837v.924zM104.893 449.336v-.924h6.837v.924zM111.893 449.336v-.924h6.837v.924z"/><path d="M121.879 455.32v-5.984h-2.986v-.924h6.837v.924h-2.992v5.983zM125.893 449.336v-.924h6.837v.924zM132.893 449.336v-.924h6.837v.924zM139.893 449.336v-.924h6.837v.924zM146.893 449.336v-.924h6.837v.924zM153.893 449.336v-.924h6.837v.924zM160.893 449.336v-.924h2.986v-7.111h.86v8.035zM173.017 454.75v-1.402h.859v1.402zm-3.416 0v-1.402h.854v1.402zm1.708-1.96v-1.402h.854v1.402zm-3.416 0v-1.402h.848v1.402zm5.124-1.966v-1.402h.859v1.402zm-3.416 0v-1.402h.854v1.402zm1.708-1.96v-1.403h.854v1.402zm-3.416 0v-1.403h.848v1.402zm5.124-1.967v-1.401h.859v1.401zm-3.416 0v-1.401h.854v1.401zm1.708-1.96v-1.402h.854v1.402zm-3.416 0v-1.402h.848v1.402zM105.252 417.981h6.118v.913h-2.508V426h-1.09v-7.106h-2.52z"/><path d="M163.879 442.32V428.3h.86v14.02zM173.017 441.75v-1.402h.859v1.402zm-3.416 0v-1.402h.854v1.402zm1.708-1.96v-1.402h.854v1.402zm-3.416 0v-1.402h.848v1.402zm5.124-1.966v-1.402h.859v1.402zm-3.416 0v-1.402h.854v1.402zm1.708-1.96v-1.403h.854v1.402zm-3.416 0v-1.403h.848v1.402zm5.124-1.967v-1.401h.859v1.401zm-3.416 0v-1.401h.854v1.401zm1.708-1.96v-1.402h.854v1.402zm-3.416 0v-1.402h.848v1.402zM118.016 422.498v.483h-4.281v.033q-.043 1.23.47 1.767.513.537 1.447.537.473 0 .989-.15.515-.15 1.1-.457v.983q-.563.23-1.087.346-.524.116-1.012.116-1.402 0-2.192-.84-.79-.841-.79-2.318 0-1.44.774-2.3.774-.859 2.063-.859 1.149 0 1.812.78.664.778.707 1.879zm-.989-.29q-.064-.623-.454-1.077-.389-.454-1.12-.454-.714 0-1.176.473-.462.473-.505 1.063zM125.005 419.984l-2.154 2.88 2.363 3.136h-1.144l-1.761-2.412-1.757 2.412h-1.144l2.363-3.137-2.153-2.879h1.095l1.596 2.176 1.584-2.176zM129.298 418.276v1.708h2.245v.768h-2.245v3.266q0 .666.252.93.253.262.881.262h1.112v.79h-1.209q-1.111 0-1.568-.446-.456-.446-.456-1.536v-3.266h-1.606v-.768h1.606v-1.708z"/><path d="M163.879 429.32V415.3h.86v14.02zM173.017 428.75v-1.402h.859v1.402zm-3.416 0v-1.402h.854v1.402zm1.708-1.96v-1.402h.854v1.402zm-3.416 0v-1.402h.848v1.402zm5.124-1.966v-1.402h.859v1.402zm-3.416 0v-1.402h.854v1.402zm1.708-1.96v-1.403h.854v1.402zm-3.416 0v-1.403h.848v1.402zm5.124-1.967v-1.401h.859v1.401zm-3.416 0v-1.401h.854v1.401zm1.708-1.96v-1.402h.854v1.402zm-3.416 0v-1.402h.848v1.402z"/><path d="M163.879 416.32V402.3h.86v14.02zM173.017 415.75v-1.402h.859v1.402zm-3.416 0v-1.402h.854v1.402zm1.708-1.96v-1.402h.854v1.402zm-3.416 0v-1.402h.848v1.402zm5.124-1.966v-1.402h.859v1.402zm-3.416 0v-1.402h.854v1.402zm1.708-1.96v-1.403h.854v1.402zm-3.416 0v-1.403h.848v1.402zm5.124-1.967v-1.401h.859v1.401zm-3.416 0v-1.401h.854v1.401zm1.708-1.96v-1.402h.854v1.402zm-3.416 0v-1.402h.848v1.402zM76.893 397.336v-.924h6.837v.924zM83.893 397.336v-.924h6.837v.924zM90.893 397.336v-.924h6.837v.924zM97.893 397.336v-.924h6.837v.924zM104.893 397.336v-.924h6.837v.924zM111.893 397.336v-.924h6.837v.924zM118.893 397.336v-.924h6.837v.924zM125.893 397.336v-.924h6.837v.924zM132.893 397.336v-.924h6.837v.924zM139.893 397.336v-.924h6.837v.924zM146.893 397.336v-.924h6.837v.924zM153.893 397.336v-.924h6.837v.924z"/><path d="M163.879 403.32v-5.984h-2.986v-.924h3.845v6.907zM82.017 363.75v-1.402h.859v1.402zm-3.416 0v-1.402h.854v1.402zm1.708-1.96v-1.402h.854v1.402zm-3.416 0v-1.402h.848v1.402zm5.124-1.966v-1.402h.859v1.402zm-3.416 0v-1.402h.854v1.402zm1.708-1.96v-1.403h.854v1.402zm-3.416 0v-1.403h.848v1.402zm5.124-1.967v-1.401h.859v1.401zm-3.416 0v-1.401h.854v1.401zm1.708-1.96v-1.402h.854v1.402zm-3.416 0v-1.402h.848v1.402zM89.017 363.75v-1.402h.859v1.402zm-3.416 0v-1.402h.854v1.402zm1.708-1.96v-1.402h.854v1.402zm-3.416 0v-1.402h.848v1.402zm5.124-1.966v-1.402h.859v1.402zm-3.416 0v-1.402h.854v1.402zm1.708-1.96v-1.403h.854v1.402zm-3.416 0v-1.403h.848v1.402zm5.124-1.967v-1.401h.859v1.401zm-3.416 0v-1.401h.854v1.401zm1.708-1.96v-1.402h.854v1.402zm-3.416 0v-1.402h.848v1.402zM96.017 363.75v-1.402h.859v1.402zm-3.416 0v-1.402h.854v1.402zm1.708-1.96v-1.402h.854v1.402zm-3.416 0v-1.402h.848v1.402zm5.124-1.966v-1.402h.859v1.402zm-3.416 0v-1.402h.854v1.402zm1.708-1.96v-1.403h.854v1.402zm-3.416 0v-1.403h.848v1.402zm5.124-1.967v-1.401h.859v1.401zm-3.416 0v-1.401h.854v1.401zm1.708-1.96v-1.402h.854v1.402zm-3.416 0v-1.402h.848v1.402zM103.017 363.75v-1.402h.859v1.402zm-3.416 0v-1.402h.854v1.402zm1.708-1.96v-1.402h.854v1.402zm-3.416 0v-1.402h.848v1.402zm5.124-1.966v-1.402h.859v1.402zm-3.416 0v-1.402h.854v1.402zm1.708-1.96v-1.403h.854v1.402zm-3.416 0v-1.403h.848v1.402zm5.124-1.967v-1.401h.859v1.401zm-3.416 0v-1.401h.854v1.401zm1.708-1.96v-1.402h.854v1.402zm-3.416 0v-1.402h.848v1.402zM110.017 363.75v-1.402h.859v1.402zm-3.416 0v-1.402h.854v1.402zm1.708-1.96v-1.402h.854v1.402zm-3.416 0v-1.402h.848v1.402zm5.124-1.966v-1.402h.859v1.402zm-3.416 0v-1.402h.854v1.402zm1.708-1.96v-1.403h.854v1.402zm-3.416 0v-1.403h.848v1.402zm5.124-1.967v-1.401h.859v1.401zm-3.416 0v-1.401h.854v1.401zm1.708-1.96v-1.402h.854v1.402zm-3.416 0v-1.402h.848v1.402zM117.017 363.75v-1.402h.859v1.402zm-3.416 0v-1.402h.854v1.402zm1.708-1.96v-1.402h.854v1.402zm-3.416 0v-1.402h.848v1.402zm5.124-1.966v-1.402h.859v1.402zm-3.416 0v-1.402h.854v1.402zm1.708-1.96v-1.403h.854v1.402zm-3.416 0v-1.403h.848v1.402zm5.124-1.967v-1.401h.859v1.401zm-3.416 0v-1.401h.854v1.401zm1.708-1.96v-1.402h.854v1.402zm-3.416 0v-1.402h.848v1.402zM121.879 377.32V363.3h.86v14.02zM122.309 387.419l-3.277-6.553h6.558z"/><path d="M121.879 364.32V350.3h.86v14.02zM131.017 363.75v-1.402h.859v1.402zm-3.416 0v-1.402h.854v1.402zm1.708-1.96v-1.402h.854v1.402zm-3.416 0v-1.402h.848v1.402zm5.124-1.966v-1.402h.859v1.402zm-3.416 0v-1.402h.854v1.402zm1.708-1.96v-1.403h.854v1.402zm-3.416 0v-1.403h.848v1.402zm5.124-1.967v-1.401h.859v1.401zm-3.416 0v-1.401h.854v1.401zm1.708-1.96v-1.402h.854v1.402zm-3.416 0v-1.402h.848v1.402zM138.017 363.75v-1.402h.859v1.402zm-3.416 0v-1.402h.854v1.402zm1.708-1.96v-1.402h.854v1.402zm-3.416 0v-1.402h.848v1.402zm5.124-1.966v-1.402h.859v1.402zm-3.416 0v-1.402h.854v1.402zm1.708-1.96v-1.403h.854v1.402zm-3.416 0v-1.403h.848v1.402zm5.124-1.967v-1.401h.859v1.401zm-3.416 0v-1.401h.854v1.401zm1.708-1.96v-1.402h.854v1.402zm-3.416 0v-1.402h.848v1.402zM145.017 363.75v-1.402h.859v1.402zm-3.416 0v-1.402h.854v1.402zm1.708-1.96v-1.402h.854v1.402zm-3.416 0v-1.402h.848v1.402zm5.124-1.966v-1.402h.859v1.402zm-3.416 0v-1.402h.854v1.402zm1.708-1.96v-1.403h.854v1.402zm-3.416 0v-1.403h.848v1.402zm5.124-1.967v-1.401h.859v1.401zm-3.416 0v-1.401h.854v1.401zm1.708-1.96v-1.402h.854v1.402zm-3.416 0v-1.402h.848v1.402zM152.017 363.75v-1.402h.859v1.402zm-3.416 0v-1.402h.854v1.402zm1.708-1.96v-1.402h.854v1.402zm-3.416 0v-1.402h.848v1.402zm5.124-1.966v-1.402h.859v1.402zm-3.416 0v-1.402h.854v1.402zm1.708-1.96v-1.403h.854v1.402zm-3.416 0v-1.403h.848v1.402zm5.124-1.967v-1.401h.859v1.401zm-3.416 0v-1.401h.854v1.401zm1.708-1.96v-1.402h.854v1.402zm-3.416 0v-1.402h.848v1.402zM159.017 363.75v-1.402h.859v1.402zm-3.416 0v-1.402h.854v1.402zm1.708-1.96v-1.402h.854v1.402zm-3.416 0v-1.402h.848v1.402zm5.124-1.966v-1.402h.859v1.402zm-3.416 0v-1.402h.854v1.402zm1.708-1.96v-1.403h.854v1.402zm-3.416 0v-1.403h.848v1.402zm5.124-1.967v-1.401h.859v1.401zm-3.416 0v-1.401h.854v1.401zm1.708-1.96v-1.402h.854v1.402zm-3.416 0v-1.402h.848v1.402zM166.017 363.75v-1.402h.859v1.402zm-3.416 0v-1.402h.854v1.402zm1.708-1.96v-1.402h.854v1.402zm-3.416 0v-1.402h.848v1.402zm5.124-1.966v-1.402h.859v1.402zm-3.416 0v-1.402h.854v1.402zm1.708-1.96v-1.403h.854v1.402zm-3.416 0v-1.403h.848v1.402zm5.124-1.967v-1.401h.859v1.401zm-3.416 0v-1.401h.854v1.401zm1.708-1.96v-1.402h.854v1.402zm-3.416 0v-1.402h.848v1.402zM173.017 363.75v-1.402h.859v1.402zm-3.416 0v-1.402h.854v1.402zm1.708-1.96v-1.402h.854v1.402zm-3.416 0v-1.402h.848v1.402zm5.124-1.966v-1.402h.859v1.402zm-3.416 0v-1.402h.854v1.402zm1.708-1.96v-1.403h.854v1.402zm-3.416 0v-1.403h.848v1.402zm5.124-1.967v-1.401h.859v1.401zm-3.416 0v-1.401h.854v1.401zm1.708-1.96v-1.402h.854v1.402zm-3.416 0v-1.402h.848v1.402zM76.893 345.336v-.924h6.837v.924zM83.893 345.336v-.924h6.837v.924zM90.893 345.336v-.924h6.837v.924zM97.893 345.336v-.924h6.837v.924zM104.893 345.336v-.924h6.837v.924zM111.893 345.336v-.924h6.837v.924z"/><path d="M121.879 351.32v-5.984h-2.986v-.924h6.837v.924h-2.992v5.983zM125.893 345.336v-.924h6.837v.924zM132.893 345.336v-.924h6.837v.924zM139.893 345.336v-.924h6.837v.924zM146.893 345.336v-.924h6.837v.924zM153.893 345.336v-.924h6.837v.924zM160.893 345.336v-.924h2.986v-7.111h.86v8.035zM173.017 350.75v-1.402h.859v1.402zm-3.416 0v-1.402h.854v1.402zm1.708-1.96v-1.402h.854v1.402zm-3.416 0v-1.402h.848v1.402zm5.124-1.966v-1.402h.859v1.402zm-3.416 0v-1.402h.854v1.402zm1.708-1.96v-1.403h.854v1.402zm-3.416 0v-1.403h.848v1.402zm5.124-1.967v-1.401h.859v1.401zm-3.416 0v-1.401h.854v1.401zm1.708-1.96v-1.402h.854v1.402zm-3.416 0v-1.402h.848v1.402zM105.252 313.981h6.118v.913h-2.508V322h-1.09v-7.106h-2.52z"/><path d="M163.879 338.32V324.3h.86v14.02zM173.017 337.75v-1.402h.859v1.402zm-3.416 0v-1.402h.854v1.402zm1.708-1.96v-1.402h.854v1.402zm-3.416 0v-1.402h.848v1.402zm5.124-1.966v-1.402h.859v1.402zm-3.416 0v-1.402h.854v1.402zm1.708-1.96v-1.403h.854v1.402zm-3.416 0v-1.403h.848v1.402zm5.124-1.967v-1.401h.859v1.401zm-3.416 0v-1.401h.854v1.401zm1.708-1.96v-1.402h.854v1.402zm-3.416 0v-1.402h.848v1.402zM118.016 318.498v.483h-4.281v.033q-.043 1.23.47 1.767.513.537 1.447.537.473 0 .989-.15.515-.15 1.1-.457v.983q-.563.23-1.087.346-.524.116-1.012.116-1.402 0-2.192-.84-.79-.841-.79-2.318 0-1.44.774-2.3.774-.859 2.063-.859 1.149 0 1.812.78.664.778.707 1.879zm-.989-.29q-.064-.623-.454-1.077-.389-.454-1.12-.454-.714 0-1.176.473-.462.473-.505 1.063zM125.005 315.984l-2.154 2.88 2.363 3.136h-1.144l-1.761-2.412-1.757 2.412h-1.144l2.363-3.137-2.153-2.879h1.095l1.596 2.176 1.584-2.176zM129.298 314.276v1.708h2.245v.768h-2.245v3.266q0 .666.252.93.253.262.881.262h1.112v.79h-1.209q-1.111 0-1.568-.446-.456-.446-.456-1.536v-3.266h-1.606v-.768h1.606v-1.708z"/><path d="M163.879 325.32V311.3h.86v14.02zM173.017 324.75v-1.402h.859v1.402zm-3.416 0v-1.402h.854v1.402zm1.708-1.96v-1.402h.854v1.402zm-3.416 0v-1.402h.848v1.402zm5.124-1.966v-1.402h.859v1.402zm-3.416 0v-1.402h.854v1.402zm1.708-1.96v-1.403h.854v1.402zm-3.416 0v-1.403h.848v1.402zm5.124-1.967v-1.401h.859v1.401zm-3.416 0v-1.401h.854v1.401zm1.708-1.96v-1.402h.854v1.402zm-3.416 0v-1.402h.848v1.402z"/><path d="M163.879 312.32V298.3h.86v14.02zM173.017 311.75v-1.402h.859v1.402zm-3.416 0v-1.402h.854v1.402zm1.708-1.96v-1.402h.854v1.402zm-3.416 0v-1.402h.848v1.402zm5.124-1.966v-1.402h.859v1.402zm-3.416 0v-1.402h.854v1.402zm1.708-1.96v-1.403h.854v1.402zm-3.416 0v-1.403h.848v1.402zm5.124-1.967v-1.401h.859v1.401zm-3.416 0v-1.401h.854v1.401zm1.708-1.96v-1.402h.854v1.402zm-3.416 0v-1.402h.848v1.402zM76.893 293.336v-.924h6.837v.924zM83.893 293.336v-.924h6.837v.924zM90.893 293.336v-.924h6.837v.924zM97.893 293.336v-.924h6.837v.924zM104.893 293.336v-.924h6.837v.924zM111.893 293.336v-.924h6.837v.924zM118.893 293.336v-.924h6.837v.924zM125.893 293.336v-.924h6.837v.924zM132.893 293.336v-.924h6.837v.924zM139.893 293.336v-.924h6.837v.924zM146.893 293.336v-.924h2.986v-7.111h.86v7.111h2.991v.924zM153.893 293.336v-.924h6.837v.924z"/><path d="M163.879 299.32v-5.984h-2.986v-.924h3.845v6.907zM86.879 260.32V246.3h.86v14.02z"/><path d="M86.879 273.32V259.3h.86v14.02zM87.309 283.419l-3.277-6.553h6.558zM149.879 273.32V259.3h.86v14.02zM86.879 247.32V233.3h.86v14.02zM96.017 246.75v-1.402h.859v1.402zm-3.416 0v-1.402h.854v1.402zm1.708-1.96v-1.402h.854v1.402zm-3.416 0v-1.402h.848v1.402zm5.124-1.966v-1.402h.859v1.402zm-3.416 0v-1.402h.854v1.402zm1.708-1.96v-1.403h.854v1.402zm-3.416 0v-1.403h.848v1.402zm5.124-1.967v-1.401h.859v1.401zm-3.416 0v-1.401h.854v1.401zm1.708-1.96v-1.402h.854v1.402zm-3.416 0v-1.402h.848v1.402zM103.017 246.75v-1.402h.859v1.402zm-3.416 0v-1.402h.854v1.402zm1.708-1.96v-1.402h.854v1.402zm-3.416 0v-1.402h.848v1.402zm5.124-1.966v-1.402h.859v1.402zm-3.416 0v-1.402h.854v1.402zm1.708-1.96v-1.403h.854v1.402zm-3.416 0v-1.403h.848v1.402zm5.124-1.967v-1.401h.859v1.401zm-3.416 0v-1.401h.854v1.401zm1.708-1.96v-1.402h.854v1.402zm-3.416 0v-1.402h.848v1.402zM110.017 246.75v-1.402h.859v1.402zm-3.416 0v-1.402h.854v1.402zm1.708-1.96v-1.402h.854v1.402zm-3.416 0v-1.402h.848v1.402zm5.124-1.966v-1.402h.859v1.402zm-3.416 0v-1.402h.854v1.402zm1.708-1.96v-1.403h.854v1.402zm-3.416 0v-1.403h.848v1.402zm5.124-1.967v-1.401h.859v1.401zm-3.416 0v-1.401h.854v1.401zm1.708-1.96v-1.402h.854v1.402zm-3.416 0v-1.402h.848v1.402zM117.017 246.75v-1.402h.859v1.402zm-3.416 0v-1.402h.854v1.402zm1.708-1.96v-1.402h.854v1.402zm-3.416 0v-1.402h.848v1.402zm5.124-1.966v-1.402h.859v1.402zm-3.416 0v-1.402h.854v1.402zm1.708-1.96v-1.403h.854v1.402zm-3.416 0v-1.403h.848v1.402zm5.124-1.967v-1.401h.859v1.401zm-3.416 0v-1.401h.854v1.401zm1.708-1.96v-1.402h.854v1.402zm-3.416 0v-1.402h.848v1.402zM124.017 246.75v-1.402h.859v1.402zm-3.416 0v-1.402h.854v1.402zm1.708-1.96v-1.402h.854v1.402zm-3.416 0v-1.402h.848v1.402zm5.124-1.966v-1.402h.859v1.402zm-3.416 0v-1.402h.854v1.402zm1.708-1.96v-1.403h.854v1.402zm-3.416 0v-1.403h.848v1.402zm5.124-1.967v-1.401h.859v1.401zm-3.416 0v-1.401h.854v1.401zm1.708-1.96v-1.402h.854v1.402zm-3.416 0v-1.402h.848v1.402zM131.017 246.75v-1.402h.859v1.402zm-3.416 0v-1.402h.854v1.402zm1.708-1.96v-1.402h.854v1.402zm-3.416 0v-1.402h.848v1.402zm5.124-1.966v-1.402h.859v1.402zm-3.416 0v-1.402h.854v1.402zm1.708-1.96v-1.403h.854v1.402zm-3.416 0v-1.403h.848v1.402zm5.124-1.967v-1.401h.859v1.401zm-3.416 0v-1.401h.854v1.401zm1.708-1.96v-1.402h.854v1.402zm-3.416 0v-1.402h.848v1.402zM149.879 247.32V233.3h.86v14.02zM48.893 228.336v-.924h6.837v.924zM55.893 228.336v-.924h6.837v.924zM62.893 228.336v-.924h6.837v.924zM69.893 228.336v-.924h6.837v.924zM76.893 228.336v-.924h6.837v.924z"/><path d="M86.879 234.32v-5.984h-2.986v-.924h6.837v.924h-2.992v5.983zM90.893 228.336v-.924h6.837v.924zM97.893 228.336v-.924h6.837v.924zM104.893 228.336v-.924h6.837v.924zM111.893 228.336v-.924h6.837v.924zM118.893 228.336v-.924h2.986v-7.111h.86v8.035zM131.017 233.75v-1.402h.859v1.402zm-3.416 0v-1.402h.854v1.402zm1.708-1.96v-1.402h.854v1.402zm-3.416 0v-1.402h.848v1.402zm5.124-1.966v-1.402h.859v1.402zm-3.416 0v-1.402h.854v1.402zm1.708-1.96v-1.403h.854v1.402zm-3.416 0v-1.403h.848v1.402zm5.124-1.967v-1.401h.859v1.401zm-3.416 0v-1.401h.854v1.401zm1.708-1.96v-1.402h.854v1.402zm-3.416 0v-1.402h.848v1.402z"/><path d="M121.879 221.32V207.3h.86v14.02zM131.017 220.75v-1.402h.859v1.402zm-3.416 0v-1.402h.854v1.402zm1.708-1.96v-1.402h.854v1.402zm-3.416 0v-1.402h.848v1.402zm5.124-1.966v-1.402h.859v1.402zm-3.416 0v-1.402h.854v1.402zm1.708-1.96v-1.403h.854v1.402zm-3.416 0v-1.403h.848v1.402zm5.124-1.967v-1.401h.859v1.401zm-3.416 0v-1.401h.854v1.401zm1.708-1.96v-1.402h.854v1.402zm-3.416 0v-1.402h.848v1.402zM149.879 221.32V207.3h.86v14.02zM6.893 202.336v-.924h6.837v.924zM13.893 202.336v-.924h6.837v.924zM20.893 202.336v-.924h6.837v.924zM27.893 202.336v-.924h6.837v.924zM34.893 202.336v-.924h6.837v.924zM44.879 208.32V194.3h.86v14.02zM70.252 196.981h6.118v.913h-2.508V205h-1.09v-7.106h-2.52zM83.016 201.498v.483h-4.281v.033q-.043 1.23.47 1.767.513.537 1.447.537.473 0 .989-.15.515-.15 1.1-.457v.983q-.563.23-1.087.346-.524.116-1.012.116-1.402 0-2.192-.84-.79-.841-.79-2.318 0-1.44.774-2.3.774-.859 2.063-.859 1.149 0 1.812.78.664.778.707 1.879zm-.989-.29q-.064-.623-.454-1.077-.389-.454-1.12-.454-.714 0-1.176.473-.462.473-.505 1.063zM90.005 198.984l-2.154 2.88L90.214 205H89.07l-1.761-2.412L85.552 205h-1.144l2.363-3.137-2.153-2.879h1.095l1.596 2.176 1.584-2.176zM94.298 197.276v1.708h2.245v.768h-2.245v3.266q0 .666.252.93.253.262.881.262h1.112v.79h-1.209q-1.111 0-1.568-.446-.456-.446-.456-1.536v-3.266h-1.606v-.768h1.606v-1.708z"/><path d="M121.879 208.32V194.3h.86v14.02zM131.017 207.75v-1.402h.859v1.402zm-3.416 0v-1.402h.854v1.402zm1.708-1.96v-1.402h.854v1.402zm-3.416 0v-1.402h.848v1.402zm5.124-1.966v-1.402h.859v1.402zm-3.416 0v-1.402h.854v1.402zm1.708-1.96v-1.403h.854v1.402zm-3.416 0v-1.403h.848v1.402zm5.124-1.967v-1.401h.859v1.401zm-3.416 0v-1.401h.854v1.401zm1.708-1.96v-1.402h.854v1.402zm-3.416 0v-1.402h.848v1.402zM9.143 2.873v3.013H10.4q.752 0 1.173-.398.422-.397.422-1.112 0-.714-.419-1.109-.419-.394-1.176-.394zM8.058 1.98H10.4q1.343 0 2.036.61.692.61.692 1.785 0 1.187-.69 1.794t-2.038.607H9.143V10H8.058zM6.893 20.336v-.924h6.837v.924zM13.893 20.336v-.924h6.837v.924zM20.893 20.336v-.924h6.837v.924zM27.893 20.336v-.924h6.837v.924zM34.893 20.336v-.924h6.837v.924zM41.893 20.336v-.924h6.837v.924zM48.893 20.336v-.924h6.837v.924zM55.893 20.336v-.924h6.837v.924zM62.893 20.336v-.924h6.837v.924zM69.893 20.336v-.924h6.837v.924zM76.893 20.336v-.924h6.837v.924zM83.893 20.336v-.924h6.837v.924zM90.893 20.336v-.924h6.837v.924zM97.893 20.336v-.924h6.837v.924zM104.893 20.336v-.924h6.837v.924zM111.893 20.336v-.924h6.837v.924zM118.893 20.336v-.924h6.837v.924zM125.893 20.336v-.924h6.837v.924zM132.893 20.336v-.924h6.837v.924zM139.893 20.336v-.924h6.837v.924zM146.893 20.336v-.924h6.837v.924zM153.893 20.336v-.924h6.837v.924zM160.893 20.336v-.924h6.837v.924zM167.893 20.336v-.924h6.837v.924zM174.893 20.336v-.924h6.837v.924zM44.879 182.32v-6.908h3.851v.924h-2.992v5.983z"/><path d="M44.879 195.32V181.3h.86v14.02zM121.879 195.32V181.3h.86v14.02zM131.017 194.75v-1.402h.859v1.402zm-3.416 0v-1.402h.854v1.402zm1.708-1.96v-1.402h.854v1.402zm-3.416 0v-1.402h.848v1.402zm5.124-1.966v-1.402h.859v1.402zm-3.416 0v-1.402h.854v1.402zm1.708-1.96v-1.403h.854v1.402zm-3.416 0v-1.403h.848v1.402zm5.124-1.967v-1.401h.859v1.401zm-3.416 0v-1.401h.854v1.401zm1.708-1.96v-1.402h.854v1.402zm-3.416 0v-1.402h.848v1.402zM149.879 195.32V181.3h.86v14.02zM48.893 176.336v-.924h6.837v.924zM55.893 176.336v-.924h6.837v.924zM62.893 176.336v-.924h6.837v.924zM69.893 176.336v-.924h6.837v.924zM76.893 176.336v-.924h6.837v.924zM83.893 176.336v-.924h6.837v.924zM90.893 176.336v-.924h6.837v.924zM97.893 176.336v-.924h6.837v.924zM104.893 176.336v-.924h6.837v.924zM111.893 176.336v-.924h6.837v.924z"/><path d="M121.879 182.32v-5.984h-2.986v-.924h3.845v6.907zM72.879 65.32v-6.908h3.851v.924h-2.992v5.983z"/><path d="M72.879 78.32V64.3h.86v14.02z"/><path d="M72.879 91.32V77.3h.86v14.02z"/><path d="M72.879 104.32V90.3h.86v14.02z"/><path d="M72.879 111.336V103.3h.86v7.111h2.991v.924zM86.879 130.32V116.3h.86v14.02z"/><path d="M86.879 143.32V129.3h.86v14.02z"/><path d="M86.879 156.32V142.3h.86v14.02zM87.309 166.419l-3.277-6.553h6.558zM149.879 169.32V155.3h.86v14.02zM149.879 143.32V129.3h.86v14.02zM76.893 111.336v-.924h6.837v.924zM83.893 111.336v-.924h6.837v.924zM90.893 111.336v-.924h6.837v.924zM97.893 111.336v-.924h2.986v-7.111h.86v8.035zM149.879 117.32V103.3h.86v14.02z"/><path d="M83.333 70.322l-2.385 1.289 2.385 1.294-.376.656-2.246-1.349v2.503h-.768v-2.503l-2.245 1.349-.376-.656 2.39-1.294-2.39-1.29.376-.66 2.245 1.348v-2.503h.768v2.503l2.246-1.348zM83.333 83.322l-2.385 1.289 2.385 1.294-.376.656-2.246-1.349v2.503h-.768v-2.503l-2.245 1.349-.376-.656 2.39-1.294-2.39-1.29.376-.66 2.245 1.348v-2.503h.768v2.503l2.246-1.348zM83.333 96.322l-2.385 1.289 2.385 1.294-.376.656-2.246-1.349v2.503h-.768v-2.503l-2.245 1.349-.376-.656 2.39-1.294-2.39-1.29.376-.66 2.245 1.348v-2.503h.768v2.503l2.246-1.348zM90.333 70.322l-2.385 1.289 2.385 1.294-.376.656-2.246-1.349v2.503h-.768v-2.503l-2.245 1.349-.376-.656 2.39-1.294-2.39-1.29.376-.66 2.245 1.348v-2.503h.768v2.503l2.246-1.348zM90.333 83.322l-2.385 1.289 2.385 1.294-.376.656-2.246-1.349v2.503h-.768v-2.503l-2.245 1.349-.376-.656 2.39-1.294-2.39-1.29.376-.66 2.245 1.348v-2.503h.768v2.503l2.246-1.348zM90.333 96.322l-2.385 1.289 2.385 1.294-.376.656-2.246-1.349v2.503h-.768v-2.503l-2.245 1.349-.376-.656 2.39-1.294-2.39-1.29.376-.66 2.245 1.348v-2.503h.768v2.503l2.246-1.348zM97.333 70.322l-2.385 1.289 2.385 1.294-.376.656-2.246-1.349v2.503h-.768v-2.503l-2.245 1.349-.376-.656 2.39-1.294-2.39-1.29.376-.66 2.245 1.348v-2.503h.768v2.503l2.246-1.348zM97.333 83.322l-2.385 1.289 2.385 1.294-.376.656-2.246-1.349v2.503h-.768v-2.503l-2.245 1.349-.376-.656 2.39-1.294-2.39-1.29.376-.66 2.245 1.348v-2.503h.768v2.503l2.246-1.348zM97.333 96.322l-2.385 1.289 2.385 1.294-.376.656-2.246-1.349v2.503h-.768v-2.503l-2.245 1.349-.376-.656 2.39-1.294-2.39-1.29.376-.66 2.245 1.348v-2.503h.768v2.503l2.246-1.348z" fill="#98CBFE"/><path d="M100.879 78.32V64.3h.86v14.02z"/><path d="M100.879 91.32V77.3h.86v14.02z"/><path d="M100.879 104.32V90.3h.86v14.02zM106.257 85.143l4.721 2.363v-4.727zm-1.225 0l6.558-3.277v6.553zM118.893 85.336v-.924h6.837v.924zM132.893 85.336v-.924h6.837v.924zM149.879 91.32v-5.984h-2.986v-.924h3.845v6.907zM76.893 59.336v-.924h6.837v.924zM83.893 59.336v-.924h6.837v.924zM90.893 59.336v-.924h6.837v.924zM100.879 65.32v-5.984h-2.986v-.924h3.845v6.907zM17.862 7.825q0 .666.244 1.004.245.338.723.338h1.154V10h-1.251q-.886 0-1.372-.567-.486-.566-.486-1.608V2.384h-1.585V1.61h2.573zM24.77 6.976h-.327q-.865 0-1.303.304-.437.303-.437.905 0 .542.327.843.328.3.908.3.816 0 1.284-.566.467-.567.472-1.566v-.22zm1.918-.408V10h-.994v-.892q-.317.538-.797.793-.481.255-1.168.255-.919 0-1.467-.519-.548-.518-.548-1.388 0-1.004.674-1.525.674-.521 1.98-.521h1.326v-.156q-.005-.72-.365-1.045-.36-.325-1.15-.325-.504 0-1.02.145-.515.145-1.004.425v-.989q.548-.21 1.05-.314.502-.105.975-.105.746 0 1.275.22.53.22.857.661.204.269.29.664.086.394.086 1.184zM33.699 9.694q-.398.23-.82.346-.421.116-.861.116-1.397 0-2.184-.838-.787-.838-.787-2.32 0-1.483.787-2.32.787-.839 2.184-.839.435 0 .848.113.414.113.833.35v1.036q-.392-.35-.787-.505-.395-.156-.894-.156-.93 0-1.43.602-.499.601-.499 1.719 0 1.111.503 1.716.502.604 1.426.604.515 0 .923-.159.409-.158.758-.491zM41.016 6.498v.483h-4.281v.033q-.043 1.23.47 1.767.513.537 1.447.537.473 0 .989-.15.515-.15 1.1-.457v.983q-.563.23-1.087.346-.524.116-1.012.116-1.402 0-2.192-.84-.79-.841-.79-2.318 0-1.44.774-2.3.774-.859 2.063-.859 1.149 0 1.812.78.664.778.707 1.879zm-.989-.29q-.064-.623-.454-1.077-.389-.454-1.12-.454-.714 0-1.176.473-.462.473-.505 1.063zM47.645 6.272V10h-.994V6.272q0-.81-.284-1.192-.285-.381-.892-.381-.693 0-1.066.491-.373.492-.373 1.41V10h-.989V1.643h.989v3.244q.263-.516.714-.782.451-.266 1.069-.266.918 0 1.372.605.454.604.454 1.828zM52.309 4.677q-.752 0-1.14.586-.386.585-.386 1.735 0 1.144.387 1.732.387.588 1.139.588.757 0 1.144-.588.386-.588.386-1.732 0-1.15-.386-1.735-.387-.586-1.144-.586zm0-.838q1.251 0 1.914.811.664.811.664 2.348 0 1.541-.66 2.35-.662.808-1.918.808-1.252 0-1.913-.809-.66-.808-.66-2.35 0-1.536.66-2.347.661-.81 1.913-.81zM59.862 7.825q0 .666.244 1.004.245.338.723.338h1.154V10h-1.251q-.886 0-1.372-.567-.486-.566-.486-1.608V2.384h-1.585V1.61h2.573zM67.608 4.752v-3.11h.989V10h-.989v-.757q-.247.445-.658.68-.41.233-.948.233-1.09 0-1.716-.846-.625-.846-.625-2.334 0-1.466.628-2.301.628-.836 1.713-.836.543 0 .956.234.414.234.65.68zm-2.905 2.246q0 1.149.365 1.734.365.586 1.08.586.714 0 1.087-.59.373-.592.373-1.73 0-1.144-.373-1.733-.373-.588-1.088-.588-.714 0-1.08.586-.364.585-.364 1.735zM76.016 6.498v.483h-4.281v.033q-.043 1.23.47 1.767.513.537 1.447.537.473 0 .989-.15.515-.15 1.1-.457v.983q-.563.23-1.087.346-.524.116-1.012.116-1.402 0-2.192-.84-.79-.841-.79-2.318 0-1.44.774-2.3.774-.859 2.063-.859 1.149 0 1.812.78.664.778.707 1.879zm-.989-.29q-.064-.623-.454-1.077-.389-.454-1.12-.454-.714 0-1.176.473-.462.473-.505 1.063zM83.204 5.225q-.317-.247-.645-.36-.328-.113-.72-.113-.923 0-1.412.58-.489.58-.489 1.676V10h-.994V3.984h.994v1.177q.247-.64.76-.98.513-.342 1.217-.342.365 0 .682.092.317.091.607.284z"/></svg>