<svg xmlns="http://www.w3.org/2000/svg" width="722" height="118"><path d="M3.309 27.863q1.283 0 1.941 1.047.658 1.048.658 3.1 0 2.051-.658 3.098-.658 1.048-1.941 1.048-1.284 0-1.94-1.048-.655-1.047-.655-3.099 0-2.051.656-3.099.655-1.047 1.939-1.047zm0 7.433q.762 0 1.136-.81.373-.812.373-2.477 0-.886-.108-1.6L2.154 34.41q.403.886 1.155.886zm0-6.574q-.758 0-1.131.811t-.373 2.476q0 .758.102 1.418l2.503-3.99q-.409-.715-1.101-.715zM3.309 53.863q1.283 0 1.941 1.047.658 1.048.658 3.1 0 2.051-.658 3.098-.658 1.048-1.941 1.048-1.284 0-1.94-1.048-.655-1.047-.655-3.099 0-2.051.656-3.099.655-1.047 1.939-1.047zm0 7.433q.762 0 1.136-.81.373-.812.373-2.477 0-.886-.108-1.6L2.154 60.41q.403.886 1.155.886zm0-6.574q-.758 0-1.131.811t-.373 2.476q0 .758.102 1.418l2.503-3.99q-.409-.715-1.101-.715zM3.309 79.863q1.283 0 1.941 1.047.658 1.048.658 3.1 0 2.051-.658 3.098-.658 1.048-1.941 1.048-1.284 0-1.94-1.048-.655-1.047-.655-3.099 0-2.051.656-3.099.655-1.047 1.939-1.047zm0 7.433q.762 0 1.136-.81.373-.812.373-2.477 0-.886-.108-1.6L2.154 86.41q.403.886 1.155.886zm0-6.574q-.758 0-1.131.811t-.373 2.476q0 .758.102 1.418l2.503-3.99q-.409-.715-1.101-.715zM3.309 105.863q1.283 0 1.941 1.047.658 1.048.658 3.1 0 2.051-.658 3.098-.658 1.048-1.941 1.048-1.284 0-1.94-1.048-.655-1.047-.655-3.099 0-2.051.656-3.099.655-1.047 1.939-1.047zm0 7.433q.762 0 1.136-.81.373-.812.373-2.477 0-.886-.108-1.6l-2.556 4.001q.403.886 1.155.886zm0-6.574q-.758 0-1.131.811t-.373 2.476q0 .758.102 1.418l2.503-3.99q-.409-.715-1.101-.715zM13.005 107.984l-2.154 2.88L13.214 114H12.07l-1.761-2.412L8.552 114H7.408l2.363-3.137-2.153-2.879h1.095l1.596 2.176 1.584-2.176zM19.323 106.158v1q-.339-.2-.72-.304-.381-.105-.795-.105-1.031 0-1.563.776t-.532 2.286q.258-.538.715-.825.456-.287 1.047-.287 1.16 0 1.797.711.636.712.636 2.017 0 1.3-.655 2.014-.655.715-1.842.715-1.397 0-2.047-1.002-.65-1.002-.65-3.155 0-2.03.782-3.097.781-1.066 2.264-1.066.397 0 .795.083.397.083.768.24zm-1.934 3.39q-.693 0-1.09.499-.398.5-.398 1.38 0 .881.398 1.38.397.5 1.09.5.72 0 1.085-.475.365-.476.365-1.405 0-.934-.365-1.407t-1.085-.473zM24.309 105.863q1.283 0 1.941 1.047.658 1.048.658 3.1 0 2.051-.658 3.098-.658 1.048-1.941 1.048-1.284 0-1.94-1.048-.655-1.047-.655-3.099 0-2.051.656-3.099.655-1.047 1.939-1.047zm0 7.433q.762 0 1.136-.81.373-.812.373-2.477 0-.886-.108-1.6l-2.556 4.001q.403.886 1.155.886zm0-6.574q-.758 0-1.131.811t-.373 2.476q0 .758.102 1.418l2.503-3.99q-.409-.715-1.101-.715zM28.548 110.111h5.693v.908h-5.693zM38.309 105.863q1.283 0 1.941 1.047.658 1.048.658 3.1 0 2.051-.658 3.098-.658 1.048-1.941 1.048-1.284 0-1.94-1.048-.655-1.047-.655-3.099 0-2.051.656-3.099.655-1.047 1.939-1.047zm0 7.433q.762 0 1.136-.81.373-.812.373-2.477 0-.886-.108-1.6l-2.556 4.001q.403.886 1.155.886zm0-6.574q-.758 0-1.131.811t-.373 2.476q0 .758.102 1.418l2.503-3.99q-.409-.715-1.101-.715zM48.005 107.984l-2.154 2.88L48.214 114H47.07l-1.761-2.412L43.552 114h-1.144l2.363-3.137-2.153-2.879h1.095l1.596 2.176 1.584-2.176zM49.747 105.981h5.048v.462L51.927 114h-1.133l2.793-7.106h-3.84zM61.71 105.643v.821h-1.123q-.532 0-.739.218-.206.217-.206.77v.532h2.067v.768h-2.067V114h-.989v-5.248h-1.606v-.768h1.606v-.419q0-.988.454-1.455.454-.467 1.415-.467zM80.309 105.863q1.283 0 1.941 1.047.658 1.048.658 3.1 0 2.051-.658 3.098-.658 1.048-1.941 1.048-1.284 0-1.94-1.048-.655-1.047-.655-3.099 0-2.051.656-3.099.655-1.047 1.939-1.047zm0 7.433q.762 0 1.136-.81.373-.812.373-2.477 0-.886-.108-1.6l-2.556 4.001q.403.886 1.155.886zm0-6.574q-.758 0-1.131.811t-.373 2.476q0 .758.102 1.418l2.503-3.99q-.409-.715-1.101-.715zM90.005 107.984l-2.154 2.88L90.214 114H89.07l-1.761-2.412L85.552 114h-1.144l2.363-3.137-2.153-2.879h1.095l1.596 2.176 1.584-2.176zM96.71 105.643v.821h-1.123q-.532 0-.739.218-.206.217-.206.77v.532h2.067v.768h-2.067V114h-.989v-5.248h-1.606v-.768h1.606v-.419q0-.988.454-1.455.454-.467 1.415-.467zM103.71 105.643v.821h-1.123q-.532 0-.739.218-.206.217-.206.77v.532h2.067v.768h-2.067V114h-.989v-5.248h-1.606v-.768h1.606v-.419q0-.988.454-1.455.454-.467 1.415-.467zM110.71 105.643v.821h-1.123q-.532 0-.739.218-.206.217-.206.77v.532h2.067v.768h-2.067V114h-.989v-5.248h-1.606v-.768h1.606v-.419q0-.988.454-1.455.454-.467 1.415-.467zM117.71 105.643v.821h-1.123q-.532 0-.739.218-.206.217-.206.77v.532h2.067v.768h-2.067V114h-.989v-5.248h-1.606v-.768h1.606v-.419q0-.988.454-1.455.454-.467 1.415-.467zM124.71 105.643v.821h-1.123q-.532 0-.739.218-.206.217-.206.77v.532h2.067v.768h-2.067V114h-.989v-5.248h-1.606v-.768h1.606v-.419q0-.988.454-1.455.454-.467 1.415-.467zM131.71 105.643v.821h-1.123q-.532 0-.739.218-.206.217-.206.77v.532h2.067v.768h-2.067V114h-.989v-5.248h-1.606v-.768h1.606v-.419q0-.988.454-1.455.454-.467 1.415-.467zM138.71 105.643v.821h-1.123q-.532 0-.739.218-.206.217-.206.77v.532h2.067v.768h-2.067V114h-.989v-5.248h-1.606v-.768h1.606v-.419q0-.988.454-1.455.454-.467 1.415-.467zM145.71 105.643v.821h-1.123q-.532 0-.739.218-.206.217-.206.77v.532h2.067v.768h-2.067V114h-.989v-5.248h-1.606v-.768h1.606v-.419q0-.988.454-1.455.454-.467 1.415-.467zM152.71 105.643v.821h-1.123q-.532 0-.739.218-.206.217-.206.77v.532h2.067v.768h-2.067V114h-.989v-5.248h-1.606v-.768h1.606v-.419q0-.988.454-1.455.454-.467 1.415-.467zM159.71 105.643v.821h-1.123q-.532 0-.739.218-.206.217-.206.77v.532h2.067v.768h-2.067V114h-.989v-5.248h-1.606v-.768h1.606v-.419q0-.988.454-1.455.454-.467 1.415-.467zM166.71 105.643v.821h-1.123q-.532 0-.739.218-.206.217-.206.77v.532h2.067v.768h-2.067V114h-.989v-5.248h-1.606v-.768h1.606v-.419q0-.988.454-1.455.454-.467 1.415-.467zM173.71 105.643v.821h-1.123q-.532 0-.739.218-.206.217-.206.77v.532h2.067v.768h-2.067V114h-.989v-5.248h-1.606v-.768h1.606v-.419q0-.988.454-1.455.454-.467 1.415-.467zM180.71 105.643v.821h-1.123q-.532 0-.739.218-.206.217-.206.77v.532h2.067v.768h-2.067V114h-.989v-5.248h-1.606v-.768h1.606v-.419q0-.988.454-1.455.454-.467 1.415-.467zM187.71 105.643v.821h-1.123q-.532 0-.739.218-.206.217-.206.77v.532h2.067v.768h-2.067V114h-.989v-5.248h-1.606v-.768h1.606v-.419q0-.988.454-1.455.454-.467 1.415-.467zM194.71 105.643v.821h-1.123q-.532 0-.739.218-.206.217-.206.77v.532h2.067v.768h-2.067V114h-.989v-5.248h-1.606v-.768h1.606v-.419q0-.988.454-1.455.454-.467 1.415-.467zM201.71 105.643v.821h-1.123q-.532 0-.739.218-.206.217-.206.77v.532h2.067v.768h-2.067V114h-.989v-5.248h-1.606v-.768h1.606v-.419q0-.988.454-1.455.454-.467 1.415-.467zM208.71 105.643v.821h-1.123q-.532 0-.739.218-.206.217-.206.77v.532h2.067v.768h-2.067V114h-.989v-5.248h-1.606v-.768h1.606v-.419q0-.988.454-1.455.454-.467 1.415-.467zM215.71 105.643v.821h-1.123q-.532 0-.739.218-.206.217-.206.77v.532h2.067v.768h-2.067V114h-.989v-5.248h-1.606v-.768h1.606v-.419q0-.988.454-1.455.454-.467 1.415-.467zM222.71 105.643v.821h-1.123q-.532 0-.739.218-.206.217-.206.77v.532h2.067v.768h-2.067V114h-.989v-5.248h-1.606v-.768h1.606v-.419q0-.988.454-1.455.454-.467 1.415-.467zM229.71 105.643v.821h-1.123q-.532 0-.739.218-.206.217-.206.77v.532h2.067v.768h-2.067V114h-.989v-5.248h-1.606v-.768h1.606v-.419q0-.988.454-1.455.454-.467 1.415-.467zM236.71 105.643v.821h-1.123q-.532 0-.739.218-.206.217-.206.77v.532h2.067v.768h-2.067V114h-.989v-5.248h-1.606v-.768h1.606v-.419q0-.988.454-1.455.454-.467 1.415-.467zM243.71 105.643v.821h-1.123q-.532 0-.739.218-.206.217-.206.77v.532h2.067v.768h-2.067V114h-.989v-5.248h-1.606v-.768h1.606v-.419q0-.988.454-1.455.454-.467 1.415-.467zM250.71 105.643v.821h-1.123q-.532 0-.739.218-.206.217-.206.77v.532h2.067v.768h-2.067V114h-.989v-5.248h-1.606v-.768h1.606v-.419q0-.988.454-1.455.454-.467 1.415-.467zM257.71 105.643v.821h-1.123q-.532 0-.739.218-.206.217-.206.77v.532h2.067v.768h-2.067V114h-.989v-5.248h-1.606v-.768h1.606v-.419q0-.988.454-1.455.454-.467 1.415-.467zM264.71 105.643v.821h-1.123q-.532 0-.739.218-.206.217-.206.77v.532h2.067v.768h-2.067V114h-.989v-5.248h-1.606v-.768h1.606v-.419q0-.988.454-1.455.454-.467 1.415-.467zM271.71 105.643v.821h-1.123q-.532 0-.739.218-.206.217-.206.77v.532h2.067v.768h-2.067V114h-.989v-5.248h-1.606v-.768h1.606v-.419q0-.988.454-1.455.454-.467 1.415-.467zM278.71 105.643v.821h-1.123q-.532 0-.739.218-.206.217-.206.77v.532h2.067v.768h-2.067V114h-.989v-5.248h-1.606v-.768h1.606v-.419q0-.988.454-1.455.454-.467 1.415-.467zM285.71 105.643v.821h-1.123q-.532 0-.739.218-.206.217-.206.77v.532h2.067v.768h-2.067V114h-.989v-5.248h-1.606v-.768h1.606v-.419q0-.988.454-1.455.454-.467 1.415-.467zM292.71 105.643v.821h-1.123q-.532 0-.739.218-.206.217-.206.77v.532h2.067v.768h-2.067V114h-.989v-5.248h-1.606v-.768h1.606v-.419q0-.988.454-1.455.454-.467 1.415-.467zM299.71 105.643v.821h-1.123q-.532 0-.739.218-.206.217-.206.77v.532h2.067v.768h-2.067V114h-.989v-5.248h-1.606v-.768h1.606v-.419q0-.988.454-1.455.454-.467 1.415-.467zM306.71 105.643v.821h-1.123q-.532 0-.739.218-.206.217-.206.77v.532h2.067v.768h-2.067V114h-.989v-5.248h-1.606v-.768h1.606v-.419q0-.988.454-1.455.454-.467 1.415-.467zM313.71 105.643v.821h-1.123q-.532 0-.739.218-.206.217-.206.77v.532h2.067v.768h-2.067V114h-.989v-5.248h-1.606v-.768h1.606v-.419q0-.988.454-1.455.454-.467 1.415-.467zM320.71 105.643v.821h-1.123q-.532 0-.739.218-.206.217-.206.77v.532h2.067v.768h-2.067V114h-.989v-5.248h-1.606v-.768h1.606v-.419q0-.988.454-1.455.454-.467 1.415-.467zM327.71 105.643v.821h-1.123q-.532 0-.739.218-.206.217-.206.77v.532h2.067v.768h-2.067V114h-.989v-5.248h-1.606v-.768h1.606v-.419q0-.988.454-1.455.454-.467 1.415-.467zM334.71 105.643v.821h-1.123q-.532 0-.739.218-.206.217-.206.77v.532h2.067v.768h-2.067V114h-.989v-5.248h-1.606v-.768h1.606v-.419q0-.988.454-1.455.454-.467 1.415-.467zM341.71 105.643v.821h-1.123q-.532 0-.739.218-.206.217-.206.77v.532h2.067v.768h-2.067V114h-.989v-5.248h-1.606v-.768h1.606v-.419q0-.988.454-1.455.454-.467 1.415-.467zM348.71 105.643v.821h-1.123q-.532 0-.739.218-.206.217-.206.77v.532h2.067v.768h-2.067V114h-.989v-5.248h-1.606v-.768h1.606v-.419q0-.988.454-1.455.454-.467 1.415-.467zM355.71 105.643v.821h-1.123q-.532 0-.739.218-.206.217-.206.77v.532h2.067v.768h-2.067V114h-.989v-5.248h-1.606v-.768h1.606v-.419q0-.988.454-1.455.454-.467 1.415-.467zM362.71 105.643v.821h-1.123q-.532 0-.739.218-.206.217-.206.77v.532h2.067v.768h-2.067V114h-.989v-5.248h-1.606v-.768h1.606v-.419q0-.988.454-1.455.454-.467 1.415-.467zM369.71 105.643v.821h-1.123q-.532 0-.739.218-.206.217-.206.77v.532h2.067v.768h-2.067V114h-.989v-5.248h-1.606v-.768h1.606v-.419q0-.988.454-1.455.454-.467 1.415-.467zM376.71 105.643v.821h-1.123q-.532 0-.739.218-.206.217-.206.77v.532h2.067v.768h-2.067V114h-.989v-5.248h-1.606v-.768h1.606v-.419q0-.988.454-1.455.454-.467 1.415-.467zM383.71 105.643v.821h-1.123q-.532 0-.739.218-.206.217-.206.77v.532h2.067v.768h-2.067V114h-.989v-5.248h-1.606v-.768h1.606v-.419q0-.988.454-1.455.454-.467 1.415-.467zM390.71 105.643v.821h-1.123q-.532 0-.739.218-.206.217-.206.77v.532h2.067v.768h-2.067V114h-.989v-5.248h-1.606v-.768h1.606v-.419q0-.988.454-1.455.454-.467 1.415-.467zM397.71 105.643v.821h-1.123q-.532 0-.739.218-.206.217-.206.77v.532h2.067v.768h-2.067V114h-.989v-5.248h-1.606v-.768h1.606v-.419q0-.988.454-1.455.454-.467 1.415-.467zM404.71 105.643v.821h-1.123q-.532 0-.739.218-.206.217-.206.77v.532h2.067v.768h-2.067V114h-.989v-5.248h-1.606v-.768h1.606v-.419q0-.988.454-1.455.454-.467 1.415-.467zM411.71 105.643v.821h-1.123q-.532 0-.739.218-.206.217-.206.77v.532h2.067v.768h-2.067V114h-.989v-5.248h-1.606v-.768h1.606v-.419q0-.988.454-1.455.454-.467 1.415-.467zM418.71 105.643v.821h-1.123q-.532 0-.739.218-.206.217-.206.77v.532h2.067v.768h-2.067V114h-.989v-5.248h-1.606v-.768h1.606v-.419q0-.988.454-1.455.454-.467 1.415-.467zM425.71 105.643v.821h-1.123q-.532 0-.739.218-.206.217-.206.77v.532h2.067v.768h-2.067V114h-.989v-5.248h-1.606v-.768h1.606v-.419q0-.988.454-1.455.454-.467 1.415-.467zM432.71 105.643v.821h-1.123q-.532 0-.739.218-.206.217-.206.77v.532h2.067v.768h-2.067V114h-.989v-5.248h-1.606v-.768h1.606v-.419q0-.988.454-1.455.454-.467 1.415-.467zM439.71 105.643v.821h-1.123q-.532 0-.739.218-.206.217-.206.77v.532h2.067v.768h-2.067V114h-.989v-5.248h-1.606v-.768h1.606v-.419q0-.988.454-1.455.454-.467 1.415-.467zM446.71 105.643v.821h-1.123q-.532 0-.739.218-.206.217-.206.77v.532h2.067v.768h-2.067V114h-.989v-5.248h-1.606v-.768h1.606v-.419q0-.988.454-1.455.454-.467 1.415-.467zM453.71 105.643v.821h-1.123q-.532 0-.739.218-.206.217-.206.77v.532h2.067v.768h-2.067V114h-.989v-5.248h-1.606v-.768h1.606v-.419q0-.988.454-1.455.454-.467 1.415-.467zM460.71 105.643v.821h-1.123q-.532 0-.739.218-.206.217-.206.77v.532h2.067v.768h-2.067V114h-.989v-5.248h-1.606v-.768h1.606v-.419q0-.988.454-1.455.454-.467 1.415-.467zM467.71 105.643v.821h-1.123q-.532 0-.739.218-.206.217-.206.77v.532h2.067v.768h-2.067V114h-.989v-5.248h-1.606v-.768h1.606v-.419q0-.988.454-1.455.454-.467 1.415-.467zM474.71 105.643v.821h-1.123q-.532 0-.739.218-.206.217-.206.77v.532h2.067v.768h-2.067V114h-.989v-5.248h-1.606v-.768h1.606v-.419q0-.988.454-1.455.454-.467 1.415-.467zM481.71 105.643v.821h-1.123q-.532 0-.739.218-.206.217-.206.77v.532h2.067v.768h-2.067V114h-.989v-5.248h-1.606v-.768h1.606v-.419q0-.988.454-1.455.454-.467 1.415-.467zM488.71 105.643v.821h-1.123q-.532 0-.739.218-.206.217-.206.77v.532h2.067v.768h-2.067V114h-.989v-5.248h-1.606v-.768h1.606v-.419q0-.988.454-1.455.454-.467 1.415-.467zM495.71 105.643v.821h-1.123q-.532 0-.739.218-.206.217-.206.77v.532h2.067v.768h-2.067V114h-.989v-5.248h-1.606v-.768h1.606v-.419q0-.988.454-1.455.454-.467 1.415-.467zM502.71 105.643v.821h-1.123q-.532 0-.739.218-.206.217-.206.77v.532h2.067v.768h-2.067V114h-.989v-5.248h-1.606v-.768h1.606v-.419q0-.988.454-1.455.454-.467 1.415-.467zM509.71 105.643v.821h-1.123q-.532 0-.739.218-.206.217-.206.77v.532h2.067v.768h-2.067V114h-.989v-5.248h-1.606v-.768h1.606v-.419q0-.988.454-1.455.454-.467 1.415-.467zM516.71 105.643v.821h-1.123q-.532 0-.739.218-.206.217-.206.77v.532h2.067v.768h-2.067V114h-.989v-5.248h-1.606v-.768h1.606v-.419q0-.988.454-1.455.454-.467 1.415-.467zM523.71 105.643v.821h-1.123q-.532 0-.739.218-.206.217-.206.77v.532h2.067v.768h-2.067V114h-.989v-5.248h-1.606v-.768h1.606v-.419q0-.988.454-1.455.454-.467 1.415-.467zM530.71 105.643v.821h-1.123q-.532 0-.739.218-.206.217-.206.77v.532h2.067v.768h-2.067V114h-.989v-5.248h-1.606v-.768h1.606v-.419q0-.988.454-1.455.454-.467 1.415-.467zM537.71 105.643v.821h-1.123q-.532 0-.739.218-.206.217-.206.77v.532h2.067v.768h-2.067V114h-.989v-5.248h-1.606v-.768h1.606v-.419q0-.988.454-1.455.454-.467 1.415-.467zM558.226 108.194v.967q-.424-.247-.854-.371-.43-.123-.875-.123-.672 0-1.002.217-.33.218-.33.663 0 .403.247.602.247.199 1.23.387l.397.075q.736.14 1.115.558.378.42.378 1.09 0 .892-.634 1.395-.633.502-1.761.502-.446 0-.935-.094-.489-.094-1.058-.282v-1.02q.553.284 1.058.426.505.143.956.143.655 0 1.015-.266.36-.266.36-.744 0-.688-1.316-.95l-.043-.012-.37-.075q-.854-.166-1.246-.561t-.392-1.077q0-.865.585-1.335t1.67-.47q.484 0 .93.089.445.089.875.266zM563.298 106.276v1.708h2.245v.768h-2.245v3.266q0 .666.252.93.253.262.881.262h1.112v.79h-1.209q-1.111 0-1.568-.446-.456-.446-.456-1.536v-3.266h-1.606v-.768h1.606v-1.708zM570.309 108.677q-.752 0-1.14.586-.386.585-.386 1.735 0 1.144.387 1.732.387.588 1.139.588.757 0 1.144-.588.386-.588.386-1.732 0-1.15-.386-1.735-.387-.586-1.144-.586zm0-.838q1.251 0 1.914.811.664.811.664 2.348 0 1.541-.66 2.35-.662.808-1.918.808-1.252 0-1.913-.809-.66-.808-.66-2.35 0-1.536.66-2.347.661-.81 1.913-.81zM580.204 109.225q-.317-.247-.645-.36-.328-.113-.72-.113-.923 0-1.412.58-.489.58-.489 1.676V114h-.994v-6.016h.994v1.177q.247-.64.76-.98.513-.342 1.217-.342.365 0 .682.092.317.091.607.284zM587.016 110.498v.483h-4.281v.033q-.043 1.23.47 1.767.513.537 1.447.537.473 0 .989-.15.515-.15 1.1-.457v.983q-.563.23-1.087.346-.524.116-1.012.116-1.402 0-2.192-.84-.79-.841-.79-2.318 0-1.44.774-2.3.774-.859 2.063-.859 1.149 0 1.812.78.664.778.707 1.879zm-.989-.29q-.064-.623-.454-1.077-.389-.454-1.12-.454-.714 0-1.176.473-.462.473-.505 1.063zM592.608 108.752v-3.11h.989V114h-.989v-.757q-.247.445-.658.68-.41.233-.948.233-1.09 0-1.716-.846-.625-.846-.625-2.334 0-1.466.628-2.301.628-.836 1.713-.836.543 0 .956.234.414.234.65.68zm-2.905 2.246q0 1.149.365 1.734.365.586 1.08.586.714 0 1.087-.59.373-.592.373-1.73 0-1.144-.373-1.733-.373-.588-1.088-.588-.714 0-1.08.586-.364.585-.364 1.735zM603.697 108.006h2.53v5.226h1.96V114h-4.909v-.768h1.96v-4.458h-1.54zm1.542-2.337h.988v1.247h-.988zM614.645 110.272V114h-.994v-3.728q0-.81-.284-1.192-.285-.381-.892-.381-.693 0-1.066.491-.373.492-.373 1.41v3.4h-.989v-6.016h.989v.903q.263-.516.714-.782.451-.266 1.069-.266.918 0 1.372.605.454.604.454 1.828zM626.63 108.597q.183-.387.465-.572.282-.186.68-.186.725 0 1.023.562.298.56.298 2.113V114h-.902v-3.443q0-1.273-.142-1.582-.143-.308-.519-.308-.43 0-.588.33-.158.33-.158 1.56V114h-.903v-3.443q0-1.289-.153-1.59-.153-.3-.55-.3-.392 0-.546.33-.153.33-.153 1.56V114h-.897v-6.016h.897v.516q.178-.322.444-.491.265-.17.604-.17.408 0 .68.188.27.188.42.57zM636.016 110.498v.483h-4.281v.033q-.043 1.23.47 1.767.513.537 1.447.537.473 0 .989-.15.515-.15 1.1-.457v.983q-.563.23-1.087.346-.524.116-1.012.116-1.402 0-2.192-.84-.79-.841-.79-2.318 0-1.44.774-2.3.774-.859 2.063-.859 1.149 0 1.812.78.664.778.707 1.879zm-.989-.29q-.064-.623-.454-1.077-.389-.454-1.12-.454-.714 0-1.176.473-.462.473-.505 1.063zM640.63 108.597q.183-.387.465-.572.282-.186.68-.186.725 0 1.023.562.298.56.298 2.113V114h-.902v-3.443q0-1.273-.142-1.582-.143-.308-.519-.308-.43 0-.588.33-.158.33-.158 1.56V114h-.903v-3.443q0-1.289-.153-1.59-.153-.3-.55-.3-.392 0-.546.33-.153.33-.153 1.56V114h-.897v-6.016h.897v.516q.178-.322.444-.491.265-.17.604-.17.408 0 .68.188.27.188.42.57zM647.309 108.677q-.752 0-1.14.586-.386.585-.386 1.735 0 1.144.387 1.732.387.588 1.139.588.757 0 1.144-.588.386-.588.386-1.732 0-1.15-.386-1.735-.387-.586-1.144-.586zm0-.838q1.251 0 1.914.811.664.811.664 2.348 0 1.541-.66 2.35-.662.808-1.918.808-1.252 0-1.913-.809-.66-.808-.66-2.35 0-1.536.66-2.347.661-.81 1.913-.81zM657.204 109.225q-.317-.247-.645-.36-.328-.113-.72-.113-.923 0-1.412.58-.489.58-.489 1.676V114h-.994v-6.016h.994v1.177q.247-.64.76-.98.513-.342 1.217-.342.365 0 .682.092.317.091.607.284zM662.608 112.066q-.247.629-.628 1.655-.532 1.418-.714 1.73-.247.418-.618.628-.37.21-.865.21h-.795v-.828h.586q.435 0 .682-.253.247-.252.628-1.305l-2.325-5.919h1.047l1.783 4.705 1.757-4.705h1.047zM667.374 112.061h1.676v1.423l-1.193 2.315-1.074.006.591-2.32zM680.047 111.723v-3.728h.989v3.728q0 .81.287 1.192.287.381.889.381.698 0 1.069-.491.37-.492.37-1.41v-3.4h.994V114h-.994v-.902q-.263.52-.717.79-.454.268-1.06.268-.924 0-1.375-.604-.452-.605-.452-1.83zM691.645 110.272V114h-.994v-3.728q0-.81-.284-1.192-.285-.381-.892-.381-.693 0-1.066.491-.373.492-.373 1.41v3.4h-.989v-6.016h.989v.903q.263-.516.714-.782.451-.266 1.069-.266.918 0 1.372.605.454.604.454 1.828zM694.047 111.723v-3.728h.989v3.728q0 .81.287 1.192.287.381.889.381.698 0 1.069-.491.37-.492.37-1.41v-3.4h.994V114h-.994v-.902q-.263.52-.717.79-.454.268-1.06.268-.924 0-1.375-.604-.452-.605-.452-1.83zM705.226 108.194v.967q-.424-.247-.854-.371-.43-.123-.875-.123-.672 0-1.002.217-.33.218-.33.663 0 .403.247.602.247.199 1.23.387l.397.075q.736.14 1.115.558.378.42.378 1.09 0 .892-.634 1.395-.633.502-1.761.502-.446 0-.935-.094-.489-.094-1.058-.282v-1.02q.553.284 1.058.426.505.143.956.143.655 0 1.015-.266.36-.266.36-.744 0-.688-1.316-.95l-.043-.012-.37-.075q-.854-.166-1.246-.561t-.392-1.077q0-.865.585-1.335t1.67-.47q.484 0 .93.089.445.089.875.266zM713.016 110.498v.483h-4.281v.033q-.043 1.23.47 1.767.513.537 1.447.537.473 0 .989-.15.515-.15 1.1-.457v.983q-.563.23-1.087.346-.524.116-1.012.116-1.402 0-2.192-.84-.79-.841-.79-2.318 0-1.44.774-2.3.774-.859 2.063-.859 1.149 0 1.812.78.664.778.707 1.879zm-.989-.29q-.064-.623-.454-1.077-.389-.454-1.12-.454-.714 0-1.176.473-.462.473-.505 1.063zM718.608 108.752v-3.11h.989V114h-.989v-.757q-.247.445-.658.68-.41.233-.948.233-1.09 0-1.716-.846-.625-.846-.625-2.334 0-1.466.628-2.301.628-.836 1.713-.836.543 0 .956.234.414.234.65.68zm-2.905 2.246q0 1.149.365 1.734.365.586 1.08.586.714 0 1.087-.59.373-.592.373-1.73 0-1.144-.373-1.733-.373-.588-1.088-.588-.714 0-1.08.586-.364.585-.364 1.735zM13.005 81.984l-2.154 2.88L13.214 88H12.07l-1.761-2.412L8.552 88H7.408l2.363-3.137-2.153-2.879h1.095l1.596 2.176 1.584-2.176zM17.948 80.97l-2.53 4.237h2.53zm-.177-.989h1.256v5.226h1.07v.88h-1.07V88h-1.08v-1.912h-3.4v-1.026zM24.309 79.863q1.283 0 1.941 1.047.658 1.048.658 3.1 0 2.051-.658 3.098-.658 1.048-1.941 1.048-1.284 0-1.94-1.048-.655-1.047-.655-3.099 0-2.051.656-3.099.655-1.047 1.939-1.047zm0 7.433q.762 0 1.136-.81.373-.812.373-2.477 0-.886-.108-1.6l-2.556 4.001q.403.886 1.155.886zm0-6.574q-.758 0-1.131.811t-.373 2.476q0 .758.102 1.418l2.503-3.99q-.409-.715-1.101-.715zM28.548 84.111h5.693v.908h-5.693zM38.309 79.863q1.283 0 1.941 1.047.658 1.048.658 3.1 0 2.051-.658 3.098-.658 1.048-1.941 1.048-1.284 0-1.94-1.048-.655-1.047-.655-3.099 0-2.051.656-3.099.655-1.047 1.939-1.047zm0 7.433q.762 0 1.136-.81.373-.812.373-2.477 0-.886-.108-1.6l-2.556 4.001q.403.886 1.155.886zm0-6.574q-.758 0-1.131.811t-.373 2.476q0 .758.102 1.418l2.503-3.99q-.409-.715-1.101-.715zM48.005 81.984l-2.154 2.88L48.214 88H47.07l-1.761-2.412L43.552 88h-1.144l2.363-3.137-2.153-2.879h1.095l1.596 2.176 1.584-2.176zM50.112 79.981h4.06v.913H51.1v1.971q.231-.086.465-.126.233-.04.47-.04 1.246 0 1.976.736.73.735.73 1.992 0 1.268-.765 1.998t-2.092.73q-.639 0-1.168-.085-.529-.086-.948-.258v-1.101q.494.268.994.4t1.02.132q.897 0 1.383-.473t.486-1.343q0-.86-.502-1.337-.502-.478-1.399-.478-.435 0-.849.1-.413.099-.79.297zM61.71 79.643v.821h-1.123q-.532 0-.739.218-.206.217-.206.77v.532h2.067v.768h-2.067V88h-.989v-5.248h-1.606v-.768h1.606v-.419q0-.988.454-1.455.454-.467 1.415-.467zM80.309 79.863q1.283 0 1.941 1.047.658 1.048.658 3.1 0 2.051-.658 3.098-.658 1.048-1.941 1.048-1.284 0-1.94-1.048-.655-1.047-.655-3.099 0-2.051.656-3.099.655-1.047 1.939-1.047zm0 7.433q.762 0 1.136-.81.373-.812.373-2.477 0-.886-.108-1.6l-2.556 4.001q.403.886 1.155.886zm0-6.574q-.758 0-1.131.811t-.373 2.476q0 .758.102 1.418l2.503-3.99q-.409-.715-1.101-.715zM90.005 81.984l-2.154 2.88L90.214 88H89.07l-1.761-2.412L85.552 88h-1.144l2.363-3.137-2.153-2.879h1.095l1.596 2.176 1.584-2.176zM96.71 79.643v.821h-1.123q-.532 0-.739.218-.206.217-.206.77v.532h2.067v.768h-2.067V88h-.989v-5.248h-1.606v-.768h1.606v-.419q0-.988.454-1.455.454-.467 1.415-.467zM103.71 79.643v.821h-1.123q-.532 0-.739.218-.206.217-.206.77v.532h2.067v.768h-2.067V88h-.989v-5.248h-1.606v-.768h1.606v-.419q0-.988.454-1.455.454-.467 1.415-.467zM110.71 79.643v.821h-1.123q-.532 0-.739.218-.206.217-.206.77v.532h2.067v.768h-2.067V88h-.989v-5.248h-1.606v-.768h1.606v-.419q0-.988.454-1.455.454-.467 1.415-.467zM117.71 79.643v.821h-1.123q-.532 0-.739.218-.206.217-.206.77v.532h2.067v.768h-2.067V88h-.989v-5.248h-1.606v-.768h1.606v-.419q0-.988.454-1.455.454-.467 1.415-.467zM124.71 79.643v.821h-1.123q-.532 0-.739.218-.206.217-.206.77v.532h2.067v.768h-2.067V88h-.989v-5.248h-1.606v-.768h1.606v-.419q0-.988.454-1.455.454-.467 1.415-.467zM131.71 79.643v.821h-1.123q-.532 0-.739.218-.206.217-.206.77v.532h2.067v.768h-2.067V88h-.989v-5.248h-1.606v-.768h1.606v-.419q0-.988.454-1.455.454-.467 1.415-.467zM138.71 79.643v.821h-1.123q-.532 0-.739.218-.206.217-.206.77v.532h2.067v.768h-2.067V88h-.989v-5.248h-1.606v-.768h1.606v-.419q0-.988.454-1.455.454-.467 1.415-.467zM145.71 79.643v.821h-1.123q-.532 0-.739.218-.206.217-.206.77v.532h2.067v.768h-2.067V88h-.989v-5.248h-1.606v-.768h1.606v-.419q0-.988.454-1.455.454-.467 1.415-.467zM152.71 79.643v.821h-1.123q-.532 0-.739.218-.206.217-.206.77v.532h2.067v.768h-2.067V88h-.989v-5.248h-1.606v-.768h1.606v-.419q0-.988.454-1.455.454-.467 1.415-.467zM159.71 79.643v.821h-1.123q-.532 0-.739.218-.206.217-.206.77v.532h2.067v.768h-2.067V88h-.989v-5.248h-1.606v-.768h1.606v-.419q0-.988.454-1.455.454-.467 1.415-.467zM166.71 79.643v.821h-1.123q-.532 0-.739.218-.206.217-.206.77v.532h2.067v.768h-2.067V88h-.989v-5.248h-1.606v-.768h1.606v-.419q0-.988.454-1.455.454-.467 1.415-.467zM173.71 79.643v.821h-1.123q-.532 0-.739.218-.206.217-.206.77v.532h2.067v.768h-2.067V88h-.989v-5.248h-1.606v-.768h1.606v-.419q0-.988.454-1.455.454-.467 1.415-.467zM180.71 79.643v.821h-1.123q-.532 0-.739.218-.206.217-.206.77v.532h2.067v.768h-2.067V88h-.989v-5.248h-1.606v-.768h1.606v-.419q0-.988.454-1.455.454-.467 1.415-.467zM187.71 79.643v.821h-1.123q-.532 0-.739.218-.206.217-.206.77v.532h2.067v.768h-2.067V88h-.989v-5.248h-1.606v-.768h1.606v-.419q0-.988.454-1.455.454-.467 1.415-.467zM194.71 79.643v.821h-1.123q-.532 0-.739.218-.206.217-.206.77v.532h2.067v.768h-2.067V88h-.989v-5.248h-1.606v-.768h1.606v-.419q0-.988.454-1.455.454-.467 1.415-.467zM201.71 79.643v.821h-1.123q-.532 0-.739.218-.206.217-.206.77v.532h2.067v.768h-2.067V88h-.989v-5.248h-1.606v-.768h1.606v-.419q0-.988.454-1.455.454-.467 1.415-.467zM208.71 79.643v.821h-1.123q-.532 0-.739.218-.206.217-.206.77v.532h2.067v.768h-2.067V88h-.989v-5.248h-1.606v-.768h1.606v-.419q0-.988.454-1.455.454-.467 1.415-.467zM215.71 79.643v.821h-1.123q-.532 0-.739.218-.206.217-.206.77v.532h2.067v.768h-2.067V88h-.989v-5.248h-1.606v-.768h1.606v-.419q0-.988.454-1.455.454-.467 1.415-.467zM222.71 79.643v.821h-1.123q-.532 0-.739.218-.206.217-.206.77v.532h2.067v.768h-2.067V88h-.989v-5.248h-1.606v-.768h1.606v-.419q0-.988.454-1.455.454-.467 1.415-.467zM229.71 79.643v.821h-1.123q-.532 0-.739.218-.206.217-.206.77v.532h2.067v.768h-2.067V88h-.989v-5.248h-1.606v-.768h1.606v-.419q0-.988.454-1.455.454-.467 1.415-.467zM236.71 79.643v.821h-1.123q-.532 0-.739.218-.206.217-.206.77v.532h2.067v.768h-2.067V88h-.989v-5.248h-1.606v-.768h1.606v-.419q0-.988.454-1.455.454-.467 1.415-.467zM243.71 79.643v.821h-1.123q-.532 0-.739.218-.206.217-.206.77v.532h2.067v.768h-2.067V88h-.989v-5.248h-1.606v-.768h1.606v-.419q0-.988.454-1.455.454-.467 1.415-.467zM250.71 79.643v.821h-1.123q-.532 0-.739.218-.206.217-.206.77v.532h2.067v.768h-2.067V88h-.989v-5.248h-1.606v-.768h1.606v-.419q0-.988.454-1.455.454-.467 1.415-.467zM257.71 79.643v.821h-1.123q-.532 0-.739.218-.206.217-.206.77v.532h2.067v.768h-2.067V88h-.989v-5.248h-1.606v-.768h1.606v-.419q0-.988.454-1.455.454-.467 1.415-.467zM264.71 79.643v.821h-1.123q-.532 0-.739.218-.206.217-.206.77v.532h2.067v.768h-2.067V88h-.989v-5.248h-1.606v-.768h1.606v-.419q0-.988.454-1.455.454-.467 1.415-.467zM271.71 79.643v.821h-1.123q-.532 0-.739.218-.206.217-.206.77v.532h2.067v.768h-2.067V88h-.989v-5.248h-1.606v-.768h1.606v-.419q0-.988.454-1.455.454-.467 1.415-.467zM278.71 79.643v.821h-1.123q-.532 0-.739.218-.206.217-.206.77v.532h2.067v.768h-2.067V88h-.989v-5.248h-1.606v-.768h1.606v-.419q0-.988.454-1.455.454-.467 1.415-.467zM285.71 79.643v.821h-1.123q-.532 0-.739.218-.206.217-.206.77v.532h2.067v.768h-2.067V88h-.989v-5.248h-1.606v-.768h1.606v-.419q0-.988.454-1.455.454-.467 1.415-.467zM292.71 79.643v.821h-1.123q-.532 0-.739.218-.206.217-.206.77v.532h2.067v.768h-2.067V88h-.989v-5.248h-1.606v-.768h1.606v-.419q0-.988.454-1.455.454-.467 1.415-.467zM299.71 79.643v.821h-1.123q-.532 0-.739.218-.206.217-.206.77v.532h2.067v.768h-2.067V88h-.989v-5.248h-1.606v-.768h1.606v-.419q0-.988.454-1.455.454-.467 1.415-.467zM306.71 79.643v.821h-1.123q-.532 0-.739.218-.206.217-.206.77v.532h2.067v.768h-2.067V88h-.989v-5.248h-1.606v-.768h1.606v-.419q0-.988.454-1.455.454-.467 1.415-.467zM313.71 79.643v.821h-1.123q-.532 0-.739.218-.206.217-.206.77v.532h2.067v.768h-2.067V88h-.989v-5.248h-1.606v-.768h1.606v-.419q0-.988.454-1.455.454-.467 1.415-.467zM320.71 79.643v.821h-1.123q-.532 0-.739.218-.206.217-.206.77v.532h2.067v.768h-2.067V88h-.989v-5.248h-1.606v-.768h1.606v-.419q0-.988.454-1.455.454-.467 1.415-.467zM327.71 79.643v.821h-1.123q-.532 0-.739.218-.206.217-.206.77v.532h2.067v.768h-2.067V88h-.989v-5.248h-1.606v-.768h1.606v-.419q0-.988.454-1.455.454-.467 1.415-.467zM334.71 79.643v.821h-1.123q-.532 0-.739.218-.206.217-.206.77v.532h2.067v.768h-2.067V88h-.989v-5.248h-1.606v-.768h1.606v-.419q0-.988.454-1.455.454-.467 1.415-.467zM341.71 79.643v.821h-1.123q-.532 0-.739.218-.206.217-.206.77v.532h2.067v.768h-2.067V88h-.989v-5.248h-1.606v-.768h1.606v-.419q0-.988.454-1.455.454-.467 1.415-.467zM348.71 79.643v.821h-1.123q-.532 0-.739.218-.206.217-.206.77v.532h2.067v.768h-2.067V88h-.989v-5.248h-1.606v-.768h1.606v-.419q0-.988.454-1.455.454-.467 1.415-.467zM355.71 79.643v.821h-1.123q-.532 0-.739.218-.206.217-.206.77v.532h2.067v.768h-2.067V88h-.989v-5.248h-1.606v-.768h1.606v-.419q0-.988.454-1.455.454-.467 1.415-.467zM362.71 79.643v.821h-1.123q-.532 0-.739.218-.206.217-.206.77v.532h2.067v.768h-2.067V88h-.989v-5.248h-1.606v-.768h1.606v-.419q0-.988.454-1.455.454-.467 1.415-.467zM369.71 79.643v.821h-1.123q-.532 0-.739.218-.206.217-.206.77v.532h2.067v.768h-2.067V88h-.989v-5.248h-1.606v-.768h1.606v-.419q0-.988.454-1.455.454-.467 1.415-.467zM376.71 79.643v.821h-1.123q-.532 0-.739.218-.206.217-.206.77v.532h2.067v.768h-2.067V88h-.989v-5.248h-1.606v-.768h1.606v-.419q0-.988.454-1.455.454-.467 1.415-.467zM383.71 79.643v.821h-1.123q-.532 0-.739.218-.206.217-.206.77v.532h2.067v.768h-2.067V88h-.989v-5.248h-1.606v-.768h1.606v-.419q0-.988.454-1.455.454-.467 1.415-.467zM390.71 79.643v.821h-1.123q-.532 0-.739.218-.206.217-.206.77v.532h2.067v.768h-2.067V88h-.989v-5.248h-1.606v-.768h1.606v-.419q0-.988.454-1.455.454-.467 1.415-.467zM397.71 79.643v.821h-1.123q-.532 0-.739.218-.206.217-.206.77v.532h2.067v.768h-2.067V88h-.989v-5.248h-1.606v-.768h1.606v-.419q0-.988.454-1.455.454-.467 1.415-.467zM404.71 79.643v.821h-1.123q-.532 0-.739.218-.206.217-.206.77v.532h2.067v.768h-2.067V88h-.989v-5.248h-1.606v-.768h1.606v-.419q0-.988.454-1.455.454-.467 1.415-.467zM411.71 79.643v.821h-1.123q-.532 0-.739.218-.206.217-.206.77v.532h2.067v.768h-2.067V88h-.989v-5.248h-1.606v-.768h1.606v-.419q0-.988.454-1.455.454-.467 1.415-.467zM418.71 79.643v.821h-1.123q-.532 0-.739.218-.206.217-.206.77v.532h2.067v.768h-2.067V88h-.989v-5.248h-1.606v-.768h1.606v-.419q0-.988.454-1.455.454-.467 1.415-.467zM425.71 79.643v.821h-1.123q-.532 0-.739.218-.206.217-.206.77v.532h2.067v.768h-2.067V88h-.989v-5.248h-1.606v-.768h1.606v-.419q0-.988.454-1.455.454-.467 1.415-.467zM432.71 79.643v.821h-1.123q-.532 0-.739.218-.206.217-.206.77v.532h2.067v.768h-2.067V88h-.989v-5.248h-1.606v-.768h1.606v-.419q0-.988.454-1.455.454-.467 1.415-.467zM439.71 79.643v.821h-1.123q-.532 0-.739.218-.206.217-.206.77v.532h2.067v.768h-2.067V88h-.989v-5.248h-1.606v-.768h1.606v-.419q0-.988.454-1.455.454-.467 1.415-.467zM446.71 79.643v.821h-1.123q-.532 0-.739.218-.206.217-.206.77v.532h2.067v.768h-2.067V88h-.989v-5.248h-1.606v-.768h1.606v-.419q0-.988.454-1.455.454-.467 1.415-.467zM453.71 79.643v.821h-1.123q-.532 0-.739.218-.206.217-.206.77v.532h2.067v.768h-2.067V88h-.989v-5.248h-1.606v-.768h1.606v-.419q0-.988.454-1.455.454-.467 1.415-.467zM460.71 79.643v.821h-1.123q-.532 0-.739.218-.206.217-.206.77v.532h2.067v.768h-2.067V88h-.989v-5.248h-1.606v-.768h1.606v-.419q0-.988.454-1.455.454-.467 1.415-.467zM467.71 79.643v.821h-1.123q-.532 0-.739.218-.206.217-.206.77v.532h2.067v.768h-2.067V88h-.989v-5.248h-1.606v-.768h1.606v-.419q0-.988.454-1.455.454-.467 1.415-.467zM474.71 79.643v.821h-1.123q-.532 0-.739.218-.206.217-.206.77v.532h2.067v.768h-2.067V88h-.989v-5.248h-1.606v-.768h1.606v-.419q0-.988.454-1.455.454-.467 1.415-.467zM481.71 79.643v.821h-1.123q-.532 0-.739.218-.206.217-.206.77v.532h2.067v.768h-2.067V88h-.989v-5.248h-1.606v-.768h1.606v-.419q0-.988.454-1.455.454-.467 1.415-.467zM488.71 79.643v.821h-1.123q-.532 0-.739.218-.206.217-.206.77v.532h2.067v.768h-2.067V88h-.989v-5.248h-1.606v-.768h1.606v-.419q0-.988.454-1.455.454-.467 1.415-.467zM495.71 79.643v.821h-1.123q-.532 0-.739.218-.206.217-.206.77v.532h2.067v.768h-2.067V88h-.989v-5.248h-1.606v-.768h1.606v-.419q0-.988.454-1.455.454-.467 1.415-.467zM502.71 79.643v.821h-1.123q-.532 0-.739.218-.206.217-.206.77v.532h2.067v.768h-2.067V88h-.989v-5.248h-1.606v-.768h1.606v-.419q0-.988.454-1.455.454-.467 1.415-.467zM509.71 79.643v.821h-1.123q-.532 0-.739.218-.206.217-.206.77v.532h2.067v.768h-2.067V88h-.989v-5.248h-1.606v-.768h1.606v-.419q0-.988.454-1.455.454-.467 1.415-.467zM516.71 79.643v.821h-1.123q-.532 0-.739.218-.206.217-.206.77v.532h2.067v.768h-2.067V88h-.989v-5.248h-1.606v-.768h1.606v-.419q0-.988.454-1.455.454-.467 1.415-.467zM523.71 79.643v.821h-1.123q-.532 0-.739.218-.206.217-.206.77v.532h2.067v.768h-2.067V88h-.989v-5.248h-1.606v-.768h1.606v-.419q0-.988.454-1.455.454-.467 1.415-.467zM530.71 79.643v.821h-1.123q-.532 0-.739.218-.206.217-.206.77v.532h2.067v.768h-2.067V88h-.989v-5.248h-1.606v-.768h1.606v-.419q0-.988.454-1.455.454-.467 1.415-.467zM537.71 79.643v.821h-1.123q-.532 0-.739.218-.206.217-.206.77v.532h2.067v.768h-2.067V88h-.989v-5.248h-1.606v-.768h1.606v-.419q0-.988.454-1.455.454-.467 1.415-.467zM558.226 82.194v.967q-.424-.247-.854-.371-.43-.123-.875-.123-.672 0-1.002.217-.33.218-.33.663 0 .403.247.602.247.199 1.23.387l.397.075q.736.14 1.115.558.378.42.378 1.09 0 .892-.634 1.395-.633.502-1.761.502-.446 0-.935-.094-.489-.094-1.058-.282v-1.02q.553.284 1.058.426.505.143.956.143.655 0 1.015-.266.36-.266.36-.744 0-.688-1.316-.95l-.043-.012-.37-.075q-.854-.166-1.246-.561t-.392-1.077q0-.865.585-1.335t1.67-.47q.484 0 .93.089.445.089.875.266zM563.298 80.276v1.708h2.245v.768h-2.245v3.266q0 .666.252.93.253.262.881.262h1.112V88h-1.209q-1.111 0-1.568-.446-.456-.446-.456-1.536v-3.266h-1.606v-.768h1.606v-1.708zM570.309 82.677q-.752 0-1.14.586-.386.585-.386 1.735 0 1.144.387 1.732.387.588 1.139.588.757 0 1.144-.588.386-.588.386-1.732 0-1.15-.386-1.735-.387-.586-1.144-.586zm0-.838q1.251 0 1.914.811.664.811.664 2.348 0 1.541-.66 2.35-.662.808-1.918.808-1.252 0-1.913-.809-.66-.808-.66-2.35 0-1.536.66-2.347.661-.81 1.913-.81zM580.204 83.225q-.317-.247-.645-.36-.328-.113-.72-.113-.923 0-1.412.58-.489.58-.489 1.676V88h-.994v-6.016h.994v1.177q.247-.64.76-.98.513-.342 1.217-.342.365 0 .682.092.317.091.607.284zM587.016 84.498v.483h-4.281v.033q-.043 1.23.47 1.767.513.537 1.447.537.473 0 .989-.15.515-.15 1.1-.457v.983q-.563.23-1.087.346-.524.116-1.012.116-1.402 0-2.192-.84-.79-.841-.79-2.318 0-1.44.774-2.3.774-.859 2.063-.859 1.149 0 1.812.78.664.778.707 1.879zm-.989-.29q-.064-.623-.454-1.077-.389-.454-1.12-.454-.714 0-1.176.473-.462.473-.505 1.063zM592.608 82.752v-3.11h.989V88h-.989v-.757q-.247.445-.658.68-.41.233-.948.233-1.09 0-1.716-.846-.625-.846-.625-2.334 0-1.466.628-2.301.628-.836 1.713-.836.543 0 .956.234.414.234.65.68zm-2.905 2.246q0 1.149.365 1.734.365.586 1.08.586.714 0 1.087-.59.373-.592.373-1.73 0-1.144-.373-1.733-.373-.588-1.088-.588-.714 0-1.08.586-.364.585-.364 1.735zM603.697 82.006h2.53v5.226h1.96V88h-4.909v-.768h1.96v-4.458h-1.54zm1.542-2.337h.988v1.247h-.988zM614.645 84.272V88h-.994v-3.728q0-.81-.284-1.192-.285-.381-.892-.381-.693 0-1.066.491-.373.492-.373 1.41V88h-.989v-6.016h.989v.903q.263-.516.714-.782.451-.266 1.069-.266.918 0 1.372.605.454.604.454 1.828zM626.63 82.597q.183-.387.465-.572.282-.186.68-.186.725 0 1.023.562.298.56.298 2.113V88h-.902v-3.443q0-1.273-.142-1.582-.143-.308-.519-.308-.43 0-.588.33-.158.33-.158 1.56V88h-.903v-3.443q0-1.289-.153-1.59-.153-.3-.55-.3-.392 0-.546.33-.153.33-.153 1.56V88h-.897v-6.016h.897v.516q.178-.322.444-.491.265-.17.604-.17.408 0 .68.188.27.188.42.57zM636.016 84.498v.483h-4.281v.033q-.043 1.23.47 1.767.513.537 1.447.537.473 0 .989-.15.515-.15 1.1-.457v.983q-.563.23-1.087.346-.524.116-1.012.116-1.402 0-2.192-.84-.79-.841-.79-2.318 0-1.44.774-2.3.774-.859 2.063-.859 1.149 0 1.812.78.664.778.707 1.879zm-.989-.29q-.064-.623-.454-1.077-.389-.454-1.12-.454-.714 0-1.176.473-.462.473-.505 1.063zM640.63 82.597q.183-.387.465-.572.282-.186.68-.186.725 0 1.023.562.298.56.298 2.113V88h-.902v-3.443q0-1.273-.142-1.582-.143-.308-.519-.308-.43 0-.588.33-.158.33-.158 1.56V88h-.903v-3.443q0-1.289-.153-1.59-.153-.3-.55-.3-.392 0-.546.33-.153.33-.153 1.56V88h-.897v-6.016h.897v.516q.178-.322.444-.491.265-.17.604-.17.408 0 .68.188.27.188.42.57zM647.309 82.677q-.752 0-1.14.586-.386.585-.386 1.735 0 1.144.387 1.732.387.588 1.139.588.757 0 1.144-.588.386-.588.386-1.732 0-1.15-.386-1.735-.387-.586-1.144-.586zm0-.838q1.251 0 1.914.811.664.811.664 2.348 0 1.541-.66 2.35-.662.808-1.918.808-1.252 0-1.913-.809-.66-.808-.66-2.35 0-1.536.66-2.347.661-.81 1.913-.81zM657.204 83.225q-.317-.247-.645-.36-.328-.113-.72-.113-.923 0-1.412.58-.489.58-.489 1.676V88h-.994v-6.016h.994v1.177q.247-.64.76-.98.513-.342 1.217-.342.365 0 .682.092.317.091.607.284zM662.608 86.066q-.247.629-.628 1.655-.532 1.418-.714 1.73-.247.418-.618.628-.37.21-.865.21h-.795v-.828h.586q.435 0 .682-.253.247-.252.628-1.305l-2.325-5.919h1.047l1.783 4.705 1.757-4.705h1.047zM667.374 86.061h1.676v1.423l-1.193 2.315-1.074.006.591-2.32zM680.047 85.723v-3.728h.989v3.728q0 .81.287 1.192.287.381.889.381.698 0 1.069-.491.37-.492.37-1.41v-3.4h.994V88h-.994v-.902q-.263.52-.717.79-.454.268-1.06.268-.924 0-1.375-.604-.452-.605-.452-1.83zM691.645 84.272V88h-.994v-3.728q0-.81-.284-1.192-.285-.381-.892-.381-.693 0-1.066.491-.373.492-.373 1.41V88h-.989v-6.016h.989v.903q.263-.516.714-.782.451-.266 1.069-.266.918 0 1.372.605.454.604.454 1.828zM694.047 85.723v-3.728h.989v3.728q0 .81.287 1.192.287.381.889.381.698 0 1.069-.491.37-.492.37-1.41v-3.4h.994V88h-.994v-.902q-.263.52-.717.79-.454.268-1.06.268-.924 0-1.375-.604-.452-.605-.452-1.83zM705.226 82.194v.967q-.424-.247-.854-.371-.43-.123-.875-.123-.672 0-1.002.217-.33.218-.33.663 0 .403.247.602.247.199 1.23.387l.397.075q.736.14 1.115.558.378.42.378 1.09 0 .892-.634 1.395-.633.502-1.761.502-.446 0-.935-.094-.489-.094-1.058-.282v-1.02q.553.284 1.058.426.505.143.956.143.655 0 1.015-.266.36-.266.36-.744 0-.688-1.316-.95l-.043-.012-.37-.075q-.854-.166-1.246-.561t-.392-1.077q0-.865.585-1.335t1.67-.47q.484 0 .93.089.445.089.875.266zM713.016 84.498v.483h-4.281v.033q-.043 1.23.47 1.767.513.537 1.447.537.473 0 .989-.15.515-.15 1.1-.457v.983q-.563.23-1.087.346-.524.116-1.012.116-1.402 0-2.192-.84-.79-.841-.79-2.318 0-1.44.774-2.3.774-.859 2.063-.859 1.149 0 1.812.78.664.778.707 1.879zm-.989-.29q-.064-.623-.454-1.077-.389-.454-1.12-.454-.714 0-1.176.473-.462.473-.505 1.063zM718.608 82.752v-3.11h.989V88h-.989v-.757q-.247.445-.658.68-.41.233-.948.233-1.09 0-1.716-.846-.625-.846-.625-2.334 0-1.466.628-2.301.628-.836 1.713-.836.543 0 .956.234.414.234.65.68zm-2.905 2.246q0 1.149.365 1.734.365.586 1.08.586.714 0 1.087-.59.373-.592.373-1.73 0-1.144-.373-1.733-.373-.588-1.088-.588-.714 0-1.08.586-.364.585-.364 1.735zM13.005 55.984l-2.154 2.88L13.214 62H12.07l-1.761-2.412L8.552 62H7.408l2.363-3.137-2.153-2.879h1.095l1.596 2.176 1.584-2.176zM16.003 61.087h3.685V62h-4.872v-.913q1.005-1.058 1.757-1.87.752-.81 1.036-1.143.537-.656.725-1.061.188-.406.188-.83 0-.671-.394-1.053-.395-.381-1.083-.381-.488 0-1.025.177-.538.178-1.14.537v-1.095q.554-.264 1.089-.398.534-.134 1.055-.134 1.176 0 1.893.626.717.625.717 1.64 0 .516-.239 1.032-.239.515-.776 1.138-.3.35-.873.967-.572.618-1.743 1.848zM24.309 53.863q1.283 0 1.941 1.047.658 1.048.658 3.1 0 2.051-.658 3.098-.658 1.048-1.941 1.048-1.284 0-1.94-1.048-.655-1.047-.655-3.099 0-2.051.656-3.099.655-1.047 1.939-1.047zm0 7.433q.762 0 1.136-.81.373-.812.373-2.477 0-.886-.108-1.6l-2.556 4.001q.403.886 1.155.886zm0-6.574q-.758 0-1.131.811t-.373 2.476q0 .758.102 1.418l2.503-3.99q-.409-.715-1.101-.715zM28.548 58.111h5.693v.908h-5.693zM38.309 53.863q1.283 0 1.941 1.047.658 1.048.658 3.1 0 2.051-.658 3.098-.658 1.048-1.941 1.048-1.284 0-1.94-1.048-.655-1.047-.655-3.099 0-2.051.656-3.099.655-1.047 1.939-1.047zm0 7.433q.762 0 1.136-.81.373-.812.373-2.477 0-.886-.108-1.6l-2.556 4.001q.403.886 1.155.886zm0-6.574q-.758 0-1.131.811t-.373 2.476q0 .758.102 1.418l2.503-3.99q-.409-.715-1.101-.715zM48.005 55.984l-2.154 2.88L48.214 62H47.07l-1.761-2.412L43.552 62h-1.144l2.363-3.137-2.153-2.879h1.095l1.596 2.176 1.584-2.176zM53.168 57.708q.79.21 1.208.744.42.535.42 1.335 0 1.107-.744 1.738-.744.63-2.06.63-.554 0-1.128-.101-.575-.102-1.128-.296v-1.08q.548.285 1.08.425.531.14 1.058.14.891 0 1.37-.403.477-.403.477-1.16 0-.699-.478-1.11-.478-.41-1.294-.41h-.827v-.892h.827q.746 0 1.165-.328.42-.327.42-.913 0-.617-.39-.948-.39-.33-1.11-.33-.477 0-.988.107-.51.108-1.068.323v-1q.65-.171 1.157-.257.508-.086.9-.086 1.17 0 1.871.588.701.588.701 1.56 0 .661-.367 1.101-.368.44-1.072.623zM61.71 53.643v.821h-1.123q-.532 0-.739.218-.206.217-.206.77v.532h2.067v.768h-2.067V62h-.989v-5.248h-1.606v-.768h1.606v-.419q0-.988.454-1.455.454-.467 1.415-.467zM80.309 53.863q1.283 0 1.941 1.047.658 1.048.658 3.1 0 2.051-.658 3.098-.658 1.048-1.941 1.048-1.284 0-1.94-1.048-.655-1.047-.655-3.099 0-2.051.656-3.099.655-1.047 1.939-1.047zm0 7.433q.762 0 1.136-.81.373-.812.373-2.477 0-.886-.108-1.6l-2.556 4.001q.403.886 1.155.886zm0-6.574q-.758 0-1.131.811t-.373 2.476q0 .758.102 1.418l2.503-3.99q-.409-.715-1.101-.715zM90.005 55.984l-2.154 2.88L90.214 62H89.07l-1.761-2.412L85.552 62h-1.144l2.363-3.137-2.153-2.879h1.095l1.596 2.176 1.584-2.176zM96.71 53.643v.821h-1.123q-.532 0-.739.218-.206.217-.206.77v.532h2.067v.768h-2.067V62h-.989v-5.248h-1.606v-.768h1.606v-.419q0-.988.454-1.455.454-.467 1.415-.467zM103.71 53.643v.821h-1.123q-.532 0-.739.218-.206.217-.206.77v.532h2.067v.768h-2.067V62h-.989v-5.248h-1.606v-.768h1.606v-.419q0-.988.454-1.455.454-.467 1.415-.467zM110.71 53.643v.821h-1.123q-.532 0-.739.218-.206.217-.206.77v.532h2.067v.768h-2.067V62h-.989v-5.248h-1.606v-.768h1.606v-.419q0-.988.454-1.455.454-.467 1.415-.467zM117.71 53.643v.821h-1.123q-.532 0-.739.218-.206.217-.206.77v.532h2.067v.768h-2.067V62h-.989v-5.248h-1.606v-.768h1.606v-.419q0-.988.454-1.455.454-.467 1.415-.467zM124.71 53.643v.821h-1.123q-.532 0-.739.218-.206.217-.206.77v.532h2.067v.768h-2.067V62h-.989v-5.248h-1.606v-.768h1.606v-.419q0-.988.454-1.455.454-.467 1.415-.467zM131.71 53.643v.821h-1.123q-.532 0-.739.218-.206.217-.206.77v.532h2.067v.768h-2.067V62h-.989v-5.248h-1.606v-.768h1.606v-.419q0-.988.454-1.455.454-.467 1.415-.467zM138.71 53.643v.821h-1.123q-.532 0-.739.218-.206.217-.206.77v.532h2.067v.768h-2.067V62h-.989v-5.248h-1.606v-.768h1.606v-.419q0-.988.454-1.455.454-.467 1.415-.467zM145.71 53.643v.821h-1.123q-.532 0-.739.218-.206.217-.206.77v.532h2.067v.768h-2.067V62h-.989v-5.248h-1.606v-.768h1.606v-.419q0-.988.454-1.455.454-.467 1.415-.467zM152.71 53.643v.821h-1.123q-.532 0-.739.218-.206.217-.206.77v.532h2.067v.768h-2.067V62h-.989v-5.248h-1.606v-.768h1.606v-.419q0-.988.454-1.455.454-.467 1.415-.467zM159.71 53.643v.821h-1.123q-.532 0-.739.218-.206.217-.206.77v.532h2.067v.768h-2.067V62h-.989v-5.248h-1.606v-.768h1.606v-.419q0-.988.454-1.455.454-.467 1.415-.467zM166.71 53.643v.821h-1.123q-.532 0-.739.218-.206.217-.206.77v.532h2.067v.768h-2.067V62h-.989v-5.248h-1.606v-.768h1.606v-.419q0-.988.454-1.455.454-.467 1.415-.467zM173.71 53.643v.821h-1.123q-.532 0-.739.218-.206.217-.206.77v.532h2.067v.768h-2.067V62h-.989v-5.248h-1.606v-.768h1.606v-.419q0-.988.454-1.455.454-.467 1.415-.467zM180.71 53.643v.821h-1.123q-.532 0-.739.218-.206.217-.206.77v.532h2.067v.768h-2.067V62h-.989v-5.248h-1.606v-.768h1.606v-.419q0-.988.454-1.455.454-.467 1.415-.467zM187.71 53.643v.821h-1.123q-.532 0-.739.218-.206.217-.206.77v.532h2.067v.768h-2.067V62h-.989v-5.248h-1.606v-.768h1.606v-.419q0-.988.454-1.455.454-.467 1.415-.467zM194.71 53.643v.821h-1.123q-.532 0-.739.218-.206.217-.206.77v.532h2.067v.768h-2.067V62h-.989v-5.248h-1.606v-.768h1.606v-.419q0-.988.454-1.455.454-.467 1.415-.467zM201.71 53.643v.821h-1.123q-.532 0-.739.218-.206.217-.206.77v.532h2.067v.768h-2.067V62h-.989v-5.248h-1.606v-.768h1.606v-.419q0-.988.454-1.455.454-.467 1.415-.467zM208.71 53.643v.821h-1.123q-.532 0-.739.218-.206.217-.206.77v.532h2.067v.768h-2.067V62h-.989v-5.248h-1.606v-.768h1.606v-.419q0-.988.454-1.455.454-.467 1.415-.467zM215.71 53.643v.821h-1.123q-.532 0-.739.218-.206.217-.206.77v.532h2.067v.768h-2.067V62h-.989v-5.248h-1.606v-.768h1.606v-.419q0-.988.454-1.455.454-.467 1.415-.467zM222.71 53.643v.821h-1.123q-.532 0-.739.218-.206.217-.206.77v.532h2.067v.768h-2.067V62h-.989v-5.248h-1.606v-.768h1.606v-.419q0-.988.454-1.455.454-.467 1.415-.467zM229.71 53.643v.821h-1.123q-.532 0-.739.218-.206.217-.206.77v.532h2.067v.768h-2.067V62h-.989v-5.248h-1.606v-.768h1.606v-.419q0-.988.454-1.455.454-.467 1.415-.467zM236.71 53.643v.821h-1.123q-.532 0-.739.218-.206.217-.206.77v.532h2.067v.768h-2.067V62h-.989v-5.248h-1.606v-.768h1.606v-.419q0-.988.454-1.455.454-.467 1.415-.467zM243.71 53.643v.821h-1.123q-.532 0-.739.218-.206.217-.206.77v.532h2.067v.768h-2.067V62h-.989v-5.248h-1.606v-.768h1.606v-.419q0-.988.454-1.455.454-.467 1.415-.467zM250.71 53.643v.821h-1.123q-.532 0-.739.218-.206.217-.206.77v.532h2.067v.768h-2.067V62h-.989v-5.248h-1.606v-.768h1.606v-.419q0-.988.454-1.455.454-.467 1.415-.467zM257.71 53.643v.821h-1.123q-.532 0-.739.218-.206.217-.206.77v.532h2.067v.768h-2.067V62h-.989v-5.248h-1.606v-.768h1.606v-.419q0-.988.454-1.455.454-.467 1.415-.467zM264.71 53.643v.821h-1.123q-.532 0-.739.218-.206.217-.206.77v.532h2.067v.768h-2.067V62h-.989v-5.248h-1.606v-.768h1.606v-.419q0-.988.454-1.455.454-.467 1.415-.467zM271.71 53.643v.821h-1.123q-.532 0-.739.218-.206.217-.206.77v.532h2.067v.768h-2.067V62h-.989v-5.248h-1.606v-.768h1.606v-.419q0-.988.454-1.455.454-.467 1.415-.467zM278.71 53.643v.821h-1.123q-.532 0-.739.218-.206.217-.206.77v.532h2.067v.768h-2.067V62h-.989v-5.248h-1.606v-.768h1.606v-.419q0-.988.454-1.455.454-.467 1.415-.467zM285.71 53.643v.821h-1.123q-.532 0-.739.218-.206.217-.206.77v.532h2.067v.768h-2.067V62h-.989v-5.248h-1.606v-.768h1.606v-.419q0-.988.454-1.455.454-.467 1.415-.467zM292.71 53.643v.821h-1.123q-.532 0-.739.218-.206.217-.206.77v.532h2.067v.768h-2.067V62h-.989v-5.248h-1.606v-.768h1.606v-.419q0-.988.454-1.455.454-.467 1.415-.467zM299.71 53.643v.821h-1.123q-.532 0-.739.218-.206.217-.206.77v.532h2.067v.768h-2.067V62h-.989v-5.248h-1.606v-.768h1.606v-.419q0-.988.454-1.455.454-.467 1.415-.467zM306.71 53.643v.821h-1.123q-.532 0-.739.218-.206.217-.206.77v.532h2.067v.768h-2.067V62h-.989v-5.248h-1.606v-.768h1.606v-.419q0-.988.454-1.455.454-.467 1.415-.467zM313.71 53.643v.821h-1.123q-.532 0-.739.218-.206.217-.206.77v.532h2.067v.768h-2.067V62h-.989v-5.248h-1.606v-.768h1.606v-.419q0-.988.454-1.455.454-.467 1.415-.467zM320.71 53.643v.821h-1.123q-.532 0-.739.218-.206.217-.206.77v.532h2.067v.768h-2.067V62h-.989v-5.248h-1.606v-.768h1.606v-.419q0-.988.454-1.455.454-.467 1.415-.467zM327.71 53.643v.821h-1.123q-.532 0-.739.218-.206.217-.206.77v.532h2.067v.768h-2.067V62h-.989v-5.248h-1.606v-.768h1.606v-.419q0-.988.454-1.455.454-.467 1.415-.467zM334.71 53.643v.821h-1.123q-.532 0-.739.218-.206.217-.206.77v.532h2.067v.768h-2.067V62h-.989v-5.248h-1.606v-.768h1.606v-.419q0-.988.454-1.455.454-.467 1.415-.467zM341.71 53.643v.821h-1.123q-.532 0-.739.218-.206.217-.206.77v.532h2.067v.768h-2.067V62h-.989v-5.248h-1.606v-.768h1.606v-.419q0-.988.454-1.455.454-.467 1.415-.467zM348.71 53.643v.821h-1.123q-.532 0-.739.218-.206.217-.206.77v.532h2.067v.768h-2.067V62h-.989v-5.248h-1.606v-.768h1.606v-.419q0-.988.454-1.455.454-.467 1.415-.467zM355.71 53.643v.821h-1.123q-.532 0-.739.218-.206.217-.206.77v.532h2.067v.768h-2.067V62h-.989v-5.248h-1.606v-.768h1.606v-.419q0-.988.454-1.455.454-.467 1.415-.467zM362.71 53.643v.821h-1.123q-.532 0-.739.218-.206.217-.206.77v.532h2.067v.768h-2.067V62h-.989v-5.248h-1.606v-.768h1.606v-.419q0-.988.454-1.455.454-.467 1.415-.467zM369.71 53.643v.821h-1.123q-.532 0-.739.218-.206.217-.206.77v.532h2.067v.768h-2.067V62h-.989v-5.248h-1.606v-.768h1.606v-.419q0-.988.454-1.455.454-.467 1.415-.467zM376.71 53.643v.821h-1.123q-.532 0-.739.218-.206.217-.206.77v.532h2.067v.768h-2.067V62h-.989v-5.248h-1.606v-.768h1.606v-.419q0-.988.454-1.455.454-.467 1.415-.467zM383.71 53.643v.821h-1.123q-.532 0-.739.218-.206.217-.206.77v.532h2.067v.768h-2.067V62h-.989v-5.248h-1.606v-.768h1.606v-.419q0-.988.454-1.455.454-.467 1.415-.467zM390.71 53.643v.821h-1.123q-.532 0-.739.218-.206.217-.206.77v.532h2.067v.768h-2.067V62h-.989v-5.248h-1.606v-.768h1.606v-.419q0-.988.454-1.455.454-.467 1.415-.467zM397.71 53.643v.821h-1.123q-.532 0-.739.218-.206.217-.206.77v.532h2.067v.768h-2.067V62h-.989v-5.248h-1.606v-.768h1.606v-.419q0-.988.454-1.455.454-.467 1.415-.467zM404.71 53.643v.821h-1.123q-.532 0-.739.218-.206.217-.206.77v.532h2.067v.768h-2.067V62h-.989v-5.248h-1.606v-.768h1.606v-.419q0-.988.454-1.455.454-.467 1.415-.467zM411.71 53.643v.821h-1.123q-.532 0-.739.218-.206.217-.206.77v.532h2.067v.768h-2.067V62h-.989v-5.248h-1.606v-.768h1.606v-.419q0-.988.454-1.455.454-.467 1.415-.467zM418.71 53.643v.821h-1.123q-.532 0-.739.218-.206.217-.206.77v.532h2.067v.768h-2.067V62h-.989v-5.248h-1.606v-.768h1.606v-.419q0-.988.454-1.455.454-.467 1.415-.467zM425.71 53.643v.821h-1.123q-.532 0-.739.218-.206.217-.206.77v.532h2.067v.768h-2.067V62h-.989v-5.248h-1.606v-.768h1.606v-.419q0-.988.454-1.455.454-.467 1.415-.467zM432.71 53.643v.821h-1.123q-.532 0-.739.218-.206.217-.206.77v.532h2.067v.768h-2.067V62h-.989v-5.248h-1.606v-.768h1.606v-.419q0-.988.454-1.455.454-.467 1.415-.467zM439.71 53.643v.821h-1.123q-.532 0-.739.218-.206.217-.206.77v.532h2.067v.768h-2.067V62h-.989v-5.248h-1.606v-.768h1.606v-.419q0-.988.454-1.455.454-.467 1.415-.467zM446.71 53.643v.821h-1.123q-.532 0-.739.218-.206.217-.206.77v.532h2.067v.768h-2.067V62h-.989v-5.248h-1.606v-.768h1.606v-.419q0-.988.454-1.455.454-.467 1.415-.467zM453.71 53.643v.821h-1.123q-.532 0-.739.218-.206.217-.206.77v.532h2.067v.768h-2.067V62h-.989v-5.248h-1.606v-.768h1.606v-.419q0-.988.454-1.455.454-.467 1.415-.467zM460.71 53.643v.821h-1.123q-.532 0-.739.218-.206.217-.206.77v.532h2.067v.768h-2.067V62h-.989v-5.248h-1.606v-.768h1.606v-.419q0-.988.454-1.455.454-.467 1.415-.467zM467.71 53.643v.821h-1.123q-.532 0-.739.218-.206.217-.206.77v.532h2.067v.768h-2.067V62h-.989v-5.248h-1.606v-.768h1.606v-.419q0-.988.454-1.455.454-.467 1.415-.467zM474.71 53.643v.821h-1.123q-.532 0-.739.218-.206.217-.206.77v.532h2.067v.768h-2.067V62h-.989v-5.248h-1.606v-.768h1.606v-.419q0-.988.454-1.455.454-.467 1.415-.467zM481.71 53.643v.821h-1.123q-.532 0-.739.218-.206.217-.206.77v.532h2.067v.768h-2.067V62h-.989v-5.248h-1.606v-.768h1.606v-.419q0-.988.454-1.455.454-.467 1.415-.467zM488.71 53.643v.821h-1.123q-.532 0-.739.218-.206.217-.206.77v.532h2.067v.768h-2.067V62h-.989v-5.248h-1.606v-.768h1.606v-.419q0-.988.454-1.455.454-.467 1.415-.467zM495.71 53.643v.821h-1.123q-.532 0-.739.218-.206.217-.206.77v.532h2.067v.768h-2.067V62h-.989v-5.248h-1.606v-.768h1.606v-.419q0-.988.454-1.455.454-.467 1.415-.467zM502.71 53.643v.821h-1.123q-.532 0-.739.218-.206.217-.206.77v.532h2.067v.768h-2.067V62h-.989v-5.248h-1.606v-.768h1.606v-.419q0-.988.454-1.455.454-.467 1.415-.467zM509.71 53.643v.821h-1.123q-.532 0-.739.218-.206.217-.206.77v.532h2.067v.768h-2.067V62h-.989v-5.248h-1.606v-.768h1.606v-.419q0-.988.454-1.455.454-.467 1.415-.467zM516.71 53.643v.821h-1.123q-.532 0-.739.218-.206.217-.206.77v.532h2.067v.768h-2.067V62h-.989v-5.248h-1.606v-.768h1.606v-.419q0-.988.454-1.455.454-.467 1.415-.467zM523.71 53.643v.821h-1.123q-.532 0-.739.218-.206.217-.206.77v.532h2.067v.768h-2.067V62h-.989v-5.248h-1.606v-.768h1.606v-.419q0-.988.454-1.455.454-.467 1.415-.467zM530.71 53.643v.821h-1.123q-.532 0-.739.218-.206.217-.206.77v.532h2.067v.768h-2.067V62h-.989v-5.248h-1.606v-.768h1.606v-.419q0-.988.454-1.455.454-.467 1.415-.467zM537.71 53.643v.821h-1.123q-.532 0-.739.218-.206.217-.206.77v.532h2.067v.768h-2.067V62h-.989v-5.248h-1.606v-.768h1.606v-.419q0-.988.454-1.455.454-.467 1.415-.467zM556.862 59.825q0 .666.244 1.004.245.338.723.338h1.154V62h-1.251q-.886 0-1.372-.567-.486-.566-.486-1.608v-5.441h-1.585v-.774h2.573zM563.309 56.677q-.752 0-1.14.586-.386.585-.386 1.735 0 1.144.387 1.732.387.588 1.139.588.757 0 1.144-.588.386-.588.386-1.732 0-1.15-.386-1.735-.387-.586-1.144-.586zm0-.838q1.251 0 1.914.811.664.811.664 2.348 0 1.541-.66 2.35-.662.808-1.918.808-1.252 0-1.913-.809-.66-.808-.66-2.35 0-1.536.66-2.347.661-.81 1.913-.81zM571.608 58.944q0-1.112-.362-1.69-.363-.577-1.056-.577-.725 0-1.106.578-.381.577-.381 1.689t.384 1.694q.384.583 1.114.583.682 0 1.045-.585.362-.586.362-1.692zm.989 2.67q0 1.353-.64 2.051-.639.698-1.88.698-.408 0-.853-.075-.446-.075-.892-.22v-.978q.526.247.956.366.43.118.79.118.8 0 1.165-.435t.365-1.38V61.043q-.236.505-.644.752-.408.247-.994.247-1.053 0-1.68-.843-.63-.844-.63-2.256 0-1.418.63-2.261.627-.844 1.68-.844.58 0 .983.231t.655.715v-.78h.989zM578.608 58.944q0-1.112-.362-1.69-.363-.577-1.056-.577-.725 0-1.106.578-.381.577-.381 1.689t.384 1.694q.384.583 1.114.583.682 0 1.045-.585.362-.586.362-1.692zm.989 2.67q0 1.353-.64 2.051-.639.698-1.88.698-.408 0-.853-.075-.446-.075-.892-.22v-.978q.526.247.956.366.43.118.79.118.8 0 1.165-.435t.365-1.38V61.043q-.236.505-.644.752-.408.247-.994.247-1.053 0-1.68-.843-.63-.844-.63-2.256 0-1.418.63-2.261.627-.844 1.68-.844.58 0 .983.231t.655.715v-.78h.989zM587.016 58.498v.483h-4.281v.033q-.043 1.23.47 1.767.513.537 1.447.537.473 0 .989-.15.515-.15 1.1-.457v.983q-.563.23-1.087.346-.524.116-1.012.116-1.402 0-2.192-.84-.79-.841-.79-2.318 0-1.44.774-2.3.774-.859 2.063-.859 1.149 0 1.812.78.664.778.707 1.879zm-.989-.29q-.064-.623-.454-1.077-.389-.454-1.12-.454-.714 0-1.176.473-.462.473-.505 1.063zM592.608 56.752v-3.11h.989V62h-.989v-.757q-.247.445-.658.68-.41.233-.948.233-1.09 0-1.716-.846-.625-.846-.625-2.334 0-1.466.628-2.301.628-.836 1.713-.836.543 0 .956.234.414.234.65.68zm-2.905 2.246q0 1.149.365 1.734.365.586 1.08.586.714 0 1.087-.59.373-.592.373-1.73 0-1.144-.373-1.733-.373-.588-1.088-.588-.714 0-1.08.586-.364.585-.364 1.735zM605.77 58.976h-.327q-.865 0-1.303.304-.437.303-.437.905 0 .542.327.843.328.3.908.3.816 0 1.284-.566.467-.567.472-1.566v-.22zm1.918-.408V62h-.994v-.892q-.317.538-.797.793-.481.255-1.168.255-.919 0-1.467-.519-.548-.518-.548-1.388 0-1.004.674-1.525.674-.521 1.98-.521h1.326v-.156q-.005-.72-.365-1.045-.36-.325-1.15-.325-.504 0-1.02.145-.515.145-1.004.425v-.989q.548-.21 1.05-.314.502-.105.975-.105.746 0 1.275.22.53.22.857.661.204.269.29.664.086.394.086 1.184zM614.226 56.194v.967q-.424-.247-.854-.371-.43-.123-.875-.123-.672 0-1.002.217-.33.218-.33.663 0 .403.247.602.247.199 1.23.387l.397.075q.736.14 1.115.558.378.42.378 1.09 0 .892-.634 1.395-.633.502-1.761.502-.446 0-.935-.094-.489-.094-1.058-.282v-1.02q.553.284 1.058.426.505.143.956.143.655 0 1.015-.266.36-.266.36-.744 0-.688-1.316-.95l-.043-.012-.37-.075q-.854-.166-1.246-.561t-.392-1.077q0-.865.585-1.335t1.67-.47q.484 0 .93.089.445.089.875.266z"/><path d="M628.226 56.194v.967q-.424-.247-.854-.371-.43-.123-.875-.123-.672 0-1.002.217-.33.218-.33.663 0 .403.247.602.247.199 1.23.387l.397.075q.736.14 1.115.558.378.42.378 1.09 0 .892-.634 1.395-.633.502-1.761.502-.446 0-.935-.094-.489-.094-1.058-.282v-1.02q.553.284 1.058.426.505.143.956.143.655 0 1.015-.266.36-.266.36-.744 0-.688-1.316-.95l-.043-.012-.37-.075q-.854-.166-1.246-.561t-.392-1.077q0-.865.585-1.335t1.67-.47q.484 0 .93.089.445.089.875.266zM636.016 58.498v.483h-4.281v.033q-.043 1.23.47 1.767.513.537 1.447.537.473 0 .989-.15.515-.15 1.1-.457v.983q-.563.23-1.087.346-.524.116-1.012.116-1.402 0-2.192-.84-.79-.841-.79-2.318 0-1.44.774-2.3.774-.859 2.063-.859 1.149 0 1.812.78.664.778.707 1.879zm-.989-.29q-.064-.623-.454-1.077-.389-.454-1.12-.454-.714 0-1.176.473-.462.473-.505 1.063zM643.204 57.225q-.317-.247-.645-.36-.328-.113-.72-.113-.923 0-1.412.58-.489.58-.489 1.676V62h-.994v-6.016h.994v1.177q.247-.64.76-.98.513-.342 1.217-.342.365 0 .682.092.317.091.607.284zM645.697 56.006h2.53v5.226h1.96V62h-4.909v-.768h1.96v-4.458h-1.54zm1.542-2.337h.988v1.247h-.988zM654.77 58.976h-.327q-.865 0-1.303.304-.437.303-.437.905 0 .542.327.843.328.3.908.3.816 0 1.284-.566.467-.567.472-1.566v-.22zm1.918-.408V62h-.994v-.892q-.317.538-.797.793-.481.255-1.168.255-.919 0-1.467-.519-.548-.518-.548-1.388 0-1.004.674-1.525.674-.521 1.98-.521h1.326v-.156q-.005-.72-.365-1.045-.36-.325-1.15-.325-.504 0-1.02.145-.515.145-1.004.425v-.989q.548-.21 1.05-.314.502-.105.975-.105.746 0 1.275.22.53.22.857.661.204.269.29.664.086.394.086 1.184zM661.862 59.825q0 .666.244 1.004.245.338.723.338h1.154V62h-1.251q-.886 0-1.372-.567-.486-.566-.486-1.608v-5.441h-1.585v-.774h2.573z" fill="#F99"/><path d="M13.005 29.984l-2.154 2.88L13.214 36H12.07l-1.761-2.412L8.552 36H7.408l2.363-3.137-2.153-2.879h1.095l1.596 2.176 1.584-2.176zM17.309 27.863q1.283 0 1.941 1.047.658 1.048.658 3.1 0 2.051-.658 3.098-.658 1.048-1.941 1.048-1.284 0-1.94-1.048-.655-1.047-.655-3.099 0-2.051.656-3.099.655-1.047 1.939-1.047zm0 7.433q.762 0 1.136-.81.373-.812.373-2.477 0-.886-.108-1.6l-2.556 4.001q.403.886 1.155.886zm0-6.574q-.758 0-1.131.811t-.373 2.476q0 .758.102 1.418l2.503-3.99q-.409-.715-1.101-.715zM24.309 27.863q1.283 0 1.941 1.047.658 1.048.658 3.1 0 2.051-.658 3.098-.658 1.048-1.941 1.048-1.284 0-1.94-1.048-.655-1.047-.655-3.099 0-2.051.656-3.099.655-1.047 1.939-1.047zm0 7.433q.762 0 1.136-.81.373-.812.373-2.477 0-.886-.108-1.6l-2.556 4.001q.403.886 1.155.886zm0-6.574q-.758 0-1.131.811t-.373 2.476q0 .758.102 1.418l2.503-3.99q-.409-.715-1.101-.715zM28.548 32.111h5.693v.908h-5.693zM38.309 27.863q1.283 0 1.941 1.047.658 1.048.658 3.1 0 2.051-.658 3.098-.658 1.048-1.941 1.048-1.284 0-1.94-1.048-.655-1.047-.655-3.099 0-2.051.656-3.099.655-1.047 1.939-1.047zm0 7.433q.762 0 1.136-.81.373-.812.373-2.477 0-.886-.108-1.6l-2.556 4.001q.403.886 1.155.886zm0-6.574q-.758 0-1.131.811t-.373 2.476q0 .758.102 1.418l2.503-3.99q-.409-.715-1.101-.715zM48.005 29.984l-2.154 2.88L48.214 36H47.07l-1.761-2.412L43.552 36h-1.144l2.363-3.137-2.153-2.879h1.095l1.596 2.176 1.584-2.176zM50.45 35.092h1.687v-6.058l-2.02.972v-1.042l2.009-.956h1.085v7.084h1.665V36H50.45zM61.71 27.643v.821h-1.123q-.532 0-.739.218-.206.217-.206.77v.532h2.067v.768h-2.067V36h-.989v-5.248h-1.606v-.768h1.606v-.419q0-.988.454-1.455.454-.467 1.415-.467zM80.309 27.863q1.283 0 1.941 1.047.658 1.048.658 3.1 0 2.051-.658 3.098-.658 1.048-1.941 1.048-1.284 0-1.94-1.048-.655-1.047-.655-3.099 0-2.051.656-3.099.655-1.047 1.939-1.047zm0 7.433q.762 0 1.136-.81.373-.812.373-2.477 0-.886-.108-1.6l-2.556 4.001q.403.886 1.155.886zm0-6.574q-.758 0-1.131.811t-.373 2.476q0 .758.102 1.418l2.503-3.99q-.409-.715-1.101-.715zM90.005 29.984l-2.154 2.88L90.214 36H89.07l-1.761-2.412L85.552 36h-1.144l2.363-3.137-2.153-2.879h1.095l1.596 2.176 1.584-2.176zM96.71 27.643v.821h-1.123q-.532 0-.739.218-.206.217-.206.77v.532h2.067v.768h-2.067V36h-.989v-5.248h-1.606v-.768h1.606v-.419q0-.988.454-1.455.454-.467 1.415-.467zM103.71 27.643v.821h-1.123q-.532 0-.739.218-.206.217-.206.77v.532h2.067v.768h-2.067V36h-.989v-5.248h-1.606v-.768h1.606v-.419q0-.988.454-1.455.454-.467 1.415-.467zM110.71 27.643v.821h-1.123q-.532 0-.739.218-.206.217-.206.77v.532h2.067v.768h-2.067V36h-.989v-5.248h-1.606v-.768h1.606v-.419q0-.988.454-1.455.454-.467 1.415-.467zM117.71 27.643v.821h-1.123q-.532 0-.739.218-.206.217-.206.77v.532h2.067v.768h-2.067V36h-.989v-5.248h-1.606v-.768h1.606v-.419q0-.988.454-1.455.454-.467 1.415-.467zM124.71 27.643v.821h-1.123q-.532 0-.739.218-.206.217-.206.77v.532h2.067v.768h-2.067V36h-.989v-5.248h-1.606v-.768h1.606v-.419q0-.988.454-1.455.454-.467 1.415-.467zM131.71 27.643v.821h-1.123q-.532 0-.739.218-.206.217-.206.77v.532h2.067v.768h-2.067V36h-.989v-5.248h-1.606v-.768h1.606v-.419q0-.988.454-1.455.454-.467 1.415-.467zM138.71 27.643v.821h-1.123q-.532 0-.739.218-.206.217-.206.77v.532h2.067v.768h-2.067V36h-.989v-5.248h-1.606v-.768h1.606v-.419q0-.988.454-1.455.454-.467 1.415-.467zM145.71 27.643v.821h-1.123q-.532 0-.739.218-.206.217-.206.77v.532h2.067v.768h-2.067V36h-.989v-5.248h-1.606v-.768h1.606v-.419q0-.988.454-1.455.454-.467 1.415-.467zM152.71 27.643v.821h-1.123q-.532 0-.739.218-.206.217-.206.77v.532h2.067v.768h-2.067V36h-.989v-5.248h-1.606v-.768h1.606v-.419q0-.988.454-1.455.454-.467 1.415-.467zM159.71 27.643v.821h-1.123q-.532 0-.739.218-.206.217-.206.77v.532h2.067v.768h-2.067V36h-.989v-5.248h-1.606v-.768h1.606v-.419q0-.988.454-1.455.454-.467 1.415-.467zM166.71 27.643v.821h-1.123q-.532 0-.739.218-.206.217-.206.77v.532h2.067v.768h-2.067V36h-.989v-5.248h-1.606v-.768h1.606v-.419q0-.988.454-1.455.454-.467 1.415-.467zM173.71 27.643v.821h-1.123q-.532 0-.739.218-.206.217-.206.77v.532h2.067v.768h-2.067V36h-.989v-5.248h-1.606v-.768h1.606v-.419q0-.988.454-1.455.454-.467 1.415-.467zM180.71 27.643v.821h-1.123q-.532 0-.739.218-.206.217-.206.77v.532h2.067v.768h-2.067V36h-.989v-5.248h-1.606v-.768h1.606v-.419q0-.988.454-1.455.454-.467 1.415-.467zM187.71 27.643v.821h-1.123q-.532 0-.739.218-.206.217-.206.77v.532h2.067v.768h-2.067V36h-.989v-5.248h-1.606v-.768h1.606v-.419q0-.988.454-1.455.454-.467 1.415-.467zM194.71 27.643v.821h-1.123q-.532 0-.739.218-.206.217-.206.77v.532h2.067v.768h-2.067V36h-.989v-5.248h-1.606v-.768h1.606v-.419q0-.988.454-1.455.454-.467 1.415-.467zM201.71 27.643v.821h-1.123q-.532 0-.739.218-.206.217-.206.77v.532h2.067v.768h-2.067V36h-.989v-5.248h-1.606v-.768h1.606v-.419q0-.988.454-1.455.454-.467 1.415-.467zM208.71 27.643v.821h-1.123q-.532 0-.739.218-.206.217-.206.77v.532h2.067v.768h-2.067V36h-.989v-5.248h-1.606v-.768h1.606v-.419q0-.988.454-1.455.454-.467 1.415-.467zM215.71 27.643v.821h-1.123q-.532 0-.739.218-.206.217-.206.77v.532h2.067v.768h-2.067V36h-.989v-5.248h-1.606v-.768h1.606v-.419q0-.988.454-1.455.454-.467 1.415-.467zM222.71 27.643v.821h-1.123q-.532 0-.739.218-.206.217-.206.77v.532h2.067v.768h-2.067V36h-.989v-5.248h-1.606v-.768h1.606v-.419q0-.988.454-1.455.454-.467 1.415-.467zM229.71 27.643v.821h-1.123q-.532 0-.739.218-.206.217-.206.77v.532h2.067v.768h-2.067V36h-.989v-5.248h-1.606v-.768h1.606v-.419q0-.988.454-1.455.454-.467 1.415-.467zM236.71 27.643v.821h-1.123q-.532 0-.739.218-.206.217-.206.77v.532h2.067v.768h-2.067V36h-.989v-5.248h-1.606v-.768h1.606v-.419q0-.988.454-1.455.454-.467 1.415-.467zM243.71 27.643v.821h-1.123q-.532 0-.739.218-.206.217-.206.77v.532h2.067v.768h-2.067V36h-.989v-5.248h-1.606v-.768h1.606v-.419q0-.988.454-1.455.454-.467 1.415-.467zM250.71 27.643v.821h-1.123q-.532 0-.739.218-.206.217-.206.77v.532h2.067v.768h-2.067V36h-.989v-5.248h-1.606v-.768h1.606v-.419q0-.988.454-1.455.454-.467 1.415-.467zM257.71 27.643v.821h-1.123q-.532 0-.739.218-.206.217-.206.77v.532h2.067v.768h-2.067V36h-.989v-5.248h-1.606v-.768h1.606v-.419q0-.988.454-1.455.454-.467 1.415-.467zM264.71 27.643v.821h-1.123q-.532 0-.739.218-.206.217-.206.77v.532h2.067v.768h-2.067V36h-.989v-5.248h-1.606v-.768h1.606v-.419q0-.988.454-1.455.454-.467 1.415-.467zM271.71 27.643v.821h-1.123q-.532 0-.739.218-.206.217-.206.77v.532h2.067v.768h-2.067V36h-.989v-5.248h-1.606v-.768h1.606v-.419q0-.988.454-1.455.454-.467 1.415-.467zM278.71 27.643v.821h-1.123q-.532 0-.739.218-.206.217-.206.77v.532h2.067v.768h-2.067V36h-.989v-5.248h-1.606v-.768h1.606v-.419q0-.988.454-1.455.454-.467 1.415-.467zM285.71 27.643v.821h-1.123q-.532 0-.739.218-.206.217-.206.77v.532h2.067v.768h-2.067V36h-.989v-5.248h-1.606v-.768h1.606v-.419q0-.988.454-1.455.454-.467 1.415-.467zM292.71 27.643v.821h-1.123q-.532 0-.739.218-.206.217-.206.77v.532h2.067v.768h-2.067V36h-.989v-5.248h-1.606v-.768h1.606v-.419q0-.988.454-1.455.454-.467 1.415-.467zM299.71 27.643v.821h-1.123q-.532 0-.739.218-.206.217-.206.77v.532h2.067v.768h-2.067V36h-.989v-5.248h-1.606v-.768h1.606v-.419q0-.988.454-1.455.454-.467 1.415-.467zM306.71 27.643v.821h-1.123q-.532 0-.739.218-.206.217-.206.77v.532h2.067v.768h-2.067V36h-.989v-5.248h-1.606v-.768h1.606v-.419q0-.988.454-1.455.454-.467 1.415-.467zM313.71 27.643v.821h-1.123q-.532 0-.739.218-.206.217-.206.77v.532h2.067v.768h-2.067V36h-.989v-5.248h-1.606v-.768h1.606v-.419q0-.988.454-1.455.454-.467 1.415-.467zM320.71 27.643v.821h-1.123q-.532 0-.739.218-.206.217-.206.77v.532h2.067v.768h-2.067V36h-.989v-5.248h-1.606v-.768h1.606v-.419q0-.988.454-1.455.454-.467 1.415-.467zM327.71 27.643v.821h-1.123q-.532 0-.739.218-.206.217-.206.77v.532h2.067v.768h-2.067V36h-.989v-5.248h-1.606v-.768h1.606v-.419q0-.988.454-1.455.454-.467 1.415-.467zM334.71 27.643v.821h-1.123q-.532 0-.739.218-.206.217-.206.77v.532h2.067v.768h-2.067V36h-.989v-5.248h-1.606v-.768h1.606v-.419q0-.988.454-1.455.454-.467 1.415-.467zM341.71 27.643v.821h-1.123q-.532 0-.739.218-.206.217-.206.77v.532h2.067v.768h-2.067V36h-.989v-5.248h-1.606v-.768h1.606v-.419q0-.988.454-1.455.454-.467 1.415-.467zM348.71 27.643v.821h-1.123q-.532 0-.739.218-.206.217-.206.77v.532h2.067v.768h-2.067V36h-.989v-5.248h-1.606v-.768h1.606v-.419q0-.988.454-1.455.454-.467 1.415-.467zM355.71 27.643v.821h-1.123q-.532 0-.739.218-.206.217-.206.77v.532h2.067v.768h-2.067V36h-.989v-5.248h-1.606v-.768h1.606v-.419q0-.988.454-1.455.454-.467 1.415-.467zM362.71 27.643v.821h-1.123q-.532 0-.739.218-.206.217-.206.77v.532h2.067v.768h-2.067V36h-.989v-5.248h-1.606v-.768h1.606v-.419q0-.988.454-1.455.454-.467 1.415-.467zM369.71 27.643v.821h-1.123q-.532 0-.739.218-.206.217-.206.77v.532h2.067v.768h-2.067V36h-.989v-5.248h-1.606v-.768h1.606v-.419q0-.988.454-1.455.454-.467 1.415-.467zM376.71 27.643v.821h-1.123q-.532 0-.739.218-.206.217-.206.77v.532h2.067v.768h-2.067V36h-.989v-5.248h-1.606v-.768h1.606v-.419q0-.988.454-1.455.454-.467 1.415-.467zM383.71 27.643v.821h-1.123q-.532 0-.739.218-.206.217-.206.77v.532h2.067v.768h-2.067V36h-.989v-5.248h-1.606v-.768h1.606v-.419q0-.988.454-1.455.454-.467 1.415-.467zM390.71 27.643v.821h-1.123q-.532 0-.739.218-.206.217-.206.77v.532h2.067v.768h-2.067V36h-.989v-5.248h-1.606v-.768h1.606v-.419q0-.988.454-1.455.454-.467 1.415-.467zM397.71 27.643v.821h-1.123q-.532 0-.739.218-.206.217-.206.77v.532h2.067v.768h-2.067V36h-.989v-5.248h-1.606v-.768h1.606v-.419q0-.988.454-1.455.454-.467 1.415-.467zM404.71 27.643v.821h-1.123q-.532 0-.739.218-.206.217-.206.77v.532h2.067v.768h-2.067V36h-.989v-5.248h-1.606v-.768h1.606v-.419q0-.988.454-1.455.454-.467 1.415-.467zM411.71 27.643v.821h-1.123q-.532 0-.739.218-.206.217-.206.77v.532h2.067v.768h-2.067V36h-.989v-5.248h-1.606v-.768h1.606v-.419q0-.988.454-1.455.454-.467 1.415-.467zM418.71 27.643v.821h-1.123q-.532 0-.739.218-.206.217-.206.77v.532h2.067v.768h-2.067V36h-.989v-5.248h-1.606v-.768h1.606v-.419q0-.988.454-1.455.454-.467 1.415-.467zM425.71 27.643v.821h-1.123q-.532 0-.739.218-.206.217-.206.77v.532h2.067v.768h-2.067V36h-.989v-5.248h-1.606v-.768h1.606v-.419q0-.988.454-1.455.454-.467 1.415-.467zM432.71 27.643v.821h-1.123q-.532 0-.739.218-.206.217-.206.77v.532h2.067v.768h-2.067V36h-.989v-5.248h-1.606v-.768h1.606v-.419q0-.988.454-1.455.454-.467 1.415-.467zM439.71 27.643v.821h-1.123q-.532 0-.739.218-.206.217-.206.77v.532h2.067v.768h-2.067V36h-.989v-5.248h-1.606v-.768h1.606v-.419q0-.988.454-1.455.454-.467 1.415-.467zM446.71 27.643v.821h-1.123q-.532 0-.739.218-.206.217-.206.77v.532h2.067v.768h-2.067V36h-.989v-5.248h-1.606v-.768h1.606v-.419q0-.988.454-1.455.454-.467 1.415-.467zM453.71 27.643v.821h-1.123q-.532 0-.739.218-.206.217-.206.77v.532h2.067v.768h-2.067V36h-.989v-5.248h-1.606v-.768h1.606v-.419q0-.988.454-1.455.454-.467 1.415-.467zM460.71 27.643v.821h-1.123q-.532 0-.739.218-.206.217-.206.77v.532h2.067v.768h-2.067V36h-.989v-5.248h-1.606v-.768h1.606v-.419q0-.988.454-1.455.454-.467 1.415-.467zM467.71 27.643v.821h-1.123q-.532 0-.739.218-.206.217-.206.77v.532h2.067v.768h-2.067V36h-.989v-5.248h-1.606v-.768h1.606v-.419q0-.988.454-1.455.454-.467 1.415-.467zM474.71 27.643v.821h-1.123q-.532 0-.739.218-.206.217-.206.77v.532h2.067v.768h-2.067V36h-.989v-5.248h-1.606v-.768h1.606v-.419q0-.988.454-1.455.454-.467 1.415-.467zM481.71 27.643v.821h-1.123q-.532 0-.739.218-.206.217-.206.77v.532h2.067v.768h-2.067V36h-.989v-5.248h-1.606v-.768h1.606v-.419q0-.988.454-1.455.454-.467 1.415-.467zM488.71 27.643v.821h-1.123q-.532 0-.739.218-.206.217-.206.77v.532h2.067v.768h-2.067V36h-.989v-5.248h-1.606v-.768h1.606v-.419q0-.988.454-1.455.454-.467 1.415-.467zM495.71 27.643v.821h-1.123q-.532 0-.739.218-.206.217-.206.77v.532h2.067v.768h-2.067V36h-.989v-5.248h-1.606v-.768h1.606v-.419q0-.988.454-1.455.454-.467 1.415-.467zM502.71 27.643v.821h-1.123q-.532 0-.739.218-.206.217-.206.77v.532h2.067v.768h-2.067V36h-.989v-5.248h-1.606v-.768h1.606v-.419q0-.988.454-1.455.454-.467 1.415-.467zM509.71 27.643v.821h-1.123q-.532 0-.739.218-.206.217-.206.77v.532h2.067v.768h-2.067V36h-.989v-5.248h-1.606v-.768h1.606v-.419q0-.988.454-1.455.454-.467 1.415-.467zM516.71 27.643v.821h-1.123q-.532 0-.739.218-.206.217-.206.77v.532h2.067v.768h-2.067V36h-.989v-5.248h-1.606v-.768h1.606v-.419q0-.988.454-1.455.454-.467 1.415-.467zM523.71 27.643v.821h-1.123q-.532 0-.739.218-.206.217-.206.77v.532h2.067v.768h-2.067V36h-.989v-5.248h-1.606v-.768h1.606v-.419q0-.988.454-1.455.454-.467 1.415-.467zM530.71 27.643v.821h-1.123q-.532 0-.739.218-.206.217-.206.77v.532h2.067v.768h-2.067V36h-.989v-5.248h-1.606v-.768h1.606v-.419q0-.988.454-1.455.454-.467 1.415-.467zM537.71 27.643v.821h-1.123q-.532 0-.739.218-.206.217-.206.77v.532h2.067v.768h-2.067V36h-.989v-5.248h-1.606v-.768h1.606v-.419q0-.988.454-1.455.454-.467 1.415-.467zM556.862 33.825q0 .666.244 1.004.245.338.723.338h1.154V36h-1.251q-.886 0-1.372-.567-.486-.566-.486-1.608v-5.441h-1.585v-.774h2.573zM563.309 30.677q-.752 0-1.14.586-.386.585-.386 1.735 0 1.144.387 1.732.387.588 1.139.588.757 0 1.144-.588.386-.588.386-1.732 0-1.15-.386-1.735-.387-.586-1.144-.586zm0-.838q1.251 0 1.914.811.664.811.664 2.348 0 1.541-.66 2.35-.662.808-1.918.808-1.252 0-1.913-.809-.66-.808-.66-2.35 0-1.536.66-2.347.661-.81 1.913-.81zM571.608 32.944q0-1.112-.362-1.69-.363-.577-1.056-.577-.725 0-1.106.578-.381.577-.381 1.689t.384 1.694q.384.583 1.114.583.682 0 1.045-.585.362-.586.362-1.692zm.989 2.67q0 1.353-.64 2.051-.639.698-1.88.698-.408 0-.853-.075-.446-.075-.892-.22v-.978q.526.247.956.366.43.118.79.118.8 0 1.165-.435t.365-1.38V35.043q-.236.505-.644.752-.408.247-.994.247-1.053 0-1.68-.843-.63-.844-.63-2.256 0-1.418.63-2.261.627-.844 1.68-.844.58 0 .983.231t.655.715v-.78h.989zM578.608 32.944q0-1.112-.362-1.69-.363-.577-1.056-.577-.725 0-1.106.578-.381.577-.381 1.689t.384 1.694q.384.583 1.114.583.682 0 1.045-.585.362-.586.362-1.692zm.989 2.67q0 1.353-.64 2.051-.639.698-1.88.698-.408 0-.853-.075-.446-.075-.892-.22v-.978q.526.247.956.366.43.118.79.118.8 0 1.165-.435t.365-1.38V35.043q-.236.505-.644.752-.408.247-.994.247-1.053 0-1.68-.843-.63-.844-.63-2.256 0-1.418.63-2.261.627-.844 1.68-.844.58 0 .983.231t.655.715v-.78h.989zM587.016 32.498v.483h-4.281v.033q-.043 1.23.47 1.767.513.537 1.447.537.473 0 .989-.15.515-.15 1.1-.457v.983q-.563.23-1.087.346-.524.116-1.012.116-1.402 0-2.192-.84-.79-.841-.79-2.318 0-1.44.774-2.3.774-.859 2.063-.859 1.149 0 1.812.78.664.778.707 1.879zm-.989-.29q-.064-.623-.454-1.077-.389-.454-1.12-.454-.714 0-1.176.473-.462.473-.505 1.063zM592.608 30.752v-3.11h.989V36h-.989v-.757q-.247.445-.658.68-.41.233-.948.233-1.09 0-1.716-.846-.625-.846-.625-2.334 0-1.466.628-2.301.628-.836 1.713-.836.543 0 .956.234.414.234.65.68zm-2.905 2.246q0 1.149.365 1.734.365.586 1.08.586.714 0 1.087-.59.373-.592.373-1.73 0-1.144-.373-1.733-.373-.588-1.088-.588-.714 0-1.08.586-.364.585-.364 1.735zM605.77 32.976h-.327q-.865 0-1.303.304-.437.303-.437.905 0 .542.327.843.328.3.908.3.816 0 1.284-.566.467-.567.472-1.566v-.22zm1.918-.408V36h-.994v-.892q-.317.538-.797.793-.481.255-1.168.255-.919 0-1.467-.519-.548-.518-.548-1.388 0-1.004.674-1.525.674-.521 1.98-.521h1.326v-.156q-.005-.72-.365-1.045-.36-.325-1.15-.325-.504 0-1.02.145-.515.145-1.004.425v-.989q.548-.21 1.05-.314.502-.105.975-.105.746 0 1.275.22.53.22.857.661.204.269.29.664.086.394.086 1.184zM614.226 30.194v.967q-.424-.247-.854-.371-.43-.123-.875-.123-.672 0-1.002.217-.33.218-.33.663 0 .403.247.602.247.199 1.23.387l.397.075q.736.14 1.115.558.378.42.378 1.09 0 .892-.634 1.395-.633.502-1.761.502-.446 0-.935-.094-.489-.094-1.058-.282v-1.02q.553.284 1.058.426.505.143.956.143.655 0 1.015-.266.36-.266.36-.744 0-.688-1.316-.95l-.043-.012-.37-.075q-.854-.166-1.246-.561t-.392-1.077q0-.865.585-1.335t1.67-.47q.484 0 .93.089.445.089.875.266z"/><path d="M626.298 28.276v1.708h2.245v.768h-2.245v3.266q0 .666.252.93.253.262.881.262h1.112V36h-1.209q-1.111 0-1.568-.446-.456-.446-.456-1.536v-3.266h-1.606v-.768h1.606v-1.708zM633.309 30.677q-.752 0-1.14.586-.386.585-.386 1.735 0 1.144.387 1.732.387.588 1.139.588.757 0 1.144-.588.386-.588.386-1.732 0-1.15-.386-1.735-.387-.586-1.144-.586zm0-.838q1.251 0 1.914.811.664.811.664 2.348 0 1.541-.66 2.35-.662.808-1.918.808-1.252 0-1.913-.809-.66-.808-.66-2.35 0-1.536.66-2.347.661-.81 1.913-.81zM638.268 27.643h1.02v4.839l2.594-2.498h1.203l-2.368 2.267 2.74 3.749h-1.21l-2.223-3.104-.736.692V36h-1.02zM650.016 32.498v.483h-4.281v.033q-.043 1.23.47 1.767.513.537 1.447.537.473 0 .989-.15.515-.15 1.1-.457v.983q-.563.23-1.087.346-.524.116-1.012.116-1.402 0-2.192-.84-.79-.841-.79-2.318 0-1.44.774-2.3.774-.859 2.063-.859 1.149 0 1.812.78.664.778.707 1.879zm-.989-.29q-.064-.623-.454-1.077-.389-.454-1.12-.454-.714 0-1.176.473-.462.473-.505 1.063zM656.645 32.272V36h-.994v-3.728q0-.81-.284-1.192-.285-.381-.892-.381-.693 0-1.066.491-.373.492-.373 1.41V36h-.989v-6.016h.989v.903q.263-.516.714-.782.451-.266 1.069-.266.918 0 1.372.605.454.604.454 1.828zM659.08 27.981h4.452v.913h-1.68v6.193h1.68V36h-4.452v-.913h1.68v-6.193h-1.68zM669.608 30.752v-3.11h.989V36h-.989v-.757q-.247.445-.658.68-.41.233-.948.233-1.09 0-1.716-.846-.625-.846-.625-2.334 0-1.466.628-2.301.628-.836 1.713-.836.543 0 .956.234.414.234.65.68zm-2.905 2.246q0 1.149.365 1.734.365.586 1.08.586.714 0 1.087-.59.373-.592.373-1.73 0-1.144-.373-1.733-.373-.588-1.088-.588-.714 0-1.08.586-.364.585-.364 1.735z" fill="#F99"/><path d="M81.082 6.213q.419.108.714.406.296.298.736 1.19L83.622 10h-1.165l-.956-2.025q-.414-.865-.744-1.114-.33-.25-.862-.25h-1.037V10h-1.09V1.981h2.234q1.322 0 2.025.596.704.596.704 1.724 0 .795-.432 1.297-.433.503-1.217.615zm-2.224-3.34v2.846h1.187q.78 0 1.16-.349.382-.349.382-1.069 0-.693-.406-1.06-.405-.368-1.179-.368zM85.058 1.981h4.759v.913h-3.674v2.16h3.513v.912h-3.513v3.12h3.776V10h-4.86zM91.252 1.981h6.118v.913h-2.508V10h-1.09V2.894h-2.52zM98.79 6.922V1.981h1.09v5.436q0 .585.032.835t.113.384q.172.317.497.478.325.16.787.16.467 0 .79-.16.321-.161.499-.478.08-.135.112-.382.033-.247.033-.827V1.981h1.085v4.941q0 1.23-.153 1.749-.154.518-.53.856-.354.317-.81.473-.457.156-1.026.156-.564 0-1.02-.156-.457-.156-.817-.473-.37-.333-.527-.862-.155-.529-.155-1.743zM109.082 6.213q.419.108.714.406.296.298.736 1.19l1.09 2.191h-1.165l-.956-2.025q-.414-.865-.744-1.114-.33-.25-.862-.25h-1.037V10h-1.09V1.981h2.234q1.322 0 2.025.596.704.596.704 1.724 0 .795-.432 1.297-.433.503-1.217.615zm-2.224-3.34v2.846h1.187q.78 0 1.16-.349.382-.349.382-1.069 0-.693-.406-1.06-.405-.368-1.179-.368zM112.102 2.008h1.482l3.137 6.58v-6.58h1.155V10h-1.482l-3.137-6.58V10h-1.155zM128.342 9.108q1.37 0 1.912-.674.542-.674.542-2.435 0-1.778-.54-2.452-.54-.674-1.914-.674h-.516v6.235zm.021-7.127q1.837 0 2.707.977.87.978.87 3.04 0 2.052-.87 3.027-.87.975-2.707.975h-1.627V1.981zM136.309 2.937l-1.144 4.104h2.288zm-.656-.956h1.316L139.424 10H138.3l-.59-2.09h-2.81l-.58 2.09H133.2zM140.252 1.981h6.118v.913h-2.508V10h-1.09V2.894h-2.52zM150.309 2.937l-1.144 4.104h2.288zm-.656-.956h1.316L153.424 10H152.3l-.59-2.09h-2.81l-.58 2.09H147.2z"/></svg>