<svg xmlns="http://www.w3.org/2000/svg" width="379" height="235"><path d="M1.697 108.006h2.53v5.226h1.96V114H1.279v-.768h1.96v-4.458h-1.54zm1.542-2.337h.988v1.247H3.24zM23.879 130.32V116.3h.86v14.02z"/><path d="M23.879 143.32V129.3h.86v14.02z"/><path d="M23.879 156.32V142.3h.86v14.02z"/><path d="M23.879 169.32V155.3h.86v14.02z"/><path d="M23.879 182.32V168.3h.86v14.02z"/><path d="M23.879 195.32V181.3h.86v14.02z"/><path d="M23.879 208.32V194.3h.86v14.02z"/><path d="M23.879 221.32V207.3h.86v14.02z"/><path d="M23.879 228.336V220.3h.86v7.111h2.991v.924zM27.893 228.336v-.924h6.837v.924zM34.893 228.336v-.924h6.837v.924zM41.893 228.336v-.924h6.837v.924zM48.893 228.336v-.924h6.837v.924zM55.893 228.336v-.924h6.837v.924zM62.893 228.336v-.924h6.837v.924zM69.893 228.336v-.924h6.837v.924zM76.893 228.336v-.924h6.837v.924zM83.893 228.336v-.924h6.837v.924zM90.893 228.336v-.924h6.837v.924zM97.893 228.336v-.924h6.837v.924zM104.893 228.336v-.924h6.837v.924zM111.893 228.336v-.924h6.837v.924zM118.893 228.336v-.924h6.837v.924zM125.893 228.336v-.924h6.837v.924zM132.893 228.336v-.924h6.837v.924zM139.893 228.336v-.924h6.837v.924zM146.893 228.336v-.924h6.837v.924zM153.893 228.336v-.924h6.837v.924zM164.862 228.825q0 .666.244 1.004.245.338.723.338h1.154V231h-1.251q-.886 0-1.372-.567-.486-.566-.486-1.608v-5.441h-1.585v-.774h2.573zM169.697 225.006h2.53v5.226h1.96V231h-4.909v-.768h1.96v-4.458h-1.54zm1.542-2.337h.988v1.247h-.988zM176.268 222.643h1.02v4.839l2.594-2.498h1.203l-2.368 2.267 2.74 3.749h-1.21l-2.223-3.104-.736.692V231h-1.02zM188.016 227.498v.483h-4.281v.033q-.043 1.23.47 1.767.513.537 1.447.537.473 0 .989-.15.515-.15 1.1-.457v.983q-.563.23-1.087.346-.524.116-1.012.116-1.402 0-2.192-.84-.79-.841-.79-2.318 0-1.44.774-2.3.774-.859 2.063-.859 1.149 0 1.812.78.664.778.707 1.879zm-.989-.29q-.064-.623-.454-1.077-.389-.454-1.12-.454-.714 0-1.176.473-.462.473-.505 1.063zM192.862 228.825q0 .666.244 1.004.245.338.723.338h1.154V231h-1.251q-.886 0-1.372-.567-.486-.566-.486-1.608v-5.441h-1.585v-.774h2.573zM197.697 225.006h2.53v5.226h1.96V231h-4.909v-.768h1.96v-4.458h-1.54zm1.542-2.337h.988v1.247h-.988zM208.645 227.272V231h-.994v-3.728q0-.81-.284-1.192-.285-.381-.892-.381-.693 0-1.066.491-.373.492-.373 1.41v3.4h-.989v-8.357h.989v3.244q.263-.516.714-.782.451-.266 1.069-.266.918 0 1.372.605.454.604.454 1.828zM213.309 225.677q-.752 0-1.14.586-.386.585-.386 1.735 0 1.144.387 1.732.387.588 1.139.588.757 0 1.144-.588.386-.588.386-1.732 0-1.15-.386-1.735-.387-.586-1.144-.586zm0-.838q1.251 0 1.914.811.664.811.664 2.348 0 1.541-.66 2.35-.662.808-1.918.808-1.252 0-1.913-.809-.66-.808-.66-2.35 0-1.536.66-2.347.661-.81 1.913-.81zM220.309 225.677q-.752 0-1.14.586-.386.585-.386 1.735 0 1.144.387 1.732.387.588 1.139.588.757 0 1.144-.588.386-.588.386-1.732 0-1.15-.386-1.735-.387-.586-1.144-.586zm0-.838q1.251 0 1.914.811.664.811.664 2.348 0 1.541-.66 2.35-.662.808-1.918.808-1.252 0-1.913-.809-.66-.808-.66-2.35 0-1.536.66-2.347.661-.81 1.913-.81zM228.608 225.752v-3.11h.989V231h-.989v-.757q-.247.445-.658.68-.41.233-.948.233-1.09 0-1.716-.846-.625-.846-.625-2.334 0-1.466.628-2.301.628-.836 1.713-.836.543 0 .956.234.414.234.65.68zm-2.905 2.246q0 1.149.365 1.734.365.586 1.08.586.714 0 1.087-.59.373-.592.373-1.73 0-1.144-.373-1.733-.373-.588-1.088-.588-.714 0-1.08.586-.364.585-.364 1.735zM230.893 228.336v-.924h6.837v.924zM237.893 228.336v-.924h6.837v.924zM244.893 228.336v-.924h6.837v.924zM251.893 228.336v-.924h6.837v.924zM258.893 228.336v-.924h6.837v.924zM265.893 228.336v-.924h6.837v.924zM272.893 228.336v-.924h6.837v.924zM279.893 228.336v-.924h6.837v.924zM286.893 228.336v-.924h6.837v.924zM293.893 228.336v-.924h6.837v.924zM300.893 228.336v-.924h6.837v.924zM307.893 228.336v-.924h6.837v.924zM314.893 228.336v-.924h6.837v.924zM321.893 228.336v-.924h6.837v.924zM328.893 228.336v-.924h6.837v.924zM335.893 228.336v-.924h6.837v.924zM342.893 228.336v-.924h6.837v.924zM349.893 228.336v-.924h6.837v.924zM356.893 228.336v-.924h6.837v.924zM363.893 228.336v-.924h6.837v.924zM371.032 231.419v-6.553l6.558 3.277zM51.879 124.336V116.3h.86v7.111h2.991v.924zM51.879 169.32v-6.908h3.851v.924h-2.992v5.983z"/><path d="M51.879 182.32V168.3h.86v14.02z"/><path d="M51.879 189.336V181.3h.86v7.111h2.991v.924z"/><path d="M61.017 207.75v-1.402h.859v1.402zm-3.416 0v-1.402h.854v1.402zm1.708-1.96v-1.402h.854v1.402zm-3.416 0v-1.402h.848v1.402zm5.124-1.966v-1.402h.859v1.402zm-3.416 0v-1.402h.854v1.402zm1.708-1.96v-1.403h.854v1.402zm-3.416 0v-1.403h.848v1.402zm5.124-1.967v-1.401h.859v1.401zm-3.416 0v-1.401h.854v1.401zm1.708-1.96v-1.402h.854v1.402zm-3.416 0v-1.402h.848v1.402zM68.017 207.75v-1.402h.859v1.402zm-3.416 0v-1.402h.854v1.402zm1.708-1.96v-1.402h.854v1.402zm-3.416 0v-1.402h.848v1.402zm5.124-1.966v-1.402h.859v1.402zm-3.416 0v-1.402h.854v1.402zm1.708-1.96v-1.403h.854v1.402zm-3.416 0v-1.403h.848v1.402zm5.124-1.967v-1.401h.859v1.401zm-3.416 0v-1.401h.854v1.401zm1.708-1.96v-1.402h.854v1.402zm-3.416 0v-1.402h.848v1.402zM75.017 207.75v-1.402h.859v1.402zm-3.416 0v-1.402h.854v1.402zm1.708-1.96v-1.402h.854v1.402zm-3.416 0v-1.402h.848v1.402zm5.124-1.966v-1.402h.859v1.402zm-3.416 0v-1.402h.854v1.402zm1.708-1.96v-1.403h.854v1.402zm-3.416 0v-1.403h.848v1.402zm5.124-1.967v-1.401h.859v1.401zm-3.416 0v-1.401h.854v1.401zm1.708-1.96v-1.402h.854v1.402zm-3.416 0v-1.402h.848v1.402zM82.017 207.75v-1.402h.859v1.402zm-3.416 0v-1.402h.854v1.402zm1.708-1.96v-1.402h.854v1.402zm-3.416 0v-1.402h.848v1.402zm5.124-1.966v-1.402h.859v1.402zm-3.416 0v-1.402h.854v1.402zm1.708-1.96v-1.403h.854v1.402zm-3.416 0v-1.403h.848v1.402zm5.124-1.967v-1.401h.859v1.401zm-3.416 0v-1.401h.854v1.401zm1.708-1.96v-1.402h.854v1.402zm-3.416 0v-1.402h.848v1.402zM89.017 207.75v-1.402h.859v1.402zm-3.416 0v-1.402h.854v1.402zm1.708-1.96v-1.402h.854v1.402zm-3.416 0v-1.402h.848v1.402zm5.124-1.966v-1.402h.859v1.402zm-3.416 0v-1.402h.854v1.402zm1.708-1.96v-1.403h.854v1.402zm-3.416 0v-1.403h.848v1.402zm5.124-1.967v-1.401h.859v1.401zm-3.416 0v-1.401h.854v1.401zm1.708-1.96v-1.402h.854v1.402zm-3.416 0v-1.402h.848v1.402zM96.017 207.75v-1.402h.859v1.402zm-3.416 0v-1.402h.854v1.402zm1.708-1.96v-1.402h.854v1.402zm-3.416 0v-1.402h.848v1.402zm5.124-1.966v-1.402h.859v1.402zm-3.416 0v-1.402h.854v1.402zm1.708-1.96v-1.403h.854v1.402zm-3.416 0v-1.403h.848v1.402zm5.124-1.967v-1.401h.859v1.401zm-3.416 0v-1.401h.854v1.401zm1.708-1.96v-1.402h.854v1.402zm-3.416 0v-1.402h.848v1.402zM103.017 207.75v-1.402h.859v1.402zm-3.416 0v-1.402h.854v1.402zm1.708-1.96v-1.402h.854v1.402zm-3.416 0v-1.402h.848v1.402zm5.124-1.966v-1.402h.859v1.402zm-3.416 0v-1.402h.854v1.402zm1.708-1.96v-1.403h.854v1.402zm-3.416 0v-1.403h.848v1.402zm5.124-1.967v-1.401h.859v1.401zm-3.416 0v-1.401h.854v1.401zm1.708-1.96v-1.402h.854v1.402zm-3.416 0v-1.402h.848v1.402zM110.017 207.75v-1.402h.859v1.402zm-3.416 0v-1.402h.854v1.402zm1.708-1.96v-1.402h.854v1.402zm-3.416 0v-1.402h.848v1.402zm5.124-1.966v-1.402h.859v1.402zm-3.416 0v-1.402h.854v1.402zm1.708-1.96v-1.403h.854v1.402zm-3.416 0v-1.403h.848v1.402zm5.124-1.967v-1.401h.859v1.401zm-3.416 0v-1.401h.854v1.401zm1.708-1.96v-1.402h.854v1.402zm-3.416 0v-1.402h.848v1.402zM117.017 207.75v-1.402h.859v1.402zm-3.416 0v-1.402h.854v1.402zm1.708-1.96v-1.402h.854v1.402zm-3.416 0v-1.402h.848v1.402zm5.124-1.966v-1.402h.859v1.402zm-3.416 0v-1.402h.854v1.402zm1.708-1.96v-1.403h.854v1.402zm-3.416 0v-1.403h.848v1.402zm5.124-1.967v-1.401h.859v1.401zm-3.416 0v-1.401h.854v1.401zm1.708-1.96v-1.402h.854v1.402zm-3.416 0v-1.402h.848v1.402zM124.017 207.75v-1.402h.859v1.402zm-3.416 0v-1.402h.854v1.402zm1.708-1.96v-1.402h.854v1.402zm-3.416 0v-1.402h.848v1.402zm5.124-1.966v-1.402h.859v1.402zm-3.416 0v-1.402h.854v1.402zm1.708-1.96v-1.403h.854v1.402zm-3.416 0v-1.403h.848v1.402zm5.124-1.967v-1.401h.859v1.401zm-3.416 0v-1.401h.854v1.401zm1.708-1.96v-1.402h.854v1.402zm-3.416 0v-1.402h.848v1.402zM131.017 207.75v-1.402h.859v1.402zm-3.416 0v-1.402h.854v1.402zm1.708-1.96v-1.402h.854v1.402zm-3.416 0v-1.402h.848v1.402zm5.124-1.966v-1.402h.859v1.402zm-3.416 0v-1.402h.854v1.402zm1.708-1.96v-1.403h.854v1.402zm-3.416 0v-1.403h.848v1.402zm5.124-1.967v-1.401h.859v1.401zm-3.416 0v-1.401h.854v1.401zm1.708-1.96v-1.402h.854v1.402zm-3.416 0v-1.402h.848v1.402zM138.017 207.75v-1.402h.859v1.402zm-3.416 0v-1.402h.854v1.402zm1.708-1.96v-1.402h.854v1.402zm-3.416 0v-1.402h.848v1.402zm5.124-1.966v-1.402h.859v1.402zm-3.416 0v-1.402h.854v1.402zm1.708-1.96v-1.403h.854v1.402zm-3.416 0v-1.403h.848v1.402zm5.124-1.967v-1.401h.859v1.401zm-3.416 0v-1.401h.854v1.401zm1.708-1.96v-1.402h.854v1.402zm-3.416 0v-1.402h.848v1.402z" fill="#919191"/><path d="M166.017 207.75v-1.402h.859v1.402zm-3.416 0v-1.402h.854v1.402zm1.708-1.96v-1.402h.854v1.402zm-3.416 0v-1.402h.848v1.402zm5.124-1.966v-1.402h.859v1.402zm-3.416 0v-1.402h.854v1.402zm1.708-1.96v-1.403h.854v1.402zm-3.416 0v-1.403h.848v1.402zm5.124-1.967v-1.401h.859v1.401zm-3.416 0v-1.401h.854v1.401zm1.708-1.96v-1.402h.854v1.402zm-3.416 0v-1.402h.848v1.402zM173.017 207.75v-1.402h.859v1.402zm-3.416 0v-1.402h.854v1.402zm1.708-1.96v-1.402h.854v1.402zm-3.416 0v-1.402h.848v1.402zm5.124-1.966v-1.402h.859v1.402zm-3.416 0v-1.402h.854v1.402zm1.708-1.96v-1.403h.854v1.402zm-3.416 0v-1.403h.848v1.402zm5.124-1.967v-1.401h.859v1.401zm-3.416 0v-1.401h.854v1.401zm1.708-1.96v-1.402h.854v1.402zm-3.416 0v-1.402h.848v1.402zM180.017 207.75v-1.402h.859v1.402zm-3.416 0v-1.402h.854v1.402zm1.708-1.96v-1.402h.854v1.402zm-3.416 0v-1.402h.848v1.402zm5.124-1.966v-1.402h.859v1.402zm-3.416 0v-1.402h.854v1.402zm1.708-1.96v-1.403h.854v1.402zm-3.416 0v-1.403h.848v1.402zm5.124-1.967v-1.401h.859v1.401zm-3.416 0v-1.401h.854v1.401zm1.708-1.96v-1.402h.854v1.402zm-3.416 0v-1.402h.848v1.402zM187.017 207.75v-1.402h.859v1.402zm-3.416 0v-1.402h.854v1.402zm1.708-1.96v-1.402h.854v1.402zm-3.416 0v-1.402h.848v1.402zm5.124-1.966v-1.402h.859v1.402zm-3.416 0v-1.402h.854v1.402zm1.708-1.96v-1.403h.854v1.402zm-3.416 0v-1.403h.848v1.402zm5.124-1.967v-1.401h.859v1.401zm-3.416 0v-1.401h.854v1.401zm1.708-1.96v-1.402h.854v1.402zm-3.416 0v-1.402h.848v1.402zM194.017 207.75v-1.402h.859v1.402zm-3.416 0v-1.402h.854v1.402zm1.708-1.96v-1.402h.854v1.402zm-3.416 0v-1.402h.848v1.402zm5.124-1.966v-1.402h.859v1.402zm-3.416 0v-1.402h.854v1.402zm1.708-1.96v-1.403h.854v1.402zm-3.416 0v-1.403h.848v1.402zm5.124-1.967v-1.401h.859v1.401zm-3.416 0v-1.401h.854v1.401zm1.708-1.96v-1.402h.854v1.402zm-3.416 0v-1.402h.848v1.402zM201.017 207.75v-1.402h.859v1.402zm-3.416 0v-1.402h.854v1.402zm1.708-1.96v-1.402h.854v1.402zm-3.416 0v-1.402h.848v1.402zm5.124-1.966v-1.402h.859v1.402zm-3.416 0v-1.402h.854v1.402zm1.708-1.96v-1.403h.854v1.402zm-3.416 0v-1.403h.848v1.402zm5.124-1.967v-1.401h.859v1.401zm-3.416 0v-1.401h.854v1.401zm1.708-1.96v-1.402h.854v1.402zm-3.416 0v-1.402h.848v1.402zM208.017 207.75v-1.402h.859v1.402zm-3.416 0v-1.402h.854v1.402zm1.708-1.96v-1.402h.854v1.402zm-3.416 0v-1.402h.848v1.402zm5.124-1.966v-1.402h.859v1.402zm-3.416 0v-1.402h.854v1.402zm1.708-1.96v-1.403h.854v1.402zm-3.416 0v-1.403h.848v1.402zm5.124-1.967v-1.401h.859v1.401zm-3.416 0v-1.401h.854v1.401zm1.708-1.96v-1.402h.854v1.402zm-3.416 0v-1.402h.848v1.402zM215.017 207.75v-1.402h.859v1.402zm-3.416 0v-1.402h.854v1.402zm1.708-1.96v-1.402h.854v1.402zm-3.416 0v-1.402h.848v1.402zm5.124-1.966v-1.402h.859v1.402zm-3.416 0v-1.402h.854v1.402zm1.708-1.96v-1.403h.854v1.402zm-3.416 0v-1.403h.848v1.402zm5.124-1.967v-1.401h.859v1.401zm-3.416 0v-1.401h.854v1.401zm1.708-1.96v-1.402h.854v1.402zm-3.416 0v-1.402h.848v1.402zM222.017 207.75v-1.402h.859v1.402zm-3.416 0v-1.402h.854v1.402zm1.708-1.96v-1.402h.854v1.402zm-3.416 0v-1.402h.848v1.402zm5.124-1.966v-1.402h.859v1.402zm-3.416 0v-1.402h.854v1.402zm1.708-1.96v-1.403h.854v1.402zm-3.416 0v-1.403h.848v1.402zm5.124-1.967v-1.401h.859v1.401zm-3.416 0v-1.401h.854v1.401zm1.708-1.96v-1.402h.854v1.402zm-3.416 0v-1.402h.848v1.402zM229.017 207.75v-1.402h.859v1.402zm-3.416 0v-1.402h.854v1.402zm1.708-1.96v-1.402h.854v1.402zm-3.416 0v-1.402h.848v1.402zm5.124-1.966v-1.402h.859v1.402zm-3.416 0v-1.402h.854v1.402zm1.708-1.96v-1.403h.854v1.402zm-3.416 0v-1.403h.848v1.402zm5.124-1.967v-1.401h.859v1.401zm-3.416 0v-1.401h.854v1.401zm1.708-1.96v-1.402h.854v1.402zm-3.416 0v-1.402h.848v1.402zM236.017 207.75v-1.402h.859v1.402zm-3.416 0v-1.402h.854v1.402zm1.708-1.96v-1.402h.854v1.402zm-3.416 0v-1.402h.848v1.402zm5.124-1.966v-1.402h.859v1.402zm-3.416 0v-1.402h.854v1.402zm1.708-1.96v-1.403h.854v1.402zm-3.416 0v-1.403h.848v1.402zm5.124-1.967v-1.401h.859v1.401zm-3.416 0v-1.401h.854v1.401zm1.708-1.96v-1.402h.854v1.402zm-3.416 0v-1.402h.848v1.402zM243.017 207.75v-1.402h.859v1.402zm-3.416 0v-1.402h.854v1.402zm1.708-1.96v-1.402h.854v1.402zm-3.416 0v-1.402h.848v1.402zm5.124-1.966v-1.402h.859v1.402zm-3.416 0v-1.402h.854v1.402zm1.708-1.96v-1.403h.854v1.402zm-3.416 0v-1.403h.848v1.402zm5.124-1.967v-1.401h.859v1.401zm-3.416 0v-1.401h.854v1.401zm1.708-1.96v-1.402h.854v1.402zm-3.416 0v-1.402h.848v1.402z" fill="#FFD378"/><path d="M271.017 207.75v-1.402h.859v1.402zm-3.416 0v-1.402h.854v1.402zm1.708-1.96v-1.402h.854v1.402zm-3.416 0v-1.402h.848v1.402zm5.124-1.966v-1.402h.859v1.402zm-3.416 0v-1.402h.854v1.402zm1.708-1.96v-1.403h.854v1.402zm-3.416 0v-1.403h.848v1.402zm5.124-1.967v-1.401h.859v1.401zm-3.416 0v-1.401h.854v1.401zm1.708-1.96v-1.402h.854v1.402zm-3.416 0v-1.402h.848v1.402zM278.017 207.75v-1.402h.859v1.402zm-3.416 0v-1.402h.854v1.402zm1.708-1.96v-1.402h.854v1.402zm-3.416 0v-1.402h.848v1.402zm5.124-1.966v-1.402h.859v1.402zm-3.416 0v-1.402h.854v1.402zm1.708-1.96v-1.403h.854v1.402zm-3.416 0v-1.403h.848v1.402zm5.124-1.967v-1.401h.859v1.401zm-3.416 0v-1.401h.854v1.401zm1.708-1.96v-1.402h.854v1.402zm-3.416 0v-1.402h.848v1.402zM285.017 207.75v-1.402h.859v1.402zm-3.416 0v-1.402h.854v1.402zm1.708-1.96v-1.402h.854v1.402zm-3.416 0v-1.402h.848v1.402zm5.124-1.966v-1.402h.859v1.402zm-3.416 0v-1.402h.854v1.402zm1.708-1.96v-1.403h.854v1.402zm-3.416 0v-1.403h.848v1.402zm5.124-1.967v-1.401h.859v1.401zm-3.416 0v-1.401h.854v1.401zm1.708-1.96v-1.402h.854v1.402zm-3.416 0v-1.402h.848v1.402zM292.017 207.75v-1.402h.859v1.402zm-3.416 0v-1.402h.854v1.402zm1.708-1.96v-1.402h.854v1.402zm-3.416 0v-1.402h.848v1.402zm5.124-1.966v-1.402h.859v1.402zm-3.416 0v-1.402h.854v1.402zm1.708-1.96v-1.403h.854v1.402zm-3.416 0v-1.403h.848v1.402zm5.124-1.967v-1.401h.859v1.401zm-3.416 0v-1.401h.854v1.401zm1.708-1.96v-1.402h.854v1.402zm-3.416 0v-1.402h.848v1.402zM299.017 207.75v-1.402h.859v1.402zm-3.416 0v-1.402h.854v1.402zm1.708-1.96v-1.402h.854v1.402zm-3.416 0v-1.402h.848v1.402zm5.124-1.966v-1.402h.859v1.402zm-3.416 0v-1.402h.854v1.402zm1.708-1.96v-1.403h.854v1.402zm-3.416 0v-1.403h.848v1.402zm5.124-1.967v-1.401h.859v1.401zm-3.416 0v-1.401h.854v1.401zm1.708-1.96v-1.402h.854v1.402zm-3.416 0v-1.402h.848v1.402zM306.017 207.75v-1.402h.859v1.402zm-3.416 0v-1.402h.854v1.402zm1.708-1.96v-1.402h.854v1.402zm-3.416 0v-1.402h.848v1.402zm5.124-1.966v-1.402h.859v1.402zm-3.416 0v-1.402h.854v1.402zm1.708-1.96v-1.403h.854v1.402zm-3.416 0v-1.403h.848v1.402zm5.124-1.967v-1.401h.859v1.401zm-3.416 0v-1.401h.854v1.401zm1.708-1.96v-1.402h.854v1.402zm-3.416 0v-1.402h.848v1.402zM313.017 207.75v-1.402h.859v1.402zm-3.416 0v-1.402h.854v1.402zm1.708-1.96v-1.402h.854v1.402zm-3.416 0v-1.402h.848v1.402zm5.124-1.966v-1.402h.859v1.402zm-3.416 0v-1.402h.854v1.402zm1.708-1.96v-1.403h.854v1.402zm-3.416 0v-1.403h.848v1.402zm5.124-1.967v-1.401h.859v1.401zm-3.416 0v-1.401h.854v1.401zm1.708-1.96v-1.402h.854v1.402zm-3.416 0v-1.402h.848v1.402zM320.017 207.75v-1.402h.859v1.402zm-3.416 0v-1.402h.854v1.402zm1.708-1.96v-1.402h.854v1.402zm-3.416 0v-1.402h.848v1.402zm5.124-1.966v-1.402h.859v1.402zm-3.416 0v-1.402h.854v1.402zm1.708-1.96v-1.403h.854v1.402zm-3.416 0v-1.403h.848v1.402zm5.124-1.967v-1.401h.859v1.401zm-3.416 0v-1.401h.854v1.401zm1.708-1.96v-1.402h.854v1.402zm-3.416 0v-1.402h.848v1.402zM327.017 207.75v-1.402h.859v1.402zm-3.416 0v-1.402h.854v1.402zm1.708-1.96v-1.402h.854v1.402zm-3.416 0v-1.402h.848v1.402zm5.124-1.966v-1.402h.859v1.402zm-3.416 0v-1.402h.854v1.402zm1.708-1.96v-1.403h.854v1.402zm-3.416 0v-1.403h.848v1.402zm5.124-1.967v-1.401h.859v1.401zm-3.416 0v-1.401h.854v1.401zm1.708-1.96v-1.402h.854v1.402zm-3.416 0v-1.402h.848v1.402zM334.017 207.75v-1.402h.859v1.402zm-3.416 0v-1.402h.854v1.402zm1.708-1.96v-1.402h.854v1.402zm-3.416 0v-1.402h.848v1.402zm5.124-1.966v-1.402h.859v1.402zm-3.416 0v-1.402h.854v1.402zm1.708-1.96v-1.403h.854v1.402zm-3.416 0v-1.403h.848v1.402zm5.124-1.967v-1.401h.859v1.401zm-3.416 0v-1.401h.854v1.401zm1.708-1.96v-1.402h.854v1.402zm-3.416 0v-1.402h.848v1.402zM341.017 207.75v-1.402h.859v1.402zm-3.416 0v-1.402h.854v1.402zm1.708-1.96v-1.402h.854v1.402zm-3.416 0v-1.402h.848v1.402zm5.124-1.966v-1.402h.859v1.402zm-3.416 0v-1.402h.854v1.402zm1.708-1.96v-1.403h.854v1.402zm-3.416 0v-1.403h.848v1.402zm5.124-1.967v-1.401h.859v1.401zm-3.416 0v-1.401h.854v1.401zm1.708-1.96v-1.402h.854v1.402zm-3.416 0v-1.402h.848v1.402zM348.017 207.75v-1.402h.859v1.402zm-3.416 0v-1.402h.854v1.402zm1.708-1.96v-1.402h.854v1.402zm-3.416 0v-1.402h.848v1.402zm5.124-1.966v-1.402h.859v1.402zm-3.416 0v-1.402h.854v1.402zm1.708-1.96v-1.403h.854v1.402zm-3.416 0v-1.403h.848v1.402zm5.124-1.967v-1.401h.859v1.401zm-3.416 0v-1.401h.854v1.401zm1.708-1.96v-1.402h.854v1.402zm-3.416 0v-1.402h.848v1.402z" fill="#FFA841"/><path d="M55.893 189.336v-.924h6.837v.924zM62.893 189.336v-.924h6.837v.924zM69.893 189.336v-.924h6.837v.924zM76.893 189.336v-.924h6.837v.924zM83.893 189.336v-.924h6.837v.924zM90.893 189.336v-.924h6.837v.924zM97.893 189.336v-.924h6.837v.924zM104.893 189.336v-.924h6.837v.924zM111.893 189.336v-.924h6.837v.924zM118.893 189.336v-.924h6.837v.924zM125.893 189.336v-.924h2.986v-7.111h.86v8.035z"/><path d="M138.017 194.75v-1.402h.859v1.402zm-3.416 0v-1.402h.854v1.402zm1.708-1.96v-1.402h.854v1.402zm-3.416 0v-1.402h.848v1.402zm5.124-1.966v-1.402h.859v1.402zm-3.416 0v-1.402h.854v1.402zm1.708-1.96v-1.403h.854v1.402zm-3.416 0v-1.403h.848v1.402zm5.124-1.967v-1.401h.859v1.401zm-3.416 0v-1.401h.854v1.401zm1.708-1.96v-1.402h.854v1.402zm-3.416 0v-1.402h.848v1.402z" fill="#919191"/><path d="M156.879 189.336V181.3h.86v7.111h2.991v.924zM160.893 189.336v-.924h6.837v.924zM167.893 189.336v-.924h6.837v.924zM174.893 189.336v-.924h6.837v.924zM181.893 189.336v-.924h6.837v.924zM188.893 189.336v-.924h6.837v.924zM195.893 189.336v-.924h6.837v.924zM202.893 189.336v-.924h6.837v.924zM209.893 189.336v-.924h6.837v.924zM216.893 189.336v-.924h6.837v.924zM223.893 189.336v-.924h6.837v.924zM230.893 189.336v-.924h2.986v-7.111h.86v8.035z"/><path d="M243.017 194.75v-1.402h.859v1.402zm-3.416 0v-1.402h.854v1.402zm1.708-1.96v-1.402h.854v1.402zm-3.416 0v-1.402h.848v1.402zm5.124-1.966v-1.402h.859v1.402zm-3.416 0v-1.402h.854v1.402zm1.708-1.96v-1.403h.854v1.402zm-3.416 0v-1.403h.848v1.402zm5.124-1.967v-1.401h.859v1.401zm-3.416 0v-1.401h.854v1.401zm1.708-1.96v-1.402h.854v1.402zm-3.416 0v-1.402h.848v1.402z" fill="#FFD378"/><path d="M261.879 189.336V181.3h.86v7.111h2.991v.924zM265.893 189.336v-.924h6.837v.924zM272.893 189.336v-.924h6.837v.924zM279.893 189.336v-.924h6.837v.924zM286.893 189.336v-.924h6.837v.924zM293.893 189.336v-.924h6.837v.924zM300.893 189.336v-.924h6.837v.924zM307.893 189.336v-.924h6.837v.924zM314.893 189.336v-.924h6.837v.924zM321.893 189.336v-.924h6.837v.924zM328.893 189.336v-.924h6.837v.924zM335.893 189.336v-.924h2.986v-7.111h.86v8.035z"/><path d="M348.017 194.75v-1.402h.859v1.402zm-3.416 0v-1.402h.854v1.402zm1.708-1.96v-1.402h.854v1.402zm-3.416 0v-1.402h.848v1.402zm5.124-1.966v-1.402h.859v1.402zm-3.416 0v-1.402h.854v1.402zm1.708-1.96v-1.403h.854v1.402zm-3.416 0v-1.403h.848v1.402zm5.124-1.967v-1.401h.859v1.401zm-3.416 0v-1.401h.854v1.401zm1.708-1.96v-1.402h.854v1.402zm-3.416 0v-1.402h.848v1.402z" fill="#FFA841"/><path d="M77.102 171.008h1.482l3.137 6.58v-6.58h1.155V179h-1.482l-3.137-6.58V179h-1.155zM88.86 174.999q0-1.768-.362-2.525-.362-.757-1.19-.757-.821 0-1.184.757-.362.757-.362 2.525 0 1.761.362 2.519.363.757 1.185.757.827 0 1.19-.755.362-.754.362-2.521zm1.134 0q0 2.094-.663 3.126-.664 1.03-2.022 1.03-1.36 0-2.02-1.025-.66-1.026-.66-3.131 0-2.1.663-3.132.663-1.031 2.017-1.031 1.358 0 2.022 1.031.663 1.031.663 3.132zM91.252 170.981h6.118v.913h-2.508V179h-1.09v-7.106h-2.52zM99.058 170.981h4.759v.913h-3.674v2.16h3.513v.912h-3.513v3.12h3.776V179h-4.86z" fill="#919191"/><path d="M128.879 182.32V168.3h.86v14.02z"/><path d="M138.017 181.75v-1.402h.859v1.402zm-3.416 0v-1.402h.854v1.402zm1.708-1.96v-1.402h.854v1.402zm-3.416 0v-1.402h.848v1.402zm5.124-1.966v-1.402h.859v1.402zm-3.416 0v-1.402h.854v1.402zm1.708-1.96v-1.403h.854v1.402zm-3.416 0v-1.403h.848v1.402zm5.124-1.967v-1.401h.859v1.401zm-3.416 0v-1.401h.854v1.401zm1.708-1.96v-1.402h.854v1.402zm-3.416 0v-1.402h.848v1.402z" fill="#919191"/><path d="M156.879 182.32V168.3h.86v14.02z"/><path d="M183.155 170.981h1.09v7.106h3.873V179h-4.963zM193.86 174.999q0-1.768-.362-2.525-.362-.757-1.19-.757-.821 0-1.184.757-.362.757-.362 2.525 0 1.761.362 2.519.363.757 1.185.757.827 0 1.19-.755.362-.754.362-2.521zm1.134 0q0 2.094-.663 3.126-.664 1.03-2.022 1.03-1.36 0-2.02-1.025-.66-1.026-.66-3.131 0-2.1.663-3.132.663-1.031 2.017-1.031 1.358 0 2.022 1.031.663 1.031.663 3.132zM196 170.981h1.058l.768 6.51.913-4.308h1.134l.923 4.318.768-6.52h1.059L201.425 179h-1.026l-1.09-4.764-1.085 4.764h-1.026z" fill="#FFD478"/><path d="M233.879 182.32V168.3h.86v14.02z"/><path d="M243.017 181.75v-1.402h.859v1.402zm-3.416 0v-1.402h.854v1.402zm1.708-1.96v-1.402h.854v1.402zm-3.416 0v-1.402h.848v1.402zm5.124-1.966v-1.402h.859v1.402zm-3.416 0v-1.402h.854v1.402zm1.708-1.96v-1.403h.854v1.402zm-3.416 0v-1.403h.848v1.402zm5.124-1.967v-1.401h.859v1.401zm-3.416 0v-1.401h.854v1.401zm1.708-1.96v-1.402h.854v1.402zm-3.416 0v-1.402h.848v1.402z" fill="#FFD378"/><path d="M261.879 182.32V168.3h.86v14.02z"/><path d="M280.193 171.008h1.45l1.386 4.071 1.397-4.071h1.455V179h-1.004v-7.063l-1.429 4.21h-.822l-1.434-4.21V179h-.999zM288.058 170.981h4.759v.913h-3.674v2.16h3.513v.912h-3.513v3.12h3.776V179h-4.86zM296.342 178.108q1.37 0 1.912-.674.542-.674.542-2.435 0-1.778-.54-2.452-.54-.674-1.914-.674h-.516v6.235zm.021-7.127q1.837 0 2.707.977.87.978.87 3.04 0 2.052-.87 3.027-.87.975-2.707.975h-1.627v-8.019zM302.08 170.981h4.452v.913h-1.68v6.193h1.68V179h-4.452v-.913h1.68v-6.193h-1.68zM308.79 175.922v-4.941h1.09v5.436q0 .585.032.835t.113.384q.172.317.497.478.325.16.787.16.467 0 .79-.16.321-.161.499-.478.08-.135.112-.382.033-.247.033-.827v-5.446h1.085v4.941q0 1.23-.153 1.749-.154.518-.53.856-.354.317-.81.473-.457.156-1.026.156-.564 0-1.02-.156-.457-.156-.817-.473-.37-.333-.527-.862-.155-.529-.155-1.743zM315.193 171.008h1.45l1.386 4.071 1.397-4.071h1.455V179h-1.004v-7.063l-1.429 4.21h-.822l-1.434-4.21V179h-.999z" fill="#FFA941"/><path d="M338.879 182.32V168.3h.86v14.02z"/><path d="M348.017 181.75v-1.402h.859v1.402zm-3.416 0v-1.402h.854v1.402zm1.708-1.96v-1.402h.854v1.402zm-3.416 0v-1.402h.848v1.402zm5.124-1.966v-1.402h.859v1.402zm-3.416 0v-1.402h.854v1.402zm1.708-1.96v-1.403h.854v1.402zm-3.416 0v-1.403h.848v1.402zm5.124-1.967v-1.401h.859v1.401zm-3.416 0v-1.401h.854v1.401zm1.708-1.96v-1.402h.854v1.402zm-3.416 0v-1.402h.848v1.402z" fill="#FFA841"/><path d="M55.893 163.336v-.924h6.837v.924zM62.893 163.336v-.924h6.837v.924zM69.893 163.336v-.924h6.837v.924zM76.893 163.336v-.924h6.837v.924zM83.893 163.336v-.924h6.837v.924zM90.893 163.336v-.924h6.837v.924zM97.893 163.336v-.924h6.837v.924zM104.893 163.336v-.924h6.837v.924zM111.893 163.336v-.924h6.837v.924zM118.893 163.336v-.924h6.837v.924zM128.879 169.32v-5.984h-2.986v-.924h3.845v6.907zM156.879 169.32v-6.908h3.851v.924h-2.992v5.983zM160.893 163.336v-.924h6.837v.924zM167.893 163.336v-.924h6.837v.924zM174.893 163.336v-.924h6.837v.924zM181.893 163.336v-.924h6.837v.924zM188.893 163.336v-.924h6.837v.924zM195.893 163.336v-.924h6.837v.924zM202.893 163.336v-.924h6.837v.924zM209.893 163.336v-.924h6.837v.924zM216.893 163.336v-.924h6.837v.924zM223.893 163.336v-.924h6.837v.924zM233.879 169.32v-5.984h-2.986v-.924h3.845v6.907zM261.879 169.32v-6.908h3.851v.924h-2.992v5.983zM265.893 163.336v-.924h6.837v.924zM272.893 163.336v-.924h6.837v.924zM279.893 163.336v-.924h6.837v.924zM286.893 163.336v-.924h6.837v.924zM293.893 163.336v-.924h6.837v.924zM300.893 163.336v-.924h6.837v.924zM307.893 163.336v-.924h6.837v.924zM314.893 163.336v-.924h6.837v.924zM321.893 163.336v-.924h6.837v.924zM328.893 163.336v-.924h6.837v.924zM338.879 169.32v-5.984h-2.986v-.924h3.845v6.907z"/><path d="M61.017 142.75v-1.402h.859v1.402zm-3.416 0v-1.402h.854v1.402zm1.708-1.96v-1.402h.854v1.402zm-3.416 0v-1.402h.848v1.402zm5.124-1.966v-1.402h.859v1.402zm-3.416 0v-1.402h.854v1.402zm1.708-1.96v-1.403h.854v1.402zm-3.416 0v-1.403h.848v1.402zm5.124-1.967v-1.401h.859v1.401zm-3.416 0v-1.401h.854v1.401zm1.708-1.96v-1.402h.854v1.402zm-3.416 0v-1.402h.848v1.402zM68.017 142.75v-1.402h.859v1.402zm-3.416 0v-1.402h.854v1.402zm1.708-1.96v-1.402h.854v1.402zm-3.416 0v-1.402h.848v1.402zm5.124-1.966v-1.402h.859v1.402zm-3.416 0v-1.402h.854v1.402zm1.708-1.96v-1.403h.854v1.402zm-3.416 0v-1.403h.848v1.402zm5.124-1.967v-1.401h.859v1.401zm-3.416 0v-1.401h.854v1.401zm1.708-1.96v-1.402h.854v1.402zm-3.416 0v-1.402h.848v1.402zM75.017 142.75v-1.402h.859v1.402zm-3.416 0v-1.402h.854v1.402zm1.708-1.96v-1.402h.854v1.402zm-3.416 0v-1.402h.848v1.402zm5.124-1.966v-1.402h.859v1.402zm-3.416 0v-1.402h.854v1.402zm1.708-1.96v-1.403h.854v1.402zm-3.416 0v-1.403h.848v1.402zm5.124-1.967v-1.401h.859v1.401zm-3.416 0v-1.401h.854v1.401zm1.708-1.96v-1.402h.854v1.402zm-3.416 0v-1.402h.848v1.402zM82.017 142.75v-1.402h.859v1.402zm-3.416 0v-1.402h.854v1.402zm1.708-1.96v-1.402h.854v1.402zm-3.416 0v-1.402h.848v1.402zm5.124-1.966v-1.402h.859v1.402zm-3.416 0v-1.402h.854v1.402zm1.708-1.96v-1.403h.854v1.402zm-3.416 0v-1.403h.848v1.402zm5.124-1.967v-1.401h.859v1.401zm-3.416 0v-1.401h.854v1.401zm1.708-1.96v-1.402h.854v1.402zm-3.416 0v-1.402h.848v1.402zM89.017 142.75v-1.402h.859v1.402zm-3.416 0v-1.402h.854v1.402zm1.708-1.96v-1.402h.854v1.402zm-3.416 0v-1.402h.848v1.402zm5.124-1.966v-1.402h.859v1.402zm-3.416 0v-1.402h.854v1.402zm1.708-1.96v-1.403h.854v1.402zm-3.416 0v-1.403h.848v1.402zm5.124-1.967v-1.401h.859v1.401zm-3.416 0v-1.401h.854v1.401zm1.708-1.96v-1.402h.854v1.402zm-3.416 0v-1.402h.848v1.402zM96.017 142.75v-1.402h.859v1.402zm-3.416 0v-1.402h.854v1.402zm1.708-1.96v-1.402h.854v1.402zm-3.416 0v-1.402h.848v1.402zm5.124-1.966v-1.402h.859v1.402zm-3.416 0v-1.402h.854v1.402zm1.708-1.96v-1.403h.854v1.402zm-3.416 0v-1.403h.848v1.402zm5.124-1.967v-1.401h.859v1.401zm-3.416 0v-1.401h.854v1.401zm1.708-1.96v-1.402h.854v1.402zm-3.416 0v-1.402h.848v1.402zM103.017 142.75v-1.402h.859v1.402zm-3.416 0v-1.402h.854v1.402zm1.708-1.96v-1.402h.854v1.402zm-3.416 0v-1.402h.848v1.402zm5.124-1.966v-1.402h.859v1.402zm-3.416 0v-1.402h.854v1.402zm1.708-1.96v-1.403h.854v1.402zm-3.416 0v-1.403h.848v1.402zm5.124-1.967v-1.401h.859v1.401zm-3.416 0v-1.401h.854v1.401zm1.708-1.96v-1.402h.854v1.402zm-3.416 0v-1.402h.848v1.402zM110.017 142.75v-1.402h.859v1.402zm-3.416 0v-1.402h.854v1.402zm1.708-1.96v-1.402h.854v1.402zm-3.416 0v-1.402h.848v1.402zm5.124-1.966v-1.402h.859v1.402zm-3.416 0v-1.402h.854v1.402zm1.708-1.96v-1.403h.854v1.402zm-3.416 0v-1.403h.848v1.402zm5.124-1.967v-1.401h.859v1.401zm-3.416 0v-1.401h.854v1.401zm1.708-1.96v-1.402h.854v1.402zm-3.416 0v-1.402h.848v1.402zM117.017 142.75v-1.402h.859v1.402zm-3.416 0v-1.402h.854v1.402zm1.708-1.96v-1.402h.854v1.402zm-3.416 0v-1.402h.848v1.402zm5.124-1.966v-1.402h.859v1.402zm-3.416 0v-1.402h.854v1.402zm1.708-1.96v-1.403h.854v1.402zm-3.416 0v-1.403h.848v1.402zm5.124-1.967v-1.401h.859v1.401zm-3.416 0v-1.401h.854v1.401zm1.708-1.96v-1.402h.854v1.402zm-3.416 0v-1.402h.848v1.402zM124.017 142.75v-1.402h.859v1.402zm-3.416 0v-1.402h.854v1.402zm1.708-1.96v-1.402h.854v1.402zm-3.416 0v-1.402h.848v1.402zm5.124-1.966v-1.402h.859v1.402zm-3.416 0v-1.402h.854v1.402zm1.708-1.96v-1.403h.854v1.402zm-3.416 0v-1.403h.848v1.402zm5.124-1.967v-1.401h.859v1.401zm-3.416 0v-1.401h.854v1.401zm1.708-1.96v-1.402h.854v1.402zm-3.416 0v-1.402h.848v1.402zM131.017 142.75v-1.402h.859v1.402zm-3.416 0v-1.402h.854v1.402zm1.708-1.96v-1.402h.854v1.402zm-3.416 0v-1.402h.848v1.402zm5.124-1.966v-1.402h.859v1.402zm-3.416 0v-1.402h.854v1.402zm1.708-1.96v-1.403h.854v1.402zm-3.416 0v-1.403h.848v1.402zm5.124-1.967v-1.401h.859v1.401zm-3.416 0v-1.401h.854v1.401zm1.708-1.96v-1.402h.854v1.402zm-3.416 0v-1.402h.848v1.402zM138.017 142.75v-1.402h.859v1.402zm-3.416 0v-1.402h.854v1.402zm1.708-1.96v-1.402h.854v1.402zm-3.416 0v-1.402h.848v1.402zm5.124-1.966v-1.402h.859v1.402zm-3.416 0v-1.402h.854v1.402zm1.708-1.96v-1.403h.854v1.402zm-3.416 0v-1.403h.848v1.402zm5.124-1.967v-1.401h.859v1.401zm-3.416 0v-1.401h.854v1.401zm1.708-1.96v-1.402h.854v1.402zm-3.416 0v-1.402h.848v1.402z" fill="#FFD378"/><path d="M166.017 142.75v-1.402h.859v1.402zm-3.416 0v-1.402h.854v1.402zm1.708-1.96v-1.402h.854v1.402zm-3.416 0v-1.402h.848v1.402zm5.124-1.966v-1.402h.859v1.402zm-3.416 0v-1.402h.854v1.402zm1.708-1.96v-1.403h.854v1.402zm-3.416 0v-1.403h.848v1.402zm5.124-1.967v-1.401h.859v1.401zm-3.416 0v-1.401h.854v1.401zm1.708-1.96v-1.402h.854v1.402zm-3.416 0v-1.402h.848v1.402zM173.017 142.75v-1.402h.859v1.402zm-3.416 0v-1.402h.854v1.402zm1.708-1.96v-1.402h.854v1.402zm-3.416 0v-1.402h.848v1.402zm5.124-1.966v-1.402h.859v1.402zm-3.416 0v-1.402h.854v1.402zm1.708-1.96v-1.403h.854v1.402zm-3.416 0v-1.403h.848v1.402zm5.124-1.967v-1.401h.859v1.401zm-3.416 0v-1.401h.854v1.401zm1.708-1.96v-1.402h.854v1.402zm-3.416 0v-1.402h.848v1.402zM180.017 142.75v-1.402h.859v1.402zm-3.416 0v-1.402h.854v1.402zm1.708-1.96v-1.402h.854v1.402zm-3.416 0v-1.402h.848v1.402zm5.124-1.966v-1.402h.859v1.402zm-3.416 0v-1.402h.854v1.402zm1.708-1.96v-1.403h.854v1.402zm-3.416 0v-1.403h.848v1.402zm5.124-1.967v-1.401h.859v1.401zm-3.416 0v-1.401h.854v1.401zm1.708-1.96v-1.402h.854v1.402zm-3.416 0v-1.402h.848v1.402zM187.017 142.75v-1.402h.859v1.402zm-3.416 0v-1.402h.854v1.402zm1.708-1.96v-1.402h.854v1.402zm-3.416 0v-1.402h.848v1.402zm5.124-1.966v-1.402h.859v1.402zm-3.416 0v-1.402h.854v1.402zm1.708-1.96v-1.403h.854v1.402zm-3.416 0v-1.403h.848v1.402zm5.124-1.967v-1.401h.859v1.401zm-3.416 0v-1.401h.854v1.401zm1.708-1.96v-1.402h.854v1.402zm-3.416 0v-1.402h.848v1.402zM194.017 142.75v-1.402h.859v1.402zm-3.416 0v-1.402h.854v1.402zm1.708-1.96v-1.402h.854v1.402zm-3.416 0v-1.402h.848v1.402zm5.124-1.966v-1.402h.859v1.402zm-3.416 0v-1.402h.854v1.402zm1.708-1.96v-1.403h.854v1.402zm-3.416 0v-1.403h.848v1.402zm5.124-1.967v-1.401h.859v1.401zm-3.416 0v-1.401h.854v1.401zm1.708-1.96v-1.402h.854v1.402zm-3.416 0v-1.402h.848v1.402zM201.017 142.75v-1.402h.859v1.402zm-3.416 0v-1.402h.854v1.402zm1.708-1.96v-1.402h.854v1.402zm-3.416 0v-1.402h.848v1.402zm5.124-1.966v-1.402h.859v1.402zm-3.416 0v-1.402h.854v1.402zm1.708-1.96v-1.403h.854v1.402zm-3.416 0v-1.403h.848v1.402zm5.124-1.967v-1.401h.859v1.401zm-3.416 0v-1.401h.854v1.401zm1.708-1.96v-1.402h.854v1.402zm-3.416 0v-1.402h.848v1.402zM208.017 142.75v-1.402h.859v1.402zm-3.416 0v-1.402h.854v1.402zm1.708-1.96v-1.402h.854v1.402zm-3.416 0v-1.402h.848v1.402zm5.124-1.966v-1.402h.859v1.402zm-3.416 0v-1.402h.854v1.402zm1.708-1.96v-1.403h.854v1.402zm-3.416 0v-1.403h.848v1.402zm5.124-1.967v-1.401h.859v1.401zm-3.416 0v-1.401h.854v1.401zm1.708-1.96v-1.402h.854v1.402zm-3.416 0v-1.402h.848v1.402zM215.017 142.75v-1.402h.859v1.402zm-3.416 0v-1.402h.854v1.402zm1.708-1.96v-1.402h.854v1.402zm-3.416 0v-1.402h.848v1.402zm5.124-1.966v-1.402h.859v1.402zm-3.416 0v-1.402h.854v1.402zm1.708-1.96v-1.403h.854v1.402zm-3.416 0v-1.403h.848v1.402zm5.124-1.967v-1.401h.859v1.401zm-3.416 0v-1.401h.854v1.401zm1.708-1.96v-1.402h.854v1.402zm-3.416 0v-1.402h.848v1.402zM222.017 142.75v-1.402h.859v1.402zm-3.416 0v-1.402h.854v1.402zm1.708-1.96v-1.402h.854v1.402zm-3.416 0v-1.402h.848v1.402zm5.124-1.966v-1.402h.859v1.402zm-3.416 0v-1.402h.854v1.402zm1.708-1.96v-1.403h.854v1.402zm-3.416 0v-1.403h.848v1.402zm5.124-1.967v-1.401h.859v1.401zm-3.416 0v-1.401h.854v1.401zm1.708-1.96v-1.402h.854v1.402zm-3.416 0v-1.402h.848v1.402zM229.017 142.75v-1.402h.859v1.402zm-3.416 0v-1.402h.854v1.402zm1.708-1.96v-1.402h.854v1.402zm-3.416 0v-1.402h.848v1.402zm5.124-1.966v-1.402h.859v1.402zm-3.416 0v-1.402h.854v1.402zm1.708-1.96v-1.403h.854v1.402zm-3.416 0v-1.403h.848v1.402zm5.124-1.967v-1.401h.859v1.401zm-3.416 0v-1.401h.854v1.401zm1.708-1.96v-1.402h.854v1.402zm-3.416 0v-1.402h.848v1.402zM236.017 142.75v-1.402h.859v1.402zm-3.416 0v-1.402h.854v1.402zm1.708-1.96v-1.402h.854v1.402zm-3.416 0v-1.402h.848v1.402zm5.124-1.966v-1.402h.859v1.402zm-3.416 0v-1.402h.854v1.402zm1.708-1.96v-1.403h.854v1.402zm-3.416 0v-1.403h.848v1.402zm5.124-1.967v-1.401h.859v1.401zm-3.416 0v-1.401h.854v1.401zm1.708-1.96v-1.402h.854v1.402zm-3.416 0v-1.402h.848v1.402zM243.017 142.75v-1.402h.859v1.402zm-3.416 0v-1.402h.854v1.402zm1.708-1.96v-1.402h.854v1.402zm-3.416 0v-1.402h.848v1.402zm5.124-1.966v-1.402h.859v1.402zm-3.416 0v-1.402h.854v1.402zm1.708-1.96v-1.403h.854v1.402zm-3.416 0v-1.403h.848v1.402zm5.124-1.967v-1.401h.859v1.401zm-3.416 0v-1.401h.854v1.401zm1.708-1.96v-1.402h.854v1.402zm-3.416 0v-1.402h.848v1.402z" fill="#FFA841"/><path d="M271.017 142.75v-1.402h.859v1.402zm-3.416 0v-1.402h.854v1.402zm1.708-1.96v-1.402h.854v1.402zm-3.416 0v-1.402h.848v1.402zm5.124-1.966v-1.402h.859v1.402zm-3.416 0v-1.402h.854v1.402zm1.708-1.96v-1.403h.854v1.402zm-3.416 0v-1.403h.848v1.402zm5.124-1.967v-1.401h.859v1.401zm-3.416 0v-1.401h.854v1.401zm1.708-1.96v-1.402h.854v1.402zm-3.416 0v-1.402h.848v1.402zM278.017 142.75v-1.402h.859v1.402zm-3.416 0v-1.402h.854v1.402zm1.708-1.96v-1.402h.854v1.402zm-3.416 0v-1.402h.848v1.402zm5.124-1.966v-1.402h.859v1.402zm-3.416 0v-1.402h.854v1.402zm1.708-1.96v-1.403h.854v1.402zm-3.416 0v-1.403h.848v1.402zm5.124-1.967v-1.401h.859v1.401zm-3.416 0v-1.401h.854v1.401zm1.708-1.96v-1.402h.854v1.402zm-3.416 0v-1.402h.848v1.402zM285.017 142.75v-1.402h.859v1.402zm-3.416 0v-1.402h.854v1.402zm1.708-1.96v-1.402h.854v1.402zm-3.416 0v-1.402h.848v1.402zm5.124-1.966v-1.402h.859v1.402zm-3.416 0v-1.402h.854v1.402zm1.708-1.96v-1.403h.854v1.402zm-3.416 0v-1.403h.848v1.402zm5.124-1.967v-1.401h.859v1.401zm-3.416 0v-1.401h.854v1.401zm1.708-1.96v-1.402h.854v1.402zm-3.416 0v-1.402h.848v1.402zM292.017 142.75v-1.402h.859v1.402zm-3.416 0v-1.402h.854v1.402zm1.708-1.96v-1.402h.854v1.402zm-3.416 0v-1.402h.848v1.402zm5.124-1.966v-1.402h.859v1.402zm-3.416 0v-1.402h.854v1.402zm1.708-1.96v-1.403h.854v1.402zm-3.416 0v-1.403h.848v1.402zm5.124-1.967v-1.401h.859v1.401zm-3.416 0v-1.401h.854v1.401zm1.708-1.96v-1.402h.854v1.402zm-3.416 0v-1.402h.848v1.402zM299.017 142.75v-1.402h.859v1.402zm-3.416 0v-1.402h.854v1.402zm1.708-1.96v-1.402h.854v1.402zm-3.416 0v-1.402h.848v1.402zm5.124-1.966v-1.402h.859v1.402zm-3.416 0v-1.402h.854v1.402zm1.708-1.96v-1.403h.854v1.402zm-3.416 0v-1.403h.848v1.402zm5.124-1.967v-1.401h.859v1.401zm-3.416 0v-1.401h.854v1.401zm1.708-1.96v-1.402h.854v1.402zm-3.416 0v-1.402h.848v1.402zM306.017 142.75v-1.402h.859v1.402zm-3.416 0v-1.402h.854v1.402zm1.708-1.96v-1.402h.854v1.402zm-3.416 0v-1.402h.848v1.402zm5.124-1.966v-1.402h.859v1.402zm-3.416 0v-1.402h.854v1.402zm1.708-1.96v-1.403h.854v1.402zm-3.416 0v-1.403h.848v1.402zm5.124-1.967v-1.401h.859v1.401zm-3.416 0v-1.401h.854v1.401zm1.708-1.96v-1.402h.854v1.402zm-3.416 0v-1.402h.848v1.402zM313.017 142.75v-1.402h.859v1.402zm-3.416 0v-1.402h.854v1.402zm1.708-1.96v-1.402h.854v1.402zm-3.416 0v-1.402h.848v1.402zm5.124-1.966v-1.402h.859v1.402zm-3.416 0v-1.402h.854v1.402zm1.708-1.96v-1.403h.854v1.402zm-3.416 0v-1.403h.848v1.402zm5.124-1.967v-1.401h.859v1.401zm-3.416 0v-1.401h.854v1.401zm1.708-1.96v-1.402h.854v1.402zm-3.416 0v-1.402h.848v1.402zM320.017 142.75v-1.402h.859v1.402zm-3.416 0v-1.402h.854v1.402zm1.708-1.96v-1.402h.854v1.402zm-3.416 0v-1.402h.848v1.402zm5.124-1.966v-1.402h.859v1.402zm-3.416 0v-1.402h.854v1.402zm1.708-1.96v-1.403h.854v1.402zm-3.416 0v-1.403h.848v1.402zm5.124-1.967v-1.401h.859v1.401zm-3.416 0v-1.401h.854v1.401zm1.708-1.96v-1.402h.854v1.402zm-3.416 0v-1.402h.848v1.402zM327.017 142.75v-1.402h.859v1.402zm-3.416 0v-1.402h.854v1.402zm1.708-1.96v-1.402h.854v1.402zm-3.416 0v-1.402h.848v1.402zm5.124-1.966v-1.402h.859v1.402zm-3.416 0v-1.402h.854v1.402zm1.708-1.96v-1.403h.854v1.402zm-3.416 0v-1.403h.848v1.402zm5.124-1.967v-1.401h.859v1.401zm-3.416 0v-1.401h.854v1.401zm1.708-1.96v-1.402h.854v1.402zm-3.416 0v-1.402h.848v1.402zM334.017 142.75v-1.402h.859v1.402zm-3.416 0v-1.402h.854v1.402zm1.708-1.96v-1.402h.854v1.402zm-3.416 0v-1.402h.848v1.402zm5.124-1.966v-1.402h.859v1.402zm-3.416 0v-1.402h.854v1.402zm1.708-1.96v-1.403h.854v1.402zm-3.416 0v-1.403h.848v1.402zm5.124-1.967v-1.401h.859v1.401zm-3.416 0v-1.401h.854v1.401zm1.708-1.96v-1.402h.854v1.402zm-3.416 0v-1.402h.848v1.402zM341.017 142.75v-1.402h.859v1.402zm-3.416 0v-1.402h.854v1.402zm1.708-1.96v-1.402h.854v1.402zm-3.416 0v-1.402h.848v1.402zm5.124-1.966v-1.402h.859v1.402zm-3.416 0v-1.402h.854v1.402zm1.708-1.96v-1.403h.854v1.402zm-3.416 0v-1.403h.848v1.402zm5.124-1.967v-1.401h.859v1.401zm-3.416 0v-1.401h.854v1.401zm1.708-1.96v-1.402h.854v1.402zm-3.416 0v-1.402h.848v1.402zM348.017 142.75v-1.402h.859v1.402zm-3.416 0v-1.402h.854v1.402zm1.708-1.96v-1.402h.854v1.402zm-3.416 0v-1.402h.848v1.402zm5.124-1.966v-1.402h.859v1.402zm-3.416 0v-1.402h.854v1.402zm1.708-1.96v-1.403h.854v1.402zm-3.416 0v-1.403h.848v1.402zm5.124-1.967v-1.401h.859v1.401zm-3.416 0v-1.401h.854v1.401zm1.708-1.96v-1.402h.854v1.402zm-3.416 0v-1.402h.848v1.402z" fill="#F99"/><path d="M55.893 124.336v-.924h6.837v.924zM62.893 124.336v-.924h6.837v.924zM69.893 124.336v-.924h6.837v.924zM76.893 124.336v-.924h6.837v.924zM83.893 124.336v-.924h6.837v.924zM90.893 124.336v-.924h6.837v.924zM97.893 124.336v-.924h6.837v.924zM104.893 124.336v-.924h6.837v.924zM111.893 124.336v-.924h6.837v.924zM118.893 124.336v-.924h6.837v.924zM125.893 124.336v-.924h2.986v-7.111h.86v8.035z"/><path d="M138.017 129.75v-1.402h.859v1.402zm-3.416 0v-1.402h.854v1.402zm1.708-1.96v-1.402h.854v1.402zm-3.416 0v-1.402h.848v1.402zm5.124-1.966v-1.402h.859v1.402zm-3.416 0v-1.402h.854v1.402zm1.708-1.96v-1.403h.854v1.402zm-3.416 0v-1.403h.848v1.402zm5.124-1.967v-1.401h.859v1.401zm-3.416 0v-1.401h.854v1.401zm1.708-1.96v-1.402h.854v1.402zm-3.416 0v-1.402h.848v1.402z" fill="#FFD378"/><path d="M156.879 124.336V116.3h.86v7.111h2.991v.924zM160.893 124.336v-.924h6.837v.924zM167.893 124.336v-.924h6.837v.924zM174.893 124.336v-.924h6.837v.924zM181.893 124.336v-.924h6.837v.924zM188.893 124.336v-.924h6.837v.924zM195.893 124.336v-.924h6.837v.924zM202.893 124.336v-.924h6.837v.924zM209.893 124.336v-.924h6.837v.924zM216.893 124.336v-.924h6.837v.924zM223.893 124.336v-.924h6.837v.924zM230.893 124.336v-.924h2.986v-7.111h.86v8.035z"/><path d="M243.017 129.75v-1.402h.859v1.402zm-3.416 0v-1.402h.854v1.402zm1.708-1.96v-1.402h.854v1.402zm-3.416 0v-1.402h.848v1.402zm5.124-1.966v-1.402h.859v1.402zm-3.416 0v-1.402h.854v1.402zm1.708-1.96v-1.403h.854v1.402zm-3.416 0v-1.403h.848v1.402zm5.124-1.967v-1.401h.859v1.401zm-3.416 0v-1.401h.854v1.401zm1.708-1.96v-1.402h.854v1.402zm-3.416 0v-1.402h.848v1.402z" fill="#FFA841"/><path d="M261.879 124.336V116.3h.86v7.111h2.991v.924zM265.893 124.336v-.924h6.837v.924zM272.893 124.336v-.924h6.837v.924zM279.893 124.336v-.924h6.837v.924zM286.893 124.336v-.924h6.837v.924zM293.893 124.336v-.924h6.837v.924zM300.893 124.336v-.924h6.837v.924zM307.893 124.336v-.924h6.837v.924zM314.893 124.336v-.924h6.837v.924zM321.893 124.336v-.924h6.837v.924zM328.893 124.336v-.924h6.837v.924zM335.893 124.336v-.924h2.986v-7.111h.86v8.035z"/><path d="M348.017 129.75v-1.402h.859v1.402zm-3.416 0v-1.402h.854v1.402zm1.708-1.96v-1.402h.854v1.402zm-3.416 0v-1.402h.848v1.402zm5.124-1.966v-1.402h.859v1.402zm-3.416 0v-1.402h.854v1.402zm1.708-1.96v-1.403h.854v1.402zm-3.416 0v-1.403h.848v1.402zm5.124-1.967v-1.401h.859v1.401zm-3.416 0v-1.401h.854v1.401zm1.708-1.96v-1.402h.854v1.402zm-3.416 0v-1.402h.848v1.402z" fill="#F99"/><path d="M10.63 108.597q.183-.387.465-.572.282-.186.68-.186.725 0 1.023.562.298.56.298 2.113V114h-.902v-3.443q0-1.273-.142-1.582-.143-.308-.519-.308-.43 0-.588.33-.158.33-.158 1.56V114h-.903v-3.443q0-1.289-.153-1.59-.153-.3-.55-.3-.392 0-.546.33-.153.33-.153 1.56V114h-.897v-6.016h.897v.516q.178-.322.444-.491.265-.17.604-.17.408 0 .68.188.27.188.42.57zM16.014 113.243v3.045h-.993v-8.304h.993v.768q.247-.445.658-.679.411-.234.948-.234 1.09 0 1.71.844.621.843.621 2.336 0 1.466-.623 2.302-.623.835-1.708.835-.548 0-.959-.234-.41-.234-.647-.68zm2.9-2.245q0-1.15-.362-1.735-.363-.586-1.077-.586-.72 0-1.09.588-.37.589-.37 1.733 0 1.138.37 1.73.37.59 1.09.59.714 0 1.077-.586.363-.585.363-1.734zM24.77 110.976h-.327q-.865 0-1.303.304-.437.303-.437.905 0 .542.327.843.328.3.908.3.816 0 1.284-.566.467-.567.472-1.566v-.22zm1.918-.408V114h-.994v-.892q-.317.538-.797.793-.481.255-1.168.255-.919 0-1.467-.519-.548-.518-.548-1.388 0-1.004.674-1.525.674-.521 1.98-.521h1.326v-.156q-.005-.72-.365-1.045-.36-.325-1.15-.325-.504 0-1.02.145-.515.145-1.004.425v-.989q.548-.21 1.05-.314.502-.105.975-.105.746 0 1.275.22.53.22.857.661.204.269.29.664.086.394.086 1.184zM33.699 113.694q-.398.23-.82.346-.421.116-.861.116-1.397 0-2.184-.838-.787-.838-.787-2.32 0-1.483.787-2.32.787-.839 2.184-.839.435 0 .848.113.414.113.833.35v1.036q-.392-.35-.787-.505-.395-.156-.894-.156-.93 0-1.43.602-.499.601-.499 1.719 0 1.111.503 1.716.502.604 1.426.604.515 0 .923-.159.409-.158.758-.491zM38.298 106.276v1.708h2.245v.768h-2.245v3.266q0 .666.252.93.253.262.881.262h1.112v.79h-1.209q-1.111 0-1.568-.446-.456-.446-.456-1.536v-3.266h-1.606v-.768h1.606v-1.708zM51.879 117.32V103.3h.86v14.02z"/><path d="M78.155 105.981h1.09v7.106h3.873V114h-4.963zM88.86 109.999q0-1.768-.362-2.525-.362-.757-1.19-.757-.821 0-1.184.757-.362.757-.362 2.525 0 1.761.362 2.519.363.757 1.185.757.827 0 1.19-.755.362-.754.362-2.521zm1.134 0q0 2.094-.663 3.126-.664 1.03-2.022 1.03-1.36 0-2.02-1.025-.66-1.026-.66-3.131 0-2.1.663-3.132.663-1.031 2.017-1.031 1.358 0 2.022 1.031.663 1.031.663 3.132zM91 105.981h1.058l.768 6.51.913-4.308h1.134l.923 4.318.768-6.52h1.059L96.425 114h-1.026l-1.09-4.764L93.224 114h-1.026z" fill="#FFD478"/><path d="M128.879 117.32V103.3h.86v14.02z"/><path d="M138.017 116.75v-1.402h.859v1.402zm-3.416 0v-1.402h.854v1.402zm1.708-1.96v-1.402h.854v1.402zm-3.416 0v-1.402h.848v1.402zm5.124-1.966v-1.402h.859v1.402zm-3.416 0v-1.402h.854v1.402zm1.708-1.96v-1.403h.854v1.402zm-3.416 0v-1.403h.848v1.402zm5.124-1.967v-1.401h.859v1.401zm-3.416 0v-1.401h.854v1.401zm1.708-1.96v-1.402h.854v1.402zm-3.416 0v-1.402h.848v1.402z" fill="#FFD378"/><path d="M156.879 117.32V103.3h.86v14.02z"/><path d="M175.193 106.008h1.45l1.386 4.071 1.397-4.071h1.455V114h-1.004v-7.063l-1.429 4.21h-.822l-1.434-4.21V114h-.999zM183.058 105.981h4.759v.913h-3.674v2.16h3.513v.912h-3.513v3.12h3.776V114h-4.86zM191.342 113.108q1.37 0 1.912-.674.542-.674.542-2.435 0-1.778-.54-2.452-.54-.674-1.914-.674h-.516v6.235zm.021-7.127q1.837 0 2.707.977.87.978.87 3.04 0 2.052-.87 3.027-.87.975-2.707.975h-1.627v-8.019zM197.08 105.981h4.452v.913h-1.68v6.193h1.68V114h-4.452v-.913h1.68v-6.193h-1.68zM203.79 110.922v-4.941h1.09v5.436q0 .585.032.835t.113.384q.172.317.497.478.325.16.787.16.467 0 .79-.16.321-.161.499-.478.08-.135.112-.382.033-.247.033-.827v-5.446h1.085v4.941q0 1.23-.153 1.749-.154.518-.53.856-.354.317-.81.473-.457.156-1.026.156-.564 0-1.02-.156-.457-.156-.817-.473-.37-.333-.527-.862-.155-.529-.155-1.743zM210.193 106.008h1.45l1.386 4.071 1.397-4.071h1.455V114h-1.004v-7.063l-1.429 4.21h-.822l-1.434-4.21V114h-.999z" fill="#FFA941"/><path d="M233.879 117.32V103.3h.86v14.02z"/><path d="M243.017 116.75v-1.402h.859v1.402zm-3.416 0v-1.402h.854v1.402zm1.708-1.96v-1.402h.854v1.402zm-3.416 0v-1.402h.848v1.402zm5.124-1.966v-1.402h.859v1.402zm-3.416 0v-1.402h.854v1.402zm1.708-1.96v-1.403h.854v1.402zm-3.416 0v-1.403h.848v1.402zm5.124-1.967v-1.401h.859v1.401zm-3.416 0v-1.401h.854v1.401zm1.708-1.96v-1.402h.854v1.402zm-3.416 0v-1.402h.848v1.402z" fill="#FFA841"/><path d="M261.879 117.32V103.3h.86v14.02z"/><path d="M287.736 105.981h1.09v3.072h2.97v-3.072h1.09V114h-1.09v-4.034h-2.97V114h-1.09zM295.08 105.981h4.452v.913h-1.68v6.193h1.68V114h-4.452v-.913h1.68v-6.193h-1.68zM306.93 113.34q-.435.402-.98.609-.546.207-1.18.207-1.525 0-2.374-1.093-.848-1.093-.848-3.064 0-1.966.86-3.065.859-1.098 2.39-1.098.504 0 .966.142.462.143.892.433v1.111q-.435-.413-.892-.61-.456-.195-.967-.195-1.058 0-1.587.819-.529.819-.529 2.463 0 1.67.513 2.473.513.803 1.577.803.36 0 .63-.083.272-.084.492-.26v-2.155h-1.165v-.891h2.202zM308.736 105.981h1.09v3.072h2.97v-3.072h1.09V114h-1.09v-4.034h-2.97V114h-1.09z" fill="#F99"/><path d="M338.879 117.32V103.3h.86v14.02z"/><path d="M348.017 116.75v-1.402h.859v1.402zm-3.416 0v-1.402h.854v1.402zm1.708-1.96v-1.402h.854v1.402zm-3.416 0v-1.402h.848v1.402zm5.124-1.966v-1.402h.859v1.402zm-3.416 0v-1.402h.854v1.402zm1.708-1.96v-1.403h.854v1.402zm-3.416 0v-1.403h.848v1.402zm5.124-1.967v-1.401h.859v1.401zm-3.416 0v-1.401h.854v1.401zm1.708-1.96v-1.402h.854v1.402zm-3.416 0v-1.402h.848v1.402z" fill="#F99"/><path d="M21.032 10.419l3.277-6.553 3.281 6.553zM23.879 26.32V12.3h.86v14.02z"/><path d="M23.879 39.32V25.3h.86v14.02z"/><path d="M23.879 52.32V38.3h.86v14.02z"/><path d="M23.879 65.32V51.3h.86v14.02z"/><path d="M23.879 78.32V64.3h.86v14.02z"/><path d="M23.879 91.32V77.3h.86v14.02z"/><path d="M23.879 104.32V90.3h.86v14.02zM51.879 39.32v-6.908h3.851v.924h-2.992v5.983z"/><path d="M51.879 52.32V38.3h.86v14.02z"/><path d="M51.879 59.336V51.3h.86v7.111h2.991v.924zM51.879 104.32v-6.908h3.851v.924h-2.992v5.983zM55.893 98.336v-.924h6.837v.924zM62.893 98.336v-.924h6.837v.924zM69.893 98.336v-.924h6.837v.924zM76.893 98.336v-.924h6.837v.924zM83.893 98.336v-.924h6.837v.924zM90.893 98.336v-.924h6.837v.924zM97.893 98.336v-.924h6.837v.924zM104.893 98.336v-.924h6.837v.924zM111.893 98.336v-.924h6.837v.924zM118.893 98.336v-.924h6.837v.924zM128.879 104.32v-5.984h-2.986v-.924h3.845v6.907zM156.879 104.32v-6.908h3.851v.924h-2.992v5.983zM160.893 98.336v-.924h6.837v.924zM167.893 98.336v-.924h6.837v.924zM174.893 98.336v-.924h6.837v.924zM181.893 98.336v-.924h6.837v.924zM188.893 98.336v-.924h6.837v.924zM195.893 98.336v-.924h6.837v.924zM202.893 98.336v-.924h6.837v.924zM209.893 98.336v-.924h6.837v.924zM216.893 98.336v-.924h6.837v.924zM223.893 98.336v-.924h6.837v.924zM233.879 104.32v-5.984h-2.986v-.924h3.845v6.907zM261.879 104.32v-6.908h3.851v.924h-2.992v5.983zM265.893 98.336v-.924h6.837v.924zM272.893 98.336v-.924h6.837v.924zM279.893 98.336v-.924h6.837v.924zM286.893 98.336v-.924h6.837v.924zM293.893 98.336v-.924h6.837v.924zM300.893 98.336v-.924h6.837v.924zM307.893 98.336v-.924h6.837v.924zM314.893 98.336v-.924h6.837v.924zM321.893 98.336v-.924h6.837v.924zM328.893 98.336v-.924h6.837v.924zM338.879 104.32v-5.984h-2.986v-.924h3.845v6.907z"/><path d="M61.017 77.75v-1.402h.859v1.402zm-3.416 0v-1.402h.854v1.402zm1.708-1.96v-1.402h.854v1.402zm-3.416 0v-1.402h.848v1.402zm5.124-1.966v-1.402h.859v1.402zm-3.416 0v-1.402h.854v1.402zm1.708-1.96V70.46h.854v1.402zm-3.416 0V70.46h.848v1.402zm5.124-1.967v-1.401h.859v1.401zm-3.416 0v-1.401h.854v1.401zm1.708-1.96v-1.402h.854v1.402zm-3.416 0v-1.402h.848v1.402zM68.017 77.75v-1.402h.859v1.402zm-3.416 0v-1.402h.854v1.402zm1.708-1.96v-1.402h.854v1.402zm-3.416 0v-1.402h.848v1.402zm5.124-1.966v-1.402h.859v1.402zm-3.416 0v-1.402h.854v1.402zm1.708-1.96V70.46h.854v1.402zm-3.416 0V70.46h.848v1.402zm5.124-1.967v-1.401h.859v1.401zm-3.416 0v-1.401h.854v1.401zm1.708-1.96v-1.402h.854v1.402zm-3.416 0v-1.402h.848v1.402zM75.017 77.75v-1.402h.859v1.402zm-3.416 0v-1.402h.854v1.402zm1.708-1.96v-1.402h.854v1.402zm-3.416 0v-1.402h.848v1.402zm5.124-1.966v-1.402h.859v1.402zm-3.416 0v-1.402h.854v1.402zm1.708-1.96V70.46h.854v1.402zm-3.416 0V70.46h.848v1.402zm5.124-1.967v-1.401h.859v1.401zm-3.416 0v-1.401h.854v1.401zm1.708-1.96v-1.402h.854v1.402zm-3.416 0v-1.402h.848v1.402zM82.017 77.75v-1.402h.859v1.402zm-3.416 0v-1.402h.854v1.402zm1.708-1.96v-1.402h.854v1.402zm-3.416 0v-1.402h.848v1.402zm5.124-1.966v-1.402h.859v1.402zm-3.416 0v-1.402h.854v1.402zm1.708-1.96V70.46h.854v1.402zm-3.416 0V70.46h.848v1.402zm5.124-1.967v-1.401h.859v1.401zm-3.416 0v-1.401h.854v1.401zm1.708-1.96v-1.402h.854v1.402zm-3.416 0v-1.402h.848v1.402zM89.017 77.75v-1.402h.859v1.402zm-3.416 0v-1.402h.854v1.402zm1.708-1.96v-1.402h.854v1.402zm-3.416 0v-1.402h.848v1.402zm5.124-1.966v-1.402h.859v1.402zm-3.416 0v-1.402h.854v1.402zm1.708-1.96V70.46h.854v1.402zm-3.416 0V70.46h.848v1.402zm5.124-1.967v-1.401h.859v1.401zm-3.416 0v-1.401h.854v1.401zm1.708-1.96v-1.402h.854v1.402zm-3.416 0v-1.402h.848v1.402zM96.017 77.75v-1.402h.859v1.402zm-3.416 0v-1.402h.854v1.402zm1.708-1.96v-1.402h.854v1.402zm-3.416 0v-1.402h.848v1.402zm5.124-1.966v-1.402h.859v1.402zm-3.416 0v-1.402h.854v1.402zm1.708-1.96V70.46h.854v1.402zm-3.416 0V70.46h.848v1.402zm5.124-1.967v-1.401h.859v1.401zm-3.416 0v-1.401h.854v1.401zm1.708-1.96v-1.402h.854v1.402zm-3.416 0v-1.402h.848v1.402zM103.017 77.75v-1.402h.859v1.402zm-3.416 0v-1.402h.854v1.402zm1.708-1.96v-1.402h.854v1.402zm-3.416 0v-1.402h.848v1.402zm5.124-1.966v-1.402h.859v1.402zm-3.416 0v-1.402h.854v1.402zm1.708-1.96V70.46h.854v1.402zm-3.416 0V70.46h.848v1.402zm5.124-1.967v-1.401h.859v1.401zm-3.416 0v-1.401h.854v1.401zm1.708-1.96v-1.402h.854v1.402zm-3.416 0v-1.402h.848v1.402zM110.017 77.75v-1.402h.859v1.402zm-3.416 0v-1.402h.854v1.402zm1.708-1.96v-1.402h.854v1.402zm-3.416 0v-1.402h.848v1.402zm5.124-1.966v-1.402h.859v1.402zm-3.416 0v-1.402h.854v1.402zm1.708-1.96V70.46h.854v1.402zm-3.416 0V70.46h.848v1.402zm5.124-1.967v-1.401h.859v1.401zm-3.416 0v-1.401h.854v1.401zm1.708-1.96v-1.402h.854v1.402zm-3.416 0v-1.402h.848v1.402zM117.017 77.75v-1.402h.859v1.402zm-3.416 0v-1.402h.854v1.402zm1.708-1.96v-1.402h.854v1.402zm-3.416 0v-1.402h.848v1.402zm5.124-1.966v-1.402h.859v1.402zm-3.416 0v-1.402h.854v1.402zm1.708-1.96V70.46h.854v1.402zm-3.416 0V70.46h.848v1.402zm5.124-1.967v-1.401h.859v1.401zm-3.416 0v-1.401h.854v1.401zm1.708-1.96v-1.402h.854v1.402zm-3.416 0v-1.402h.848v1.402zM124.017 77.75v-1.402h.859v1.402zm-3.416 0v-1.402h.854v1.402zm1.708-1.96v-1.402h.854v1.402zm-3.416 0v-1.402h.848v1.402zm5.124-1.966v-1.402h.859v1.402zm-3.416 0v-1.402h.854v1.402zm1.708-1.96V70.46h.854v1.402zm-3.416 0V70.46h.848v1.402zm5.124-1.967v-1.401h.859v1.401zm-3.416 0v-1.401h.854v1.401zm1.708-1.96v-1.402h.854v1.402zm-3.416 0v-1.402h.848v1.402zM131.017 77.75v-1.402h.859v1.402zm-3.416 0v-1.402h.854v1.402zm1.708-1.96v-1.402h.854v1.402zm-3.416 0v-1.402h.848v1.402zm5.124-1.966v-1.402h.859v1.402zm-3.416 0v-1.402h.854v1.402zm1.708-1.96V70.46h.854v1.402zm-3.416 0V70.46h.848v1.402zm5.124-1.967v-1.401h.859v1.401zm-3.416 0v-1.401h.854v1.401zm1.708-1.96v-1.402h.854v1.402zm-3.416 0v-1.402h.848v1.402zM138.017 77.75v-1.402h.859v1.402zm-3.416 0v-1.402h.854v1.402zm1.708-1.96v-1.402h.854v1.402zm-3.416 0v-1.402h.848v1.402zm5.124-1.966v-1.402h.859v1.402zm-3.416 0v-1.402h.854v1.402zm1.708-1.96V70.46h.854v1.402zm-3.416 0V70.46h.848v1.402zm5.124-1.967v-1.401h.859v1.401zm-3.416 0v-1.401h.854v1.401zm1.708-1.96v-1.402h.854v1.402zm-3.416 0v-1.402h.848v1.402z" fill="#FFA841"/><path d="M166.017 77.75v-1.402h.859v1.402zm-3.416 0v-1.402h.854v1.402zm1.708-1.96v-1.402h.854v1.402zm-3.416 0v-1.402h.848v1.402zm5.124-1.966v-1.402h.859v1.402zm-3.416 0v-1.402h.854v1.402zm1.708-1.96V70.46h.854v1.402zm-3.416 0V70.46h.848v1.402zm5.124-1.967v-1.401h.859v1.401zm-3.416 0v-1.401h.854v1.401zm1.708-1.96v-1.402h.854v1.402zm-3.416 0v-1.402h.848v1.402zM173.017 77.75v-1.402h.859v1.402zm-3.416 0v-1.402h.854v1.402zm1.708-1.96v-1.402h.854v1.402zm-3.416 0v-1.402h.848v1.402zm5.124-1.966v-1.402h.859v1.402zm-3.416 0v-1.402h.854v1.402zm1.708-1.96V70.46h.854v1.402zm-3.416 0V70.46h.848v1.402zm5.124-1.967v-1.401h.859v1.401zm-3.416 0v-1.401h.854v1.401zm1.708-1.96v-1.402h.854v1.402zm-3.416 0v-1.402h.848v1.402zM180.017 77.75v-1.402h.859v1.402zm-3.416 0v-1.402h.854v1.402zm1.708-1.96v-1.402h.854v1.402zm-3.416 0v-1.402h.848v1.402zm5.124-1.966v-1.402h.859v1.402zm-3.416 0v-1.402h.854v1.402zm1.708-1.96V70.46h.854v1.402zm-3.416 0V70.46h.848v1.402zm5.124-1.967v-1.401h.859v1.401zm-3.416 0v-1.401h.854v1.401zm1.708-1.96v-1.402h.854v1.402zm-3.416 0v-1.402h.848v1.402zM187.017 77.75v-1.402h.859v1.402zm-3.416 0v-1.402h.854v1.402zm1.708-1.96v-1.402h.854v1.402zm-3.416 0v-1.402h.848v1.402zm5.124-1.966v-1.402h.859v1.402zm-3.416 0v-1.402h.854v1.402zm1.708-1.96V70.46h.854v1.402zm-3.416 0V70.46h.848v1.402zm5.124-1.967v-1.401h.859v1.401zm-3.416 0v-1.401h.854v1.401zm1.708-1.96v-1.402h.854v1.402zm-3.416 0v-1.402h.848v1.402zM194.017 77.75v-1.402h.859v1.402zm-3.416 0v-1.402h.854v1.402zm1.708-1.96v-1.402h.854v1.402zm-3.416 0v-1.402h.848v1.402zm5.124-1.966v-1.402h.859v1.402zm-3.416 0v-1.402h.854v1.402zm1.708-1.96V70.46h.854v1.402zm-3.416 0V70.46h.848v1.402zm5.124-1.967v-1.401h.859v1.401zm-3.416 0v-1.401h.854v1.401zm1.708-1.96v-1.402h.854v1.402zm-3.416 0v-1.402h.848v1.402zM201.017 77.75v-1.402h.859v1.402zm-3.416 0v-1.402h.854v1.402zm1.708-1.96v-1.402h.854v1.402zm-3.416 0v-1.402h.848v1.402zm5.124-1.966v-1.402h.859v1.402zm-3.416 0v-1.402h.854v1.402zm1.708-1.96V70.46h.854v1.402zm-3.416 0V70.46h.848v1.402zm5.124-1.967v-1.401h.859v1.401zm-3.416 0v-1.401h.854v1.401zm1.708-1.96v-1.402h.854v1.402zm-3.416 0v-1.402h.848v1.402zM208.017 77.75v-1.402h.859v1.402zm-3.416 0v-1.402h.854v1.402zm1.708-1.96v-1.402h.854v1.402zm-3.416 0v-1.402h.848v1.402zm5.124-1.966v-1.402h.859v1.402zm-3.416 0v-1.402h.854v1.402zm1.708-1.96V70.46h.854v1.402zm-3.416 0V70.46h.848v1.402zm5.124-1.967v-1.401h.859v1.401zm-3.416 0v-1.401h.854v1.401zm1.708-1.96v-1.402h.854v1.402zm-3.416 0v-1.402h.848v1.402zM215.017 77.75v-1.402h.859v1.402zm-3.416 0v-1.402h.854v1.402zm1.708-1.96v-1.402h.854v1.402zm-3.416 0v-1.402h.848v1.402zm5.124-1.966v-1.402h.859v1.402zm-3.416 0v-1.402h.854v1.402zm1.708-1.96V70.46h.854v1.402zm-3.416 0V70.46h.848v1.402zm5.124-1.967v-1.401h.859v1.401zm-3.416 0v-1.401h.854v1.401zm1.708-1.96v-1.402h.854v1.402zm-3.416 0v-1.402h.848v1.402zM222.017 77.75v-1.402h.859v1.402zm-3.416 0v-1.402h.854v1.402zm1.708-1.96v-1.402h.854v1.402zm-3.416 0v-1.402h.848v1.402zm5.124-1.966v-1.402h.859v1.402zm-3.416 0v-1.402h.854v1.402zm1.708-1.96V70.46h.854v1.402zm-3.416 0V70.46h.848v1.402zm5.124-1.967v-1.401h.859v1.401zm-3.416 0v-1.401h.854v1.401zm1.708-1.96v-1.402h.854v1.402zm-3.416 0v-1.402h.848v1.402zM229.017 77.75v-1.402h.859v1.402zm-3.416 0v-1.402h.854v1.402zm1.708-1.96v-1.402h.854v1.402zm-3.416 0v-1.402h.848v1.402zm5.124-1.966v-1.402h.859v1.402zm-3.416 0v-1.402h.854v1.402zm1.708-1.96V70.46h.854v1.402zm-3.416 0V70.46h.848v1.402zm5.124-1.967v-1.401h.859v1.401zm-3.416 0v-1.401h.854v1.401zm1.708-1.96v-1.402h.854v1.402zm-3.416 0v-1.402h.848v1.402zM236.017 77.75v-1.402h.859v1.402zm-3.416 0v-1.402h.854v1.402zm1.708-1.96v-1.402h.854v1.402zm-3.416 0v-1.402h.848v1.402zm5.124-1.966v-1.402h.859v1.402zm-3.416 0v-1.402h.854v1.402zm1.708-1.96V70.46h.854v1.402zm-3.416 0V70.46h.848v1.402zm5.124-1.967v-1.401h.859v1.401zm-3.416 0v-1.401h.854v1.401zm1.708-1.96v-1.402h.854v1.402zm-3.416 0v-1.402h.848v1.402zM243.017 77.75v-1.402h.859v1.402zm-3.416 0v-1.402h.854v1.402zm1.708-1.96v-1.402h.854v1.402zm-3.416 0v-1.402h.848v1.402zm5.124-1.966v-1.402h.859v1.402zm-3.416 0v-1.402h.854v1.402zm1.708-1.96V70.46h.854v1.402zm-3.416 0V70.46h.848v1.402zm5.124-1.967v-1.401h.859v1.401zm-3.416 0v-1.401h.854v1.401zm1.708-1.96v-1.402h.854v1.402zm-3.416 0v-1.402h.848v1.402z" fill="#F99"/><path d="M271.017 77.75v-1.402h.859v1.402zm-3.416 0v-1.402h.854v1.402zm1.708-1.96v-1.402h.854v1.402zm-3.416 0v-1.402h.848v1.402zm5.124-1.966v-1.402h.859v1.402zm-3.416 0v-1.402h.854v1.402zm1.708-1.96V70.46h.854v1.402zm-3.416 0V70.46h.848v1.402zm5.124-1.967v-1.401h.859v1.401zm-3.416 0v-1.401h.854v1.401zm1.708-1.96v-1.402h.854v1.402zm-3.416 0v-1.402h.848v1.402zM278.017 77.75v-1.402h.859v1.402zm-3.416 0v-1.402h.854v1.402zm1.708-1.96v-1.402h.854v1.402zm-3.416 0v-1.402h.848v1.402zm5.124-1.966v-1.402h.859v1.402zm-3.416 0v-1.402h.854v1.402zm1.708-1.96V70.46h.854v1.402zm-3.416 0V70.46h.848v1.402zm5.124-1.967v-1.401h.859v1.401zm-3.416 0v-1.401h.854v1.401zm1.708-1.96v-1.402h.854v1.402zm-3.416 0v-1.402h.848v1.402zM285.017 77.75v-1.402h.859v1.402zm-3.416 0v-1.402h.854v1.402zm1.708-1.96v-1.402h.854v1.402zm-3.416 0v-1.402h.848v1.402zm5.124-1.966v-1.402h.859v1.402zm-3.416 0v-1.402h.854v1.402zm1.708-1.96V70.46h.854v1.402zm-3.416 0V70.46h.848v1.402zm5.124-1.967v-1.401h.859v1.401zm-3.416 0v-1.401h.854v1.401zm1.708-1.96v-1.402h.854v1.402zm-3.416 0v-1.402h.848v1.402zM292.017 77.75v-1.402h.859v1.402zm-3.416 0v-1.402h.854v1.402zm1.708-1.96v-1.402h.854v1.402zm-3.416 0v-1.402h.848v1.402zm5.124-1.966v-1.402h.859v1.402zm-3.416 0v-1.402h.854v1.402zm1.708-1.96V70.46h.854v1.402zm-3.416 0V70.46h.848v1.402zm5.124-1.967v-1.401h.859v1.401zm-3.416 0v-1.401h.854v1.401zm1.708-1.96v-1.402h.854v1.402zm-3.416 0v-1.402h.848v1.402zM299.017 77.75v-1.402h.859v1.402zm-3.416 0v-1.402h.854v1.402zm1.708-1.96v-1.402h.854v1.402zm-3.416 0v-1.402h.848v1.402zm5.124-1.966v-1.402h.859v1.402zm-3.416 0v-1.402h.854v1.402zm1.708-1.96V70.46h.854v1.402zm-3.416 0V70.46h.848v1.402zm5.124-1.967v-1.401h.859v1.401zm-3.416 0v-1.401h.854v1.401zm1.708-1.96v-1.402h.854v1.402zm-3.416 0v-1.402h.848v1.402zM306.017 77.75v-1.402h.859v1.402zm-3.416 0v-1.402h.854v1.402zm1.708-1.96v-1.402h.854v1.402zm-3.416 0v-1.402h.848v1.402zm5.124-1.966v-1.402h.859v1.402zm-3.416 0v-1.402h.854v1.402zm1.708-1.96V70.46h.854v1.402zm-3.416 0V70.46h.848v1.402zm5.124-1.967v-1.401h.859v1.401zm-3.416 0v-1.401h.854v1.401zm1.708-1.96v-1.402h.854v1.402zm-3.416 0v-1.402h.848v1.402zM313.017 77.75v-1.402h.859v1.402zm-3.416 0v-1.402h.854v1.402zm1.708-1.96v-1.402h.854v1.402zm-3.416 0v-1.402h.848v1.402zm5.124-1.966v-1.402h.859v1.402zm-3.416 0v-1.402h.854v1.402zm1.708-1.96V70.46h.854v1.402zm-3.416 0V70.46h.848v1.402zm5.124-1.967v-1.401h.859v1.401zm-3.416 0v-1.401h.854v1.401zm1.708-1.96v-1.402h.854v1.402zm-3.416 0v-1.402h.848v1.402zM320.017 77.75v-1.402h.859v1.402zm-3.416 0v-1.402h.854v1.402zm1.708-1.96v-1.402h.854v1.402zm-3.416 0v-1.402h.848v1.402zm5.124-1.966v-1.402h.859v1.402zm-3.416 0v-1.402h.854v1.402zm1.708-1.96V70.46h.854v1.402zm-3.416 0V70.46h.848v1.402zm5.124-1.967v-1.401h.859v1.401zm-3.416 0v-1.401h.854v1.401zm1.708-1.96v-1.402h.854v1.402zm-3.416 0v-1.402h.848v1.402zM327.017 77.75v-1.402h.859v1.402zm-3.416 0v-1.402h.854v1.402zm1.708-1.96v-1.402h.854v1.402zm-3.416 0v-1.402h.848v1.402zm5.124-1.966v-1.402h.859v1.402zm-3.416 0v-1.402h.854v1.402zm1.708-1.96V70.46h.854v1.402zm-3.416 0V70.46h.848v1.402zm5.124-1.967v-1.401h.859v1.401zm-3.416 0v-1.401h.854v1.401zm1.708-1.96v-1.402h.854v1.402zm-3.416 0v-1.402h.848v1.402zM334.017 77.75v-1.402h.859v1.402zm-3.416 0v-1.402h.854v1.402zm1.708-1.96v-1.402h.854v1.402zm-3.416 0v-1.402h.848v1.402zm5.124-1.966v-1.402h.859v1.402zm-3.416 0v-1.402h.854v1.402zm1.708-1.96V70.46h.854v1.402zm-3.416 0V70.46h.848v1.402zm5.124-1.967v-1.401h.859v1.401zm-3.416 0v-1.401h.854v1.401zm1.708-1.96v-1.402h.854v1.402zm-3.416 0v-1.402h.848v1.402zM341.017 77.75v-1.402h.859v1.402zm-3.416 0v-1.402h.854v1.402zm1.708-1.96v-1.402h.854v1.402zm-3.416 0v-1.402h.848v1.402zm5.124-1.966v-1.402h.859v1.402zm-3.416 0v-1.402h.854v1.402zm1.708-1.96V70.46h.854v1.402zm-3.416 0V70.46h.848v1.402zm5.124-1.967v-1.401h.859v1.401zm-3.416 0v-1.401h.854v1.401zm1.708-1.96v-1.402h.854v1.402zm-3.416 0v-1.402h.848v1.402zM348.017 77.75v-1.402h.859v1.402zm-3.416 0v-1.402h.854v1.402zm1.708-1.96v-1.402h.854v1.402zm-3.416 0v-1.402h.848v1.402zm5.124-1.966v-1.402h.859v1.402zm-3.416 0v-1.402h.854v1.402zm1.708-1.96V70.46h.854v1.402zm-3.416 0V70.46h.848v1.402zm5.124-1.967v-1.401h.859v1.401zm-3.416 0v-1.401h.854v1.401zm1.708-1.96v-1.402h.854v1.402zm-3.416 0v-1.402h.848v1.402z" fill="#D64841"/><path d="M55.893 59.336v-.924h6.837v.924zM62.893 59.336v-.924h6.837v.924zM69.893 59.336v-.924h6.837v.924zM76.893 59.336v-.924h6.837v.924zM83.893 59.336v-.924h6.837v.924zM90.893 59.336v-.924h6.837v.924zM97.893 59.336v-.924h6.837v.924zM104.893 59.336v-.924h6.837v.924zM111.893 59.336v-.924h6.837v.924zM118.893 59.336v-.924h6.837v.924zM125.893 59.336v-.924h2.986v-7.111h.86v8.035z"/><path d="M138.017 64.75v-1.402h.859v1.402zm-3.416 0v-1.402h.854v1.402zm1.708-1.96v-1.402h.854v1.402zm-3.416 0v-1.402h.848v1.402zm5.124-1.966v-1.402h.859v1.402zm-3.416 0v-1.402h.854v1.402zm1.708-1.96V57.46h.854v1.402zm-3.416 0V57.46h.848v1.402zm5.124-1.967v-1.401h.859v1.401zm-3.416 0v-1.401h.854v1.401zm1.708-1.96v-1.402h.854v1.402zm-3.416 0v-1.402h.848v1.402z" fill="#FFA841"/><path d="M156.879 59.336V51.3h.86v7.111h2.991v.924zM160.893 59.336v-.924h6.837v.924zM167.893 59.336v-.924h6.837v.924zM174.893 59.336v-.924h6.837v.924zM181.893 59.336v-.924h6.837v.924zM188.893 59.336v-.924h6.837v.924zM195.893 59.336v-.924h6.837v.924zM202.893 59.336v-.924h6.837v.924zM209.893 59.336v-.924h6.837v.924zM216.893 59.336v-.924h6.837v.924zM223.893 59.336v-.924h6.837v.924zM230.893 59.336v-.924h2.986v-7.111h.86v8.035z"/><path d="M243.017 64.75v-1.402h.859v1.402zm-3.416 0v-1.402h.854v1.402zm1.708-1.96v-1.402h.854v1.402zm-3.416 0v-1.402h.848v1.402zm5.124-1.966v-1.402h.859v1.402zm-3.416 0v-1.402h.854v1.402zm1.708-1.96V57.46h.854v1.402zm-3.416 0V57.46h.848v1.402zm5.124-1.967v-1.401h.859v1.401zm-3.416 0v-1.401h.854v1.401zm1.708-1.96v-1.402h.854v1.402zm-3.416 0v-1.402h.848v1.402z" fill="#F99"/><path d="M261.879 59.336V51.3h.86v7.111h2.991v.924zM265.893 59.336v-.924h6.837v.924zM272.893 59.336v-.924h6.837v.924zM279.893 59.336v-.924h6.837v.924zM286.893 59.336v-.924h6.837v.924zM293.893 59.336v-.924h6.837v.924zM300.893 59.336v-.924h6.837v.924zM307.893 59.336v-.924h6.837v.924zM314.893 59.336v-.924h6.837v.924zM321.893 59.336v-.924h6.837v.924zM328.893 59.336v-.924h6.837v.924zM335.893 59.336v-.924h2.986v-7.111h.86v8.035z"/><path d="M348.017 64.75v-1.402h.859v1.402zm-3.416 0v-1.402h.854v1.402zm1.708-1.96v-1.402h.854v1.402zm-3.416 0v-1.402h.848v1.402zm5.124-1.966v-1.402h.859v1.402zm-3.416 0v-1.402h.854v1.402zm1.708-1.96V57.46h.854v1.402zm-3.416 0V57.46h.848v1.402zm5.124-1.967v-1.401h.859v1.401zm-3.416 0v-1.401h.854v1.401zm1.708-1.96v-1.402h.854v1.402zm-3.416 0v-1.402h.848v1.402z" fill="#D64841"/><path d="M70.193 41.008h1.45l1.386 4.071 1.397-4.071h1.455V49h-1.004v-7.063l-1.429 4.21h-.822l-1.434-4.21V49h-.999zM78.058 40.981h4.759v.913h-3.674v2.16h3.513v.912h-3.513v3.12h3.776V49h-4.86zM86.342 48.108q1.37 0 1.912-.674.542-.674.542-2.435 0-1.778-.54-2.452-.54-.674-1.914-.674h-.516v6.235zm.021-7.127q1.837 0 2.707.977.87.978.87 3.04 0 2.052-.87 3.027-.87.975-2.707.975h-1.627v-8.019zM92.08 40.981h4.452v.913h-1.68v6.193h1.68V49H92.08v-.913h1.68v-6.193h-1.68zM98.79 45.922v-4.941h1.09v5.436q0 .585.032.835t.113.384q.172.317.497.478.325.16.787.16.467 0 .79-.16.321-.161.499-.478.08-.135.112-.382.033-.247.033-.827v-5.446h1.085v4.941q0 1.23-.153 1.749-.154.518-.53.856-.354.317-.81.473-.457.156-1.026.156-.564 0-1.02-.156-.457-.156-.817-.473-.37-.333-.527-.862-.155-.529-.155-1.743zM105.193 41.008h1.45l1.386 4.071 1.397-4.071h1.455V49h-1.004v-7.063l-1.429 4.21h-.822l-1.434-4.21V49h-.999z" fill="#FFA941"/><path d="M128.879 52.32V38.3h.86v14.02z"/><path d="M138.017 51.75v-1.402h.859v1.402zm-3.416 0v-1.402h.854v1.402zm1.708-1.96v-1.402h.854v1.402zm-3.416 0v-1.402h.848v1.402zm5.124-1.966v-1.402h.859v1.402zm-3.416 0v-1.402h.854v1.402zm1.708-1.96V44.46h.854v1.402zm-3.416 0V44.46h.848v1.402zm5.124-1.967v-1.401h.859v1.401zm-3.416 0v-1.401h.854v1.401zm1.708-1.96v-1.402h.854v1.402zm-3.416 0v-1.402h.848v1.402z" fill="#FFA841"/><path d="M156.879 52.32V38.3h.86v14.02z"/><path d="M182.736 40.981h1.09v3.072h2.97v-3.072h1.09V49h-1.09v-4.034h-2.97V49h-1.09zM190.08 40.981h4.452v.913h-1.68v6.193h1.68V49h-4.452v-.913h1.68v-6.193h-1.68zM201.93 48.34q-.435.402-.98.609-.546.207-1.18.207-1.525 0-2.374-1.093-.848-1.093-.848-3.064 0-1.966.86-3.065.859-1.098 2.39-1.098.504 0 .966.142.462.143.892.433v1.111q-.435-.413-.892-.61-.456-.195-.967-.195-1.058 0-1.587.819-.529.819-.529 2.463 0 1.67.513 2.473.513.803 1.577.803.36 0 .63-.083.272-.084.492-.26v-2.155h-1.165v-.891h2.202zM203.736 40.981h1.09v3.072h2.97v-3.072h1.09V49h-1.09v-4.034h-2.97V49h-1.09z" fill="#F99"/><path d="M233.879 52.32V38.3h.86v14.02z"/><path d="M243.017 51.75v-1.402h.859v1.402zm-3.416 0v-1.402h.854v1.402zm1.708-1.96v-1.402h.854v1.402zm-3.416 0v-1.402h.848v1.402zm5.124-1.966v-1.402h.859v1.402zm-3.416 0v-1.402h.854v1.402zm1.708-1.96V44.46h.854v1.402zm-3.416 0V44.46h.848v1.402zm5.124-1.967v-1.401h.859v1.401zm-3.416 0v-1.401h.854v1.401zm1.708-1.96v-1.402h.854v1.402zm-3.416 0v-1.402h.848v1.402z" fill="#F99"/><path d="M261.879 52.32V38.3h.86v14.02z"/><path d="M278.763 48.715q-.413.22-.848.33-.436.11-.924.11-1.542 0-2.393-1.09-.851-1.09-.851-3.066 0-1.966.856-3.065.857-1.098 2.388-1.098.488 0 .924.11.435.11.848.33v1.112q-.397-.327-.854-.5-.456-.171-.918-.171-1.058 0-1.585.816-.526.817-.526 2.466 0 1.643.526 2.46.527.816 1.585.816.472 0 .926-.172.454-.172.846-.5zM284.082 45.213q.419.108.714.406.296.298.736 1.19l1.09 2.191h-1.165l-.956-2.025q-.414-.865-.744-1.114-.33-.25-.862-.25h-1.037V49h-1.09v-8.019h2.234q1.322 0 2.025.596.704.596.704 1.724 0 .795-.432 1.297-.433.503-1.217.615zm-2.224-3.34v2.846h1.187q.78 0 1.16-.349.382-.349.382-1.069 0-.693-.406-1.06-.405-.368-1.179-.368zM288.08 40.981h4.452v.913h-1.68v6.193h1.68V49h-4.452v-.913h1.68v-6.193h-1.68zM294.252 40.981h6.118v.913h-2.508V49h-1.09v-7.106h-2.52zM302.08 40.981h4.452v.913h-1.68v6.193h1.68V49h-4.452v-.913h1.68v-6.193h-1.68zM313.763 48.715q-.413.22-.848.33-.436.11-.924.11-1.542 0-2.393-1.09-.851-1.09-.851-3.066 0-1.966.856-3.065.857-1.098 2.388-1.098.488 0 .924.11.435.11.848.33v1.112q-.397-.327-.854-.5-.456-.171-.918-.171-1.058 0-1.585.816-.526.817-.526 2.466 0 1.643.526 2.46.527.816 1.585.816.472 0 .926-.172.454-.172.846-.5zM318.309 41.937l-1.144 4.104h2.288zm-.656-.956h1.316L321.424 49H320.3l-.59-2.09h-2.81l-.58 2.09H315.2zM323.155 40.981h1.09v7.106h3.873V49h-4.963z" fill="#D74941"/><path d="M338.879 52.32V38.3h.86v14.02z"/><path d="M348.017 51.75v-1.402h.859v1.402zm-3.416 0v-1.402h.854v1.402zm1.708-1.96v-1.402h.854v1.402zm-3.416 0v-1.402h.848v1.402zm5.124-1.966v-1.402h.859v1.402zm-3.416 0v-1.402h.854v1.402zm1.708-1.96V44.46h.854v1.402zm-3.416 0V44.46h.848v1.402zm5.124-1.967v-1.401h.859v1.401zm-3.416 0v-1.401h.854v1.401zm1.708-1.96v-1.402h.854v1.402zm-3.416 0v-1.402h.848v1.402z" fill="#D64841"/><path d="M55.893 33.336v-.924h6.837v.924zM62.893 33.336v-.924h6.837v.924zM69.893 33.336v-.924h6.837v.924zM76.893 33.336v-.924h6.837v.924zM83.893 33.336v-.924h6.837v.924zM90.893 33.336v-.924h6.837v.924zM97.893 33.336v-.924h6.837v.924zM104.893 33.336v-.924h6.837v.924zM111.893 33.336v-.924h6.837v.924zM118.893 33.336v-.924h6.837v.924zM128.879 39.32v-5.984h-2.986v-.924h3.845v6.907zM156.879 39.32v-6.908h3.851v.924h-2.992v5.983zM160.893 33.336v-.924h6.837v.924zM167.893 33.336v-.924h6.837v.924zM174.893 33.336v-.924h6.837v.924zM181.893 33.336v-.924h6.837v.924zM188.893 33.336v-.924h6.837v.924zM195.893 33.336v-.924h6.837v.924zM202.893 33.336v-.924h6.837v.924zM209.893 33.336v-.924h6.837v.924zM216.893 33.336v-.924h6.837v.924zM223.893 33.336v-.924h6.837v.924zM233.879 39.32v-5.984h-2.986v-.924h3.845v6.907zM261.879 39.32v-6.908h3.851v.924h-2.992v5.983zM265.893 33.336v-.924h6.837v.924zM272.893 33.336v-.924h6.837v.924zM279.893 33.336v-.924h6.837v.924zM286.893 33.336v-.924h6.837v.924zM293.893 33.336v-.924h6.837v.924zM300.893 33.336v-.924h6.837v.924zM307.893 33.336v-.924h6.837v.924zM314.893 33.336v-.924h6.837v.924zM321.893 33.336v-.924h6.837v.924zM328.893 33.336v-.924h6.837v.924zM338.879 39.32v-5.984h-2.986v-.924h3.845v6.907zM144.86 5.999q0-1.768-.362-2.525-.362-.757-1.19-.757-.821 0-1.184.757-.362.757-.362 2.525 0 1.761.362 2.519.363.757 1.185.757.827 0 1.19-.755.362-.754.362-2.521zm1.134 0q0 2.094-.663 3.126-.664 1.03-2.022 1.03-1.36 0-2.02-1.025-.66-1.026-.66-3.131 0-2.1.663-3.132.663-1.031 2.017-1.031 1.358 0 2.022 1.031.663 1.031.663 3.132zM152.436 2.255v1.101q-.495-.317-.991-.478-.497-.161-1.002-.161-.768 0-1.214.357-.446.357-.446.964 0 .532.293.811.293.28 1.093.467l.57.13q1.127.262 1.643.826.515.564.515 1.537 0 1.144-.709 1.745-.709.602-2.062.602-.564 0-1.133-.121-.57-.12-1.144-.363V8.518q.617.392 1.168.574.55.183 1.109.183.822 0 1.278-.368.457-.368.457-1.029 0-.601-.314-.918-.315-.317-1.093-.489l-.58-.134q-1.118-.253-1.623-.763-.504-.51-.504-1.37 0-1.074.722-1.72.722-.648 1.92-.648.462 0 .972.105.51.104 1.075.314zM154 1.981h1.058l.768 6.51.913-4.308h1.134l.923 4.318.768-6.52h1.059L159.425 10h-1.026l-1.09-4.764L156.224 10h-1.026zM164.309 2.937l-1.144 4.104h2.288zm-.656-.956h1.316L167.424 10H166.3l-.59-2.09h-2.81l-.58 2.09H161.2zM170.143 2.873v3.013h1.257q.752 0 1.173-.398.422-.397.422-1.112 0-.714-.419-1.109-.419-.394-1.176-.394zm-1.085-.892h2.342q1.343 0 2.036.61.692.61.692 1.785 0 1.187-.69 1.794t-2.038.607h-1.257V10h-1.085zM186.082 6.213q.419.108.714.406.296.298.736 1.19l1.09 2.191h-1.165l-.956-2.025q-.414-.865-.744-1.114-.33-.25-.862-.25h-1.037V10h-1.09V1.981h2.234q1.322 0 2.025.596.704.596.704 1.724 0 .795-.432 1.297-.433.503-1.217.615zm-2.224-3.34v2.846h1.187q.78 0 1.16-.349.382-.349.382-1.069 0-.693-.406-1.06-.405-.368-1.179-.368zM190.697 4.006h2.53v5.226h1.96V10h-4.909v-.768h1.96V4.774h-1.54zm1.542-2.337h.988v1.247h-.988zM201.226 4.194v.967q-.424-.247-.854-.371-.43-.123-.875-.123-.672 0-1.002.217-.33.218-.33.663 0 .403.247.602.247.199 1.23.387l.397.075q.736.14 1.115.558.378.42.378 1.09 0 .892-.634 1.395-.633.502-1.761.502-.446 0-.935-.094-.489-.094-1.058-.282V8.76q.553.284 1.058.426.505.143.956.143.655 0 1.015-.266.36-.266.36-.744 0-.688-1.316-.95l-.043-.012-.37-.075q-.854-.166-1.246-.561t-.392-1.077q0-.865.585-1.335t1.67-.47q.484 0 .93.089.445.089.875.266zM204.268 1.643h1.02v4.839l2.594-2.498h1.203l-2.368 2.267 2.74 3.749h-1.21l-2.223-3.104-.736.692V10h-1.02zM217.193 2.008h1.45l1.386 4.071 1.397-4.071h1.455V10h-1.004V2.937l-1.429 4.21h-.822l-1.434-4.21V10h-.999zM227.309 4.677q-.752 0-1.14.586-.386.585-.386 1.735 0 1.144.387 1.732.387.588 1.139.588.757 0 1.144-.588.386-.588.386-1.732 0-1.15-.386-1.735-.387-.586-1.144-.586zm0-.838q1.251 0 1.914.811.664.811.664 2.348 0 1.541-.66 2.35-.662.808-1.918.808-1.252 0-1.913-.809-.66-.808-.66-2.35 0-1.536.66-2.347.661-.81 1.913-.81zM235.608 4.752v-3.11h.989V10h-.989v-.757q-.247.445-.658.68-.41.233-.948.233-1.09 0-1.716-.846-.625-.846-.625-2.334 0-1.466.628-2.301.628-.836 1.713-.836.543 0 .956.234.414.234.65.68zm-2.905 2.246q0 1.149.365 1.734.365.586 1.08.586.714 0 1.087-.59.373-.592.373-1.73 0-1.144-.373-1.733-.373-.588-1.088-.588-.714 0-1.08.586-.364.585-.364 1.735zM244.016 6.498v.483h-4.281v.033q-.043 1.23.47 1.767.513.537 1.447.537.473 0 .989-.15.515-.15 1.1-.457v.983q-.563.23-1.087.346-.524.116-1.012.116-1.402 0-2.192-.84-.79-.841-.79-2.318 0-1.44.774-2.3.774-.859 2.063-.859 1.149 0 1.812.78.664.778.707 1.879zm-.989-.29q-.064-.623-.454-1.077-.389-.454-1.12-.454-.714 0-1.176.473-.462.473-.505 1.063zM248.862 7.825q0 .666.244 1.004.245.338.723.338h1.154V10h-1.251q-.886 0-1.372-.567-.486-.566-.486-1.608V2.384h-1.585V1.61h2.573z"/></svg>