<svg xmlns="http://www.w3.org/2000/svg" width="330" height="300"><path d="M5.699 191.694q-.398.23-.82.346-.421.116-.861.116-1.397 0-2.184-.838-.787-.838-.787-2.32 0-1.483.787-2.32.787-.839 2.184-.839.435 0 .848.113.414.113.833.35v1.036q-.392-.35-.787-.505-.395-.156-.894-.156-.93 0-1.43.602-.499.601-.499 1.719 0 1.111.503 1.716.502.604 1.426.604.515 0 .923-.159.409-.158.758-.491zm20.946 48.578V244h-.994v-3.728q0-.81-.284-1.192-.285-.381-.892-.381-.693 0-1.066.491-.373.492-.373 1.41v3.4h-.989v-8.357h.989v3.244q.263-.516.714-.782.451-.266 1.069-.266.918 0 1.372.605.454.604.454 1.828zm21 26V270h-.994v-3.728q0-.81-.284-1.192-.285-.381-.892-.381-.693 0-1.066.491-.373.492-.373 1.41v3.4h-.989v-8.357h.989v3.244q.263-.516.714-.782.451-.266 1.069-.266.918 0 1.372.605.454.604.454 1.828zm14.054 29.422q-.398.23-.82.346-.421.116-.861.116-1.397 0-2.184-.838-.787-.838-.787-2.32 0-1.483.787-2.32.787-.839 2.184-.839.435 0 .848.113.414.113.833.35v1.036q-.392-.35-.787-.505-.395-.156-.894-.156-.93 0-1.43.602-.499.601-.499 1.719 0 1.111.503 1.716.502.604 1.426.604.515 0 .923-.159.409-.158.758-.491zm5.071-2.718h-.327q-.865 0-1.303.304-.437.303-.437.905 0 .542.327.843.328.3.908.3.816 0 1.284-.566.467-.567.472-1.566v-.22zm1.918-.408V296h-.994v-.892q-.317.538-.797.793-.481.255-1.168.255-.919 0-1.467-.519-.548-.518-.548-1.388 0-1.004.674-1.525.674-.521 1.98-.521h1.326v-.156q-.005-.72-.365-1.045-.36-.325-1.15-.325-.504 0-1.02.145-.515.145-1.004.425v-.989q.548-.21 1.05-.314.502-.105.975-.105.746 0 1.275.22.53.22.857.661.204.269.29.664.086.394.086 1.184zm6.957-.296V296h-.994v-3.728q0-.81-.284-1.192-.285-.381-.892-.381-.693 0-1.066.491-.373.492-.373 1.41v3.4h-.989v-6.016h.989v.903q.263-.516.714-.782.451-.266 1.069-.266.918 0 1.372.605.454.604.454 1.828zm14 0V296h-.994v-3.728q0-.81-.284-1.192-.285-.381-.892-.381-.693 0-1.066.491-.373.492-.373 1.41v3.4h-.989v-8.357h.989v3.244q.263-.516.714-.782.451-.266 1.069-.266.918 0 1.372.605.454.604.454 1.828zm4.664-1.595q-.752 0-1.14.586-.386.585-.386 1.735 0 1.144.387 1.732.387.588 1.139.588.757 0 1.144-.588.386-.588.386-1.732 0-1.15-.386-1.735-.387-.586-1.144-.586zm0-.838q1.251 0 1.914.811.664.811.664 2.348 0 1.541-.66 2.35-.662.808-1.918.808-1.252 0-1.913-.809-.66-.808-.66-2.35 0-1.536.66-2.347.661-.81 1.913-.81zm7.553 3.986q0 .666.244 1.004.245.338.723.338h1.154V296h-1.251q-.886 0-1.372-.567-.486-.566-.486-1.608v-5.441h-1.585v-.774h2.573zm7.746-3.073v-3.11h.989V296h-.989v-.757q-.247.445-.658.68-.41.233-.948.233-1.09 0-1.716-.846-.625-.846-.625-2.334 0-1.466.628-2.301.628-.836 1.713-.836.543 0 .956.234.414.234.65.68zm-2.905 2.246q0 1.149.365 1.734.365.586 1.08.586.714 0 1.087-.59.373-.592.373-1.73 0-1.144-.373-1.733-.373-.588-1.088-.588-.714 0-1.08.586-.364.585-.364 1.735zm12.77-2.16v-.977l5.677 2.245v.892l-5.677 2.245v-.983l4.565-1.703zm7.977 4.254h1.687v-6.058l-2.02.972v-1.042l2.009-.956h1.085v7.084h1.665V296h-4.426zm18.754-3.867q-.317-.247-.645-.36-.328-.113-.72-.113-.923 0-1.412.58-.489.58-.489 1.676V296h-.994v-6.016h.994v1.177q.247-.64.76-.98.513-.342 1.217-.342.365 0 .682.092.317.091.607.284zm4.105-.548q-.752 0-1.14.586-.386.585-.386 1.735 0 1.144.387 1.732.387.588 1.139.588.757 0 1.144-.588.386-.588.386-1.732 0-1.15-.386-1.735-.387-.586-1.144-.586zm0-.838q1.251 0 1.914.811.664.811.664 2.348 0 1.541-.66 2.35-.662.808-1.918.808-1.252 0-1.913-.809-.66-.808-.66-2.35 0-1.536.66-2.347.661-.81 1.913-.81zm7.553 3.986q0 .666.244 1.004.245.338.723.338h1.154V296h-1.251q-.886 0-1.372-.567-.486-.566-.486-1.608v-5.441h-1.585v-.774h2.573zm9.154-1.327v.483h-4.281v.033q-.043 1.23.47 1.767.513.537 1.447.537.473 0 .989-.15.515-.15 1.1-.457v.983q-.563.23-1.087.346-.524.116-1.012.116-1.402 0-2.192-.84-.79-.841-.79-2.318 0-1.44.774-2.3.774-.859 2.063-.859 1.149 0 1.812.78.664.778.707 1.879zm-.989-.29q-.064-.623-.454-1.077-.389-.454-1.12-.454-.714 0-1.176.473-.462.473-.505 1.063z"/><path d="M214.608 294.066q-.247.629-.628 1.655-.532 1.418-.714 1.73-.247.418-.618.628-.37.21-.865.21h-.795v-.828h.586q.435 0 .682-.253.247-.252.628-1.305l-2.325-5.919h1.047l1.783 4.705 1.757-4.705h1.047zm49 0q-.247.629-.628 1.655-.532 1.418-.714 1.73-.247.418-.618.628-.37.21-.865.21h-.795v-.828h.586q.435 0 .682-.253.247-.252.628-1.305l-2.325-5.919h1.047l1.783 4.705 1.757-4.705h1.047zm49 0q-.247.629-.628 1.655-.532 1.418-.714 1.73-.247.418-.618.628-.37.21-.865.21h-.795v-.828h.586q.435 0 .682-.253.247-.252.628-1.305l-2.325-5.919h1.047l1.783 4.705 1.757-4.705h1.047z" fill="#A7D3A9"/><path d="M52.77 266.976h-.327q-.865 0-1.303.304-.437.303-.437.905 0 .542.327.843.328.3.908.3.816 0 1.284-.566.467-.567.472-1.566v-.22zm1.918-.408V270h-.994v-.892q-.317.538-.797.793-.481.255-1.168.255-.919 0-1.467-.519-.548-.518-.548-1.388 0-1.004.674-1.525.675-.521 1.98-.521h1.326v-.156q-.005-.72-.365-1.045-.36-.325-1.15-.325-.504 0-1.02.145-.515.145-1.004.425v-.989q.548-.21 1.05-.314.502-.105.975-.105.746 0 1.275.22.53.22.857.661.204.269.29.664.086.394.086 1.184zm6.538-2.374v.967q-.424-.247-.854-.371-.43-.123-.875-.123-.672 0-1.002.217-.33.218-.33.663 0 .403.247.602.247.199 1.23.387l.397.075q.736.14 1.115.558.378.42.378 1.09 0 .892-.634 1.395-.633.502-1.761.502-.446 0-.935-.094-.489-.094-1.058-.282v-1.02q.553.284 1.058.426.505.143.956.143.655 0 1.015-.266.36-.266.36-.744 0-.688-1.316-.95l-.043-.012-.37-.075q-.854-.166-1.246-.561t-.392-1.077q0-.865.585-1.335t1.67-.47q.484 0 .93.089.445.089.875.266zm12.404.403q.183-.387.465-.572.282-.186.68-.186.725 0 1.023.562.298.56.298 2.113V270h-.902v-3.443q0-1.273-.142-1.582-.143-.308-.519-.308-.43 0-.588.33-.158.33-.158 1.56V270h-.903v-3.443q0-1.289-.153-1.59-.153-.3-.55-.3-.392 0-.546.33-.153.33-.153 1.56V270h-.897v-6.016h.897v.516q.178-.322.444-.491.265-.17.604-.17.408 0 .68.188.27.188.42.57zm5.067-.591h2.53v5.226h1.96V270h-4.909v-.768h1.96v-4.458h-1.54zm1.542-2.337h.988v1.247h-.988zm9.406 4.603V270h-.994v-3.728q0-.81-.284-1.192-.285-.381-.892-.381-.693 0-1.066.491-.373.492-.373 1.41v3.4h-.989v-6.016h.989v.903q.263-.516.714-.782.451-.266 1.069-.266.918 0 1.372.605.454.604.454 1.828zm12.029-4.141l-.484 1.902h1.316l.49-1.902h.858l-.488 1.902h1.31v.821h-1.509l-.526 2.111h1.342v.822h-1.552l-.558 2.213h-.86l.564-2.213h-1.321L99.692 270h-.854l.558-2.213h-1.385v-.822h1.595l.526-2.11h-1.428v-.822h1.627l.483-1.902zm.634 2.723h-1.316l-.527 2.111h1.322zm15.896.371q-.317-.247-.645-.36-.328-.113-.72-.113-.923 0-1.412.58-.489.58-.489 1.676V270h-.994v-6.016h.994v1.177q.247-.64.76-.98.513-.342 1.217-.342.365 0 .682.092.317.091.607.284zm6.812 1.273v.483h-4.281v.033q-.043 1.23.47 1.767.513.537 1.447.537.473 0 .989-.15.515-.15 1.1-.457v.983q-.563.23-1.087.346-.524.116-1.012.116-1.402 0-2.192-.84-.79-.841-.79-2.318 0-1.44.774-2.3.774-.859 2.063-.859 1.149 0 1.812.78.664.778.707 1.879zm-.989-.29q-.064-.623-.454-1.077-.389-.454-1.12-.454-.714 0-1.176.473-.462.473-.505 1.063zm3.756.811q0 1.15.363 1.735.362.585 1.077.585.714 0 1.082-.588.368-.588.368-1.732 0-1.144-.368-1.732-.368-.588-1.082-.588-.715 0-1.077.585-.363.586-.363 1.735zm2.89 2.234q-.242.446-.653.685-.41.24-.953.24-1.08 0-1.705-.836-.626-.835-.626-2.301 0-1.494.623-2.337.623-.843 1.708-.843.537 0 .948.233.41.234.658.68v-.768h.994v8.304h-.994zm3.374-1.53v-3.728h.989v3.728q0 .81.287 1.192.287.381.889.381.698 0 1.069-.491.37-.492.37-1.41v-3.4h.994V270h-.994v-.902q-.263.52-.717.79-.454.268-1.06.268-.924 0-1.375-.604-.452-.605-.452-1.83zm7.65-3.717h2.53v5.226h1.96V270h-4.909v-.768h1.96v-4.458h-1.54zm1.542-2.337h.988v1.247h-.988zm9.965 3.556q-.317-.247-.645-.36-.328-.113-.72-.113-.923 0-1.412.58-.489.58-.489 1.676V270h-.994v-6.016h.994v1.177q.247-.64.76-.98.513-.342 1.217-.342.365 0 .682.092.317.091.607.284zm6.812 1.273v.483h-4.281v.033q-.043 1.23.47 1.767.513.537 1.447.537.473 0 .989-.15.515-.15 1.1-.457v.983q-.563.23-1.087.346-.524.116-1.012.116-1.402 0-2.192-.84-.79-.841-.79-2.318 0-1.44.774-2.3.774-.859 2.063-.859 1.149 0 1.812.78.664.778.707 1.879zm-.989-.29q-.064-.623-.454-1.077-.389-.454-1.12-.454-.714 0-1.176.473-.462.473-.505 1.063zm6.581-1.456v-3.11h.989V270h-.989v-.757q-.247.445-.658.68-.41.233-.948.233-1.09 0-1.716-.846-.625-.846-.625-2.334 0-1.466.628-2.301.628-.836 1.713-.836.543 0 .956.234.414.234.65.68zm-2.905 2.246q0 1.149.365 1.734.365.586 1.08.586.714 0 1.087-.59.373-.592.373-1.73 0-1.144-.373-1.733-.373-.588-1.088-.588-.714 0-1.08.586-.364.585-.364 1.735z"/><path d="M215.645 266.272V270h-.994v-3.728q0-.81-.284-1.192-.285-.381-.892-.381-.693 0-1.066.491-.373.492-.373 1.41v3.4h-.989v-6.016h.989v.903q.263-.516.714-.782.451-.266 1.069-.266.918 0 1.372.605.454.604.454 1.828zm49 0V270h-.994v-3.728q0-.81-.284-1.192-.285-.381-.892-.381-.693 0-1.066.491-.373.492-.373 1.41v3.4h-.989v-6.016h.989v.903q.263-.516.714-.782.451-.266 1.069-.266.918 0 1.372.605.454.604.454 1.828zm42.688-.95l-2.385 1.289 2.385 1.294-.376.656-2.246-1.349v2.503h-.768v-2.503l-2.245 1.349-.376-.656 2.39-1.294-2.39-1.29.376-.66 2.245 1.348v-2.503h.768v2.503l2.246-1.348zm6.312.95V270h-.994v-3.728q0-.81-.284-1.192-.285-.381-.892-.381-.693 0-1.066.491-.373.492-.373 1.41v3.4h-.989v-6.016h.989v.903q.263-.516.714-.782.451-.266 1.069-.266.918 0 1.372.605.454.604.454 1.828z" fill="#F99"/><path d="M31.77 240.976h-.327q-.865 0-1.303.304-.437.303-.437.905 0 .542.327.843.328.3.908.3.816 0 1.284-.566.467-.567.472-1.566v-.22zm1.918-.408V244h-.994v-.892q-.317.538-.797.793-.481.255-1.168.255-.919 0-1.467-.519-.548-.518-.548-1.388 0-1.004.674-1.525.674-.521 1.98-.521h1.326v-.156q-.005-.72-.365-1.045-.36-.325-1.15-.325-.504 0-1.02.145-.515.145-1.004.425v-.989q.548-.21 1.05-.314.502-.105.975-.105.746 0 1.275.22.53.22.857.661.204.269.29.664.086.394.086 1.184zm6.538-2.374v.967q-.424-.247-.854-.371-.43-.123-.875-.123-.672 0-1.002.217-.33.218-.33.663 0 .403.247.602.247.199 1.23.387l.397.075q.736.14 1.115.558.378.42.378 1.09 0 .892-.634 1.395-.633.502-1.761.502-.446 0-.935-.094-.489-.094-1.058-.282v-1.02q.553.284 1.058.426.505.143.956.143.655 0 1.015-.266.36-.266.36-.744 0-.688-1.316-.95l-.043-.012-.37-.075q-.854-.166-1.246-.561t-.392-1.077q0-.865.585-1.335t1.67-.47q.484 0 .93.089.445.089.875.266zm12.636 3.631q0 .666.244 1.004.245.338.723.338h1.154V244h-1.251q-.886 0-1.372-.567-.486-.566-.486-1.608v-5.441h-1.585v-.774h2.573zm4.835-3.819h2.53v5.226h1.96V244h-4.909v-.768h1.96v-4.458h-1.54zm1.542-2.337h.988v1.247h-.988zm7.391 2.928q.183-.387.465-.572.282-.186.68-.186.725 0 1.023.562.298.56.298 2.113V244h-.902v-3.443q0-1.273-.142-1.582-.143-.308-.519-.308-.43 0-.588.33-.158.33-.158 1.56V244h-.903v-3.443q0-1.289-.153-1.59-.153-.3-.55-.3-.392 0-.546.33-.153.33-.153 1.56V244h-.897v-6.016h.897v.516q.178-.322.444-.491.265-.17.604-.17.408 0 .68.188.27.188.42.57zm5.067-.591h2.53v5.226h1.96V244h-4.909v-.768h1.96v-4.458h-1.54zm1.542-2.337h.988v1.247h-.988zm7.059.607v1.708h2.245v.768h-2.245v3.266q0 .666.252.93.253.262.881.262h1.112v.79h-1.209q-1.111 0-1.568-.446-.456-.446-.456-1.536v-3.266h-1.606v-.768h1.606v-1.708zm9.718 4.222v.483h-4.281v.033q-.043 1.23.47 1.767.513.537 1.447.537.473 0 .989-.15.515-.15 1.1-.457v.983q-.563.23-1.087.346-.524.116-1.012.116-1.402 0-2.192-.84-.79-.841-.79-2.318 0-1.44.774-2.3.774-.859 2.063-.859 1.149 0 1.812.78.664.778.707 1.879zm-.989-.29q-.064-.623-.454-1.077-.389-.454-1.12-.454-.714 0-1.176.473-.462.473-.505 1.063zm6.581-1.456v-3.11h.989V244h-.989v-.757q-.247.445-.658.68-.41.233-.948.233-1.09 0-1.716-.846-.625-.846-.625-2.334 0-1.466.628-2.301.628-.836 1.713-.836.543 0 .956.234.414.234.65.68zm-2.905 2.246q0 1.149.365 1.734.365.586 1.08.586.714 0 1.087-.59.373-.592.373-1.73 0-1.144-.373-1.733-.373-.588-1.088-.588-.714 0-1.08.586-.364.585-.364 1.735zm15.971-4.867l-.484 1.902h1.316l.49-1.902h.858l-.488 1.902h1.31v.821h-1.509l-.526 2.111h1.342v.822h-1.552l-.558 2.213h-.86l.564-2.213h-1.321l-.564 2.213h-.854l.558-2.213h-1.385v-.822h1.595l.526-2.11h-1.428v-.822h1.627l.483-1.902zm.634 2.723h-1.316l-.527 2.111h1.322zm11.389-.848h2.53v5.226h1.96V244h-4.909v-.768h1.96v-4.458h-1.54zm1.542-2.337h.988v1.247h-.988zm9.406 4.603V244h-.994v-3.728q0-.81-.284-1.192-.285-.381-.892-.381-.693 0-1.066.491-.373.492-.373 1.41v3.4h-.989v-6.016h.989v.903q.263-.516.714-.782.451-.266 1.069-.266.918 0 1.372.605.454.604.454 1.828zm14.559-1.047q-.317-.247-.645-.36-.328-.113-.72-.113-.923 0-1.412.58-.489.58-.489 1.676V244h-.994v-6.016h.994v1.177q.247-.64.76-.98.513-.342 1.217-.342.365 0 .682.092.317.091.607.284zm4.105-.548q-.752 0-1.14.586-.386.585-.386 1.735 0 1.144.387 1.732.387.588 1.139.588.757 0 1.144-.588.386-.588.386-1.732 0-1.15-.386-1.735-.387-.586-1.144-.586zm0-.838q1.251 0 1.914.811.664.811.664 2.348 0 1.541-.66 2.35-.662.808-1.918.808-1.252 0-1.913-.809-.66-.808-.66-2.35 0-1.536.66-2.347.661-.81 1.913-.81zm7.553 3.986q0 .666.244 1.004.245.338.723.338h1.154V244h-1.251q-.886 0-1.372-.567-.486-.566-.486-1.608v-5.441h-1.585v-.774h2.573zm9.154-1.327v.483h-4.281v.033q-.043 1.23.47 1.767.513.537 1.447.537.473 0 .989-.15.515-.15 1.1-.457v.983q-.563.23-1.087.346-.524.116-1.012.116-1.402 0-2.192-.84-.79-.841-.79-2.318 0-1.44.774-2.3.774-.859 2.063-.859 1.149 0 1.812.78.664.778.707 1.879zm-.989-.29q-.064-.623-.454-1.077-.389-.454-1.12-.454-.714 0-1.176.473-.462.473-.505 1.063z"/><path d="M215.645 240.272V244h-.994v-3.728q0-.81-.284-1.192-.285-.381-.892-.381-.693 0-1.066.491-.373.492-.373 1.41v3.4h-.989v-6.016h.989v.903q.263-.516.714-.782.451-.266 1.069-.266.918 0 1.372.605.454.604.454 1.828zm49 0V244h-.994v-3.728q0-.81-.284-1.192-.285-.381-.892-.381-.693 0-1.066.491-.373.492-.373 1.41v3.4h-.989v-6.016h.989v.903q.263-.516.714-.782.451-.266 1.069-.266.918 0 1.372.605.454.604.454 1.828zm49 0V244h-.994v-3.728q0-.81-.284-1.192-.285-.381-.892-.381-.693 0-1.066.491-.373.492-.373 1.41v3.4h-.989v-6.016h.989v.903q.263-.516.714-.782.451-.266 1.069-.266.918 0 1.372.605.454.604.454 1.828z" fill="#F99"/><path d="M50.697 212.006h2.53v5.226h1.96V218h-4.909v-.768h1.96v-4.458h-1.54zm1.542-2.337h.988v1.247h-.988zm8.987 2.525v.967q-.424-.247-.854-.371-.43-.123-.875-.123-.672 0-1.002.217-.33.218-.33.663 0 .403.247.602.247.199 1.23.387l.397.075q.736.14 1.115.558.378.42.378 1.09 0 .892-.634 1.395-.633.502-1.761.502-.446 0-.935-.094-.489-.094-1.058-.282v-1.02q.553.284 1.058.426.505.143.956.143.655 0 1.015-.266.36-.266.36-.744 0-.688-1.316-.95l-.043-.012-.37-.075q-.854-.166-1.246-.561t-.392-1.077q0-.865.585-1.335t1.67-.47q.484 0 .93.089.445.089.875.266zm14 0v.967q-.424-.247-.854-.371-.43-.123-.875-.123-.672 0-1.002.217-.33.218-.33.663 0 .403.247.602.247.199 1.23.387l.397.075q.736.14 1.115.558.378.42.378 1.09 0 .892-.634 1.395-.633.502-1.761.502-.446 0-.935-.094-.489-.094-1.058-.282v-1.02q.553.284 1.058.426.505.143.956.143.655 0 1.015-.266.36-.266.36-.744 0-.688-1.316-.95l-.043-.012-.37-.075q-.854-.166-1.246-.561t-.392-1.077q0-.865.585-1.335t1.67-.47q.484 0 .93.089.445.089.875.266zm7.79 2.304v.483h-4.281v.033q-.043 1.23.47 1.767.513.537 1.447.537.473 0 .989-.15.515-.15 1.1-.457v.983q-.563.23-1.087.346-.524.116-1.012.116-1.402 0-2.192-.84-.79-.841-.79-2.318 0-1.44.774-2.3.774-.859 2.063-.859 1.149 0 1.812.78.664.778.707 1.879zm-.989-.29q-.064-.623-.454-1.077-.389-.454-1.12-.454-.714 0-1.176.473-.462.473-.505 1.063zm5.271-3.932v1.708h2.245v.768h-2.245v3.266q0 .666.252.93.253.262.881.262h1.112v.79h-1.209q-1.111 0-1.568-.446-.456-.446-.456-1.536v-3.266h-1.606v-.768h1.606v-1.708zm14.472 4.7h-.327q-.865 0-1.303.304-.437.303-.437.905 0 .542.327.843.328.3.908.3.816 0 1.284-.566.467-.567.472-1.566v-.22zm1.918-.408V218h-.994v-.892q-.317.538-.797.793-.481.255-1.168.255-.919 0-1.467-.519-.548-.518-.548-1.388 0-1.004.674-1.525.674-.521 1.98-.521h1.326v-.156q-.005-.72-.365-1.045-.36-.325-1.15-.325-.504 0-1.02.145-.515.145-1.004.425v-.989q.548-.21 1.05-.314.502-.105.975-.105.746 0 1.275.22.53.22.857.661.204.269.29.664.086.394.086 1.184zm4.61-4.292v1.708h2.245v.768h-2.245v3.266q0 .666.252.93.253.262.881.262h1.112v.79h-1.209q-1.111 0-1.568-.446-.456-.446-.456-1.536v-3.266h-1.606v-.768h1.606v-1.708zm15.31 2.476v-3.11h.989V218h-.989v-.757q-.247.445-.658.68-.41.233-.948.233-1.09 0-1.716-.846-.625-.846-.625-2.334 0-1.466.628-2.301.628-.836 1.713-.836.543 0 .956.234.414.234.65.68zm-2.905 2.246q0 1.149.365 1.734.365.586 1.08.586.714 0 1.087-.59.373-.592.373-1.73 0-1.144-.373-1.733-.373-.588-1.088-.588-.714 0-1.08.586-.364.585-.364 1.735zm11.313-.5v.483h-4.281v.033q-.043 1.23.47 1.767.513.537 1.447.537.473 0 .989-.15.515-.15 1.1-.457v.983q-.563.23-1.087.346-.524.116-1.012.116-1.402 0-2.192-.84-.79-.841-.79-2.318 0-1.44.774-2.3.774-.859 2.063-.859 1.149 0 1.812.78.664.778.707 1.879zm-.989-.29q-.064-.623-.454-1.077-.389-.454-1.12-.454-.714 0-1.176.473-.462.473-.505 1.063zm3.987 3.035v3.045h-.993v-8.304h.993v.768q.247-.445.658-.679.411-.234.948-.234 1.09 0 1.71.844.621.843.621 2.336 0 1.466-.623 2.302-.623.835-1.708.835-.548 0-.959-.234-.41-.234-.647-.68zm2.9-2.245q0-1.15-.362-1.735-.363-.586-1.077-.586-.72 0-1.09.588-.37.589-.37 1.733 0 1.138.37 1.73.37.59 1.09.59.714 0 1.077-.586.363-.585.363-1.734zm5.948.827q0 .666.244 1.004.245.338.723.338h1.154V218h-1.251q-.886 0-1.372-.567-.486-.566-.486-1.608v-5.441h-1.585v-.774h2.573zm6.447-3.148q-.752 0-1.14.586-.386.585-.386 1.735 0 1.144.387 1.732.387.588 1.139.588.757 0 1.144-.588.386-.588.386-1.732 0-1.15-.386-1.735-.387-.586-1.144-.586zm0-.838q1.251 0 1.914.811.664.811.664 2.348 0 1.541-.66 2.35-.662.808-1.918.808-1.252 0-1.913-.809-.66-.808-.66-2.35 0-1.536.66-2.347.661-.81 1.913-.81zm8.299 4.227q-.247.629-.628 1.655-.532 1.418-.714 1.73-.247.418-.618.628-.37.21-.865.21h-.795v-.828h.586q.435 0 .682-.253.247-.252.628-1.305l-2.325-5.919h1.047l1.783 4.705 1.757-4.705h1.047z"/><path d="M215.645 214.272V218h-.994v-3.728q0-.81-.284-1.192-.285-.381-.892-.381-.693 0-1.066.491-.373.492-.373 1.41v3.4h-.989v-6.016h.989v.903q.263-.516.714-.782.451-.266 1.069-.266.918 0 1.372.605.454.604.454 1.828zm49 0V218h-.994v-3.728q0-.81-.284-1.192-.285-.381-.892-.381-.693 0-1.066.491-.373.492-.373 1.41v3.4h-.989v-6.016h.989v.903q.263-.516.714-.782.451-.266 1.069-.266.918 0 1.372.605.454.604.454 1.828z" fill="#F99"/><path d="M312.608 216.066q-.247.629-.628 1.655-.532 1.418-.714 1.73-.247.418-.618.628-.37.21-.865.21h-.795v-.828h.586q.435 0 .682-.253.247-.252.628-1.305l-2.325-5.919h1.047l1.783 4.705 1.757-4.705h1.047z" fill="#A7D3A9"/><path d="M10.77 188.976h-.327q-.865 0-1.303.304-.437.303-.437.905 0 .542.327.843.328.3.908.3.816 0 1.284-.566.467-.567.472-1.566v-.22zm1.918-.408V192h-.994v-.892q-.317.538-.797.793-.481.255-1.168.255-.919 0-1.467-.519-.548-.518-.548-1.388 0-1.004.674-1.525.675-.521 1.98-.521h1.326v-.156q-.005-.72-.365-1.045-.36-.325-1.15-.325-.504 0-1.02.145-.515.145-1.004.425v-.989q.548-.21 1.05-.314.502-.105.975-.105.746 0 1.275.22.53.22.857.661.204.269.29.664.086.394.086 1.184zm6.957-.296V192h-.994v-3.728q0-.81-.284-1.192-.285-.381-.892-.381-.693 0-1.066.491-.373.492-.373 1.41v3.4h-.989v-6.016h.989v.903q.263-.516.714-.782.451-.266 1.069-.266.918 0 1.372.605.454.604.454 1.828zm10.052-2.266h2.53v5.226h1.96V192h-4.909v-.768h1.96v-4.458h-1.54zm1.542-2.337h.988v1.247h-.988zm9.406 4.603V192h-.994v-3.728q0-.81-.284-1.192-.285-.381-.892-.381-.693 0-1.066.491-.373.492-.373 1.41v3.4h-.989v-6.016h.989v.903q.263-.516.714-.782.451-.266 1.069-.266.918 0 1.372.605.454.604.454 1.828zm3.052-2.266h2.53v5.226h1.96V192h-4.909v-.768h1.96v-4.458h-1.54zm1.542-2.337h.988v1.247h-.988zm7.059.607v1.708h2.245v.768h-2.245v3.266q0 .666.252.93.253.262.881.262h1.112v.79h-1.209q-1.111 0-1.568-.446-.456-.446-.456-1.536v-3.266h-1.606v-.768h1.606v-1.708zm5.399 1.73h2.53v5.226h1.96V192h-4.909v-.768h1.96v-4.458h-1.54zm1.542-2.337h.988v1.247h-.988zm7.531 5.307h-.327q-.865 0-1.303.304-.437.303-.437.905 0 .542.327.843.328.3.908.3.816 0 1.284-.566.467-.567.472-1.566v-.22zm1.918-.408V192h-.994v-.892q-.317.538-.797.793-.481.255-1.168.255-.919 0-1.467-.519-.548-.518-.548-1.388 0-1.004.674-1.525.674-.521 1.98-.521h1.326v-.156q-.005-.72-.365-1.045-.36-.325-1.15-.325-.504 0-1.02.145-.515.145-1.004.425v-.989q.548-.21 1.05-.314.502-.105.975-.105.746 0 1.275.22.53.22.857.661.204.269.29.664.086.394.086 1.184zm5.174 1.257q0 .666.244 1.004.245.338.723.338h1.154V192h-1.251q-.886 0-1.372-.567-.486-.566-.486-1.608v-5.441h-1.585v-.774h2.573zm4.835-3.819h2.53v5.226h1.96V192h-4.909v-.768h1.96v-4.458h-1.54zm1.542-2.337h.988v1.247h-.988zm4.981 2.305h4.366v.902l-3.454 4.318h3.454V192H85.09v-.913l3.454-4.324h-3.325zm11.796 2.524v.483h-4.281v.033q-.043 1.23.47 1.767.513.537 1.447.537.473 0 .989-.15.515-.15 1.1-.457v.983q-.563.23-1.087.346-.524.116-1.012.116-1.402 0-2.192-.84-.79-.841-.79-2.318 0-1.44.774-2.3.774-.859 2.063-.859 1.149 0 1.812.78.664.778.707 1.879zm-.989-.29q-.064-.623-.454-1.077-.389-.454-1.12-.454-.714 0-1.176.473-.462.473-.505 1.063zm13.581-1.456v-3.11h.989V192h-.989v-.757q-.247.445-.658.68-.41.233-.948.233-1.09 0-1.716-.846-.625-.846-.625-2.334 0-1.466.628-2.301.628-.836 1.713-.836.543 0 .956.234.414.234.65.68zm-2.905 2.246q0 1.149.365 1.734.365.586 1.08.586.714 0 1.087-.59.373-.592.373-1.73 0-1.144-.373-1.733-.373-.588-1.088-.588-.714 0-1.08.586-.364.585-.364 1.735zm11.313-.5v.483h-4.281v.033q-.043 1.23.47 1.767.513.537 1.447.537.473 0 .989-.15.515-.15 1.1-.457v.983q-.563.23-1.087.346-.524.116-1.012.116-1.402 0-2.192-.84-.79-.841-.79-2.318 0-1.44.774-2.3.774-.859 2.063-.859 1.149 0 1.812.78.664.778.707 1.879zm-.989-.29q-.064-.623-.454-1.077-.389-.454-1.12-.454-.714 0-1.176.473-.462.473-.505 1.063zm7.683-4.565v.821h-1.123q-.532 0-.739.218-.206.217-.206.77v.532h2.067v.768h-2.067V192h-.989v-5.248h-1.606v-.768h1.606v-.419q0-.988.454-1.455.454-.467 1.415-.467zm5.06 5.333h-.327q-.865 0-1.303.304-.437.303-.437.905 0 .542.327.843.328.3.908.3.816 0 1.284-.566.467-.567.472-1.566v-.22zm1.918-.408V192h-.994v-.892q-.317.538-.797.793-.481.255-1.168.255-.919 0-1.467-.519-.548-.518-.548-1.388 0-1.004.674-1.525.674-.521 1.98-.521h1.326v-.156q-.005-.72-.365-1.045-.36-.325-1.15-.325-.504 0-1.02.145-.515.145-1.004.425v-.989q.548-.21 1.05-.314.502-.105.975-.105.746 0 1.275.22.53.22.857.661.204.269.29.664.086.394.086 1.184zm2.359 1.155v-3.728h.989v3.728q0 .81.287 1.192.287.381.889.381.698 0 1.069-.491.37-.492.37-1.41v-3.4h.994V192h-.994v-.902q-.263.52-.717.79-.454.268-1.06.268-.924 0-1.375-.604-.452-.605-.452-1.83zm9.815.102q0 .666.244 1.004.245.338.723.338h1.154V192h-1.251q-.886 0-1.372-.567-.486-.566-.486-1.608v-5.441h-1.585v-.774h2.573zm6.436-5.549v1.708h2.245v.768h-2.245v3.266q0 .666.252.93.253.262.881.262h1.112v.79h-1.209q-1.111 0-1.568-.446-.456-.446-.456-1.536v-3.266h-1.606v-.768h1.606v-1.708zm8.928 1.918v.967q-.424-.247-.854-.371-.43-.123-.875-.123-.672 0-1.002.217-.33.218-.33.663 0 .403.247.602.247.199 1.23.387l.397.075q.736.14 1.115.558.378.42.378 1.09 0 .892-.634 1.395-.633.502-1.761.502-.446 0-.935-.094-.489-.094-1.058-.282v-1.02q.553.284 1.058.426.505.143.956.143.655 0 1.015-.266.36-.266.36-.744 0-.688-1.316-.95l-.043-.012-.37-.075q-.854-.166-1.246-.561t-.392-1.077q0-.865.585-1.335t1.67-.47q.484 0 .93.089.445.089.875.266z"/><path d="M215.645 188.272V192h-.994v-3.728q0-.81-.284-1.192-.285-.381-.892-.381-.693 0-1.066.491-.373.492-.373 1.41v3.4h-.989v-6.016h.989v.903q.263-.516.714-.782.451-.266 1.069-.266.918 0 1.372.605.454.604.454 1.828zm49 0V192h-.994v-3.728q0-.81-.284-1.192-.285-.381-.892-.381-.693 0-1.066.491-.373.492-.373 1.41v3.4h-.989v-6.016h.989v.903q.263-.516.714-.782.451-.266 1.069-.266.918 0 1.372.605.454.604.454 1.828z" fill="#F99"/><path d="M312.608 190.066q-.247.629-.628 1.655-.532 1.418-.714 1.73-.247.418-.618.628-.37.21-.865.21h-.795v-.828h.586q.435 0 .682-.253.247-.252.628-1.305l-2.325-5.919h1.047l1.783 4.705 1.757-4.705h1.047z" fill="#A7D3A9"/><path d="M19.699 165.694q-.398.23-.82.346-.421.116-.861.116-1.397 0-2.184-.838-.787-.838-.787-2.32 0-1.483.787-2.32.787-.839 2.184-.839.435 0 .848.113.414.113.833.35v1.036q-.392-.35-.787-.505-.395-.156-.894-.156-.93 0-1.43.602-.499.601-.499 1.719 0 1.111.503 1.716.502.604 1.426.604.515 0 .923-.159.409-.158.758-.491zm5.071-2.718h-.327q-.865 0-1.303.304-.437.303-.437.905 0 .542.327.843.328.3.908.3.816 0 1.284-.566.467-.567.472-1.566v-.22zm1.918-.408V166h-.994v-.892q-.317.538-.797.793-.481.255-1.168.255-.919 0-1.467-.519-.548-.518-.548-1.388 0-1.004.674-1.525.674-.521 1.98-.521h1.326v-.156q-.005-.72-.365-1.045-.36-.325-1.15-.325-.504 0-1.02.145-.515.145-1.004.425v-.989q.548-.21 1.05-.314.502-.105.975-.105.746 0 1.275.22.53.22.857.661.204.269.29.664.086.394.086 1.184zm6.957-.296V166h-.994v-3.728q0-.81-.284-1.192-.285-.381-.892-.381-.693 0-1.066.491-.373.492-.373 1.41v3.4h-.989v-6.016h.989v.903q.263-.516.714-.782.451-.266 1.069-.266.918 0 1.372.605.454.604.454 1.828zm9.402 1.451v-3.728h.989v3.728q0 .81.287 1.192.287.381.889.381.698 0 1.069-.491.37-.492.37-1.41v-3.4h.994V166h-.994v-.902q-.263.52-.717.79-.454.268-1.06.268-.924 0-1.375-.604-.452-.605-.452-1.83zm7.967 1.52v3.045h-.993v-8.304h.993v.768q.247-.445.658-.679.411-.234.948-.234 1.09 0 1.71.844.621.843.621 2.336 0 1.466-.623 2.302-.623.835-1.708.835-.548 0-.959-.234-.41-.234-.647-.68zm2.9-2.245q0-1.15-.362-1.735-.363-.586-1.077-.586-.72 0-1.09.588-.37.589-.37 1.733 0 1.138.37 1.73.37.59 1.09.59.714 0 1.077-.586.363-.585.363-1.734zm6.694-.054q0-1.112-.362-1.69-.363-.577-1.056-.577-.725 0-1.106.578-.381.577-.381 1.689t.384 1.694q.384.583 1.114.583.682 0 1.045-.585.362-.586.362-1.692zm.989 2.67q0 1.353-.64 2.051-.639.698-1.88.698-.408 0-.853-.075-.446-.075-.892-.22v-.978q.526.247.956.366.43.118.79.118.8 0 1.165-.435t.365-1.38v-.716q-.236.505-.644.752-.408.247-.994.247-1.053 0-1.68-.843-.63-.844-.63-2.256 0-1.418.63-2.261.627-.844 1.68-.844.58 0 .983.231t.655.715v-.78h.989zm7.607-4.389q-.317-.247-.645-.36-.328-.113-.72-.113-.923 0-1.412.58-.489.58-.489 1.676V166h-.994v-6.016h.994v1.177q.247-.64.76-.98.513-.342 1.217-.342.365 0 .682.092.317.091.607.284zm4.566 1.751h-.327q-.865 0-1.303.304-.437.303-.437.905 0 .542.327.843.328.3.908.3.816 0 1.284-.566.467-.567.472-1.566v-.22zm1.918-.408V166h-.994v-.892q-.317.538-.797.793-.481.255-1.168.255-.919 0-1.467-.519-.548-.518-.548-1.388 0-1.004.674-1.525.674-.521 1.98-.521h1.326v-.156q-.005-.72-.365-1.045-.36-.325-1.15-.325-.504 0-1.02.145-.515.145-1.004.425v-.989q.548-.21 1.05-.314.502-.105.975-.105.746 0 1.275.22.53.22.857.661.204.269.29.664.086.394.086 1.184zm5.92-1.816v-3.11h.989V166h-.989v-.757q-.247.445-.658.68-.41.233-.948.233-1.09 0-1.716-.846-.625-.846-.625-2.334 0-1.466.628-2.301.628-.836 1.713-.836.543 0 .956.234.414.234.65.68zm-2.905 2.246q0 1.149.365 1.734.365.586 1.08.586.714 0 1.087-.59.373-.592.373-1.73 0-1.144-.373-1.733-.373-.588-1.088-.588-.714 0-1.08.586-.364.585-.364 1.735zm11.313-.5v.483h-4.281v.033q-.043 1.23.47 1.767.513.537 1.447.537.473 0 .989-.15.515-.15 1.1-.457v.983q-.563.23-1.087.346-.524.116-1.012.116-1.402 0-2.192-.84-.79-.841-.79-2.318 0-1.44.774-2.3.774-.859 2.063-.859 1.149 0 1.812.78.664.778.707 1.879zm-.989-.29q-.064-.623-.454-1.077-.389-.454-1.12-.454-.714 0-1.176.473-.462.473-.505 1.063zm14.672 3.486q-.398.23-.82.346-.421.116-.861.116-1.397 0-2.184-.838-.787-.838-.787-2.32 0-1.483.787-2.32.787-.839 2.184-.839.435 0 .848.113.414.113.833.35v1.036q-.392-.35-.787-.505-.395-.156-.894-.156-.93 0-1.43.602-.499.601-.499 1.719 0 1.111.503 1.716.502.604 1.426.604.515 0 .923-.159.409-.158.758-.491zm4.61-5.017q-.752 0-1.14.586-.386.585-.386 1.735 0 1.144.387 1.732.387.588 1.139.588.757 0 1.144-.588.386-.588.386-1.732 0-1.15-.386-1.735-.387-.586-1.144-.586zm0-.838q1.251 0 1.914.811.664.811.664 2.348 0 1.541-.66 2.35-.662.808-1.918.808-1.252 0-1.913-.809-.66-.808-.66-2.35 0-1.536.66-2.347.661-.81 1.913-.81zm9.336 2.433V166h-.994v-3.728q0-.81-.284-1.192-.285-.381-.892-.381-.693 0-1.066.491-.373.492-.373 1.41v3.4h-.989v-6.016h.989v.903q.263-.516.714-.782.451-.266 1.069-.266.918 0 1.372.605.454.604.454 1.828zm4.653-3.996v1.708h2.245v.768h-2.245v3.266q0 .666.252.93.253.262.881.262h1.112v.79h-1.209q-1.111 0-1.568-.446-.456-.446-.456-1.536v-3.266h-1.606v-.768h1.606v-1.708zm9.906 2.949q-.317-.247-.645-.36-.328-.113-.72-.113-.923 0-1.412.58-.489.58-.489 1.676V166h-.994v-6.016h.994v1.177q.247-.64.76-.98.513-.342 1.217-.342.365 0 .682.092.317.091.607.284zm4.566 1.751h-.327q-.865 0-1.303.304-.437.303-.437.905 0 .542.327.843.328.3.908.3.816 0 1.284-.566.467-.567.472-1.566v-.22zm1.918-.408V166h-.994v-.892q-.317.538-.797.793-.481.255-1.168.255-.919 0-1.467-.519-.548-.518-.548-1.388 0-1.004.674-1.525.674-.521 1.98-.521h1.326v-.156q-.005-.72-.365-1.045-.36-.325-1.15-.325-.504 0-1.02.145-.515.145-1.004.425v-.989q.548-.21 1.05-.314.502-.105.975-.105.746 0 1.275.22.53.22.857.661.204.269.29.664.086.394.086 1.184zm7.011 3.126q-.398.23-.82.346-.421.116-.861.116-1.397 0-2.184-.838-.787-.838-.787-2.32 0-1.483.787-2.32.787-.839 2.184-.839.435 0 .848.113.414.113.833.35v1.036q-.392-.35-.787-.505-.395-.156-.894-.156-.93 0-1.43.602-.499.601-.499 1.719 0 1.111.503 1.716.502.604 1.426.604.515 0 .923-.159.409-.158.758-.491zm4.599-7.418v1.708h2.245v.768h-2.245v3.266q0 .666.252.93.253.262.881.262h1.112v.79h-1.209q-1.111 0-1.568-.446-.456-.446-.456-1.536v-3.266h-1.606v-.768h1.606v-1.708zm8.928 1.918v.967q-.424-.247-.854-.371-.43-.123-.875-.123-.672 0-1.002.217-.33.218-.33.663 0 .403.247.602.247.199 1.23.387l.397.075q.736.14 1.115.558.378.42.378 1.09 0 .892-.634 1.395-.633.502-1.761.502-.446 0-.935-.094-.489-.094-1.058-.282v-1.02q.553.284 1.058.426.505.143.956.143.655 0 1.015-.266.36-.266.36-.744 0-.688-1.316-.95l-.043-.012-.37-.075q-.854-.166-1.246-.561t-.392-1.077q0-.865.585-1.335t1.67-.47q.484 0 .93.089.445.089.875.266z"/><path d="M215.645 162.272V166h-.994v-3.728q0-.81-.284-1.192-.285-.381-.892-.381-.693 0-1.066.491-.373.492-.373 1.41v3.4h-.989v-6.016h.989v.903q.263-.516.714-.782.451-.266 1.069-.266.918 0 1.372.605.454.604.454 1.828zm49 0V166h-.994v-3.728q0-.81-.284-1.192-.285-.381-.892-.381-.693 0-1.066.491-.373.492-.373 1.41v3.4h-.989v-6.016h.989v.903q.263-.516.714-.782.451-.266 1.069-.266.918 0 1.372.605.454.604.454 1.828z" fill="#F99"/><path d="M312.608 164.066q-.247.629-.628 1.655-.532 1.418-.714 1.73-.247.418-.618.628-.37.21-.865.21h-.795v-.828h.586q.435 0 .682-.253.247-.252.628-1.305l-2.325-5.919h1.047l1.783 4.705 1.757-4.705h1.047z" fill="#A7D3A9"/><path d="M40.699 35.694q-.398.23-.82.346-.421.116-.861.116-1.397 0-2.184-.838-.787-.838-.787-2.32 0-1.483.787-2.32.787-.839 2.184-.839.435 0 .848.113.414.113.833.35v1.036q-.392-.35-.787-.505-.395-.156-.894-.156-.93 0-1.43.602-.499.601-.499 1.719 0 1.111.503 1.716.502.604 1.426.604.515 0 .923-.159.409-.158.758-.491zm0 104q-.398.23-.82.346-.421.116-.861.116-1.397 0-2.184-.838-.787-.838-.787-2.32 0-1.483.787-2.32.787-.839 2.184-.839.435 0 .848.113.414.113.833.35v1.036q-.392-.35-.787-.505-.395-.156-.894-.156-.93 0-1.43.602-.499.601-.499 1.719 0 1.111.503 1.716.502.604 1.426.604.515 0 .923-.159.409-.158.758-.491zm5.071-2.718h-.327q-.865 0-1.303.304-.437.303-.437.905 0 .542.327.843.328.3.908.3.816 0 1.284-.566.467-.567.472-1.566v-.22zm1.918-.408V140h-.994v-.892q-.317.538-.797.793-.481.255-1.168.255-.919 0-1.467-.519-.548-.518-.548-1.388 0-1.004.674-1.525.675-.521 1.98-.521h1.326v-.156q-.005-.72-.365-1.045-.36-.325-1.15-.325-.504 0-1.02.145-.515.145-1.004.425v-.989q.548-.21 1.05-.314.502-.105.975-.105.746 0 1.275.22.53.22.857.661.204.269.29.664.086.394.086 1.184zm6.957-.296V140h-.994v-3.728q0-.81-.284-1.192-.285-.381-.892-.381-.693 0-1.066.491-.373.492-.373 1.41v3.4h-.989v-6.016h.989v.903q.263-.516.714-.782.451-.266 1.069-.266.918 0 1.372.605.454.604.454 1.828zm10.369 2.971v3.045h-.993v-8.304h.993v.768q.247-.445.658-.679.411-.234.948-.234 1.09 0 1.71.844.621.843.621 2.336 0 1.466-.623 2.302-.623.835-1.708.835-.548 0-.959-.234-.41-.234-.647-.68zm2.9-2.245q0-1.15-.362-1.735-.363-.586-1.077-.586-.72 0-1.09.588-.37.589-.37 1.733 0 1.138.37 1.73.37.59 1.09.59.714 0 1.077-.586.363-.585.363-1.734zm5.856-.022h-.327q-.865 0-1.303.304-.437.303-.437.905 0 .542.327.843.328.3.908.3.816 0 1.284-.566.467-.567.472-1.566v-.22zm1.918-.408V140h-.994v-.892q-.317.538-.797.793-.481.255-1.168.255-.919 0-1.467-.519-.548-.518-.548-1.388 0-1.004.674-1.525.674-.521 1.98-.521h1.326v-.156q-.005-.72-.365-1.045-.36-.325-1.15-.325-.504 0-1.02.145-.515.145-1.004.425v-.989q.548-.21 1.05-.314.502-.105.975-.105.746 0 1.275.22.53.22.857.661.204.269.29.664.086.394.086 1.184zm2.359 1.155v-3.728h.989v3.728q0 .81.287 1.192.287.381.889.381.698 0 1.069-.491.37-.492.37-1.41v-3.4h.994V140h-.994v-.902q-.263.52-.717.79-.454.268-1.06.268-.924 0-1.375-.604-.452-.605-.452-1.83zm11.179-3.529v.967q-.424-.247-.854-.371-.43-.123-.875-.123-.672 0-1.002.217-.33.218-.33.663 0 .403.247.602.247.199 1.23.387l.397.075q.736.14 1.115.558.378.42.378 1.09 0 .892-.634 1.395-.633.502-1.761.502-.446 0-.935-.094-.489-.094-1.058-.282v-1.02q.553.284 1.058.426.505.143.956.143.655 0 1.015-.266.36-.266.36-.744 0-.688-1.316-.95l-.043-.012-.37-.075q-.854-.166-1.246-.561t-.392-1.077q0-.865.585-1.335t1.67-.47q.484 0 .93.089.445.089.875.266zm7.79 2.304v.483h-4.281v.033q-.043 1.23.47 1.767.513.537 1.447.537.473 0 .989-.15.515-.15 1.1-.457v.983q-.563.23-1.087.346-.524.116-1.012.116-1.402 0-2.192-.84-.79-.841-.79-2.318 0-1.44.774-2.3.774-.859 2.063-.859 1.149 0 1.812.78.664.778.707 1.879zm-.989-.29q-.064-.623-.454-1.077-.389-.454-1.12-.454-.714 0-1.176.473-.462.473-.505 1.063zm14.672 3.486q-.398.23-.82.346-.421.116-.861.116-1.397 0-2.184-.838-.787-.838-.787-2.32 0-1.483.787-2.32.787-.839 2.184-.839.435 0 .848.113.414.113.833.35v1.036q-.392-.35-.787-.505-.395-.156-.894-.156-.93 0-1.43.602-.499.601-.499 1.719 0 1.111.503 1.716.502.604 1.426.604.515 0 .923-.159.409-.158.758-.491zm4.61-5.017q-.752 0-1.14.586-.386.585-.386 1.735 0 1.144.387 1.732.387.588 1.139.588.757 0 1.144-.588.386-.588.386-1.732 0-1.15-.386-1.735-.387-.586-1.144-.586zm0-.838q1.251 0 1.914.811.664.811.664 2.348 0 1.541-.66 2.35-.662.808-1.918.808-1.252 0-1.913-.809-.66-.808-.66-2.35 0-1.536.66-2.347.661-.81 1.913-.81zm9.336 2.433V140h-.994v-3.728q0-.81-.284-1.192-.285-.381-.892-.381-.693 0-1.066.491-.373.492-.373 1.41v3.4h-.989v-6.016h.989v.903q.263-.516.714-.782.451-.266 1.069-.266.918 0 1.372.605.454.604.454 1.828zm4.653-3.996v1.708h2.245v.768h-2.245v3.266q0 .666.252.93.253.262.881.262h1.112v.79h-1.209q-1.111 0-1.568-.446-.456-.446-.456-1.536v-3.266h-1.606v-.768h1.606v-1.708zm9.906 2.949q-.317-.247-.645-.36-.328-.113-.72-.113-.923 0-1.412.58-.489.58-.489 1.676V140h-.994v-6.016h.994v1.177q.247-.64.76-.98.513-.342 1.217-.342.365 0 .682.092.317.091.607.284zm4.566 1.751h-.327q-.865 0-1.303.304-.437.303-.437.905 0 .542.327.843.328.3.908.3.816 0 1.284-.566.467-.567.472-1.566v-.22zm1.918-.408V140h-.994v-.892q-.317.538-.797.793-.481.255-1.168.255-.919 0-1.467-.519-.548-.518-.548-1.388 0-1.004.674-1.525.674-.521 1.98-.521h1.326v-.156q-.005-.72-.365-1.045-.36-.325-1.15-.325-.504 0-1.02.145-.515.145-1.004.425v-.989q.548-.21 1.05-.314.502-.105.975-.105.746 0 1.275.22.53.22.857.661.204.269.29.664.086.394.086 1.184zm7.011 3.126q-.398.23-.82.346-.421.116-.861.116-1.397 0-2.184-.838-.787-.838-.787-2.32 0-1.483.787-2.32.787-.839 2.184-.839.435 0 .848.113.414.113.833.35v1.036q-.392-.35-.787-.505-.395-.156-.894-.156-.93 0-1.43.602-.499.601-.499 1.719 0 1.111.503 1.716.502.604 1.426.604.515 0 .923-.159.409-.158.758-.491zm4.599-7.418v1.708h2.245v.768h-2.245v3.266q0 .666.252.93.253.262.881.262h1.112v.79h-1.209q-1.111 0-1.568-.446-.456-.446-.456-1.536v-3.266h-1.606v-.768h1.606v-1.708z"/><path d="M215.645 136.272V140h-.994v-3.728q0-.81-.284-1.192-.285-.381-.892-.381-.693 0-1.066.491-.373.492-.373 1.41v3.4h-.989v-6.016h.989v.903q.263-.516.714-.782.451-.266 1.069-.266.918 0 1.372.605.454.604.454 1.828zm49 0V140h-.994v-3.728q0-.81-.284-1.192-.285-.381-.892-.381-.693 0-1.066.491-.373.492-.373 1.41v3.4h-.989v-6.016h.989v.903q.263-.516.714-.782.451-.266 1.069-.266.918 0 1.372.605.454.604.454 1.828z" fill="#F99"/><path d="M312.608 138.066q-.247.629-.628 1.655-.532 1.418-.714 1.73-.247.418-.618.628-.37.21-.865.21h-.795v-.828h.586q.435 0 .682-.253.247-.252.628-1.305l-2.325-5.919h1.047l1.783 4.705 1.757-4.705h1.047z" fill="#A7D3A9"/><path d="M54.699 113.694q-.398.23-.82.346-.421.116-.861.116-1.397 0-2.184-.838-.787-.838-.787-2.32 0-1.483.787-2.32.787-.839 2.184-.839.435 0 .848.113.414.113.833.35v1.036q-.392-.35-.787-.505-.395-.156-.894-.156-.93 0-1.43.602-.499.601-.499 1.719 0 1.111.503 1.716.502.604 1.426.604.515 0 .923-.159.409-.158.758-.491zm5.071-2.718h-.327q-.865 0-1.303.304-.437.303-.437.905 0 .542.327.843.328.3.908.3.816 0 1.284-.566.467-.567.472-1.566v-.22zm1.918-.408V114h-.994v-.892q-.317.538-.797.793-.481.255-1.168.255-.919 0-1.467-.519-.548-.518-.548-1.388 0-1.004.674-1.525.675-.521 1.98-.521h1.326v-.156q-.005-.72-.365-1.045-.36-.325-1.15-.325-.504 0-1.02.145-.515.145-1.004.425v-.989q.548-.21 1.05-.314.502-.105.975-.105.746 0 1.275.22.53.22.857.661.204.269.29.664.086.394.086 1.184zm6.957-.296V114h-.994v-3.728q0-.81-.284-1.192-.285-.381-.892-.381-.693 0-1.066.491-.373.492-.373 1.41v3.4h-.989v-6.016h.989v.903q.263-.516.714-.782.451-.266 1.069-.266.918 0 1.372.605.454.604.454 1.828zm14.559-1.047q-.317-.247-.645-.36-.328-.113-.72-.113-.923 0-1.412.58-.489.58-.489 1.676V114h-.994v-6.016h.994v1.177q.247-.64.76-.98.513-.342 1.217-.342.365 0 .682.092.317.091.607.284zm6.812 1.273v.483h-4.281v.033q-.043 1.23.47 1.767.513.537 1.447.537.473 0 .989-.15.515-.15 1.1-.457v.983q-.563.23-1.087.346-.524.116-1.012.116-1.402 0-2.192-.84-.79-.841-.79-2.318 0-1.44.774-2.3.774-.859 2.063-.859 1.149 0 1.812.78.664.778.707 1.879zm-.989-.29q-.064-.623-.454-1.077-.389-.454-1.12-.454-.714 0-1.176.473-.462.473-.505 1.063zm5.603-1.611q.183-.387.465-.572.282-.186.68-.186.725 0 1.023.562.298.56.298 2.113V114h-.902v-3.443q0-1.273-.142-1.582-.143-.308-.519-.308-.43 0-.588.33-.158.33-.158 1.56V114h-.903v-3.443q0-1.289-.153-1.59-.153-.3-.55-.3-.392 0-.546.33-.153.33-.153 1.56V114h-.897v-6.016h.897v.516q.178-.322.444-.491.265-.17.604-.17.408 0 .68.188.27.188.42.57zm6.679.08q-.752 0-1.14.586-.386.585-.386 1.735 0 1.144.387 1.732.387.588 1.139.588.757 0 1.144-.588.386-.588.386-1.732 0-1.15-.386-1.735-.387-.586-1.144-.586zm0-.838q1.251 0 1.914.811.664.811.664 2.348 0 1.541-.66 2.35-.662.808-1.918.808-1.252 0-1.913-.809-.66-.808-.66-2.35 0-1.536.66-2.347.661-.81 1.913-.81zm4.228.145h1.026l1.746 5.05 1.75-5.05h1.026L108.948 114h-1.273zm12.479 2.514v.483h-4.281v.033q-.043 1.23.47 1.767.513.537 1.447.537.473 0 .989-.15.515-.15 1.1-.457v.983q-.563.23-1.087.346-.524.116-1.012.116-1.402 0-2.192-.84-.79-.841-.79-2.318 0-1.44.774-2.3.774-.859 2.063-.859 1.149 0 1.812.78.664.778.707 1.879zm-.989-.29q-.064-.623-.454-1.077-.389-.454-1.12-.454-.714 0-1.176.473-.462.473-.505 1.063zm15.177-.983q-.317-.247-.645-.36-.328-.113-.72-.113-.923 0-1.412.58-.489.58-.489 1.676V114h-.994v-6.016h.994v1.177q.247-.64.76-.98.513-.342 1.217-.342.365 0 .682.092.317.091.607.284zm4.105-.548q-.752 0-1.14.586-.386.585-.386 1.735 0 1.144.387 1.732.387.588 1.139.588.757 0 1.144-.588.386-.588.386-1.732 0-1.15-.386-1.735-.387-.586-1.144-.586zm0-.838q1.251 0 1.914.811.664.811.664 2.348 0 1.541-.66 2.35-.662.808-1.918.808-1.252 0-1.913-.809-.66-.808-.66-2.35 0-1.536.66-2.347.661-.81 1.913-.81zm7.553 3.986q0 .666.244 1.004.245.338.723.338h1.154V114h-1.251q-.886 0-1.372-.567-.486-.566-.486-1.608v-5.441h-1.585v-.774h2.573zm9.154-1.327v.483h-4.281v.033q-.043 1.23.47 1.767.513.537 1.447.537.473 0 .989-.15.515-.15 1.1-.457v.983q-.563.23-1.087.346-.524.116-1.012.116-1.402 0-2.192-.84-.79-.841-.79-2.318 0-1.44.774-2.3.774-.859 2.063-.859 1.149 0 1.812.78.664.778.707 1.879zm-.989-.29q-.064-.623-.454-1.077-.389-.454-1.12-.454-.714 0-1.176.473-.462.473-.505 1.063zm7.199-2.014v.967q-.424-.247-.854-.371-.43-.123-.875-.123-.672 0-1.002.217-.33.218-.33.663 0 .403.247.602.247.199 1.23.387l.397.075q.736.14 1.115.558.378.42.378 1.09 0 .892-.634 1.395-.633.502-1.761.502-.446 0-.935-.094-.489-.094-1.058-.282v-1.02q.553.284 1.058.426.505.143.956.143.655 0 1.015-.266.36-.266.36-.744 0-.688-1.316-.95l-.043-.012-.37-.075q-.854-.166-1.246-.561t-.392-1.077q0-.865.585-1.335t1.67-.47q.484 0 .93.089.445.089.875.266z"/><path d="M215.645 110.272V114h-.994v-3.728q0-.81-.284-1.192-.285-.381-.892-.381-.693 0-1.066.491-.373.492-.373 1.41v3.4h-.989v-6.016h.989v.903q.263-.516.714-.782.451-.266 1.069-.266.918 0 1.372.605.454.604.454 1.828z" fill="#F99"/><path d="M263.608 112.066q-.247.629-.628 1.655-.532 1.418-.714 1.73-.247.418-.618.628-.37.21-.865.21h-.795v-.828h.586q.435 0 .682-.253.247-.252.628-1.305l-2.325-5.919h1.047l1.783 4.705 1.757-4.705h1.047zm43.725-2.744l-2.385 1.289 2.385 1.294-.376.656-2.246-1.349v2.503h-.768v-2.503l-2.245 1.349-.376-.656 2.39-1.294-2.39-1.29.376-.66 2.245 1.348v-2.503h.768v2.503l2.246-1.348zm5.275 2.744q-.247.629-.628 1.655-.532 1.418-.714 1.73-.247.418-.618.628-.37.21-.865.21h-.795v-.828h.586q.435 0 .682-.253.247-.252.628-1.305l-2.325-5.919h1.047l1.783 4.705 1.757-4.705h1.047z" fill="#A7D3A9"/><path d="M61.699 61.694q-.398.23-.82.346-.421.116-.861.116-1.397 0-2.184-.838-.787-.838-.787-2.32 0-1.483.787-2.32.787-.839 2.184-.839.435 0 .848.113.414.113.833.35v1.036q-.392-.35-.787-.505-.395-.156-.894-.156-.93 0-1.43.602-.499.601-.499 1.719 0 1.111.503 1.716.502.604 1.426.604.515 0 .923-.159.409-.158.758-.491zm14 26q-.398.23-.82.346-.421.116-.861.116-1.397 0-2.184-.838-.787-.838-.787-2.32 0-1.483.787-2.32.787-.839 2.184-.839.435 0 .848.113.414.113.833.35v1.036q-.392-.35-.787-.505-.395-.156-.894-.156-.93 0-1.43.602-.499.601-.499 1.719 0 1.111.503 1.716.502.604 1.426.604.515 0 .923-.159.409-.158.758-.491zm5.071-2.718h-.327q-.865 0-1.303.304-.437.303-.437.905 0 .542.327.843.328.3.908.3.816 0 1.284-.566.467-.567.472-1.566v-.22zm1.918-.408V88h-.994v-.892q-.317.538-.797.793-.481.255-1.168.255-.919 0-1.467-.519-.548-.518-.548-1.388 0-1.004.674-1.525.674-.521 1.98-.521h1.326v-.156q-.005-.72-.365-1.045-.36-.325-1.15-.325-.504 0-1.02.145-.515.145-1.004.425v-.989q.548-.21 1.05-.314.502-.105.975-.105.746 0 1.275.22.53.22.857.661.204.269.29.664.086.394.086 1.184zm6.957-.296V88h-.994v-3.728q0-.81-.284-1.192-.285-.381-.892-.381-.693 0-1.066.491-.373.492-.373 1.41V88h-.989v-6.016h.989v.903q.263-.516.714-.782.451-.266 1.069-.266.918 0 1.372.605.454.604.454 1.828zm12.125.704h-.327q-.865 0-1.303.304-.437.303-.437.905 0 .542.327.843.328.3.908.3.816 0 1.284-.566.467-.567.472-1.566v-.22zm1.918-.408V88h-.994v-.892q-.317.538-.797.793-.481.255-1.168.255-.919 0-1.467-.519-.548-.518-.548-1.388 0-1.004.674-1.525.674-.521 1.98-.521h1.326v-.156q-.005-.72-.365-1.045-.36-.325-1.15-.325-.504 0-1.02.145-.515.145-1.004.425v-.989q.548-.21 1.05-.314.502-.105.975-.105.746 0 1.275.22.53.22.857.661.204.269.29.664.086.394.086 1.184zm5.92-1.816v-3.11h.989V88h-.989v-.757q-.247.445-.658.68-.41.233-.948.233-1.09 0-1.716-.846-.625-.846-.625-2.334 0-1.466.628-2.301.628-.836 1.713-.836.543 0 .956.234.414.234.65.68zm-2.905 2.246q0 1.149.365 1.734.365.586 1.08.586.714 0 1.087-.59.373-.592.373-1.73 0-1.144-.373-1.733-.373-.588-1.088-.588-.714 0-1.08.586-.364.585-.364 1.735zm9.905-2.246v-3.11h.989V88h-.989v-.757q-.247.445-.658.68-.41.233-.948.233-1.09 0-1.716-.846-.625-.846-.625-2.334 0-1.466.628-2.301.628-.836 1.713-.836.543 0 .956.234.414.234.65.68zm-2.905 2.246q0 1.149.365 1.734.365.586 1.08.586.714 0 1.087-.59.373-.592.373-1.73 0-1.144-.373-1.733-.373-.588-1.088-.588-.714 0-1.08.586-.364.585-.364 1.735zm18.501-1.773q-.317-.247-.645-.36-.328-.113-.72-.113-.923 0-1.412.58-.489.58-.489 1.676V88h-.994v-6.016h.994v1.177q.247-.64.76-.98.513-.342 1.217-.342.365 0 .682.092.317.091.607.284zm4.105-.548q-.752 0-1.14.586-.386.585-.386 1.735 0 1.144.387 1.732.387.588 1.139.588.757 0 1.144-.588.386-.588.386-1.732 0-1.15-.386-1.735-.387-.586-1.144-.586zm0-.838q1.251 0 1.914.811.664.811.664 2.348 0 1.541-.66 2.35-.662.808-1.918.808-1.252 0-1.913-.809-.66-.808-.66-2.35 0-1.536.66-2.347.661-.81 1.913-.81zm7.553 3.986q0 .666.244 1.004.245.338.723.338h1.154V88h-1.251q-.886 0-1.372-.567-.486-.566-.486-1.608v-5.441h-1.585v-.774h2.573zm9.154-1.327v.483h-4.281v.033q-.043 1.23.47 1.767.513.537 1.447.537.473 0 .989-.15.515-.15 1.1-.457v.983q-.563.23-1.087.346-.524.116-1.012.116-1.402 0-2.192-.84-.79-.841-.79-2.318 0-1.44.774-2.3.774-.859 2.063-.859 1.149 0 1.812.78.664.778.707 1.879zm-.989-.29q-.064-.623-.454-1.077-.389-.454-1.12-.454-.714 0-1.176.473-.462.473-.505 1.063zm7.199-2.014v.967q-.424-.247-.854-.371-.43-.123-.875-.123-.672 0-1.002.217-.33.218-.33.663 0 .403.247.602.247.199 1.23.387l.397.075q.736.14 1.115.558.378.42.378 1.09 0 .892-.634 1.395-.633.502-1.761.502-.446 0-.935-.094-.489-.094-1.058-.282v-1.02q.553.284 1.058.426.505.143.956.143.655 0 1.015-.266.36-.266.36-.744 0-.688-1.316-.95l-.043-.012-.37-.075q-.854-.166-1.246-.561t-.392-1.077q0-.865.585-1.335t1.67-.47q.484 0 .93.089.445.089.875.266z"/><path d="M215.645 84.272V88h-.994v-3.728q0-.81-.284-1.192-.285-.381-.892-.381-.693 0-1.066.491-.373.492-.373 1.41V88h-.989v-6.016h.989v.903q.263-.516.714-.782.451-.266 1.069-.266.918 0 1.372.605.454.604.454 1.828zm49 0V88h-.994v-3.728q0-.81-.284-1.192-.285-.381-.892-.381-.693 0-1.066.491-.373.492-.373 1.41V88h-.989v-6.016h.989v.903q.263-.516.714-.782.451-.266 1.069-.266.918 0 1.372.605.454.604.454 1.828z" fill="#F99"/><path d="M312.608 86.066q-.247.629-.628 1.655-.532 1.418-.714 1.73-.247.418-.618.628-.37.21-.865.21h-.795v-.828h.586q.435 0 .682-.253.247-.252.628-1.305l-2.325-5.919h1.047l1.783 4.705 1.757-4.705h1.047z" fill="#A7D3A9"/><path d="M66.77 58.976h-.327q-.865 0-1.303.304-.437.303-.437.905 0 .542.327.843.328.3.908.3.816 0 1.284-.566.467-.567.472-1.566v-.22zm1.918-.408V62h-.994v-.892q-.317.538-.797.793-.481.255-1.168.255-.919 0-1.467-.519-.548-.518-.548-1.388 0-1.004.674-1.525.674-.521 1.98-.521h1.326v-.156q-.005-.72-.365-1.045-.36-.325-1.15-.325-.504 0-1.02.145-.515.145-1.004.425v-.989q.548-.21 1.05-.314.502-.105.975-.105.746 0 1.275.22.53.22.857.661.204.269.29.664.086.394.086 1.184zm6.957-.296V62h-.994v-3.728q0-.81-.284-1.192-.285-.381-.892-.381-.693 0-1.066.491-.373.492-.373 1.41V62h-.989v-6.016h.989v.903q.263-.516.714-.782.451-.266 1.069-.266.918 0 1.372.605.454.604.454 1.828zm11.985-1.675q.183-.387.465-.572.282-.186.68-.186.725 0 1.023.562.298.56.298 2.113V62h-.902v-3.443q0-1.273-.142-1.582-.143-.308-.519-.308-.43 0-.588.33-.158.33-.158 1.56V62h-.903v-3.443q0-1.289-.153-1.59-.153-.3-.55-.3-.392 0-.546.33-.153.33-.153 1.56V62h-.897v-6.016h.897v.516q.178-.322.444-.491.265-.17.604-.17.408 0 .68.188.27.188.42.57zm5.067-.591h2.53v5.226h1.96V62h-4.909v-.768h1.96v-4.458h-1.54zm1.542-2.337h.988v1.247h-.988zm9.406 4.603V62h-.994v-3.728q0-.81-.284-1.192-.285-.381-.892-.381-.693 0-1.066.491-.373.492-.373 1.41V62h-.989v-6.016h.989v.903q.263-.516.714-.782.451-.266 1.069-.266.918 0 1.372.605.454.604.454 1.828zm4.653-3.996v1.708h2.245v.768h-2.245v3.266q0 .666.252.93.253.262.881.262h1.112V62h-1.209q-1.111 0-1.568-.446-.456-.446-.456-1.536v-3.266h-1.606v-.768h1.606v-1.708zm14 0v1.708h2.245v.768h-2.245v3.266q0 .666.252.93.253.262.881.262h1.112V62h-1.209q-1.111 0-1.568-.446-.456-.446-.456-1.536v-3.266h-1.606v-.768h1.606v-1.708zm7.011 2.401q-.752 0-1.14.586-.386.585-.386 1.735 0 1.144.387 1.732.387.588 1.139.588.757 0 1.144-.588.386-.588.386-1.732 0-1.15-.386-1.735-.387-.586-1.144-.586zm0-.838q1.251 0 1.914.811.664.811.664 2.348 0 1.541-.66 2.35-.662.808-1.918.808-1.252 0-1.913-.809-.66-.808-.66-2.35 0-1.536.66-2.347.661-.81 1.913-.81zm4.959-2.196h1.02v4.839l2.594-2.498h1.203l-2.368 2.267 2.74 3.749h-1.21l-2.223-3.104-.736.692V62h-1.02zm11.748 4.855v.483h-4.281v.033q-.043 1.23.47 1.767.513.537 1.447.537.473 0 .989-.15.515-.15 1.1-.457v.983q-.563.23-1.087.346-.524.116-1.012.116-1.402 0-2.192-.84-.79-.841-.79-2.318 0-1.44.774-2.3.774-.859 2.063-.859 1.149 0 1.812.78.664.778.707 1.879zm-.989-.29q-.064-.623-.454-1.077-.389-.454-1.12-.454-.714 0-1.176.473-.462.473-.505 1.063zm7.618.064V62h-.994v-3.728q0-.81-.284-1.192-.285-.381-.892-.381-.693 0-1.066.491-.373.492-.373 1.41V62h-.989v-6.016h.989v.903q.263-.516.714-.782.451-.266 1.069-.266.918 0 1.372.605.454.604.454 1.828zm6.581-2.078v.967q-.424-.247-.854-.371-.43-.123-.875-.123-.672 0-1.002.217-.33.218-.33.663 0 .403.247.602.247.199 1.23.387l.397.075q.736.14 1.115.558.378.42.378 1.09 0 .892-.634 1.395-.633.502-1.761.502-.446 0-.935-.094-.489-.094-1.058-.282v-1.02q.553.284 1.058.426.505.143.956.143.655 0 1.015-.266.36-.266.36-.744 0-.688-1.316-.95l-.043-.012-.37-.075q-.854-.166-1.246-.561t-.392-1.077q0-.865.585-1.335t1.67-.47q.484 0 .93.089.445.089.875.266z"/><path d="M214.608 60.066q-.247.629-.628 1.655-.532 1.418-.714 1.73-.247.418-.618.628-.37.21-.865.21h-.795v-.828h.586q.435 0 .682-.253.247-.252.628-1.305l-2.325-5.919h1.047l1.783 4.705 1.757-4.705h1.047z" fill="#A7D3A9"/><path d="M264.645 58.272V62h-.994v-3.728q0-.81-.284-1.192-.285-.381-.892-.381-.693 0-1.066.491-.373.492-.373 1.41V62h-.989v-6.016h.989v.903q.263-.516.714-.782.451-.266 1.069-.266.918 0 1.372.605.454.604.454 1.828z" fill="#F99"/><path d="M307.333 57.322l-2.385 1.289 2.385 1.294-.376.656-2.246-1.349v2.503h-.768v-2.503l-2.245 1.349-.376-.656 2.39-1.294-2.39-1.29.376-.66 2.245 1.348v-2.503h.768v2.503l2.246-1.348zm5.275 2.744q-.247.629-.628 1.655-.532 1.418-.714 1.73-.247.418-.618.628-.37.21-.865.21h-.795v-.828h.586q.435 0 .682-.253.247-.252.628-1.305l-2.325-5.919h1.047l1.783 4.705 1.757-4.705h1.047z" fill="#A7D3A9"/><path d="M45.77 32.976h-.327q-.865 0-1.303.304-.437.303-.437.905 0 .542.327.843.328.3.908.3.816 0 1.284-.566.467-.567.472-1.566v-.22zm1.918-.408V36h-.994v-.892q-.317.538-.797.793-.481.255-1.168.255-.919 0-1.467-.519-.548-.518-.548-1.388 0-1.004.674-1.525.675-.521 1.98-.521h1.326v-.156q-.005-.72-.365-1.045-.36-.325-1.15-.325-.504 0-1.02.145-.515.145-1.004.425v-.989q.548-.21 1.05-.314.502-.105.975-.105.746 0 1.275.22.53.22.857.661.204.269.29.664.086.394.086 1.184zm6.957-.296V36h-.994v-3.728q0-.81-.284-1.192-.285-.381-.892-.381-.693 0-1.066.491-.373.492-.373 1.41V36h-.989v-6.016h.989v.903q.263-.516.714-.782.451-.266 1.069-.266.918 0 1.372.605.454.604.454 1.828zM63 29.984h.978l1.047 4.861.86-3.104h.843l.87 3.104 1.047-4.86h.978L68.215 36h-.945l-.961-3.298L65.353 36h-.946zm8.697.022h2.53v5.226h1.96V36h-4.909v-.768h1.96v-4.458h-1.54zm1.542-2.337h.988v1.247h-.988zm7.059.607v1.708h2.245v.768h-2.245v3.266q0 .666.252.93.253.262.881.262h1.112V36h-1.209q-1.111 0-1.568-.446-.456-.446-.456-1.536v-3.266h-1.606v-.768h1.606v-1.708zm9.347 3.996V36h-.994v-3.728q0-.81-.284-1.192-.285-.381-.892-.381-.693 0-1.066.491-.373.492-.373 1.41V36h-.989v-8.357h.989v3.244q.263-.516.714-.782.451-.266 1.069-.266.918 0 1.372.605.454.604.454 1.828zm5.963-1.52v-3.11h.989V36h-.989v-.757q-.247.445-.658.68-.41.233-.948.233-1.09 0-1.716-.846-.625-.846-.625-2.334 0-1.466.628-2.301.628-.836 1.713-.836.543 0 .956.234.414.234.65.68zm-2.905 2.246q0 1.149.365 1.734.365.586 1.08.586.714 0 1.087-.59.373-.592.373-1.73 0-1.144-.373-1.733-.373-.588-1.088-.588-.714 0-1.08.586-.364.585-.364 1.735zm11.501-1.773q-.317-.247-.645-.36-.328-.113-.72-.113-.923 0-1.412.58-.489.58-.489 1.676V36h-.994v-6.016h.994v1.177q.247-.64.76-.98.513-.342 1.217-.342.365 0 .682.092.317.091.607.284zm4.566 1.751h-.327q-.865 0-1.303.304-.437.303-.437.905 0 .542.327.843.328.3.908.3.816 0 1.284-.566.467-.567.472-1.566v-.22zm1.918-.408V36h-.994v-.892q-.317.538-.797.793-.481.255-1.168.255-.919 0-1.467-.519-.548-.518-.548-1.388 0-1.004.674-1.525.674-.521 1.98-.521h1.326v-.156q-.005-.72-.365-1.045-.36-.325-1.15-.325-.504 0-1.02.145-.515.145-1.004.425v-.989q.548-.21 1.05-.314.502-.105.975-.105.746 0 1.275.22.53.22.857.661.204.269.29.664.086.394.086 1.184zM112 29.984h.978l1.047 4.861.86-3.104h.843l.87 3.104 1.047-4.86h.978L117.215 36h-.945l-.961-3.298-.956 3.298h-.946zm20.016 2.514v.483h-4.281v.033q-.043 1.23.47 1.767.513.537 1.447.537.473 0 .989-.15.515-.15 1.1-.457v.983q-.563.23-1.087.346-.524.116-1.012.116-1.402 0-2.192-.84-.79-.841-.79-2.318 0-1.44.774-2.3.774-.859 2.063-.859 1.149 0 1.812.78.664.778.707 1.879zm-.989-.29q-.064-.623-.454-1.077-.389-.454-1.12-.454-.714 0-1.176.473-.462.473-.505 1.063zm5.271-3.932v1.708h2.245v.768h-2.245v3.266q0 .666.252.93.253.262.881.262h1.112V36h-1.209q-1.111 0-1.568-.446-.456-.446-.456-1.536v-3.266h-1.606v-.768h1.606v-1.708zm9.347 3.996V36h-.994v-3.728q0-.81-.284-1.192-.285-.381-.892-.381-.693 0-1.066.491-.373.492-.373 1.41V36h-.989v-8.357h.989v3.244q.263-.516.714-.782.451-.266 1.069-.266.918 0 1.372.605.454.604.454 1.828zm7.371.226v.483h-4.281v.033q-.043 1.23.47 1.767.513.537 1.447.537.473 0 .989-.15.515-.15 1.1-.457v.983q-.563.23-1.087.346-.524.116-1.012.116-1.402 0-2.192-.84-.79-.841-.79-2.318 0-1.44.774-2.3.774-.859 2.063-.859 1.149 0 1.812.78.664.778.707 1.879zm-.989-.29q-.064-.623-.454-1.077-.389-.454-1.12-.454-.714 0-1.176.473-.462.473-.505 1.063zm8.177-.983q-.317-.247-.645-.36-.328-.113-.72-.113-.923 0-1.412.58-.489.58-.489 1.676V36h-.994v-6.016h.994v1.177q.247-.64.76-.98.513-.342 1.217-.342.365 0 .682.092.317.091.607.284z"/><path d="M215.645 32.272V36h-.994v-3.728q0-.81-.284-1.192-.285-.381-.892-.381-.693 0-1.066.491-.373.492-.373 1.41V36h-.989v-6.016h.989v.903q.263-.516.714-.782.451-.266 1.069-.266.918 0 1.372.605.454.604.454 1.828z" fill="#F99"/><path d="M263.608 34.066q-.247.629-.628 1.655-.532 1.418-.714 1.73-.247.418-.618.628-.37.21-.865.21h-.795v-.828h.586q.435 0 .682-.253.247-.252.628-1.305l-2.325-5.919h1.047l1.783 4.705 1.757-4.705h1.047zm43.725-2.744l-2.385 1.289 2.385 1.294-.376.656-2.246-1.349v2.503h-.768v-2.503l-2.245 1.349-.376-.656 2.39-1.294-2.39-1.29.376-.66 2.245 1.348v-2.503h.768v2.503l2.246-1.348zm5.275 2.744q-.247.629-.628 1.655-.532 1.418-.714 1.73-.247.418-.618.628-.37.21-.865.21h-.795v-.828h.586q.435 0 .682-.253.247-.252.628-1.305l-2.325-5.919h1.047l1.783 4.705 1.757-4.705h1.047z" fill="#A7D3A9"/><path d="M160.893 20.336v-.924h6.837v.924zm7 0v-.924h6.837v.924zm7 0v-.924h6.837v.924zm7 0v-.924h6.837v.924zm7 0v-.924h6.837v.924zm7 0v-.924h6.837v.924zm7 0v-.924h6.837v.924zm7 0v-.924h6.837v.924zm7 0v-.924h6.837v.924zm7 0v-.924h6.837v.924zm7 0v-.924h6.837v.924zm7 0v-.924h6.837v.924zm7 0v-.924h6.837v.924zm7 0v-.924h6.837v.924zm7 0v-.924h6.837v.924zm7 0v-.924h6.837v.924zm7 0v-.924h6.837v.924zm7 0v-.924h6.837v.924zm7 0v-.924h6.837v.924zm7 0v-.924h6.837v.924zm7 0v-.924h6.837v.924zm7 0v-.924h6.837v.924zm7 0v-.924h6.837v.924zm7 0v-.924h6.837v.924zM178.63 4.597q.183-.387.465-.572.282-.186.68-.186.725 0 1.023.562.298.56.298 2.113V10h-.902V6.557q0-1.273-.142-1.582-.143-.308-.519-.308-.43 0-.588.33-.158.33-.158 1.56V10h-.903V6.557q0-1.289-.153-1.59-.153-.3-.55-.3-.392 0-.546.33-.153.33-.153 1.56V10h-.897V3.984h.897V4.5q.178-.322.444-.491.265-.17.604-.17.408 0 .68.188.27.188.42.57zm5.067-.591h2.53v5.226h1.96V10h-4.909v-.768h1.96V4.774h-1.54zm1.542-2.337h.988v1.247h-.988zm9.406 4.603V10h-.994V6.272q0-.81-.284-1.192-.285-.381-.892-.381-.693 0-1.066.491-.373.492-.373 1.41V10h-.989V3.984h.989v.903q.263-.516.714-.782.451-.266 1.069-.266.918 0 1.372.605.454.604.454 1.828zm4.653-3.996v1.708h2.245v.768h-2.245v3.266q0 .666.252.93.253.262.881.262h1.112V10h-1.209q-1.111 0-1.568-.446-.456-.446-.456-1.536V4.752h-1.606v-.768h1.606V2.276zm9.718 4.222v.483h-4.281v.033q-.043 1.23.47 1.767.513.537 1.447.537.473 0 .989-.15.515-.15 1.1-.457v.983q-.563.23-1.087.346-.524.116-1.012.116-1.402 0-2.192-.84-.79-.841-.79-2.318 0-1.44.774-2.3.774-.859 2.063-.859 1.149 0 1.812.78.664.778.707 1.879zm-.989-.29q-.064-.623-.454-1.077-.389-.454-1.12-.454-.714 0-1.176.473-.462.473-.505 1.063zm8.177-.983q-.317-.247-.645-.36-.328-.113-.72-.113-.923 0-1.412.58-.489.58-.489 1.676V10h-.994V3.984h.994v1.177q.247-.64.76-.98.513-.342 1.217-.342.365 0 .682.092.317.091.607.284zm18.105-.548q-.752 0-1.14.586-.386.585-.386 1.735 0 1.144.387 1.732.387.588 1.139.588.757 0 1.144-.588.386-.588.386-1.732 0-1.15-.386-1.735-.387-.586-1.144-.586zm0-.838q1.251 0 1.914.811.664.811.664 2.348 0 1.541-.66 2.35-.662.808-1.918.808-1.252 0-1.913-.809-.66-.808-.66-2.35 0-1.536.66-2.347.661-.81 1.913-.81zm3.691.145h.978l1.047 4.861.86-3.104h.843l.87 3.104 1.047-4.86h.978L243.215 10h-.945l-.961-3.298-.956 3.298h-.946zm12.645 2.288V10h-.994V6.272q0-.81-.284-1.192-.285-.381-.892-.381-.693 0-1.066.491-.373.492-.373 1.41V10h-.989V3.984h.989v.903q.263-.516.714-.782.451-.266 1.069-.266.918 0 1.372.605.454.604.454 1.828zm7.371.226v.483h-4.281v.033q-.043 1.23.47 1.767.513.537 1.447.537.473 0 .989-.15.515-.15 1.1-.457v.983q-.563.23-1.087.346-.524.116-1.012.116-1.402 0-2.192-.84-.79-.841-.79-2.318 0-1.44.774-2.3.774-.859 2.063-.859 1.149 0 1.812.78.664.778.707 1.879zm-.989-.29q-.064-.623-.454-1.077-.389-.454-1.12-.454-.714 0-1.176.473-.462.473-.505 1.063zm8.177-.983q-.317-.247-.645-.36-.328-.113-.72-.113-.923 0-1.412.58-.489.58-.489 1.676V10h-.994V3.984h.994v1.177q.247-.64.76-.98.513-.342 1.217-.342.365 0 .682.092.317.091.607.284zm25.566 1.751h-.327q-.865 0-1.303.304-.437.303-.437.905 0 .542.327.843.328.3.908.3.816 0 1.284-.566.467-.567.472-1.566v-.22zm1.918-.408V10h-.994v-.892q-.317.538-.797.793-.481.255-1.168.255-.919 0-1.467-.519-.548-.518-.548-1.388 0-1.004.674-1.525.675-.521 1.98-.521h1.326v-.156q-.005-.72-.365-1.045-.36-.325-1.15-.325-.504 0-1.02.145-.515.145-1.004.425v-.989q.548-.21 1.05-.314.502-.105.975-.105.746 0 1.275.22.53.22.857.661.204.269.29.664.086.394.086 1.184zm5.92-1.816v-3.11h.989V10h-.989v-.757q-.247.445-.658.68-.41.233-.948.233-1.09 0-1.716-.846-.625-.846-.625-2.334 0-1.466.628-2.301.628-.836 1.713-.836.543 0 .956.234.414.234.65.68zm-2.905 2.246q0 1.149.365 1.734.365.586 1.08.586.714 0 1.087-.59.373-.592.373-1.73 0-1.144-.373-1.733-.373-.588-1.088-.588-.714 0-1.08.586-.364.585-.364 1.735zm8.927-2.401q.183-.387.465-.572.282-.186.68-.186.725 0 1.023.562.298.56.298 2.113V10h-.902V6.557q0-1.273-.142-1.582-.143-.308-.519-.308-.43 0-.588.33-.158.33-.158 1.56V10h-.903V6.557q0-1.289-.153-1.59-.153-.3-.55-.3-.392 0-.546.33-.153.33-.153 1.56V10h-.897V3.984h.897V4.5q.178-.322.444-.491.265-.17.604-.17.408 0 .68.188.27.188.42.57zm5.067-.591h2.53v5.226h1.96V10h-4.909v-.768h1.96V4.774h-1.54zm1.542-2.337h.988v1.247h-.988zm9.406 4.603V10h-.994V6.272q0-.81-.284-1.192-.285-.381-.892-.381-.693 0-1.066.491-.373.492-.373 1.41V10h-.989V3.984h.989v.903q.263-.516.714-.782.451-.266 1.069-.266.918 0 1.372.605.454.604.454 1.828z"/></svg>