<svg xmlns="http://www.w3.org/2000/svg" width="498" height="274"><path d="M3.309 27.863q1.283 0 1.941 1.047.658 1.048.658 3.1 0 2.051-.658 3.098-.658 1.048-1.941 1.048-1.284 0-1.94-1.048-.655-1.047-.655-3.099 0-2.051.656-3.099.655-1.047 1.939-1.047zm0 7.433q.762 0 1.136-.81.373-.812.373-2.477 0-.886-.108-1.6L2.154 34.41q.403.886 1.155.886zm0-6.574q-.758 0-1.131.811t-.373 2.476q0 .758.102 1.418l2.503-3.99q-.409-.715-1.101-.715zM3.309 40.863q1.283 0 1.941 1.047.658 1.048.658 3.1 0 2.051-.658 3.098-.658 1.048-1.941 1.048-1.284 0-1.94-1.048-.655-1.047-.655-3.099 0-2.051.656-3.099.655-1.047 1.939-1.047zm0 7.433q.762 0 1.136-.81.373-.812.373-2.477 0-.886-.108-1.6L2.154 47.41q.403.886 1.155.886zm0-6.574q-.758 0-1.131.811t-.373 2.476q0 .758.102 1.418l2.503-3.99q-.409-.715-1.101-.715zM3.309 53.863q1.283 0 1.941 1.047.658 1.048.658 3.1 0 2.051-.658 3.098-.658 1.048-1.941 1.048-1.284 0-1.94-1.048-.655-1.047-.655-3.099 0-2.051.656-3.099.655-1.047 1.939-1.047zm0 7.433q.762 0 1.136-.81.373-.812.373-2.477 0-.886-.108-1.6L2.154 60.41q.403.886 1.155.886zm0-6.574q-.758 0-1.131.811t-.373 2.476q0 .758.102 1.418l2.503-3.99q-.409-.715-1.101-.715zM3.309 66.863q1.283 0 1.941 1.047.658 1.048.658 3.1 0 2.051-.658 3.098-.658 1.048-1.941 1.048-1.284 0-1.94-1.048-.655-1.047-.655-3.099 0-2.051.656-3.099.655-1.047 1.939-1.047zm0 7.433q.762 0 1.136-.81.373-.812.373-2.477 0-.886-.108-1.6L2.154 73.41q.403.886 1.155.886zm0-6.574q-.758 0-1.131.811t-.373 2.476q0 .758.102 1.418l2.503-3.99q-.409-.715-1.101-.715zM3.309 79.863q1.283 0 1.941 1.047.658 1.048.658 3.1 0 2.051-.658 3.098-.658 1.048-1.941 1.048-1.284 0-1.94-1.048-.655-1.047-.655-3.099 0-2.051.656-3.099.655-1.047 1.939-1.047zm0 7.433q.762 0 1.136-.81.373-.812.373-2.477 0-.886-.108-1.6L2.154 86.41q.403.886 1.155.886zm0-6.574q-.758 0-1.131.811t-.373 2.476q0 .758.102 1.418l2.503-3.99q-.409-.715-1.101-.715zM3.309 92.863q1.283 0 1.941 1.047.658 1.048.658 3.1 0 2.051-.658 3.098-.658 1.048-1.941 1.048-1.284 0-1.94-1.048-.655-1.047-.655-3.099 0-2.051.656-3.099.655-1.047 1.939-1.047zm0 7.433q.762 0 1.136-.81.373-.812.373-2.477 0-.886-.108-1.6L2.154 99.41q.403.886 1.155.886zm0-6.574q-.758 0-1.131.811t-.373 2.476q0 .758.102 1.418l2.503-3.99q-.409-.715-1.101-.715zM3.309 157.863q1.283 0 1.941 1.047.658 1.048.658 3.1 0 2.051-.658 3.098-.658 1.048-1.941 1.048-1.284 0-1.94-1.048-.655-1.047-.655-3.099 0-2.051.656-3.099.655-1.047 1.939-1.047zm0 7.433q.762 0 1.136-.81.373-.812.373-2.477 0-.886-.108-1.6l-2.556 4.001q.403.886 1.155.886zm0-6.574q-.758 0-1.131.811t-.373 2.476q0 .758.102 1.418l2.503-3.99q-.409-.715-1.101-.715zM3.309 170.863q1.283 0 1.941 1.047.658 1.048.658 3.1 0 2.051-.658 3.098-.658 1.048-1.941 1.048-1.284 0-1.94-1.048-.655-1.047-.655-3.099 0-2.051.656-3.099.655-1.047 1.939-1.047zm0 7.433q.762 0 1.136-.81.373-.812.373-2.477 0-.886-.108-1.6l-2.556 4.001q.403.886 1.155.886zm0-6.574q-.758 0-1.131.811t-.373 2.476q0 .758.102 1.418l2.503-3.99q-.409-.715-1.101-.715zM3.309 183.863q1.283 0 1.941 1.047.658 1.048.658 3.1 0 2.051-.658 3.098-.658 1.048-1.941 1.048-1.284 0-1.94-1.048-.655-1.047-.655-3.099 0-2.051.656-3.099.655-1.047 1.939-1.047zm0 7.433q.762 0 1.136-.81.373-.812.373-2.477 0-.886-.108-1.6l-2.556 4.001q.403.886 1.155.886zm0-6.574q-.758 0-1.131.811t-.373 2.476q0 .758.102 1.418l2.503-3.99q-.409-.715-1.101-.715zM3.309 196.863q1.283 0 1.941 1.047.658 1.048.658 3.1 0 2.051-.658 3.098-.658 1.048-1.941 1.048-1.284 0-1.94-1.048-.655-1.047-.655-3.099 0-2.051.656-3.099.655-1.047 1.939-1.047zm0 7.433q.762 0 1.136-.81.373-.812.373-2.477 0-.886-.108-1.6l-2.556 4.001q.403.886 1.155.886zm0-6.574q-.758 0-1.131.811t-.373 2.476q0 .758.102 1.418l2.503-3.99q-.409-.715-1.101-.715zM3.309 209.863q1.283 0 1.941 1.047.658 1.048.658 3.1 0 2.051-.658 3.098-.658 1.048-1.941 1.048-1.284 0-1.94-1.048-.655-1.047-.655-3.099 0-2.051.656-3.099.655-1.047 1.939-1.047zm0 7.433q.762 0 1.136-.81.373-.812.373-2.477 0-.886-.108-1.6l-2.556 4.001q.403.886 1.155.886zm0-6.574q-.758 0-1.131.811t-.373 2.476q0 .758.102 1.418l2.503-3.99q-.409-.715-1.101-.715z" fill="#919191"/><path d="M30.879 254.336V246.3h.86v7.111h2.991v.924z" fill="#A7D3A9"/><path d="M47.226 264.194v.967q-.424-.247-.854-.371-.43-.123-.875-.123-.672 0-1.002.217-.33.218-.33.663 0 .403.247.602.247.199 1.23.387l.397.075q.736.14 1.115.558.378.42.378 1.09 0 .892-.634 1.395-.633.502-1.761.502-.446 0-.935-.094-.489-.094-1.058-.282v-1.02q.553.284 1.058.426.505.143.956.143.655 0 1.015-.266.36-.266.36-.744 0-.688-1.316-.95l-.043-.012-.37-.075q-.854-.166-1.246-.561t-.392-1.077q0-.865.585-1.335t1.67-.47q.484 0 .93.089.445.089.875.266zM52.862 267.825q0 .666.244 1.004.245.338.723.338h1.154V270h-1.251q-.886 0-1.372-.567-.486-.566-.486-1.608v-5.441h-1.585v-.774h2.573zM59.309 264.677q-.752 0-1.14.586-.386.585-.386 1.735 0 1.144.387 1.732.387.588 1.139.588.757 0 1.144-.588.386-.588.386-1.732 0-1.15-.386-1.735-.387-.586-1.144-.586zm0-.838q1.251 0 1.914.811.664.811.664 2.348 0 1.541-.66 2.35-.662.808-1.918.808-1.252 0-1.913-.809-.66-.808-.66-2.35 0-1.536.66-2.347.661-.81 1.913-.81zM66.298 262.276v1.708h2.245v.768h-2.245v3.266q0 .666.252.93.253.262.881.262h1.112v.79h-1.209q-1.111 0-1.568-.446-.456-.446-.456-1.536v-3.266h-1.606v-.768h1.606v-1.708zM80.309 261.863q1.283 0 1.941 1.047.658 1.048.658 3.1 0 2.051-.658 3.098-.658 1.048-1.941 1.048-1.284 0-1.94-1.048-.655-1.047-.655-3.099 0-2.051.656-3.099.655-1.047 1.939-1.047zm0 7.433q.762 0 1.136-.81.373-.812.373-2.477 0-.886-.108-1.6l-2.556 4.001q.403.886 1.155.886zm0-6.574q-.758 0-1.131.811t-.373 2.476q0 .758.102 1.418l2.503-3.99q-.409-.715-1.101-.715zM90.005 263.984l-2.154 2.88L90.214 270H89.07l-1.761-2.412L85.552 270h-1.144l2.363-3.137-2.153-2.879h1.095l1.596 2.176 1.584-2.176zM94.309 261.863q1.283 0 1.941 1.047.658 1.048.658 3.1 0 2.051-.658 3.098-.658 1.048-1.941 1.048-1.284 0-1.94-1.048-.655-1.047-.655-3.099 0-2.051.656-3.099.655-1.047 1.939-1.047zm0 7.433q.762 0 1.136-.81.373-.812.373-2.477 0-.886-.108-1.6l-2.556 4.001q.403.886 1.155.886zm0-6.574q-.758 0-1.131.811t-.373 2.476q0 .758.102 1.418l2.503-3.99q-.409-.715-1.101-.715zM99.112 261.981h4.06v.913H100.1v1.971q.231-.086.465-.126.233-.04.47-.04 1.246 0 1.976.736.73.735.73 1.992 0 1.268-.765 1.998t-2.092.73q-.639 0-1.168-.085-.529-.086-.948-.258v-1.101q.494.268.994.4t1.02.132q.897 0 1.383-.473t.486-1.343q0-.86-.502-1.337-.502-.478-1.399-.478-.435 0-.849.1-.413.099-.79.297zM117.645 266.272V270h-.994v-3.728q0-.81-.284-1.192-.285-.381-.892-.381-.693 0-1.066.491-.373.492-.373 1.41v3.4h-.989v-6.016h.989v.903q.263-.516.714-.782.451-.266 1.069-.266.918 0 1.372.605.454.604.454 1.828zM122.309 264.677q-.752 0-1.14.586-.386.585-.386 1.735 0 1.144.387 1.732.387.588 1.139.588.757 0 1.144-.588.386-.588.386-1.732 0-1.15-.386-1.735-.387-.586-1.144-.586zm0-.838q1.251 0 1.914.811.664.811.664 2.348 0 1.541-.66 2.35-.662.808-1.918.808-1.252 0-1.913-.809-.66-.808-.66-2.35 0-1.536.66-2.347.661-.81 1.913-.81zM136.862 267.825q0 .666.244 1.004.245.338.723.338h1.154V270h-1.251q-.886 0-1.372-.567-.486-.566-.486-1.608v-5.441h-1.585v-.774h2.573zM143.309 264.677q-.752 0-1.14.586-.386.585-.386 1.735 0 1.144.387 1.732.387.588 1.139.588.757 0 1.144-.588.386-.588.386-1.732 0-1.15-.386-1.735-.387-.586-1.144-.586zm0-.838q1.251 0 1.914.811.664.811.664 2.348 0 1.541-.66 2.35-.662.808-1.918.808-1.252 0-1.913-.809-.66-.808-.66-2.35 0-1.536.66-2.347.661-.81 1.913-.81zM152.645 266.272V270h-.994v-3.728q0-.81-.284-1.192-.285-.381-.892-.381-.693 0-1.066.491-.373.492-.373 1.41v3.4h-.989v-6.016h.989v.903q.263-.516.714-.782.451-.266 1.069-.266.918 0 1.372.605.454.604.454 1.828zM158.608 266.944q0-1.112-.362-1.69-.363-.577-1.056-.577-.725 0-1.106.578-.381.577-.381 1.689t.384 1.694q.384.583 1.114.583.682 0 1.045-.585.362-.586.362-1.692zm.989 2.67q0 1.353-.64 2.051-.639.698-1.88.698-.408 0-.853-.075-.446-.075-.892-.22v-.978q.526.247.956.366.43.118.79.118.8 0 1.165-.435t.365-1.38V269.043q-.236.505-.644.752-.408.247-.994.247-1.053 0-1.68-.843-.63-.844-.63-2.256 0-1.418.63-2.261.627-.844 1.68-.844.58 0 .983.231t.655.715v-.78h.989zM167.016 266.498v.483h-4.281v.033q-.043 1.23.47 1.767.513.537 1.447.537.473 0 .989-.15.515-.15 1.1-.457v.983q-.563.23-1.087.346-.524.116-1.012.116-1.402 0-2.192-.84-.79-.841-.79-2.318 0-1.44.774-2.3.774-.859 2.063-.859 1.149 0 1.812.78.664.778.707 1.879zm-.989-.29q-.064-.623-.454-1.077-.389-.454-1.12-.454-.714 0-1.176.473-.462.473-.505 1.063zM174.204 265.225q-.317-.247-.645-.36-.328-.113-.72-.113-.923 0-1.412.58-.489.58-.489 1.676V270h-.994v-6.016h.994v1.177q.247-.64.76-.98.513-.342 1.217-.342.365 0 .682.092.317.091.607.284zM187.645 266.272V270h-.994v-3.728q0-.81-.284-1.192-.285-.381-.892-.381-.693 0-1.066.491-.373.492-.373 1.41v3.4h-.989v-6.016h.989v.903q.263-.516.714-.782.451-.266 1.069-.266.918 0 1.372.605.454.604.454 1.828zM195.016 266.498v.483h-4.281v.033q-.043 1.23.47 1.767.513.537 1.447.537.473 0 .989-.15.515-.15 1.1-.457v.983q-.563.23-1.087.346-.524.116-1.012.116-1.402 0-2.192-.84-.79-.841-.79-2.318 0-1.44.774-2.3.774-.859 2.063-.859 1.149 0 1.812.78.664.778.707 1.879zm-.989-.29q-.064-.623-.454-1.077-.389-.454-1.12-.454-.714 0-1.176.473-.462.473-.505 1.063zM202.016 266.498v.483h-4.281v.033q-.043 1.23.47 1.767.513.537 1.447.537.473 0 .989-.15.515-.15 1.1-.457v.983q-.563.23-1.087.346-.524.116-1.012.116-1.402 0-2.192-.84-.79-.841-.79-2.318 0-1.44.774-2.3.774-.859 2.063-.859 1.149 0 1.812.78.664.778.707 1.879zm-.989-.29q-.064-.623-.454-1.077-.389-.454-1.12-.454-.714 0-1.176.473-.462.473-.505 1.063zM207.608 264.752v-3.11h.989V270h-.989v-.757q-.247.445-.658.68-.41.233-.948.233-1.09 0-1.716-.846-.625-.846-.625-2.334 0-1.466.628-2.301.628-.836 1.713-.836.543 0 .956.234.414.234.65.68zm-2.905 2.246q0 1.149.365 1.734.365.586 1.08.586.714 0 1.087-.59.373-.592.373-1.73 0-1.144-.373-1.733-.373-.588-1.088-.588-.714 0-1.08.586-.364.585-.364 1.735zM216.016 266.498v.483h-4.281v.033q-.043 1.23.47 1.767.513.537 1.447.537.473 0 .989-.15.515-.15 1.1-.457v.983q-.563.23-1.087.346-.524.116-1.012.116-1.402 0-2.192-.84-.79-.841-.79-2.318 0-1.44.774-2.3.774-.859 2.063-.859 1.149 0 1.812.78.664.778.707 1.879zm-.989-.29q-.064-.623-.454-1.077-.389-.454-1.12-.454-.714 0-1.176.473-.462.473-.505 1.063zM221.608 264.752v-3.11h.989V270h-.989v-.757q-.247.445-.658.68-.41.233-.948.233-1.09 0-1.716-.846-.625-.846-.625-2.334 0-1.466.628-2.301.628-.836 1.713-.836.543 0 .956.234.414.234.65.68zm-2.905 2.246q0 1.149.365 1.734.365.586 1.08.586.714 0 1.087-.59.373-.592.373-1.73 0-1.144-.373-1.733-.373-.588-1.088-.588-.714 0-1.08.586-.364.585-.364 1.735z"/><path d="M41.893 254.336v-.924h6.837v.924zM55.893 254.336v-.924h6.837v.924zM69.893 254.336v-.924h6.837v.924zM83.893 254.336v-.924h6.837v.924zM97.893 254.336v-.924h6.837v.924zM111.893 254.336v-.924h6.837v.924zM125.893 254.336v-.924h6.837v.924zM139.893 254.336v-.924h6.837v.924zM153.893 254.336v-.924h6.837v.924zM167.893 254.336v-.924h6.837v.924zM181.893 254.336v-.924h6.837v.924zM195.893 254.336v-.924h6.837v.924zM209.893 254.336v-.924h6.837v.924zM223.893 254.336v-.924h6.837v.924zM237.893 254.336v-.924h6.837v.924zM251.893 254.336v-.924h6.837v.924zM265.893 254.336v-.924h2.986v-7.111h.86v8.035z" fill="#A7D3A9"/><path d="M41.893 246.75v-11.215h5.124v11.215zM48.893 246.75v-11.215h5.124v11.215zM55.893 246.75v-11.215h5.124v11.215zM62.893 246.75v-11.215h5.124v11.215zM69.893 246.75v-11.215h5.124v11.215zM76.893 246.75v-11.215h5.124v11.215zM83.893 246.75v-11.215h5.124v11.215zM90.893 246.75v-11.215h5.124v11.215zM97.893 246.75v-11.215h5.124v11.215zM104.893 246.75v-11.215h5.124v11.215zM111.893 246.75v-11.215h5.124v11.215zM118.893 246.75v-11.215h5.124v11.215zM125.893 246.75v-11.215h5.124v11.215zM132.893 246.75v-11.215h5.124v11.215zM139.893 246.75v-11.215h5.124v11.215zM146.893 246.75v-11.215h5.124v11.215zM153.893 246.75v-11.215h5.124v11.215zM160.893 246.75v-11.215h5.124v11.215zM167.893 246.75v-11.215h5.124v11.215zM174.893 246.75v-11.215h5.124v11.215zM181.893 246.75v-11.215h5.124v11.215zM188.893 246.75v-11.215h5.124v11.215zM195.893 246.75v-11.215h5.124v11.215zM202.893 246.75v-11.215h5.124v11.215zM209.893 246.75v-11.215h5.124v11.215zM216.893 246.75v-11.215h5.124v11.215zM223.893 246.75v-11.215h5.124v11.215zM230.893 246.75v-11.215h5.124v11.215zM237.893 246.75v-11.215h5.124v11.215zM244.893 246.75v-11.215h5.124v11.215zM251.893 246.75v-11.215h5.124v11.215zM258.893 246.75v-11.215h5.124v11.215z" fill="#A7D3A9" fill-opacity=".8"/><path d="M13.005 159.984l-2.154 2.88L13.214 166H12.07l-1.761-2.412L8.552 166H7.408l2.363-3.137-2.153-2.879h1.095l1.596 2.176 1.584-2.176zM13.005 172.984l-2.154 2.88L13.214 179H12.07l-1.761-2.412L8.552 179H7.408l2.363-3.137-2.153-2.879h1.095l1.596 2.176 1.584-2.176zM13.005 185.984l-2.154 2.88L13.214 192H12.07l-1.761-2.412L8.552 192H7.408l2.363-3.137-2.153-2.879h1.095l1.596 2.176 1.584-2.176zM13.005 198.984l-2.154 2.88L13.214 205H12.07l-1.761-2.412L8.552 205H7.408l2.363-3.137-2.153-2.879h1.095l1.596 2.176 1.584-2.176zM13.005 211.984l-2.154 2.88L13.214 218H12.07l-1.761-2.412L8.552 218H7.408l2.363-3.137-2.153-2.879h1.095l1.596 2.176 1.584-2.176zM17.309 157.863q1.283 0 1.941 1.047.658 1.048.658 3.1 0 2.051-.658 3.098-.658 1.048-1.941 1.048-1.284 0-1.94-1.048-.655-1.047-.655-3.099 0-2.051.656-3.099.655-1.047 1.939-1.047zm0 7.433q.762 0 1.136-.81.373-.812.373-2.477 0-.886-.108-1.6l-2.556 4.001q.403.886 1.155.886zm0-6.574q-.758 0-1.131.811t-.373 2.476q0 .758.102 1.418l2.503-3.99q-.409-.715-1.101-.715zM24.309 157.863q1.283 0 1.941 1.047.658 1.048.658 3.1 0 2.051-.658 3.098-.658 1.048-1.941 1.048-1.284 0-1.94-1.048-.655-1.047-.655-3.099 0-2.051.656-3.099.655-1.047 1.939-1.047zm0 7.433q.762 0 1.136-.81.373-.812.373-2.477 0-.886-.108-1.6l-2.556 4.001q.403.886 1.155.886zm0-6.574q-.758 0-1.131.811t-.373 2.476q0 .758.102 1.418l2.503-3.99q-.409-.715-1.101-.715zM17.309 170.863q1.283 0 1.941 1.047.658 1.048.658 3.1 0 2.051-.658 3.098-.658 1.048-1.941 1.048-1.284 0-1.94-1.048-.655-1.047-.655-3.099 0-2.051.656-3.099.655-1.047 1.939-1.047zm0 7.433q.762 0 1.136-.81.373-.812.373-2.477 0-.886-.108-1.6l-2.556 4.001q.403.886 1.155.886zm0-6.574q-.758 0-1.131.811t-.373 2.476q0 .758.102 1.418l2.503-3.99q-.409-.715-1.101-.715zM17.309 183.863q1.283 0 1.941 1.047.658 1.048.658 3.1 0 2.051-.658 3.098-.658 1.048-1.941 1.048-1.284 0-1.94-1.048-.655-1.047-.655-3.099 0-2.051.656-3.099.655-1.047 1.939-1.047zm0 7.433q.762 0 1.136-.81.373-.812.373-2.477 0-.886-.108-1.6l-2.556 4.001q.403.886 1.155.886zm0-6.574q-.758 0-1.131.811t-.373 2.476q0 .758.102 1.418l2.503-3.99q-.409-.715-1.101-.715zM17.309 196.863q1.283 0 1.941 1.047.658 1.048.658 3.1 0 2.051-.658 3.098-.658 1.048-1.941 1.048-1.284 0-1.94-1.048-.655-1.047-.655-3.099 0-2.051.656-3.099.655-1.047 1.939-1.047zm0 7.433q.762 0 1.136-.81.373-.812.373-2.477 0-.886-.108-1.6l-2.556 4.001q.403.886 1.155.886zm0-6.574q-.758 0-1.131.811t-.373 2.476q0 .758.102 1.418l2.503-3.99q-.409-.715-1.101-.715zM17.309 209.863q1.283 0 1.941 1.047.658 1.048.658 3.1 0 2.051-.658 3.098-.658 1.048-1.941 1.048-1.284 0-1.94-1.048-.655-1.047-.655-3.099 0-2.051.656-3.099.655-1.047 1.939-1.047zm0 7.433q.762 0 1.136-.81.373-.812.373-2.477 0-.886-.108-1.6l-2.556 4.001q.403.886 1.155.886zm0-6.574q-.758 0-1.131.811t-.373 2.476q0 .758.102 1.418l2.503-3.99q-.409-.715-1.101-.715zM22.45 178.092h1.687v-6.058l-2.02.972v-1.042l2.009-.956h1.085v7.084h1.665V179H22.45zM23.003 191.087h3.685V192h-4.872v-.913q1.005-1.058 1.757-1.87.752-.81 1.036-1.143.537-.656.725-1.061.188-.406.188-.83 0-.671-.394-1.053-.395-.381-1.083-.381-.488 0-1.025.177-.538.178-1.14.537v-1.095q.554-.264 1.089-.398.534-.134 1.055-.134 1.176 0 1.893.626.717.625.717 1.64 0 .516-.239 1.032-.239.515-.776 1.138-.3.35-.873.967-.572.618-1.743 1.848zM25.168 200.708q.79.21 1.208.744.42.535.42 1.335 0 1.107-.744 1.738-.744.63-2.06.63-.554 0-1.128-.101-.575-.102-1.128-.296v-1.08q.548.285 1.08.425.531.14 1.058.14.891 0 1.37-.403.477-.403.477-1.16 0-.699-.478-1.11-.478-.41-1.294-.41h-.827v-.892h.827q.746 0 1.165-.328.42-.327.42-.913 0-.617-.39-.948-.39-.33-1.11-.33-.477 0-.988.107-.51.108-1.068.323v-1q.65-.171 1.157-.257.508-.086.9-.086 1.17 0 1.871.588.701.588.701 1.56 0 .661-.367 1.101-.368.44-1.072.623zM24.948 210.97l-2.53 4.237h2.53zm-.177-.989h1.256v5.226h1.07v.88h-1.07V218h-1.08v-1.912h-3.4v-1.026z" fill="#919191"/><path d="M41.893 220.75v-11.215h5.124v11.215zM48.893 220.75v-11.215h5.124v11.215zM55.893 220.75v-11.215h5.124v11.215zM62.893 220.75v-11.215h5.124v11.215zM69.893 220.75v-11.215h5.124v11.215zM76.893 220.75v-11.215h5.124v11.215zM83.893 220.75v-11.215h5.124v11.215zM90.893 220.75v-11.215h5.124v11.215zM97.893 220.75v-11.215h5.124v11.215zM104.893 220.75v-11.215h5.124v11.215zM111.893 220.75v-11.215h5.124v11.215zM118.893 220.75v-11.215h5.124v11.215zM125.893 220.75v-11.215h5.124v11.215zM132.893 220.75v-11.215h5.124v11.215zM139.893 220.75v-11.215h5.124v11.215zM146.893 220.75v-11.215h5.124v11.215zM153.893 220.75v-11.215h5.124v11.215zM160.893 220.75v-11.215h5.124v11.215zM167.893 220.75v-11.215h5.124v11.215zM174.893 220.75v-11.215h5.124v11.215zM181.893 220.75v-11.215h5.124v11.215zM188.893 220.75v-11.215h5.124v11.215zM195.893 220.75v-11.215h5.124v11.215zM202.893 220.75v-11.215h5.124v11.215zM209.893 220.75v-11.215h5.124v11.215zM216.893 220.75v-11.215h5.124v11.215zM223.893 220.75v-11.215h5.124v11.215z" fill="#F99" fill-opacity=".498"/><path d="M230.893 220.75v-11.215h5.124v11.215zM237.893 220.75v-11.215h5.124v11.215zM244.893 220.75v-11.215h5.124v11.215zM251.893 220.75v-11.215h5.124v11.215zM258.893 220.75v-11.215h5.124v11.215z" fill="#EAEAEA"/><path d="M281.047 215.723v-3.728h.989v3.728q0 .81.287 1.192.287.381.889.381.698 0 1.069-.491.37-.492.37-1.41v-3.4h.994V218h-.994v-.902q-.263.52-.717.79-.454.268-1.06.268-.924 0-1.375-.604-.452-.605-.452-1.83zM288.697 212.006h2.53v5.226h1.96V218h-4.909v-.768h1.96v-4.458h-1.54zm1.542-2.337h.988v1.247h-.988zM299.645 214.272V218h-.994v-3.728q0-.81-.284-1.192-.285-.381-.892-.381-.693 0-1.066.491-.373.492-.373 1.41v3.4h-.989v-6.016h.989v.903q.263-.516.714-.782.451-.266 1.069-.266.918 0 1.372.605.454.604.454 1.828zM304.298 210.276v1.708h2.245v.768h-2.245v3.266q0 .666.252.93.253.262.881.262h1.112v.79h-1.209q-1.111 0-1.568-.446-.456-.446-.456-1.536v-3.266h-1.606v-.768h1.606v-1.708zM311.309 214.192q-.726 0-1.12.405-.395.406-.395 1.147t.4 1.152q.4.411 1.115.411.73 0 1.125-.405.395-.406.395-1.158 0-.736-.4-1.144-.4-.408-1.12-.408zm-.946-.451q-.693-.178-1.082-.66-.39-.484-.39-1.166 0-.957.65-1.518t1.768-.561q1.122 0 1.772.561.65.561.65 1.518 0 .682-.39 1.165-.389.483-1.082.66.806.178 1.233.715.427.537.427 1.391 0 1.085-.693 1.697-.693.613-1.917.613-1.225 0-1.915-.61t-.69-1.69q0-.858.427-1.398.427-.54 1.232-.717zm-.392-1.724q0 .644.344.983.344.338.994.338.655 0 .999-.338.343-.339.343-.983 0-.656-.34-1-.342-.343-1.002-.343-.65 0-.994.346-.344.347-.344.997zM317.374 216.061h1.676v1.423l-1.193 2.315-1.074.006.591-2.32zM323.047 215.723v-3.728h.989v3.728q0 .81.287 1.192.287.381.889.381.698 0 1.069-.491.37-.492.37-1.41v-3.4h.994V218h-.994v-.902q-.263.52-.717.79-.454.268-1.06.268-.924 0-1.375-.604-.452-.605-.452-1.83zM330.697 212.006h2.53v5.226h1.96V218h-4.909v-.768h1.96v-4.458h-1.54zm1.542-2.337h.988v1.247h-.988zM341.645 214.272V218h-.994v-3.728q0-.81-.284-1.192-.285-.381-.892-.381-.693 0-1.066.491-.373.492-.373 1.41v3.4h-.989v-6.016h.989v.903q.263-.516.714-.782.451-.266 1.069-.266.918 0 1.372.605.454.604.454 1.828zM346.298 210.276v1.708h2.245v.768h-2.245v3.266q0 .666.252.93.253.262.881.262h1.112v.79h-1.209q-1.111 0-1.568-.446-.456-.446-.456-1.536v-3.266h-1.606v-.768h1.606v-1.708zM353.309 214.192q-.726 0-1.12.405-.395.406-.395 1.147t.4 1.152q.4.411 1.115.411.73 0 1.125-.405.395-.406.395-1.158 0-.736-.4-1.144-.4-.408-1.12-.408zm-.946-.451q-.693-.178-1.082-.66-.39-.484-.39-1.166 0-.957.65-1.518t1.768-.561q1.122 0 1.772.561.65.561.65 1.518 0 .682-.39 1.165-.389.483-1.082.66.806.178 1.233.715.427.537.427 1.391 0 1.085-.693 1.697-.693.613-1.917.613-1.225 0-1.915-.61t-.69-1.69q0-.858.427-1.398.427-.54 1.232-.717zm-.392-1.724q0 .644.344.983.344.338.994.338.655 0 .999-.338.343-.339.343-.983 0-.656-.34-1-.342-.343-1.002-.343-.65 0-.994.346-.344.347-.344.997zM359.374 216.061h1.676v1.423l-1.193 2.315-1.074.006.591-2.32zM365.047 215.723v-3.728h.989v3.728q0 .81.287 1.192.287.381.889.381.698 0 1.069-.491.37-.492.37-1.41v-3.4h.994V218h-.994v-.902q-.263.52-.717.79-.454.268-1.06.268-.924 0-1.375-.604-.452-.605-.452-1.83zM372.697 212.006h2.53v5.226h1.96V218h-4.909v-.768h1.96v-4.458h-1.54zm1.542-2.337h.988v1.247h-.988zM383.645 214.272V218h-.994v-3.728q0-.81-.284-1.192-.285-.381-.892-.381-.693 0-1.066.491-.373.492-.373 1.41v3.4h-.989v-6.016h.989v.903q.263-.516.714-.782.451-.266 1.069-.266.918 0 1.372.605.454.604.454 1.828zM388.298 210.276v1.708h2.245v.768h-2.245v3.266q0 .666.252.93.253.262.881.262h1.112v.79h-1.209q-1.111 0-1.568-.446-.456-.446-.456-1.536v-3.266h-1.606v-.768h1.606v-1.708zM395.309 214.192q-.726 0-1.12.405-.395.406-.395 1.147t.4 1.152q.4.411 1.115.411.73 0 1.125-.405.395-.406.395-1.158 0-.736-.4-1.144-.4-.408-1.12-.408zm-.946-.451q-.693-.178-1.082-.66-.39-.484-.39-1.166 0-.957.65-1.518t1.768-.561q1.122 0 1.772.561.65.561.65 1.518 0 .682-.39 1.165-.389.483-1.082.66.806.178 1.233.715.427.537.427 1.391 0 1.085-.693 1.697-.693.613-1.917.613-1.225 0-1.915-.61t-.69-1.69q0-.858.427-1.398.427-.54 1.232-.717zm-.392-1.724q0 .644.344.983.344.338.994.338.655 0 .999-.338.343-.339.343-.983 0-.656-.34-1-.342-.343-1.002-.343-.65 0-.994.346-.344.347-.344.997zM401.374 216.061h1.676v1.423l-1.193 2.315-1.074.006.591-2.32zM410.93 214.998q0-1.15-.365-1.735-.365-.586-1.08-.586-.719 0-1.09.588-.37.589-.37 1.733 0 1.138.37 1.73.371.59 1.09.59.715 0 1.08-.586.366-.585.366-1.734zm-2.905-2.246q.236-.44.652-.676.417-.237.965-.237 1.085 0 1.708.836.623.835.623 2.301 0 1.488-.626 2.334-.626.846-1.716.846-.537 0-.948-.234-.411-.234-.658-.68V218h-.988v-8.357h.988zM416.309 212.677q-.752 0-1.14.586-.386.585-.386 1.735 0 1.144.387 1.732.387.588 1.139.588.757 0 1.144-.588.386-.588.386-1.732 0-1.15-.386-1.735-.387-.586-1.144-.586zm0-.838q1.251 0 1.914.811.664.811.664 2.348 0 1.541-.66 2.35-.662.808-1.918.808-1.252 0-1.913-.809-.66-.808-.66-2.35 0-1.536.66-2.347.661-.81 1.913-.81zM423.309 212.677q-.752 0-1.14.586-.386.585-.386 1.735 0 1.144.387 1.732.387.588 1.139.588.757 0 1.144-.588.386-.588.386-1.732 0-1.15-.386-1.735-.387-.586-1.144-.586zm0-.838q1.251 0 1.914.811.664.811.664 2.348 0 1.541-.66 2.35-.662.808-1.918.808-1.252 0-1.913-.809-.66-.808-.66-2.35 0-1.536.66-2.347.661-.81 1.913-.81zM430.862 215.825q0 .666.244 1.004.245.338.723.338h1.154V218h-1.251q-.886 0-1.372-.567-.486-.566-.486-1.608v-5.441h-1.585v-.774h2.573zM436.374 216.061h1.676v1.423l-1.193 2.315-1.074.006.591-2.32zM445.93 214.998q0-1.15-.365-1.735-.365-.586-1.08-.586-.719 0-1.09.588-.37.589-.37 1.733 0 1.138.37 1.73.371.59 1.09.59.715 0 1.08-.586.366-.585.366-1.734zm-2.905-2.246q.236-.44.652-.676.417-.237.965-.237 1.085 0 1.708.836.623.835.623 2.301 0 1.488-.626 2.334-.626.846-1.716.846-.537 0-.948-.234-.411-.234-.658-.68V218h-.988v-8.357h.988zM451.309 212.677q-.752 0-1.14.586-.386.585-.386 1.735 0 1.144.387 1.732.387.588 1.139.588.757 0 1.144-.588.386-.588.386-1.732 0-1.15-.386-1.735-.387-.586-1.144-.586zm0-.838q1.251 0 1.914.811.664.811.664 2.348 0 1.541-.66 2.35-.662.808-1.918.808-1.252 0-1.913-.809-.66-.808-.66-2.35 0-1.536.66-2.347.661-.81 1.913-.81zM458.309 212.677q-.752 0-1.14.586-.386.585-.386 1.735 0 1.144.387 1.732.387.588 1.139.588.757 0 1.144-.588.386-.588.386-1.732 0-1.15-.386-1.735-.387-.586-1.144-.586zm0-.838q1.251 0 1.914.811.664.811.664 2.348 0 1.541-.66 2.35-.662.808-1.918.808-1.252 0-1.913-.809-.66-.808-.66-2.35 0-1.536.66-2.347.661-.81 1.913-.81zM465.862 215.825q0 .666.244 1.004.245.338.723.338h1.154V218h-1.251q-.886 0-1.372-.567-.486-.566-.486-1.608v-5.441h-1.585v-.774h2.573z"/><path d="M482.893 215.336v-.924h6.837v.924z" fill="#A7D3A9"/><path d="M41.893 207.75v-11.215h5.124v11.215zM48.893 207.75v-11.215h5.124v11.215zM55.893 207.75v-11.215h5.124v11.215zM62.893 207.75v-11.215h5.124v11.215zM69.893 207.75v-11.215h5.124v11.215zM76.893 207.75v-11.215h5.124v11.215zM83.893 207.75v-11.215h5.124v11.215zM90.893 207.75v-11.215h5.124v11.215zM97.893 207.75v-11.215h5.124v11.215zM104.893 207.75v-11.215h5.124v11.215zM111.893 207.75v-11.215h5.124v11.215zM118.893 207.75v-11.215h5.124v11.215zM125.893 207.75v-11.215h5.124v11.215zM132.893 207.75v-11.215h5.124v11.215zM139.893 207.75v-11.215h5.124v11.215zM146.893 207.75v-11.215h5.124v11.215zM153.893 207.75v-11.215h5.124v11.215zM160.893 207.75v-11.215h5.124v11.215zM167.893 207.75v-11.215h5.124v11.215zM174.893 207.75v-11.215h5.124v11.215zM181.893 207.75v-11.215h5.124v11.215zM188.893 207.75v-11.215h5.124v11.215zM195.893 207.75v-11.215h5.124v11.215zM202.893 207.75v-11.215h5.124v11.215zM209.893 207.75v-11.215h5.124v11.215zM216.893 207.75v-11.215h5.124v11.215zM223.893 207.75v-11.215h5.124v11.215zM230.893 207.75v-11.215h5.124v11.215zM237.893 207.75v-11.215h5.124v11.215zM244.893 207.75v-11.215h5.124v11.215zM251.893 207.75v-11.215h5.124v11.215zM258.893 207.75v-11.215h5.124v11.215z" fill="#EAEAEA"/><path d="M281.047 202.723v-3.728h.989v3.728q0 .81.287 1.192.287.381.889.381.698 0 1.069-.491.37-.492.37-1.41v-3.4h.994V205h-.994v-.902q-.263.52-.717.79-.454.268-1.06.268-.924 0-1.375-.604-.452-.605-.452-1.83zM288.697 199.006h2.53v5.226h1.96V205h-4.909v-.768h1.96v-4.458h-1.54zm1.542-2.337h.988v1.247h-.988zM299.645 201.272V205h-.994v-3.728q0-.81-.284-1.192-.285-.381-.892-.381-.693 0-1.066.491-.373.492-.373 1.41v3.4h-.989v-6.016h.989v.903q.263-.516.714-.782.451-.266 1.069-.266.918 0 1.372.605.454.604.454 1.828zM304.298 197.276v1.708h2.245v.768h-2.245v3.266q0 .666.252.93.253.262.881.262h1.112v.79h-1.209q-1.111 0-1.568-.446-.456-.446-.456-1.536v-3.266h-1.606v-.768h1.606v-1.708zM310.003 204.087h3.685V205h-4.872v-.913q1.005-1.058 1.757-1.87.752-.81 1.036-1.143.537-.656.725-1.061.188-.406.188-.83 0-.671-.394-1.053-.395-.381-1.083-.381-.488 0-1.025.177-.538.178-1.14.537v-1.095q.554-.264 1.089-.398.534-.134 1.055-.134 1.176 0 1.893.626.717.625.717 1.64 0 .516-.239 1.032-.239.515-.776 1.138-.3.35-.873.967-.572.618-1.743 1.848zM316.112 196.981h4.06v.913H317.1v1.971q.231-.086.465-.126.233-.04.47-.04 1.246 0 1.976.736.73.735.73 1.992 0 1.268-.765 1.998t-2.092.73q-.639 0-1.168-.085-.529-.086-.948-.258v-1.101q.494.268.994.4t1.02.132q.897 0 1.383-.473t.486-1.343q0-.86-.502-1.337-.502-.478-1.399-.478-.435 0-.849.1-.413.099-.79.297zM327.323 197.158v1q-.339-.2-.72-.304-.381-.105-.795-.105-1.031 0-1.563.776t-.532 2.286q.258-.538.715-.825.456-.287 1.047-.287 1.16 0 1.797.711.636.712.636 2.017 0 1.3-.655 2.014-.655.715-1.842.715-1.397 0-2.047-1.002-.65-1.002-.65-3.155 0-2.03.782-3.097.781-1.066 2.264-1.066.397 0 .795.083.397.083.768.24zm-1.934 3.39q-.693 0-1.09.499-.398.5-.398 1.38 0 .881.398 1.38.397.5 1.09.5.72 0 1.085-.475.365-.476.365-1.405 0-.934-.365-1.407t-1.085-.473z"/><path d="M335.893 202.336v-.924h6.837v.924zM349.893 202.336v-.924h6.837v.924zM363.893 202.336v-.924h6.837v.924zM377.893 202.336v-.924h6.837v.924zM391.893 202.336v-.924h6.837v.924zM405.893 202.336v-.924h6.837v.924zM419.893 202.336v-.924h6.837v.924zM433.893 202.336v-.924h6.837v.924zM447.893 202.336v-.924h6.837v.924zM461.893 202.336v-.924h6.837v.924zM475.893 202.336v-.924h6.837v.924zM492.879 208.32v-5.984h-2.986v-.924h3.845v6.907z" fill="#A7D3A9"/><path d="M41.893 194.75v-11.215h5.124v11.215zM48.893 194.75v-11.215h5.124v11.215zM55.893 194.75v-11.215h5.124v11.215zM62.893 194.75v-11.215h5.124v11.215zM69.893 194.75v-11.215h5.124v11.215zM76.893 194.75v-11.215h5.124v11.215zM83.893 194.75v-11.215h5.124v11.215zM90.893 194.75v-11.215h5.124v11.215zM97.893 194.75v-11.215h5.124v11.215zM104.893 194.75v-11.215h5.124v11.215zM111.893 194.75v-11.215h5.124v11.215zM118.893 194.75v-11.215h5.124v11.215zM125.893 194.75v-11.215h5.124v11.215zM132.893 194.75v-11.215h5.124v11.215zM139.893 194.75v-11.215h5.124v11.215zM146.893 194.75v-11.215h5.124v11.215zM153.893 194.75v-11.215h5.124v11.215zM160.893 194.75v-11.215h5.124v11.215zM167.893 194.75v-11.215h5.124v11.215zM174.893 194.75v-11.215h5.124v11.215zM181.893 194.75v-11.215h5.124v11.215zM188.893 194.75v-11.215h5.124v11.215zM195.893 194.75v-11.215h5.124v11.215zM202.893 194.75v-11.215h5.124v11.215zM209.893 194.75v-11.215h5.124v11.215zM216.893 194.75v-11.215h5.124v11.215zM223.893 194.75v-11.215h5.124v11.215zM230.893 194.75v-11.215h5.124v11.215zM237.893 194.75v-11.215h5.124v11.215zM244.893 194.75v-11.215h5.124v11.215zM251.893 194.75v-11.215h5.124v11.215zM258.893 194.75v-11.215h5.124v11.215z" fill="#EAEAEA"/><path d="M283.77 188.976h-.327q-.865 0-1.303.304-.437.303-.437.905 0 .542.327.843.328.3.908.3.816 0 1.284-.566.467-.567.472-1.566v-.22zm1.918-.408V192h-.994v-.892q-.317.538-.797.793-.481.255-1.168.255-.919 0-1.467-.519-.548-.518-.548-1.388 0-1.004.674-1.525.675-.521 1.98-.521h1.326v-.156q-.005-.72-.365-1.045-.36-.325-1.15-.325-.504 0-1.02.145-.515.145-1.004.425v-.989q.548-.21 1.05-.314.502-.105.975-.105.746 0 1.275.22.53.22.857.661.204.269.29.664.086.394.086 1.184zM293.204 187.225q-.317-.247-.645-.36-.328-.113-.72-.113-.923 0-1.412.58-.489.58-.489 1.676V192h-.994v-6.016h.994v1.177q.247-.64.76-.98.513-.342 1.217-.342.365 0 .682.092.317.091.607.284zM300.204 187.225q-.317-.247-.645-.36-.328-.113-.72-.113-.923 0-1.412.58-.489.58-.489 1.676V192h-.994v-6.016h.994v1.177q.247-.64.76-.98.513-.342 1.217-.342.365 0 .682.092.317.091.607.284zM304.77 188.976h-.327q-.865 0-1.303.304-.437.303-.437.905 0 .542.327.843.328.3.908.3.816 0 1.284-.566.467-.567.472-1.566v-.22zm1.918-.408V192h-.994v-.892q-.317.538-.797.793-.481.255-1.168.255-.919 0-1.467-.519-.548-.518-.548-1.388 0-1.004.674-1.525.675-.521 1.98-.521h1.326v-.156q-.005-.72-.365-1.045-.36-.325-1.15-.325-.504 0-1.02.145-.515.145-1.004.425v-.989q.548-.21 1.05-.314.502-.105.975-.105.746 0 1.275.22.53.22.857.661.204.269.29.664.086.394.086 1.184zM312.608 190.066q-.247.629-.628 1.655-.532 1.418-.714 1.73-.247.418-.618.628-.37.21-.865.21h-.795v-.828h.586q.435 0 .682-.253.247-.252.628-1.305l-2.325-5.919h1.047l1.783 4.705 1.757-4.705h1.047z" fill="#919191"/><path d="M422.879 195.32V181.3h.86v14.02z" fill="#A7D3A9"/><path d="M41.893 181.75v-11.215h5.124v11.215zM48.893 181.75v-11.215h5.124v11.215zM55.893 181.75v-11.215h5.124v11.215zM62.893 181.75v-11.215h5.124v11.215zM69.893 181.75v-11.215h5.124v11.215zM76.893 181.75v-11.215h5.124v11.215zM83.893 181.75v-11.215h5.124v11.215zM90.893 181.75v-11.215h5.124v11.215zM97.893 181.75v-11.215h5.124v11.215zM104.893 181.75v-11.215h5.124v11.215zM111.893 181.75v-11.215h5.124v11.215zM118.893 181.75v-11.215h5.124v11.215zM125.893 181.75v-11.215h5.124v11.215zM132.893 181.75v-11.215h5.124v11.215zM139.893 181.75v-11.215h5.124v11.215zM146.893 181.75v-11.215h5.124v11.215zM153.893 181.75v-11.215h5.124v11.215zM160.893 181.75v-11.215h5.124v11.215zM167.893 181.75v-11.215h5.124v11.215zM174.893 181.75v-11.215h5.124v11.215zM181.893 181.75v-11.215h5.124v11.215zM188.893 181.75v-11.215h5.124v11.215zM195.893 181.75v-11.215h5.124v11.215zM202.893 181.75v-11.215h5.124v11.215zM209.893 181.75v-11.215h5.124v11.215zM216.893 181.75v-11.215h5.124v11.215zM223.893 181.75v-11.215h5.124v11.215zM230.893 181.75v-11.215h5.124v11.215zM237.893 181.75v-11.215h5.124v11.215zM244.893 181.75v-11.215h5.124v11.215zM251.893 181.75v-11.215h5.124v11.215zM258.893 181.75v-11.215h5.124v11.215z" fill="#EAEAEA"/><path d="M281.047 176.723v-3.728h.989v3.728q0 .81.287 1.192.287.381.889.381.698 0 1.069-.491.37-.492.37-1.41v-3.4h.994V179h-.994v-.902q-.263.52-.717.79-.454.268-1.06.268-.924 0-1.375-.604-.452-.605-.452-1.83zM288.697 173.006h2.53v5.226h1.96V179h-4.909v-.768h1.96v-4.458h-1.54zm1.542-2.337h.988v1.247h-.988zM299.645 175.272V179h-.994v-3.728q0-.81-.284-1.192-.285-.381-.892-.381-.693 0-1.066.491-.373.492-.373 1.41v3.4h-.989v-6.016h.989v.903q.263-.516.714-.782.451-.266 1.069-.266.918 0 1.372.605.454.604.454 1.828zM304.298 171.276v1.708h2.245v.768h-2.245v3.266q0 .666.252.93.253.262.881.262h1.112v.79h-1.209q-1.111 0-1.568-.446-.456-.446-.456-1.536v-3.266h-1.606v-.768h1.606v-1.708zM310.003 178.087h3.685V179h-4.872v-.913q1.005-1.058 1.757-1.87.752-.81 1.036-1.143.537-.656.725-1.061.188-.406.188-.83 0-.671-.394-1.053-.395-.381-1.083-.381-.488 0-1.025.177-.538.178-1.14.537v-1.095q.554-.264 1.089-.398.534-.134 1.055-.134 1.176 0 1.893.626.717.625.717 1.64 0 .516-.239 1.032-.239.515-.776 1.138-.3.35-.873.967-.572.618-1.743 1.848zM316.112 170.981h4.06v.913H317.1v1.971q.231-.086.465-.126.233-.04.47-.04 1.246 0 1.976.736.73.735.73 1.992 0 1.268-.765 1.998t-2.092.73q-.639 0-1.168-.085-.529-.086-.948-.258v-1.101q.494.268.994.4t1.02.132q.897 0 1.383-.473t.486-1.343q0-.86-.502-1.337-.502-.478-1.399-.478-.435 0-.849.1-.413.099-.79.297zM327.323 171.158v1q-.339-.2-.72-.304-.381-.105-.795-.105-1.031 0-1.563.776t-.532 2.286q.258-.538.715-.825.456-.287 1.047-.287 1.16 0 1.797.711.636.712.636 2.017 0 1.3-.655 2.014-.655.715-1.842.715-1.397 0-2.047-1.002-.65-1.002-.65-3.155 0-2.03.782-3.097.781-1.066 2.264-1.066.397 0 .795.083.397.083.768.24zm-1.934 3.39q-.693 0-1.09.499-.398.5-.398 1.38 0 .881.398 1.38.397.5 1.09.5.72 0 1.085-.475.365-.476.365-1.405 0-.934-.365-1.407t-1.085-.473z" fill="#919191"/><path d="M41.893 168.75v-11.215h5.124v11.215zM48.893 168.75v-11.215h5.124v11.215zM55.893 168.75v-11.215h5.124v11.215zM62.893 168.75v-11.215h5.124v11.215zM69.893 168.75v-11.215h5.124v11.215zM76.893 168.75v-11.215h5.124v11.215zM83.893 168.75v-11.215h5.124v11.215zM90.893 168.75v-11.215h5.124v11.215zM97.893 168.75v-11.215h5.124v11.215zM104.893 168.75v-11.215h5.124v11.215zM111.893 168.75v-11.215h5.124v11.215zM118.893 168.75v-11.215h5.124v11.215zM125.893 168.75v-11.215h5.124v11.215zM132.893 168.75v-11.215h5.124v11.215zM139.893 168.75v-11.215h5.124v11.215zM146.893 168.75v-11.215h5.124v11.215zM153.893 168.75v-11.215h5.124v11.215zM160.893 168.75v-11.215h5.124v11.215zM167.893 168.75v-11.215h5.124v11.215zM174.893 168.75v-11.215h5.124v11.215zM181.893 168.75v-11.215h5.124v11.215zM188.893 168.75v-11.215h5.124v11.215zM195.893 168.75v-11.215h5.124v11.215zM202.893 168.75v-11.215h5.124v11.215zM209.893 168.75v-11.215h5.124v11.215zM216.893 168.75v-11.215h5.124v11.215zM223.893 168.75v-11.215h5.124v11.215zM230.893 168.75v-11.215h5.124v11.215zM237.893 168.75v-11.215h5.124v11.215zM244.893 168.75v-11.215h5.124v11.215zM251.893 168.75v-11.215h5.124v11.215zM258.893 168.75v-11.215h5.124v11.215z" fill="#EAEAEA"/><path d="M284.93 162.998q0-1.15-.365-1.735-.365-.586-1.08-.586-.719 0-1.09.588-.37.589-.37 1.733 0 1.138.37 1.73.371.59 1.09.59.715 0 1.08-.586.366-.585.366-1.734zm-2.905-2.246q.236-.44.652-.676.417-.237.965-.237 1.085 0 1.708.836.623.835.623 2.301 0 1.488-.626 2.334-.626.846-1.716.846-.537 0-.948-.234-.411-.234-.658-.68V166h-.988v-8.357h.988zM291.608 164.066q-.247.629-.628 1.655-.532 1.418-.714 1.73-.247.418-.618.628-.37.21-.865.21h-.795v-.828h.586q.435 0 .682-.253.247-.252.628-1.305l-2.325-5.919h1.047l1.783 4.705 1.757-4.705h1.047zM297.298 158.276v1.708h2.245v.768h-2.245v3.266q0 .666.252.93.253.262.881.262h1.112v.79h-1.209q-1.111 0-1.568-.446-.456-.446-.456-1.536v-3.266h-1.606v-.768h1.606v-1.708zM307.016 162.498v.483h-4.281v.033q-.043 1.23.47 1.767.513.537 1.447.537.473 0 .989-.15.515-.15 1.1-.457v.983q-.563.23-1.087.346-.524.116-1.012.116-1.402 0-2.192-.84-.79-.841-.79-2.318 0-1.44.774-2.3.774-.859 2.063-.859 1.149 0 1.812.78.664.778.707 1.879zm-.989-.29q-.064-.623-.454-1.077-.389-.454-1.12-.454-.714 0-1.176.473-.462.473-.505 1.063zM313.226 160.194v.967q-.424-.247-.854-.371-.43-.123-.875-.123-.672 0-1.002.217-.33.218-.33.663 0 .403.247.602.247.199 1.23.387l.397.075q.736.14 1.115.558.378.42.378 1.09 0 .892-.634 1.395-.633.502-1.761.502-.446 0-.935-.094-.489-.094-1.058-.282v-1.02q.553.284 1.058.426.505.143.956.143.655 0 1.015-.266.36-.266.36-.744 0-.688-1.316-.95l-.043-.012-.37-.075q-.854-.166-1.246-.561t-.392-1.077q0-.865.585-1.335t1.67-.47q.484 0 .93.089.445.089.875.266zM319.168 161.708q.79.21 1.208.744.42.535.42 1.335 0 1.107-.744 1.738-.744.63-2.06.63-.554 0-1.128-.101-.575-.102-1.128-.296v-1.08q.548.285 1.08.425.531.14 1.058.14.891 0 1.37-.403.477-.403.477-1.16 0-.699-.478-1.11-.478-.41-1.294-.41h-.827v-.892h.827q.746 0 1.165-.328.42-.327.42-.913 0-.617-.39-.948-.39-.33-1.11-.33-.477 0-.988.107-.51.108-1.068.323v-1q.65-.171 1.157-.257.508-.086.9-.086 1.17 0 1.871.588.701.588.701 1.56 0 .661-.367 1.101-.368.44-1.072.623zM324.003 165.087h3.685V166h-4.872v-.913q1.005-1.058 1.757-1.87.752-.81 1.036-1.143.537-.656.725-1.061.188-.406.188-.83 0-.671-.394-1.053-.395-.381-1.083-.381-.488 0-1.025.177-.538.178-1.14.537v-1.095q.554-.264 1.089-.398.534-.134 1.055-.134 1.176 0 1.893.626.717.625.717 1.64 0 .516-.239 1.032-.239.515-.776 1.138-.3.35-.873.967-.572.618-1.743 1.848z"/><path d="M335.893 163.336v-.924h6.837v.924zM349.893 163.336v-.924h6.837v.924zM363.893 163.336v-.924h6.837v.924zM377.893 163.336v-.924h6.837v.924zM391.893 163.336v-.924h6.837v.924zM405.893 163.336v-.924h6.837v.924zM422.879 169.32v-5.984h-2.986v-.924h3.845v6.907z" fill="#A7D3A9"/><path d="M13.005 29.984l-2.154 2.88L13.214 36H12.07l-1.761-2.412L8.552 36H7.408l2.363-3.137-2.153-2.879h1.095l1.596 2.176 1.584-2.176zM13.005 42.984l-2.154 2.88L13.214 49H12.07l-1.761-2.412L8.552 49H7.408l2.363-3.137-2.153-2.879h1.095l1.596 2.176 1.584-2.176zM13.005 55.984l-2.154 2.88L13.214 62H12.07l-1.761-2.412L8.552 62H7.408l2.363-3.137-2.153-2.879h1.095l1.596 2.176 1.584-2.176zM13.005 68.984l-2.154 2.88L13.214 75H12.07l-1.761-2.412L8.552 75H7.408l2.363-3.137-2.153-2.879h1.095l1.596 2.176 1.584-2.176zM13.005 81.984l-2.154 2.88L13.214 88H12.07l-1.761-2.412L8.552 88H7.408l2.363-3.137-2.153-2.879h1.095l1.596 2.176 1.584-2.176zM13.005 94.984l-2.154 2.88L13.214 101H12.07l-1.761-2.412L8.552 101H7.408l2.363-3.137-2.153-2.879h1.095l1.596 2.176 1.584-2.176zM17.309 27.863q1.283 0 1.941 1.047.658 1.048.658 3.1 0 2.051-.658 3.098-.658 1.048-1.941 1.048-1.284 0-1.94-1.048-.655-1.047-.655-3.099 0-2.051.656-3.099.655-1.047 1.939-1.047zm0 7.433q.762 0 1.136-.81.373-.812.373-2.477 0-.886-.108-1.6l-2.556 4.001q.403.886 1.155.886zm0-6.574q-.758 0-1.131.811t-.373 2.476q0 .758.102 1.418l2.503-3.99q-.409-.715-1.101-.715zM24.309 27.863q1.283 0 1.941 1.047.658 1.048.658 3.1 0 2.051-.658 3.098-.658 1.048-1.941 1.048-1.284 0-1.94-1.048-.655-1.047-.655-3.099 0-2.051.656-3.099.655-1.047 1.939-1.047zm0 7.433q.762 0 1.136-.81.373-.812.373-2.477 0-.886-.108-1.6l-2.556 4.001q.403.886 1.155.886zm0-6.574q-.758 0-1.131.811t-.373 2.476q0 .758.102 1.418l2.503-3.99q-.409-.715-1.101-.715zM17.309 40.863q1.283 0 1.941 1.047.658 1.048.658 3.1 0 2.051-.658 3.098-.658 1.048-1.941 1.048-1.284 0-1.94-1.048-.655-1.047-.655-3.099 0-2.051.656-3.099.655-1.047 1.939-1.047zm0 7.433q.762 0 1.136-.81.373-.812.373-2.477 0-.886-.108-1.6l-2.556 4.001q.403.886 1.155.886zm0-6.574q-.758 0-1.131.811t-.373 2.476q0 .758.102 1.418l2.503-3.99q-.409-.715-1.101-.715zM17.309 53.863q1.283 0 1.941 1.047.658 1.048.658 3.1 0 2.051-.658 3.098-.658 1.048-1.941 1.048-1.284 0-1.94-1.048-.655-1.047-.655-3.099 0-2.051.656-3.099.655-1.047 1.939-1.047zm0 7.433q.762 0 1.136-.81.373-.812.373-2.477 0-.886-.108-1.6l-2.556 4.001q.403.886 1.155.886zm0-6.574q-.758 0-1.131.811t-.373 2.476q0 .758.102 1.418l2.503-3.99q-.409-.715-1.101-.715zM17.309 66.863q1.283 0 1.941 1.047.658 1.048.658 3.1 0 2.051-.658 3.098-.658 1.048-1.941 1.048-1.284 0-1.94-1.048-.655-1.047-.655-3.099 0-2.051.656-3.099.655-1.047 1.939-1.047zm0 7.433q.762 0 1.136-.81.373-.812.373-2.477 0-.886-.108-1.6l-2.556 4.001q.403.886 1.155.886zm0-6.574q-.758 0-1.131.811t-.373 2.476q0 .758.102 1.418l2.503-3.99q-.409-.715-1.101-.715zM17.309 79.863q1.283 0 1.941 1.047.658 1.048.658 3.1 0 2.051-.658 3.098-.658 1.048-1.941 1.048-1.284 0-1.94-1.048-.655-1.047-.655-3.099 0-2.051.656-3.099.655-1.047 1.939-1.047zm0 7.433q.762 0 1.136-.81.373-.812.373-2.477 0-.886-.108-1.6l-2.556 4.001q.403.886 1.155.886zm0-6.574q-.758 0-1.131.811t-.373 2.476q0 .758.102 1.418l2.503-3.99q-.409-.715-1.101-.715zM17.309 92.863q1.283 0 1.941 1.047.658 1.048.658 3.1 0 2.051-.658 3.098-.658 1.048-1.941 1.048-1.284 0-1.94-1.048-.655-1.047-.655-3.099 0-2.051.656-3.099.655-1.047 1.939-1.047zm0 7.433q.762 0 1.136-.81.373-.812.373-2.477 0-.886-.108-1.6l-2.556 4.001q.403.886 1.155.886zm0-6.574q-.758 0-1.131.811t-.373 2.476q0 .758.102 1.418l2.503-3.99q-.409-.715-1.101-.715zM22.45 48.092h1.687v-6.058l-2.02.972v-1.042l2.009-.956h1.085v7.084h1.665V49H22.45zM23.003 61.087h3.685V62h-4.872v-.913q1.005-1.058 1.757-1.87.752-.81 1.036-1.143.537-.656.725-1.061.188-.406.188-.83 0-.671-.394-1.053-.395-.381-1.083-.381-.488 0-1.025.177-.538.178-1.14.537v-1.095q.554-.264 1.089-.398.534-.134 1.055-.134 1.176 0 1.893.626.717.625.717 1.64 0 .516-.239 1.032-.239.515-.776 1.138-.3.35-.873.967-.572.618-1.743 1.848zM25.168 70.708q.79.21 1.208.744.42.535.42 1.335 0 1.107-.744 1.738-.744.63-2.06.63-.554 0-1.128-.101-.575-.102-1.128-.296v-1.08q.548.285 1.08.425.531.14 1.058.14.891 0 1.37-.403.477-.403.477-1.16 0-.699-.478-1.11-.478-.41-1.294-.41h-.827v-.892h.827q.746 0 1.165-.328.42-.327.42-.913 0-.617-.39-.948-.39-.33-1.11-.33-.477 0-.988.107-.51.108-1.068.323v-1q.65-.171 1.157-.257.508-.086.9-.086 1.17 0 1.871.588.701.588.701 1.56 0 .661-.367 1.101-.368.44-1.072.623zM24.948 80.97l-2.53 4.237h2.53zm-.177-.989h1.256v5.226h1.07v.88h-1.07V88h-1.08v-1.912h-3.4v-1.026zM22.112 92.981h4.06v.913H23.1v1.971q.231-.086.465-.126.233-.04.47-.04 1.246 0 1.976.736.73.735.73 1.992 0 1.268-.765 1.998t-2.092.73q-.639 0-1.168-.085-.529-.086-.948-.258v-1.101q.494.268.994.4t1.02.132q.897 0 1.383-.473t.486-1.343q0-.86-.502-1.337-.502-.478-1.399-.478-.435 0-.849.1-.413.099-.79.297z" fill="#919191"/><path d="M41.893 103.75V92.535h5.124v11.215zM48.893 103.75V92.535h5.124v11.215zM55.893 103.75V92.535h5.124v11.215zM62.893 103.75V92.535h5.124v11.215zM69.893 103.75V92.535h5.124v11.215zM76.893 103.75V92.535h5.124v11.215zM83.893 103.75V92.535h5.124v11.215zM90.893 103.75V92.535h5.124v11.215zM97.893 103.75V92.535h5.124v11.215zM104.893 103.75V92.535h5.124v11.215zM111.893 103.75V92.535h5.124v11.215zM118.893 103.75V92.535h5.124v11.215zM125.893 103.75V92.535h5.124v11.215zM132.893 103.75V92.535h5.124v11.215zM139.893 103.75V92.535h5.124v11.215zM146.893 103.75V92.535h5.124v11.215zM153.893 103.75V92.535h5.124v11.215zM160.893 103.75V92.535h5.124v11.215zM167.893 103.75V92.535h5.124v11.215zM174.893 103.75V92.535h5.124v11.215zM181.893 103.75V92.535h5.124v11.215zM188.893 103.75V92.535h5.124v11.215zM195.893 103.75V92.535h5.124v11.215zM202.893 103.75V92.535h5.124v11.215zM209.893 103.75V92.535h5.124v11.215zM216.893 103.75V92.535h5.124v11.215zM223.893 103.75V92.535h5.124v11.215zM230.893 103.75V92.535h5.124v11.215zM237.893 103.75V92.535h5.124v11.215zM244.893 103.75V92.535h5.124v11.215zM251.893 103.75V92.535h5.124v11.215zM258.893 103.75V92.535h5.124v11.215z" fill="#EAEAEA"/><path d="M284.93 97.998q0-1.15-.365-1.735-.365-.586-1.08-.586-.719 0-1.09.588-.37.589-.37 1.733 0 1.138.37 1.73.371.59 1.09.59.715 0 1.08-.586.366-.585.366-1.734zm-2.905-2.246q.236-.44.652-.676.417-.237.965-.237 1.085 0 1.708.836.623.835.623 2.301 0 1.488-.626 2.334-.626.846-1.716.846-.537 0-.948-.234-.411-.234-.658-.68V101h-.988v-8.357h.988zM291.608 99.066q-.247.629-.628 1.655-.532 1.418-.714 1.73-.247.418-.618.628-.37.21-.865.21h-.795v-.828h.586q.435 0 .682-.253.247-.252.628-1.305l-2.325-5.919h1.047l1.783 4.705 1.757-4.705h1.047zM297.298 93.276v1.708h2.245v.768h-2.245v3.266q0 .666.252.93.253.262.881.262h1.112v.79h-1.209q-1.111 0-1.568-.446-.456-.446-.456-1.536v-3.266h-1.606v-.768h1.606v-1.708zM307.016 97.498v.483h-4.281v.033q-.043 1.23.47 1.767.513.537 1.447.537.473 0 .989-.15.515-.15 1.1-.457v.983q-.563.23-1.087.346-.524.116-1.012.116-1.402 0-2.192-.84-.79-.841-.79-2.318 0-1.44.774-2.3.774-.859 2.063-.859 1.149 0 1.812.78.664.778.707 1.879zm-.989-.29q-.064-.623-.454-1.077-.389-.454-1.12-.454-.714 0-1.176.473-.462.473-.505 1.063zM313.226 95.194v.967q-.424-.247-.854-.371-.43-.123-.875-.123-.672 0-1.002.217-.33.218-.33.663 0 .403.247.602.247.199 1.23.387l.397.075q.736.14 1.115.558.378.42.378 1.09 0 .892-.634 1.395-.633.502-1.761.502-.446 0-.935-.094-.489-.094-1.058-.282v-1.02q.553.284 1.058.426.505.143.956.143.655 0 1.015-.266.36-.266.36-.744 0-.688-1.316-.95l-.043-.012-.37-.075q-.854-.166-1.246-.561t-.392-1.077q0-.865.585-1.335t1.67-.47q.484 0 .93.089.445.089.875.266zM319.168 96.708q.79.21 1.208.744.42.535.42 1.335 0 1.107-.744 1.738-.744.63-2.06.63-.554 0-1.128-.101-.575-.102-1.128-.296v-1.08q.548.285 1.08.425.531.14 1.058.14.891 0 1.37-.403.477-.403.477-1.16 0-.699-.478-1.11-.478-.41-1.294-.41h-.827v-.892h.827q.746 0 1.165-.328.42-.327.42-.913 0-.617-.39-.948-.39-.33-1.11-.33-.477 0-.988.107-.51.108-1.068.323v-1q.65-.171 1.157-.257.508-.086.9-.086 1.17 0 1.871.588.701.588.701 1.56 0 .661-.367 1.101-.368.44-1.072.623zM324.003 100.087h3.685V101h-4.872v-.913q1.005-1.058 1.757-1.87.752-.81 1.036-1.143.537-.656.725-1.061.188-.406.188-.83 0-.671-.394-1.053-.395-.381-1.083-.381-.488 0-1.025.177-.538.178-1.14.537v-1.095q.554-.264 1.089-.398.534-.134 1.055-.134 1.176 0 1.893.626.717.625.717 1.64 0 .516-.239 1.032-.239.515-.776 1.138-.3.35-.873.967-.572.618-1.743 1.848z" fill="#919191"/><path d="M41.893 90.75V79.535h5.124V90.75zM48.893 90.75V79.535h5.124V90.75zM55.893 90.75V79.535h5.124V90.75zM62.893 90.75V79.535h5.124V90.75zM69.893 90.75V79.535h5.124V90.75zM76.893 90.75V79.535h5.124V90.75zM83.893 90.75V79.535h5.124V90.75zM90.893 90.75V79.535h5.124V90.75zM97.893 90.75V79.535h5.124V90.75zM104.893 90.75V79.535h5.124V90.75zM111.893 90.75V79.535h5.124V90.75zM118.893 90.75V79.535h5.124V90.75zM125.893 90.75V79.535h5.124V90.75zM132.893 90.75V79.535h5.124V90.75zM139.893 90.75V79.535h5.124V90.75zM146.893 90.75V79.535h5.124V90.75zM153.893 90.75V79.535h5.124V90.75zM160.893 90.75V79.535h5.124V90.75zM167.893 90.75V79.535h5.124V90.75zM174.893 90.75V79.535h5.124V90.75zM181.893 90.75V79.535h5.124V90.75zM188.893 90.75V79.535h5.124V90.75zM195.893 90.75V79.535h5.124V90.75zM202.893 90.75V79.535h5.124V90.75zM209.893 90.75V79.535h5.124V90.75zM216.893 90.75V79.535h5.124V90.75zM223.893 90.75V79.535h5.124V90.75zM230.893 90.75V79.535h5.124V90.75zM237.893 90.75V79.535h5.124V90.75zM244.893 90.75V79.535h5.124V90.75zM251.893 90.75V79.535h5.124V90.75zM258.893 90.75V79.535h5.124V90.75z" fill="#EAEAEA"/><path d="M281.047 85.723v-3.728h.989v3.728q0 .81.287 1.192.287.381.889.381.698 0 1.069-.491.37-.492.37-1.41v-3.4h.994V88h-.994v-.902q-.263.52-.717.79-.454.268-1.06.268-.924 0-1.375-.604-.452-.605-.452-1.83zM288.697 82.006h2.53v5.226h1.96V88h-4.909v-.768h1.96v-4.458h-1.54zm1.542-2.337h.988v1.247h-.988zM299.645 84.272V88h-.994v-3.728q0-.81-.284-1.192-.285-.381-.892-.381-.693 0-1.066.491-.373.492-.373 1.41V88h-.989v-6.016h.989v.903q.263-.516.714-.782.451-.266 1.069-.266.918 0 1.372.605.454.604.454 1.828zM304.298 80.276v1.708h2.245v.768h-2.245v3.266q0 .666.252.93.253.262.881.262h1.112V88h-1.209q-1.111 0-1.568-.446-.456-.446-.456-1.536v-3.266h-1.606v-.768h1.606v-1.708zM310.003 87.087h3.685V88h-4.872v-.913q1.005-1.058 1.757-1.87.752-.81 1.036-1.143.537-.656.725-1.061.188-.406.188-.83 0-.671-.394-1.053-.395-.381-1.083-.381-.488 0-1.025.177-.538.178-1.14.537v-1.095q.554-.264 1.089-.398.534-.134 1.055-.134 1.176 0 1.893.626.717.625.717 1.64 0 .516-.239 1.032-.239.515-.776 1.138-.3.35-.873.967-.572.618-1.743 1.848zM316.112 79.981h4.06v.913H317.1v1.971q.231-.086.465-.126.233-.04.47-.04 1.246 0 1.976.736.73.735.73 1.992 0 1.268-.765 1.998t-2.092.73q-.639 0-1.168-.085-.529-.086-.948-.258v-1.101q.494.268.994.4t1.02.132q.897 0 1.383-.473t.486-1.343q0-.86-.502-1.337-.502-.478-1.399-.478-.435 0-.849.1-.413.099-.79.297zM327.323 80.158v1q-.339-.2-.72-.304-.381-.105-.795-.105-1.031 0-1.563.776t-.532 2.286q.258-.538.715-.825.456-.287 1.047-.287 1.16 0 1.797.711.636.712.636 2.017 0 1.3-.655 2.014-.655.715-1.842.715-1.397 0-2.047-1.002-.65-1.002-.65-3.155 0-2.03.782-3.097.781-1.066 2.264-1.066.397 0 .795.083.397.083.768.24zm-1.934 3.39q-.693 0-1.09.499-.398.5-.398 1.38 0 .881.398 1.38.397.5 1.09.5.72 0 1.085-.475.365-.476.365-1.405 0-.934-.365-1.407t-1.085-.473z" fill="#919191"/><path d="M41.893 77.75V66.535h5.124V77.75zM48.893 77.75V66.535h5.124V77.75zM55.893 77.75V66.535h5.124V77.75zM62.893 77.75V66.535h5.124V77.75zM69.893 77.75V66.535h5.124V77.75zM76.893 77.75V66.535h5.124V77.75zM83.893 77.75V66.535h5.124V77.75zM90.893 77.75V66.535h5.124V77.75zM97.893 77.75V66.535h5.124V77.75zM104.893 77.75V66.535h5.124V77.75zM111.893 77.75V66.535h5.124V77.75zM118.893 77.75V66.535h5.124V77.75zM125.893 77.75V66.535h5.124V77.75zM132.893 77.75V66.535h5.124V77.75zM139.893 77.75V66.535h5.124V77.75zM146.893 77.75V66.535h5.124V77.75zM153.893 77.75V66.535h5.124V77.75zM160.893 77.75V66.535h5.124V77.75zM167.893 77.75V66.535h5.124V77.75zM174.893 77.75V66.535h5.124V77.75zM181.893 77.75V66.535h5.124V77.75zM188.893 77.75V66.535h5.124V77.75zM195.893 77.75V66.535h5.124V77.75zM202.893 77.75V66.535h5.124V77.75zM209.893 77.75V66.535h5.124V77.75zM216.893 77.75V66.535h5.124V77.75zM223.893 77.75V66.535h5.124V77.75zM230.893 77.75V66.535h5.124V77.75z" fill="#F99" fill-opacity=".498"/><path d="M237.893 77.75V66.535h5.124V77.75zM244.893 77.75V66.535h5.124V77.75zM251.893 77.75V66.535h5.124V77.75zM258.893 77.75V66.535h5.124V77.75z" fill="#EAEAEA"/><path d="M281.047 72.723v-3.728h.989v3.728q0 .81.287 1.192.287.381.889.381.698 0 1.069-.491.37-.492.37-1.41v-3.4h.994V75h-.994v-.902q-.263.52-.717.79-.454.268-1.06.268-.924 0-1.375-.604-.452-.605-.452-1.83zM288.697 69.006h2.53v5.226h1.96V75h-4.909v-.768h1.96v-4.458h-1.54zm1.542-2.337h.988v1.247h-.988zM299.645 71.272V75h-.994v-3.728q0-.81-.284-1.192-.285-.381-.892-.381-.693 0-1.066.491-.373.492-.373 1.41V75h-.989v-6.016h.989v.903q.263-.516.714-.782.451-.266 1.069-.266.918 0 1.372.605.454.604.454 1.828zM304.298 67.276v1.708h2.245v.768h-2.245v3.266q0 .666.252.93.253.262.881.262h1.112V75h-1.209q-1.111 0-1.568-.446-.456-.446-.456-1.536v-3.266h-1.606v-.768h1.606v-1.708zM311.309 71.192q-.726 0-1.12.405-.395.406-.395 1.147t.4 1.152q.4.411 1.115.411.73 0 1.125-.405.395-.406.395-1.158 0-.736-.4-1.144-.4-.408-1.12-.408zm-.946-.451q-.693-.178-1.082-.66-.39-.484-.39-1.166 0-.957.65-1.518t1.768-.561q1.122 0 1.772.561.65.561.65 1.518 0 .682-.39 1.165-.389.483-1.082.66.806.178 1.233.715.427.537.427 1.391 0 1.085-.693 1.697-.693.613-1.917.613-1.225 0-1.915-.61t-.69-1.69q0-.858.427-1.398.427-.54 1.232-.717zm-.392-1.724q0 .644.344.983.344.338.994.338.655 0 .999-.338.343-.339.343-.983 0-.656-.34-1-.342-.343-1.002-.343-.65 0-.994.346-.344.347-.344.997zM317.374 73.061h1.676v1.423l-1.193 2.315-1.074.006.591-2.32zM323.047 72.723v-3.728h.989v3.728q0 .81.287 1.192.287.381.889.381.698 0 1.069-.491.37-.492.37-1.41v-3.4h.994V75h-.994v-.902q-.263.52-.717.79-.454.268-1.06.268-.924 0-1.375-.604-.452-.605-.452-1.83zM330.697 69.006h2.53v5.226h1.96V75h-4.909v-.768h1.96v-4.458h-1.54zm1.542-2.337h.988v1.247h-.988zM341.645 71.272V75h-.994v-3.728q0-.81-.284-1.192-.285-.381-.892-.381-.693 0-1.066.491-.373.492-.373 1.41V75h-.989v-6.016h.989v.903q.263-.516.714-.782.451-.266 1.069-.266.918 0 1.372.605.454.604.454 1.828zM346.298 67.276v1.708h2.245v.768h-2.245v3.266q0 .666.252.93.253.262.881.262h1.112V75h-1.209q-1.111 0-1.568-.446-.456-.446-.456-1.536v-3.266h-1.606v-.768h1.606v-1.708zM353.309 71.192q-.726 0-1.12.405-.395.406-.395 1.147t.4 1.152q.4.411 1.115.411.73 0 1.125-.405.395-.406.395-1.158 0-.736-.4-1.144-.4-.408-1.12-.408zm-.946-.451q-.693-.178-1.082-.66-.39-.484-.39-1.166 0-.957.65-1.518t1.768-.561q1.122 0 1.772.561.65.561.65 1.518 0 .682-.39 1.165-.389.483-1.082.66.806.178 1.233.715.427.537.427 1.391 0 1.085-.693 1.697-.693.613-1.917.613-1.225 0-1.915-.61t-.69-1.69q0-.858.427-1.398.427-.54 1.232-.717zm-.392-1.724q0 .644.344.983.344.338.994.338.655 0 .999-.338.343-.339.343-.983 0-.656-.34-1-.342-.343-1.002-.343-.65 0-.994.346-.344.347-.344.997zM359.374 73.061h1.676v1.423l-1.193 2.315-1.074.006.591-2.32zM365.047 72.723v-3.728h.989v3.728q0 .81.287 1.192.287.381.889.381.698 0 1.069-.491.37-.492.37-1.41v-3.4h.994V75h-.994v-.902q-.263.52-.717.79-.454.268-1.06.268-.924 0-1.375-.604-.452-.605-.452-1.83zM372.697 69.006h2.53v5.226h1.96V75h-4.909v-.768h1.96v-4.458h-1.54zm1.542-2.337h.988v1.247h-.988zM383.645 71.272V75h-.994v-3.728q0-.81-.284-1.192-.285-.381-.892-.381-.693 0-1.066.491-.373.492-.373 1.41V75h-.989v-6.016h.989v.903q.263-.516.714-.782.451-.266 1.069-.266.918 0 1.372.605.454.604.454 1.828zM388.298 67.276v1.708h2.245v.768h-2.245v3.266q0 .666.252.93.253.262.881.262h1.112V75h-1.209q-1.111 0-1.568-.446-.456-.446-.456-1.536v-3.266h-1.606v-.768h1.606v-1.708zM395.309 71.192q-.726 0-1.12.405-.395.406-.395 1.147t.4 1.152q.4.411 1.115.411.73 0 1.125-.405.395-.406.395-1.158 0-.736-.4-1.144-.4-.408-1.12-.408zm-.946-.451q-.693-.178-1.082-.66-.39-.484-.39-1.166 0-.957.65-1.518t1.768-.561q1.122 0 1.772.561.65.561.65 1.518 0 .682-.39 1.165-.389.483-1.082.66.806.178 1.233.715.427.537.427 1.391 0 1.085-.693 1.697-.693.613-1.917.613-1.225 0-1.915-.61t-.69-1.69q0-.858.427-1.398.427-.54 1.232-.717zm-.392-1.724q0 .644.344.983.344.338.994.338.655 0 .999-.338.343-.339.343-.983 0-.656-.34-1-.342-.343-1.002-.343-.65 0-.994.346-.344.347-.344.997zM401.374 73.061h1.676v1.423l-1.193 2.315-1.074.006.591-2.32zM410.93 71.998q0-1.15-.365-1.735-.365-.586-1.08-.586-.719 0-1.09.588-.37.589-.37 1.733 0 1.138.37 1.73.371.59 1.09.59.715 0 1.08-.586.366-.585.366-1.734zm-2.905-2.246q.236-.44.652-.676.417-.237.965-.237 1.085 0 1.708.836.623.835.623 2.301 0 1.488-.626 2.334-.626.846-1.716.846-.537 0-.948-.234-.411-.234-.658-.68V75h-.988v-8.357h.988zM416.309 69.677q-.752 0-1.14.586-.386.585-.386 1.735 0 1.144.387 1.732.387.588 1.139.588.757 0 1.144-.588.386-.588.386-1.732 0-1.15-.386-1.735-.387-.586-1.144-.586zm0-.838q1.251 0 1.914.811.664.811.664 2.348 0 1.541-.66 2.35-.662.808-1.918.808-1.252 0-1.913-.809-.66-.808-.66-2.35 0-1.536.66-2.347.661-.81 1.913-.81zM423.309 69.677q-.752 0-1.14.586-.386.585-.386 1.735 0 1.144.387 1.732.387.588 1.139.588.757 0 1.144-.588.386-.588.386-1.732 0-1.15-.386-1.735-.387-.586-1.144-.586zm0-.838q1.251 0 1.914.811.664.811.664 2.348 0 1.541-.66 2.35-.662.808-1.918.808-1.252 0-1.913-.809-.66-.808-.66-2.35 0-1.536.66-2.347.661-.81 1.913-.81zM430.862 72.825q0 .666.244 1.004.245.338.723.338h1.154V75h-1.251q-.886 0-1.372-.567-.486-.566-.486-1.608v-5.441h-1.585v-.774h2.573z" fill="#919191"/><path d="M41.893 64.75V53.535h5.124V64.75zM48.893 64.75V53.535h5.124V64.75zM55.893 64.75V53.535h5.124V64.75zM62.893 64.75V53.535h5.124V64.75zM69.893 64.75V53.535h5.124V64.75zM76.893 64.75V53.535h5.124V64.75zM83.893 64.75V53.535h5.124V64.75zM90.893 64.75V53.535h5.124V64.75zM97.893 64.75V53.535h5.124V64.75zM104.893 64.75V53.535h5.124V64.75zM111.893 64.75V53.535h5.124V64.75zM118.893 64.75V53.535h5.124V64.75zM125.893 64.75V53.535h5.124V64.75zM132.893 64.75V53.535h5.124V64.75zM139.893 64.75V53.535h5.124V64.75zM146.893 64.75V53.535h5.124V64.75zM153.893 64.75V53.535h5.124V64.75zM160.893 64.75V53.535h5.124V64.75zM167.893 64.75V53.535h5.124V64.75zM174.893 64.75V53.535h5.124V64.75zM181.893 64.75V53.535h5.124V64.75zM188.893 64.75V53.535h5.124V64.75zM195.893 64.75V53.535h5.124V64.75zM202.893 64.75V53.535h5.124V64.75zM209.893 64.75V53.535h5.124V64.75zM216.893 64.75V53.535h5.124V64.75zM223.893 64.75V53.535h5.124V64.75zM230.893 64.75V53.535h5.124V64.75zM237.893 64.75V53.535h5.124V64.75zM244.893 64.75V53.535h5.124V64.75zM251.893 64.75V53.535h5.124V64.75zM258.893 64.75V53.535h5.124V64.75z" fill="#EAEAEA"/><path d="M283.77 58.976h-.327q-.865 0-1.303.304-.437.303-.437.905 0 .542.327.843.328.3.908.3.816 0 1.284-.566.467-.567.472-1.566v-.22zm1.918-.408V62h-.994v-.892q-.317.538-.797.793-.481.255-1.168.255-.919 0-1.467-.519-.548-.518-.548-1.388 0-1.004.674-1.525.675-.521 1.98-.521h1.326v-.156q-.005-.72-.365-1.045-.36-.325-1.15-.325-.504 0-1.02.145-.515.145-1.004.425v-.989q.548-.21 1.05-.314.502-.105.975-.105.746 0 1.275.22.53.22.857.661.204.269.29.664.086.394.086 1.184zM293.204 57.225q-.317-.247-.645-.36-.328-.113-.72-.113-.923 0-1.412.58-.489.58-.489 1.676V62h-.994v-6.016h.994v1.177q.247-.64.76-.98.513-.342 1.217-.342.365 0 .682.092.317.091.607.284zM300.204 57.225q-.317-.247-.645-.36-.328-.113-.72-.113-.923 0-1.412.58-.489.58-.489 1.676V62h-.994v-6.016h.994v1.177q.247-.64.76-.98.513-.342 1.217-.342.365 0 .682.092.317.091.607.284zM304.77 58.976h-.327q-.865 0-1.303.304-.437.303-.437.905 0 .542.327.843.328.3.908.3.816 0 1.284-.566.467-.567.472-1.566v-.22zm1.918-.408V62h-.994v-.892q-.317.538-.797.793-.481.255-1.168.255-.919 0-1.467-.519-.548-.518-.548-1.388 0-1.004.674-1.525.675-.521 1.98-.521h1.326v-.156q-.005-.72-.365-1.045-.36-.325-1.15-.325-.504 0-1.02.145-.515.145-1.004.425v-.989q.548-.21 1.05-.314.502-.105.975-.105.746 0 1.275.22.53.22.857.661.204.269.29.664.086.394.086 1.184zM312.608 60.066q-.247.629-.628 1.655-.532 1.418-.714 1.73-.247.418-.618.628-.37.21-.865.21h-.795v-.828h.586q.435 0 .682-.253.247-.252.628-1.305l-2.325-5.919h1.047l1.783 4.705 1.757-4.705h1.047z" fill="#919191"/><path d="M41.893 51.75V40.535h5.124V51.75zM48.893 51.75V40.535h5.124V51.75zM55.893 51.75V40.535h5.124V51.75zM62.893 51.75V40.535h5.124V51.75zM69.893 51.75V40.535h5.124V51.75zM76.893 51.75V40.535h5.124V51.75zM83.893 51.75V40.535h5.124V51.75zM90.893 51.75V40.535h5.124V51.75zM97.893 51.75V40.535h5.124V51.75zM104.893 51.75V40.535h5.124V51.75zM111.893 51.75V40.535h5.124V51.75zM118.893 51.75V40.535h5.124V51.75zM125.893 51.75V40.535h5.124V51.75zM132.893 51.75V40.535h5.124V51.75zM139.893 51.75V40.535h5.124V51.75zM146.893 51.75V40.535h5.124V51.75zM153.893 51.75V40.535h5.124V51.75zM160.893 51.75V40.535h5.124V51.75zM167.893 51.75V40.535h5.124V51.75zM174.893 51.75V40.535h5.124V51.75zM181.893 51.75V40.535h5.124V51.75zM188.893 51.75V40.535h5.124V51.75zM195.893 51.75V40.535h5.124V51.75zM202.893 51.75V40.535h5.124V51.75zM209.893 51.75V40.535h5.124V51.75zM216.893 51.75V40.535h5.124V51.75zM223.893 51.75V40.535h5.124V51.75zM230.893 51.75V40.535h5.124V51.75zM237.893 51.75V40.535h5.124V51.75zM244.893 51.75V40.535h5.124V51.75zM251.893 51.75V40.535h5.124V51.75zM258.893 51.75V40.535h5.124V51.75z" fill="#EAEAEA"/><path d="M281.047 46.723v-3.728h.989v3.728q0 .81.287 1.192.287.381.889.381.698 0 1.069-.491.37-.492.37-1.41v-3.4h.994V49h-.994v-.902q-.263.52-.717.79-.454.268-1.06.268-.924 0-1.375-.604-.452-.605-.452-1.83zM288.697 43.006h2.53v5.226h1.96V49h-4.909v-.768h1.96v-4.458h-1.54zm1.542-2.337h.988v1.247h-.988zM299.645 45.272V49h-.994v-3.728q0-.81-.284-1.192-.285-.381-.892-.381-.693 0-1.066.491-.373.492-.373 1.41V49h-.989v-6.016h.989v.903q.263-.516.714-.782.451-.266 1.069-.266.918 0 1.372.605.454.604.454 1.828zM304.298 41.276v1.708h2.245v.768h-2.245v3.266q0 .666.252.93.253.262.881.262h1.112V49h-1.209q-1.111 0-1.568-.446-.456-.446-.456-1.536v-3.266h-1.606v-.768h1.606v-1.708zM310.003 48.087h3.685V49h-4.872v-.913q1.005-1.058 1.757-1.87.752-.81 1.036-1.143.537-.656.725-1.061.188-.406.188-.83 0-.671-.394-1.053-.395-.381-1.083-.381-.488 0-1.025.177-.538.178-1.14.537v-1.095q.554-.264 1.089-.398.534-.134 1.055-.134 1.176 0 1.893.626.717.625.717 1.64 0 .516-.239 1.032-.239.515-.776 1.138-.3.35-.873.967-.572.618-1.743 1.848zM316.112 40.981h4.06v.913H317.1v1.971q.231-.086.465-.126.233-.04.47-.04 1.246 0 1.976.736.73.735.73 1.992 0 1.268-.765 1.998t-2.092.73q-.639 0-1.168-.085-.529-.086-.948-.258v-1.101q.494.268.994.4t1.02.132q.897 0 1.383-.473t.486-1.343q0-.86-.502-1.337-.502-.478-1.399-.478-.435 0-.849.1-.413.099-.79.297zM327.323 41.158v1q-.339-.2-.72-.304-.381-.105-.795-.105-1.031 0-1.563.776t-.532 2.286q.258-.538.715-.825.456-.287 1.047-.287 1.16 0 1.797.711.636.712.636 2.017 0 1.3-.655 2.014-.655.715-1.842.715-1.397 0-2.047-1.002-.65-1.002-.65-3.155 0-2.03.782-3.097.781-1.066 2.264-1.066.397 0 .795.083.397.083.768.24zm-1.934 3.39q-.693 0-1.09.499-.398.5-.398 1.38 0 .881.398 1.38.397.5 1.09.5.72 0 1.085-.475.365-.476.365-1.405 0-.934-.365-1.407t-1.085-.473z" fill="#919191"/><path d="M41.893 38.75V27.535h5.124V38.75zM48.893 38.75V27.535h5.124V38.75zM55.893 38.75V27.535h5.124V38.75zM62.893 38.75V27.535h5.124V38.75zM69.893 38.75V27.535h5.124V38.75zM76.893 38.75V27.535h5.124V38.75zM83.893 38.75V27.535h5.124V38.75zM90.893 38.75V27.535h5.124V38.75zM97.893 38.75V27.535h5.124V38.75zM104.893 38.75V27.535h5.124V38.75zM111.893 38.75V27.535h5.124V38.75zM118.893 38.75V27.535h5.124V38.75zM125.893 38.75V27.535h5.124V38.75zM132.893 38.75V27.535h5.124V38.75zM139.893 38.75V27.535h5.124V38.75zM146.893 38.75V27.535h5.124V38.75zM153.893 38.75V27.535h5.124V38.75zM160.893 38.75V27.535h5.124V38.75zM167.893 38.75V27.535h5.124V38.75zM174.893 38.75V27.535h5.124V38.75zM181.893 38.75V27.535h5.124V38.75zM188.893 38.75V27.535h5.124V38.75zM195.893 38.75V27.535h5.124V38.75zM202.893 38.75V27.535h5.124V38.75zM209.893 38.75V27.535h5.124V38.75zM216.893 38.75V27.535h5.124V38.75zM223.893 38.75V27.535h5.124V38.75zM230.893 38.75V27.535h5.124V38.75zM237.893 38.75V27.535h5.124V38.75zM244.893 38.75V27.535h5.124V38.75zM251.893 38.75V27.535h5.124V38.75z" fill="#F99" fill-opacity=".498"/><path d="M258.893 38.75V27.535h5.124V38.75z" fill="#EAEAEA"/><path d="M284.93 32.998q0-1.15-.365-1.735-.365-.586-1.08-.586-.719 0-1.09.588-.37.589-.37 1.733 0 1.138.37 1.73.371.59 1.09.59.715 0 1.08-.586.366-.585.366-1.734zm-2.905-2.246q.236-.44.652-.676.417-.237.965-.237 1.085 0 1.708.836.623.835.623 2.301 0 1.488-.626 2.334-.626.846-1.716.846-.537 0-.948-.234-.411-.234-.658-.68V36h-.988v-8.357h.988zM290.309 30.677q-.752 0-1.14.586-.386.585-.386 1.735 0 1.144.387 1.732.387.588 1.139.588.757 0 1.144-.588.386-.588.386-1.732 0-1.15-.386-1.735-.387-.586-1.144-.586zm0-.838q1.251 0 1.914.811.664.811.664 2.348 0 1.541-.66 2.35-.662.808-1.918.808-1.252 0-1.913-.809-.66-.808-.66-2.35 0-1.536.66-2.347.661-.81 1.913-.81zM297.309 30.677q-.752 0-1.14.586-.386.585-.386 1.735 0 1.144.387 1.732.387.588 1.139.588.757 0 1.144-.588.386-.588.386-1.732 0-1.15-.386-1.735-.387-.586-1.144-.586zm0-.838q1.251 0 1.914.811.664.811.664 2.348 0 1.541-.66 2.35-.662.808-1.918.808-1.252 0-1.913-.809-.66-.808-.66-2.35 0-1.536.66-2.347.661-.81 1.913-.81zM304.862 33.825q0 .666.244 1.004.245.338.723.338h1.154V36h-1.251q-.886 0-1.372-.567-.486-.566-.486-1.608v-5.441h-1.585v-.774h2.573z" fill="#919191"/><path d="M47.226 4.194v.967q-.424-.247-.854-.371-.43-.123-.875-.123-.672 0-1.002.217-.33.218-.33.663 0 .403.247.602.247.199 1.23.387l.397.075q.736.14 1.115.558.378.42.378 1.09 0 .892-.634 1.395-.633.502-1.761.502-.446 0-.935-.094-.489-.094-1.058-.282V8.76q.553.284 1.058.426.505.143.956.143.655 0 1.015-.266.36-.266.36-.744 0-.688-1.316-.95l-.043-.012-.37-.075q-.854-.166-1.246-.561t-.392-1.077q0-.865.585-1.335t1.67-.47q.484 0 .93.089.445.089.875.266zM52.298 2.276v1.708h2.245v.768h-2.245v3.266q0 .666.252.93.253.262.881.262h1.112V10h-1.209q-1.111 0-1.568-.446-.456-.446-.456-1.536V4.752h-1.606v-.768h1.606V2.276zM59.309 4.677q-.752 0-1.14.586-.386.585-.386 1.735 0 1.144.387 1.732.387.588 1.139.588.757 0 1.144-.588.386-.588.386-1.732 0-1.15-.386-1.735-.387-.586-1.144-.586zm0-.838q1.251 0 1.914.811.664.811.664 2.348 0 1.541-.66 2.35-.662.808-1.918.808-1.252 0-1.913-.809-.66-.808-.66-2.35 0-1.536.66-2.347.661-.81 1.913-.81zM69.204 5.225q-.317-.247-.645-.36-.328-.113-.72-.113-.923 0-1.412.58-.489.58-.489 1.676V10h-.994V3.984h.994v1.177q.247-.64.76-.98.513-.342 1.217-.342.365 0 .682.092.317.091.607.284zM73.77 6.976h-.327q-.865 0-1.303.304-.437.303-.437.905 0 .542.327.843.328.3.908.3.816 0 1.284-.566.467-.567.472-1.566v-.22zm1.918-.408V10h-.994v-.892q-.317.538-.797.793-.481.255-1.168.255-.919 0-1.467-.519-.548-.518-.548-1.388 0-1.004.674-1.525.674-.521 1.98-.521h1.326v-.156q-.005-.72-.365-1.045-.36-.325-1.15-.325-.504 0-1.02.145-.515.145-1.004.425v-.989q.548-.21 1.05-.314.502-.105.975-.105.746 0 1.275.22.53.22.857.661.204.269.29.664.086.394.086 1.184zM81.608 6.944q0-1.112-.362-1.69-.363-.577-1.056-.577-.725 0-1.106.578-.381.577-.381 1.689t.384 1.694q.384.583 1.114.583.682 0 1.045-.585.362-.586.362-1.692zm.989 2.67q0 1.353-.64 2.051-.639.698-1.88.698-.408 0-.853-.075-.446-.075-.892-.22v-.978q.526.247.956.366.43.118.79.118.8 0 1.165-.435t.365-1.38V9.043q-.236.505-.644.752-.408.247-.994.247-1.053 0-1.68-.843-.63-.844-.63-2.256 0-1.418.63-2.261.627-.844 1.68-.844.58 0 .983.231t.655.715v-.78h.989zM90.016 6.498v.483h-4.281v.033q-.043 1.23.47 1.767.513.537 1.447.537.473 0 .989-.15.515-.15 1.1-.457v.983q-.563.23-1.087.346-.524.116-1.012.116-1.402 0-2.192-.84-.79-.841-.79-2.318 0-1.44.774-2.3.774-.859 2.063-.859 1.149 0 1.812.78.664.778.707 1.879zm-.989-.29q-.064-.623-.454-1.077-.389-.454-1.12-.454-.714 0-1.176.473-.462.473-.505 1.063zM101.862 7.825q0 .666.244 1.004.245.338.723.338h1.154V10h-1.251q-.886 0-1.372-.567-.486-.566-.486-1.608V2.384h-1.585V1.61h2.573zM108.77 6.976h-.327q-.865 0-1.303.304-.437.303-.437.905 0 .542.327.843.328.3.908.3.816 0 1.284-.566.467-.567.472-1.566v-.22zm1.918-.408V10h-.994v-.892q-.317.538-.797.793-.481.255-1.168.255-.919 0-1.467-.519-.548-.518-.548-1.388 0-1.004.674-1.525.674-.521 1.98-.521h1.326v-.156q-.005-.72-.365-1.045-.36-.325-1.15-.325-.504 0-1.02.145-.515.145-1.004.425v-.989q.548-.21 1.05-.314.502-.105.975-.105.746 0 1.275.22.53.22.857.661.204.269.29.664.086.394.086 1.184zM116.608 8.066q-.247.629-.628 1.655-.532 1.418-.714 1.73-.247.418-.618.628-.37.21-.865.21h-.795v-.828h.586q.435 0 .682-.253.247-.252.628-1.305l-2.325-5.919h1.047l1.783 4.705 1.757-4.705h1.047zM122.309 4.677q-.752 0-1.14.586-.386.585-.386 1.735 0 1.144.387 1.732.387.588 1.139.588.757 0 1.144-.588.386-.588.386-1.732 0-1.15-.386-1.735-.387-.586-1.144-.586zm0-.838q1.251 0 1.914.811.664.811.664 2.348 0 1.541-.66 2.35-.662.808-1.918.808-1.252 0-1.913-.809-.66-.808-.66-2.35 0-1.536.66-2.347.661-.81 1.913-.81zM127.047 7.723V3.995h.989v3.728q0 .81.287 1.192.287.381.889.381.698 0 1.069-.491.37-.492.37-1.41v-3.4h.994V10h-.994v-.902q-.263.52-.717.79-.454.268-1.06.268-.924 0-1.375-.604-.452-.605-.452-1.83zM136.298 2.276v1.708h2.245v.768h-2.245v3.266q0 .666.252.93.253.262.881.262h1.112V10h-1.209q-1.111 0-1.568-.446-.456-.446-.456-1.536V4.752h-1.606v-.768h1.606V2.276zM280.537 3.984h1.026l1.746 5.05 1.75-5.05h1.026L283.948 10h-1.273zM290.77 6.976h-.327q-.865 0-1.303.304-.437.303-.437.905 0 .542.327.843.328.3.908.3.816 0 1.284-.566.467-.567.472-1.566v-.22zm1.918-.408V10h-.994v-.892q-.317.538-.797.793-.481.255-1.168.255-.919 0-1.467-.519-.548-.518-.548-1.388 0-1.004.674-1.525.675-.521 1.98-.521h1.326v-.156q-.005-.72-.365-1.045-.36-.325-1.15-.325-.504 0-1.02.145-.515.145-1.004.425v-.989q.548-.21 1.05-.314.502-.105.975-.105.746 0 1.275.22.53.22.857.661.204.269.29.664.086.394.086 1.184zM300.204 5.225q-.317-.247-.645-.36-.328-.113-.72-.113-.923 0-1.412.58-.489.58-.489 1.676V10h-.994V3.984h.994v1.177q.247-.64.76-.98.513-.342 1.217-.342.365 0 .682.092.317.091.607.284zM302.697 4.006h2.53v5.226h1.96V10h-4.909v-.768h1.96V4.774h-1.54zm1.542-2.337h.988v1.247h-.988zM311.77 6.976h-.327q-.865 0-1.303.304-.437.303-.437.905 0 .542.327.843.328.3.908.3.816 0 1.284-.566.467-.567.472-1.566v-.22zm1.918-.408V10h-.994v-.892q-.317.538-.797.793-.481.255-1.168.255-.919 0-1.467-.519-.548-.518-.548-1.388 0-1.004.674-1.525.675-.521 1.98-.521h1.326v-.156q-.005-.72-.365-1.045-.36-.325-1.15-.325-.504 0-1.02.145-.515.145-1.004.425v-.989q.548-.21 1.05-.314.502-.105.975-.105.746 0 1.275.22.53.22.857.661.204.269.29.664.086.394.086 1.184zM319.93 6.998q0-1.15-.365-1.735-.365-.586-1.08-.586-.719 0-1.09.588-.37.589-.37 1.733 0 1.138.37 1.73.371.59 1.09.59.715 0 1.08-.586.366-.585.366-1.734zm-2.905-2.246q.236-.44.652-.676.417-.237.965-.237 1.085 0 1.708.836.623.835.623 2.301 0 1.488-.626 2.334-.626.846-1.716.846-.537 0-.948-.234-.411-.234-.658-.68V10h-.988V1.643h.988zM325.862 7.825q0 .666.244 1.004.245.338.723.338h1.154V10h-1.251q-.886 0-1.372-.567-.486-.566-.486-1.608V2.384h-1.585V1.61h2.573zM335.016 6.498v.483h-4.281v.033q-.043 1.23.47 1.767.513.537 1.447.537.473 0 .989-.15.515-.15 1.1-.457v.983q-.563.23-1.087.346-.524.116-1.012.116-1.402 0-2.192-.84-.79-.841-.79-2.318 0-1.44.774-2.3.774-.859 2.063-.859 1.149 0 1.812.78.664.778.707 1.879zm-.989-.29q-.064-.623-.454-1.077-.389-.454-1.12-.454-.714 0-1.176.473-.462.473-.505 1.063zM346.298 2.276v1.708h2.245v.768h-2.245v3.266q0 .666.252.93.253.262.881.262h1.112V10h-1.209q-1.111 0-1.568-.446-.456-.446-.456-1.536V4.752h-1.606v-.768h1.606V2.276zM354.608 8.066q-.247.629-.628 1.655-.532 1.418-.714 1.73-.247.418-.618.628-.37.21-.865.21h-.795v-.828h.586q.435 0 .682-.253.247-.252.628-1.305l-2.325-5.919h1.047l1.783 4.705 1.757-4.705h1.047zM359.014 9.243v3.045h-.993V3.984h.993v.768q.247-.445.658-.679.411-.234.948-.234 1.09 0 1.71.844.621.843.621 2.336 0 1.466-.623 2.302-.623.835-1.708.835-.548 0-.959-.234-.41-.234-.647-.68zm2.9-2.245q0-1.15-.362-1.735-.363-.586-1.077-.586-.72 0-1.09.588-.37.589-.37 1.733 0 1.138.37 1.73.37.59 1.09.59.714 0 1.077-.586.363-.585.363-1.734zM370.016 6.498v.483h-4.281v.033q-.043 1.23.47 1.767.513.537 1.447.537.473 0 .989-.15.515-.15 1.1-.457v.983q-.563.23-1.087.346-.524.116-1.012.116-1.402 0-2.192-.84-.79-.841-.79-2.318 0-1.44.774-2.3.774-.859 2.063-.859 1.149 0 1.812.78.664.778.707 1.879zm-.989-.29q-.064-.623-.454-1.077-.389-.454-1.12-.454-.714 0-1.176.473-.462.473-.505 1.063z"/></svg>