<svg xmlns="http://www.w3.org/2000/svg" width="498" height="274"><path d="M3.309 27.863q1.283 0 1.941 1.047.658 1.048.658 3.1 0 2.051-.658 3.098-.658 1.048-1.941 1.048-1.284 0-1.94-1.048-.655-1.047-.655-3.099 0-2.051.656-3.099.655-1.047 1.939-1.047zm0 7.433q.762 0 1.136-.81.373-.812.373-2.477 0-.886-.108-1.6L2.154 34.41q.403.886 1.155.886zm0-6.574q-.758 0-1.131.811t-.373 2.476q0 .758.102 1.418l2.503-3.99q-.409-.715-1.101-.715zm0 12.141q1.283 0 1.941 1.047.658 1.048.658 3.1 0 2.051-.658 3.098-.658 1.048-1.941 1.048-1.284 0-1.94-1.048-.655-1.047-.655-3.099 0-2.051.656-3.099.655-1.047 1.939-1.047zm0 7.433q.762 0 1.136-.81.373-.812.373-2.477 0-.886-.108-1.6L2.154 47.41q.403.886 1.155.886zm0-6.574q-.758 0-1.131.811t-.373 2.476q0 .758.102 1.418l2.503-3.99q-.409-.715-1.101-.715zm0 12.141q1.283 0 1.941 1.047.658 1.048.658 3.1 0 2.051-.658 3.098-.658 1.048-1.941 1.048-1.284 0-1.94-1.048-.655-1.047-.655-3.099 0-2.051.656-3.099.655-1.047 1.939-1.047zm0 7.433q.762 0 1.136-.81.373-.812.373-2.477 0-.886-.108-1.6L2.154 60.41q.403.886 1.155.886zm0-6.574q-.758 0-1.131.811t-.373 2.476q0 .758.102 1.418l2.503-3.99q-.409-.715-1.101-.715zm0 12.141q1.283 0 1.941 1.047.658 1.048.658 3.1 0 2.051-.658 3.098-.658 1.048-1.941 1.048-1.284 0-1.94-1.048-.655-1.047-.655-3.099 0-2.051.656-3.099.655-1.047 1.939-1.047zm0 7.433q.762 0 1.136-.81.373-.812.373-2.477 0-.886-.108-1.6L2.154 73.41q.403.886 1.155.886zm0-6.574q-.758 0-1.131.811t-.373 2.476q0 .758.102 1.418l2.503-3.99q-.409-.715-1.101-.715zm0 12.141q1.283 0 1.941 1.047.658 1.048.658 3.1 0 2.051-.658 3.098-.658 1.048-1.941 1.048-1.284 0-1.94-1.048-.655-1.047-.655-3.099 0-2.051.656-3.099.655-1.047 1.939-1.047zm0 7.433q.762 0 1.136-.81.373-.812.373-2.477 0-.886-.108-1.6L2.154 86.41q.403.886 1.155.886zm0-6.574q-.758 0-1.131.811t-.373 2.476q0 .758.102 1.418l2.503-3.99q-.409-.715-1.101-.715zm0 12.141q1.283 0 1.941 1.047.658 1.048.658 3.1 0 2.051-.658 3.098-.658 1.048-1.941 1.048-1.284 0-1.94-1.048-.655-1.047-.655-3.099 0-2.051.656-3.099.655-1.047 1.939-1.047zm0 7.433q.762 0 1.136-.81.373-.812.373-2.477 0-.886-.108-1.6L2.154 99.41q.403.886 1.155.886zm0-6.574q-.758 0-1.131.811t-.373 2.476q0 .758.102 1.418l2.503-3.99q-.409-.715-1.101-.715zm0 64.141q1.283 0 1.941 1.047.658 1.048.658 3.1 0 2.051-.658 3.098-.658 1.048-1.941 1.048-1.284 0-1.94-1.048-.655-1.047-.655-3.099 0-2.051.656-3.099.655-1.047 1.939-1.047zm0 7.433q.762 0 1.136-.81.373-.812.373-2.477 0-.886-.108-1.6l-2.556 4.001q.403.886 1.155.886zm0-6.574q-.758 0-1.131.811t-.373 2.476q0 .758.102 1.418l2.503-3.99q-.409-.715-1.101-.715zm0 12.141q1.283 0 1.941 1.047.658 1.048.658 3.1 0 2.051-.658 3.098-.658 1.048-1.941 1.048-1.284 0-1.94-1.048-.655-1.047-.655-3.099 0-2.051.656-3.099.655-1.047 1.939-1.047zm0 7.433q.762 0 1.136-.81.373-.812.373-2.477 0-.886-.108-1.6l-2.556 4.001q.403.886 1.155.886zm0-6.574q-.758 0-1.131.811t-.373 2.476q0 .758.102 1.418l2.503-3.99q-.409-.715-1.101-.715zm0 12.141q1.283 0 1.941 1.047.658 1.048.658 3.1 0 2.051-.658 3.098-.658 1.048-1.941 1.048-1.284 0-1.94-1.048-.655-1.047-.655-3.099 0-2.051.656-3.099.655-1.047 1.939-1.047zm0 7.433q.762 0 1.136-.81.373-.812.373-2.477 0-.886-.108-1.6l-2.556 4.001q.403.886 1.155.886zm0-6.574q-.758 0-1.131.811t-.373 2.476q0 .758.102 1.418l2.503-3.99q-.409-.715-1.101-.715zm0 12.141q1.283 0 1.941 1.047.658 1.048.658 3.1 0 2.051-.658 3.098-.658 1.048-1.941 1.048-1.284 0-1.94-1.048-.655-1.047-.655-3.099 0-2.051.656-3.099.655-1.047 1.939-1.047zm0 7.433q.762 0 1.136-.81.373-.812.373-2.477 0-.886-.108-1.6l-2.556 4.001q.403.886 1.155.886zm0-6.574q-.758 0-1.131.811t-.373 2.476q0 .758.102 1.418l2.503-3.99q-.409-.715-1.101-.715zm0 12.141q1.283 0 1.941 1.047.658 1.048.658 3.1 0 2.051-.658 3.098-.658 1.048-1.941 1.048-1.284 0-1.94-1.048-.655-1.047-.655-3.099 0-2.051.656-3.099.655-1.047 1.939-1.047zm0 7.433q.762 0 1.136-.81.373-.812.373-2.477 0-.886-.108-1.6l-2.556 4.001q.403.886 1.155.886zm0-6.574q-.758 0-1.131.811t-.373 2.476q0 .758.102 1.418l2.503-3.99q-.409-.715-1.101-.715z" fill="#919191"/><path d="M30.879 254.336V246.3h.86v7.111h2.991v.924z" fill="#A7D3A9"/><path d="M47.226 264.194v.967q-.424-.247-.854-.371-.43-.123-.875-.123-.672 0-1.002.217-.33.218-.33.663 0 .403.247.602.247.199 1.23.387l.397.075q.736.14 1.115.558.378.42.378 1.09 0 .892-.634 1.395-.633.502-1.761.502-.446 0-.935-.094-.489-.094-1.058-.282v-1.02q.553.284 1.058.426.505.143.956.143.655 0 1.015-.266.36-.266.36-.744 0-.688-1.316-.95l-.043-.012-.37-.075q-.854-.166-1.246-.561t-.392-1.077q0-.865.585-1.335t1.67-.47q.484 0 .93.089.445.089.875.266zm5.636 3.631q0 .666.244 1.004.245.338.723.338h1.154V270h-1.251q-.886 0-1.372-.567-.486-.566-.486-1.608v-5.441h-1.585v-.774h2.573zm6.447-3.148q-.752 0-1.14.586-.386.585-.386 1.735 0 1.144.387 1.732.387.588 1.139.588.757 0 1.144-.588.386-.588.386-1.732 0-1.15-.386-1.735-.387-.586-1.144-.586zm0-.838q1.251 0 1.914.811.664.811.664 2.348 0 1.541-.66 2.35-.662.808-1.918.808-1.252 0-1.913-.809-.66-.808-.66-2.35 0-1.536.66-2.347.661-.81 1.913-.81zm6.989-1.563v1.708h2.245v.768h-2.245v3.266q0 .666.252.93.253.262.881.262h1.112v.79h-1.209q-1.111 0-1.568-.446-.456-.446-.456-1.536v-3.266h-1.606v-.768h1.606v-1.708zm14.011-.413q1.283 0 1.941 1.047.658 1.048.658 3.1 0 2.051-.658 3.098-.658 1.048-1.941 1.048-1.284 0-1.94-1.048-.655-1.047-.655-3.099 0-2.051.656-3.099.655-1.047 1.939-1.047zm0 7.433q.762 0 1.136-.81.373-.812.373-2.477 0-.886-.108-1.6l-2.556 4.001q.403.886 1.155.886zm0-6.574q-.758 0-1.131.811t-.373 2.476q0 .758.102 1.418l2.503-3.99q-.409-.715-1.101-.715zm9.696 1.262l-2.154 2.88L90.214 270H89.07l-1.761-2.412L85.552 270h-1.144l2.363-3.137-2.153-2.879h1.095l1.596 2.176 1.584-2.176zm4.304-2.121q1.283 0 1.941 1.047.658 1.048.658 3.1 0 2.051-.658 3.098-.658 1.048-1.941 1.048-1.284 0-1.94-1.048-.655-1.047-.655-3.099 0-2.051.656-3.099.655-1.047 1.939-1.047zm0 7.433q.762 0 1.136-.81.373-.812.373-2.477 0-.886-.108-1.6l-2.556 4.001q.403.886 1.155.886zm0-6.574q-.758 0-1.131.811t-.373 2.476q0 .758.102 1.418l2.503-3.99q-.409-.715-1.101-.715zm4.803-.741h4.06v.913H100.1v1.971q.231-.086.465-.126.233-.04.47-.04 1.246 0 1.976.736.73.735.73 1.992 0 1.268-.765 1.998t-2.092.73q-.639 0-1.168-.085-.529-.086-.948-.258v-1.101q.494.268.994.4t1.02.132q.897 0 1.383-.473t.486-1.343q0-.86-.502-1.337-.502-.478-1.399-.478-.435 0-.849.1-.413.099-.79.297zm18.533 4.291V270h-.994v-3.728q0-.81-.284-1.192-.285-.381-.892-.381-.693 0-1.066.491-.373.492-.373 1.41v3.4h-.989v-6.016h.989v.903q.263-.516.714-.782.451-.266 1.069-.266.918 0 1.372.605.454.604.454 1.828zm4.664-1.595q-.752 0-1.14.586-.386.585-.386 1.735 0 1.144.387 1.732.387.588 1.139.588.757 0 1.144-.588.386-.588.386-1.732 0-1.15-.386-1.735-.387-.586-1.144-.586zm0-.838q1.251 0 1.914.811.664.811.664 2.348 0 1.541-.66 2.35-.662.808-1.918.808-1.252 0-1.913-.809-.66-.808-.66-2.35 0-1.536.66-2.347.661-.81 1.913-.81zm14.553 3.986q0 .666.244 1.004.245.338.723.338h1.154V270h-1.251q-.886 0-1.372-.567-.486-.566-.486-1.608v-5.441h-1.585v-.774h2.573zm6.447-3.148q-.752 0-1.14.586-.386.585-.386 1.735 0 1.144.387 1.732.387.588 1.139.588.757 0 1.144-.588.386-.588.386-1.732 0-1.15-.386-1.735-.387-.586-1.144-.586zm0-.838q1.251 0 1.914.811.664.811.664 2.348 0 1.541-.66 2.35-.662.808-1.918.808-1.252 0-1.913-.809-.66-.808-.66-2.35 0-1.536.66-2.347.661-.81 1.913-.81zm9.336 2.433V270h-.994v-3.728q0-.81-.284-1.192-.285-.381-.892-.381-.693 0-1.066.491-.373.492-.373 1.41v3.4h-.989v-6.016h.989v.903q.263-.516.714-.782.451-.266 1.069-.266.918 0 1.372.605.454.604.454 1.828zm5.963.672q0-1.112-.362-1.69-.363-.577-1.056-.577-.725 0-1.106.578-.381.577-.381 1.689t.384 1.694q.384.583 1.114.583.682 0 1.045-.585.362-.586.362-1.692zm.989 2.67q0 1.353-.64 2.051-.639.698-1.88.698-.408 0-.853-.075-.446-.075-.892-.22v-.978q.526.247.956.366.43.118.79.118.8 0 1.165-.435t.365-1.38v-.716q-.236.505-.644.752-.408.247-.994.247-1.053 0-1.68-.843-.63-.844-.63-2.256 0-1.418.63-2.261.627-.844 1.68-.844.58 0 .983.231t.655.715v-.78h.989zm7.419-3.116v.483h-4.281v.033q-.043 1.23.47 1.767.513.537 1.447.537.473 0 .989-.15.515-.15 1.1-.457v.983q-.563.23-1.087.346-.524.116-1.012.116-1.402 0-2.192-.84-.79-.841-.79-2.318 0-1.44.774-2.3.774-.859 2.063-.859 1.149 0 1.812.78.664.778.707 1.879zm-.989-.29q-.064-.623-.454-1.077-.389-.454-1.12-.454-.714 0-1.176.473-.462.473-.505 1.063zm8.177-.983q-.317-.247-.645-.36-.328-.113-.72-.113-.923 0-1.412.58-.489.58-.489 1.676V270h-.994v-6.016h.994v1.177q.247-.64.76-.98.513-.342 1.217-.342.365 0 .682.092.317.091.607.284zm13.441 1.047V270h-.994v-3.728q0-.81-.284-1.192-.285-.381-.892-.381-.693 0-1.066.491-.373.492-.373 1.41v3.4h-.989v-6.016h.989v.903q.263-.516.714-.782.451-.266 1.069-.266.918 0 1.372.605.454.604.454 1.828zm7.371.226v.483h-4.281v.033q-.043 1.23.47 1.767.513.537 1.447.537.473 0 .989-.15.515-.15 1.1-.457v.983q-.563.23-1.087.346-.524.116-1.012.116-1.402 0-2.192-.84-.79-.841-.79-2.318 0-1.44.774-2.3.774-.859 2.063-.859 1.149 0 1.812.78.664.778.707 1.879zm-.989-.29q-.064-.623-.454-1.077-.389-.454-1.12-.454-.714 0-1.176.473-.462.473-.505 1.063zm7.989.29v.483h-4.281v.033q-.043 1.23.47 1.767.513.537 1.447.537.473 0 .989-.15.515-.15 1.1-.457v.983q-.563.23-1.087.346-.524.116-1.012.116-1.402 0-2.192-.84-.79-.841-.79-2.318 0-1.44.774-2.3.774-.859 2.063-.859 1.149 0 1.812.78.664.778.707 1.879zm-.989-.29q-.064-.623-.454-1.077-.389-.454-1.12-.454-.714 0-1.176.473-.462.473-.505 1.063zm6.581-1.456v-3.11h.989V270h-.989v-.757q-.247.445-.658.68-.41.233-.948.233-1.09 0-1.716-.846-.625-.846-.625-2.334 0-1.466.628-2.301.628-.836 1.713-.836.543 0 .956.234.414.234.65.68zm-2.905 2.246q0 1.149.365 1.734.365.586 1.08.586.714 0 1.087-.59.373-.592.373-1.73 0-1.144-.373-1.733-.373-.588-1.088-.588-.714 0-1.08.586-.364.585-.364 1.735zm11.313-.5v.483h-4.281v.033q-.043 1.23.47 1.767.513.537 1.447.537.473 0 .989-.15.515-.15 1.1-.457v.983q-.563.23-1.087.346-.524.116-1.012.116-1.402 0-2.192-.84-.79-.841-.79-2.318 0-1.44.774-2.3.774-.859 2.063-.859 1.149 0 1.812.78.664.778.707 1.879zm-.989-.29q-.064-.623-.454-1.077-.389-.454-1.12-.454-.714 0-1.176.473-.462.473-.505 1.063zm6.581-1.456v-3.11h.989V270h-.989v-.757q-.247.445-.658.68-.41.233-.948.233-1.09 0-1.716-.846-.625-.846-.625-2.334 0-1.466.628-2.301.628-.836 1.713-.836.543 0 .956.234.414.234.65.68zm-2.905 2.246q0 1.149.365 1.734.365.586 1.08.586.714 0 1.087-.59.373-.592.373-1.73 0-1.144-.373-1.733-.373-.588-1.088-.588-.714 0-1.08.586-.364.585-.364 1.735z"/><path d="M41.893 254.336v-.924h6.837v.924zm14 0v-.924h6.837v.924zm14 0v-.924h6.837v.924zm14 0v-.924h6.837v.924zm14 0v-.924h6.837v.924zm14 0v-.924h6.837v.924zm14 0v-.924h6.837v.924zm14 0v-.924h6.837v.924zm14 0v-.924h6.837v.924zm14 0v-.924h6.837v.924zm14 0v-.924h6.837v.924zm14 0v-.924h6.837v.924zm14 0v-.924h6.837v.924zm14 0v-.924h6.837v.924zm14 0v-.924h6.837v.924zm14 0v-.924h6.837v.924zm14 0v-.924h2.986v-7.111h.86v8.035z" fill="#A7D3A9"/><path d="M41.893 246.75v-11.215h5.124v11.215zm7 0v-11.215h5.124v11.215zm7 0v-11.215h5.124v11.215zm7 0v-11.215h5.124v11.215zm7 0v-11.215h5.124v11.215zm7 0v-11.215h5.124v11.215zm7 0v-11.215h5.124v11.215zm7 0v-11.215h5.124v11.215zm7 0v-11.215h5.124v11.215zm7 0v-11.215h5.124v11.215zm7 0v-11.215h5.124v11.215zm7 0v-11.215h5.124v11.215zm7 0v-11.215h5.124v11.215zm7 0v-11.215h5.124v11.215zm7 0v-11.215h5.124v11.215zm7 0v-11.215h5.124v11.215zm7 0v-11.215h5.124v11.215zm7 0v-11.215h5.124v11.215zm7 0v-11.215h5.124v11.215zm7 0v-11.215h5.124v11.215zm7 0v-11.215h5.124v11.215zm7 0v-11.215h5.124v11.215zm7 0v-11.215h5.124v11.215zm7 0v-11.215h5.124v11.215zm7 0v-11.215h5.124v11.215zm7 0v-11.215h5.124v11.215zm7 0v-11.215h5.124v11.215zm7 0v-11.215h5.124v11.215zm7 0v-11.215h5.124v11.215zm7 0v-11.215h5.124v11.215zm7 0v-11.215h5.124v11.215zm7 0v-11.215h5.124v11.215z" fill="#A7D3A9" fill-opacity=".8"/><path d="M13.005 159.984l-2.154 2.88L13.214 166H12.07l-1.761-2.412L8.552 166H7.408l2.363-3.137-2.153-2.879h1.095l1.596 2.176 1.584-2.176zm0 13l-2.154 2.88L13.214 179H12.07l-1.761-2.412L8.552 179H7.408l2.363-3.137-2.153-2.879h1.095l1.596 2.176 1.584-2.176zm0 13l-2.154 2.88L13.214 192H12.07l-1.761-2.412L8.552 192H7.408l2.363-3.137-2.153-2.879h1.095l1.596 2.176 1.584-2.176zm0 13l-2.154 2.88L13.214 205H12.07l-1.761-2.412L8.552 205H7.408l2.363-3.137-2.153-2.879h1.095l1.596 2.176 1.584-2.176zm0 13l-2.154 2.88L13.214 218H12.07l-1.761-2.412L8.552 218H7.408l2.363-3.137-2.153-2.879h1.095l1.596 2.176 1.584-2.176zm4.304-54.121q1.283 0 1.941 1.047.658 1.048.658 3.1 0 2.051-.658 3.098-.658 1.048-1.941 1.048-1.284 0-1.94-1.048-.655-1.047-.655-3.099 0-2.051.656-3.099.655-1.047 1.939-1.047zm0 7.433q.762 0 1.136-.81.373-.812.373-2.477 0-.886-.108-1.6l-2.556 4.001q.403.886 1.155.886zm0-6.574q-.758 0-1.131.811t-.373 2.476q0 .758.102 1.418l2.503-3.99q-.409-.715-1.101-.715zm7-.859q1.283 0 1.941 1.047.658 1.048.658 3.1 0 2.051-.658 3.098-.658 1.048-1.941 1.048-1.284 0-1.94-1.048-.655-1.047-.655-3.099 0-2.051.656-3.099.655-1.047 1.939-1.047zm0 7.433q.762 0 1.136-.81.373-.812.373-2.477 0-.886-.108-1.6l-2.556 4.001q.403.886 1.155.886zm0-6.574q-.758 0-1.131.811t-.373 2.476q0 .758.102 1.418l2.503-3.99q-.409-.715-1.101-.715zm-7 12.141q1.283 0 1.941 1.047.658 1.048.658 3.1 0 2.051-.658 3.098-.658 1.048-1.941 1.048-1.284 0-1.94-1.048-.655-1.047-.655-3.099 0-2.051.656-3.099.655-1.047 1.939-1.047zm0 7.433q.762 0 1.136-.81.373-.812.373-2.477 0-.886-.108-1.6l-2.556 4.001q.403.886 1.155.886zm0-6.574q-.758 0-1.131.811t-.373 2.476q0 .758.102 1.418l2.503-3.99q-.409-.715-1.101-.715zm0 12.141q1.283 0 1.941 1.047.658 1.048.658 3.1 0 2.051-.658 3.098-.658 1.048-1.941 1.048-1.284 0-1.94-1.048-.655-1.047-.655-3.099 0-2.051.656-3.099.655-1.047 1.939-1.047zm0 7.433q.762 0 1.136-.81.373-.812.373-2.477 0-.886-.108-1.6l-2.556 4.001q.403.886 1.155.886zm0-6.574q-.758 0-1.131.811t-.373 2.476q0 .758.102 1.418l2.503-3.99q-.409-.715-1.101-.715zm0 12.141q1.283 0 1.941 1.047.658 1.048.658 3.1 0 2.051-.658 3.098-.658 1.048-1.941 1.048-1.284 0-1.94-1.048-.655-1.047-.655-3.099 0-2.051.656-3.099.655-1.047 1.939-1.047zm0 7.433q.762 0 1.136-.81.373-.812.373-2.477 0-.886-.108-1.6l-2.556 4.001q.403.886 1.155.886zm0-6.574q-.758 0-1.131.811t-.373 2.476q0 .758.102 1.418l2.503-3.99q-.409-.715-1.101-.715zm0 12.141q1.283 0 1.941 1.047.658 1.048.658 3.1 0 2.051-.658 3.098-.658 1.048-1.941 1.048-1.284 0-1.94-1.048-.655-1.047-.655-3.099 0-2.051.656-3.099.655-1.047 1.939-1.047zm0 7.433q.762 0 1.136-.81.373-.812.373-2.477 0-.886-.108-1.6l-2.556 4.001q.403.886 1.155.886zm0-6.574q-.758 0-1.131.811t-.373 2.476q0 .758.102 1.418l2.503-3.99q-.409-.715-1.101-.715zm5.141-32.63h1.687v-6.058l-2.02.972v-1.042l2.009-.956h1.085v7.084h1.665V179H22.45zm.553 12.995h3.685V192h-4.872v-.913q1.005-1.058 1.757-1.87.752-.81 1.036-1.143.537-.656.725-1.061.188-.406.188-.83 0-.671-.394-1.053-.395-.381-1.083-.381-.488 0-1.025.177-.538.178-1.14.537v-1.095q.554-.264 1.089-.398.534-.134 1.055-.134 1.176 0 1.893.626.717.625.717 1.64 0 .516-.239 1.032-.239.515-.776 1.138-.3.35-.873.967-.572.618-1.743 1.848zm2.165 9.621q.79.21 1.208.744.42.535.42 1.335 0 1.107-.744 1.738-.744.63-2.06.63-.554 0-1.128-.101-.575-.102-1.128-.296v-1.08q.548.285 1.08.425.531.14 1.058.14.891 0 1.37-.403.477-.403.477-1.16 0-.699-.478-1.11-.478-.41-1.294-.41h-.827v-.892h.827q.746 0 1.165-.328.42-.327.42-.913 0-.617-.39-.948-.39-.33-1.11-.33-.477 0-.988.107-.51.108-1.068.323v-1q.65-.171 1.157-.257.508-.086.9-.086 1.17 0 1.871.588.701.588.701 1.56 0 .661-.367 1.101-.368.44-1.072.623zm-.22 10.262l-2.53 4.237h2.53zm-.177-.989h1.256v5.226h1.07v.88h-1.07V218h-1.08v-1.912h-3.4v-1.026z" fill="#919191"/><path d="M41.893 220.75v-11.215h5.124v11.215zm7 0v-11.215h5.124v11.215zm7 0v-11.215h5.124v11.215zm7 0v-11.215h5.124v11.215zm7 0v-11.215h5.124v11.215zm7 0v-11.215h5.124v11.215zm7 0v-11.215h5.124v11.215zm7 0v-11.215h5.124v11.215zm7 0v-11.215h5.124v11.215zm7 0v-11.215h5.124v11.215zm7 0v-11.215h5.124v11.215zm7 0v-11.215h5.124v11.215zm7 0v-11.215h5.124v11.215zm7 0v-11.215h5.124v11.215zm7 0v-11.215h5.124v11.215zm7 0v-11.215h5.124v11.215zm7 0v-11.215h5.124v11.215zm7 0v-11.215h5.124v11.215zm7 0v-11.215h5.124v11.215zm7 0v-11.215h5.124v11.215zm7 0v-11.215h5.124v11.215zm7 0v-11.215h5.124v11.215zm7 0v-11.215h5.124v11.215zm7 0v-11.215h5.124v11.215zm7 0v-11.215h5.124v11.215zm7 0v-11.215h5.124v11.215zm7 0v-11.215h5.124v11.215z" fill="#F99" fill-opacity=".498"/><path d="M230.893 220.75v-11.215h5.124v11.215zm7 0v-11.215h5.124v11.215zm7 0v-11.215h5.124v11.215zm7 0v-11.215h5.124v11.215zm7 0v-11.215h5.124v11.215z" fill="#EAEAEA"/><path d="M281.047 215.723v-3.728h.989v3.728q0 .81.287 1.192.287.381.889.381.698 0 1.069-.491.37-.492.37-1.41v-3.4h.994V218h-.994v-.902q-.263.52-.717.79-.454.268-1.06.268-.924 0-1.375-.604-.452-.605-.452-1.83zm7.65-3.717h2.53v5.226h1.96V218h-4.909v-.768h1.96v-4.458h-1.54zm1.542-2.337h.988v1.247h-.988zm9.406 4.603V218h-.994v-3.728q0-.81-.284-1.192-.285-.381-.892-.381-.693 0-1.066.491-.373.492-.373 1.41v3.4h-.989v-6.016h.989v.903q.263-.516.714-.782.451-.266 1.069-.266.918 0 1.372.605.454.604.454 1.828zm4.653-3.996v1.708h2.245v.768h-2.245v3.266q0 .666.252.93.253.262.881.262h1.112v.79h-1.209q-1.111 0-1.568-.446-.456-.446-.456-1.536v-3.266h-1.606v-.768h1.606v-1.708zm7.011 3.916q-.726 0-1.12.405-.395.406-.395 1.147t.4 1.152q.4.411 1.115.411.73 0 1.125-.405.395-.406.395-1.158 0-.736-.4-1.144-.4-.408-1.12-.408zm-.946-.451q-.693-.178-1.082-.66-.39-.484-.39-1.166 0-.957.65-1.518t1.768-.561q1.122 0 1.772.561.65.561.65 1.518 0 .682-.39 1.165-.389.483-1.082.66.806.178 1.233.715.427.537.427 1.391 0 1.085-.693 1.697-.693.613-1.917.613-1.225 0-1.915-.61t-.69-1.69q0-.858.427-1.398.427-.54 1.232-.717zm-.392-1.724q0 .644.344.983.344.338.994.338.655 0 .999-.338.343-.339.343-.983 0-.656-.34-1-.342-.343-1.002-.343-.65 0-.994.346-.344.347-.344.997zm7.403 4.044h1.676v1.423l-1.193 2.315-1.074.006.591-2.32zm5.673-.338v-3.728h.989v3.728q0 .81.287 1.192.287.381.889.381.698 0 1.069-.491.37-.492.37-1.41v-3.4h.994V218h-.994v-.902q-.263.52-.717.79-.454.268-1.06.268-.924 0-1.375-.604-.452-.605-.452-1.83zm7.65-3.717h2.53v5.226h1.96V218h-4.909v-.768h1.96v-4.458h-1.54zm1.542-2.337h.988v1.247h-.988zm9.406 4.603V218h-.994v-3.728q0-.81-.284-1.192-.285-.381-.892-.381-.693 0-1.066.491-.373.492-.373 1.41v3.4h-.989v-6.016h.989v.903q.263-.516.714-.782.451-.266 1.069-.266.918 0 1.372.605.454.604.454 1.828zm4.653-3.996v1.708h2.245v.768h-2.245v3.266q0 .666.252.93.253.262.881.262h1.112v.79h-1.209q-1.111 0-1.568-.446-.456-.446-.456-1.536v-3.266h-1.606v-.768h1.606v-1.708zm7.011 3.916q-.726 0-1.12.405-.395.406-.395 1.147t.4 1.152q.4.411 1.115.411.73 0 1.125-.405.395-.406.395-1.158 0-.736-.4-1.144-.4-.408-1.12-.408zm-.946-.451q-.693-.178-1.082-.66-.39-.484-.39-1.166 0-.957.65-1.518t1.768-.561q1.122 0 1.772.561.65.561.65 1.518 0 .682-.39 1.165-.389.483-1.082.66.806.178 1.233.715.427.537.427 1.391 0 1.085-.693 1.697-.693.613-1.917.613-1.225 0-1.915-.61t-.69-1.69q0-.858.427-1.398.427-.54 1.232-.717zm-.392-1.724q0 .644.344.983.344.338.994.338.655 0 .999-.338.343-.339.343-.983 0-.656-.34-1-.342-.343-1.002-.343-.65 0-.994.346-.344.347-.344.997zm7.403 4.044h1.676v1.423l-1.193 2.315-1.074.006.591-2.32zm5.673-.338v-3.728h.989v3.728q0 .81.287 1.192.287.381.889.381.698 0 1.069-.491.37-.492.37-1.41v-3.4h.994V218h-.994v-.902q-.263.52-.717.79-.454.268-1.06.268-.924 0-1.375-.604-.452-.605-.452-1.83zm7.65-3.717h2.53v5.226h1.96V218h-4.909v-.768h1.96v-4.458h-1.54zm1.542-2.337h.988v1.247h-.988zm9.406 4.603V218h-.994v-3.728q0-.81-.284-1.192-.285-.381-.892-.381-.693 0-1.066.491-.373.492-.373 1.41v3.4h-.989v-6.016h.989v.903q.263-.516.714-.782.451-.266 1.069-.266.918 0 1.372.605.454.604.454 1.828zm4.653-3.996v1.708h2.245v.768h-2.245v3.266q0 .666.252.93.253.262.881.262h1.112v.79h-1.209q-1.111 0-1.568-.446-.456-.446-.456-1.536v-3.266h-1.606v-.768h1.606v-1.708zm7.011 3.916q-.726 0-1.12.405-.395.406-.395 1.147t.4 1.152q.4.411 1.115.411.73 0 1.125-.405.395-.406.395-1.158 0-.736-.4-1.144-.4-.408-1.12-.408zm-.946-.451q-.693-.178-1.082-.66-.39-.484-.39-1.166 0-.957.65-1.518t1.768-.561q1.122 0 1.772.561.65.561.65 1.518 0 .682-.39 1.165-.389.483-1.082.66.806.178 1.233.715.427.537.427 1.391 0 1.085-.693 1.697-.693.613-1.917.613-1.225 0-1.915-.61t-.69-1.69q0-.858.427-1.398.427-.54 1.232-.717zm-.392-1.724q0 .644.344.983.344.338.994.338.655 0 .999-.338.343-.339.343-.983 0-.656-.34-1-.342-.343-1.002-.343-.65 0-.994.346-.344.347-.344.997zm7.403 4.044h1.676v1.423l-1.193 2.315-1.074.006.591-2.32zm9.556-1.063q0-1.15-.365-1.735-.365-.586-1.08-.586-.719 0-1.09.588-.37.589-.37 1.733 0 1.138.37 1.73.371.59 1.09.59.715 0 1.08-.586.366-.585.366-1.734zm-2.905-2.246q.236-.44.652-.676.417-.237.965-.237 1.085 0 1.708.836.623.835.623 2.301 0 1.488-.626 2.334-.626.846-1.716.846-.537 0-.948-.234-.411-.234-.658-.68V218h-.988v-8.357h.988zm8.284-.075q-.752 0-1.14.586-.386.585-.386 1.735 0 1.144.387 1.732.387.588 1.139.588.757 0 1.144-.588.386-.588.386-1.732 0-1.15-.386-1.735-.387-.586-1.144-.586zm0-.838q1.251 0 1.914.811.664.811.664 2.348 0 1.541-.66 2.35-.662.808-1.918.808-1.252 0-1.913-.809-.66-.808-.66-2.35 0-1.536.66-2.347.661-.81 1.913-.81zm7 .838q-.752 0-1.14.586-.386.585-.386 1.735 0 1.144.387 1.732.387.588 1.139.588.757 0 1.144-.588.386-.588.386-1.732 0-1.15-.386-1.735-.387-.586-1.144-.586zm0-.838q1.251 0 1.914.811.664.811.664 2.348 0 1.541-.66 2.35-.662.808-1.918.808-1.252 0-1.913-.809-.66-.808-.66-2.35 0-1.536.66-2.347.661-.81 1.913-.81zm7.553 3.986q0 .666.244 1.004.245.338.723.338h1.154V218h-1.251q-.886 0-1.372-.567-.486-.566-.486-1.608v-5.441h-1.585v-.774h2.573zm5.512.236h1.676v1.423l-1.193 2.315-1.074.006.591-2.32zm9.556-1.063q0-1.15-.365-1.735-.365-.586-1.08-.586-.719 0-1.09.588-.37.589-.37 1.733 0 1.138.37 1.73.371.59 1.09.59.715 0 1.08-.586.366-.585.366-1.734zm-2.905-2.246q.236-.44.652-.676.417-.237.965-.237 1.085 0 1.708.836.623.835.623 2.301 0 1.488-.626 2.334-.626.846-1.716.846-.537 0-.948-.234-.411-.234-.658-.68V218h-.988v-8.357h.988zm8.284-.075q-.752 0-1.14.586-.386.585-.386 1.735 0 1.144.387 1.732.387.588 1.139.588.757 0 1.144-.588.386-.588.386-1.732 0-1.15-.386-1.735-.387-.586-1.144-.586zm0-.838q1.251 0 1.914.811.664.811.664 2.348 0 1.541-.66 2.35-.662.808-1.918.808-1.252 0-1.913-.809-.66-.808-.66-2.35 0-1.536.66-2.347.661-.81 1.913-.81zm7 .838q-.752 0-1.14.586-.386.585-.386 1.735 0 1.144.387 1.732.387.588 1.139.588.757 0 1.144-.588.386-.588.386-1.732 0-1.15-.386-1.735-.387-.586-1.144-.586zm0-.838q1.251 0 1.914.811.664.811.664 2.348 0 1.541-.66 2.35-.662.808-1.918.808-1.252 0-1.913-.809-.66-.808-.66-2.35 0-1.536.66-2.347.661-.81 1.913-.81zm7.553 3.986q0 .666.244 1.004.245.338.723.338h1.154V218h-1.251q-.886 0-1.372-.567-.486-.566-.486-1.608v-5.441h-1.585v-.774h2.573z"/><path d="M482.893 215.336v-.924h6.837v.924z" fill="#A7D3A9"/><path d="M41.893 207.75v-11.215h5.124v11.215zm7 0v-11.215h5.124v11.215zm7 0v-11.215h5.124v11.215zm7 0v-11.215h5.124v11.215zm7 0v-11.215h5.124v11.215zm7 0v-11.215h5.124v11.215zm7 0v-11.215h5.124v11.215zm7 0v-11.215h5.124v11.215zm7 0v-11.215h5.124v11.215zm7 0v-11.215h5.124v11.215zm7 0v-11.215h5.124v11.215zm7 0v-11.215h5.124v11.215zm7 0v-11.215h5.124v11.215zm7 0v-11.215h5.124v11.215zm7 0v-11.215h5.124v11.215zm7 0v-11.215h5.124v11.215zm7 0v-11.215h5.124v11.215zm7 0v-11.215h5.124v11.215zm7 0v-11.215h5.124v11.215zm7 0v-11.215h5.124v11.215zm7 0v-11.215h5.124v11.215zm7 0v-11.215h5.124v11.215zm7 0v-11.215h5.124v11.215zm7 0v-11.215h5.124v11.215zm7 0v-11.215h5.124v11.215zm7 0v-11.215h5.124v11.215zm7 0v-11.215h5.124v11.215zm7 0v-11.215h5.124v11.215zm7 0v-11.215h5.124v11.215zm7 0v-11.215h5.124v11.215zm7 0v-11.215h5.124v11.215zm7 0v-11.215h5.124v11.215z" fill="#EAEAEA"/><path d="M281.047 202.723v-3.728h.989v3.728q0 .81.287 1.192.287.381.889.381.698 0 1.069-.491.37-.492.37-1.41v-3.4h.994V205h-.994v-.902q-.263.52-.717.79-.454.268-1.06.268-.924 0-1.375-.604-.452-.605-.452-1.83zm7.65-3.717h2.53v5.226h1.96V205h-4.909v-.768h1.96v-4.458h-1.54zm1.542-2.337h.988v1.247h-.988zm9.406 4.603V205h-.994v-3.728q0-.81-.284-1.192-.285-.381-.892-.381-.693 0-1.066.491-.373.492-.373 1.41v3.4h-.989v-6.016h.989v.903q.263-.516.714-.782.451-.266 1.069-.266.918 0 1.372.605.454.604.454 1.828zm4.653-3.996v1.708h2.245v.768h-2.245v3.266q0 .666.252.93.253.262.881.262h1.112v.79h-1.209q-1.111 0-1.568-.446-.456-.446-.456-1.536v-3.266h-1.606v-.768h1.606v-1.708zm5.705 6.811h3.685V205h-4.872v-.913q1.005-1.058 1.757-1.87.752-.81 1.036-1.143.537-.656.725-1.061.188-.406.188-.83 0-.671-.394-1.053-.395-.381-1.083-.381-.488 0-1.025.177-.538.178-1.14.537v-1.095q.554-.264 1.089-.398.534-.134 1.055-.134 1.176 0 1.893.626.717.625.717 1.64 0 .516-.239 1.032-.239.515-.776 1.138-.3.35-.873.967-.572.618-1.743 1.848zm6.109-7.106h4.06v.913H317.1v1.971q.231-.086.465-.126.233-.04.47-.04 1.246 0 1.976.736.73.735.73 1.992 0 1.268-.765 1.998t-2.092.73q-.639 0-1.168-.085-.529-.086-.948-.258v-1.101q.494.268.994.4t1.02.132q.897 0 1.383-.473t.486-1.343q0-.86-.502-1.337-.502-.478-1.399-.478-.435 0-.849.1-.413.099-.79.297zm11.211.177v1q-.339-.2-.72-.304-.381-.105-.795-.105-1.031 0-1.563.776t-.532 2.286q.258-.538.715-.825.456-.287 1.047-.287 1.16 0 1.797.711.636.712.636 2.017 0 1.3-.655 2.014-.655.715-1.842.715-1.397 0-2.047-1.002-.65-1.002-.65-3.155 0-2.03.782-3.097.781-1.066 2.264-1.066.397 0 .795.083.397.083.768.24zm-1.934 3.39q-.693 0-1.09.499-.398.5-.398 1.38 0 .881.398 1.38.397.5 1.09.5.72 0 1.085-.475.365-.476.365-1.405 0-.934-.365-1.407t-1.085-.473z"/><path d="M335.893 202.336v-.924h6.837v.924zm14 0v-.924h6.837v.924zm14 0v-.924h6.837v.924zm14 0v-.924h6.837v.924zm14 0v-.924h6.837v.924zm14 0v-.924h6.837v.924zm14 0v-.924h6.837v.924zm14 0v-.924h6.837v.924zm14 0v-.924h6.837v.924zm14 0v-.924h6.837v.924zm14 0v-.924h6.837v.924zm16.986 5.984v-5.984h-2.986v-.924h3.845v6.907z" fill="#A7D3A9"/><path d="M41.893 194.75v-11.215h5.124v11.215zm7 0v-11.215h5.124v11.215zm7 0v-11.215h5.124v11.215zm7 0v-11.215h5.124v11.215zm7 0v-11.215h5.124v11.215zm7 0v-11.215h5.124v11.215zm7 0v-11.215h5.124v11.215zm7 0v-11.215h5.124v11.215zm7 0v-11.215h5.124v11.215zm7 0v-11.215h5.124v11.215zm7 0v-11.215h5.124v11.215zm7 0v-11.215h5.124v11.215zm7 0v-11.215h5.124v11.215zm7 0v-11.215h5.124v11.215zm7 0v-11.215h5.124v11.215zm7 0v-11.215h5.124v11.215zm7 0v-11.215h5.124v11.215zm7 0v-11.215h5.124v11.215zm7 0v-11.215h5.124v11.215zm7 0v-11.215h5.124v11.215zm7 0v-11.215h5.124v11.215zm7 0v-11.215h5.124v11.215zm7 0v-11.215h5.124v11.215zm7 0v-11.215h5.124v11.215zm7 0v-11.215h5.124v11.215zm7 0v-11.215h5.124v11.215zm7 0v-11.215h5.124v11.215zm7 0v-11.215h5.124v11.215zm7 0v-11.215h5.124v11.215zm7 0v-11.215h5.124v11.215zm7 0v-11.215h5.124v11.215zm7 0v-11.215h5.124v11.215z" fill="#EAEAEA"/><path d="M283.77 188.976h-.327q-.865 0-1.303.304-.437.303-.437.905 0 .542.327.843.328.3.908.3.816 0 1.284-.566.467-.567.472-1.566v-.22zm1.918-.408V192h-.994v-.892q-.317.538-.797.793-.481.255-1.168.255-.919 0-1.467-.519-.548-.518-.548-1.388 0-1.004.674-1.525.675-.521 1.98-.521h1.326v-.156q-.005-.72-.365-1.045-.36-.325-1.15-.325-.504 0-1.02.145-.515.145-1.004.425v-.989q.548-.21 1.05-.314.502-.105.975-.105.746 0 1.275.22.53.22.857.661.204.269.29.664.086.394.086 1.184zm7.516-1.343q-.317-.247-.645-.36-.328-.113-.72-.113-.923 0-1.412.58-.489.58-.489 1.676V192h-.994v-6.016h.994v1.177q.247-.64.76-.98.513-.342 1.217-.342.365 0 .682.092.317.091.607.284zm7 0q-.317-.247-.645-.36-.328-.113-.72-.113-.923 0-1.412.58-.489.58-.489 1.676V192h-.994v-6.016h.994v1.177q.247-.64.76-.98.513-.342 1.217-.342.365 0 .682.092.317.091.607.284zm4.566 1.751h-.327q-.865 0-1.303.304-.437.303-.437.905 0 .542.327.843.328.3.908.3.816 0 1.284-.566.467-.567.472-1.566v-.22zm1.918-.408V192h-.994v-.892q-.317.538-.797.793-.481.255-1.168.255-.919 0-1.467-.519-.548-.518-.548-1.388 0-1.004.674-1.525.675-.521 1.98-.521h1.326v-.156q-.005-.72-.365-1.045-.36-.325-1.15-.325-.504 0-1.02.145-.515.145-1.004.425v-.989q.548-.21 1.05-.314.502-.105.975-.105.746 0 1.275.22.53.22.857.661.204.269.29.664.086.394.086 1.184zm5.92 1.498q-.247.629-.628 1.655-.532 1.418-.714 1.73-.247.418-.618.628-.37.21-.865.21h-.795v-.828h.586q.435 0 .682-.253.247-.252.628-1.305l-2.325-5.919h1.047l1.783 4.705 1.757-4.705h1.047z" fill="#919191"/><path d="M422.879 195.32V181.3h.86v14.02z" fill="#A7D3A9"/><path d="M41.893 181.75v-11.215h5.124v11.215zm7 0v-11.215h5.124v11.215zm7 0v-11.215h5.124v11.215zm7 0v-11.215h5.124v11.215zm7 0v-11.215h5.124v11.215zm7 0v-11.215h5.124v11.215zm7 0v-11.215h5.124v11.215zm7 0v-11.215h5.124v11.215zm7 0v-11.215h5.124v11.215zm7 0v-11.215h5.124v11.215zm7 0v-11.215h5.124v11.215zm7 0v-11.215h5.124v11.215zm7 0v-11.215h5.124v11.215zm7 0v-11.215h5.124v11.215zm7 0v-11.215h5.124v11.215zm7 0v-11.215h5.124v11.215zm7 0v-11.215h5.124v11.215zm7 0v-11.215h5.124v11.215zm7 0v-11.215h5.124v11.215zm7 0v-11.215h5.124v11.215zm7 0v-11.215h5.124v11.215zm7 0v-11.215h5.124v11.215zm7 0v-11.215h5.124v11.215zm7 0v-11.215h5.124v11.215zm7 0v-11.215h5.124v11.215zm7 0v-11.215h5.124v11.215zm7 0v-11.215h5.124v11.215zm7 0v-11.215h5.124v11.215zm7 0v-11.215h5.124v11.215zm7 0v-11.215h5.124v11.215zm7 0v-11.215h5.124v11.215zm7 0v-11.215h5.124v11.215z" fill="#EAEAEA"/><path d="M281.047 176.723v-3.728h.989v3.728q0 .81.287 1.192.287.381.889.381.698 0 1.069-.491.37-.492.37-1.41v-3.4h.994V179h-.994v-.902q-.263.52-.717.79-.454.268-1.06.268-.924 0-1.375-.604-.452-.605-.452-1.83zm7.65-3.717h2.53v5.226h1.96V179h-4.909v-.768h1.96v-4.458h-1.54zm1.542-2.337h.988v1.247h-.988zm9.406 4.603V179h-.994v-3.728q0-.81-.284-1.192-.285-.381-.892-.381-.693 0-1.066.491-.373.492-.373 1.41v3.4h-.989v-6.016h.989v.903q.263-.516.714-.782.451-.266 1.069-.266.918 0 1.372.605.454.604.454 1.828zm4.653-3.996v1.708h2.245v.768h-2.245v3.266q0 .666.252.93.253.262.881.262h1.112v.79h-1.209q-1.111 0-1.568-.446-.456-.446-.456-1.536v-3.266h-1.606v-.768h1.606v-1.708zm5.705 6.811h3.685V179h-4.872v-.913q1.005-1.058 1.757-1.87.752-.81 1.036-1.143.537-.656.725-1.061.188-.406.188-.83 0-.671-.394-1.053-.395-.381-1.083-.381-.488 0-1.025.177-.538.178-1.14.537v-1.095q.554-.264 1.089-.398.534-.134 1.055-.134 1.176 0 1.893.626.717.625.717 1.64 0 .516-.239 1.032-.239.515-.776 1.138-.3.35-.873.967-.572.618-1.743 1.848zm6.109-7.106h4.06v.913H317.1v1.971q.231-.086.465-.126.233-.04.47-.04 1.246 0 1.976.736.73.735.73 1.992 0 1.268-.765 1.998t-2.092.73q-.639 0-1.168-.085-.529-.086-.948-.258v-1.101q.494.268.994.4t1.02.132q.897 0 1.383-.473t.486-1.343q0-.86-.502-1.337-.502-.478-1.399-.478-.435 0-.849.1-.413.099-.79.297zm11.211.177v1q-.339-.2-.72-.304-.381-.105-.795-.105-1.031 0-1.563.776t-.532 2.286q.258-.538.715-.825.456-.287 1.047-.287 1.16 0 1.797.711.636.712.636 2.017 0 1.3-.655 2.014-.655.715-1.842.715-1.397 0-2.047-1.002-.65-1.002-.65-3.155 0-2.03.782-3.097.781-1.066 2.264-1.066.397 0 .795.083.397.083.768.24zm-1.934 3.39q-.693 0-1.09.499-.398.5-.398 1.38 0 .881.398 1.38.397.5 1.09.5.72 0 1.085-.475.365-.476.365-1.405 0-.934-.365-1.407t-1.085-.473z" fill="#919191"/><path d="M41.893 168.75v-11.215h5.124v11.215zm7 0v-11.215h5.124v11.215zm7 0v-11.215h5.124v11.215zm7 0v-11.215h5.124v11.215zm7 0v-11.215h5.124v11.215zm7 0v-11.215h5.124v11.215zm7 0v-11.215h5.124v11.215zm7 0v-11.215h5.124v11.215zm7 0v-11.215h5.124v11.215zm7 0v-11.215h5.124v11.215zm7 0v-11.215h5.124v11.215zm7 0v-11.215h5.124v11.215zm7 0v-11.215h5.124v11.215zm7 0v-11.215h5.124v11.215zm7 0v-11.215h5.124v11.215zm7 0v-11.215h5.124v11.215zm7 0v-11.215h5.124v11.215zm7 0v-11.215h5.124v11.215zm7 0v-11.215h5.124v11.215zm7 0v-11.215h5.124v11.215zm7 0v-11.215h5.124v11.215zm7 0v-11.215h5.124v11.215zm7 0v-11.215h5.124v11.215zm7 0v-11.215h5.124v11.215zm7 0v-11.215h5.124v11.215zm7 0v-11.215h5.124v11.215zm7 0v-11.215h5.124v11.215zm7 0v-11.215h5.124v11.215zm7 0v-11.215h5.124v11.215zm7 0v-11.215h5.124v11.215zm7 0v-11.215h5.124v11.215zm7 0v-11.215h5.124v11.215z" fill="#EAEAEA"/><path d="M284.93 162.998q0-1.15-.365-1.735-.365-.586-1.08-.586-.719 0-1.09.588-.37.589-.37 1.733 0 1.138.37 1.73.371.59 1.09.59.715 0 1.08-.586.366-.585.366-1.734zm-2.905-2.246q.236-.44.652-.676.417-.237.965-.237 1.085 0 1.708.836.623.835.623 2.301 0 1.488-.626 2.334-.626.846-1.716.846-.537 0-.948-.234-.411-.234-.658-.68V166h-.988v-8.357h.988zm9.583 3.314q-.247.629-.628 1.655-.532 1.418-.714 1.73-.247.418-.618.628-.37.21-.865.21h-.795v-.828h.586q.435 0 .682-.253.247-.252.628-1.305l-2.325-5.919h1.047l1.783 4.705 1.757-4.705h1.047zm5.69-5.79v1.708h2.245v.768h-2.245v3.266q0 .666.252.93.253.262.881.262h1.112v.79h-1.209q-1.111 0-1.568-.446-.456-.446-.456-1.536v-3.266h-1.606v-.768h1.606v-1.708zm9.718 4.222v.483h-4.281v.033q-.043 1.23.47 1.767.513.537 1.447.537.473 0 .989-.15.515-.15 1.1-.457v.983q-.563.23-1.087.346-.524.116-1.012.116-1.402 0-2.192-.84-.79-.841-.79-2.318 0-1.44.774-2.3.774-.859 2.063-.859 1.149 0 1.812.78.664.778.707 1.879zm-.989-.29q-.064-.623-.454-1.077-.389-.454-1.12-.454-.714 0-1.176.473-.462.473-.505 1.063zm7.199-2.014v.967q-.424-.247-.854-.371-.43-.123-.875-.123-.672 0-1.002.217-.33.218-.33.663 0 .403.247.602.247.199 1.23.387l.397.075q.736.14 1.115.558.378.42.378 1.09 0 .892-.634 1.395-.633.502-1.761.502-.446 0-.935-.094-.489-.094-1.058-.282v-1.02q.553.284 1.058.426.505.143.956.143.655 0 1.015-.266.36-.266.36-.744 0-.688-1.316-.95l-.043-.012-.37-.075q-.854-.166-1.246-.561t-.392-1.077q0-.865.585-1.335t1.67-.47q.484 0 .93.089.445.089.875.266zm5.942 1.514q.79.21 1.208.744.42.535.42 1.335 0 1.107-.744 1.738-.744.63-2.06.63-.554 0-1.128-.101-.575-.102-1.128-.296v-1.08q.548.285 1.08.425.531.14 1.058.14.891 0 1.37-.403.477-.403.477-1.16 0-.699-.478-1.11-.478-.41-1.294-.41h-.827v-.892h.827q.746 0 1.165-.328.42-.327.42-.913 0-.617-.39-.948-.39-.33-1.11-.33-.477 0-.988.107-.51.108-1.068.323v-1q.65-.171 1.157-.257.508-.086.9-.086 1.17 0 1.871.588.701.588.701 1.56 0 .661-.367 1.101-.368.44-1.072.623zm4.835 3.379h3.685V166h-4.872v-.913q1.005-1.058 1.757-1.87.752-.81 1.036-1.143.537-.656.725-1.061.188-.406.188-.83 0-.671-.394-1.053-.395-.381-1.083-.381-.488 0-1.025.177-.538.178-1.14.537v-1.095q.554-.264 1.089-.398.534-.134 1.055-.134 1.176 0 1.893.626.717.625.717 1.64 0 .516-.239 1.032-.239.515-.776 1.138-.3.35-.873.967-.572.618-1.743 1.848z"/><path d="M335.893 163.336v-.924h6.837v.924zm14 0v-.924h6.837v.924zm14 0v-.924h6.837v.924zm14 0v-.924h6.837v.924zm14 0v-.924h6.837v.924zm14 0v-.924h6.837v.924zm16.986 5.984v-5.984h-2.986v-.924h3.845v6.907z" fill="#A7D3A9"/><path d="M13.005 29.984l-2.154 2.88L13.214 36H12.07l-1.761-2.412L8.552 36H7.408l2.363-3.137-2.153-2.879h1.095l1.596 2.176 1.584-2.176zm0 13l-2.154 2.88L13.214 49H12.07l-1.761-2.412L8.552 49H7.408l2.363-3.137-2.153-2.879h1.095l1.596 2.176 1.584-2.176zm0 13l-2.154 2.88L13.214 62H12.07l-1.761-2.412L8.552 62H7.408l2.363-3.137-2.153-2.879h1.095l1.596 2.176 1.584-2.176zm0 13l-2.154 2.88L13.214 75H12.07l-1.761-2.412L8.552 75H7.408l2.363-3.137-2.153-2.879h1.095l1.596 2.176 1.584-2.176zm0 13l-2.154 2.88L13.214 88H12.07l-1.761-2.412L8.552 88H7.408l2.363-3.137-2.153-2.879h1.095l1.596 2.176 1.584-2.176zm0 13l-2.154 2.88L13.214 101H12.07l-1.761-2.412L8.552 101H7.408l2.363-3.137-2.153-2.879h1.095l1.596 2.176 1.584-2.176zm4.304-67.121q1.283 0 1.941 1.047.658 1.048.658 3.1 0 2.051-.658 3.098-.658 1.048-1.941 1.048-1.284 0-1.94-1.048-.655-1.047-.655-3.099 0-2.051.656-3.099.655-1.047 1.939-1.047zm0 7.433q.762 0 1.136-.81.373-.812.373-2.477 0-.886-.108-1.6l-2.556 4.001q.403.886 1.155.886zm0-6.574q-.758 0-1.131.811t-.373 2.476q0 .758.102 1.418l2.503-3.99q-.409-.715-1.101-.715zm7-.859q1.283 0 1.941 1.047.658 1.048.658 3.1 0 2.051-.658 3.098-.658 1.048-1.941 1.048-1.284 0-1.94-1.048-.655-1.047-.655-3.099 0-2.051.656-3.099.655-1.047 1.939-1.047zm0 7.433q.762 0 1.136-.81.373-.812.373-2.477 0-.886-.108-1.6l-2.556 4.001q.403.886 1.155.886zm0-6.574q-.758 0-1.131.811t-.373 2.476q0 .758.102 1.418l2.503-3.99q-.409-.715-1.101-.715zm-7 12.141q1.283 0 1.941 1.047.658 1.048.658 3.1 0 2.051-.658 3.098-.658 1.048-1.941 1.048-1.284 0-1.94-1.048-.655-1.047-.655-3.099 0-2.051.656-3.099.655-1.047 1.939-1.047zm0 7.433q.762 0 1.136-.81.373-.812.373-2.477 0-.886-.108-1.6l-2.556 4.001q.403.886 1.155.886zm0-6.574q-.758 0-1.131.811t-.373 2.476q0 .758.102 1.418l2.503-3.99q-.409-.715-1.101-.715zm0 12.141q1.283 0 1.941 1.047.658 1.048.658 3.1 0 2.051-.658 3.098-.658 1.048-1.941 1.048-1.284 0-1.94-1.048-.655-1.047-.655-3.099 0-2.051.656-3.099.655-1.047 1.939-1.047zm0 7.433q.762 0 1.136-.81.373-.812.373-2.477 0-.886-.108-1.6l-2.556 4.001q.403.886 1.155.886zm0-6.574q-.758 0-1.131.811t-.373 2.476q0 .758.102 1.418l2.503-3.99q-.409-.715-1.101-.715zm0 12.141q1.283 0 1.941 1.047.658 1.048.658 3.1 0 2.051-.658 3.098-.658 1.048-1.941 1.048-1.284 0-1.94-1.048-.655-1.047-.655-3.099 0-2.051.656-3.099.655-1.047 1.939-1.047zm0 7.433q.762 0 1.136-.81.373-.812.373-2.477 0-.886-.108-1.6l-2.556 4.001q.403.886 1.155.886zm0-6.574q-.758 0-1.131.811t-.373 2.476q0 .758.102 1.418l2.503-3.99q-.409-.715-1.101-.715zm0 12.141q1.283 0 1.941 1.047.658 1.048.658 3.1 0 2.051-.658 3.098-.658 1.048-1.941 1.048-1.284 0-1.94-1.048-.655-1.047-.655-3.099 0-2.051.656-3.099.655-1.047 1.939-1.047zm0 7.433q.762 0 1.136-.81.373-.812.373-2.477 0-.886-.108-1.6l-2.556 4.001q.403.886 1.155.886zm0-6.574q-.758 0-1.131.811t-.373 2.476q0 .758.102 1.418l2.503-3.99q-.409-.715-1.101-.715zm0 12.141q1.283 0 1.941 1.047.658 1.048.658 3.1 0 2.051-.658 3.098-.658 1.048-1.941 1.048-1.284 0-1.94-1.048-.655-1.047-.655-3.099 0-2.051.656-3.099.655-1.047 1.939-1.047zm0 7.433q.762 0 1.136-.81.373-.812.373-2.477 0-.886-.108-1.6l-2.556 4.001q.403.886 1.155.886zm0-6.574q-.758 0-1.131.811t-.373 2.476q0 .758.102 1.418l2.503-3.99q-.409-.715-1.101-.715zm5.141-45.63h1.687v-6.058l-2.02.972v-1.042l2.009-.956h1.085v7.084h1.665V49H22.45zm.553 12.995h3.685V62h-4.872v-.913q1.005-1.058 1.757-1.87.752-.81 1.036-1.143.537-.656.725-1.061.188-.406.188-.83 0-.671-.394-1.053-.395-.381-1.083-.381-.488 0-1.025.177-.538.178-1.14.537v-1.095q.554-.264 1.089-.398.534-.134 1.055-.134 1.176 0 1.893.626.717.625.717 1.64 0 .516-.239 1.032-.239.515-.776 1.138-.3.35-.873.967-.572.618-1.743 1.848zm2.165 9.621q.79.21 1.208.744.42.535.42 1.335 0 1.107-.744 1.738-.744.63-2.06.63-.554 0-1.128-.101-.575-.102-1.128-.296v-1.08q.548.285 1.08.425.531.14 1.058.14.891 0 1.37-.403.477-.403.477-1.16 0-.699-.478-1.11-.478-.41-1.294-.41h-.827v-.892h.827q.746 0 1.165-.328.42-.327.42-.913 0-.617-.39-.948-.39-.33-1.11-.33-.477 0-.988.107-.51.108-1.068.323v-1q.65-.171 1.157-.257.508-.086.9-.086 1.17 0 1.871.588.701.588.701 1.56 0 .661-.367 1.101-.368.44-1.072.623zm-.22 10.262l-2.53 4.237h2.53zm-.177-.989h1.256v5.226h1.07v.88h-1.07V88h-1.08v-1.912h-3.4v-1.026zm-2.659 13h4.06v.913H23.1v1.971q.231-.086.465-.126.233-.04.47-.04 1.246 0 1.976.736.73.735.73 1.992 0 1.268-.765 1.998t-2.092.73q-.639 0-1.168-.085-.529-.086-.948-.258v-1.101q.494.268.994.4t1.02.132q.897 0 1.383-.473t.486-1.343q0-.86-.502-1.337-.502-.478-1.399-.478-.435 0-.849.1-.413.099-.79.297z" fill="#919191"/><path d="M41.893 103.75V92.535h5.124v11.215zm7 0V92.535h5.124v11.215zm7 0V92.535h5.124v11.215zm7 0V92.535h5.124v11.215zm7 0V92.535h5.124v11.215zm7 0V92.535h5.124v11.215zm7 0V92.535h5.124v11.215zm7 0V92.535h5.124v11.215zm7 0V92.535h5.124v11.215zm7 0V92.535h5.124v11.215zm7 0V92.535h5.124v11.215zm7 0V92.535h5.124v11.215zm7 0V92.535h5.124v11.215zm7 0V92.535h5.124v11.215zm7 0V92.535h5.124v11.215zm7 0V92.535h5.124v11.215zm7 0V92.535h5.124v11.215zm7 0V92.535h5.124v11.215zm7 0V92.535h5.124v11.215zm7 0V92.535h5.124v11.215zm7 0V92.535h5.124v11.215zm7 0V92.535h5.124v11.215zm7 0V92.535h5.124v11.215zm7 0V92.535h5.124v11.215zm7 0V92.535h5.124v11.215zm7 0V92.535h5.124v11.215zm7 0V92.535h5.124v11.215zm7 0V92.535h5.124v11.215zm7 0V92.535h5.124v11.215zm7 0V92.535h5.124v11.215zm7 0V92.535h5.124v11.215zm7 0V92.535h5.124v11.215z" fill="#EAEAEA"/><path d="M284.93 97.998q0-1.15-.365-1.735-.365-.586-1.08-.586-.719 0-1.09.588-.37.589-.37 1.733 0 1.138.37 1.73.371.59 1.09.59.715 0 1.08-.586.366-.585.366-1.734zm-2.905-2.246q.236-.44.652-.676.417-.237.965-.237 1.085 0 1.708.836.623.835.623 2.301 0 1.488-.626 2.334-.626.846-1.716.846-.537 0-.948-.234-.411-.234-.658-.68V101h-.988v-8.357h.988zm9.583 3.314q-.247.629-.628 1.655-.532 1.418-.714 1.73-.247.418-.618.628-.37.21-.865.21h-.795v-.828h.586q.435 0 .682-.253.247-.252.628-1.305l-2.325-5.919h1.047l1.783 4.705 1.757-4.705h1.047zm5.69-5.79v1.708h2.245v.768h-2.245v3.266q0 .666.252.93.253.262.881.262h1.112v.79h-1.209q-1.111 0-1.568-.446-.456-.446-.456-1.536v-3.266h-1.606v-.768h1.606v-1.708zm9.718 4.222v.483h-4.281v.033q-.043 1.23.47 1.767.513.537 1.447.537.473 0 .989-.15.515-.15 1.1-.457v.983q-.563.23-1.087.346-.524.116-1.012.116-1.402 0-2.192-.84-.79-.841-.79-2.318 0-1.44.774-2.3.774-.859 2.063-.859 1.149 0 1.812.78.664.778.707 1.879zm-.989-.29q-.064-.623-.454-1.077-.389-.454-1.12-.454-.714 0-1.176.473-.462.473-.505 1.063zm7.199-2.014v.967q-.424-.247-.854-.371-.43-.123-.875-.123-.672 0-1.002.217-.33.218-.33.663 0 .403.247.602.247.199 1.23.387l.397.075q.736.14 1.115.558.378.42.378 1.09 0 .892-.634 1.395-.633.502-1.761.502-.446 0-.935-.094-.489-.094-1.058-.282v-1.02q.553.284 1.058.426.505.143.956.143.655 0 1.015-.266.36-.266.36-.744 0-.688-1.316-.95l-.043-.012-.37-.075q-.854-.166-1.246-.561t-.392-1.077q0-.865.585-1.335t1.67-.47q.484 0 .93.089.445.089.875.266zm5.942 1.514q.79.21 1.208.744.42.535.42 1.335 0 1.107-.744 1.738-.744.63-2.06.63-.554 0-1.128-.101-.575-.102-1.128-.296v-1.08q.548.285 1.08.425.531.14 1.058.14.891 0 1.37-.403.477-.403.477-1.16 0-.699-.478-1.11-.478-.41-1.294-.41h-.827v-.892h.827q.746 0 1.165-.328.42-.327.42-.913 0-.617-.39-.948-.39-.33-1.11-.33-.477 0-.988.107-.51.108-1.068.323v-1q.65-.171 1.157-.257.508-.086.9-.086 1.17 0 1.871.588.701.588.701 1.56 0 .661-.367 1.101-.368.44-1.072.623zm4.835 3.379h3.685V101h-4.872v-.913q1.005-1.058 1.757-1.87.752-.81 1.036-1.143.537-.656.725-1.061.188-.406.188-.83 0-.671-.394-1.053-.395-.381-1.083-.381-.488 0-1.025.177-.538.178-1.14.537v-1.095q.554-.264 1.089-.398.534-.134 1.055-.134 1.176 0 1.893.626.717.625.717 1.64 0 .516-.239 1.032-.239.515-.776 1.138-.3.35-.873.967-.572.618-1.743 1.848z" fill="#919191"/><path d="M41.893 90.75V79.535h5.124V90.75zm7 0V79.535h5.124V90.75zm7 0V79.535h5.124V90.75zm7 0V79.535h5.124V90.75zm7 0V79.535h5.124V90.75zm7 0V79.535h5.124V90.75zm7 0V79.535h5.124V90.75zm7 0V79.535h5.124V90.75zm7 0V79.535h5.124V90.75zm7 0V79.535h5.124V90.75zm7 0V79.535h5.124V90.75zm7 0V79.535h5.124V90.75zm7 0V79.535h5.124V90.75zm7 0V79.535h5.124V90.75zm7 0V79.535h5.124V90.75zm7 0V79.535h5.124V90.75zm7 0V79.535h5.124V90.75zm7 0V79.535h5.124V90.75zm7 0V79.535h5.124V90.75zm7 0V79.535h5.124V90.75zm7 0V79.535h5.124V90.75zm7 0V79.535h5.124V90.75zm7 0V79.535h5.124V90.75zm7 0V79.535h5.124V90.75zm7 0V79.535h5.124V90.75zm7 0V79.535h5.124V90.75zm7 0V79.535h5.124V90.75zm7 0V79.535h5.124V90.75zm7 0V79.535h5.124V90.75zm7 0V79.535h5.124V90.75zm7 0V79.535h5.124V90.75zm7 0V79.535h5.124V90.75z" fill="#EAEAEA"/><path d="M281.047 85.723v-3.728h.989v3.728q0 .81.287 1.192.287.381.889.381.698 0 1.069-.491.37-.492.37-1.41v-3.4h.994V88h-.994v-.902q-.263.52-.717.79-.454.268-1.06.268-.924 0-1.375-.604-.452-.605-.452-1.83zm7.65-3.717h2.53v5.226h1.96V88h-4.909v-.768h1.96v-4.458h-1.54zm1.542-2.337h.988v1.247h-.988zm9.406 4.603V88h-.994v-3.728q0-.81-.284-1.192-.285-.381-.892-.381-.693 0-1.066.491-.373.492-.373 1.41V88h-.989v-6.016h.989v.903q.263-.516.714-.782.451-.266 1.069-.266.918 0 1.372.605.454.604.454 1.828zm4.653-3.996v1.708h2.245v.768h-2.245v3.266q0 .666.252.93.253.262.881.262h1.112V88h-1.209q-1.111 0-1.568-.446-.456-.446-.456-1.536v-3.266h-1.606v-.768h1.606v-1.708zm5.705 6.811h3.685V88h-4.872v-.913q1.005-1.058 1.757-1.87.752-.81 1.036-1.143.537-.656.725-1.061.188-.406.188-.83 0-.671-.394-1.053-.395-.381-1.083-.381-.488 0-1.025.177-.538.178-1.14.537v-1.095q.554-.264 1.089-.398.534-.134 1.055-.134 1.176 0 1.893.626.717.625.717 1.64 0 .516-.239 1.032-.239.515-.776 1.138-.3.35-.873.967-.572.618-1.743 1.848zm6.109-7.106h4.06v.913H317.1v1.971q.231-.086.465-.126.233-.04.47-.04 1.246 0 1.976.736.73.735.73 1.992 0 1.268-.765 1.998t-2.092.73q-.639 0-1.168-.085-.529-.086-.948-.258v-1.101q.494.268.994.4t1.02.132q.897 0 1.383-.473t.486-1.343q0-.86-.502-1.337-.502-.478-1.399-.478-.435 0-.849.1-.413.099-.79.297zm11.211.177v1q-.339-.2-.72-.304-.381-.105-.795-.105-1.031 0-1.563.776t-.532 2.286q.258-.538.715-.825.456-.287 1.047-.287 1.16 0 1.797.711.636.712.636 2.017 0 1.3-.655 2.014-.655.715-1.842.715-1.397 0-2.047-1.002-.65-1.002-.65-3.155 0-2.03.782-3.097.781-1.066 2.264-1.066.397 0 .795.083.397.083.768.24zm-1.934 3.39q-.693 0-1.09.499-.398.5-.398 1.38 0 .881.398 1.38.397.5 1.09.5.72 0 1.085-.475.365-.476.365-1.405 0-.934-.365-1.407t-1.085-.473z" fill="#919191"/><path d="M41.893 77.75V66.535h5.124V77.75zm7 0V66.535h5.124V77.75zm7 0V66.535h5.124V77.75zm7 0V66.535h5.124V77.75zm7 0V66.535h5.124V77.75zm7 0V66.535h5.124V77.75zm7 0V66.535h5.124V77.75zm7 0V66.535h5.124V77.75zm7 0V66.535h5.124V77.75zm7 0V66.535h5.124V77.75zm7 0V66.535h5.124V77.75zm7 0V66.535h5.124V77.75zm7 0V66.535h5.124V77.75zm7 0V66.535h5.124V77.75zm7 0V66.535h5.124V77.75zm7 0V66.535h5.124V77.75zm7 0V66.535h5.124V77.75zm7 0V66.535h5.124V77.75zm7 0V66.535h5.124V77.75zm7 0V66.535h5.124V77.75zm7 0V66.535h5.124V77.75zm7 0V66.535h5.124V77.75zm7 0V66.535h5.124V77.75zm7 0V66.535h5.124V77.75zm7 0V66.535h5.124V77.75zm7 0V66.535h5.124V77.75zm7 0V66.535h5.124V77.75zm7 0V66.535h5.124V77.75z" fill="#F99" fill-opacity=".498"/><path d="M237.893 77.75V66.535h5.124V77.75zm7 0V66.535h5.124V77.75zm7 0V66.535h5.124V77.75zm7 0V66.535h5.124V77.75z" fill="#EAEAEA"/><path d="M281.047 72.723v-3.728h.989v3.728q0 .81.287 1.192.287.381.889.381.698 0 1.069-.491.37-.492.37-1.41v-3.4h.994V75h-.994v-.902q-.263.52-.717.79-.454.268-1.06.268-.924 0-1.375-.604-.452-.605-.452-1.83zm7.65-3.717h2.53v5.226h1.96V75h-4.909v-.768h1.96v-4.458h-1.54zm1.542-2.337h.988v1.247h-.988zm9.406 4.603V75h-.994v-3.728q0-.81-.284-1.192-.285-.381-.892-.381-.693 0-1.066.491-.373.492-.373 1.41V75h-.989v-6.016h.989v.903q.263-.516.714-.782.451-.266 1.069-.266.918 0 1.372.605.454.604.454 1.828zm4.653-3.996v1.708h2.245v.768h-2.245v3.266q0 .666.252.93.253.262.881.262h1.112V75h-1.209q-1.111 0-1.568-.446-.456-.446-.456-1.536v-3.266h-1.606v-.768h1.606v-1.708zm7.011 3.916q-.726 0-1.12.405-.395.406-.395 1.147t.4 1.152q.4.411 1.115.411.73 0 1.125-.405.395-.406.395-1.158 0-.736-.4-1.144-.4-.408-1.12-.408zm-.946-.451q-.693-.178-1.082-.66-.39-.484-.39-1.166 0-.957.65-1.518t1.768-.561q1.122 0 1.772.561.65.561.65 1.518 0 .682-.39 1.165-.389.483-1.082.66.806.178 1.233.715.427.537.427 1.391 0 1.085-.693 1.697-.693.613-1.917.613-1.225 0-1.915-.61t-.69-1.69q0-.858.427-1.398.427-.54 1.232-.717zm-.392-1.724q0 .644.344.983.344.338.994.338.655 0 .999-.338.343-.339.343-.983 0-.656-.34-1-.342-.343-1.002-.343-.65 0-.994.346-.344.347-.344.997zm7.403 4.044h1.676v1.423l-1.193 2.315-1.074.006.591-2.32zm5.673-.338v-3.728h.989v3.728q0 .81.287 1.192.287.381.889.381.698 0 1.069-.491.37-.492.37-1.41v-3.4h.994V75h-.994v-.902q-.263.52-.717.79-.454.268-1.06.268-.924 0-1.375-.604-.452-.605-.452-1.83zm7.65-3.717h2.53v5.226h1.96V75h-4.909v-.768h1.96v-4.458h-1.54zm1.542-2.337h.988v1.247h-.988zm9.406 4.603V75h-.994v-3.728q0-.81-.284-1.192-.285-.381-.892-.381-.693 0-1.066.491-.373.492-.373 1.41V75h-.989v-6.016h.989v.903q.263-.516.714-.782.451-.266 1.069-.266.918 0 1.372.605.454.604.454 1.828zm4.653-3.996v1.708h2.245v.768h-2.245v3.266q0 .666.252.93.253.262.881.262h1.112V75h-1.209q-1.111 0-1.568-.446-.456-.446-.456-1.536v-3.266h-1.606v-.768h1.606v-1.708zm7.011 3.916q-.726 0-1.12.405-.395.406-.395 1.147t.4 1.152q.4.411 1.115.411.73 0 1.125-.405.395-.406.395-1.158 0-.736-.4-1.144-.4-.408-1.12-.408zm-.946-.451q-.693-.178-1.082-.66-.39-.484-.39-1.166 0-.957.65-1.518t1.768-.561q1.122 0 1.772.561.65.561.65 1.518 0 .682-.39 1.165-.389.483-1.082.66.806.178 1.233.715.427.537.427 1.391 0 1.085-.693 1.697-.693.613-1.917.613-1.225 0-1.915-.61t-.69-1.69q0-.858.427-1.398.427-.54 1.232-.717zm-.392-1.724q0 .644.344.983.344.338.994.338.655 0 .999-.338.343-.339.343-.983 0-.656-.34-1-.342-.343-1.002-.343-.65 0-.994.346-.344.347-.344.997zm7.403 4.044h1.676v1.423l-1.193 2.315-1.074.006.591-2.32zm5.673-.338v-3.728h.989v3.728q0 .81.287 1.192.287.381.889.381.698 0 1.069-.491.37-.492.37-1.41v-3.4h.994V75h-.994v-.902q-.263.52-.717.79-.454.268-1.06.268-.924 0-1.375-.604-.452-.605-.452-1.83zm7.65-3.717h2.53v5.226h1.96V75h-4.909v-.768h1.96v-4.458h-1.54zm1.542-2.337h.988v1.247h-.988zm9.406 4.603V75h-.994v-3.728q0-.81-.284-1.192-.285-.381-.892-.381-.693 0-1.066.491-.373.492-.373 1.41V75h-.989v-6.016h.989v.903q.263-.516.714-.782.451-.266 1.069-.266.918 0 1.372.605.454.604.454 1.828zm4.653-3.996v1.708h2.245v.768h-2.245v3.266q0 .666.252.93.253.262.881.262h1.112V75h-1.209q-1.111 0-1.568-.446-.456-.446-.456-1.536v-3.266h-1.606v-.768h1.606v-1.708zm7.011 3.916q-.726 0-1.12.405-.395.406-.395 1.147t.4 1.152q.4.411 1.115.411.73 0 1.125-.405.395-.406.395-1.158 0-.736-.4-1.144-.4-.408-1.12-.408zm-.946-.451q-.693-.178-1.082-.66-.39-.484-.39-1.166 0-.957.65-1.518t1.768-.561q1.122 0 1.772.561.65.561.65 1.518 0 .682-.39 1.165-.389.483-1.082.66.806.178 1.233.715.427.537.427 1.391 0 1.085-.693 1.697-.693.613-1.917.613-1.225 0-1.915-.61t-.69-1.69q0-.858.427-1.398.427-.54 1.232-.717zm-.392-1.724q0 .644.344.983.344.338.994.338.655 0 .999-.338.343-.339.343-.983 0-.656-.34-1-.342-.343-1.002-.343-.65 0-.994.346-.344.347-.344.997zm7.403 4.044h1.676v1.423l-1.193 2.315-1.074.006.591-2.32zm9.556-1.063q0-1.15-.365-1.735-.365-.586-1.08-.586-.719 0-1.09.588-.37.589-.37 1.733 0 1.138.37 1.73.371.59 1.09.59.715 0 1.08-.586.366-.585.366-1.734zm-2.905-2.246q.236-.44.652-.676.417-.237.965-.237 1.085 0 1.708.836.623.835.623 2.301 0 1.488-.626 2.334-.626.846-1.716.846-.537 0-.948-.234-.411-.234-.658-.68V75h-.988v-8.357h.988zm8.284-.075q-.752 0-1.14.586-.386.585-.386 1.735 0 1.144.387 1.732.387.588 1.139.588.757 0 1.144-.588.386-.588.386-1.732 0-1.15-.386-1.735-.387-.586-1.144-.586zm0-.838q1.251 0 1.914.811.664.811.664 2.348 0 1.541-.66 2.35-.662.808-1.918.808-1.252 0-1.913-.809-.66-.808-.66-2.35 0-1.536.66-2.347.661-.81 1.913-.81zm7 .838q-.752 0-1.14.586-.386.585-.386 1.735 0 1.144.387 1.732.387.588 1.139.588.757 0 1.144-.588.386-.588.386-1.732 0-1.15-.386-1.735-.387-.586-1.144-.586zm0-.838q1.251 0 1.914.811.664.811.664 2.348 0 1.541-.66 2.35-.662.808-1.918.808-1.252 0-1.913-.809-.66-.808-.66-2.35 0-1.536.66-2.347.661-.81 1.913-.81zm7.553 3.986q0 .666.244 1.004.245.338.723.338h1.154V75h-1.251q-.886 0-1.372-.567-.486-.566-.486-1.608v-5.441h-1.585v-.774h2.573z" fill="#919191"/><path d="M41.893 64.75V53.535h5.124V64.75zm7 0V53.535h5.124V64.75zm7 0V53.535h5.124V64.75zm7 0V53.535h5.124V64.75zm7 0V53.535h5.124V64.75zm7 0V53.535h5.124V64.75zm7 0V53.535h5.124V64.75zm7 0V53.535h5.124V64.75zm7 0V53.535h5.124V64.75zm7 0V53.535h5.124V64.75zm7 0V53.535h5.124V64.75zm7 0V53.535h5.124V64.75zm7 0V53.535h5.124V64.75zm7 0V53.535h5.124V64.75zm7 0V53.535h5.124V64.75zm7 0V53.535h5.124V64.75zm7 0V53.535h5.124V64.75zm7 0V53.535h5.124V64.75zm7 0V53.535h5.124V64.75zm7 0V53.535h5.124V64.75zm7 0V53.535h5.124V64.75zm7 0V53.535h5.124V64.75zm7 0V53.535h5.124V64.75zm7 0V53.535h5.124V64.75zm7 0V53.535h5.124V64.75zm7 0V53.535h5.124V64.75zm7 0V53.535h5.124V64.75zm7 0V53.535h5.124V64.75zm7 0V53.535h5.124V64.75zm7 0V53.535h5.124V64.75zm7 0V53.535h5.124V64.75zm7 0V53.535h5.124V64.75z" fill="#EAEAEA"/><path d="M283.77 58.976h-.327q-.865 0-1.303.304-.437.303-.437.905 0 .542.327.843.328.3.908.3.816 0 1.284-.566.467-.567.472-1.566v-.22zm1.918-.408V62h-.994v-.892q-.317.538-.797.793-.481.255-1.168.255-.919 0-1.467-.519-.548-.518-.548-1.388 0-1.004.674-1.525.675-.521 1.98-.521h1.326v-.156q-.005-.72-.365-1.045-.36-.325-1.15-.325-.504 0-1.02.145-.515.145-1.004.425v-.989q.548-.21 1.05-.314.502-.105.975-.105.746 0 1.275.22.53.22.857.661.204.269.29.664.086.394.086 1.184zm7.516-1.343q-.317-.247-.645-.36-.328-.113-.72-.113-.923 0-1.412.58-.489.58-.489 1.676V62h-.994v-6.016h.994v1.177q.247-.64.76-.98.513-.342 1.217-.342.365 0 .682.092.317.091.607.284zm7 0q-.317-.247-.645-.36-.328-.113-.72-.113-.923 0-1.412.58-.489.58-.489 1.676V62h-.994v-6.016h.994v1.177q.247-.64.76-.98.513-.342 1.217-.342.365 0 .682.092.317.091.607.284zm4.566 1.751h-.327q-.865 0-1.303.304-.437.303-.437.905 0 .542.327.843.328.3.908.3.816 0 1.284-.566.467-.567.472-1.566v-.22zm1.918-.408V62h-.994v-.892q-.317.538-.797.793-.481.255-1.168.255-.919 0-1.467-.519-.548-.518-.548-1.388 0-1.004.674-1.525.675-.521 1.98-.521h1.326v-.156q-.005-.72-.365-1.045-.36-.325-1.15-.325-.504 0-1.02.145-.515.145-1.004.425v-.989q.548-.21 1.05-.314.502-.105.975-.105.746 0 1.275.22.53.22.857.661.204.269.29.664.086.394.086 1.184zm5.92 1.498q-.247.629-.628 1.655-.532 1.418-.714 1.73-.247.418-.618.628-.37.21-.865.21h-.795v-.828h.586q.435 0 .682-.253.247-.252.628-1.305l-2.325-5.919h1.047l1.783 4.705 1.757-4.705h1.047z" fill="#919191"/><path d="M41.893 51.75V40.535h5.124V51.75zm7 0V40.535h5.124V51.75zm7 0V40.535h5.124V51.75zm7 0V40.535h5.124V51.75zm7 0V40.535h5.124V51.75zm7 0V40.535h5.124V51.75zm7 0V40.535h5.124V51.75zm7 0V40.535h5.124V51.75zm7 0V40.535h5.124V51.75zm7 0V40.535h5.124V51.75zm7 0V40.535h5.124V51.75zm7 0V40.535h5.124V51.75zm7 0V40.535h5.124V51.75zm7 0V40.535h5.124V51.75zm7 0V40.535h5.124V51.75zm7 0V40.535h5.124V51.75zm7 0V40.535h5.124V51.75zm7 0V40.535h5.124V51.75zm7 0V40.535h5.124V51.75zm7 0V40.535h5.124V51.75zm7 0V40.535h5.124V51.75zm7 0V40.535h5.124V51.75zm7 0V40.535h5.124V51.75zm7 0V40.535h5.124V51.75zm7 0V40.535h5.124V51.75zm7 0V40.535h5.124V51.75zm7 0V40.535h5.124V51.75zm7 0V40.535h5.124V51.75zm7 0V40.535h5.124V51.75zm7 0V40.535h5.124V51.75zm7 0V40.535h5.124V51.75zm7 0V40.535h5.124V51.75z" fill="#EAEAEA"/><path d="M281.047 46.723v-3.728h.989v3.728q0 .81.287 1.192.287.381.889.381.698 0 1.069-.491.37-.492.37-1.41v-3.4h.994V49h-.994v-.902q-.263.52-.717.79-.454.268-1.06.268-.924 0-1.375-.604-.452-.605-.452-1.83zm7.65-3.717h2.53v5.226h1.96V49h-4.909v-.768h1.96v-4.458h-1.54zm1.542-2.337h.988v1.247h-.988zm9.406 4.603V49h-.994v-3.728q0-.81-.284-1.192-.285-.381-.892-.381-.693 0-1.066.491-.373.492-.373 1.41V49h-.989v-6.016h.989v.903q.263-.516.714-.782.451-.266 1.069-.266.918 0 1.372.605.454.604.454 1.828zm4.653-3.996v1.708h2.245v.768h-2.245v3.266q0 .666.252.93.253.262.881.262h1.112V49h-1.209q-1.111 0-1.568-.446-.456-.446-.456-1.536v-3.266h-1.606v-.768h1.606v-1.708zm5.705 6.811h3.685V49h-4.872v-.913q1.005-1.058 1.757-1.87.752-.81 1.036-1.143.537-.656.725-1.061.188-.406.188-.83 0-.671-.394-1.053-.395-.381-1.083-.381-.488 0-1.025.177-.538.178-1.14.537v-1.095q.554-.264 1.089-.398.534-.134 1.055-.134 1.176 0 1.893.626.717.625.717 1.64 0 .516-.239 1.032-.239.515-.776 1.138-.3.35-.873.967-.572.618-1.743 1.848zm6.109-7.106h4.06v.913H317.1v1.971q.231-.086.465-.126.233-.04.47-.04 1.246 0 1.976.736.73.735.73 1.992 0 1.268-.765 1.998t-2.092.73q-.639 0-1.168-.085-.529-.086-.948-.258v-1.101q.494.268.994.4t1.02.132q.897 0 1.383-.473t.486-1.343q0-.86-.502-1.337-.502-.478-1.399-.478-.435 0-.849.1-.413.099-.79.297zm11.211.177v1q-.339-.2-.72-.304-.381-.105-.795-.105-1.031 0-1.563.776t-.532 2.286q.258-.538.715-.825.456-.287 1.047-.287 1.16 0 1.797.711.636.712.636 2.017 0 1.3-.655 2.014-.655.715-1.842.715-1.397 0-2.047-1.002-.65-1.002-.65-3.155 0-2.03.782-3.097.781-1.066 2.264-1.066.397 0 .795.083.397.083.768.24zm-1.934 3.39q-.693 0-1.09.499-.398.5-.398 1.38 0 .881.398 1.38.397.5 1.09.5.72 0 1.085-.475.365-.476.365-1.405 0-.934-.365-1.407t-1.085-.473z" fill="#919191"/><path d="M41.893 38.75V27.535h5.124V38.75zm7 0V27.535h5.124V38.75zm7 0V27.535h5.124V38.75zm7 0V27.535h5.124V38.75zm7 0V27.535h5.124V38.75zm7 0V27.535h5.124V38.75zm7 0V27.535h5.124V38.75zm7 0V27.535h5.124V38.75zm7 0V27.535h5.124V38.75zm7 0V27.535h5.124V38.75zm7 0V27.535h5.124V38.75zm7 0V27.535h5.124V38.75zm7 0V27.535h5.124V38.75zm7 0V27.535h5.124V38.75zm7 0V27.535h5.124V38.75zm7 0V27.535h5.124V38.75zm7 0V27.535h5.124V38.75zm7 0V27.535h5.124V38.75zm7 0V27.535h5.124V38.75zm7 0V27.535h5.124V38.75zm7 0V27.535h5.124V38.75zm7 0V27.535h5.124V38.75zm7 0V27.535h5.124V38.75zm7 0V27.535h5.124V38.75zm7 0V27.535h5.124V38.75zm7 0V27.535h5.124V38.75zm7 0V27.535h5.124V38.75zm7 0V27.535h5.124V38.75zm7 0V27.535h5.124V38.75zm7 0V27.535h5.124V38.75zm7 0V27.535h5.124V38.75z" fill="#F99" fill-opacity=".498"/><path d="M258.893 38.75V27.535h5.124V38.75z" fill="#EAEAEA"/><path d="M284.93 32.998q0-1.15-.365-1.735-.365-.586-1.08-.586-.719 0-1.09.588-.37.589-.37 1.733 0 1.138.37 1.73.371.59 1.09.59.715 0 1.08-.586.366-.585.366-1.734zm-2.905-2.246q.236-.44.652-.676.417-.237.965-.237 1.085 0 1.708.836.623.835.623 2.301 0 1.488-.626 2.334-.626.846-1.716.846-.537 0-.948-.234-.411-.234-.658-.68V36h-.988v-8.357h.988zm8.284-.075q-.752 0-1.14.586-.386.585-.386 1.735 0 1.144.387 1.732.387.588 1.139.588.757 0 1.144-.588.386-.588.386-1.732 0-1.15-.386-1.735-.387-.586-1.144-.586zm0-.838q1.251 0 1.914.811.664.811.664 2.348 0 1.541-.66 2.35-.662.808-1.918.808-1.252 0-1.913-.809-.66-.808-.66-2.35 0-1.536.66-2.347.661-.81 1.913-.81zm7 .838q-.752 0-1.14.586-.386.585-.386 1.735 0 1.144.387 1.732.387.588 1.139.588.757 0 1.144-.588.386-.588.386-1.732 0-1.15-.386-1.735-.387-.586-1.144-.586zm0-.838q1.251 0 1.914.811.664.811.664 2.348 0 1.541-.66 2.35-.662.808-1.918.808-1.252 0-1.913-.809-.66-.808-.66-2.35 0-1.536.66-2.347.661-.81 1.913-.81zm7.553 3.986q0 .666.244 1.004.245.338.723.338h1.154V36h-1.251q-.886 0-1.372-.567-.486-.566-.486-1.608v-5.441h-1.585v-.774h2.573z" fill="#919191"/><path d="M47.226 4.194v.967q-.424-.247-.854-.371-.43-.123-.875-.123-.672 0-1.002.217-.33.218-.33.663 0 .403.247.602.247.199 1.23.387l.397.075q.736.14 1.115.558.378.42.378 1.09 0 .892-.634 1.395-.633.502-1.761.502-.446 0-.935-.094-.489-.094-1.058-.282V8.76q.553.284 1.058.426.505.143.956.143.655 0 1.015-.266.36-.266.36-.744 0-.688-1.316-.95l-.043-.012-.37-.075q-.854-.166-1.246-.561t-.392-1.077q0-.865.585-1.335t1.67-.47q.484 0 .93.089.445.089.875.266zm5.072-1.918v1.708h2.245v.768h-2.245v3.266q0 .666.252.93.253.262.881.262h1.112V10h-1.209q-1.111 0-1.568-.446-.456-.446-.456-1.536V4.752h-1.606v-.768h1.606V2.276zm7.011 2.401q-.752 0-1.14.586-.386.585-.386 1.735 0 1.144.387 1.732.387.588 1.139.588.757 0 1.144-.588.386-.588.386-1.732 0-1.15-.386-1.735-.387-.586-1.144-.586zm0-.838q1.251 0 1.914.811.664.811.664 2.348 0 1.541-.66 2.35-.662.808-1.918.808-1.252 0-1.913-.809-.66-.808-.66-2.35 0-1.536.66-2.347.661-.81 1.913-.81zm9.895 1.386q-.317-.247-.645-.36-.328-.113-.72-.113-.923 0-1.412.58-.489.58-.489 1.676V10h-.994V3.984h.994v1.177q.247-.64.76-.98.513-.342 1.217-.342.365 0 .682.092.317.091.607.284zm4.566 1.751h-.327q-.865 0-1.303.304-.437.303-.437.905 0 .542.327.843.328.3.908.3.816 0 1.284-.566.467-.567.472-1.566v-.22zm1.918-.408V10h-.994v-.892q-.317.538-.797.793-.481.255-1.168.255-.919 0-1.467-.519-.548-.518-.548-1.388 0-1.004.674-1.525.674-.521 1.98-.521h1.326v-.156q-.005-.72-.365-1.045-.36-.325-1.15-.325-.504 0-1.02.145-.515.145-1.004.425v-.989q.548-.21 1.05-.314.502-.105.975-.105.746 0 1.275.22.53.22.857.661.204.269.29.664.086.394.086 1.184zm5.92.376q0-1.112-.362-1.69-.363-.577-1.056-.577-.725 0-1.106.578-.381.577-.381 1.689t.384 1.694q.384.583 1.114.583.682 0 1.045-.585.362-.586.362-1.692zm.989 2.67q0 1.353-.64 2.051-.639.698-1.88.698-.408 0-.853-.075-.446-.075-.892-.22v-.978q.526.247.956.366.43.118.79.118.8 0 1.165-.435t.365-1.38v-.716q-.236.505-.644.752-.408.247-.994.247-1.053 0-1.68-.843-.63-.844-.63-2.256 0-1.418.63-2.261.627-.844 1.68-.844.58 0 .983.231t.655.715v-.78h.989zm7.419-3.116v.483h-4.281v.033q-.043 1.23.47 1.767.513.537 1.447.537.473 0 .989-.15.515-.15 1.1-.457v.983q-.563.23-1.087.346-.524.116-1.012.116-1.402 0-2.192-.84-.79-.841-.79-2.318 0-1.44.774-2.3.774-.859 2.063-.859 1.149 0 1.812.78.664.778.707 1.879zm-.989-.29q-.064-.623-.454-1.077-.389-.454-1.12-.454-.714 0-1.176.473-.462.473-.505 1.063zm12.835 1.617q0 .666.244 1.004.245.338.723.338h1.154V10h-1.251q-.886 0-1.372-.567-.486-.566-.486-1.608V2.384h-1.585V1.61h2.573zm6.908-.849h-.327q-.865 0-1.303.304-.437.303-.437.905 0 .542.327.843.328.3.908.3.816 0 1.284-.566.467-.567.472-1.566v-.22zm1.918-.408V10h-.994v-.892q-.317.538-.797.793-.481.255-1.168.255-.919 0-1.467-.519-.548-.518-.548-1.388 0-1.004.674-1.525.674-.521 1.98-.521h1.326v-.156q-.005-.72-.365-1.045-.36-.325-1.15-.325-.504 0-1.02.145-.515.145-1.004.425v-.989q.548-.21 1.05-.314.502-.105.975-.105.746 0 1.275.22.53.22.857.661.204.269.29.664.086.394.086 1.184zm5.92 1.498q-.247.629-.628 1.655-.532 1.418-.714 1.73-.247.418-.618.628-.37.21-.865.21h-.795v-.828h.586q.435 0 .682-.253.247-.252.628-1.305l-2.325-5.919h1.047l1.783 4.705 1.757-4.705h1.047zm5.701-3.389q-.752 0-1.14.586-.386.585-.386 1.735 0 1.144.387 1.732.387.588 1.139.588.757 0 1.144-.588.386-.588.386-1.732 0-1.15-.386-1.735-.387-.586-1.144-.586zm0-.838q1.251 0 1.914.811.664.811.664 2.348 0 1.541-.66 2.35-.662.808-1.918.808-1.252 0-1.913-.809-.66-.808-.66-2.35 0-1.536.66-2.347.661-.81 1.913-.81zm4.738 3.884V3.995h.989v3.728q0 .81.287 1.192.287.381.889.381.698 0 1.069-.491.37-.492.37-1.41v-3.4h.994V10h-.994v-.902q-.263.52-.717.79-.454.268-1.06.268-.924 0-1.375-.604-.452-.605-.452-1.83zm9.251-5.447v1.708h2.245v.768h-2.245v3.266q0 .666.252.93.253.262.881.262h1.112V10h-1.209q-1.111 0-1.568-.446-.456-.446-.456-1.536V4.752h-1.606v-.768h1.606V2.276zm144.239 1.708h1.026l1.746 5.05 1.75-5.05h1.026L283.948 10h-1.273zm10.233 2.992h-.327q-.865 0-1.303.304-.437.303-.437.905 0 .542.327.843.328.3.908.3.816 0 1.284-.566.467-.567.472-1.566v-.22zm1.918-.408V10h-.994v-.892q-.317.538-.797.793-.481.255-1.168.255-.919 0-1.467-.519-.548-.518-.548-1.388 0-1.004.674-1.525.675-.521 1.98-.521h1.326v-.156q-.005-.72-.365-1.045-.36-.325-1.15-.325-.504 0-1.02.145-.515.145-1.004.425v-.989q.548-.21 1.05-.314.502-.105.975-.105.746 0 1.275.22.53.22.857.661.204.269.29.664.086.394.086 1.184zm7.516-1.343q-.317-.247-.645-.36-.328-.113-.72-.113-.923 0-1.412.58-.489.58-.489 1.676V10h-.994V3.984h.994v1.177q.247-.64.76-.98.513-.342 1.217-.342.365 0 .682.092.317.091.607.284zm2.493-1.219h2.53v5.226h1.96V10h-4.909v-.768h1.96V4.774h-1.54zm1.542-2.337h.988v1.247h-.988zm7.531 5.307h-.327q-.865 0-1.303.304-.437.303-.437.905 0 .542.327.843.328.3.908.3.816 0 1.284-.566.467-.567.472-1.566v-.22zm1.918-.408V10h-.994v-.892q-.317.538-.797.793-.481.255-1.168.255-.919 0-1.467-.519-.548-.518-.548-1.388 0-1.004.674-1.525.675-.521 1.98-.521h1.326v-.156q-.005-.72-.365-1.045-.36-.325-1.15-.325-.504 0-1.02.145-.515.145-1.004.425v-.989q.548-.21 1.05-.314.502-.105.975-.105.746 0 1.275.22.53.22.857.661.204.269.29.664.086.394.086 1.184zm6.242.43q0-1.15-.365-1.735-.365-.586-1.08-.586-.719 0-1.09.588-.37.589-.37 1.733 0 1.138.37 1.73.371.59 1.09.59.715 0 1.08-.586.366-.585.366-1.734zm-2.905-2.246q.236-.44.652-.676.417-.237.965-.237 1.085 0 1.708.836.623.835.623 2.301 0 1.488-.626 2.334-.626.846-1.716.846-.537 0-.948-.234-.411-.234-.658-.68V10h-.988V1.643h.988zm8.837 3.073q0 .666.244 1.004.245.338.723.338h1.154V10h-1.251q-.886 0-1.372-.567-.486-.566-.486-1.608V2.384h-1.585V1.61h2.573zm9.154-1.327v.483h-4.281v.033q-.043 1.23.47 1.767.513.537 1.447.537.473 0 .989-.15.515-.15 1.1-.457v.983q-.563.23-1.087.346-.524.116-1.012.116-1.402 0-2.192-.84-.79-.841-.79-2.318 0-1.44.774-2.3.774-.859 2.063-.859 1.149 0 1.812.78.664.778.707 1.879zm-.989-.29q-.064-.623-.454-1.077-.389-.454-1.12-.454-.714 0-1.176.473-.462.473-.505 1.063zm12.271-3.932v1.708h2.245v.768h-2.245v3.266q0 .666.252.93.253.262.881.262h1.112V10h-1.209q-1.111 0-1.568-.446-.456-.446-.456-1.536V4.752h-1.606v-.768h1.606V2.276zm8.31 5.79q-.247.629-.628 1.655-.532 1.418-.714 1.73-.247.418-.618.628-.37.21-.865.21h-.795v-.828h.586q.435 0 .682-.253.247-.252.628-1.305l-2.325-5.919h1.047l1.783 4.705 1.757-4.705h1.047zm4.406 1.177v3.045h-.993V3.984h.993v.768q.247-.445.658-.679.411-.234.948-.234 1.09 0 1.71.844.621.843.621 2.336 0 1.466-.623 2.302-.623.835-1.708.835-.548 0-.959-.234-.41-.234-.647-.68zm2.9-2.245q0-1.15-.362-1.735-.363-.586-1.077-.586-.72 0-1.09.588-.37.589-.37 1.733 0 1.138.37 1.73.37.59 1.09.59.714 0 1.077-.586.363-.585.363-1.734zm8.102-.5v.483h-4.281v.033q-.043 1.23.47 1.767.513.537 1.447.537.473 0 .989-.15.515-.15 1.1-.457v.983q-.563.23-1.087.346-.524.116-1.012.116-1.402 0-2.192-.84-.79-.841-.79-2.318 0-1.44.774-2.3.774-.859 2.063-.859 1.149 0 1.812.78.664.778.707 1.879zm-.989-.29q-.064-.623-.454-1.077-.389-.454-1.12-.454-.714 0-1.176.473-.462.473-.505 1.063z"/></svg>