<svg xmlns="http://www.w3.org/2000/svg" width="155" height="235"><path d="M2.879 13.32V6.411H6.73v.924H3.738v5.983z"/><path d="M2.879 26.32V12.3h.86v14.02z"/><path d="M2.879 39.32V25.3h.86v14.02z"/><path d="M2.879 52.32V38.3h.86v14.02z"/><path d="M2.879 65.32V51.3h.86v14.02z"/><path d="M2.879 78.32V64.3h.86v14.02z"/><path d="M2.879 91.32V77.3h.86v14.02z"/><path d="M2.879 104.32V90.3h.86v14.02z"/><path d="M2.879 117.32V103.3h.86v14.02z"/><path d="M2.879 130.32V116.3h.86v14.02z"/><path d="M2.879 143.32V129.3h.86v14.02z"/><path d="M2.879 156.32V142.3h.86v14.02z"/><path d="M2.879 169.32V155.3h.86v14.02z"/><path d="M2.879 182.32V168.3h.86v14.02z"/><path d="M2.879 195.32V181.3h.86v14.02z"/><path d="M2.879 208.32V194.3h.86v14.02z"/><path d="M2.879 215.336V207.3h.86v7.111H6.73v.924z"/><path d="M10.77 227.976h-.327q-.865 0-1.303.304-.437.303-.437.905 0 .542.327.843.328.3.908.3.816 0 1.284-.566.467-.567.472-1.566v-.22zm1.918-.408V231h-.994v-.892q-.317.538-.797.793-.481.255-1.168.255-.919 0-1.467-.519-.548-.518-.548-1.388 0-1.004.674-1.525.675-.521 1.98-.521h1.326v-.156q-.005-.72-.365-1.045-.36-.325-1.15-.325-.504 0-1.02.145-.515.145-1.004.425v-.989q.548-.21 1.05-.314.502-.105.975-.105.746 0 1.275.22.53.22.857.661.204.269.29.664.086.394.086 1.184zM17.77 227.976h-.327q-.865 0-1.303.304-.437.303-.437.905 0 .542.327.843.328.3.908.3.816 0 1.284-.566.467-.567.472-1.566v-.22zm1.918-.408V231h-.994v-.892q-.317.538-.797.793-.481.255-1.168.255-.919 0-1.467-.519-.548-.518-.548-1.388 0-1.004.674-1.525.675-.521 1.98-.521h1.326v-.156q-.005-.72-.365-1.045-.36-.325-1.15-.325-.504 0-1.02.145-.515.145-1.004.425v-.989q.548-.21 1.05-.314.502-.105.975-.105.746 0 1.275.22.53.22.857.661.204.269.29.664.086.394.086 1.184zM24.77 227.976h-.327q-.865 0-1.303.304-.437.303-.437.905 0 .542.327.843.328.3.908.3.816 0 1.284-.566.467-.567.472-1.566v-.22zm1.918-.408V231h-.994v-.892q-.317.538-.797.793-.481.255-1.168.255-.919 0-1.467-.519-.548-.518-.548-1.388 0-1.004.674-1.525.674-.521 1.98-.521h1.326v-.156q-.005-.72-.365-1.045-.36-.325-1.15-.325-.504 0-1.02.145-.515.145-1.004.425v-.989q.548-.21 1.05-.314.502-.105.975-.105.746 0 1.275.22.53.22.857.661.204.269.29.664.086.394.086 1.184zM31.77 227.976h-.327q-.865 0-1.303.304-.437.303-.437.905 0 .542.327.843.328.3.908.3.816 0 1.284-.566.467-.567.472-1.566v-.22zm1.918-.408V231h-.994v-.892q-.317.538-.797.793-.481.255-1.168.255-.919 0-1.467-.519-.548-.518-.548-1.388 0-1.004.674-1.525.674-.521 1.98-.521h1.326v-.156q-.005-.72-.365-1.045-.36-.325-1.15-.325-.504 0-1.02.145-.515.145-1.004.425v-.989q.548-.21 1.05-.314.502-.105.975-.105.746 0 1.275.22.53.22.857.661.204.269.29.664.086.394.086 1.184zM38.77 227.976h-.327q-.865 0-1.303.304-.437.303-.437.905 0 .542.327.843.328.3.908.3.816 0 1.284-.566.467-.567.472-1.566v-.22zm1.918-.408V231h-.994v-.892q-.317.538-.797.793-.481.255-1.168.255-.919 0-1.467-.519-.548-.518-.548-1.388 0-1.004.674-1.525.675-.521 1.98-.521h1.326v-.156q-.005-.72-.365-1.045-.36-.325-1.15-.325-.504 0-1.02.145-.515.145-1.004.425v-.989q.548-.21 1.05-.314.502-.105.975-.105.746 0 1.275.22.53.22.857.661.204.269.29.664.086.394.086 1.184zM45.77 227.976h-.327q-.865 0-1.303.304-.437.303-.437.905 0 .542.327.843.328.3.908.3.816 0 1.284-.566.467-.567.472-1.566v-.22zm1.918-.408V231h-.994v-.892q-.317.538-.797.793-.481.255-1.168.255-.919 0-1.467-.519-.548-.518-.548-1.388 0-1.004.674-1.525.675-.521 1.98-.521h1.326v-.156q-.005-.72-.365-1.045-.36-.325-1.15-.325-.504 0-1.02.145-.515.145-1.004.425v-.989q.548-.21 1.05-.314.502-.105.975-.105.746 0 1.275.22.53.22.857.661.204.269.29.664.086.394.086 1.184zM52.77 227.976h-.327q-.865 0-1.303.304-.437.303-.437.905 0 .542.327.843.328.3.908.3.816 0 1.284-.566.467-.567.472-1.566v-.22zm1.918-.408V231h-.994v-.892q-.317.538-.797.793-.481.255-1.168.255-.919 0-1.467-.519-.548-.518-.548-1.388 0-1.004.674-1.525.675-.521 1.98-.521h1.326v-.156q-.005-.72-.365-1.045-.36-.325-1.15-.325-.504 0-1.02.145-.515.145-1.004.425v-.989q.548-.21 1.05-.314.502-.105.975-.105.746 0 1.275.22.53.22.857.661.204.269.29.664.086.394.086 1.184zM59.77 227.976h-.327q-.865 0-1.303.304-.437.303-.437.905 0 .542.327.843.328.3.908.3.816 0 1.284-.566.467-.567.472-1.566v-.22zm1.918-.408V231h-.994v-.892q-.317.538-.797.793-.481.255-1.168.255-.919 0-1.467-.519-.548-.518-.548-1.388 0-1.004.674-1.525.675-.521 1.98-.521h1.326v-.156q-.005-.72-.365-1.045-.36-.325-1.15-.325-.504 0-1.02.145-.515.145-1.004.425v-.989q.548-.21 1.05-.314.502-.105.975-.105.746 0 1.275.22.53.22.857.661.204.269.29.664.086.394.086 1.184zM66.77 227.976h-.327q-.865 0-1.303.304-.437.303-.437.905 0 .542.327.843.328.3.908.3.816 0 1.284-.566.467-.567.472-1.566v-.22zm1.918-.408V231h-.994v-.892q-.317.538-.797.793-.481.255-1.168.255-.919 0-1.467-.519-.548-.518-.548-1.388 0-1.004.674-1.525.674-.521 1.98-.521h1.326v-.156q-.005-.72-.365-1.045-.36-.325-1.15-.325-.504 0-1.02.145-.515.145-1.004.425v-.989q.548-.21 1.05-.314.502-.105.975-.105.746 0 1.275.22.53.22.857.661.204.269.29.664.086.394.086 1.184zM73.77 227.976h-.327q-.865 0-1.303.304-.437.303-.437.905 0 .542.327.843.328.3.908.3.816 0 1.284-.566.467-.567.472-1.566v-.22zm1.918-.408V231h-.994v-.892q-.317.538-.797.793-.481.255-1.168.255-.919 0-1.467-.519-.548-.518-.548-1.388 0-1.004.674-1.525.674-.521 1.98-.521h1.326v-.156q-.005-.72-.365-1.045-.36-.325-1.15-.325-.504 0-1.02.145-.515.145-1.004.425v-.989q.548-.21 1.05-.314.502-.105.975-.105.746 0 1.275.22.53.22.857.661.204.269.29.664.086.394.086 1.184zM80.77 227.976h-.327q-.865 0-1.303.304-.437.303-.437.905 0 .542.327.843.328.3.908.3.816 0 1.284-.566.467-.567.472-1.566v-.22zm1.918-.408V231h-.994v-.892q-.317.538-.797.793-.481.255-1.168.255-.919 0-1.467-.519-.548-.518-.548-1.388 0-1.004.674-1.525.674-.521 1.98-.521h1.326v-.156q-.005-.72-.365-1.045-.36-.325-1.15-.325-.504 0-1.02.145-.515.145-1.004.425v-.989q.548-.21 1.05-.314.502-.105.975-.105.746 0 1.275.22.53.22.857.661.204.269.29.664.086.394.086 1.184zM87.77 227.976h-.327q-.865 0-1.303.304-.437.303-.437.905 0 .542.327.843.328.3.908.3.816 0 1.284-.566.467-.567.472-1.566v-.22zm1.918-.408V231h-.994v-.892q-.317.538-.797.793-.481.255-1.168.255-.919 0-1.467-.519-.548-.518-.548-1.388 0-1.004.674-1.525.674-.521 1.98-.521h1.326v-.156q-.005-.72-.365-1.045-.36-.325-1.15-.325-.504 0-1.02.145-.515.145-1.004.425v-.989q.548-.21 1.05-.314.502-.105.975-.105.746 0 1.275.22.53.22.857.661.204.269.29.664.086.394.086 1.184zM94.77 227.976h-.327q-.865 0-1.303.304-.437.303-.437.905 0 .542.327.843.328.3.908.3.816 0 1.284-.566.467-.567.472-1.566v-.22zm1.918-.408V231h-.994v-.892q-.317.538-.797.793-.481.255-1.168.255-.919 0-1.467-.519-.548-.518-.548-1.388 0-1.004.674-1.525.674-.521 1.98-.521h1.326v-.156q-.005-.72-.365-1.045-.36-.325-1.15-.325-.504 0-1.02.145-.515.145-1.004.425v-.989q.548-.21 1.05-.314.502-.105.975-.105.746 0 1.275.22.53.22.857.661.204.269.29.664.086.394.086 1.184zM101.77 227.976h-.327q-.865 0-1.303.304-.437.303-.437.905 0 .542.327.843.328.3.908.3.816 0 1.284-.566.467-.567.472-1.566v-.22zm1.918-.408V231h-.994v-.892q-.317.538-.797.793-.481.255-1.168.255-.919 0-1.467-.519-.548-.518-.548-1.388 0-1.004.674-1.525.674-.521 1.98-.521h1.326v-.156q-.005-.72-.365-1.045-.36-.325-1.15-.325-.504 0-1.02.145-.515.145-1.004.425v-.989q.548-.21 1.05-.314.502-.105.975-.105.746 0 1.275.22.53.22.857.661.204.269.29.664.086.394.086 1.184zM108.77 227.976h-.327q-.865 0-1.303.304-.437.303-.437.905 0 .542.327.843.328.3.908.3.816 0 1.284-.566.467-.567.472-1.566v-.22zm1.918-.408V231h-.994v-.892q-.317.538-.797.793-.481.255-1.168.255-.919 0-1.467-.519-.548-.518-.548-1.388 0-1.004.674-1.525.674-.521 1.98-.521h1.326v-.156q-.005-.72-.365-1.045-.36-.325-1.15-.325-.504 0-1.02.145-.515.145-1.004.425v-.989q.548-.21 1.05-.314.502-.105.975-.105.746 0 1.275.22.53.22.857.661.204.269.29.664.086.394.086 1.184zM115.77 227.976h-.327q-.865 0-1.303.304-.437.303-.437.905 0 .542.327.843.328.3.908.3.816 0 1.284-.566.467-.567.472-1.566v-.22zm1.918-.408V231h-.994v-.892q-.317.538-.797.793-.481.255-1.168.255-.919 0-1.467-.519-.548-.518-.548-1.388 0-1.004.674-1.525.674-.521 1.98-.521h1.326v-.156q-.005-.72-.365-1.045-.36-.325-1.15-.325-.504 0-1.02.145-.515.145-1.004.425v-.989q.548-.21 1.05-.314.502-.105.975-.105.746 0 1.275.22.53.22.857.661.204.269.29.664.086.394.086 1.184zM122.77 227.976h-.327q-.865 0-1.303.304-.437.303-.437.905 0 .542.327.843.328.3.908.3.816 0 1.284-.566.467-.567.472-1.566v-.22zm1.918-.408V231h-.994v-.892q-.317.538-.797.793-.481.255-1.168.255-.919 0-1.467-.519-.548-.518-.548-1.388 0-1.004.674-1.525.674-.521 1.98-.521h1.326v-.156q-.005-.72-.365-1.045-.36-.325-1.15-.325-.504 0-1.02.145-.515.145-1.004.425v-.989q.548-.21 1.05-.314.502-.105.975-.105.746 0 1.275.22.53.22.857.661.204.269.29.664.086.394.086 1.184zM129.77 227.976h-.327q-.865 0-1.303.304-.437.303-.437.905 0 .542.327.843.328.3.908.3.816 0 1.284-.566.467-.567.472-1.566v-.22zm1.918-.408V231h-.994v-.892q-.317.538-.797.793-.481.255-1.168.255-.919 0-1.467-.519-.548-.518-.548-1.388 0-1.004.674-1.525.674-.521 1.98-.521h1.326v-.156q-.005-.72-.365-1.045-.36-.325-1.15-.325-.504 0-1.02.145-.515.145-1.004.425v-.989q.548-.21 1.05-.314.502-.105.975-.105.746 0 1.275.22.53.22.857.661.204.269.29.664.086.394.086 1.184zM136.77 227.976h-.327q-.865 0-1.303.304-.437.303-.437.905 0 .542.327.843.328.3.908.3.816 0 1.284-.566.467-.567.472-1.566v-.22zm1.918-.408V231h-.994v-.892q-.317.538-.797.793-.481.255-1.168.255-.919 0-1.467-.519-.548-.518-.548-1.388 0-1.004.674-1.525.674-.521 1.98-.521h1.326v-.156q-.005-.72-.365-1.045-.36-.325-1.15-.325-.504 0-1.02.145-.515.145-1.004.425v-.989q.548-.21 1.05-.314.502-.105.975-.105.746 0 1.275.22.53.22.857.661.204.269.29.664.086.394.086 1.184zM143.77 227.976h-.327q-.865 0-1.303.304-.437.303-.437.905 0 .542.327.843.328.3.908.3.816 0 1.284-.566.467-.567.472-1.566v-.22zm1.918-.408V231h-.994v-.892q-.317.538-.797.793-.481.255-1.168.255-.919 0-1.467-.519-.548-.518-.548-1.388 0-1.004.674-1.525.674-.521 1.98-.521h1.326v-.156q-.005-.72-.365-1.045-.36-.325-1.15-.325-.504 0-1.02.145-.515.145-1.004.425v-.989q.548-.21 1.05-.314.502-.105.975-.105.746 0 1.275.22.53.22.857.661.204.269.29.664.086.394.086 1.184zM150.77 227.976h-.327q-.865 0-1.303.304-.437.303-.437.905 0 .542.327.843.328.3.908.3.816 0 1.284-.566.467-.567.472-1.566v-.22zm1.918-.408V231h-.994v-.892q-.317.538-.797.793-.481.255-1.168.255-.919 0-1.467-.519-.548-.518-.548-1.388 0-1.004.674-1.525.674-.521 1.98-.521h1.326v-.156q-.005-.72-.365-1.045-.36-.325-1.15-.325-.504 0-1.02.145-.515.145-1.004.425v-.989q.548-.21 1.05-.314.502-.105.975-.105.746 0 1.275.22.53.22.857.661.204.269.29.664.086.394.086 1.184z" fill="#CACACA"/><path d="M6.893 215.336v-.924h6.837v.924zM13.893 215.336v-.924h6.837v.924zM20.893 215.336v-.924h6.837v.924zM27.893 215.336v-.924h6.837v.924zM34.893 215.336v-.924h6.837v.924zM41.893 215.336v-.924h6.837v.924zM48.893 215.336v-.924h6.837v.924zM55.893 215.336v-.924h6.837v.924zM62.893 215.336v-.924h6.837v.924zM69.893 215.336v-.924h6.837v.924zM76.893 215.336v-.924h6.837v.924zM83.893 215.336v-.924h6.837v.924zM90.893 215.336v-.924h6.837v.924zM97.893 215.336v-.924h6.837v.924zM104.893 215.336v-.924h6.837v.924zM111.893 215.336v-.924h6.837v.924zM118.893 215.336v-.924h6.837v.924zM125.893 215.336v-.924h6.837v.924zM132.893 215.336v-.924h6.837v.924zM139.893 215.336v-.924h2.986v-7.111h.86v8.035z"/><path d="M150.77 214.976h-.327q-.865 0-1.303.304-.437.303-.437.905 0 .542.327.843.328.3.908.3.816 0 1.284-.566.467-.567.472-1.566v-.22zm1.918-.408V218h-.994v-.892q-.317.538-.797.793-.481.255-1.168.255-.919 0-1.467-.519-.548-.518-.548-1.388 0-1.004.674-1.525.674-.521 1.98-.521h1.326v-.156q-.005-.72-.365-1.045-.36-.325-1.15-.325-.504 0-1.02.145-.515.145-1.004.425v-.989q.548-.21 1.05-.314.502-.105.975-.105.746 0 1.275.22.53.22.857.661.204.269.29.664.086.394.086 1.184z" fill="#CACACA"/><path d="M16.09 33.83h1.89V36h-1.89zM23.09 33.83h1.89V36h-1.89zM30.09 33.83h1.89V36h-1.89zM37.09 33.83h1.89V36h-1.89zM44.09 33.83h1.89V36h-1.89zM51.09 33.83h1.89V36h-1.89zM58.09 33.83h1.89V36h-1.89zM65.09 33.83h1.89V36h-1.89zM72.09 33.83h1.89V36h-1.89zM79.09 33.83h1.89V36h-1.89zM86.09 33.83h1.89V36h-1.89zM93.09 33.83h1.89V36h-1.89zM100.09 33.83h1.89V36h-1.89zM107.09 33.83h1.89V36h-1.89zM114.09 33.83h1.89V36h-1.89zM121.09 33.83h1.89V36h-1.89zM128.09 33.83h1.89V36h-1.89zM16.304 42.99h1.676v1.939h-1.676zm0 4.055h1.676V49h-1.676zM16.304 55.99h1.676v1.939h-1.676zm0 4.055h1.676V62h-1.676zM16.304 68.99h1.676v1.939h-1.676zm0 4.055h1.676V75h-1.676zM16.304 81.99h1.676v1.939h-1.676zm0 4.055h1.676V88h-1.676zM16.304 94.99h1.676v1.939h-1.676zm0 4.055h1.676V101h-1.676zM16.304 107.99h1.676v1.939h-1.676zm0 4.055h1.676V114h-1.676zM16.304 120.99h1.676v1.939h-1.676zm0 4.055h1.676V127h-1.676zM16.304 133.99h1.676v1.939h-1.676zm0 4.055h1.676V140h-1.676zM16.304 146.99h1.676v1.939h-1.676zm0 4.055h1.676V153h-1.676zM16.304 159.99h1.676v1.939h-1.676zm0 4.055h1.676V166h-1.676zM16.304 172.99h1.676v1.939h-1.676zm0 4.055h1.676V179h-1.676zM16.304 185.99h1.676v1.939h-1.676zm0 4.055h1.676V192h-1.676zM142.879 208.32V194.3h.86v14.02z"/><path d="M150.77 201.976h-.327q-.865 0-1.303.304-.437.303-.437.905 0 .542.327.843.328.3.908.3.816 0 1.284-.566.467-.567.472-1.566v-.22zm1.918-.408V205h-.994v-.892q-.317.538-.797.793-.481.255-1.168.255-.919 0-1.467-.519-.548-.518-.548-1.388 0-1.004.674-1.525.674-.521 1.98-.521h1.326v-.156q-.005-.72-.365-1.045-.36-.325-1.15-.325-.504 0-1.02.145-.515.145-1.004.425v-.989q.548-.21 1.05-.314.502-.105.975-.105.746 0 1.275.22.53.22.857.661.204.269.29.664.086.394.086 1.184z" fill="#CACACA"/><path d="M23.09 46.83h1.89V49h-1.89zM30.09 46.83h1.89V49h-1.89zM37.09 46.83h1.89V49h-1.89zM44.09 46.83h1.89V49h-1.89zM51.09 46.83h1.89V49h-1.89zM58.09 46.83h1.89V49h-1.89zM65.09 46.83h1.89V49h-1.89zM72.09 46.83h1.89V49h-1.89zM79.09 46.83h1.89V49h-1.89zM86.09 46.83h1.89V49h-1.89zM93.09 46.83h1.89V49h-1.89zM100.09 46.83h1.89V49h-1.89zM107.09 46.83h1.89V49h-1.89zM114.09 46.83h1.89V49h-1.89zM121.09 46.83h1.89V49h-1.89zM23.09 59.83h1.89V62h-1.89zM30.09 59.83h1.89V62h-1.89zM37.09 59.83h1.89V62h-1.89zM44.09 59.83h1.89V62h-1.89zM51.09 59.83h1.89V62h-1.89zM58.09 59.83h1.89V62h-1.89zM65.09 59.83h1.89V62h-1.89zM72.09 59.83h1.89V62h-1.89zM79.09 59.83h1.89V62h-1.89zM86.09 59.83h1.89V62h-1.89zM23.09 72.83h1.89V75h-1.89zM30.09 72.83h1.89V75h-1.89zM37.09 72.83h1.89V75h-1.89zM44.09 72.83h1.89V75h-1.89zM51.09 72.83h1.89V75h-1.89zM58.09 72.83h1.89V75h-1.89zM65.09 72.83h1.89V75h-1.89zM72.09 72.83h1.89V75h-1.89zM79.09 72.83h1.89V75h-1.89zM23.09 85.83h1.89V88h-1.89zM30.09 85.83h1.89V88h-1.89zM37.09 85.83h1.89V88h-1.89zM44.09 85.83h1.89V88h-1.89zM51.09 85.83h1.89V88h-1.89zM58.09 85.83h1.89V88h-1.89zM65.09 85.83h1.89V88h-1.89zM72.09 85.83h1.89V88h-1.89zM23.09 98.83h1.89V101h-1.89zM30.09 98.83h1.89V101h-1.89zM37.09 98.83h1.89V101h-1.89zM44.09 98.83h1.89V101h-1.89zM51.09 98.83h1.89V101h-1.89zM58.09 98.83h1.89V101h-1.89zM65.09 98.83h1.89V101h-1.89zM23.09 111.83h1.89V114h-1.89zM30.09 111.83h1.89V114h-1.89zM37.09 111.83h1.89V114h-1.89zM44.09 111.83h1.89V114h-1.89zM51.09 111.83h1.89V114h-1.89zM58.09 111.83h1.89V114h-1.89zM23.09 124.83h1.89V127h-1.89zM30.09 124.83h1.89V127h-1.89zM37.09 124.83h1.89V127h-1.89zM44.09 124.83h1.89V127h-1.89zM51.09 124.83h1.89V127h-1.89zM23.09 137.83h1.89V140h-1.89zM30.09 137.83h1.89V140h-1.89zM37.09 137.83h1.89V140h-1.89zM44.09 137.83h1.89V140h-1.89zM23.09 150.83h1.89V153h-1.89zM30.09 150.83h1.89V153h-1.89zM37.09 150.83h1.89V153h-1.89zM23.09 163.83h1.89V166h-1.89zM23.09 176.83h1.89V179h-1.89zM30.09 163.83h1.89V166h-1.89zM30.09 176.83h1.89V179h-1.89z" fill="#F99"/><path d="M23.09 189.83h1.89V192h-1.89zM30.09 189.83h1.89V192h-1.89zM37.09 189.83h1.89V192h-1.89zM44.09 189.83h1.89V192h-1.89zM51.09 189.83h1.89V192h-1.89zM58.09 189.83h1.89V192h-1.89zM65.09 189.83h1.89V192h-1.89zM72.09 189.83h1.89V192h-1.89zM79.09 189.83h1.89V192h-1.89zM86.09 189.83h1.89V192h-1.89zM93.09 189.83h1.89V192h-1.89zM100.09 189.83h1.89V192h-1.89zM107.09 189.83h1.89V192h-1.89zM114.09 189.83h1.89V192h-1.89zM121.09 189.83h1.89V192h-1.89zM128.304 185.99h1.676v1.939h-1.676zm0 4.055h1.676V192h-1.676zM142.879 195.32V181.3h.86v14.02z"/><path d="M150.77 188.976h-.327q-.865 0-1.303.304-.437.303-.437.905 0 .542.327.843.328.3.908.3.816 0 1.284-.566.467-.567.472-1.566v-.22zm1.918-.408V192h-.994v-.892q-.317.538-.797.793-.481.255-1.168.255-.919 0-1.467-.519-.548-.518-.548-1.388 0-1.004.674-1.525.674-.521 1.98-.521h1.326v-.156q-.005-.72-.365-1.045-.36-.325-1.15-.325-.504 0-1.02.145-.515.145-1.004.425v-.989q.548-.21 1.05-.314.502-.105.975-.105.746 0 1.275.22.53.22.857.661.204.269.29.664.086.394.086 1.184z" fill="#CACACA"/><path d="M38.309 158.937l-1.144 4.104h2.288zm-.656-.956h1.316L41.424 166H40.3l-.59-2.09H36.9l-.58 2.09H35.2zM45.309 158.937l-1.144 4.104h2.288zm-.656-.956h1.316L48.424 166H47.3l-.59-2.09H43.9l-.58 2.09H42.2zM37.09 176.83h1.89V179h-1.89zM44.09 176.83h1.89V179h-1.89zM51.09 176.83h1.89V179h-1.89zM58.09 176.83h1.89V179h-1.89zM65.09 176.83h1.89V179h-1.89zM72.09 176.83h1.89V179h-1.89zM79.09 176.83h1.89V179h-1.89zM86.09 176.83h1.89V179h-1.89zM93.09 176.83h1.89V179h-1.89zM100.09 176.83h1.89V179h-1.89zM107.09 176.83h1.89V179h-1.89zM114.09 176.83h1.89V179h-1.89zM121.09 176.83h1.89V179h-1.89z" fill="#F99"/><path d="M128.304 172.99h1.676v1.939h-1.676zm0 4.055h1.676V179h-1.676zM142.879 182.32V168.3h.86v14.02z"/><path d="M150.77 175.976h-.327q-.865 0-1.303.304-.437.303-.437.905 0 .542.327.843.328.3.908.3.816 0 1.284-.566.467-.567.472-1.566v-.22zm1.918-.408V179h-.994v-.892q-.317.538-.797.793-.481.255-1.168.255-.919 0-1.467-.519-.548-.518-.548-1.388 0-1.004.674-1.525.674-.521 1.98-.521h1.326v-.156q-.005-.72-.365-1.045-.36-.325-1.15-.325-.504 0-1.02.145-.515.145-1.004.425v-.989q.548-.21 1.05-.314.502-.105.975-.105.746 0 1.275.22.53.22.857.661.204.269.29.664.086.394.086 1.184z" fill="#CACACA"/><path d="M51.09 163.83h1.89V166h-1.89zM58.09 163.83h1.89V166h-1.89zM65.09 163.83h1.89V166h-1.89zM72.09 163.83h1.89V166h-1.89zM79.09 163.83h1.89V166h-1.89zM86.09 163.83h1.89V166h-1.89zM93.09 163.83h1.89V166h-1.89zM101.309 158.937l-1.144 4.104h2.288zm-.656-.956h1.316l2.455 8.019H103.3l-.59-2.09H99.9l-.58 2.09H98.2zM108.309 158.937l-1.144 4.104h2.288zm-.656-.956h1.316l2.455 8.019H110.3l-.59-2.09h-2.81l-.58 2.09H105.2zM114.09 163.83h1.89V166h-1.89zM121.09 163.83h1.89V166h-1.89z" fill="#F99"/><path d="M128.304 159.99h1.676v1.939h-1.676zm0 4.055h1.676V166h-1.676zM142.879 169.32V155.3h.86v14.02z"/><path d="M150.77 162.976h-.327q-.865 0-1.303.304-.437.303-.437.905 0 .542.327.843.328.3.908.3.816 0 1.284-.566.467-.567.472-1.566v-.22zm1.918-.408V166h-.994v-.892q-.317.538-.797.793-.481.255-1.168.255-.919 0-1.467-.519-.548-.518-.548-1.388 0-1.004.674-1.525.674-.521 1.98-.521h1.326v-.156q-.005-.72-.365-1.045-.36-.325-1.15-.325-.504 0-1.02.145-.515.145-1.004.425v-.989q.548-.21 1.05-.314.502-.105.975-.105.746 0 1.275.22.53.22.857.661.204.269.29.664.086.394.086 1.184z" fill="#CACACA"/><path d="M45.309 145.937l-1.144 4.104h2.288zm-.656-.956h1.316L48.424 153H47.3l-.59-2.09H43.9l-.58 2.09H42.2zM52.309 145.937l-1.144 4.104h2.288zm-.656-.956h1.316L55.424 153H54.3l-.59-2.09H50.9l-.58 2.09H49.2zM58.09 150.83h1.89V153h-1.89zM65.09 150.83h1.89V153h-1.89zM72.09 150.83h1.89V153h-1.89zM79.09 150.83h1.89V153h-1.89zM86.09 150.83h1.89V153h-1.89zM93.09 150.83h1.89V153h-1.89zM101.309 145.937l-1.144 4.104h2.288zm-.656-.956h1.316l2.455 8.019H103.3l-.59-2.09H99.9l-.58 2.09H98.2zM108.77 149.976h-.327q-.865 0-1.303.304-.437.303-.437.905 0 .542.327.843.328.3.908.3.816 0 1.284-.566.467-.567.472-1.566v-.22zm1.918-.408V153h-.994v-.892q-.317.538-.797.793-.481.255-1.168.255-.919 0-1.467-.519-.548-.518-.548-1.388 0-1.004.674-1.525.674-.521 1.98-.521h1.326v-.156q-.005-.72-.365-1.045-.36-.325-1.15-.325-.504 0-1.02.145-.515.145-1.004.425v-.989q.548-.21 1.05-.314.502-.105.975-.105.746 0 1.275.22.53.22.857.661.204.269.29.664.086.394.086 1.184zM114.09 150.83h1.89V153h-1.89zM121.09 150.83h1.89V153h-1.89z" fill="#F99"/><path d="M128.304 146.99h1.676v1.939h-1.676zm0 4.055h1.676V153h-1.676zM142.879 156.32V142.3h.86v14.02z"/><path d="M150.77 149.976h-.327q-.865 0-1.303.304-.437.303-.437.905 0 .542.327.843.328.3.908.3.816 0 1.284-.566.467-.567.472-1.566v-.22zm1.918-.408V153h-.994v-.892q-.317.538-.797.793-.481.255-1.168.255-.919 0-1.467-.519-.548-.518-.548-1.388 0-1.004.674-1.525.674-.521 1.98-.521h1.326v-.156q-.005-.72-.365-1.045-.36-.325-1.15-.325-.504 0-1.02.145-.515.145-1.004.425v-.989q.548-.21 1.05-.314.502-.105.975-.105.746 0 1.275.22.53.22.857.661.204.269.29.664.086.394.086 1.184z" fill="#CACACA"/><path d="M52.309 132.937l-1.144 4.104h2.288zm-.656-.956h1.316L55.424 140H54.3l-.59-2.09H50.9l-.58 2.09H49.2zM59.309 132.937l-1.144 4.104h2.288zm-.656-.956h1.316L62.424 140H61.3l-.59-2.09H57.9l-.58 2.09H56.2zM65.09 137.83h1.89V140h-1.89zM72.09 137.83h1.89V140h-1.89zM79.09 137.83h1.89V140h-1.89zM86.09 137.83h1.89V140h-1.89zM93.09 137.83h1.89V140h-1.89zM101.309 132.937l-1.144 4.104h2.288zm-.656-.956h1.316l2.455 8.019H103.3l-.59-2.09H99.9l-.58 2.09H98.2zM108.77 136.976h-.327q-.865 0-1.303.304-.437.303-.437.905 0 .542.327.843.328.3.908.3.816 0 1.284-.566.467-.567.472-1.566v-.22zm1.918-.408V140h-.994v-.892q-.317.538-.797.793-.481.255-1.168.255-.919 0-1.467-.519-.548-.518-.548-1.388 0-1.004.674-1.525.674-.521 1.98-.521h1.326v-.156q-.005-.72-.365-1.045-.36-.325-1.15-.325-.504 0-1.02.145-.515.145-1.004.425v-.989q.548-.21 1.05-.314.502-.105.975-.105.746 0 1.275.22.53.22.857.661.204.269.29.664.086.394.086 1.184zM114.09 137.83h1.89V140h-1.89zM121.09 137.83h1.89V140h-1.89z" fill="#F99"/><path d="M128.304 133.99h1.676v1.939h-1.676zm0 4.055h1.676V140h-1.676zM142.879 143.32V129.3h.86v14.02z"/><path d="M150.77 136.976h-.327q-.865 0-1.303.304-.437.303-.437.905 0 .542.327.843.328.3.908.3.816 0 1.284-.566.467-.567.472-1.566v-.22zm1.918-.408V140h-.994v-.892q-.317.538-.797.793-.481.255-1.168.255-.919 0-1.467-.519-.548-.518-.548-1.388 0-1.004.674-1.525.674-.521 1.98-.521h1.326v-.156q-.005-.72-.365-1.045-.36-.325-1.15-.325-.504 0-1.02.145-.515.145-1.004.425v-.989q.548-.21 1.05-.314.502-.105.975-.105.746 0 1.275.22.53.22.857.661.204.269.29.664.086.394.086 1.184z" fill="#CACACA"/><path d="M59.309 119.937l-1.144 4.104h2.288zm-.656-.956h1.316L62.424 127H61.3l-.59-2.09H57.9l-.58 2.09H56.2zM66.309 119.937l-1.144 4.104h2.288zm-.656-.956h1.316L69.424 127H68.3l-.59-2.09H64.9l-.58 2.09H63.2zM73.309 119.937l-1.144 4.104h2.288zm-.656-.956h1.316L76.424 127H75.3l-.59-2.09H71.9l-.58 2.09H70.2zM80.77 123.976h-.327q-.865 0-1.303.304-.437.303-.437.905 0 .542.327.843.328.3.908.3.816 0 1.284-.566.467-.567.472-1.566v-.22zm1.918-.408V127h-.994v-.892q-.317.538-.797.793-.481.255-1.168.255-.919 0-1.467-.519-.548-.518-.548-1.388 0-1.004.674-1.525.674-.521 1.98-.521h1.326v-.156q-.005-.72-.365-1.045-.36-.325-1.15-.325-.504 0-1.02.145-.515.145-1.004.425v-.989q.548-.21 1.05-.314.502-.105.975-.105.746 0 1.275.22.53.22.857.661.204.269.29.664.086.394.086 1.184zM87.77 123.976h-.327q-.865 0-1.303.304-.437.303-.437.905 0 .542.327.843.328.3.908.3.816 0 1.284-.566.467-.567.472-1.566v-.22zm1.918-.408V127h-.994v-.892q-.317.538-.797.793-.481.255-1.168.255-.919 0-1.467-.519-.548-.518-.548-1.388 0-1.004.674-1.525.674-.521 1.98-.521h1.326v-.156q-.005-.72-.365-1.045-.36-.325-1.15-.325-.504 0-1.02.145-.515.145-1.004.425v-.989q.548-.21 1.05-.314.502-.105.975-.105.746 0 1.275.22.53.22.857.661.204.269.29.664.086.394.086 1.184zM94.77 123.976h-.327q-.865 0-1.303.304-.437.303-.437.905 0 .542.327.843.328.3.908.3.816 0 1.284-.566.467-.567.472-1.566v-.22zm1.918-.408V127h-.994v-.892q-.317.538-.797.793-.481.255-1.168.255-.919 0-1.467-.519-.548-.518-.548-1.388 0-1.004.674-1.525.674-.521 1.98-.521h1.326v-.156q-.005-.72-.365-1.045-.36-.325-1.15-.325-.504 0-1.02.145-.515.145-1.004.425v-.989q.548-.21 1.05-.314.502-.105.975-.105.746 0 1.275.22.53.22.857.661.204.269.29.664.086.394.086 1.184zM101.77 123.976h-.327q-.865 0-1.303.304-.437.303-.437.905 0 .542.327.843.328.3.908.3.816 0 1.284-.566.467-.567.472-1.566v-.22zm1.918-.408V127h-.994v-.892q-.317.538-.797.793-.481.255-1.168.255-.919 0-1.467-.519-.548-.518-.548-1.388 0-1.004.674-1.525.674-.521 1.98-.521h1.326v-.156q-.005-.72-.365-1.045-.36-.325-1.15-.325-.504 0-1.02.145-.515.145-1.004.425v-.989q.548-.21 1.05-.314.502-.105.975-.105.746 0 1.275.22.53.22.857.661.204.269.29.664.086.394.086 1.184zM108.77 123.976h-.327q-.865 0-1.303.304-.437.303-.437.905 0 .542.327.843.328.3.908.3.816 0 1.284-.566.467-.567.472-1.566v-.22zm1.918-.408V127h-.994v-.892q-.317.538-.797.793-.481.255-1.168.255-.919 0-1.467-.519-.548-.518-.548-1.388 0-1.004.674-1.525.674-.521 1.98-.521h1.326v-.156q-.005-.72-.365-1.045-.36-.325-1.15-.325-.504 0-1.02.145-.515.145-1.004.425v-.989q.548-.21 1.05-.314.502-.105.975-.105.746 0 1.275.22.53.22.857.661.204.269.29.664.086.394.086 1.184zM114.09 124.83h1.89V127h-1.89zM121.09 124.83h1.89V127h-1.89z" fill="#F99"/><path d="M128.304 120.99h1.676v1.939h-1.676zm0 4.055h1.676V127h-1.676zM142.879 130.32V116.3h.86v14.02z"/><path d="M150.77 123.976h-.327q-.865 0-1.303.304-.437.303-.437.905 0 .542.327.843.328.3.908.3.816 0 1.284-.566.467-.567.472-1.566v-.22zm1.918-.408V127h-.994v-.892q-.317.538-.797.793-.481.255-1.168.255-.919 0-1.467-.519-.548-.518-.548-1.388 0-1.004.674-1.525.674-.521 1.98-.521h1.326v-.156q-.005-.72-.365-1.045-.36-.325-1.15-.325-.504 0-1.02.145-.515.145-1.004.425v-.989q.548-.21 1.05-.314.502-.105.975-.105.746 0 1.275.22.53.22.857.661.204.269.29.664.086.394.086 1.184z" fill="#CACACA"/><path d="M66.309 106.937l-1.144 4.104h2.288zm-.656-.956h1.316L69.424 114H68.3l-.59-2.09H64.9l-.58 2.09H63.2zM73.309 106.937l-1.144 4.104h2.288zm-.656-.956h1.316L76.424 114H75.3l-.59-2.09H71.9l-.58 2.09H70.2zM79.09 111.83h1.89V114h-1.89zM86.09 111.83h1.89V114h-1.89zM93.09 111.83h1.89V114h-1.89zM101.309 106.937l-1.144 4.104h2.288zm-.656-.956h1.316l2.455 8.019H103.3l-.59-2.09H99.9l-.58 2.09H98.2zM108.77 110.976h-.327q-.865 0-1.303.304-.437.303-.437.905 0 .542.327.843.328.3.908.3.816 0 1.284-.566.467-.567.472-1.566v-.22zm1.918-.408V114h-.994v-.892q-.317.538-.797.793-.481.255-1.168.255-.919 0-1.467-.519-.548-.518-.548-1.388 0-1.004.674-1.525.674-.521 1.98-.521h1.326v-.156q-.005-.72-.365-1.045-.36-.325-1.15-.325-.504 0-1.02.145-.515.145-1.004.425v-.989q.548-.21 1.05-.314.502-.105.975-.105.746 0 1.275.22.53.22.857.661.204.269.29.664.086.394.086 1.184zM114.09 111.83h1.89V114h-1.89zM121.09 111.83h1.89V114h-1.89z" fill="#F99"/><path d="M128.304 107.99h1.676v1.939h-1.676zm0 4.055h1.676V114h-1.676zM142.879 117.32V103.3h.86v14.02z"/><path d="M150.77 110.976h-.327q-.865 0-1.303.304-.437.303-.437.905 0 .542.327.843.328.3.908.3.816 0 1.284-.566.467-.567.472-1.566v-.22zm1.918-.408V114h-.994v-.892q-.317.538-.797.793-.481.255-1.168.255-.919 0-1.467-.519-.548-.518-.548-1.388 0-1.004.674-1.525.674-.521 1.98-.521h1.326v-.156q-.005-.72-.365-1.045-.36-.325-1.15-.325-.504 0-1.02.145-.515.145-1.004.425v-.989q.548-.21 1.05-.314.502-.105.975-.105.746 0 1.275.22.53.22.857.661.204.269.29.664.086.394.086 1.184z" fill="#CACACA"/><path d="M73.309 93.937l-1.144 4.104h2.288zm-.656-.956h1.316L76.424 101H75.3l-.59-2.09H71.9l-.58 2.09H70.2zM80.77 97.976h-.327q-.865 0-1.303.304-.437.303-.437.905 0 .542.327.843.328.3.908.3.816 0 1.284-.566.467-.567.472-1.566v-.22zm1.918-.408V101h-.994v-.892q-.317.538-.797.793-.481.255-1.168.255-.919 0-1.467-.519-.548-.518-.548-1.388 0-1.004.674-1.525.674-.521 1.98-.521h1.326v-.156q-.005-.72-.365-1.045-.36-.325-1.15-.325-.504 0-1.02.145-.515.145-1.004.425v-.989q.548-.21 1.05-.314.502-.105.975-.105.746 0 1.275.22.53.22.857.661.204.269.29.664.086.394.086 1.184zM86.09 98.83h1.89V101h-1.89zM93.09 98.83h1.89V101h-1.89zM101.309 93.937l-1.144 4.104h2.288zm-.656-.956h1.316l2.455 8.019H103.3l-.59-2.09H99.9l-.58 2.09H98.2zM108.77 97.976h-.327q-.865 0-1.303.304-.437.303-.437.905 0 .542.327.843.328.3.908.3.816 0 1.284-.566.467-.567.472-1.566v-.22zm1.918-.408V101h-.994v-.892q-.317.538-.797.793-.481.255-1.168.255-.919 0-1.467-.519-.548-.518-.548-1.388 0-1.004.674-1.525.674-.521 1.98-.521h1.326v-.156q-.005-.72-.365-1.045-.36-.325-1.15-.325-.504 0-1.02.145-.515.145-1.004.425v-.989q.548-.21 1.05-.314.502-.105.975-.105.746 0 1.275.22.53.22.857.661.204.269.29.664.086.394.086 1.184zM114.09 98.83h1.89V101h-1.89zM121.09 98.83h1.89V101h-1.89z" fill="#F99"/><path d="M128.304 94.99h1.676v1.939h-1.676zm0 4.055h1.676V101h-1.676zM142.879 104.32V90.3h.86v14.02z"/><path d="M150.77 97.976h-.327q-.865 0-1.303.304-.437.303-.437.905 0 .542.327.843.328.3.908.3.816 0 1.284-.566.467-.567.472-1.566v-.22zm1.918-.408V101h-.994v-.892q-.317.538-.797.793-.481.255-1.168.255-.919 0-1.467-.519-.548-.518-.548-1.388 0-1.004.674-1.525.674-.521 1.98-.521h1.326v-.156q-.005-.72-.365-1.045-.36-.325-1.15-.325-.504 0-1.02.145-.515.145-1.004.425v-.989q.548-.21 1.05-.314.502-.105.975-.105.746 0 1.275.22.53.22.857.661.204.269.29.664.086.394.086 1.184z" fill="#CACACA"/><path d="M80.309 80.937l-1.144 4.104h2.288zm-.656-.956h1.316L83.424 88H82.3l-.59-2.09H78.9l-.58 2.09H77.2zM87.77 84.976h-.327q-.865 0-1.303.304-.437.303-.437.905 0 .542.327.843.328.3.908.3.816 0 1.284-.566.467-.567.472-1.566v-.22zm1.918-.408V88h-.994v-.892q-.317.538-.797.793-.481.255-1.168.255-.919 0-1.467-.519-.548-.518-.548-1.388 0-1.004.674-1.525.674-.521 1.98-.521h1.326v-.156q-.005-.72-.365-1.045-.36-.325-1.15-.325-.504 0-1.02.145-.515.145-1.004.425v-.989q.548-.21 1.05-.314.502-.105.975-.105.746 0 1.275.22.53.22.857.661.204.269.29.664.086.394.086 1.184zM93.09 85.83h1.89V88h-1.89zM101.77 84.976h-.327q-.865 0-1.303.304-.437.303-.437.905 0 .542.327.843.328.3.908.3.816 0 1.284-.566.467-.567.472-1.566v-.22zm1.918-.408V88h-.994v-.892q-.317.538-.797.793-.481.255-1.168.255-.919 0-1.467-.519-.548-.518-.548-1.388 0-1.004.674-1.525.674-.521 1.98-.521h1.326v-.156q-.005-.72-.365-1.045-.36-.325-1.15-.325-.504 0-1.02.145-.515.145-1.004.425v-.989q.548-.21 1.05-.314.502-.105.975-.105.746 0 1.275.22.53.22.857.661.204.269.29.664.086.394.086 1.184zM108.77 84.976h-.327q-.865 0-1.303.304-.437.303-.437.905 0 .542.327.843.328.3.908.3.816 0 1.284-.566.467-.567.472-1.566v-.22zm1.918-.408V88h-.994v-.892q-.317.538-.797.793-.481.255-1.168.255-.919 0-1.467-.519-.548-.518-.548-1.388 0-1.004.674-1.525.674-.521 1.98-.521h1.326v-.156q-.005-.72-.365-1.045-.36-.325-1.15-.325-.504 0-1.02.145-.515.145-1.004.425v-.989q.548-.21 1.05-.314.502-.105.975-.105.746 0 1.275.22.53.22.857.661.204.269.29.664.086.394.086 1.184zM114.09 85.83h1.89V88h-1.89zM121.09 85.83h1.89V88h-1.89z" fill="#F99"/><path d="M128.304 81.99h1.676v1.939h-1.676zm0 4.055h1.676V88h-1.676zM142.879 91.32V77.3h.86v14.02z"/><path d="M150.77 84.976h-.327q-.865 0-1.303.304-.437.303-.437.905 0 .542.327.843.328.3.908.3.816 0 1.284-.566.467-.567.472-1.566v-.22zm1.918-.408V88h-.994v-.892q-.317.538-.797.793-.481.255-1.168.255-.919 0-1.467-.519-.548-.518-.548-1.388 0-1.004.674-1.525.674-.521 1.98-.521h1.326v-.156q-.005-.72-.365-1.045-.36-.325-1.15-.325-.504 0-1.02.145-.515.145-1.004.425v-.989q.548-.21 1.05-.314.502-.105.975-.105.746 0 1.275.22.53.22.857.661.204.269.29.664.086.394.086 1.184z" fill="#CACACA"/><path d="M87.309 67.937l-1.144 4.104h2.288zm-.656-.956h1.316L90.424 75H89.3l-.59-2.09H85.9l-.58 2.09H84.2zM94.77 71.976h-.327q-.865 0-1.303.304-.437.303-.437.905 0 .542.327.843.328.3.908.3.816 0 1.284-.566.467-.567.472-1.566v-.22zm1.918-.408V75h-.994v-.892q-.317.538-.797.793-.481.255-1.168.255-.919 0-1.467-.519-.548-.518-.548-1.388 0-1.004.674-1.525.674-.521 1.98-.521h1.326v-.156q-.005-.72-.365-1.045-.36-.325-1.15-.325-.504 0-1.02.145-.515.145-1.004.425v-.989q.548-.21 1.05-.314.502-.105.975-.105.746 0 1.275.22.53.22.857.661.204.269.29.664.086.394.086 1.184zM101.77 71.976h-.327q-.865 0-1.303.304-.437.303-.437.905 0 .542.327.843.328.3.908.3.816 0 1.284-.566.467-.567.472-1.566v-.22zm1.918-.408V75h-.994v-.892q-.317.538-.797.793-.481.255-1.168.255-.919 0-1.467-.519-.548-.518-.548-1.388 0-1.004.674-1.525.674-.521 1.98-.521h1.326v-.156q-.005-.72-.365-1.045-.36-.325-1.15-.325-.504 0-1.02.145-.515.145-1.004.425v-.989q.548-.21 1.05-.314.502-.105.975-.105.746 0 1.275.22.53.22.857.661.204.269.29.664.086.394.086 1.184zM108.77 71.976h-.327q-.865 0-1.303.304-.437.303-.437.905 0 .542.327.843.328.3.908.3.816 0 1.284-.566.467-.567.472-1.566v-.22zm1.918-.408V75h-.994v-.892q-.317.538-.797.793-.481.255-1.168.255-.919 0-1.467-.519-.548-.518-.548-1.388 0-1.004.674-1.525.674-.521 1.98-.521h1.326v-.156q-.005-.72-.365-1.045-.36-.325-1.15-.325-.504 0-1.02.145-.515.145-1.004.425v-.989q.548-.21 1.05-.314.502-.105.975-.105.746 0 1.275.22.53.22.857.661.204.269.29.664.086.394.086 1.184zM114.09 72.83h1.89V75h-1.89zM121.09 72.83h1.89V75h-1.89z" fill="#F99"/><path d="M128.304 68.99h1.676v1.939h-1.676zm0 4.055h1.676V75h-1.676zM142.879 78.32V64.3h.86v14.02z"/><path d="M150.77 71.976h-.327q-.865 0-1.303.304-.437.303-.437.905 0 .542.327.843.328.3.908.3.816 0 1.284-.566.467-.567.472-1.566v-.22zm1.918-.408V75h-.994v-.892q-.317.538-.797.793-.481.255-1.168.255-.919 0-1.467-.519-.548-.518-.548-1.388 0-1.004.674-1.525.674-.521 1.98-.521h1.326v-.156q-.005-.72-.365-1.045-.36-.325-1.15-.325-.504 0-1.02.145-.515.145-1.004.425v-.989q.548-.21 1.05-.314.502-.105.975-.105.746 0 1.275.22.53.22.857.661.204.269.29.664.086.394.086 1.184z" fill="#CACACA"/><path d="M94.309 54.937l-1.144 4.104h2.288zm-.656-.956h1.316L97.424 62H96.3l-.59-2.09H92.9l-.58 2.09H91.2zM101.309 54.937l-1.144 4.104h2.288zm-.656-.956h1.316L104.424 62H103.3l-.59-2.09H99.9l-.58 2.09H98.2zM108.309 54.937l-1.144 4.104h2.288zm-.656-.956h1.316L111.424 62H110.3l-.59-2.09h-2.81l-.58 2.09H105.2zM114.09 59.83h1.89V62h-1.89zM121.09 59.83h1.89V62h-1.89z" fill="#F99"/><path d="M128.304 55.99h1.676v1.939h-1.676zm0 4.055h1.676V62h-1.676zM142.879 65.32V51.3h.86v14.02z"/><path d="M150.77 58.976h-.327q-.865 0-1.303.304-.437.303-.437.905 0 .542.327.843.328.3.908.3.816 0 1.284-.566.467-.567.472-1.566v-.22zm1.918-.408V62h-.994v-.892q-.317.538-.797.793-.481.255-1.168.255-.919 0-1.467-.519-.548-.518-.548-1.388 0-1.004.674-1.525.674-.521 1.98-.521h1.326v-.156q-.005-.72-.365-1.045-.36-.325-1.15-.325-.504 0-1.02.145-.515.145-1.004.425v-.989q.548-.21 1.05-.314.502-.105.975-.105.746 0 1.275.22.53.22.857.661.204.269.29.664.086.394.086 1.184z" fill="#CACACA"/><path d="M128.304 42.99h1.676v1.939h-1.676zm0 4.055h1.676V49h-1.676zM142.879 52.32V38.3h.86v14.02z"/><path d="M150.77 45.976h-.327q-.865 0-1.303.304-.437.303-.437.905 0 .542.327.843.328.3.908.3.816 0 1.284-.566.467-.567.472-1.566v-.22zm1.918-.408V49h-.994v-.892q-.317.538-.797.793-.481.255-1.168.255-.919 0-1.467-.519-.548-.518-.548-1.388 0-1.004.674-1.525.674-.521 1.98-.521h1.326v-.156q-.005-.72-.365-1.045-.36-.325-1.15-.325-.504 0-1.02.145-.515.145-1.004.425v-.989q.548-.21 1.05-.314.502-.105.975-.105.746 0 1.275.22.53.22.857.661.204.269.29.664.086.394.086 1.184z" fill="#CACACA"/><path d="M142.879 39.32V25.3h.86v14.02z"/><path d="M150.77 32.976h-.327q-.865 0-1.303.304-.437.303-.437.905 0 .542.327.843.328.3.908.3.816 0 1.284-.566.467-.567.472-1.566v-.22zm1.918-.408V36h-.994v-.892q-.317.538-.797.793-.481.255-1.168.255-.919 0-1.467-.519-.548-.518-.548-1.388 0-1.004.674-1.525.674-.521 1.98-.521h1.326v-.156q-.005-.72-.365-1.045-.36-.325-1.15-.325-.504 0-1.02.145-.515.145-1.004.425v-.989q.548-.21 1.05-.314.502-.105.975-.105.746 0 1.275.22.53.22.857.661.204.269.29.664.086.394.086 1.184z" fill="#CACACA"/><path d="M142.879 26.32V12.3h.86v14.02z"/><path d="M150.77 19.976h-.327q-.865 0-1.303.304-.437.303-.437.905 0 .542.327.843.328.3.908.3.816 0 1.284-.566.467-.567.472-1.566v-.22zm1.918-.408V23h-.994v-.892q-.317.538-.797.793-.481.255-1.168.255-.919 0-1.467-.519-.548-.518-.548-1.388 0-1.004.674-1.525.674-.521 1.98-.521h1.326v-.156q-.005-.72-.365-1.045-.36-.325-1.15-.325-.504 0-1.02.145-.515.145-1.004.425v-.989q.548-.21 1.05-.314.502-.105.975-.105.746 0 1.275.22.53.22.857.661.204.269.29.664.086.394.086 1.184z" fill="#CACACA"/><path d="M6.893 7.336v-.924h6.837v.924zM13.893 7.336v-.924h6.837v.924zM20.893 7.336v-.924h6.837v.924zM27.893 7.336v-.924h6.837v.924zM34.893 7.336v-.924h6.837v.924zM41.893 7.336v-.924h6.837v.924zM48.893 7.336v-.924h6.837v.924zM55.893 7.336v-.924h6.837v.924zM62.893 7.336v-.924h6.837v.924zM69.893 7.336v-.924h6.837v.924zM76.893 7.336v-.924h6.837v.924zM87.024 1.105H89.3v.769h-1.289v8.271h1.29v.768h-2.278zM96.887 1.981v.913h-5.151v-.913zm-1.09 4.2h-2.97v-.913h2.97zm1.09 2.906V10h-5.151v-.913zM101.985 1.594v11h-.923v-11zM108.309 1.863q1.283 0 1.941 1.047.658 1.048.658 3.1 0 2.051-.658 3.098-.658 1.048-1.941 1.048-1.284 0-1.94-1.048-.655-1.047-.655-3.099 0-2.051.656-3.099.655-1.047 1.939-1.047zm0 7.433q.762 0 1.136-.81.373-.812.373-2.477 0-.886-.108-1.6l-2.556 4.001q.403.886 1.155.886zm0-6.574q-.758 0-1.131.811t-.373 2.476q0 .758.102 1.418l2.503-3.99q-.409-.715-1.101-.715zM114.09 7.83h1.89V10h-1.89zM121.003 9.087h3.685V10h-4.872v-.913q1.005-1.058 1.757-1.87.752-.81 1.036-1.143.537-.656.725-1.061.188-.406.188-.83 0-.671-.394-1.053-.395-.381-1.083-.381-.488 0-1.025.177-.538.178-1.14.537V2.368q.554-.264 1.089-.398.534-.134 1.055-.134 1.176 0 1.893.626.717.625.717 1.64 0 .516-.239 1.032-.239.515-.776 1.138-.3.35-.873.967-.572.618-1.743 1.848zM127.112 1.981h4.06v.913H128.1v1.971q.231-.086.465-.126.233-.04.47-.04 1.246 0 1.976.736.73.735.73 1.992 0 1.268-.765 1.998t-2.092.73q-.639 0-1.168-.085-.529-.086-.948-.258V8.711q.494.268.994.4t1.02.132q.897 0 1.383-.473t.486-1.343q0-.86-.502-1.337-.502-.478-1.399-.478-.435 0-.849.1-.413.099-.79.297zM136.867 1.105v9.808h-2.277v-.768h1.289V1.874h-1.29v-.769zM142.879 13.32V7.335h-2.986v-.924h3.845v6.907z"/></svg>