<svg xmlns="http://www.w3.org/2000/svg" width="869" height="469"><path d="M5.436 457.255v1.101q-.495-.317-.991-.478-.497-.161-1.002-.161-.768 0-1.214.357-.446.357-.446.964 0 .532.293.811.293.28 1.093.467l.57.13q1.127.262 1.643.826.515.564.515 1.537 0 1.144-.709 1.745-.709.602-2.062.602-.564 0-1.133-.121-.57-.12-1.144-.363v-1.154q.617.392 1.168.574.55.183 1.109.183.822 0 1.278-.368.457-.368.457-1.029 0-.601-.314-.918-.315-.317-1.093-.489l-.58-.134q-1.118-.253-1.623-.763-.504-.51-.504-1.37 0-1.074.722-1.72.722-.648 1.92-.648.462 0 .972.105.51.104 1.075.314zM10.309 456.863q1.283 0 1.941 1.047.658 1.048.658 3.1 0 2.051-.658 3.098-.658 1.048-1.941 1.048-1.284 0-1.94-1.048-.655-1.047-.655-3.099 0-2.051.656-3.099.655-1.047 1.939-1.047zm0 7.433q.762 0 1.136-.81.373-.812.373-2.477 0-.886-.108-1.6l-2.556 4.001q.403.886 1.155.886zm0-6.574q-.758 0-1.131.811t-.373 2.476q0 .758.102 1.418l2.503-3.99q-.409-.715-1.101-.715zM9.879 403.32v-6.908h3.851v.924h-2.992v5.983z"/><path d="M9.879 416.32V402.3h.86v14.02z"/><path d="M9.879 429.32V415.3h.86v14.02z"/><path d="M9.879 442.32V428.3h.86v14.02z"/><path d="M9.879 455.32V441.3h.86v14.02zM33.436 418.255v1.101q-.495-.317-.991-.478-.497-.161-1.002-.161-.768 0-1.214.357-.446.357-.446.964 0 .532.293.811.293.28 1.093.467l.57.13q1.127.262 1.643.826.515.564.515 1.537 0 1.144-.709 1.745-.709.602-2.062.602-.564 0-1.133-.121-.57-.12-1.144-.363v-1.154q.617.392 1.168.574.55.183 1.109.183.822 0 1.278-.368.457-.368.457-1.029 0-.601-.314-.918-.315-.317-1.093-.489l-.58-.134q-1.118-.253-1.623-.763-.504-.51-.504-1.37 0-1.074.722-1.72.722-.648 1.92-.648.462 0 .972.105.51.104 1.075.314zM36.45 425.092h1.687v-6.058l-2.02.972v-1.042l2.009-.956h1.085v7.084h1.665V426H36.45zM61.436 418.255v1.101q-.495-.317-.991-.478-.497-.161-1.002-.161-.768 0-1.214.357-.446.357-.446.964 0 .532.293.811.293.28 1.093.467l.57.13q1.127.262 1.643.826.515.564.515 1.537 0 1.144-.709 1.745-.709.602-2.062.602-.564 0-1.133-.121-.57-.12-1.144-.363v-1.154q.617.392 1.168.574.55.183 1.109.183.822 0 1.278-.368.457-.368.457-1.029 0-.601-.314-.918-.315-.317-1.093-.489l-.58-.134q-1.118-.253-1.623-.763-.504-.51-.504-1.37 0-1.074.722-1.72.722-.648 1.92-.648.462 0 .972.105.51.104 1.075.314zM65.003 425.087h3.685V426h-4.872v-.913q1.005-1.058 1.757-1.87.752-.81 1.036-1.143.537-.656.725-1.061.188-.406.188-.83 0-.671-.394-1.053-.395-.381-1.083-.381-.488 0-1.025.177-.538.178-1.14.537v-1.095q.554-.264 1.089-.398.534-.134 1.055-.134 1.176 0 1.893.626.717.625.717 1.64 0 .516-.239 1.032-.239.515-.776 1.138-.3.35-.873.967-.572.618-1.743 1.848zM89.436 418.255v1.101q-.495-.317-.991-.478-.497-.161-1.002-.161-.768 0-1.214.357-.446.357-.446.964 0 .532.293.811.293.28 1.093.467l.57.13q1.127.262 1.643.826.515.564.515 1.537 0 1.144-.709 1.745-.709.602-2.062.602-.564 0-1.133-.121-.57-.12-1.144-.363v-1.154q.617.392 1.168.574.55.183 1.109.183.822 0 1.278-.368.457-.368.457-1.029 0-.601-.314-.918-.315-.317-1.093-.489l-.58-.134q-1.118-.253-1.623-.763-.504-.51-.504-1.37 0-1.074.722-1.72.722-.648 1.92-.648.462 0 .972.105.51.104 1.075.314zM95.168 421.708q.79.21 1.208.744.42.535.42 1.335 0 1.107-.744 1.738-.744.63-2.06.63-.554 0-1.128-.101-.575-.102-1.128-.296v-1.08q.548.285 1.08.425.531.14 1.058.14.891 0 1.37-.403.477-.403.477-1.16 0-.699-.478-1.11-.478-.41-1.294-.41h-.827v-.892h.827q.746 0 1.165-.328.42-.327.42-.913 0-.617-.39-.948-.39-.33-1.11-.33-.477 0-.988.107-.51.108-1.068.323v-1q.65-.171 1.157-.257.508-.086.9-.086 1.17 0 1.871.588.701.588.701 1.56 0 .661-.367 1.101-.368.44-1.072.623zM117.436 418.255v1.101q-.495-.317-.991-.478-.497-.161-1.002-.161-.768 0-1.214.357-.446.357-.446.964 0 .532.293.811.293.28 1.093.467l.57.13q1.127.262 1.643.826.515.564.515 1.537 0 1.144-.709 1.745-.709.602-2.062.602-.564 0-1.133-.121-.57-.12-1.144-.363v-1.154q.617.392 1.168.574.55.183 1.109.183.822 0 1.278-.368.457-.368.457-1.029 0-.601-.314-.918-.315-.317-1.093-.489l-.58-.134q-1.118-.253-1.623-.763-.504-.51-.504-1.37 0-1.074.722-1.72.722-.648 1.92-.648.462 0 .972.105.51.104 1.075.314zM122.948 418.97l-2.53 4.237h2.53zm-.177-.989h1.256v5.226h1.07v.88h-1.07V426h-1.08v-1.912h-3.4v-1.026zM145.436 418.255v1.101q-.495-.317-.991-.478-.497-.161-1.002-.161-.768 0-1.214.357-.446.357-.446.964 0 .532.293.811.293.28 1.093.467l.57.13q1.127.262 1.643.826.515.564.515 1.537 0 1.144-.709 1.745-.709.602-2.062.602-.564 0-1.133-.121-.57-.12-1.144-.363v-1.154q.617.392 1.168.574.55.183 1.109.183.822 0 1.278-.368.457-.368.457-1.029 0-.601-.314-.918-.315-.317-1.093-.489l-.58-.134q-1.118-.253-1.623-.763-.504-.51-.504-1.37 0-1.074.722-1.72.722-.648 1.92-.648.462 0 .972.105.51.104 1.075.314zM148.112 417.981h4.06v.913H149.1v1.971q.231-.086.465-.126.233-.04.47-.04 1.246 0 1.976.736.73.735.73 1.992 0 1.268-.765 1.998t-2.092.73q-.639 0-1.168-.085-.529-.086-.948-.258v-1.101q.494.268.994.4t1.02.132q.897 0 1.383-.473t.486-1.343q0-.86-.502-1.337-.502-.478-1.399-.478-.435 0-.849.1-.413.099-.79.297zM37.879 416.32V402.3h.86v14.02zM65.879 416.32V402.3h.86v14.02zM93.879 416.32V402.3h.86v14.02zM121.879 416.32V402.3h.86v14.02zM149.879 416.32V402.3h.86v14.02zM13.893 397.336v-.924h6.837v.924zM20.893 397.336v-.924h6.837v.924zM27.893 397.336v-.924h6.837v.924z"/><path d="M37.879 403.32v-5.984h-2.986v-.924h6.837v.924h-2.992v5.983zM41.893 397.336v-.924h6.837v.924zM48.893 397.336v-.924h6.837v.924zM55.893 397.336v-.924h6.837v.924zM65.879 403.32v-5.984h-2.986v-.924h6.837v.924h-2.992v5.983zM69.893 397.336v-.924h6.837v.924zM76.893 397.336v-.924h6.837v.924zM83.893 397.336v-.924h6.837v.924zM93.879 403.32v-5.984h-2.986v-.924h6.837v.924h-2.992v5.983zM97.893 397.336v-.924h6.837v.924zM104.893 397.336v-.924h6.837v.924zM111.893 397.336v-.924h6.837v.924zM121.879 403.32v-5.984h-2.986v-.924h6.837v.924h-2.992v5.983zM125.893 397.336v-.924h6.837v.924zM132.893 397.336v-.924h6.837v.924zM139.893 397.336v-.924h6.837v.924zM149.879 403.32v-5.984h-2.986v-.924h3.845v6.907zM187.436 392.255v1.101q-.495-.317-.991-.478-.497-.161-1.002-.161-.768 0-1.214.357-.446.357-.446.964 0 .532.293.811.293.28 1.093.467l.57.13q1.127.262 1.643.826.515.564.515 1.537 0 1.144-.709 1.745-.709.602-2.062.602-.564 0-1.133-.121-.57-.12-1.144-.363v-1.154q.617.392 1.168.574.55.183 1.109.183.822 0 1.278-.368.457-.368.457-1.029 0-.601-.314-.918-.315-.317-1.093-.489l-.58-.134q-1.118-.253-1.623-.763-.504-.51-.504-1.37 0-1.074.722-1.72.722-.648 1.92-.648.462 0 .972.105.51.104 1.075.314zM192.309 391.863q1.283 0 1.941 1.047.658 1.048.658 3.1 0 2.051-.658 3.098-.658 1.048-1.941 1.048-1.284 0-1.94-1.048-.655-1.047-.655-3.099 0-2.051.656-3.099.655-1.047 1.939-1.047zm0 7.433q.762 0 1.136-.81.373-.812.373-2.477 0-.886-.108-1.6l-2.556 4.001q.403.886 1.155.886zm0-6.574q-.758 0-1.131.811t-.373 2.476q0 .758.102 1.418l2.503-3.99q-.409-.715-1.101-.715zM79.879 351.32v-6.908h3.851v.924h-2.992v5.983z"/><path d="M79.879 364.32V350.3h.86v14.02zM79.143 366.873v3.013H80.4q.752 0 1.173-.398.422-.397.422-1.112 0-.714-.419-1.109-.419-.394-1.176-.394zm-1.085-.892H80.4q1.343 0 2.036.61.692.61.692 1.785 0 1.187-.69 1.794t-2.038.607h-1.257V374h-1.085zM191.879 390.32V376.3h.86v14.02zM165.082 370.213q.419.108.714.406.296.298.736 1.19l1.09 2.191h-1.165l-.956-2.025q-.414-.865-.744-1.114-.33-.25-.862-.25h-1.037V374h-1.09v-8.019h2.234q1.322 0 2.025.596.704.596.704 1.724 0 .795-.432 1.297-.433.503-1.217.615zm-2.224-3.34v2.846h1.187q.78 0 1.16-.349.382-.349.382-1.069 0-.693-.406-1.06-.405-.368-1.179-.368z"/><path d="M191.879 377.32V363.3h.86v14.02zM163.879 364.32V350.3h.86v14.02z"/><path d="M191.879 364.32V350.3h.86v14.02zM215.436 353.255v1.101q-.495-.317-.991-.478-.497-.161-1.002-.161-.768 0-1.214.357-.446.357-.446.964 0 .532.293.811.293.28 1.093.467l.57.13q1.127.262 1.643.826.515.564.515 1.537 0 1.144-.709 1.745-.709.602-2.062.602-.564 0-1.133-.121-.57-.12-1.144-.363v-1.154q.617.392 1.168.574.55.183 1.109.183.822 0 1.278-.368.457-.368.457-1.029 0-.601-.314-.918-.315-.317-1.093-.489l-.58-.134q-1.118-.253-1.623-.763-.504-.51-.504-1.37 0-1.074.722-1.72.722-.648 1.92-.648.462 0 .972.105.51.104 1.075.314zM218.45 360.092h1.687v-6.058l-2.02.972v-1.042l2.009-.956h1.085v7.084h1.665V361h-4.426zM243.436 353.255v1.101q-.495-.317-.991-.478-.497-.161-1.002-.161-.768 0-1.214.357-.446.357-.446.964 0 .532.293.811.293.28 1.093.467l.57.13q1.127.262 1.643.826.515.564.515 1.537 0 1.144-.709 1.745-.709.602-2.062.602-.564 0-1.133-.121-.57-.12-1.144-.363v-1.154q.617.392 1.168.574.55.183 1.109.183.822 0 1.278-.368.457-.368.457-1.029 0-.601-.314-.918-.315-.317-1.093-.489l-.58-.134q-1.118-.253-1.623-.763-.504-.51-.504-1.37 0-1.074.722-1.72.722-.648 1.92-.648.462 0 .972.105.51.104 1.075.314zM247.003 360.087h3.685V361h-4.872v-.913q1.005-1.058 1.757-1.87.752-.81 1.036-1.143.537-.656.725-1.061.188-.406.188-.83 0-.671-.394-1.053-.395-.381-1.083-.381-.488 0-1.025.177-.538.178-1.14.537v-1.095q.554-.264 1.089-.398.534-.134 1.055-.134 1.176 0 1.893.626.717.625.717 1.64 0 .516-.239 1.032-.239.515-.776 1.138-.3.35-.873.967-.572.618-1.743 1.848zM271.436 353.255v1.101q-.495-.317-.991-.478-.497-.161-1.002-.161-.768 0-1.214.357-.446.357-.446.964 0 .532.293.811.293.28 1.093.467l.57.13q1.127.262 1.643.826.515.564.515 1.537 0 1.144-.709 1.745-.709.602-2.062.602-.564 0-1.133-.121-.57-.12-1.144-.363v-1.154q.617.392 1.168.574.55.183 1.109.183.822 0 1.278-.368.457-.368.457-1.029 0-.601-.314-.918-.315-.317-1.093-.489l-.58-.134q-1.118-.253-1.623-.763-.504-.51-.504-1.37 0-1.074.722-1.72.722-.648 1.92-.648.462 0 .972.105.51.104 1.075.314zM277.168 356.708q.79.21 1.208.744.42.535.42 1.335 0 1.107-.744 1.738-.744.63-2.06.63-.554 0-1.128-.101-.575-.102-1.128-.296v-1.08q.548.285 1.08.425.531.14 1.058.14.891 0 1.37-.403.477-.403.477-1.16 0-.699-.478-1.11-.478-.41-1.294-.41h-.827v-.892h.827q.746 0 1.165-.328.42-.327.42-.913 0-.617-.39-.948-.39-.33-1.11-.33-.477 0-.988.107-.51.108-1.068.323v-1q.65-.171 1.157-.257.508-.086.9-.086 1.17 0 1.871.588.701.588.701 1.56 0 .661-.367 1.101-.368.44-1.072.623zM299.436 353.255v1.101q-.495-.317-.991-.478-.497-.161-1.002-.161-.768 0-1.214.357-.446.357-.446.964 0 .532.293.811.293.28 1.093.467l.57.13q1.127.262 1.643.826.515.564.515 1.537 0 1.144-.709 1.745-.709.602-2.062.602-.564 0-1.133-.121-.57-.12-1.144-.363v-1.154q.617.392 1.168.574.55.183 1.109.183.822 0 1.278-.368.457-.368.457-1.029 0-.601-.314-.918-.315-.317-1.093-.489l-.58-.134q-1.118-.253-1.623-.763-.504-.51-.504-1.37 0-1.074.722-1.72.722-.648 1.92-.648.462 0 .972.105.51.104 1.075.314zM304.948 353.97l-2.53 4.237h2.53zm-.177-.989h1.256v5.226h1.07v.88h-1.07V361h-1.08v-1.912h-3.4v-1.026zM327.436 353.255v1.101q-.495-.317-.991-.478-.497-.161-1.002-.161-.768 0-1.214.357-.446.357-.446.964 0 .532.293.811.293.28 1.093.467l.57.13q1.127.262 1.643.826.515.564.515 1.537 0 1.144-.709 1.745-.709.602-2.062.602-.564 0-1.133-.121-.57-.12-1.144-.363v-1.154q.617.392 1.168.574.55.183 1.109.183.822 0 1.278-.368.457-.368.457-1.029 0-.601-.314-.918-.315-.317-1.093-.489l-.58-.134q-1.118-.253-1.623-.763-.504-.51-.504-1.37 0-1.074.722-1.72.722-.648 1.92-.648.462 0 .972.105.51.104 1.075.314zM330.112 352.981h4.06v.913H331.1v1.971q.231-.086.465-.126.233-.04.47-.04 1.246 0 1.976.736.73.735.73 1.992 0 1.268-.765 1.998t-2.092.73q-.639 0-1.168-.085-.529-.086-.948-.258v-1.101q.494.268.994.4t1.02.132q.897 0 1.383-.473t.486-1.343q0-.86-.502-1.337-.502-.478-1.399-.478-.435 0-.849.1-.413.099-.79.297zM83.893 345.336v-.924h6.837v.924zM90.893 345.336v-.924h6.837v.924zM97.893 345.336v-.924h6.837v.924zM104.893 345.336v-.924h6.837v.924zM111.893 345.336v-.924h6.837v.924zM118.893 345.336v-.924h6.837v.924zM125.893 345.336v-.924h6.837v.924zM132.893 345.336v-.924h6.837v.924zM139.893 345.336v-.924h6.837v.924zM146.893 345.336v-.924h2.986v-7.111h.86v7.111h2.991v.924zM153.893 345.336v-.924h6.837v.924zM163.879 351.32v-5.984h-2.986v-.924h3.845v6.907z"/><path d="M191.879 351.32V337.3h.86v14.02zM219.879 351.32V337.3h.86v14.02zM247.879 351.32V337.3h.86v14.02zM275.879 351.32V337.3h.86v14.02zM303.879 351.32V337.3h.86v14.02zM331.879 351.32V337.3h.86v14.02zM362.436 340.255v1.101q-.495-.317-.991-.478-.497-.161-1.002-.161-.768 0-1.214.357-.446.357-.446.964 0 .532.293.811.293.28 1.093.467l.57.13q1.127.262 1.643.826.515.564.515 1.537 0 1.144-.709 1.745-.709.602-2.062.602-.564 0-1.133-.121-.57-.12-1.144-.363v-1.154q.617.392 1.168.574.55.183 1.109.183.822 0 1.278-.368.457-.368.457-1.029 0-.601-.314-.918-.315-.317-1.093-.489l-.58-.134q-1.118-.253-1.623-.763-.504-.51-.504-1.37 0-1.074.722-1.72.722-.648 1.92-.648.462 0 .972.105.51.104 1.075.314zM367.309 339.863q1.283 0 1.941 1.047.658 1.048.658 3.1 0 2.051-.658 3.098-.658 1.048-1.941 1.048-1.284 0-1.94-1.048-.655-1.047-.655-3.099 0-2.051.656-3.099.655-1.047 1.939-1.047zm0 7.433q.762 0 1.136-.81.373-.812.373-2.477 0-.886-.108-1.6l-2.556 4.001q.403.886 1.155.886zm0-6.574q-.758 0-1.131.811t-.373 2.476q0 .758.102 1.418l2.503-3.99q-.409-.715-1.101-.715zM145.93 308.34q-.435.402-.98.609-.546.207-1.18.207-1.525 0-2.374-1.093-.848-1.093-.848-3.064 0-1.966.86-3.065.859-1.098 2.39-1.098.504 0 .966.142.462.143.892.433v1.111q-.435-.413-.892-.61-.456-.195-.967-.195-1.058 0-1.587.819-.529.819-.529 2.463 0 1.67.513 2.473.513.803 1.577.803.36 0 .63-.083.272-.084.492-.26v-2.155h-1.165v-.891h2.202zM149.879 325.32V311.3h.86v14.02z"/><path d="M149.879 338.32V324.3h.86v14.02zM191.879 338.32v-6.908h3.851v.924h-2.992v5.983zM195.893 332.336v-.924h6.837v.924zM202.893 332.336v-.924h6.837v.924zM209.893 332.336v-.924h6.837v.924zM219.879 338.32v-5.984h-2.986v-.924h6.837v.924h-2.992v5.983zM223.893 332.336v-.924h6.837v.924zM230.893 332.336v-.924h6.837v.924zM237.893 332.336v-.924h6.837v.924zM247.879 338.32v-5.984h-2.986v-.924h6.837v.924h-2.992v5.983zM251.893 332.336v-.924h6.837v.924zM258.893 332.336v-.924h2.986v-7.111h.86v7.111h2.991v.924zM265.893 332.336v-.924h6.837v.924zM275.879 338.32v-5.984h-2.986v-.924h6.837v.924h-2.992v5.983zM279.893 332.336v-.924h6.837v.924zM286.893 332.336v-.924h6.837v.924zM293.893 332.336v-.924h6.837v.924zM303.879 338.32v-5.984h-2.986v-.924h6.837v.924h-2.992v5.983zM307.893 332.336v-.924h6.837v.924zM314.893 332.336v-.924h6.837v.924zM321.893 332.336v-.924h6.837v.924zM331.879 338.32v-5.984h-2.986v-.924h3.845v6.907zM366.879 338.32V324.3h.86v14.02z"/><path d="M261.879 325.32V311.3h.86v14.02zM366.879 325.32V311.3h.86v14.02zM148.45 308.092h1.687v-6.058l-2.02.972v-1.042l2.009-.956h1.085v7.084h1.665V309h-4.426zM261.143 301.873v3.013h1.257q.752 0 1.173-.398.422-.397.422-1.112 0-.714-.419-1.109-.419-.394-1.176-.394zm-1.085-.892h2.342q1.343 0 2.036.61.692.61.692 1.785 0 1.187-.69 1.794t-2.038.607h-1.257V309h-1.085zM340.082 305.213q.419.108.714.406.296.298.736 1.19l1.09 2.191h-1.165l-.956-2.025q-.414-.865-.744-1.114-.33-.25-.862-.25h-1.037V309h-1.09v-8.019h2.234q1.322 0 2.025.596.704.596.704 1.724 0 .795-.432 1.297-.433.503-1.217.615zm-2.224-3.34v2.846h1.187q.78 0 1.16-.349.382-.349.382-1.069 0-.693-.406-1.06-.405-.368-1.179-.368z"/><path d="M366.879 312.32V298.3h.86v14.02zM390.436 301.255v1.101q-.495-.317-.991-.478-.497-.161-1.002-.161-.768 0-1.214.357-.446.357-.446.964 0 .532.293.811.293.28 1.093.467l.57.13q1.127.262 1.643.826.515.564.515 1.537 0 1.144-.709 1.745-.709.602-2.062.602-.564 0-1.133-.121-.57-.12-1.144-.363v-1.154q.617.392 1.168.574.55.183 1.109.183.822 0 1.278-.368.457-.368.457-1.029 0-.601-.314-.918-.315-.317-1.093-.489l-.58-.134q-1.118-.253-1.623-.763-.504-.51-.504-1.37 0-1.074.722-1.72.722-.648 1.92-.648.462 0 .972.105.51.104 1.075.314zM393.45 308.092h1.687v-6.058l-2.02.972v-1.042l2.009-.956h1.085v7.084h1.665V309h-4.426zM418.436 301.255v1.101q-.495-.317-.991-.478-.497-.161-1.002-.161-.768 0-1.214.357-.446.357-.446.964 0 .532.293.811.293.28 1.093.467l.57.13q1.127.262 1.643.826.515.564.515 1.537 0 1.144-.709 1.745-.709.602-2.062.602-.564 0-1.133-.121-.57-.12-1.144-.363v-1.154q.617.392 1.168.574.55.183 1.109.183.822 0 1.278-.368.457-.368.457-1.029 0-.601-.314-.918-.315-.317-1.093-.489l-.58-.134q-1.118-.253-1.623-.763-.504-.51-.504-1.37 0-1.074.722-1.72.722-.648 1.92-.648.462 0 .972.105.51.104 1.075.314zM422.003 308.087h3.685V309h-4.872v-.913q1.005-1.058 1.757-1.87.752-.81 1.036-1.143.537-.656.725-1.061.188-.406.188-.83 0-.671-.394-1.053-.395-.381-1.083-.381-.488 0-1.025.177-.538.178-1.14.537v-1.095q.554-.264 1.089-.398.534-.134 1.055-.134 1.176 0 1.893.626.717.625.717 1.64 0 .516-.239 1.032-.239.515-.776 1.138-.3.35-.873.967-.572.618-1.743 1.848zM446.436 301.255v1.101q-.495-.317-.991-.478-.497-.161-1.002-.161-.768 0-1.214.357-.446.357-.446.964 0 .532.293.811.293.28 1.093.467l.57.13q1.127.262 1.643.826.515.564.515 1.537 0 1.144-.709 1.745-.709.602-2.062.602-.564 0-1.133-.121-.57-.12-1.144-.363v-1.154q.617.392 1.168.574.55.183 1.109.183.822 0 1.278-.368.457-.368.457-1.029 0-.601-.314-.918-.315-.317-1.093-.489l-.58-.134q-1.118-.253-1.623-.763-.504-.51-.504-1.37 0-1.074.722-1.72.722-.648 1.92-.648.462 0 .972.105.51.104 1.075.314zM452.168 304.708q.79.21 1.208.744.42.535.42 1.335 0 1.107-.744 1.738-.744.63-2.06.63-.554 0-1.128-.101-.575-.102-1.128-.296v-1.08q.548.285 1.08.425.531.14 1.058.14.891 0 1.37-.403.477-.403.477-1.16 0-.699-.478-1.11-.478-.41-1.294-.41h-.827v-.892h.827q.746 0 1.165-.328.42-.327.42-.913 0-.617-.39-.948-.39-.33-1.11-.33-.477 0-.988.107-.51.108-1.068.323v-1q.65-.171 1.157-.257.508-.086.9-.086 1.17 0 1.871.588.701.588.701 1.56 0 .661-.367 1.101-.368.44-1.072.623zM474.436 301.255v1.101q-.495-.317-.991-.478-.497-.161-1.002-.161-.768 0-1.214.357-.446.357-.446.964 0 .532.293.811.293.28 1.093.467l.57.13q1.127.262 1.643.826.515.564.515 1.537 0 1.144-.709 1.745-.709.602-2.062.602-.564 0-1.133-.121-.57-.12-1.144-.363v-1.154q.617.392 1.168.574.55.183 1.109.183.822 0 1.278-.368.457-.368.457-1.029 0-.601-.314-.918-.315-.317-1.093-.489l-.58-.134q-1.118-.253-1.623-.763-.504-.51-.504-1.37 0-1.074.722-1.72.722-.648 1.92-.648.462 0 .972.105.51.104 1.075.314zM479.948 301.97l-2.53 4.237h2.53zm-.177-.989h1.256v5.226h1.07v.88h-1.07V309h-1.08v-1.912h-3.4v-1.026zM502.436 301.255v1.101q-.495-.317-.991-.478-.497-.161-1.002-.161-.768 0-1.214.357-.446.357-.446.964 0 .532.293.811.293.28 1.093.467l.57.13q1.127.262 1.643.826.515.564.515 1.537 0 1.144-.709 1.745-.709.602-2.062.602-.564 0-1.133-.121-.57-.12-1.144-.363v-1.154q.617.392 1.168.574.55.183 1.109.183.822 0 1.278-.368.457-.368.457-1.029 0-.601-.314-.918-.315-.317-1.093-.489l-.58-.134q-1.118-.253-1.623-.763-.504-.51-.504-1.37 0-1.074.722-1.72.722-.648 1.92-.648.462 0 .972.105.51.104 1.075.314zM505.112 300.981h4.06v.913H506.1v1.971q.231-.086.465-.126.233-.04.47-.04 1.246 0 1.976.736.73.735.73 1.992 0 1.268-.765 1.998t-2.092.73q-.639 0-1.168-.085-.529-.086-.948-.258v-1.101q.494.268.994.4t1.02.132q.897 0 1.383-.473t.486-1.343q0-.86-.502-1.337-.502-.478-1.399-.478-.435 0-.849.1-.413.099-.79.297zM149.879 52.32v-6.908h3.851v.924h-2.992v5.983z"/><path d="M149.879 65.32V51.3h.86v14.02z"/><path d="M149.879 78.32V64.3h.86v14.02z"/><path d="M149.879 91.32V77.3h.86v14.02z"/><path d="M149.879 104.32V90.3h.86v14.02z"/><path d="M149.879 117.32V103.3h.86v14.02z"/><path d="M149.879 130.32V116.3h.86v14.02z"/><path d="M149.879 143.32V129.3h.86v14.02z"/><path d="M149.879 156.32V142.3h.86v14.02z"/><path d="M149.879 169.32V155.3h.86v14.02z"/><path d="M149.879 182.32V168.3h.86v14.02z"/><path d="M149.879 195.32V181.3h.86v14.02z"/><path d="M149.879 208.32V194.3h.86v14.02z"/><path d="M149.879 221.32V207.3h.86v14.02z"/><path d="M149.879 234.32V220.3h.86v14.02z"/><path d="M149.879 247.32V233.3h.86v14.02z"/><path d="M149.879 260.32V246.3h.86v14.02z"/><path d="M149.879 273.32V259.3h.86v14.02z"/><path d="M149.879 286.32V272.3h.86v14.02z"/><path d="M149.879 299.32V285.3h.86v14.02zM261.879 286.32v-6.908h3.851v.924h-2.992v5.983z"/><path d="M261.879 299.32V285.3h.86v14.02zM338.879 299.32V285.3h.86v14.02zM366.879 299.32V285.3h.86v14.02zM394.879 299.32V285.3h.86v14.02zM422.879 299.32V285.3h.86v14.02zM450.879 299.32V285.3h.86v14.02zM478.879 299.32V285.3h.86v14.02zM506.879 299.32V285.3h.86v14.02zM537.436 288.255v1.101q-.495-.317-.991-.478-.497-.161-1.002-.161-.768 0-1.214.357-.446.357-.446.964 0 .532.293.811.293.28 1.093.467l.57.13q1.127.262 1.643.826.515.564.515 1.537 0 1.144-.709 1.745-.709.602-2.062.602-.564 0-1.133-.121-.57-.12-1.144-.363v-1.154q.617.392 1.168.574.55.183 1.109.183.822 0 1.278-.368.457-.368.457-1.029 0-.601-.314-.918-.315-.317-1.093-.489l-.58-.134q-1.118-.253-1.623-.763-.504-.51-.504-1.37 0-1.074.722-1.72.722-.648 1.92-.648.462 0 .972.105.51.104 1.075.314zM542.309 287.863q1.283 0 1.941 1.047.658 1.048.658 3.1 0 2.051-.658 3.098-.658 1.048-1.941 1.048-1.284 0-1.94-1.048-.655-1.047-.655-3.099 0-2.051.656-3.099.655-1.047 1.939-1.047zm0 7.433q.762 0 1.136-.81.373-.812.373-2.477 0-.886-.108-1.6l-2.556 4.001q.403.886 1.155.886zm0-6.574q-.758 0-1.131.811t-.373 2.476q0 .758.102 1.418l2.503-3.99q-.409-.715-1.101-.715zM265.893 280.336v-.924h6.837v.924zM272.893 280.336v-.924h6.837v.924zM279.893 280.336v-.924h6.837v.924zM286.893 280.336v-.924h6.837v.924zM293.893 280.336v-.924h6.837v.924zM300.893 280.336v-.924h6.837v.924zM307.893 280.336v-.924h6.837v.924zM314.893 280.336v-.924h6.837v.924zM321.893 280.336v-.924h6.837v.924zM328.893 280.336v-.924h2.986v-7.111h.86v7.111h2.991v.924z"/><path d="M338.879 286.32v-5.984h-2.986v-.924h3.845v6.907zM366.879 286.32v-6.908h3.851v.924h-2.992v5.983zM370.893 280.336v-.924h6.837v.924zM377.893 280.336v-.924h6.837v.924zM384.893 280.336v-.924h6.837v.924zM394.879 286.32v-5.984h-2.986v-.924h6.837v.924h-2.992v5.983zM398.893 280.336v-.924h6.837v.924zM405.893 280.336v-.924h6.837v.924zM412.893 280.336v-.924h6.837v.924zM422.879 286.32v-5.984h-2.986v-.924h6.837v.924h-2.992v5.983zM426.893 280.336v-.924h6.837v.924zM433.893 280.336v-.924h2.986v-7.111h.86v7.111h2.991v.924zM440.893 280.336v-.924h6.837v.924zM450.879 286.32v-5.984h-2.986v-.924h6.837v.924h-2.992v5.983zM454.893 280.336v-.924h6.837v.924zM461.893 280.336v-.924h6.837v.924zM468.893 280.336v-.924h6.837v.924zM478.879 286.32v-5.984h-2.986v-.924h6.837v.924h-2.992v5.983zM482.893 280.336v-.924h6.837v.924zM489.893 280.336v-.924h6.837v.924zM496.893 280.336v-.924h6.837v.924zM506.879 286.32v-5.984h-2.986v-.924h3.845v6.907zM541.879 286.32V272.3h.86v14.02zM327.93 243.34q-.435.402-.98.609-.546.207-1.18.207-1.525 0-2.374-1.093-.848-1.093-.848-3.064 0-1.966.86-3.065.859-1.098 2.39-1.098.504 0 .966.142.462.143.892.433v1.111q-.435-.413-.892-.61-.456-.195-.967-.195-1.058 0-1.587.819-.529.819-.529 2.463 0 1.67.513 2.473.513.803 1.577.803.36 0 .63-.083.272-.084.492-.26v-2.155h-1.165v-.891h2.202zM331.879 260.32V246.3h.86v14.02z"/><path d="M331.879 273.32V259.3h.86v14.02zM436.143 249.873v3.013h1.257q.752 0 1.173-.398.422-.397.422-1.112 0-.714-.419-1.109-.419-.394-1.176-.394zm-1.085-.892h2.342q1.343 0 2.036.61.692.61.692 1.785 0 1.187-.69 1.794t-2.038.607h-1.257V257h-1.085zM436.879 273.32V259.3h.86v14.02zM541.879 273.32V259.3h.86v14.02zM515.082 253.213q.419.108.714.406.296.298.736 1.19l1.09 2.191h-1.165l-.956-2.025q-.414-.865-.744-1.114-.33-.25-.862-.25h-1.037V257h-1.09v-8.019h2.234q1.322 0 2.025.596.704.596.704 1.724 0 .795-.432 1.297-.433.503-1.217.615zm-2.224-3.34v2.846h1.187q.78 0 1.16-.349.382-.349.382-1.069 0-.693-.406-1.06-.405-.368-1.179-.368z"/><path d="M541.879 260.32V246.3h.86v14.02zM565.436 249.255v1.101q-.495-.317-.991-.478-.497-.161-1.002-.161-.768 0-1.214.357-.446.357-.446.964 0 .532.293.811.293.28 1.093.467l.57.13q1.127.262 1.643.826.515.564.515 1.537 0 1.144-.709 1.745-.709.602-2.062.602-.564 0-1.133-.121-.57-.12-1.144-.363v-1.154q.617.392 1.168.574.55.183 1.109.183.822 0 1.278-.368.457-.368.457-1.029 0-.601-.314-.918-.315-.317-1.093-.489l-.58-.134q-1.118-.253-1.623-.763-.504-.51-.504-1.37 0-1.074.722-1.72.722-.648 1.92-.648.462 0 .972.105.51.104 1.075.314zM568.45 256.092h1.687v-6.058l-2.02.972v-1.042l2.009-.956h1.085v7.084h1.665V257h-4.426zM593.436 249.255v1.101q-.495-.317-.991-.478-.497-.161-1.002-.161-.768 0-1.214.357-.446.357-.446.964 0 .532.293.811.293.28 1.093.467l.57.13q1.127.262 1.643.826.515.564.515 1.537 0 1.144-.709 1.745-.709.602-2.062.602-.564 0-1.133-.121-.57-.12-1.144-.363v-1.154q.617.392 1.168.574.55.183 1.109.183.822 0 1.278-.368.457-.368.457-1.029 0-.601-.314-.918-.315-.317-1.093-.489l-.58-.134q-1.118-.253-1.623-.763-.504-.51-.504-1.37 0-1.074.722-1.72.722-.648 1.92-.648.462 0 .972.105.51.104 1.075.314zM597.003 256.087h3.685V257h-4.872v-.913q1.005-1.058 1.757-1.87.752-.81 1.036-1.143.537-.656.725-1.061.188-.406.188-.83 0-.671-.394-1.053-.395-.381-1.083-.381-.488 0-1.025.177-.538.178-1.14.537v-1.095q.554-.264 1.089-.398.534-.134 1.055-.134 1.176 0 1.893.626.717.625.717 1.64 0 .516-.239 1.032-.239.515-.776 1.138-.3.35-.873.967-.572.618-1.743 1.848zM621.436 249.255v1.101q-.495-.317-.991-.478-.497-.161-1.002-.161-.768 0-1.214.357-.446.357-.446.964 0 .532.293.811.293.28 1.093.467l.57.13q1.127.262 1.643.826.515.564.515 1.537 0 1.144-.709 1.745-.709.602-2.062.602-.564 0-1.133-.121-.57-.12-1.144-.363v-1.154q.617.392 1.168.574.55.183 1.109.183.822 0 1.278-.368.457-.368.457-1.029 0-.601-.314-.918-.315-.317-1.093-.489l-.58-.134q-1.118-.253-1.623-.763-.504-.51-.504-1.37 0-1.074.722-1.72.722-.648 1.92-.648.462 0 .972.105.51.104 1.075.314zM627.168 252.708q.79.21 1.208.744.42.535.42 1.335 0 1.107-.744 1.738-.744.63-2.06.63-.554 0-1.128-.101-.575-.102-1.128-.296v-1.08q.548.285 1.08.425.531.14 1.058.14.891 0 1.37-.403.477-.403.477-1.16 0-.699-.478-1.11-.478-.41-1.294-.41h-.827v-.892h.827q.746 0 1.165-.328.42-.327.42-.913 0-.617-.39-.948-.39-.33-1.11-.33-.477 0-.988.107-.51.108-1.068.323v-1q.65-.171 1.157-.257.508-.086.9-.086 1.17 0 1.871.588.701.588.701 1.56 0 .661-.367 1.101-.368.44-1.072.623zM649.436 249.255v1.101q-.495-.317-.991-.478-.497-.161-1.002-.161-.768 0-1.214.357-.446.357-.446.964 0 .532.293.811.293.28 1.093.467l.57.13q1.127.262 1.643.826.515.564.515 1.537 0 1.144-.709 1.745-.709.602-2.062.602-.564 0-1.133-.121-.57-.12-1.144-.363v-1.154q.617.392 1.168.574.55.183 1.109.183.822 0 1.278-.368.457-.368.457-1.029 0-.601-.314-.918-.315-.317-1.093-.489l-.58-.134q-1.118-.253-1.623-.763-.504-.51-.504-1.37 0-1.074.722-1.72.722-.648 1.92-.648.462 0 .972.105.51.104 1.075.314zM654.948 249.97l-2.53 4.237h2.53zm-.177-.989h1.256v5.226h1.07v.88h-1.07V257h-1.08v-1.912h-3.4v-1.026zM677.436 249.255v1.101q-.495-.317-.991-.478-.497-.161-1.002-.161-.768 0-1.214.357-.446.357-.446.964 0 .532.293.811.293.28 1.093.467l.57.13q1.127.262 1.643.826.515.564.515 1.537 0 1.144-.709 1.745-.709.602-2.062.602-.564 0-1.133-.121-.57-.12-1.144-.363v-1.154q.617.392 1.168.574.55.183 1.109.183.822 0 1.278-.368.457-.368.457-1.029 0-.601-.314-.918-.315-.317-1.093-.489l-.58-.134q-1.118-.253-1.623-.763-.504-.51-.504-1.37 0-1.074.722-1.72.722-.648 1.92-.648.462 0 .972.105.51.104 1.075.314zM680.112 248.981h4.06v.913H681.1v1.971q.231-.086.465-.126.233-.04.47-.04 1.246 0 1.976.736.73.735.73 1.992 0 1.268-.765 1.998t-2.092.73q-.639 0-1.168-.085-.529-.086-.948-.258v-1.101q.494.268.994.4t1.02.132q.897 0 1.383-.473t.486-1.343q0-.86-.502-1.337-.502-.478-1.399-.478-.435 0-.849.1-.413.099-.79.297zM331.003 243.087h3.685V244h-4.872v-.913q1.005-1.058 1.757-1.87.752-.81 1.036-1.143.537-.656.725-1.061.188-.406.188-.83 0-.671-.394-1.053-.395-.381-1.083-.381-.488 0-1.025.177-.538.178-1.14.537v-1.095q.554-.264 1.089-.398.534-.134 1.055-.134 1.176 0 1.893.626.717.625.717 1.64 0 .516-.239 1.032-.239.515-.776 1.138-.3.35-.873.967-.572.618-1.743 1.848zM436.879 247.32V233.3h.86v14.02zM513.879 247.32V233.3h.86v14.02z"/><path d="M541.879 247.32V233.3h.86v14.02zM569.879 247.32V233.3h.86v14.02zM597.879 247.32V233.3h.86v14.02zM625.879 247.32V233.3h.86v14.02zM653.879 247.32V233.3h.86v14.02zM681.879 247.32V233.3h.86v14.02zM712.436 236.255v1.101q-.495-.317-.991-.478-.497-.161-1.002-.161-.768 0-1.214.357-.446.357-.446.964 0 .532.293.811.293.28 1.093.467l.57.13q1.127.262 1.643.826.515.564.515 1.537 0 1.144-.709 1.745-.709.602-2.062.602-.564 0-1.133-.121-.57-.12-1.144-.363v-1.154q.617.392 1.168.574.55.183 1.109.183.822 0 1.278-.368.457-.368.457-1.029 0-.601-.314-.918-.315-.317-1.093-.489l-.58-.134q-1.118-.253-1.623-.763-.504-.51-.504-1.37 0-1.074.722-1.72.722-.648 1.92-.648.462 0 .972.105.51.104 1.075.314zM717.309 235.863q1.283 0 1.941 1.047.658 1.048.658 3.1 0 2.051-.658 3.098-.658 1.048-1.941 1.048-1.284 0-1.94-1.048-.655-1.047-.655-3.099 0-2.051.656-3.099.655-1.047 1.939-1.047zm0 7.433q.762 0 1.136-.81.373-.812.373-2.477 0-.886-.108-1.6l-2.556 4.001q.403.886 1.155.886zm0-6.574q-.758 0-1.131.811t-.373 2.476q0 .758.102 1.418l2.503-3.99q-.409-.715-1.101-.715zM331.879 65.32V51.3h.86v14.02z"/><path d="M331.879 78.32V64.3h.86v14.02z"/><path d="M331.879 91.32V77.3h.86v14.02z"/><path d="M331.879 104.32V90.3h.86v14.02z"/><path d="M331.879 117.32V103.3h.86v14.02z"/><path d="M331.879 130.32V116.3h.86v14.02z"/><path d="M331.879 143.32V129.3h.86v14.02z"/><path d="M331.879 156.32V142.3h.86v14.02z"/><path d="M331.879 169.32V155.3h.86v14.02z"/><path d="M331.879 182.32V168.3h.86v14.02z"/><path d="M331.879 195.32V181.3h.86v14.02z"/><path d="M331.879 208.32V194.3h.86v14.02z"/><path d="M331.879 221.32V207.3h.86v14.02z"/><path d="M331.879 234.32V220.3h.86v14.02zM436.879 234.32v-6.908h3.851v.924h-2.992v5.983zM440.893 228.336v-.924h6.837v.924zM447.893 228.336v-.924h6.837v.924zM454.893 228.336v-.924h6.837v.924zM461.893 228.336v-.924h6.837v.924zM468.893 228.336v-.924h6.837v.924zM475.893 228.336v-.924h6.837v.924zM482.893 228.336v-.924h6.837v.924zM489.893 228.336v-.924h6.837v.924zM496.893 228.336v-.924h6.837v.924zM503.893 228.336v-.924h2.986v-7.111h.86v7.111h2.991v.924zM513.879 234.32v-5.984h-2.986v-.924h3.845v6.907zM541.879 234.32v-6.908h3.851v.924h-2.992v5.983zM545.893 228.336v-.924h6.837v.924zM552.893 228.336v-.924h6.837v.924zM559.893 228.336v-.924h6.837v.924zM569.879 234.32v-5.984h-2.986v-.924h6.837v.924h-2.992v5.983zM573.893 228.336v-.924h6.837v.924zM580.893 228.336v-.924h6.837v.924zM587.893 228.336v-.924h6.837v.924zM597.879 234.32v-5.984h-2.986v-.924h6.837v.924h-2.992v5.983zM601.893 228.336v-.924h6.837v.924zM608.893 228.336v-.924h2.986v-7.111h.86v7.111h2.991v.924zM615.893 228.336v-.924h6.837v.924zM625.879 234.32v-5.984h-2.986v-.924h6.837v.924h-2.992v5.983zM629.893 228.336v-.924h6.837v.924zM636.893 228.336v-.924h6.837v.924zM643.893 228.336v-.924h6.837v.924zM653.879 234.32v-5.984h-2.986v-.924h6.837v.924h-2.992v5.983zM657.893 228.336v-.924h6.837v.924zM664.893 228.336v-.924h6.837v.924zM671.893 228.336v-.924h6.837v.924zM681.879 234.32v-5.984h-2.986v-.924h3.845v6.907zM716.879 234.32V220.3h.86v14.02zM502.93 191.34q-.435.402-.98.609-.546.207-1.18.207-1.525 0-2.374-1.093-.848-1.093-.848-3.064 0-1.966.86-3.065.859-1.098 2.39-1.098.504 0 .966.142.462.143.892.433v1.111q-.435-.413-.892-.61-.456-.195-.967-.195-1.058 0-1.587.819-.529.819-.529 2.463 0 1.67.513 2.473.513.803 1.577.803.36 0 .63-.083.272-.084.492-.26v-2.155h-1.165v-.891h2.202zM506.879 208.32V194.3h.86v14.02z"/><path d="M506.879 221.32V207.3h.86v14.02zM611.143 197.873v3.013h1.257q.752 0 1.173-.398.422-.397.422-1.112 0-.714-.419-1.109-.419-.394-1.176-.394zm-1.085-.892h2.342q1.343 0 2.036.61.692.61.692 1.785 0 1.187-.69 1.794t-2.038.607h-1.257V205h-1.085zM611.879 221.32V207.3h.86v14.02zM716.879 221.32V207.3h.86v14.02zM690.082 201.213q.419.108.714.406.296.298.736 1.19l1.09 2.191h-1.165l-.956-2.025q-.414-.865-.744-1.114-.33-.25-.862-.25h-1.037V205h-1.09v-8.019h2.234q1.322 0 2.025.596.704.596.704 1.724 0 .795-.432 1.297-.433.503-1.217.615zm-2.224-3.34v2.846h1.187q.78 0 1.16-.349.382-.349.382-1.069 0-.693-.406-1.06-.405-.368-1.179-.368z"/><path d="M716.879 208.32V194.3h.86v14.02zM740.436 197.255v1.101q-.495-.317-.991-.478-.497-.161-1.002-.161-.768 0-1.214.357-.446.357-.446.964 0 .532.293.811.293.28 1.093.467l.57.13q1.127.262 1.643.826.515.564.515 1.537 0 1.144-.709 1.745-.709.602-2.062.602-.564 0-1.133-.121-.57-.12-1.144-.363v-1.154q.617.392 1.168.574.55.183 1.109.183.822 0 1.278-.368.457-.368.457-1.029 0-.601-.314-.918-.315-.317-1.093-.489l-.58-.134q-1.118-.253-1.623-.763-.504-.51-.504-1.37 0-1.074.722-1.72.722-.648 1.92-.648.462 0 .972.105.51.104 1.075.314zM743.45 204.092h1.687v-6.058l-2.02.972v-1.042l2.009-.956h1.085v7.084h1.665V205h-4.426zM768.436 197.255v1.101q-.495-.317-.991-.478-.497-.161-1.002-.161-.768 0-1.214.357-.446.357-.446.964 0 .532.293.811.293.28 1.093.467l.57.13q1.127.262 1.643.826.515.564.515 1.537 0 1.144-.709 1.745-.709.602-2.062.602-.564 0-1.133-.121-.57-.12-1.144-.363v-1.154q.617.392 1.168.574.55.183 1.109.183.822 0 1.278-.368.457-.368.457-1.029 0-.601-.314-.918-.315-.317-1.093-.489l-.58-.134q-1.118-.253-1.623-.763-.504-.51-.504-1.37 0-1.074.722-1.72.722-.648 1.92-.648.462 0 .972.105.51.104 1.075.314zM772.003 204.087h3.685V205h-4.872v-.913q1.005-1.058 1.757-1.87.752-.81 1.036-1.143.537-.656.725-1.061.188-.406.188-.83 0-.671-.394-1.053-.395-.381-1.083-.381-.488 0-1.025.177-.538.178-1.14.537v-1.095q.554-.264 1.089-.398.534-.134 1.055-.134 1.176 0 1.893.626.717.625.717 1.64 0 .516-.239 1.032-.239.515-.776 1.138-.3.35-.873.967-.572.618-1.743 1.848zM796.436 197.255v1.101q-.495-.317-.991-.478-.497-.161-1.002-.161-.768 0-1.214.357-.446.357-.446.964 0 .532.293.811.293.28 1.093.467l.57.13q1.127.262 1.643.826.515.564.515 1.537 0 1.144-.709 1.745-.709.602-2.062.602-.564 0-1.133-.121-.57-.12-1.144-.363v-1.154q.617.392 1.168.574.55.183 1.109.183.822 0 1.278-.368.457-.368.457-1.029 0-.601-.314-.918-.315-.317-1.093-.489l-.58-.134q-1.118-.253-1.623-.763-.504-.51-.504-1.37 0-1.074.722-1.72.722-.648 1.92-.648.462 0 .972.105.51.104 1.075.314zM802.168 200.708q.79.21 1.208.744.42.535.42 1.335 0 1.107-.744 1.738-.744.63-2.06.63-.554 0-1.128-.101-.575-.102-1.128-.296v-1.08q.548.285 1.08.425.531.14 1.058.14.891 0 1.37-.403.477-.403.477-1.16 0-.699-.478-1.11-.478-.41-1.294-.41h-.827v-.892h.827q.746 0 1.165-.328.42-.327.42-.913 0-.617-.39-.948-.39-.33-1.11-.33-.477 0-.988.107-.51.108-1.068.323v-1q.65-.171 1.157-.257.508-.086.9-.086 1.17 0 1.871.588.701.588.701 1.56 0 .661-.367 1.101-.368.44-1.072.623zM824.436 197.255v1.101q-.495-.317-.991-.478-.497-.161-1.002-.161-.768 0-1.214.357-.446.357-.446.964 0 .532.293.811.293.28 1.093.467l.57.13q1.127.262 1.643.826.515.564.515 1.537 0 1.144-.709 1.745-.709.602-2.062.602-.564 0-1.133-.121-.57-.12-1.144-.363v-1.154q.617.392 1.168.574.55.183 1.109.183.822 0 1.278-.368.457-.368.457-1.029 0-.601-.314-.918-.315-.317-1.093-.489l-.58-.134q-1.118-.253-1.623-.763-.504-.51-.504-1.37 0-1.074.722-1.72.722-.648 1.92-.648.462 0 .972.105.51.104 1.075.314zM829.948 197.97l-2.53 4.237h2.53zm-.177-.989h1.256v5.226h1.07v.88h-1.07V205h-1.08v-1.912h-3.4v-1.026zM852.436 197.255v1.101q-.495-.317-.991-.478-.497-.161-1.002-.161-.768 0-1.214.357-.446.357-.446.964 0 .532.293.811.293.28 1.093.467l.57.13q1.127.262 1.643.826.515.564.515 1.537 0 1.144-.709 1.745-.709.602-2.062.602-.564 0-1.133-.121-.57-.12-1.144-.363v-1.154q.617.392 1.168.574.55.183 1.109.183.822 0 1.278-.368.457-.368.457-1.029 0-.601-.314-.918-.315-.317-1.093-.489l-.58-.134q-1.118-.253-1.623-.763-.504-.51-.504-1.37 0-1.074.722-1.72.722-.648 1.92-.648.462 0 .972.105.51.104 1.075.314zM855.112 196.981h4.06v.913H856.1v1.971q.231-.086.465-.126.233-.04.47-.04 1.246 0 1.976.736.73.735.73 1.992 0 1.268-.765 1.998t-2.092.73q-.639 0-1.168-.085-.529-.086-.948-.258v-1.101q.494.268.994.4t1.02.132q.897 0 1.383-.473t.486-1.343q0-.86-.502-1.337-.502-.478-1.399-.478-.435 0-.849.1-.413.099-.79.297zM508.168 187.708q.79.21 1.208.744.42.535.42 1.335 0 1.107-.744 1.738-.744.63-2.06.63-.554 0-1.128-.101-.575-.102-1.128-.296v-1.08q.548.285 1.08.425.531.14 1.058.14.891 0 1.37-.403.477-.403.477-1.16 0-.699-.478-1.11-.478-.41-1.294-.41h-.827v-.892h.827q.746 0 1.165-.328.42-.327.42-.913 0-.617-.39-.948-.39-.33-1.11-.33-.477 0-.988.107-.51.108-1.068.323v-1q.65-.171 1.157-.257.508-.086.9-.086 1.17 0 1.871.588.701.588.701 1.56 0 .661-.367 1.101-.368.44-1.072.623zM611.879 195.32V181.3h.86v14.02zM688.879 195.32V181.3h.86v14.02z"/><path d="M716.879 195.32V181.3h.86v14.02zM744.879 195.32V181.3h.86v14.02zM772.879 195.32V181.3h.86v14.02zM800.879 195.32V181.3h.86v14.02zM828.879 195.32V181.3h.86v14.02zM856.879 195.32V181.3h.86v14.02zM506.879 65.32V51.3h.86v14.02z"/><path d="M506.879 78.32V64.3h.86v14.02z"/><path d="M506.879 91.32V77.3h.86v14.02z"/><path d="M506.879 104.32V90.3h.86v14.02z"/><path d="M506.879 117.32V103.3h.86v14.02z"/><path d="M506.879 130.32V116.3h.86v14.02z"/><path d="M506.879 143.32V129.3h.86v14.02z"/><path d="M506.879 156.32V142.3h.86v14.02z"/><path d="M506.879 169.32V155.3h.86v14.02z"/><path d="M506.879 182.32V168.3h.86v14.02zM611.879 182.32v-6.908h3.851v.924h-2.992v5.983zM615.893 176.336v-.924h6.837v.924zM622.893 176.336v-.924h6.837v.924zM629.893 176.336v-.924h6.837v.924zM636.893 176.336v-.924h6.837v.924zM643.893 176.336v-.924h6.837v.924zM650.893 176.336v-.924h6.837v.924zM657.893 176.336v-.924h6.837v.924zM664.893 176.336v-.924h6.837v.924zM671.893 176.336v-.924h6.837v.924zM678.893 176.336v-.924h2.986v-7.111h.86v7.111h2.991v.924zM688.879 182.32v-5.984h-2.986v-.924h3.845v6.907zM716.879 182.32v-6.908h3.851v.924h-2.992v5.983zM720.893 176.336v-.924h6.837v.924zM727.893 176.336v-.924h6.837v.924zM734.893 176.336v-.924h6.837v.924zM744.879 182.32v-5.984h-2.986v-.924h6.837v.924h-2.992v5.983zM748.893 176.336v-.924h6.837v.924zM755.893 176.336v-.924h6.837v.924zM762.893 176.336v-.924h6.837v.924zM772.879 182.32v-5.984h-2.986v-.924h6.837v.924h-2.992v5.983zM776.893 176.336v-.924h6.837v.924zM783.893 176.336v-.924h2.986v-7.111h.86v7.111h2.991v.924zM790.893 176.336v-.924h6.837v.924zM800.879 182.32v-5.984h-2.986v-.924h6.837v.924h-2.992v5.983zM804.893 176.336v-.924h6.837v.924zM811.893 176.336v-.924h6.837v.924zM818.893 176.336v-.924h6.837v.924zM828.879 182.32v-5.984h-2.986v-.924h6.837v.924h-2.992v5.983zM832.893 176.336v-.924h6.837v.924zM839.893 176.336v-.924h6.837v.924zM846.893 176.336v-.924h6.837v.924zM856.879 182.32v-5.984h-2.986v-.924h3.845v6.907zM677.93 139.34q-.435.402-.98.609-.546.207-1.18.207-1.525 0-2.374-1.093-.848-1.093-.848-3.064 0-1.966.86-3.065.859-1.098 2.39-1.098.504 0 .966.142.462.143.892.433v1.111q-.435-.413-.892-.61-.456-.195-.967-.195-1.058 0-1.587.819-.529.819-.529 2.463 0 1.67.513 2.473.513.803 1.577.803.36 0 .63-.083.272-.084.492-.26v-2.155h-1.165v-.891h2.202zM681.879 156.32V142.3h.86v14.02z"/><path d="M681.879 169.32V155.3h.86v14.02zM786.143 145.873v3.013h1.257q.752 0 1.173-.398.422-.397.422-1.112 0-.714-.419-1.109-.419-.394-1.176-.394zm-1.085-.892h2.342q1.343 0 2.036.61.692.61.692 1.785 0 1.187-.69 1.794t-2.038.607h-1.257V153h-1.085zM786.879 169.32V155.3h.86v14.02zM865.082 149.213q.419.108.714.406.296.298.736 1.19l1.09 2.191h-1.165l-.956-2.025q-.414-.865-.744-1.114-.33-.25-.862-.25h-1.037V153h-1.09v-8.019h2.234q1.322 0 2.025.596.704.596.704 1.724 0 .795-.432 1.297-.433.503-1.217.615zm-2.224-3.34v2.846h1.187q.78 0 1.16-.349.382-.349.382-1.069 0-.693-.406-1.06-.405-.368-1.179-.368zM682.948 132.97l-2.53 4.237h2.53zm-.177-.989h1.256v5.226h1.07v.88h-1.07V140h-1.08v-1.912h-3.4v-1.026zM786.879 143.32V129.3h.86v14.02zM863.879 143.32V129.3h.86v14.02zM681.879 65.32V51.3h.86v14.02z"/><path d="M681.879 78.32V64.3h.86v14.02z"/><path d="M681.879 91.32V77.3h.86v14.02z"/><path d="M681.879 104.32V90.3h.86v14.02z"/><path d="M681.879 117.32V103.3h.86v14.02z"/><path d="M681.879 130.32V116.3h.86v14.02zM786.879 130.32v-6.908h3.851v.924h-2.992v5.983zM790.893 124.336v-.924h6.837v.924zM797.893 124.336v-.924h6.837v.924zM804.893 124.336v-.924h6.837v.924zM811.893 124.336v-.924h6.837v.924zM818.893 124.336v-.924h6.837v.924zM825.893 124.336v-.924h6.837v.924zM832.893 124.336v-.924h6.837v.924zM839.893 124.336v-.924h6.837v.924zM846.893 124.336v-.924h6.837v.924zM853.893 124.336v-.924h2.986v-7.111h.86v7.111h2.991v.924zM863.879 130.32v-5.984h-2.986v-.924h3.845v6.907zM852.93 87.34q-.435.402-.98.609-.546.207-1.18.207-1.525 0-2.374-1.093-.848-1.093-.848-3.064 0-1.966.86-3.065.859-1.098 2.39-1.098.504 0 .966.142.462.143.892.433v1.111q-.435-.413-.892-.61-.456-.195-.967-.195-1.058 0-1.587.819-.529.819-.529 2.463 0 1.67.513 2.473.513.803 1.577.803.36 0 .63-.083.272-.084.492-.26v-2.155h-1.165v-.891h2.202zM856.879 104.32V90.3h.86v14.02z"/><path d="M856.879 117.32V103.3h.86v14.02zM855.112 79.981h4.06v.913H856.1v1.971q.231-.086.465-.126.233-.04.47-.04 1.246 0 1.976.736.73.735.73 1.992 0 1.268-.765 1.998t-2.092.73q-.639 0-1.168-.085-.529-.086-.948-.258v-1.101q.494.268.994.4t1.02.132q.897 0 1.383-.473t.486-1.343q0-.86-.502-1.337-.502-.478-1.399-.478-.435 0-.849.1-.413.099-.79.297zM856.879 65.32V51.3h.86v14.02z"/><path d="M856.879 78.32V64.3h.86v14.02zM153.893 46.336v-.924h6.837v.924zM160.893 46.336v-.924h6.837v.924zM167.893 46.336v-.924h6.837v.924zM174.893 46.336v-.924h6.837v.924zM181.893 46.336v-.924h6.837v.924zM188.893 46.336v-.924h6.837v.924zM195.893 46.336v-.924h6.837v.924zM202.893 46.336v-.924h6.837v.924zM209.893 46.336v-.924h6.837v.924zM216.893 46.336v-.924h6.837v.924zM223.893 46.336v-.924h6.837v.924zM230.893 46.336v-.924h6.837v.924zM237.893 46.336v-.924h6.837v.924zM244.893 46.336v-.924h6.837v.924zM251.893 46.336v-.924h6.837v.924zM258.893 46.336v-.924h6.837v.924zM265.893 46.336v-.924h6.837v.924zM272.893 46.336v-.924h6.837v.924zM279.893 46.336v-.924h6.837v.924zM286.893 46.336v-.924h6.837v.924zM293.893 46.336v-.924h6.837v.924zM300.893 46.336v-.924h6.837v.924zM307.893 46.336v-.924h6.837v.924zM314.893 46.336v-.924h6.837v.924zM321.893 46.336v-.924h6.837v.924zM331.879 52.32v-5.984h-2.986v-.924h6.837v.924h-2.992v5.983zM335.893 46.336v-.924h6.837v.924zM342.893 46.336v-.924h6.837v.924zM349.893 46.336v-.924h6.837v.924zM356.893 46.336v-.924h6.837v.924zM363.893 46.336v-.924h6.837v.924zM370.893 46.336v-.924h6.837v.924zM377.893 46.336v-.924h6.837v.924zM384.893 46.336v-.924h6.837v.924zM391.893 46.336v-.924h6.837v.924zM398.893 46.336v-.924h6.837v.924zM405.893 46.336v-.924h6.837v.924zM412.893 46.336v-.924h6.837v.924zM419.893 46.336v-.924h6.837v.924zM426.893 46.336v-.924h6.837v.924zM433.893 46.336v-.924h6.837v.924zM440.893 46.336v-.924h6.837v.924zM447.893 46.336v-.924h6.837v.924zM454.893 46.336v-.924h6.837v.924zM461.893 46.336v-.924h6.837v.924zM468.893 46.336v-.924h6.837v.924zM475.893 46.336v-.924h6.837v.924zM482.893 46.336v-.924h6.837v.924zM489.893 46.336v-.924h6.837v.924zM496.893 46.336v-.924h6.837v.924zM507.738 46.336v5.983h-.86v-5.983h-2.985v-.924h2.986v-7.111h.86v7.111h2.991v.924zM510.893 46.336v-.924h6.837v.924zM517.893 46.336v-.924h6.837v.924zM524.893 46.336v-.924h6.837v.924zM531.893 46.336v-.924h6.837v.924zM538.893 46.336v-.924h6.837v.924zM545.893 46.336v-.924h6.837v.924zM552.893 46.336v-.924h6.837v.924zM559.893 46.336v-.924h6.837v.924zM566.893 46.336v-.924h6.837v.924zM573.893 46.336v-.924h6.837v.924zM580.893 46.336v-.924h6.837v.924zM587.893 46.336v-.924h6.837v.924zM594.893 46.336v-.924h6.837v.924zM601.893 46.336v-.924h6.837v.924zM608.893 46.336v-.924h6.837v.924zM615.893 46.336v-.924h6.837v.924zM622.893 46.336v-.924h6.837v.924zM629.893 46.336v-.924h6.837v.924zM636.893 46.336v-.924h6.837v.924zM643.893 46.336v-.924h6.837v.924zM650.893 46.336v-.924h6.837v.924zM657.893 46.336v-.924h6.837v.924zM664.893 46.336v-.924h6.837v.924zM671.893 46.336v-.924h6.837v.924zM681.879 52.32v-5.984h-2.986v-.924h6.837v.924h-2.992v5.983zM685.893 46.336v-.924h6.837v.924zM692.893 46.336v-.924h6.837v.924zM699.893 46.336v-.924h6.837v.924zM706.893 46.336v-.924h6.837v.924zM713.893 46.336v-.924h6.837v.924zM720.893 46.336v-.924h6.837v.924zM727.893 46.336v-.924h6.837v.924zM734.893 46.336v-.924h6.837v.924zM741.893 46.336v-.924h6.837v.924zM748.893 46.336v-.924h6.837v.924zM755.893 46.336v-.924h6.837v.924zM762.893 46.336v-.924h6.837v.924zM769.893 46.336v-.924h6.837v.924zM776.893 46.336v-.924h6.837v.924zM783.893 46.336v-.924h6.837v.924zM790.893 46.336v-.924h6.837v.924zM797.893 46.336v-.924h6.837v.924zM804.893 46.336v-.924h6.837v.924zM811.893 46.336v-.924h6.837v.924zM818.893 46.336v-.924h6.837v.924zM825.893 46.336v-.924h6.837v.924zM832.893 46.336v-.924h6.837v.924zM839.893 46.336v-.924h6.837v.924zM846.893 46.336v-.924h6.837v.924zM856.879 52.32v-5.984h-2.986v-.924h3.845v6.907zM469.252 1.981h6.118v.913h-2.508V10h-1.09V2.894h-2.52zM506.879 26.32V12.3h.86v14.02z"/><path d="M506.879 39.32V25.3h.86v14.02zM479.309 4.677q-.752 0-1.14.586-.386.585-.386 1.735 0 1.144.387 1.732.387.588 1.139.588.757 0 1.144-.588.386-.588.386-1.732 0-1.15-.386-1.735-.387-.586-1.144-.586zm0-.838q1.251 0 1.914.811.664.811.664 2.348 0 1.541-.66 2.35-.662.808-1.918.808-1.252 0-1.913-.809-.66-.808-.66-2.35 0-1.536.66-2.347.661-.81 1.913-.81zM486.298 2.276v1.708h2.245v.768h-2.245v3.266q0 .666.252.93.253.262.881.262h1.112V10h-1.209q-1.111 0-1.568-.446-.456-.446-.456-1.536V4.752h-1.606v-.768h1.606V2.276zM493.77 6.976h-.327q-.865 0-1.303.304-.437.303-.437.905 0 .542.327.843.328.3.908.3.816 0 1.284-.566.467-.567.472-1.566v-.22zm1.918-.408V10h-.994v-.892q-.317.538-.797.793-.481.255-1.168.255-.919 0-1.467-.519-.548-.518-.548-1.388 0-1.004.674-1.525.675-.521 1.98-.521h1.326v-.156q-.005-.72-.365-1.045-.36-.325-1.15-.325-.504 0-1.02.145-.515.145-1.004.425v-.989q.548-.21 1.05-.314.502-.105.975-.105.746 0 1.275.22.53.22.857.661.204.269.29.664.086.394.086 1.184zM500.862 7.825q0 .666.244 1.004.245.338.723.338h1.154V10h-1.251q-.886 0-1.372-.567-.486-.566-.486-1.608V2.384h-1.585V1.61h2.573zM509.436 2.255v1.101q-.495-.317-.991-.478-.497-.161-1.002-.161-.768 0-1.214.357-.446.357-.446.964 0 .532.293.811.293.28 1.093.467l.57.13q1.127.262 1.643.826.515.564.515 1.537 0 1.144-.709 1.745-.709.602-2.062.602-.564 0-1.133-.121-.57-.12-1.144-.363V8.518q.617.392 1.168.574.55.183 1.109.183.822 0 1.278-.368.457-.368.457-1.029 0-.601-.314-.918-.315-.317-1.093-.489l-.58-.134q-1.118-.253-1.623-.763-.504-.51-.504-1.37 0-1.074.722-1.72.722-.648 1.92-.648.462 0 .972.105.51.104 1.075.314zM512.047 7.723V3.995h.989v3.728q0 .81.287 1.192.287.381.889.381.698 0 1.069-.491.37-.492.37-1.41v-3.4h.994V10h-.994v-.902q-.263.52-.717.79-.454.268-1.06.268-.924 0-1.375-.604-.452-.605-.452-1.83zM520.014 9.243v3.045h-.993V3.984h.993v.768q.247-.445.658-.679.411-.234.948-.234 1.09 0 1.71.844.621.843.621 2.336 0 1.466-.623 2.302-.623.835-1.708.835-.548 0-.959-.234-.41-.234-.647-.68zm2.9-2.245q0-1.15-.362-1.735-.363-.586-1.077-.586-.72 0-1.09.588-.37.589-.37 1.733 0 1.138.37 1.73.37.59 1.09.59.714 0 1.077-.586.363-.585.363-1.734zM527.014 9.243v3.045h-.993V3.984h.993v.768q.247-.445.658-.679.411-.234.948-.234 1.09 0 1.71.844.621.843.621 2.336 0 1.466-.623 2.302-.623.835-1.708.835-.548 0-.959-.234-.41-.234-.647-.68zm2.9-2.245q0-1.15-.362-1.735-.363-.586-1.077-.586-.72 0-1.09.588-.37.589-.37 1.733 0 1.138.37 1.73.37.59 1.09.59.714 0 1.077-.586.363-.585.363-1.734zM535.862 7.825q0 .666.244 1.004.245.338.723.338h1.154V10h-1.251q-.886 0-1.372-.567-.486-.566-.486-1.608V2.384h-1.585V1.61h2.573zM543.608 8.066q-.247.629-.628 1.655-.532 1.418-.714 1.73-.247.418-.618.628-.37.21-.865.21h-.795v-.828h.586q.435 0 .682-.253.247-.252.628-1.305l-2.325-5.919h1.047l1.783 4.705 1.757-4.705h1.047z"/></svg>